%TF.GenerationSoftware,KiCad,Pcbnew,9.0.6*%
%TF.CreationDate,2026-01-15T01:14:31+00:00*%
%TF.ProjectId,EinsteinCE,45696e73-7465-4696-9e43-452e6b696361,rev?*%
%TF.SameCoordinates,Original*%
%TF.FileFunction,Drillmap*%
%TF.FilePolarity,Positive*%
%FSLAX45Y45*%
G04 Gerber Fmt 4.5, Leading zero omitted, Abs format (unit mm)*
G04 Created by KiCad (PCBNEW 9.0.6) date 2026-01-15 01:14:31*
%MOMM*%
%LPD*%
G01*
G04 APERTURE LIST*
%ADD10C,0.100000*%
%ADD11C,0.200000*%
%ADD12C,0.120000*%
G04 APERTURE END LIST*
D10*
X4776000Y-4418000D02*
X21776000Y-4418000D01*
X21776000Y-21428000D01*
X4776000Y-21428000D01*
X4776000Y-4418000D01*
X15103000Y-10189000D02*
G75*
G02*
X14893000Y-10189000I-105000J0D01*
G01*
X14893000Y-10189000D02*
G75*
G02*
X15103000Y-10189000I105000J0D01*
G01*
X19603000Y-10214000D02*
G75*
G02*
X19393000Y-10214000I-105000J0D01*
G01*
X19393000Y-10214000D02*
G75*
G02*
X19603000Y-10214000I105000J0D01*
G01*
D11*
D12*
X15669000Y-4568000D02*
X15789000Y-4688000D01*
X15789000Y-4568000D02*
X15669000Y-4688000D01*
X15669000Y-4818000D02*
X15789000Y-4938000D01*
X15789000Y-4818000D02*
X15669000Y-4938000D01*
X16169000Y-5318000D02*
X16289000Y-5438000D01*
X16289000Y-5318000D02*
X16169000Y-5438000D01*
X16669000Y-4568000D02*
X16789000Y-4688000D01*
X16789000Y-4568000D02*
X16669000Y-4688000D01*
X16669000Y-4818000D02*
X16789000Y-4938000D01*
X16789000Y-4818000D02*
X16669000Y-4938000D01*
D11*
X5031777Y-21744484D02*
X5031777Y-21544484D01*
X5031777Y-21544484D02*
X5079396Y-21544484D01*
X5079396Y-21544484D02*
X5107967Y-21554008D01*
X5107967Y-21554008D02*
X5127015Y-21573055D01*
X5127015Y-21573055D02*
X5136539Y-21592103D01*
X5136539Y-21592103D02*
X5146063Y-21630198D01*
X5146063Y-21630198D02*
X5146063Y-21658770D01*
X5146063Y-21658770D02*
X5136539Y-21696865D01*
X5136539Y-21696865D02*
X5127015Y-21715912D01*
X5127015Y-21715912D02*
X5107967Y-21734960D01*
X5107967Y-21734960D02*
X5079396Y-21744484D01*
X5079396Y-21744484D02*
X5031777Y-21744484D01*
X5231777Y-21744484D02*
X5231777Y-21611150D01*
X5231777Y-21649246D02*
X5241301Y-21630198D01*
X5241301Y-21630198D02*
X5250824Y-21620674D01*
X5250824Y-21620674D02*
X5269872Y-21611150D01*
X5269872Y-21611150D02*
X5288920Y-21611150D01*
X5355586Y-21744484D02*
X5355586Y-21611150D01*
X5355586Y-21544484D02*
X5346063Y-21554008D01*
X5346063Y-21554008D02*
X5355586Y-21563531D01*
X5355586Y-21563531D02*
X5365110Y-21554008D01*
X5365110Y-21554008D02*
X5355586Y-21544484D01*
X5355586Y-21544484D02*
X5355586Y-21563531D01*
X5479396Y-21744484D02*
X5460348Y-21734960D01*
X5460348Y-21734960D02*
X5450824Y-21715912D01*
X5450824Y-21715912D02*
X5450824Y-21544484D01*
X5584158Y-21744484D02*
X5565110Y-21734960D01*
X5565110Y-21734960D02*
X5555586Y-21715912D01*
X5555586Y-21715912D02*
X5555586Y-21544484D01*
X5812729Y-21744484D02*
X5812729Y-21544484D01*
X5812729Y-21544484D02*
X5879396Y-21687341D01*
X5879396Y-21687341D02*
X5946062Y-21544484D01*
X5946062Y-21544484D02*
X5946062Y-21744484D01*
X6127015Y-21744484D02*
X6127015Y-21639722D01*
X6127015Y-21639722D02*
X6117491Y-21620674D01*
X6117491Y-21620674D02*
X6098443Y-21611150D01*
X6098443Y-21611150D02*
X6060348Y-21611150D01*
X6060348Y-21611150D02*
X6041301Y-21620674D01*
X6127015Y-21734960D02*
X6107967Y-21744484D01*
X6107967Y-21744484D02*
X6060348Y-21744484D01*
X6060348Y-21744484D02*
X6041301Y-21734960D01*
X6041301Y-21734960D02*
X6031777Y-21715912D01*
X6031777Y-21715912D02*
X6031777Y-21696865D01*
X6031777Y-21696865D02*
X6041301Y-21677817D01*
X6041301Y-21677817D02*
X6060348Y-21668293D01*
X6060348Y-21668293D02*
X6107967Y-21668293D01*
X6107967Y-21668293D02*
X6127015Y-21658770D01*
X6222253Y-21611150D02*
X6222253Y-21811150D01*
X6222253Y-21620674D02*
X6241301Y-21611150D01*
X6241301Y-21611150D02*
X6279396Y-21611150D01*
X6279396Y-21611150D02*
X6298443Y-21620674D01*
X6298443Y-21620674D02*
X6307967Y-21630198D01*
X6307967Y-21630198D02*
X6317491Y-21649246D01*
X6317491Y-21649246D02*
X6317491Y-21706389D01*
X6317491Y-21706389D02*
X6307967Y-21725436D01*
X6307967Y-21725436D02*
X6298443Y-21734960D01*
X6298443Y-21734960D02*
X6279396Y-21744484D01*
X6279396Y-21744484D02*
X6241301Y-21744484D01*
X6241301Y-21744484D02*
X6222253Y-21734960D01*
X6403205Y-21725436D02*
X6412729Y-21734960D01*
X6412729Y-21734960D02*
X6403205Y-21744484D01*
X6403205Y-21744484D02*
X6393682Y-21734960D01*
X6393682Y-21734960D02*
X6403205Y-21725436D01*
X6403205Y-21725436D02*
X6403205Y-21744484D01*
X6403205Y-21620674D02*
X6412729Y-21630198D01*
X6412729Y-21630198D02*
X6403205Y-21639722D01*
X6403205Y-21639722D02*
X6393682Y-21630198D01*
X6393682Y-21630198D02*
X6403205Y-21620674D01*
X6403205Y-21620674D02*
X6403205Y-21639722D01*
D12*
X4651000Y-22013000D02*
X4771000Y-22133000D01*
X4771000Y-22013000D02*
X4651000Y-22133000D01*
D11*
X5136539Y-22164484D02*
X5022253Y-22164484D01*
X5079396Y-22164484D02*
X5079396Y-21964484D01*
X5079396Y-21964484D02*
X5060348Y-21993055D01*
X5060348Y-21993055D02*
X5041301Y-22012103D01*
X5041301Y-22012103D02*
X5022253Y-22021627D01*
X5222253Y-22145436D02*
X5231777Y-22154960D01*
X5231777Y-22154960D02*
X5222253Y-22164484D01*
X5222253Y-22164484D02*
X5212729Y-22154960D01*
X5212729Y-22154960D02*
X5222253Y-22145436D01*
X5222253Y-22145436D02*
X5222253Y-22164484D01*
X5307967Y-21983531D02*
X5317491Y-21974008D01*
X5317491Y-21974008D02*
X5336539Y-21964484D01*
X5336539Y-21964484D02*
X5384158Y-21964484D01*
X5384158Y-21964484D02*
X5403205Y-21974008D01*
X5403205Y-21974008D02*
X5412729Y-21983531D01*
X5412729Y-21983531D02*
X5422253Y-22002579D01*
X5422253Y-22002579D02*
X5422253Y-22021627D01*
X5422253Y-22021627D02*
X5412729Y-22050198D01*
X5412729Y-22050198D02*
X5298444Y-22164484D01*
X5298444Y-22164484D02*
X5422253Y-22164484D01*
X5546063Y-21964484D02*
X5565110Y-21964484D01*
X5565110Y-21964484D02*
X5584158Y-21974008D01*
X5584158Y-21974008D02*
X5593682Y-21983531D01*
X5593682Y-21983531D02*
X5603205Y-22002579D01*
X5603205Y-22002579D02*
X5612729Y-22040674D01*
X5612729Y-22040674D02*
X5612729Y-22088293D01*
X5612729Y-22088293D02*
X5603205Y-22126389D01*
X5603205Y-22126389D02*
X5593682Y-22145436D01*
X5593682Y-22145436D02*
X5584158Y-22154960D01*
X5584158Y-22154960D02*
X5565110Y-22164484D01*
X5565110Y-22164484D02*
X5546063Y-22164484D01*
X5546063Y-22164484D02*
X5527015Y-22154960D01*
X5527015Y-22154960D02*
X5517491Y-22145436D01*
X5517491Y-22145436D02*
X5507967Y-22126389D01*
X5507967Y-22126389D02*
X5498444Y-22088293D01*
X5498444Y-22088293D02*
X5498444Y-22040674D01*
X5498444Y-22040674D02*
X5507967Y-22002579D01*
X5507967Y-22002579D02*
X5517491Y-21983531D01*
X5517491Y-21983531D02*
X5527015Y-21974008D01*
X5527015Y-21974008D02*
X5546063Y-21964484D01*
X5736539Y-21964484D02*
X5755586Y-21964484D01*
X5755586Y-21964484D02*
X5774634Y-21974008D01*
X5774634Y-21974008D02*
X5784158Y-21983531D01*
X5784158Y-21983531D02*
X5793682Y-22002579D01*
X5793682Y-22002579D02*
X5803205Y-22040674D01*
X5803205Y-22040674D02*
X5803205Y-22088293D01*
X5803205Y-22088293D02*
X5793682Y-22126389D01*
X5793682Y-22126389D02*
X5784158Y-22145436D01*
X5784158Y-22145436D02*
X5774634Y-22154960D01*
X5774634Y-22154960D02*
X5755586Y-22164484D01*
X5755586Y-22164484D02*
X5736539Y-22164484D01*
X5736539Y-22164484D02*
X5717491Y-22154960D01*
X5717491Y-22154960D02*
X5707967Y-22145436D01*
X5707967Y-22145436D02*
X5698443Y-22126389D01*
X5698443Y-22126389D02*
X5688920Y-22088293D01*
X5688920Y-22088293D02*
X5688920Y-22040674D01*
X5688920Y-22040674D02*
X5698443Y-22002579D01*
X5698443Y-22002579D02*
X5707967Y-21983531D01*
X5707967Y-21983531D02*
X5717491Y-21974008D01*
X5717491Y-21974008D02*
X5736539Y-21964484D01*
X5888920Y-22164484D02*
X5888920Y-22031150D01*
X5888920Y-22050198D02*
X5898443Y-22040674D01*
X5898443Y-22040674D02*
X5917491Y-22031150D01*
X5917491Y-22031150D02*
X5946063Y-22031150D01*
X5946063Y-22031150D02*
X5965110Y-22040674D01*
X5965110Y-22040674D02*
X5974634Y-22059722D01*
X5974634Y-22059722D02*
X5974634Y-22164484D01*
X5974634Y-22059722D02*
X5984158Y-22040674D01*
X5984158Y-22040674D02*
X6003205Y-22031150D01*
X6003205Y-22031150D02*
X6031777Y-22031150D01*
X6031777Y-22031150D02*
X6050824Y-22040674D01*
X6050824Y-22040674D02*
X6060348Y-22059722D01*
X6060348Y-22059722D02*
X6060348Y-22164484D01*
X6155586Y-22164484D02*
X6155586Y-22031150D01*
X6155586Y-22050198D02*
X6165110Y-22040674D01*
X6165110Y-22040674D02*
X6184158Y-22031150D01*
X6184158Y-22031150D02*
X6212729Y-22031150D01*
X6212729Y-22031150D02*
X6231777Y-22040674D01*
X6231777Y-22040674D02*
X6241301Y-22059722D01*
X6241301Y-22059722D02*
X6241301Y-22164484D01*
X6241301Y-22059722D02*
X6250824Y-22040674D01*
X6250824Y-22040674D02*
X6269872Y-22031150D01*
X6269872Y-22031150D02*
X6298443Y-22031150D01*
X6298443Y-22031150D02*
X6317491Y-22040674D01*
X6317491Y-22040674D02*
X6327015Y-22059722D01*
X6327015Y-22059722D02*
X6327015Y-22164484D01*
X6717491Y-21954960D02*
X6546063Y-22212103D01*
X6974634Y-21964484D02*
X6993682Y-21964484D01*
X6993682Y-21964484D02*
X7012729Y-21974008D01*
X7012729Y-21974008D02*
X7022253Y-21983531D01*
X7022253Y-21983531D02*
X7031777Y-22002579D01*
X7031777Y-22002579D02*
X7041301Y-22040674D01*
X7041301Y-22040674D02*
X7041301Y-22088293D01*
X7041301Y-22088293D02*
X7031777Y-22126389D01*
X7031777Y-22126389D02*
X7022253Y-22145436D01*
X7022253Y-22145436D02*
X7012729Y-22154960D01*
X7012729Y-22154960D02*
X6993682Y-22164484D01*
X6993682Y-22164484D02*
X6974634Y-22164484D01*
X6974634Y-22164484D02*
X6955586Y-22154960D01*
X6955586Y-22154960D02*
X6946063Y-22145436D01*
X6946063Y-22145436D02*
X6936539Y-22126389D01*
X6936539Y-22126389D02*
X6927015Y-22088293D01*
X6927015Y-22088293D02*
X6927015Y-22040674D01*
X6927015Y-22040674D02*
X6936539Y-22002579D01*
X6936539Y-22002579D02*
X6946063Y-21983531D01*
X6946063Y-21983531D02*
X6955586Y-21974008D01*
X6955586Y-21974008D02*
X6974634Y-21964484D01*
X7127015Y-22145436D02*
X7136539Y-22154960D01*
X7136539Y-22154960D02*
X7127015Y-22164484D01*
X7127015Y-22164484D02*
X7117491Y-22154960D01*
X7117491Y-22154960D02*
X7127015Y-22145436D01*
X7127015Y-22145436D02*
X7127015Y-22164484D01*
X7260348Y-21964484D02*
X7279396Y-21964484D01*
X7279396Y-21964484D02*
X7298444Y-21974008D01*
X7298444Y-21974008D02*
X7307967Y-21983531D01*
X7307967Y-21983531D02*
X7317491Y-22002579D01*
X7317491Y-22002579D02*
X7327015Y-22040674D01*
X7327015Y-22040674D02*
X7327015Y-22088293D01*
X7327015Y-22088293D02*
X7317491Y-22126389D01*
X7317491Y-22126389D02*
X7307967Y-22145436D01*
X7307967Y-22145436D02*
X7298444Y-22154960D01*
X7298444Y-22154960D02*
X7279396Y-22164484D01*
X7279396Y-22164484D02*
X7260348Y-22164484D01*
X7260348Y-22164484D02*
X7241301Y-22154960D01*
X7241301Y-22154960D02*
X7231777Y-22145436D01*
X7231777Y-22145436D02*
X7222253Y-22126389D01*
X7222253Y-22126389D02*
X7212729Y-22088293D01*
X7212729Y-22088293D02*
X7212729Y-22040674D01*
X7212729Y-22040674D02*
X7222253Y-22002579D01*
X7222253Y-22002579D02*
X7231777Y-21983531D01*
X7231777Y-21983531D02*
X7241301Y-21974008D01*
X7241301Y-21974008D02*
X7260348Y-21964484D01*
X7498444Y-22031150D02*
X7498444Y-22164484D01*
X7450825Y-21954960D02*
X7403206Y-22097817D01*
X7403206Y-22097817D02*
X7527015Y-22097817D01*
X7584158Y-21964484D02*
X7717491Y-21964484D01*
X7717491Y-21964484D02*
X7631777Y-22164484D01*
X7784158Y-21983531D02*
X7793682Y-21974008D01*
X7793682Y-21974008D02*
X7812729Y-21964484D01*
X7812729Y-21964484D02*
X7860348Y-21964484D01*
X7860348Y-21964484D02*
X7879396Y-21974008D01*
X7879396Y-21974008D02*
X7888920Y-21983531D01*
X7888920Y-21983531D02*
X7898444Y-22002579D01*
X7898444Y-22002579D02*
X7898444Y-22021627D01*
X7898444Y-22021627D02*
X7888920Y-22050198D01*
X7888920Y-22050198D02*
X7774634Y-22164484D01*
X7774634Y-22164484D02*
X7898444Y-22164484D01*
X7974634Y-21964484D02*
X7974634Y-22002579D01*
X8050825Y-21964484D02*
X8050825Y-22002579D01*
X8346063Y-22240674D02*
X8336539Y-22231150D01*
X8336539Y-22231150D02*
X8317491Y-22202579D01*
X8317491Y-22202579D02*
X8307968Y-22183531D01*
X8307968Y-22183531D02*
X8298444Y-22154960D01*
X8298444Y-22154960D02*
X8288920Y-22107341D01*
X8288920Y-22107341D02*
X8288920Y-22069246D01*
X8288920Y-22069246D02*
X8298444Y-22021627D01*
X8298444Y-22021627D02*
X8307968Y-21993055D01*
X8307968Y-21993055D02*
X8317491Y-21974008D01*
X8317491Y-21974008D02*
X8336539Y-21945436D01*
X8336539Y-21945436D02*
X8346063Y-21935912D01*
X8517491Y-21964484D02*
X8422253Y-21964484D01*
X8422253Y-21964484D02*
X8412730Y-22059722D01*
X8412730Y-22059722D02*
X8422253Y-22050198D01*
X8422253Y-22050198D02*
X8441301Y-22040674D01*
X8441301Y-22040674D02*
X8488920Y-22040674D01*
X8488920Y-22040674D02*
X8507968Y-22050198D01*
X8507968Y-22050198D02*
X8517491Y-22059722D01*
X8517491Y-22059722D02*
X8527015Y-22078770D01*
X8527015Y-22078770D02*
X8527015Y-22126389D01*
X8527015Y-22126389D02*
X8517491Y-22145436D01*
X8517491Y-22145436D02*
X8507968Y-22154960D01*
X8507968Y-22154960D02*
X8488920Y-22164484D01*
X8488920Y-22164484D02*
X8441301Y-22164484D01*
X8441301Y-22164484D02*
X8422253Y-22154960D01*
X8422253Y-22154960D02*
X8412730Y-22145436D01*
X8765111Y-22164484D02*
X8765111Y-21964484D01*
X8850825Y-22164484D02*
X8850825Y-22059722D01*
X8850825Y-22059722D02*
X8841301Y-22040674D01*
X8841301Y-22040674D02*
X8822253Y-22031150D01*
X8822253Y-22031150D02*
X8793682Y-22031150D01*
X8793682Y-22031150D02*
X8774634Y-22040674D01*
X8774634Y-22040674D02*
X8765111Y-22050198D01*
X8974634Y-22164484D02*
X8955587Y-22154960D01*
X8955587Y-22154960D02*
X8946063Y-22145436D01*
X8946063Y-22145436D02*
X8936539Y-22126389D01*
X8936539Y-22126389D02*
X8936539Y-22069246D01*
X8936539Y-22069246D02*
X8946063Y-22050198D01*
X8946063Y-22050198D02*
X8955587Y-22040674D01*
X8955587Y-22040674D02*
X8974634Y-22031150D01*
X8974634Y-22031150D02*
X9003206Y-22031150D01*
X9003206Y-22031150D02*
X9022253Y-22040674D01*
X9022253Y-22040674D02*
X9031777Y-22050198D01*
X9031777Y-22050198D02*
X9041301Y-22069246D01*
X9041301Y-22069246D02*
X9041301Y-22126389D01*
X9041301Y-22126389D02*
X9031777Y-22145436D01*
X9031777Y-22145436D02*
X9022253Y-22154960D01*
X9022253Y-22154960D02*
X9003206Y-22164484D01*
X9003206Y-22164484D02*
X8974634Y-22164484D01*
X9155587Y-22164484D02*
X9136539Y-22154960D01*
X9136539Y-22154960D02*
X9127015Y-22135912D01*
X9127015Y-22135912D02*
X9127015Y-21964484D01*
X9307968Y-22154960D02*
X9288920Y-22164484D01*
X9288920Y-22164484D02*
X9250825Y-22164484D01*
X9250825Y-22164484D02*
X9231777Y-22154960D01*
X9231777Y-22154960D02*
X9222253Y-22135912D01*
X9222253Y-22135912D02*
X9222253Y-22059722D01*
X9222253Y-22059722D02*
X9231777Y-22040674D01*
X9231777Y-22040674D02*
X9250825Y-22031150D01*
X9250825Y-22031150D02*
X9288920Y-22031150D01*
X9288920Y-22031150D02*
X9307968Y-22040674D01*
X9307968Y-22040674D02*
X9317492Y-22059722D01*
X9317492Y-22059722D02*
X9317492Y-22078770D01*
X9317492Y-22078770D02*
X9222253Y-22097817D01*
X9393682Y-22154960D02*
X9412730Y-22164484D01*
X9412730Y-22164484D02*
X9450825Y-22164484D01*
X9450825Y-22164484D02*
X9469873Y-22154960D01*
X9469873Y-22154960D02*
X9479396Y-22135912D01*
X9479396Y-22135912D02*
X9479396Y-22126389D01*
X9479396Y-22126389D02*
X9469873Y-22107341D01*
X9469873Y-22107341D02*
X9450825Y-22097817D01*
X9450825Y-22097817D02*
X9422253Y-22097817D01*
X9422253Y-22097817D02*
X9403206Y-22088293D01*
X9403206Y-22088293D02*
X9393682Y-22069246D01*
X9393682Y-22069246D02*
X9393682Y-22059722D01*
X9393682Y-22059722D02*
X9403206Y-22040674D01*
X9403206Y-22040674D02*
X9422253Y-22031150D01*
X9422253Y-22031150D02*
X9450825Y-22031150D01*
X9450825Y-22031150D02*
X9469873Y-22040674D01*
X9546063Y-22240674D02*
X9555587Y-22231150D01*
X9555587Y-22231150D02*
X9574634Y-22202579D01*
X9574634Y-22202579D02*
X9584158Y-22183531D01*
X9584158Y-22183531D02*
X9593682Y-22154960D01*
X9593682Y-22154960D02*
X9603206Y-22107341D01*
X9603206Y-22107341D02*
X9603206Y-22069246D01*
X9603206Y-22069246D02*
X9593682Y-22021627D01*
X9593682Y-22021627D02*
X9584158Y-21993055D01*
X9584158Y-21993055D02*
X9574634Y-21974008D01*
X9574634Y-21974008D02*
X9555587Y-21945436D01*
X9555587Y-21945436D02*
X9546063Y-21935912D01*
X9907968Y-22240674D02*
X9898444Y-22231150D01*
X9898444Y-22231150D02*
X9879396Y-22202579D01*
X9879396Y-22202579D02*
X9869873Y-22183531D01*
X9869873Y-22183531D02*
X9860349Y-22154960D01*
X9860349Y-22154960D02*
X9850825Y-22107341D01*
X9850825Y-22107341D02*
X9850825Y-22069246D01*
X9850825Y-22069246D02*
X9860349Y-22021627D01*
X9860349Y-22021627D02*
X9869873Y-21993055D01*
X9869873Y-21993055D02*
X9879396Y-21974008D01*
X9879396Y-21974008D02*
X9898444Y-21945436D01*
X9898444Y-21945436D02*
X9907968Y-21935912D01*
X9984158Y-22031150D02*
X9984158Y-22164484D01*
X9984158Y-22050198D02*
X9993682Y-22040674D01*
X9993682Y-22040674D02*
X10012730Y-22031150D01*
X10012730Y-22031150D02*
X10041301Y-22031150D01*
X10041301Y-22031150D02*
X10060349Y-22040674D01*
X10060349Y-22040674D02*
X10069873Y-22059722D01*
X10069873Y-22059722D02*
X10069873Y-22164484D01*
X10193682Y-22164484D02*
X10174634Y-22154960D01*
X10174634Y-22154960D02*
X10165111Y-22145436D01*
X10165111Y-22145436D02*
X10155587Y-22126389D01*
X10155587Y-22126389D02*
X10155587Y-22069246D01*
X10155587Y-22069246D02*
X10165111Y-22050198D01*
X10165111Y-22050198D02*
X10174634Y-22040674D01*
X10174634Y-22040674D02*
X10193682Y-22031150D01*
X10193682Y-22031150D02*
X10222254Y-22031150D01*
X10222254Y-22031150D02*
X10241301Y-22040674D01*
X10241301Y-22040674D02*
X10250825Y-22050198D01*
X10250825Y-22050198D02*
X10260349Y-22069246D01*
X10260349Y-22069246D02*
X10260349Y-22126389D01*
X10260349Y-22126389D02*
X10250825Y-22145436D01*
X10250825Y-22145436D02*
X10241301Y-22154960D01*
X10241301Y-22154960D02*
X10222254Y-22164484D01*
X10222254Y-22164484D02*
X10193682Y-22164484D01*
X10317492Y-22031150D02*
X10393682Y-22031150D01*
X10346063Y-21964484D02*
X10346063Y-22135912D01*
X10346063Y-22135912D02*
X10355587Y-22154960D01*
X10355587Y-22154960D02*
X10374634Y-22164484D01*
X10374634Y-22164484D02*
X10393682Y-22164484D01*
X10612730Y-22031150D02*
X10612730Y-22231150D01*
X10612730Y-22040674D02*
X10631777Y-22031150D01*
X10631777Y-22031150D02*
X10669873Y-22031150D01*
X10669873Y-22031150D02*
X10688920Y-22040674D01*
X10688920Y-22040674D02*
X10698444Y-22050198D01*
X10698444Y-22050198D02*
X10707968Y-22069246D01*
X10707968Y-22069246D02*
X10707968Y-22126389D01*
X10707968Y-22126389D02*
X10698444Y-22145436D01*
X10698444Y-22145436D02*
X10688920Y-22154960D01*
X10688920Y-22154960D02*
X10669873Y-22164484D01*
X10669873Y-22164484D02*
X10631777Y-22164484D01*
X10631777Y-22164484D02*
X10612730Y-22154960D01*
X10822254Y-22164484D02*
X10803206Y-22154960D01*
X10803206Y-22154960D02*
X10793682Y-22135912D01*
X10793682Y-22135912D02*
X10793682Y-21964484D01*
X10984158Y-22164484D02*
X10984158Y-22059722D01*
X10984158Y-22059722D02*
X10974635Y-22040674D01*
X10974635Y-22040674D02*
X10955587Y-22031150D01*
X10955587Y-22031150D02*
X10917492Y-22031150D01*
X10917492Y-22031150D02*
X10898444Y-22040674D01*
X10984158Y-22154960D02*
X10965111Y-22164484D01*
X10965111Y-22164484D02*
X10917492Y-22164484D01*
X10917492Y-22164484D02*
X10898444Y-22154960D01*
X10898444Y-22154960D02*
X10888920Y-22135912D01*
X10888920Y-22135912D02*
X10888920Y-22116865D01*
X10888920Y-22116865D02*
X10898444Y-22097817D01*
X10898444Y-22097817D02*
X10917492Y-22088293D01*
X10917492Y-22088293D02*
X10965111Y-22088293D01*
X10965111Y-22088293D02*
X10984158Y-22078770D01*
X11050825Y-22031150D02*
X11127015Y-22031150D01*
X11079396Y-21964484D02*
X11079396Y-22135912D01*
X11079396Y-22135912D02*
X11088920Y-22154960D01*
X11088920Y-22154960D02*
X11107968Y-22164484D01*
X11107968Y-22164484D02*
X11127015Y-22164484D01*
X11269873Y-22154960D02*
X11250825Y-22164484D01*
X11250825Y-22164484D02*
X11212730Y-22164484D01*
X11212730Y-22164484D02*
X11193682Y-22154960D01*
X11193682Y-22154960D02*
X11184158Y-22135912D01*
X11184158Y-22135912D02*
X11184158Y-22059722D01*
X11184158Y-22059722D02*
X11193682Y-22040674D01*
X11193682Y-22040674D02*
X11212730Y-22031150D01*
X11212730Y-22031150D02*
X11250825Y-22031150D01*
X11250825Y-22031150D02*
X11269873Y-22040674D01*
X11269873Y-22040674D02*
X11279396Y-22059722D01*
X11279396Y-22059722D02*
X11279396Y-22078770D01*
X11279396Y-22078770D02*
X11184158Y-22097817D01*
X11450825Y-22164484D02*
X11450825Y-21964484D01*
X11450825Y-22154960D02*
X11431777Y-22164484D01*
X11431777Y-22164484D02*
X11393682Y-22164484D01*
X11393682Y-22164484D02*
X11374634Y-22154960D01*
X11374634Y-22154960D02*
X11365111Y-22145436D01*
X11365111Y-22145436D02*
X11355587Y-22126389D01*
X11355587Y-22126389D02*
X11355587Y-22069246D01*
X11355587Y-22069246D02*
X11365111Y-22050198D01*
X11365111Y-22050198D02*
X11374634Y-22040674D01*
X11374634Y-22040674D02*
X11393682Y-22031150D01*
X11393682Y-22031150D02*
X11431777Y-22031150D01*
X11431777Y-22031150D02*
X11450825Y-22040674D01*
X11527015Y-22240674D02*
X11536539Y-22231150D01*
X11536539Y-22231150D02*
X11555587Y-22202579D01*
X11555587Y-22202579D02*
X11565111Y-22183531D01*
X11565111Y-22183531D02*
X11574634Y-22154960D01*
X11574634Y-22154960D02*
X11584158Y-22107341D01*
X11584158Y-22107341D02*
X11584158Y-22069246D01*
X11584158Y-22069246D02*
X11574634Y-22021627D01*
X11574634Y-22021627D02*
X11565111Y-21993055D01*
X11565111Y-21993055D02*
X11555587Y-21974008D01*
X11555587Y-21974008D02*
X11536539Y-21945436D01*
X11536539Y-21945436D02*
X11527015Y-21935912D01*
M02*
