M48
; DRILL file {KiCad 9.0.6} date 2026-01-15T01:14:31+0000
; FORMAT={-:-/ absolute / inch / decimal}
; #@! TF.CreationDate,2026-01-15T01:14:31+00:00
; #@! TF.GenerationSoftware,Kicad,Pcbnew,9.0.6
; #@! TF.FileFunction,Plated,1,2,PTH
FMAT,2
INCH
; #@! TA.AperFunction,Plated,PTH,ViaDrill
T1C0.0157
; #@! TA.AperFunction,Plated,PTH,ViaDrill
T2C0.0197
; #@! TA.AperFunction,Plated,PTH,ComponentDrill
T3C0.0197
; #@! TA.AperFunction,Plated,PTH,ComponentDrill
T4C0.0276
; #@! TA.AperFunction,Plated,PTH,ComponentDrill
T5C0.0315
; #@! TA.AperFunction,Plated,PTH,ComponentDrill
T6C0.0354
; #@! TA.AperFunction,Plated,PTH,ComponentDrill
T7C0.0390
; #@! TA.AperFunction,Plated,PTH,ComponentDrill
T8C0.0394
; #@! TA.AperFunction,Plated,PTH,ComponentDrill
T9C0.0472
; #@! TA.AperFunction,Plated,PTH,ComponentDrill
T10C0.0512
; #@! TA.AperFunction,Plated,PTH,ComponentDrill
T11C0.0669
; #@! TA.AperFunction,Plated,PTH,ComponentDrill
T12C0.0709
; #@! TA.AperFunction,Plated,PTH,ComponentDrill
T13C0.1024
; #@! TA.AperFunction,Plated,PTH,ComponentDrill
T14C0.1500
%
G90
G05
T1
X1.9579Y-7.4185
X1.9618Y-3.3299
X2.0488Y-3.4017
X2.1408Y-3.9751
X2.1489Y-5.5543
X2.1725Y-5.4861
X2.3667Y-3.9095
X2.4265Y-4.8228
X2.4285Y-3.6826
X2.4858Y-4.6705
X2.5039Y-5.5543
X2.7218Y-4.6366
X2.792Y-3.9913
X2.8212Y-6.6587
X2.8344Y-6.3352
X2.8379Y-6.7609
X2.8587Y-6.9016
X2.8695Y-5.4165
X2.8709Y-3.7226
X2.8898Y-7.0272
X2.8945Y-5.9721
X2.9031Y-4.0993
X2.9115Y-6.7046
X2.9342Y-5.8723
X2.9385Y-5.9241
X2.9402Y-7.035
X2.9442Y-5.7067
X2.946Y-4.1755
X2.9498Y-2.9726
X2.9535Y-3.889
X2.9854Y-7.3071
X2.9963Y-3.01
X3.0169Y-3.1083
X3.0288Y-3.6813
X3.0863Y-6.3862
X3.1094Y-7.3009
X3.1179Y-3.0218
X3.1258Y-6.3817
X3.1362Y-3.9827
X3.148Y-3.6807
X3.1892Y-4.2201
X3.1899Y-4.9103
X3.2091Y-7.8728
X3.2102Y-3.2232
X3.2189Y-3.1839
X3.2194Y-6.8313
X3.2341Y-6.6346
X3.2359Y-3.8788
X3.2579Y-6.8126
X3.2638Y-3.2803
X3.2754Y-7.4656
X3.2839Y-6.7736
X3.2898Y-6.5596
X3.3147Y-6.7307
X3.3248Y-4.3618
X3.3528Y-6.4008
X3.3638Y-3.115
X3.3717Y-6.7186
X3.3847Y-3.6891
X3.389Y-6.8772
X3.3904Y-4.4098
X3.4008Y-6.6921
X3.4185Y-3.2732
X3.4185Y-3.6106
X3.4268Y-7.0012
X3.4445Y-6.9425
X3.4727Y-5.6997
X3.4829Y-6.5571
X3.4896Y-4.4383
X3.5291Y-6.8953
X3.537Y-4.6201
X3.5493Y-4.4662
X3.568Y-7.3901
X3.5787Y-7.0106
X3.5925Y-6.8508
X3.6345Y-6.3596
X3.6413Y-4.524
X3.6439Y-3.1553
X3.6521Y-5.9265
X3.6654Y-6.893
X3.6808Y-3.8536
X3.6967Y-4.0517
X3.7098Y-3.4201
X3.734Y-4.1209
X3.7472Y-4.6597
X3.748Y-4.7898
X3.7575Y-6.5247
X3.7823Y-4.7441
X3.787Y-6.3724
X3.7949Y-5.4598
X3.8046Y-3.1834
X3.8142Y-6.985
X3.8395Y-4.3291
X3.8395Y-4.6885
X3.852Y-6.3787
X3.8578Y-4.0834
X3.8866Y-3.9199
X3.907Y-6.5444
X3.9074Y-5.241
X3.9089Y-4.4251
X3.9118Y-3.4665
X3.9183Y-3.7514
X3.9217Y-5.8291
X3.9238Y-5.6853
X3.9346Y-2.843
X3.9406Y-6.1665
X3.9445Y-6.5564
X3.9474Y-2.5658
X3.9769Y-3.5928
X4.0144Y-5.8119
X4.0226Y-6.8862
X4.0335Y-2.4665
X4.0357Y-4.0474
X4.0488Y-3.7892
X4.0573Y-5.3504
X4.0581Y-5.0843
X4.0626Y-2.8453
X4.0658Y-2.7168
X4.067Y-3.7475
X4.0817Y-6.7668
X4.1261Y-4.7806
X4.1436Y-4.6202
X4.1444Y-2.7368
X4.18Y-4.0732
X4.1854Y-4.7399
X4.1888Y-6.7474
X4.1974Y-4.1132
X4.1986Y-3.9622
X4.2081Y-4.6885
X4.2191Y-3.5284
X4.2196Y-5.6914
X4.2214Y-6.6591
X4.2235Y-2.3123
X4.241Y-4.7519
X4.2462Y-7.0681
X4.2473Y-7.0108
X4.268Y-5.431
X4.2738Y-5.8166
X4.2748Y-6.617
X4.2807Y-5.2472
X4.2816Y-5.5257
X4.282Y-5.5904
X4.2865Y-4.043
X4.2989Y-4.384
X4.3047Y-5.4576
X4.3146Y-6.0921
X4.3183Y-6.9113
X4.3316Y-3.1039
X4.332Y-6.7114
X4.3422Y-4.3782
X4.3432Y-4.9804
X4.3451Y-5.4408
X4.3466Y-3.4148
X4.3518Y-5.581
X4.3519Y-5.6905
X4.352Y-7.2756
X4.3578Y-3.9193
X4.3906Y-3.0128
X4.3906Y-4.0508
X4.3926Y-4.8214
X4.4138Y-5.7512
X4.4221Y-5.6107
X4.4268Y-2.5399
X4.4335Y-6.6167
X4.4372Y-6.0911
X4.4484Y-7.3807
X4.4591Y-6.7955
X4.4644Y-6.9181
X4.4677Y-3.7309
X4.4776Y-4.9535
X4.4823Y-4.3584
X4.4963Y-5.9226
X4.4974Y-5.6047
X4.5047Y-6.9283
X4.5079Y-4.0181
X4.5161Y-6.4688
X4.5232Y-4.8657
X4.5303Y-3.3726
X4.5323Y-2.7513
X4.5412Y-5.1039
X4.5531Y-6.3449
X4.5631Y-4.9423
X4.5906Y-5.0648
X4.5921Y-7.1831
X4.6161Y-7.0078
X4.6184Y-6.0913
X4.6533Y-5.9656
X4.6723Y-6.3986
X4.7098Y-6.3804
X4.718Y-6.7774
X4.7185Y-4.0421
X4.7585Y-6.6479
X4.7614Y-7.0018
X4.7641Y-5.8879
X4.7904Y-4.7865
X4.8575Y-6.9225
X4.865Y-5.1938
X4.8661Y-7.9394
X4.868Y-7.2378
X4.8686Y-5.9089
X4.8701Y-4.0236
X4.9126Y-5.551
X4.9233Y-3.8648
X4.9282Y-7.051
X4.9363Y-4.8751
X4.9454Y-6.4394
X4.9553Y-5.8512
X4.9568Y-6.4976
X4.9586Y-6.8
X4.965Y-7.0224
X4.9683Y-7.0843
X4.9846Y-2.7882
X5.0026Y-6.4629
X5.0631Y-5.3314
X5.087Y-4.8029
X5.0973Y-6.7532
X5.1272Y-5.2086
X5.1326Y-6.6038
X5.1585Y-5.8397
X5.1671Y-6.8788
X5.1767Y-7.0508
X5.1953Y-4.0894
X5.206Y-4.4482
X5.2113Y-6.0411
X5.2276Y-7.1677
X5.2313Y-4.244
X5.2364Y-7.362
X5.2394Y-7.9833
X5.2398Y-3.2574
X5.2417Y-4.96
X5.2544Y-6.2714
X5.2794Y-6.0971
X5.2856Y-6.9221
X5.3349Y-3.9625
X5.3777Y-7.4741
X5.3847Y-5.1775
X5.3904Y-3.1628
X5.3922Y-6.0686
X5.3931Y-4.459
X5.396Y-4.597
X5.4075Y-7.35
X5.4104Y-4.2459
X5.4154Y-6.2035
X5.4222Y-6.9903
X5.4276Y-4.7442
X5.4327Y-6.7555
X5.4347Y-5.1907
X5.4524Y-6.3773
X5.4705Y-4.3046
X5.4751Y-5.547
X5.498Y-7.0906
X5.4984Y-5.1264
X5.4992Y-5.1826
X5.5096Y-5.886
X5.5288Y-4.3927
X5.5547Y-7.9469
X5.572Y-2.8106
X5.5726Y-4.3195
X5.5735Y-5.7296
X5.5925Y-5.8688
X5.6085Y-5.4208
X5.6243Y-3.931
X5.6274Y-5.3417
X5.6294Y-5.9069
X5.6319Y-6.3771
X5.6744Y-4.3789
X5.6883Y-4.2361
X5.7133Y-6.378
X5.7134Y-4.4201
X5.7252Y-5.7264
X5.7356Y-6.0686
X5.7358Y-2.9122
X5.7431Y-7.5156
X5.7607Y-7.0523
X5.761Y-7.2028
X5.7625Y-7.268
X5.7932Y-7.2969
X5.8023Y-5.1066
X5.8106Y-6.3535
X5.8196Y-5.9389
X5.8366Y-4.283
X5.8366Y-4.4388
X5.8544Y-7.3261
X5.8685Y-6.4637
X5.8768Y-4.0816
X5.8892Y-6.1665
X5.8975Y-4.7476
X5.9179Y-4.418
X5.9219Y-6.0781
X5.9543Y-7.1957
X6.0106Y-6.4637
X6.0141Y-5.9661
X6.0183Y-5.1959
X6.0378Y-4.5148
X6.0464Y-5.6614
X6.0929Y-6.2526
X6.0938Y-5.21
X6.1048Y-6.7917
X6.1142Y-4.9492
X6.1145Y-5.504
X6.1401Y-5.2394
X6.1458Y-4.5158
X6.1495Y-6.9667
X6.1702Y-4.2832
X6.1714Y-6.5331
X6.1921Y-6.2357
X6.1972Y-3.976
X6.209Y-7.1608
X6.2169Y-4.2882
X6.232Y-5.5431
X6.2397Y-5.6595
X6.2495Y-6.3902
X6.2499Y-6.6129
X6.2655Y-7.3082
X6.2753Y-3.75
X6.2827Y-6.6375
X6.3263Y-4.6947
X6.3345Y-5.8853
X6.3441Y-5.7323
X6.3674Y-5.0324
X6.3681Y-5.1118
X6.4661Y-3.7118
X6.5021Y-4.6808
X6.5182Y-4.5951
X6.54Y-5.1734
X6.5453Y-5.4425
X6.5744Y-6.926
X6.5945Y-5.7319
X6.6119Y-4.6456
X6.6706Y-4.6523
X6.6706Y-4.6087
X6.6931Y-4.9061
X6.739Y-5.0961
X6.7907Y-5.551
X6.7929Y-5.1866
X6.815Y-6.6366
X6.8415Y-4.6886
X6.8433Y-7.0479
X6.865Y-6.5933
X6.8701Y-5.0961
X6.8808Y-5.4712
X6.8929Y-5.913
X6.917Y-4.2906
X6.9477Y-5.4127
X6.9573Y-5.1398
X6.9732Y-5.9343
X6.9946Y-3.8556
X6.9951Y-4.8957
X7.0201Y-4.4866
X7.0465Y-5.8512
X7.0534Y-5.6636
X7.0623Y-5.702
X7.0783Y-7.2752
X7.0804Y-3.8393
X7.0862Y-5.8019
X7.1193Y-6.2465
X7.1369Y-2.9237
X7.2193Y-4.3622
X7.2224Y-7.2678
X7.2398Y-5.7362
X7.2625Y-5.6892
X7.2654Y-6.211
X7.272Y-7.2389
X7.2794Y-6.1321
X7.2854Y-6.5906
X7.2912Y-5.7392
X7.3449Y-7.5256
X7.3756Y-6.9512
X7.3898Y-5.5142
X7.4302Y-5.6784
X7.4411Y-6.3848
X7.4417Y-5.478
X7.496Y-5.4775
X7.4988Y-6.3839
X7.5335Y-4.6882
X7.5346Y-4.5713
X7.5384Y-7.2389
X7.5418Y-6.2488
X7.5446Y-5.6708
X7.5524Y-7.4539
X7.6709Y-4.6696
X7.7139Y-7.209
X7.7168Y-7.7306
X7.7488Y-6.3878
X7.7516Y-5.9307
X7.7709Y-4.7406
X7.7709Y-4.8998
X7.7811Y-7.5204
X7.7862Y-7.4422
X7.7878Y-6.3936
X7.7965Y-5.1406
X7.7965Y-5.3
X7.8472Y-5.0331
X7.8662Y-3.9669
X7.872Y-7.2058
X7.8963Y-5.1024
X7.9048Y-4.0816
X7.9522Y-4.2701
X8.0451Y-7.1496
X8.0921Y-7.2058
X8.1531Y-5.9301
X8.185Y-6.191
X8.2031Y-5.9533
X8.2468Y-6.394
X8.2476Y-5.9307
X8.2961Y-5.4496
X8.3063Y-6.4954
X8.3476Y-5.9303
X8.4031Y-6.4083
X8.4497Y-5.9368
X8.4497Y-6.144
X8.4783Y-5.8242
X8.4933Y-6.3909
X8.4936Y-5.9304
X8.4936Y-6.2962
T2
X3.1669Y-8.3535
X4.1016Y-8.3366
X5.9595Y-2.0516
T3
X2.0178Y-2.1413
X2.0178Y-8.2413
X2.0508Y-2.0618
X2.0508Y-2.2209
X2.0508Y-8.1618
X2.0508Y-8.3209
X2.1303Y-2.0288
X2.1303Y-2.2538
X2.1303Y-8.1288
X2.1303Y-8.3538
X2.2099Y-2.0618
X2.2099Y-2.2209
X2.2099Y-8.1618
X2.2099Y-8.3209
X2.2428Y-2.1413
X2.2428Y-8.2413
X8.2178Y-3.0413
X8.2178Y-8.2413
X8.2508Y-2.9618
X8.2508Y-3.1209
X8.2508Y-8.1618
X8.2508Y-8.3209
X8.3303Y-2.9288
X8.3303Y-3.1538
X8.3303Y-8.1288
X8.3303Y-8.3538
X8.4099Y-2.9618
X8.4099Y-3.1209
X8.4099Y-8.1618
X8.4099Y-8.3209
X8.4428Y-3.0413
X8.4428Y-8.2413
T4
X2.0427Y-2.4224
X2.5142Y-1.8705
X2.5427Y-2.4224
X2.8665Y-7.8362
X2.8665Y-7.9563
X2.8701Y-2.4224
X2.9142Y-1.8705
X3.2665Y-7.8362
X3.2665Y-7.9563
X3.2701Y-2.4224
X3.3291Y-1.8705
X3.5618Y-7.8409
X3.5622Y-7.9606
X3.5622Y-8.0787
X3.5622Y-8.1969
X3.5622Y-8.3157
X3.7291Y-1.8705
X3.9618Y-7.8409
X3.9622Y-7.9606
X3.9622Y-8.0787
X3.9622Y-8.1969
X3.9622Y-8.3157
X4.6732Y-2.3429
X4.6732Y-2.461
X4.6732Y-2.5803
X4.6732Y-2.6988
X4.6732Y-2.8169
X4.6732Y-2.9354
X4.6732Y-3.0551
X4.6732Y-3.1748
X4.6732Y-3.2929
X4.6732Y-3.4126
X4.6732Y-3.5309
X4.6732Y-3.649
X4.6732Y-3.7671
X4.6732Y-3.8856
X4.6732Y-4.0037
X4.6732Y-4.123
X4.6732Y-4.2425
X4.6732Y-4.3614
X4.6787Y-4.478
X4.6789Y-4.5945
X4.7803Y-8.1902
X4.7803Y-8.3091
X5.0732Y-2.3429
X5.0732Y-2.461
X5.0732Y-2.5803
X5.0732Y-2.6988
X5.0732Y-2.8169
X5.0732Y-2.9354
X5.0732Y-3.0551
X5.0732Y-3.1748
X5.0732Y-3.2929
X5.0732Y-3.4126
X5.0732Y-3.5309
X5.0732Y-3.649
X5.0732Y-3.7671
X5.0732Y-3.8856
X5.0732Y-4.0037
X5.0732Y-4.123
X5.0732Y-4.2425
X5.0732Y-4.3614
X5.0787Y-4.478
X5.0789Y-4.5945
X5.1803Y-8.1902
X5.1803Y-8.3091
X5.3272Y-5.3717
X5.3295Y-3.7815
X5.3295Y-4.1815
X5.4594Y-3.7815
X5.4594Y-4.1815
X5.5886Y-3.7815
X5.5886Y-4.1815
X5.7272Y-5.3717
X5.7654Y-4.3307
X5.7654Y-4.7307
X6.3555Y-7.5634
X6.3555Y-7.9634
X6.4709Y-6.4217
X6.8709Y-6.4217
X7.5366Y-7.3425
X7.5366Y-7.7425
X7.6551Y-7.3425
X7.6551Y-7.7425
X7.7744Y-7.3425
X7.7744Y-7.7425
X7.8953Y-7.3411
X7.8953Y-7.4593
X7.8953Y-7.5778
X7.8953Y-7.6957
X8.2953Y-7.3411
X8.2953Y-7.4593
X8.2953Y-7.5778
X8.2953Y-7.6957
T5
X2.0157Y-2.6846
X2.0575Y-3.7443
X2.0575Y-4.0443
X2.0575Y-4.1618
X2.0575Y-4.4618
X2.0575Y-4.5787
X2.0575Y-4.8787
X2.0575Y-4.9972
X2.0575Y-5.2972
X2.0575Y-5.4142
X2.0575Y-5.7142
X2.0575Y-5.8331
X2.0575Y-6.1331
X2.0575Y-6.2508
X2.0575Y-6.5508
X2.0575Y-6.6695
X2.0575Y-6.9695
X2.0587Y-7.1209
X2.0587Y-7.7209
X2.0638Y-2.9181
X2.0638Y-3.5181
X2.1157Y-2.5846
X2.1157Y-2.7846
X2.1575Y-3.7443
X2.1575Y-4.0443
X2.1575Y-4.1618
X2.1575Y-4.4618
X2.1575Y-4.5787
X2.1575Y-4.8787
X2.1575Y-4.9972
X2.1575Y-5.2972
X2.1575Y-5.4142
X2.1575Y-5.7142
X2.1575Y-5.8331
X2.1575Y-6.1331
X2.1575Y-6.2508
X2.1575Y-6.5508
X2.1575Y-6.6695
X2.1575Y-6.9695
X2.1587Y-7.1209
X2.1587Y-7.7209
X2.1638Y-2.9181
X2.1638Y-3.5181
X2.2575Y-3.7443
X2.2575Y-4.0443
X2.2575Y-4.1618
X2.2575Y-4.4618
X2.2575Y-4.5787
X2.2575Y-4.8787
X2.2575Y-4.9972
X2.2575Y-5.2972
X2.2575Y-5.4142
X2.2575Y-5.7142
X2.2575Y-5.8331
X2.2575Y-6.1331
X2.2575Y-6.2508
X2.2575Y-6.5508
X2.2575Y-6.6695
X2.2575Y-6.9695
X2.2587Y-7.1209
X2.2587Y-7.7209
X2.2638Y-2.9181
X2.2638Y-3.5181
X2.3575Y-3.7443
X2.3575Y-4.0443
X2.3575Y-4.1618
X2.3575Y-4.4618
X2.3575Y-4.5787
X2.3575Y-4.8787
X2.3575Y-4.9972
X2.3575Y-5.2972
X2.3575Y-5.4142
X2.3575Y-5.7142
X2.3575Y-5.8331
X2.3575Y-6.1331
X2.3575Y-6.2508
X2.3575Y-6.5508
X2.3575Y-6.6695
X2.3575Y-6.9695
X2.3587Y-7.1209
X2.3587Y-7.7209
X2.3587Y-7.9811
X2.3638Y-2.9181
X2.3638Y-3.5181
X2.4173Y-2.6579
X2.4575Y-3.7443
X2.4575Y-4.0443
X2.4575Y-4.1618
X2.4575Y-4.4618
X2.4575Y-4.5787
X2.4575Y-4.8787
X2.4575Y-4.9972
X2.4575Y-5.2972
X2.4575Y-5.4142
X2.4575Y-5.7142
X2.4575Y-5.8331
X2.4575Y-6.1331
X2.4575Y-6.2508
X2.4575Y-6.5508
X2.4575Y-6.6695
X2.4575Y-6.9695
X2.4587Y-7.1209
X2.4587Y-7.7209
X2.4587Y-8.0811
X2.4594Y-8.2224
X2.4638Y-2.9181
X2.4638Y-3.5181
X2.5157Y-2.6579
X2.5563Y-3.6287
X2.5575Y-3.7443
X2.5575Y-4.0443
X2.5575Y-4.1618
X2.5575Y-4.4618
X2.5575Y-4.5787
X2.5575Y-4.8787
X2.5575Y-4.9972
X2.5575Y-5.2972
X2.5575Y-5.4142
X2.5575Y-5.7142
X2.5575Y-5.8331
X2.5575Y-6.1331
X2.5575Y-6.2508
X2.5575Y-6.5508
X2.5575Y-6.6695
X2.5575Y-6.9695
X2.5587Y-7.1209
X2.5587Y-7.7209
X2.5587Y-7.9811
X2.5638Y-2.9181
X2.5638Y-3.5181
X2.6575Y-3.7443
X2.6575Y-4.0443
X2.6575Y-4.1618
X2.6575Y-4.4618
X2.6575Y-4.5787
X2.6575Y-4.8787
X2.6575Y-4.9972
X2.6575Y-5.2972
X2.6575Y-5.4142
X2.6575Y-5.7142
X2.6575Y-5.8331
X2.6575Y-6.1331
X2.6575Y-6.2508
X2.6575Y-6.5508
X2.6575Y-6.6695
X2.6575Y-6.9695
X2.6587Y-7.1209
X2.6587Y-7.7209
X2.6594Y-8.2224
X2.6638Y-2.9181
X2.6638Y-3.5181
X2.7547Y-2.5665
X2.7563Y-3.6287
X2.7575Y-3.7443
X2.7575Y-4.0443
X2.7575Y-4.1618
X2.7575Y-4.4618
X2.7575Y-4.5787
X2.7575Y-4.8787
X2.7575Y-4.9972
X2.7575Y-5.2972
X2.7575Y-5.4142
X2.7575Y-5.7142
X2.7575Y-5.8331
X2.7575Y-6.1331
X2.7575Y-6.2508
X2.7575Y-6.5508
X2.7575Y-6.6695
X2.7575Y-6.9695
X2.7587Y-7.1209
X2.7587Y-7.7209
X2.7638Y-2.9181
X2.7638Y-3.5181
X2.8587Y-7.1209
X2.8587Y-7.7209
X2.8638Y-2.9181
X2.8638Y-3.5181
X2.9547Y-2.5665
X2.9587Y-7.1209
X2.9587Y-7.7209
X2.9638Y-2.9181
X2.9638Y-3.5181
X2.9673Y-8.0831
X3.0359Y-3.7431
X3.0359Y-4.0431
X3.0359Y-6.0045
X3.0359Y-6.3045
X3.0375Y-4.2657
X3.0375Y-4.8657
X3.0375Y-5.1618
X3.0375Y-5.7618
X3.0583Y-6.8846
X3.0587Y-7.1209
X3.0587Y-7.7209
X3.0638Y-2.9181
X3.0638Y-3.5181
X3.1359Y-3.7431
X3.1359Y-4.0431
X3.1359Y-6.0045
X3.1359Y-6.3045
X3.1375Y-4.2657
X3.1375Y-4.8657
X3.1375Y-5.1618
X3.1375Y-5.7618
X3.1567Y-6.8846
X3.1587Y-7.1209
X3.1587Y-7.7209
X3.1638Y-2.9181
X3.1638Y-3.5181
X3.1673Y-8.0831
X3.2359Y-3.7431
X3.2359Y-4.0431
X3.2359Y-6.0045
X3.2359Y-6.3045
X3.2375Y-4.2657
X3.2375Y-4.8657
X3.2375Y-5.1618
X3.2375Y-5.7618
X3.2587Y-7.1209
X3.2587Y-7.7209
X3.2638Y-2.9181
X3.2638Y-3.5181
X3.3359Y-3.7431
X3.3359Y-4.0431
X3.3359Y-6.0045
X3.3359Y-6.3045
X3.3375Y-4.2657
X3.3375Y-4.8657
X3.3375Y-5.1618
X3.3375Y-5.7618
X3.3587Y-7.1209
X3.3587Y-7.7209
X3.3638Y-2.9181
X3.3638Y-3.5181
X3.4359Y-3.7431
X3.4359Y-4.0431
X3.4359Y-6.0045
X3.4359Y-6.3045
X3.4375Y-4.2657
X3.4375Y-4.8657
X3.4375Y-5.1618
X3.4375Y-5.7618
X3.4587Y-7.1209
X3.4587Y-7.7209
X3.4638Y-2.9181
X3.4638Y-3.5181
X3.5359Y-3.7431
X3.5359Y-4.0431
X3.5359Y-6.0045
X3.5359Y-6.3045
X3.5375Y-4.2657
X3.5375Y-4.8657
X3.5375Y-5.1618
X3.5375Y-5.7618
X3.5587Y-7.1209
X3.5587Y-7.7209
X3.5638Y-2.9181
X3.5638Y-3.5181
X3.6359Y-3.7431
X3.6359Y-4.0431
X3.6359Y-6.0045
X3.6359Y-6.3045
X3.6375Y-4.2657
X3.6375Y-4.8657
X3.6375Y-5.1618
X3.6375Y-5.7618
X3.6587Y-7.1209
X3.6587Y-7.7209
X3.6638Y-2.9181
X3.6638Y-3.5181
X3.7359Y-6.0045
X3.7359Y-6.3045
X3.7375Y-4.2657
X3.7375Y-4.8657
X3.7375Y-5.1618
X3.7375Y-5.7618
X3.7583Y-3.7947
X3.7583Y-3.9947
X3.7587Y-7.1209
X3.7587Y-7.7209
X3.7638Y-2.9181
X3.7638Y-3.5181
X3.8359Y-6.0045
X3.8359Y-6.3045
X3.8375Y-4.2657
X3.8375Y-4.8657
X3.8375Y-5.1618
X3.8375Y-5.7618
X3.8587Y-7.1209
X3.8587Y-7.7209
X3.8638Y-2.9181
X3.8638Y-3.5181
X3.9359Y-6.0045
X3.9359Y-6.3045
X3.9375Y-4.2657
X3.9375Y-4.8657
X3.9375Y-5.1618
X3.9375Y-5.7618
X3.9587Y-7.1209
X3.9587Y-7.7209
X3.9638Y-2.9181
X3.9638Y-3.5181
X4.0375Y-4.2657
X4.0375Y-4.8657
X4.0375Y-5.1618
X4.0375Y-5.7618
X4.0593Y-1.8705
X4.0673Y-6.0543
X4.0673Y-6.2543
X4.1375Y-4.2657
X4.1375Y-4.8657
X4.1375Y-5.1618
X4.1375Y-5.7618
X4.2086Y-6.0045
X4.2086Y-6.3045
X4.2086Y-6.5417
X4.2086Y-6.8417
X4.2264Y-7.1307
X4.2264Y-7.2307
X4.2264Y-7.3307
X4.2264Y-7.4307
X4.2264Y-7.5307
X4.2264Y-7.6307
X4.2264Y-7.7307
X4.2264Y-7.8307
X4.2264Y-7.9307
X4.2264Y-8.0307
X4.2295Y-8.2862
X4.2375Y-4.2657
X4.2375Y-4.8657
X4.2375Y-5.1618
X4.2375Y-5.7618
X4.2593Y-1.8705
X4.2766Y-8.1504
X4.3086Y-6.0045
X4.3086Y-6.3045
X4.3086Y-6.5417
X4.3086Y-6.8417
X4.3375Y-4.2657
X4.3375Y-4.8657
X4.3375Y-5.1618
X4.3375Y-5.7618
X4.4086Y-6.0045
X4.4086Y-6.3045
X4.4086Y-6.5417
X4.4086Y-6.8417
X4.4295Y-8.2862
X4.4766Y-8.1504
X4.5086Y-6.0045
X4.5086Y-6.3045
X4.5086Y-6.5417
X4.5086Y-6.8417
X4.5126Y-5.4941
X4.5126Y-5.7941
X4.5131Y-5.0004
X4.5131Y-5.3004
X4.5264Y-7.1307
X4.5264Y-7.2307
X4.5264Y-7.3307
X4.5264Y-7.4307
X4.5264Y-7.5307
X4.5264Y-7.6307
X4.5264Y-7.7307
X4.5264Y-7.8307
X4.5264Y-7.9307
X4.5264Y-8.0307
X4.5593Y-1.8705
X4.6086Y-6.0045
X4.6086Y-6.3045
X4.6086Y-6.5417
X4.6086Y-6.8417
X4.6126Y-5.4941
X4.6126Y-5.7941
X4.6131Y-5.0004
X4.6131Y-5.3004
X4.6593Y-1.8705
X4.661Y-4.7988
X4.7086Y-6.0045
X4.7086Y-6.3045
X4.7086Y-6.5417
X4.7086Y-6.8417
X4.7126Y-5.4941
X4.7126Y-5.7941
X4.7131Y-5.0004
X4.7131Y-5.3004
X4.7748Y-7.1386
X4.7748Y-7.2386
X4.7748Y-7.3386
X4.7748Y-7.4386
X4.7748Y-7.5386
X4.7748Y-7.6386
X4.7748Y-7.7386
X4.7748Y-7.8386
X4.7748Y-7.9386
X4.8086Y-6.0045
X4.8086Y-6.3045
X4.8086Y-6.5417
X4.8086Y-6.8417
X4.8126Y-5.4941
X4.8126Y-5.7941
X4.8131Y-5.0004
X4.8131Y-5.3004
X4.8244Y-8.0602
X4.861Y-4.7988
X4.9086Y-6.0045
X4.9086Y-6.3045
X4.9086Y-6.5417
X4.9086Y-6.8417
X4.9126Y-5.4941
X4.9126Y-5.7941
X4.9131Y-5.0004
X4.9131Y-5.3004
X4.9642Y-4.8004
X5.0086Y-6.0045
X5.0086Y-6.3045
X5.0086Y-6.5417
X5.0086Y-6.8417
X5.0126Y-5.4941
X5.0126Y-5.7941
X5.0131Y-5.0004
X5.0131Y-5.3004
X5.0244Y-8.0602
X5.0748Y-7.1386
X5.0748Y-7.2386
X5.0748Y-7.3386
X5.0748Y-7.4386
X5.0748Y-7.5386
X5.0748Y-7.6386
X5.0748Y-7.7386
X5.0748Y-7.8386
X5.0748Y-7.9386
X5.1086Y-6.0045
X5.1086Y-6.3045
X5.1086Y-6.5417
X5.1086Y-6.8417
X5.1126Y-5.4941
X5.1126Y-5.7941
X5.1131Y-5.0004
X5.1131Y-5.3004
X5.1642Y-4.8004
X5.2291Y-6.5915
X5.2291Y-6.7915
X5.2433Y-3.0291
X5.2433Y-3.3343
X5.313Y-7.1386
X5.313Y-7.2386
X5.313Y-7.3386
X5.313Y-7.4386
X5.313Y-7.5386
X5.313Y-7.6386
X5.313Y-7.7386
X5.313Y-7.8386
X5.313Y-7.9386
X5.3252Y-4.3457
X5.3252Y-4.4457
X5.3252Y-4.5457
X5.3252Y-4.6457
X5.3252Y-4.7457
X5.3252Y-4.8457
X5.3252Y-4.9457
X5.3252Y-5.0457
X5.3252Y-5.1457
X5.3252Y-5.2457
X5.3394Y-5.4941
X5.3394Y-5.7941
X5.3433Y-2.9291
X5.3433Y-3.2343
X5.3606Y-6.0045
X5.3606Y-6.3045
X5.3606Y-6.5417
X5.3606Y-6.8417
X5.3626Y-8.0602
X5.4126Y-8.2157
X5.4394Y-5.4941
X5.4394Y-5.7941
X5.4433Y-3.0291
X5.4433Y-3.3343
X5.4606Y-6.0045
X5.4606Y-6.3045
X5.4606Y-6.5417
X5.4606Y-6.8417
X5.5311Y-3.0291
X5.5311Y-3.3343
X5.5394Y-5.4941
X5.5394Y-5.7941
X5.5606Y-6.0045
X5.5606Y-6.3045
X5.5606Y-6.5417
X5.5606Y-6.8417
X5.5626Y-8.0602
X5.6126Y-8.2157
X5.613Y-7.1386
X5.613Y-7.2386
X5.613Y-7.3386
X5.613Y-7.4386
X5.613Y-7.5386
X5.613Y-7.6386
X5.613Y-7.7386
X5.613Y-7.8386
X5.613Y-7.9386
X5.6252Y-4.3457
X5.6252Y-4.4457
X5.6252Y-4.5457
X5.6252Y-4.6457
X5.6252Y-4.7457
X5.6252Y-4.8457
X5.6252Y-4.9457
X5.6252Y-5.0457
X5.6252Y-5.1457
X5.6252Y-5.2457
X5.6311Y-2.9291
X5.6311Y-3.2343
X5.6394Y-5.4941
X5.6394Y-5.7941
X5.6606Y-6.0045
X5.6606Y-6.3045
X5.6606Y-6.5417
X5.6606Y-6.8417
X5.7311Y-3.0291
X5.7311Y-3.3343
X5.7394Y-5.4941
X5.7394Y-5.7941
X5.7606Y-6.0045
X5.7606Y-6.3045
X5.7606Y-6.5417
X5.7606Y-6.8417
X5.7913Y-5.2528
X5.828Y-7.5717
X5.828Y-7.6717
X5.828Y-7.7717
X5.828Y-7.8717
X5.828Y-7.9717
X5.828Y-8.0717
X5.828Y-8.1717
X5.8394Y-5.4941
X5.8394Y-5.7941
X5.8535Y-7.1138
X5.8535Y-7.4138
X5.8606Y-6.0045
X5.8606Y-6.3045
X5.8606Y-6.5417
X5.8606Y-6.8417
X5.8854Y-8.2913
X5.9201Y-3.0335
X5.9201Y-3.6335
X5.9201Y-4.2268
X5.9201Y-4.8268
X5.9209Y-2.9122
X5.9394Y-5.4941
X5.9394Y-5.7941
X5.9535Y-7.1138
X5.9535Y-7.4138
X5.9606Y-6.0045
X5.9606Y-6.3045
X5.9606Y-6.5417
X5.9606Y-6.8417
X5.9913Y-5.2528
X6.0201Y-3.0335
X6.0201Y-3.6335
X6.0201Y-4.2268
X6.0201Y-4.8268
X6.0535Y-7.1138
X6.0535Y-7.4138
X6.0606Y-6.0045
X6.0606Y-6.3045
X6.0606Y-6.5417
X6.0606Y-6.8417
X6.0614Y-5.5457
X6.0614Y-5.7457
X6.0854Y-8.2913
X6.1201Y-3.0335
X6.1201Y-3.6335
X6.1201Y-4.2268
X6.1201Y-4.8268
X6.1209Y-2.9122
X6.128Y-7.5717
X6.128Y-7.6717
X6.128Y-7.7717
X6.128Y-7.8717
X6.128Y-7.9717
X6.128Y-8.0717
X6.128Y-8.1717
X6.1535Y-7.1138
X6.1535Y-7.4138
X6.1819Y-6.5915
X6.1819Y-6.7915
X6.1953Y-4.9807
X6.1953Y-5.2807
X6.1953Y-5.4941
X6.1953Y-5.7941
X6.2201Y-3.0335
X6.2201Y-3.6335
X6.2201Y-4.2268
X6.2201Y-4.8268
X6.2535Y-7.1138
X6.2535Y-7.4138
X6.2953Y-4.9807
X6.2953Y-5.2807
X6.2953Y-5.4941
X6.2953Y-5.7941
X6.315Y-6.0045
X6.315Y-6.3045
X6.315Y-6.5417
X6.315Y-6.8417
X6.3201Y-3.0335
X6.3201Y-3.6335
X6.3201Y-4.2268
X6.3201Y-4.8268
X6.3535Y-7.1138
X6.3535Y-7.4138
X6.3953Y-4.9807
X6.3953Y-5.2807
X6.3953Y-5.4941
X6.3953Y-5.7941
X6.415Y-6.0045
X6.415Y-6.3045
X6.415Y-6.5417
X6.415Y-6.8417
X6.4201Y-3.0335
X6.4201Y-3.6335
X6.4201Y-4.2268
X6.4201Y-4.8268
X6.4535Y-7.1138
X6.4535Y-7.4138
X6.4811Y-6.9768
X6.4953Y-4.9807
X6.4953Y-5.2807
X6.4953Y-5.4941
X6.4953Y-5.7941
X6.515Y-6.0045
X6.515Y-6.3045
X6.515Y-6.5417
X6.515Y-6.8417
X6.5165Y-2.5177
X6.5165Y-2.8177
X6.5201Y-3.0335
X6.5201Y-3.6335
X6.5201Y-4.2268
X6.5201Y-4.8268
X6.5953Y-4.9807
X6.5953Y-5.2807
X6.5953Y-5.4941
X6.5953Y-5.7941
X6.615Y-6.0045
X6.615Y-6.3045
X6.615Y-6.5417
X6.615Y-6.8417
X6.6165Y-2.5177
X6.6165Y-2.8177
X6.6201Y-3.0335
X6.6201Y-3.6335
X6.6201Y-4.2268
X6.6201Y-4.8268
X6.6783Y-7.1122
X6.6783Y-7.4122
X6.6783Y-7.6315
X6.6783Y-7.9315
X6.6811Y-6.9768
X6.6953Y-4.9807
X6.6953Y-5.2807
X6.6953Y-5.4941
X6.6953Y-5.7941
X6.715Y-6.0045
X6.715Y-6.3045
X6.715Y-6.5417
X6.715Y-6.8417
X6.7165Y-2.5177
X6.7165Y-2.8177
X6.7201Y-3.0335
X6.7201Y-3.6335
X6.7201Y-4.2268
X6.7201Y-4.8268
X6.7783Y-7.1122
X6.7783Y-7.4122
X6.7783Y-7.6315
X6.7783Y-7.9315
X6.7953Y-4.9807
X6.7953Y-5.2807
X6.7953Y-5.4941
X6.7953Y-5.7941
X6.815Y-6.0045
X6.815Y-6.3045
X6.815Y-6.5417
X6.815Y-6.8417
X6.8165Y-2.5177
X6.8165Y-2.8177
X6.8201Y-3.0335
X6.8201Y-3.6335
X6.8201Y-4.2268
X6.8201Y-4.8268
X6.8783Y-7.1122
X6.8783Y-7.4122
X6.8783Y-7.6315
X6.8783Y-7.9315
X6.915Y-6.0045
X6.915Y-6.3045
X6.915Y-6.5417
X6.915Y-6.8417
X6.9161Y-5.5457
X6.9161Y-5.7457
X6.9165Y-2.5177
X6.9165Y-2.8177
X6.9165Y-5.0323
X6.9165Y-5.2323
X6.9201Y-3.0335
X6.9201Y-3.6335
X6.9201Y-4.2268
X6.9201Y-4.8268
X6.9783Y-7.1122
X6.9783Y-7.4122
X6.9783Y-7.6315
X6.9783Y-7.9315
X7.015Y-6.0045
X7.015Y-6.3045
X7.015Y-6.5417
X7.015Y-6.8417
X7.0165Y-2.5177
X7.0165Y-2.8177
X7.0201Y-3.0335
X7.0201Y-3.6335
X7.0201Y-4.2268
X7.0201Y-4.8268
X7.0461Y-2.3878
X7.0783Y-7.1122
X7.0783Y-7.4122
X7.0783Y-7.6315
X7.0783Y-7.9315
X7.0963Y-4.9823
X7.0963Y-5.5823
X7.1165Y-2.5177
X7.1165Y-2.8177
X7.1201Y-3.0335
X7.1201Y-3.6335
X7.1201Y-4.2268
X7.1201Y-4.8268
X7.1783Y-7.1122
X7.1783Y-7.4122
X7.1783Y-7.6315
X7.1783Y-7.9315
X7.1963Y-4.9823
X7.1963Y-5.5823
X7.2165Y-2.5177
X7.2165Y-2.8177
X7.2201Y-3.0335
X7.2201Y-3.6335
X7.2201Y-4.2268
X7.2201Y-4.8268
X7.235Y-6.337
X7.235Y-6.437
X7.235Y-6.537
X7.235Y-6.637
X7.235Y-6.737
X7.235Y-6.837
X7.235Y-6.937
X7.2461Y-2.3878
X7.2783Y-7.1122
X7.2783Y-7.4122
X7.2783Y-7.6315
X7.2783Y-7.9315
X7.2963Y-4.9823
X7.2963Y-5.5823
X7.3165Y-2.5177
X7.3165Y-2.8177
X7.3201Y-3.0335
X7.3201Y-3.6335
X7.3201Y-4.2268
X7.3201Y-4.8268
X7.3963Y-4.9823
X7.3963Y-5.5823
X7.4004Y-7.6831
X7.4004Y-7.8831
X7.4016Y-7.1638
X7.4016Y-7.3638
X7.4165Y-2.5177
X7.4165Y-2.8177
X7.4201Y-3.0335
X7.4201Y-3.6335
X7.4201Y-4.2268
X7.4201Y-4.8268
X7.4963Y-4.9823
X7.4963Y-5.5823
X7.5031Y-5.7839
X7.5031Y-6.0839
X7.5165Y-2.5177
X7.5165Y-2.8177
X7.5201Y-3.0335
X7.5201Y-3.6335
X7.5201Y-4.2268
X7.5201Y-4.8268
X7.535Y-6.337
X7.535Y-6.437
X7.535Y-6.537
X7.535Y-6.637
X7.535Y-6.737
X7.535Y-6.837
X7.535Y-6.937
X7.5963Y-4.9823
X7.5963Y-5.5823
X7.6031Y-5.7839
X7.6031Y-6.0839
X7.6165Y-2.5177
X7.6165Y-2.8177
X7.6201Y-3.0335
X7.6201Y-3.6335
X7.6201Y-4.2268
X7.6201Y-4.8268
X7.6626Y-6.3236
X7.6626Y-6.5236
X7.6963Y-4.9823
X7.6963Y-5.5823
X7.7031Y-5.7839
X7.7031Y-6.0839
X7.7165Y-2.5177
X7.7165Y-2.8177
X7.7201Y-3.0335
X7.7201Y-3.6335
X7.7201Y-4.2268
X7.7201Y-4.8268
X7.7963Y-4.9823
X7.7963Y-5.5823
X7.8024Y-6.272
X7.8024Y-6.572
X7.8024Y-6.8075
X7.8024Y-7.1075
X7.8031Y-5.7839
X7.8031Y-6.0839
X7.8165Y-2.5177
X7.8165Y-2.8177
X7.8201Y-3.0335
X7.8201Y-3.6335
X7.8201Y-4.2268
X7.8201Y-4.8268
X7.8963Y-4.9823
X7.8963Y-5.5823
X7.9024Y-6.272
X7.9024Y-6.572
X7.9024Y-6.8075
X7.9024Y-7.1075
X7.9031Y-5.7839
X7.9031Y-6.0839
X7.9963Y-4.9823
X7.9963Y-5.5823
X8.0024Y-6.272
X8.0024Y-6.572
X8.0024Y-6.8075
X8.0024Y-7.1075
X8.0031Y-5.7839
X8.0031Y-6.0839
X8.0963Y-4.9823
X8.0963Y-5.5823
X8.1024Y-6.272
X8.1024Y-6.572
X8.1024Y-6.8075
X8.1024Y-7.1075
X8.1031Y-5.7839
X8.1031Y-6.0839
X8.1035Y-4.2152
X8.1035Y-4.3152
X8.1035Y-4.4152
X8.1035Y-4.5152
X8.1035Y-4.6152
X8.1035Y-4.7152
X8.1035Y-4.8152
X8.1114Y-3.6472
X8.1114Y-3.7472
X8.1122Y-3.3421
X8.152Y-4.0843
X8.174Y-2.6287
X8.1963Y-4.9823
X8.1963Y-5.5823
X8.2024Y-6.272
X8.2024Y-6.572
X8.2024Y-6.8075
X8.2024Y-7.1075
X8.2031Y-5.7839
X8.2031Y-6.0839
X8.2963Y-4.9823
X8.2963Y-5.5823
X8.3024Y-6.272
X8.3024Y-6.572
X8.3024Y-6.8075
X8.3024Y-7.1075
X8.3031Y-5.7839
X8.3031Y-6.0839
X8.3122Y-3.3421
X8.3122Y-3.6472
X8.3122Y-3.7472
X8.352Y-4.0843
X8.374Y-2.6287
X8.3963Y-4.9823
X8.3963Y-5.5823
X8.4024Y-6.272
X8.4024Y-6.572
X8.4024Y-6.8075
X8.4024Y-7.1075
X8.4031Y-5.7839
X8.4031Y-6.0839
X8.4035Y-4.2152
X8.4035Y-4.3152
X8.4035Y-4.4152
X8.4035Y-4.5152
X8.4035Y-4.6152
X8.4035Y-4.7152
X8.4035Y-4.8152
T6
X5.3835Y-2.6323
X5.4835Y-2.6323
X5.6433Y-2.6323
X5.7433Y-2.6323
X5.9031Y-2.6323
X6.0031Y-2.6323
X6.163Y-2.6323
X6.263Y-2.6323
T7
X5.7665Y-1.8539
X5.9437Y-1.8539
T8
X2.5244Y-2.0915
X2.5244Y-2.1915
X2.6244Y-2.0915
X2.6244Y-2.1915
X2.7244Y-2.0915
X2.7244Y-2.1915
X2.7555Y-2.7406
X2.8244Y-2.0915
X2.8244Y-2.1915
X2.8555Y-2.7406
X2.9244Y-2.0915
X2.9244Y-2.1915
X2.9555Y-2.7406
X3.0244Y-2.0915
X3.0244Y-2.1915
X3.1244Y-2.0915
X3.1244Y-2.1915
X3.2244Y-2.0915
X3.2244Y-2.1915
X3.2756Y-5.0126
X3.3244Y-2.0915
X3.3244Y-2.1915
X3.3756Y-5.0126
X3.4244Y-2.0915
X3.4244Y-2.1915
X3.4756Y-5.0126
X3.5244Y-2.0915
X3.5244Y-2.1915
X3.6244Y-2.0915
X3.6244Y-2.1915
X3.7244Y-2.0915
X3.7244Y-2.1915
X3.8244Y-2.0915
X3.8244Y-2.1915
X3.9244Y-2.0915
X3.9244Y-2.1915
X4.0244Y-2.0915
X4.0244Y-2.1915
X4.1244Y-2.0915
X4.1244Y-2.1915
X4.2244Y-2.0915
X4.2244Y-2.1915
X4.3244Y-2.0915
X4.3244Y-2.1915
X4.4244Y-2.0915
X4.4244Y-2.1915
X4.5244Y-2.0915
X4.5244Y-2.1915
X4.6244Y-2.0915
X4.6244Y-2.1915
X4.7244Y-2.0915
X4.7244Y-2.1915
X4.8244Y-2.0915
X4.8244Y-2.1915
X4.9244Y-2.0915
X4.9244Y-2.1915
X5.0244Y-2.0915
X5.0244Y-2.1915
X5.1244Y-2.0915
X5.1244Y-2.1915
X5.2244Y-2.0915
X5.2244Y-2.1915
X5.3244Y-2.0915
X5.3244Y-2.1915
X5.4244Y-2.0915
X5.4244Y-2.1915
X5.8Y-2.202
X5.9Y-2.202
X6.3795Y-8.185
X6.3795Y-8.285
X6.4795Y-8.185
X6.4795Y-8.285
X6.5795Y-8.185
X6.5795Y-8.285
X6.6795Y-8.185
X6.6795Y-8.285
X6.7795Y-8.185
X6.7795Y-8.285
X6.8795Y-8.185
X6.8795Y-8.285
X6.9795Y-8.185
X6.9795Y-8.285
X7.0795Y-8.185
X7.0795Y-8.285
X7.1795Y-8.185
X7.1795Y-8.285
X7.1858Y-5.7996
X7.1858Y-5.8996
X7.1858Y-5.9996
X7.1858Y-6.0996
X7.2795Y-8.185
X7.2795Y-8.285
X7.3327Y-5.8008
X7.3327Y-5.9008
X7.3327Y-6.0008
X7.3327Y-6.1008
X7.3795Y-8.185
X7.3795Y-8.285
X7.4795Y-8.185
X7.4795Y-8.285
X7.5795Y-8.185
X7.5795Y-8.285
X7.6795Y-8.185
X7.6795Y-8.285
X7.7795Y-8.185
X7.7795Y-8.285
X7.8795Y-8.185
X7.8795Y-8.285
X7.9795Y-8.185
X7.9795Y-8.285
X8.0193Y-7.915
X8.1193Y-7.915
X8.2193Y-7.915
T9
X4.8766Y-1.8705
X5.1128Y-1.8705
X5.8555Y-3.913
X5.9539Y-3.913
X6.0524Y-3.913
X6.1508Y-3.913
X6.2492Y-3.913
X6.3476Y-3.913
X6.4461Y-3.913
X6.5445Y-3.913
X6.6429Y-3.913
X6.7413Y-3.913
X6.8398Y-3.913
X6.9382Y-3.913
X7.0366Y-3.913
X7.135Y-3.913
X7.2335Y-3.913
X7.3319Y-3.913
X7.4303Y-3.913
X7.5043Y-2.0862
X7.5043Y-2.1965
X7.5287Y-3.913
X7.587Y-2.0862
X7.6256Y-3.913
X7.6894Y-2.0862
X7.7256Y-3.913
X7.772Y-2.0862
X7.772Y-2.1965
T10
X5.7173Y-1.952
X5.9933Y-1.952
T11
X6.9803Y-2.0563
T12
X2.0628Y-7.9638
X2.2187Y-7.9638
T13
X6.7835Y-2.0563
X6.9803Y-1.8791
X7.1772Y-2.0563
T14
X2.1303Y-2.1413
X2.1303Y-8.2413
X8.3303Y-3.0413
X8.3303Y-8.2413
T5
G00X6.1925Y-2.1035
M15
G01X6.1925Y-2.1311
M16
G05
G00X6.2909Y-2.1035
M15
G01X6.2909Y-2.1311
M16
G05
G00X6.4031Y-1.9205
M15
G01X6.3756Y-1.9205
M16
G05
G00X6.4878Y-2.1035
M15
G01X6.4878Y-2.1311
M16
G05
G00X6.5862Y-2.1035
M15
G01X6.5862Y-2.1311
M16
G05
T8
G00X7.3685Y-2.0035
M15
G01X7.3685Y-1.9445
M16
G05
G00X7.6776Y-1.9425
M15
G01X7.5988Y-1.9425
M16
G05
G00X7.9079Y-2.0035
M15
G01X7.9079Y-1.9445
M16
G05
G00X8.0547Y-2.1335
M15
G01X8.0547Y-2.2122
M16
G05
G00X8.2791Y-2.0547
M15
G01X8.2004Y-2.0547
M16
G05
G00X8.2791Y-2.2909
M15
G01X8.2004Y-2.2909
M16
G05
M30
