M48
; DRILL file {KiCad 9.0.3} date 2025-12-08T23:35:01+0000
; FORMAT={-:-/ absolute / inch / decimal}
; #@! TF.CreationDate,2025-12-08T23:35:01+00:00
; #@! TF.GenerationSoftware,Kicad,Pcbnew,9.0.3
; #@! TF.FileFunction,Plated,1,2,PTH
FMAT,2
INCH
; #@! TA.AperFunction,Plated,PTH,ViaDrill
T1C0.0177
; #@! TA.AperFunction,Plated,PTH,ComponentDrill
T2C0.0276
; #@! TA.AperFunction,Plated,PTH,ComponentDrill
T3C0.0315
; #@! TA.AperFunction,Plated,PTH,ComponentDrill
T4C0.0354
; #@! TA.AperFunction,Plated,PTH,ComponentDrill
T5C0.0394
%
G90
G05
T1
X1.9217Y-3.929
X2.3173Y-2.1232
X2.3488Y-2.8213
X2.4618Y-2.0831
X2.676Y-2.5063
X2.9205Y-2.6437
X3.1118Y-3.9051
X3.1445Y-3.9752
X3.1744Y-4.0461
X3.2055Y-4.1154
X3.5559Y-2.6972
X3.5563Y-2.8787
X3.8728Y-2.3094
X3.8752Y-2.7984
X3.9055Y-1.9646
X3.935Y-2.0079
X3.9548Y-2.0471
X3.9745Y-2.0862
X3.9942Y-2.1244
X4.0139Y-2.2386
X4.0337Y-2.2768
X4.0737Y-3.0236
X4.1057Y-3.0531
X4.3717Y-2.2693
X4.4598Y-2.0669
X4.4598Y-2.5161
X4.5504Y-2.4866
X4.5598Y-2.0346
X4.6504Y-2.2756
X4.6504Y-2.5752
X4.6598Y-2.0079
X4.7598Y-1.9748
X4.7598Y-2.7732
X4.7705Y-2.2461
X4.8504Y-2.9756
X4.88Y-2.5457
X5.0386Y-3.2485
X5.189Y-1.9394
X5.3347Y-3.0051
X5.4346Y-3.028
X5.5347Y-2.5051
X5.5441Y-2.0315
X5.5642Y-2.9047
X5.6347Y-2.4772
X5.6441Y-2.0106
X5.7347Y-2.2764
X5.7441Y-1.9882
X5.9347Y-2.9756
X6.0347Y-2.5323
T2
X1.1681Y-3.2764
X1.1681Y-3.6764
X1.1681Y-4.0693
X1.1681Y-4.4693
X1.2709Y-1.172
X1.2709Y-1.572
X1.2831Y-1.9728
X1.2831Y-2.3728
X1.287Y-3.2764
X1.287Y-3.6764
X1.287Y-4.0693
X1.287Y-4.4693
X1.4059Y-3.2764
X1.4059Y-3.6764
X1.4059Y-4.0693
X1.4059Y-4.4693
X1.4122Y-1.9728
X1.4122Y-2.3728
X1.5425Y-1.9724
X1.5425Y-2.3724
X1.6728Y-1.9724
X1.6728Y-2.3724
X1.8028Y-1.9724
X1.8028Y-2.3724
X1.8461Y-2.5492
X1.8461Y-2.9492
X2.1768Y-1.2642
X2.1768Y-1.3874
X2.1768Y-1.5114
X2.5768Y-1.2642
X2.5768Y-1.3874
X2.5768Y-1.5114
T3
X1.4953Y-1.3461
X1.5297Y-2.6091
X1.5297Y-3.0169
X1.5297Y-3.3043
X1.5297Y-3.6075
X1.6297Y-2.5091
X1.6297Y-2.7091
X1.6297Y-2.9169
X1.6297Y-3.1169
X1.6297Y-3.2043
X1.6297Y-3.4043
X1.6297Y-3.5075
X1.6297Y-3.7075
X1.6953Y-1.3461
X1.922Y-3.9984
X1.922Y-4.2984
X2.2724Y-2.2232
X2.2724Y-2.2933
X2.2724Y-2.3634
X2.2724Y-2.4335
X2.2724Y-2.5035
X2.2724Y-2.5736
X2.2724Y-2.6437
X2.2724Y-2.7138
X2.2724Y-2.7839
X2.2724Y-2.8539
X2.2724Y-2.924
X2.2724Y-2.9941
X2.2724Y-3.0642
X2.2724Y-3.1343
X2.2724Y-3.2043
X2.2724Y-3.2744
X2.2724Y-3.3445
X2.2724Y-3.4146
X2.2724Y-3.4846
X2.2724Y-3.5547
X2.2724Y-3.6248
X2.2724Y-3.6949
X2.2724Y-3.765
X2.2724Y-3.835
X2.2724Y-3.9051
X2.2724Y-3.9752
X2.2724Y-4.0453
X2.2724Y-4.1154
X2.2724Y-4.1854
X2.2724Y-4.2555
X2.2724Y-4.3256
X2.2724Y-4.3957
X2.7984Y-1.9732
X2.9984Y-1.9732
X3.0232Y-2.2232
X3.0232Y-2.2933
X3.0232Y-2.3634
X3.0232Y-2.4335
X3.0232Y-2.5035
X3.0232Y-2.5736
X3.0232Y-2.6437
X3.0232Y-2.7138
X3.0232Y-2.7839
X3.0232Y-2.8539
X3.0232Y-2.924
X3.0232Y-2.9941
X3.0232Y-3.0642
X3.0232Y-3.1343
X3.0232Y-3.2043
X3.0232Y-3.2744
X3.0232Y-3.3445
X3.0232Y-3.4146
X3.0232Y-3.4846
X3.0232Y-3.5547
X3.0232Y-3.6248
X3.0232Y-3.6949
X3.0232Y-3.765
X3.0232Y-3.835
X3.0232Y-3.9051
X3.0232Y-3.9752
X3.0232Y-4.0453
X3.0232Y-4.1154
X3.0232Y-4.1854
X3.0232Y-4.2555
X3.0232Y-4.3256
X3.0232Y-4.3957
X3.5535Y-1.963
X3.5535Y-2.163
X3.752Y-1.963
X3.752Y-2.163
X4.1051Y-1.8512
X4.1051Y-2.1512
X4.1051Y-2.3535
X4.1051Y-2.6535
X4.1051Y-2.8539
X4.1051Y-3.1539
X4.2051Y-1.8512
X4.2051Y-2.1512
X4.2051Y-2.3535
X4.2051Y-2.6535
X4.2051Y-2.8539
X4.2051Y-3.1539
X4.3051Y-1.8512
X4.3051Y-2.1512
X4.3051Y-2.3535
X4.3051Y-2.6535
X4.3051Y-2.8539
X4.3051Y-3.1539
X4.4051Y-1.8512
X4.4051Y-2.1512
X4.4051Y-2.3535
X4.4051Y-2.6535
X4.4051Y-2.8539
X4.4051Y-3.1539
X4.5051Y-1.8512
X4.5051Y-2.1512
X4.5051Y-2.3535
X4.5051Y-2.6535
X4.5051Y-2.8539
X4.5051Y-3.1539
X4.6051Y-1.8512
X4.6051Y-2.1512
X4.6051Y-2.3535
X4.6051Y-2.6535
X4.6051Y-2.8539
X4.6051Y-3.1539
X4.7051Y-1.8512
X4.7051Y-2.1512
X4.7051Y-2.3535
X4.7051Y-2.6535
X4.7051Y-2.8539
X4.7051Y-3.1539
X4.8051Y-1.8512
X4.8051Y-2.1512
X4.8051Y-2.3535
X4.8051Y-2.6535
X4.8051Y-2.8539
X4.8051Y-3.1539
X4.9051Y-1.8512
X4.9051Y-2.1512
X4.9051Y-2.3535
X4.9051Y-2.6535
X4.9051Y-2.8539
X4.9051Y-3.1539
X5.039Y-1.9012
X5.039Y-2.1012
X5.039Y-2.4039
X5.039Y-2.6039
X5.039Y-2.9008
X5.039Y-3.1008
X5.1894Y-1.8512
X5.1894Y-2.1512
X5.1894Y-2.3535
X5.1894Y-2.6535
X5.1894Y-2.8539
X5.1894Y-3.1539
X5.2894Y-1.8512
X5.2894Y-2.1512
X5.2894Y-2.3535
X5.2894Y-2.6535
X5.2894Y-2.8539
X5.2894Y-3.1539
X5.3894Y-1.8512
X5.3894Y-2.1512
X5.3894Y-2.3535
X5.3894Y-2.6535
X5.3894Y-2.8539
X5.3894Y-3.1539
X5.4894Y-1.8512
X5.4894Y-2.1512
X5.4894Y-2.3535
X5.4894Y-2.6535
X5.4894Y-2.8539
X5.4894Y-3.1539
X5.5894Y-1.8512
X5.5894Y-2.1512
X5.5894Y-2.3535
X5.5894Y-2.6535
X5.5894Y-2.8539
X5.5894Y-3.1539
X5.6894Y-1.8512
X5.6894Y-2.1512
X5.6894Y-2.3535
X5.6894Y-2.6535
X5.6894Y-2.8539
X5.6894Y-3.1539
X5.7894Y-1.8512
X5.7894Y-2.1512
X5.7894Y-2.3535
X5.7894Y-2.6535
X5.7894Y-2.8539
X5.7894Y-3.1539
X5.8894Y-1.8512
X5.8894Y-2.1512
X5.8894Y-2.3535
X5.8894Y-2.6535
X5.8894Y-2.8539
X5.8894Y-3.1539
X5.9894Y-1.8512
X5.9894Y-2.1512
X5.9894Y-2.3535
X5.9894Y-2.6535
X5.9894Y-2.8539
X5.9894Y-3.1539
X6.1106Y-1.9012
X6.1106Y-2.1012
X6.1106Y-2.4039
X6.1106Y-2.6039
X6.1106Y-2.9008
X6.1106Y-3.1008
T4
X1.3604Y-2.6364
X1.3604Y-2.7364
T5
X1.6047Y-3.8602
X1.6047Y-3.9587
X1.6047Y-4.1122
X1.6047Y-4.2106
X1.6047Y-4.3679
X1.6047Y-4.4663
X1.9681Y-1.8063
X1.9681Y-1.9063
X1.9681Y-2.0063
X1.9681Y-2.1063
X1.9681Y-2.2063
X1.9681Y-2.3063
X1.9681Y-2.4063
X1.9681Y-2.5063
X1.9681Y-2.6063
X1.9681Y-2.7063
X1.9681Y-2.8063
X1.9681Y-2.9063
X1.9681Y-3.0063
X1.9681Y-3.1063
X1.9681Y-3.2063
X1.9681Y-3.3063
X1.9681Y-3.4063
X1.9681Y-3.5063
X1.9681Y-3.6063
X1.9681Y-3.7063
X2.2128Y-1.1311
X2.3128Y-1.1311
X2.5681Y-1.8063
X2.5681Y-1.9063
X2.5681Y-2.0063
X2.5681Y-2.1063
X2.5681Y-2.2063
X2.5681Y-2.3063
X2.5681Y-2.4063
X2.5681Y-2.5063
X2.5681Y-2.6063
X2.5681Y-2.7063
X2.5681Y-2.8063
X2.5681Y-2.9063
X2.5681Y-3.0063
X2.5681Y-3.1063
X2.5681Y-3.2063
X2.5681Y-3.3063
X2.5681Y-3.4063
X2.5681Y-3.5063
X2.5681Y-3.6063
X2.5681Y-3.7063
X3.2744Y-2.0087
X3.2744Y-2.1087
X3.2744Y-2.2087
X3.2744Y-2.3087
X3.2744Y-2.4087
X3.2744Y-2.5087
X3.2744Y-2.6087
X3.2744Y-2.7087
X3.3744Y-2.0087
X3.3744Y-2.1087
X3.3744Y-2.2087
X3.3744Y-2.3087
X3.3744Y-2.4087
X3.3744Y-2.5087
X3.3744Y-2.6087
X3.3744Y-2.7087
M30
