%TF.GenerationSoftware,KiCad,Pcbnew,9.0.3*%
%TF.CreationDate,2025-12-08T23:35:01+00:00*%
%TF.ProjectId,V9958AdapterTC01,56393935-3841-4646-9170-746572544330,rev?*%
%TF.SameCoordinates,Original*%
%TF.FileFunction,Drillmap*%
%TF.FilePolarity,Positive*%
%FSLAX45Y45*%
G04 Gerber Fmt 4.5, Leading zero omitted, Abs format (unit mm)*
G04 Created by KiCad (PCBNEW 9.0.3) date 2025-12-08 23:35:01*
%MOMM*%
%LPD*%
G01*
G04 APERTURE LIST*
%ADD10C,0.050000*%
%ADD11C,0.200000*%
G04 APERTURE END LIST*
D10*
X15872000Y-8053000D02*
X15872000Y-4729000D01*
X3109000Y-11695027D02*
X8036000Y-11696000D01*
X6516000Y-2552538D02*
X3109502Y-2552021D01*
X8379000Y-11353000D02*
X8379000Y-8396000D01*
X2766538Y-2895000D02*
X2766000Y-11352000D01*
X6516000Y-2552538D02*
G75*
G02*
X6859002Y-2895538I0J-343002D01*
G01*
X6859000Y-4386000D02*
X6859000Y-2895538D01*
X8379000Y-8396000D02*
X15529000Y-8396000D01*
X8379000Y-11353000D02*
G75*
G02*
X8036000Y-11696000I-343000J0D01*
G01*
D11*
X15714000Y-7002000D02*
G75*
G02*
X15494000Y-7002000I-110000J0D01*
G01*
X15494000Y-7002000D02*
G75*
G02*
X15714000Y-7002000I110000J0D01*
G01*
D10*
X2766502Y-2895000D02*
G75*
G02*
X3109502Y-2552002I342998J0D01*
G01*
D11*
X15714000Y-5722000D02*
G75*
G02*
X15494000Y-5722000I-110000J0D01*
G01*
X15494000Y-5722000D02*
G75*
G02*
X15714000Y-5722000I110000J0D01*
G01*
D10*
X15872000Y-8053000D02*
G75*
G02*
X15529000Y-8396000I-343000J0D01*
G01*
X3109000Y-11695000D02*
G75*
G02*
X2766000Y-11352000I0J343000D01*
G01*
X15529000Y-4386000D02*
G75*
G02*
X15872000Y-4729000I0J-343000D01*
G01*
X15529000Y-4386000D02*
X6859000Y-4386000D01*
D11*
X3024277Y-12009984D02*
X3024277Y-11809984D01*
X3024277Y-11809984D02*
X3071896Y-11809984D01*
X3071896Y-11809984D02*
X3100467Y-11819508D01*
X3100467Y-11819508D02*
X3119515Y-11838555D01*
X3119515Y-11838555D02*
X3129039Y-11857603D01*
X3129039Y-11857603D02*
X3138562Y-11895698D01*
X3138562Y-11895698D02*
X3138562Y-11924269D01*
X3138562Y-11924269D02*
X3129039Y-11962365D01*
X3129039Y-11962365D02*
X3119515Y-11981412D01*
X3119515Y-11981412D02*
X3100467Y-12000460D01*
X3100467Y-12000460D02*
X3071896Y-12009984D01*
X3071896Y-12009984D02*
X3024277Y-12009984D01*
X3224277Y-12009984D02*
X3224277Y-11876650D01*
X3224277Y-11914746D02*
X3233801Y-11895698D01*
X3233801Y-11895698D02*
X3243324Y-11886174D01*
X3243324Y-11886174D02*
X3262372Y-11876650D01*
X3262372Y-11876650D02*
X3281420Y-11876650D01*
X3348086Y-12009984D02*
X3348086Y-11876650D01*
X3348086Y-11809984D02*
X3338562Y-11819508D01*
X3338562Y-11819508D02*
X3348086Y-11829031D01*
X3348086Y-11829031D02*
X3357610Y-11819508D01*
X3357610Y-11819508D02*
X3348086Y-11809984D01*
X3348086Y-11809984D02*
X3348086Y-11829031D01*
X3471896Y-12009984D02*
X3452848Y-12000460D01*
X3452848Y-12000460D02*
X3443324Y-11981412D01*
X3443324Y-11981412D02*
X3443324Y-11809984D01*
X3576658Y-12009984D02*
X3557610Y-12000460D01*
X3557610Y-12000460D02*
X3548086Y-11981412D01*
X3548086Y-11981412D02*
X3548086Y-11809984D01*
X3805229Y-12009984D02*
X3805229Y-11809984D01*
X3805229Y-11809984D02*
X3871896Y-11952841D01*
X3871896Y-11952841D02*
X3938562Y-11809984D01*
X3938562Y-11809984D02*
X3938562Y-12009984D01*
X4119515Y-12009984D02*
X4119515Y-11905222D01*
X4119515Y-11905222D02*
X4109991Y-11886174D01*
X4109991Y-11886174D02*
X4090943Y-11876650D01*
X4090943Y-11876650D02*
X4052848Y-11876650D01*
X4052848Y-11876650D02*
X4033801Y-11886174D01*
X4119515Y-12000460D02*
X4100467Y-12009984D01*
X4100467Y-12009984D02*
X4052848Y-12009984D01*
X4052848Y-12009984D02*
X4033801Y-12000460D01*
X4033801Y-12000460D02*
X4024277Y-11981412D01*
X4024277Y-11981412D02*
X4024277Y-11962365D01*
X4024277Y-11962365D02*
X4033801Y-11943317D01*
X4033801Y-11943317D02*
X4052848Y-11933793D01*
X4052848Y-11933793D02*
X4100467Y-11933793D01*
X4100467Y-11933793D02*
X4119515Y-11924269D01*
X4214753Y-11876650D02*
X4214753Y-12076650D01*
X4214753Y-11886174D02*
X4233801Y-11876650D01*
X4233801Y-11876650D02*
X4271896Y-11876650D01*
X4271896Y-11876650D02*
X4290944Y-11886174D01*
X4290944Y-11886174D02*
X4300467Y-11895698D01*
X4300467Y-11895698D02*
X4309991Y-11914746D01*
X4309991Y-11914746D02*
X4309991Y-11971888D01*
X4309991Y-11971888D02*
X4300467Y-11990936D01*
X4300467Y-11990936D02*
X4290944Y-12000460D01*
X4290944Y-12000460D02*
X4271896Y-12009984D01*
X4271896Y-12009984D02*
X4233801Y-12009984D01*
X4233801Y-12009984D02*
X4214753Y-12000460D01*
X4395705Y-11990936D02*
X4405229Y-12000460D01*
X4405229Y-12000460D02*
X4395705Y-12009984D01*
X4395705Y-12009984D02*
X4386182Y-12000460D01*
X4386182Y-12000460D02*
X4395705Y-11990936D01*
X4395705Y-11990936D02*
X4395705Y-12009984D01*
X4395705Y-11886174D02*
X4405229Y-11895698D01*
X4405229Y-11895698D02*
X4395705Y-11905222D01*
X4395705Y-11905222D02*
X4386182Y-11895698D01*
X4386182Y-11895698D02*
X4395705Y-11886174D01*
X4395705Y-11886174D02*
X4395705Y-11905222D01*
M02*
