%TF.GenerationSoftware,KiCad,Pcbnew,9.0.7*%
%TF.CreationDate,2026-02-22T23:56:09+00:00*%
%TF.ProjectId,TC01TandyJoystick,54433031-5461-46e6-9479-4a6f79737469,rev?*%
%TF.SameCoordinates,Original*%
%TF.FileFunction,Legend,Top*%
%TF.FilePolarity,Positive*%
%FSLAX46Y46*%
G04 Gerber Fmt 4.6, Leading zero omitted, Abs format (unit mm)*
G04 Created by KiCad (PCBNEW 9.0.7) date 2026-02-22 23:56:09*
%MOMM*%
%LPD*%
G01*
G04 APERTURE LIST*
%ADD10C,0.240000*%
%ADD11C,0.150000*%
%ADD12C,0.300000*%
G04 APERTURE END LIST*
D10*
X83154285Y-125089567D02*
X83416190Y-125822900D01*
X83416190Y-125822900D02*
X83678095Y-125089567D01*
X84673333Y-125822900D02*
X84044761Y-125822900D01*
X84359047Y-125822900D02*
X84359047Y-124722900D01*
X84359047Y-124722900D02*
X84254285Y-124880043D01*
X84254285Y-124880043D02*
X84149523Y-124984805D01*
X84149523Y-124984805D02*
X84044761Y-125037186D01*
X76576667Y-106235772D02*
X76943334Y-106235772D01*
X77100477Y-106811962D02*
X76576667Y-106811962D01*
X76576667Y-106811962D02*
X76576667Y-105711962D01*
X76576667Y-105711962D02*
X77100477Y-105711962D01*
X77571905Y-106811962D02*
X77571905Y-106078629D01*
X77571905Y-105711962D02*
X77519524Y-105764343D01*
X77519524Y-105764343D02*
X77571905Y-105816724D01*
X77571905Y-105816724D02*
X77624286Y-105764343D01*
X77624286Y-105764343D02*
X77571905Y-105711962D01*
X77571905Y-105711962D02*
X77571905Y-105816724D01*
X78095715Y-106078629D02*
X78095715Y-106811962D01*
X78095715Y-106183391D02*
X78148096Y-106131010D01*
X78148096Y-106131010D02*
X78252858Y-106078629D01*
X78252858Y-106078629D02*
X78410001Y-106078629D01*
X78410001Y-106078629D02*
X78514763Y-106131010D01*
X78514763Y-106131010D02*
X78567144Y-106235772D01*
X78567144Y-106235772D02*
X78567144Y-106811962D01*
X79038572Y-106759582D02*
X79143334Y-106811962D01*
X79143334Y-106811962D02*
X79352858Y-106811962D01*
X79352858Y-106811962D02*
X79457620Y-106759582D01*
X79457620Y-106759582D02*
X79510001Y-106654820D01*
X79510001Y-106654820D02*
X79510001Y-106602439D01*
X79510001Y-106602439D02*
X79457620Y-106497677D01*
X79457620Y-106497677D02*
X79352858Y-106445296D01*
X79352858Y-106445296D02*
X79195715Y-106445296D01*
X79195715Y-106445296D02*
X79090953Y-106392915D01*
X79090953Y-106392915D02*
X79038572Y-106288153D01*
X79038572Y-106288153D02*
X79038572Y-106235772D01*
X79038572Y-106235772D02*
X79090953Y-106131010D01*
X79090953Y-106131010D02*
X79195715Y-106078629D01*
X79195715Y-106078629D02*
X79352858Y-106078629D01*
X79352858Y-106078629D02*
X79457620Y-106131010D01*
X79824286Y-106078629D02*
X80243334Y-106078629D01*
X79981429Y-105711962D02*
X79981429Y-106654820D01*
X79981429Y-106654820D02*
X80033810Y-106759582D01*
X80033810Y-106759582D02*
X80138572Y-106811962D01*
X80138572Y-106811962D02*
X80243334Y-106811962D01*
X81029048Y-106759582D02*
X80924286Y-106811962D01*
X80924286Y-106811962D02*
X80714762Y-106811962D01*
X80714762Y-106811962D02*
X80610000Y-106759582D01*
X80610000Y-106759582D02*
X80557619Y-106654820D01*
X80557619Y-106654820D02*
X80557619Y-106235772D01*
X80557619Y-106235772D02*
X80610000Y-106131010D01*
X80610000Y-106131010D02*
X80714762Y-106078629D01*
X80714762Y-106078629D02*
X80924286Y-106078629D01*
X80924286Y-106078629D02*
X81029048Y-106131010D01*
X81029048Y-106131010D02*
X81081429Y-106235772D01*
X81081429Y-106235772D02*
X81081429Y-106340534D01*
X81081429Y-106340534D02*
X80557619Y-106445296D01*
X81552857Y-106811962D02*
X81552857Y-106078629D01*
X81552857Y-105711962D02*
X81500476Y-105764343D01*
X81500476Y-105764343D02*
X81552857Y-105816724D01*
X81552857Y-105816724D02*
X81605238Y-105764343D01*
X81605238Y-105764343D02*
X81552857Y-105711962D01*
X81552857Y-105711962D02*
X81552857Y-105816724D01*
X82076667Y-106078629D02*
X82076667Y-106811962D01*
X82076667Y-106183391D02*
X82129048Y-106131010D01*
X82129048Y-106131010D02*
X82233810Y-106078629D01*
X82233810Y-106078629D02*
X82390953Y-106078629D01*
X82390953Y-106078629D02*
X82495715Y-106131010D01*
X82495715Y-106131010D02*
X82548096Y-106235772D01*
X82548096Y-106235772D02*
X82548096Y-106811962D01*
X83752857Y-105711962D02*
X84381429Y-105711962D01*
X84067143Y-106811962D02*
X84067143Y-105711962D01*
X85376667Y-106707201D02*
X85324286Y-106759582D01*
X85324286Y-106759582D02*
X85167143Y-106811962D01*
X85167143Y-106811962D02*
X85062381Y-106811962D01*
X85062381Y-106811962D02*
X84905238Y-106759582D01*
X84905238Y-106759582D02*
X84800476Y-106654820D01*
X84800476Y-106654820D02*
X84748095Y-106550058D01*
X84748095Y-106550058D02*
X84695714Y-106340534D01*
X84695714Y-106340534D02*
X84695714Y-106183391D01*
X84695714Y-106183391D02*
X84748095Y-105973867D01*
X84748095Y-105973867D02*
X84800476Y-105869105D01*
X84800476Y-105869105D02*
X84905238Y-105764343D01*
X84905238Y-105764343D02*
X85062381Y-105711962D01*
X85062381Y-105711962D02*
X85167143Y-105711962D01*
X85167143Y-105711962D02*
X85324286Y-105764343D01*
X85324286Y-105764343D02*
X85376667Y-105816724D01*
X85848095Y-106392915D02*
X86686191Y-106392915D01*
X87419524Y-105711962D02*
X87524286Y-105711962D01*
X87524286Y-105711962D02*
X87629048Y-105764343D01*
X87629048Y-105764343D02*
X87681429Y-105816724D01*
X87681429Y-105816724D02*
X87733810Y-105921486D01*
X87733810Y-105921486D02*
X87786191Y-106131010D01*
X87786191Y-106131010D02*
X87786191Y-106392915D01*
X87786191Y-106392915D02*
X87733810Y-106602439D01*
X87733810Y-106602439D02*
X87681429Y-106707201D01*
X87681429Y-106707201D02*
X87629048Y-106759582D01*
X87629048Y-106759582D02*
X87524286Y-106811962D01*
X87524286Y-106811962D02*
X87419524Y-106811962D01*
X87419524Y-106811962D02*
X87314762Y-106759582D01*
X87314762Y-106759582D02*
X87262381Y-106707201D01*
X87262381Y-106707201D02*
X87210000Y-106602439D01*
X87210000Y-106602439D02*
X87157619Y-106392915D01*
X87157619Y-106392915D02*
X87157619Y-106131010D01*
X87157619Y-106131010D02*
X87210000Y-105921486D01*
X87210000Y-105921486D02*
X87262381Y-105816724D01*
X87262381Y-105816724D02*
X87314762Y-105764343D01*
X87314762Y-105764343D02*
X87419524Y-105711962D01*
X88833810Y-106811962D02*
X88205238Y-106811962D01*
X88519524Y-106811962D02*
X88519524Y-105711962D01*
X88519524Y-105711962D02*
X88414762Y-105869105D01*
X88414762Y-105869105D02*
X88310000Y-105973867D01*
X88310000Y-105973867D02*
X88205238Y-106026248D01*
X89986190Y-106078629D02*
X90405238Y-106078629D01*
X90143333Y-105711962D02*
X90143333Y-106654820D01*
X90143333Y-106654820D02*
X90195714Y-106759582D01*
X90195714Y-106759582D02*
X90300476Y-106811962D01*
X90300476Y-106811962D02*
X90405238Y-106811962D01*
X90929047Y-106811962D02*
X90824285Y-106759582D01*
X90824285Y-106759582D02*
X90771904Y-106707201D01*
X90771904Y-106707201D02*
X90719523Y-106602439D01*
X90719523Y-106602439D02*
X90719523Y-106288153D01*
X90719523Y-106288153D02*
X90771904Y-106183391D01*
X90771904Y-106183391D02*
X90824285Y-106131010D01*
X90824285Y-106131010D02*
X90929047Y-106078629D01*
X90929047Y-106078629D02*
X91086190Y-106078629D01*
X91086190Y-106078629D02*
X91190952Y-106131010D01*
X91190952Y-106131010D02*
X91243333Y-106183391D01*
X91243333Y-106183391D02*
X91295714Y-106288153D01*
X91295714Y-106288153D02*
X91295714Y-106602439D01*
X91295714Y-106602439D02*
X91243333Y-106707201D01*
X91243333Y-106707201D02*
X91190952Y-106759582D01*
X91190952Y-106759582D02*
X91086190Y-106811962D01*
X91086190Y-106811962D02*
X90929047Y-106811962D01*
X74481430Y-107482900D02*
X75110002Y-107482900D01*
X74795716Y-108582900D02*
X74795716Y-107482900D01*
X75948097Y-108582900D02*
X75948097Y-108006710D01*
X75948097Y-108006710D02*
X75895716Y-107901948D01*
X75895716Y-107901948D02*
X75790954Y-107849567D01*
X75790954Y-107849567D02*
X75581430Y-107849567D01*
X75581430Y-107849567D02*
X75476668Y-107901948D01*
X75948097Y-108530520D02*
X75843335Y-108582900D01*
X75843335Y-108582900D02*
X75581430Y-108582900D01*
X75581430Y-108582900D02*
X75476668Y-108530520D01*
X75476668Y-108530520D02*
X75424287Y-108425758D01*
X75424287Y-108425758D02*
X75424287Y-108320996D01*
X75424287Y-108320996D02*
X75476668Y-108216234D01*
X75476668Y-108216234D02*
X75581430Y-108163853D01*
X75581430Y-108163853D02*
X75843335Y-108163853D01*
X75843335Y-108163853D02*
X75948097Y-108111472D01*
X76471906Y-107849567D02*
X76471906Y-108582900D01*
X76471906Y-107954329D02*
X76524287Y-107901948D01*
X76524287Y-107901948D02*
X76629049Y-107849567D01*
X76629049Y-107849567D02*
X76786192Y-107849567D01*
X76786192Y-107849567D02*
X76890954Y-107901948D01*
X76890954Y-107901948D02*
X76943335Y-108006710D01*
X76943335Y-108006710D02*
X76943335Y-108582900D01*
X77938573Y-108582900D02*
X77938573Y-107482900D01*
X77938573Y-108530520D02*
X77833811Y-108582900D01*
X77833811Y-108582900D02*
X77624287Y-108582900D01*
X77624287Y-108582900D02*
X77519525Y-108530520D01*
X77519525Y-108530520D02*
X77467144Y-108478139D01*
X77467144Y-108478139D02*
X77414763Y-108373377D01*
X77414763Y-108373377D02*
X77414763Y-108059091D01*
X77414763Y-108059091D02*
X77467144Y-107954329D01*
X77467144Y-107954329D02*
X77519525Y-107901948D01*
X77519525Y-107901948D02*
X77624287Y-107849567D01*
X77624287Y-107849567D02*
X77833811Y-107849567D01*
X77833811Y-107849567D02*
X77938573Y-107901948D01*
X78357620Y-107849567D02*
X78619525Y-108582900D01*
X78881430Y-107849567D02*
X78619525Y-108582900D01*
X78619525Y-108582900D02*
X78514763Y-108844805D01*
X78514763Y-108844805D02*
X78462382Y-108897186D01*
X78462382Y-108897186D02*
X78357620Y-108949567D01*
X80452858Y-107482900D02*
X80452858Y-108268615D01*
X80452858Y-108268615D02*
X80400477Y-108425758D01*
X80400477Y-108425758D02*
X80295715Y-108530520D01*
X80295715Y-108530520D02*
X80138572Y-108582900D01*
X80138572Y-108582900D02*
X80033810Y-108582900D01*
X81133810Y-108582900D02*
X81029048Y-108530520D01*
X81029048Y-108530520D02*
X80976667Y-108478139D01*
X80976667Y-108478139D02*
X80924286Y-108373377D01*
X80924286Y-108373377D02*
X80924286Y-108059091D01*
X80924286Y-108059091D02*
X80976667Y-107954329D01*
X80976667Y-107954329D02*
X81029048Y-107901948D01*
X81029048Y-107901948D02*
X81133810Y-107849567D01*
X81133810Y-107849567D02*
X81290953Y-107849567D01*
X81290953Y-107849567D02*
X81395715Y-107901948D01*
X81395715Y-107901948D02*
X81448096Y-107954329D01*
X81448096Y-107954329D02*
X81500477Y-108059091D01*
X81500477Y-108059091D02*
X81500477Y-108373377D01*
X81500477Y-108373377D02*
X81448096Y-108478139D01*
X81448096Y-108478139D02*
X81395715Y-108530520D01*
X81395715Y-108530520D02*
X81290953Y-108582900D01*
X81290953Y-108582900D02*
X81133810Y-108582900D01*
X81867143Y-107849567D02*
X82129048Y-108582900D01*
X82390953Y-107849567D02*
X82129048Y-108582900D01*
X82129048Y-108582900D02*
X82024286Y-108844805D01*
X82024286Y-108844805D02*
X81971905Y-108897186D01*
X81971905Y-108897186D02*
X81867143Y-108949567D01*
X82757619Y-108530520D02*
X82862381Y-108582900D01*
X82862381Y-108582900D02*
X83071905Y-108582900D01*
X83071905Y-108582900D02*
X83176667Y-108530520D01*
X83176667Y-108530520D02*
X83229048Y-108425758D01*
X83229048Y-108425758D02*
X83229048Y-108373377D01*
X83229048Y-108373377D02*
X83176667Y-108268615D01*
X83176667Y-108268615D02*
X83071905Y-108216234D01*
X83071905Y-108216234D02*
X82914762Y-108216234D01*
X82914762Y-108216234D02*
X82810000Y-108163853D01*
X82810000Y-108163853D02*
X82757619Y-108059091D01*
X82757619Y-108059091D02*
X82757619Y-108006710D01*
X82757619Y-108006710D02*
X82810000Y-107901948D01*
X82810000Y-107901948D02*
X82914762Y-107849567D01*
X82914762Y-107849567D02*
X83071905Y-107849567D01*
X83071905Y-107849567D02*
X83176667Y-107901948D01*
X83543333Y-107849567D02*
X83962381Y-107849567D01*
X83700476Y-107482900D02*
X83700476Y-108425758D01*
X83700476Y-108425758D02*
X83752857Y-108530520D01*
X83752857Y-108530520D02*
X83857619Y-108582900D01*
X83857619Y-108582900D02*
X83962381Y-108582900D01*
X84329047Y-108582900D02*
X84329047Y-107849567D01*
X84329047Y-107482900D02*
X84276666Y-107535281D01*
X84276666Y-107535281D02*
X84329047Y-107587662D01*
X84329047Y-107587662D02*
X84381428Y-107535281D01*
X84381428Y-107535281D02*
X84329047Y-107482900D01*
X84329047Y-107482900D02*
X84329047Y-107587662D01*
X85324286Y-108530520D02*
X85219524Y-108582900D01*
X85219524Y-108582900D02*
X85010000Y-108582900D01*
X85010000Y-108582900D02*
X84905238Y-108530520D01*
X84905238Y-108530520D02*
X84852857Y-108478139D01*
X84852857Y-108478139D02*
X84800476Y-108373377D01*
X84800476Y-108373377D02*
X84800476Y-108059091D01*
X84800476Y-108059091D02*
X84852857Y-107954329D01*
X84852857Y-107954329D02*
X84905238Y-107901948D01*
X84905238Y-107901948D02*
X85010000Y-107849567D01*
X85010000Y-107849567D02*
X85219524Y-107849567D01*
X85219524Y-107849567D02*
X85324286Y-107901948D01*
X85795714Y-108582900D02*
X85795714Y-107482900D01*
X85900476Y-108163853D02*
X86214762Y-108582900D01*
X86214762Y-107849567D02*
X85795714Y-108268615D01*
X87471904Y-108268615D02*
X87995714Y-108268615D01*
X87367142Y-108582900D02*
X87733809Y-107482900D01*
X87733809Y-107482900D02*
X88100476Y-108582900D01*
X88938571Y-108582900D02*
X88938571Y-107482900D01*
X88938571Y-108530520D02*
X88833809Y-108582900D01*
X88833809Y-108582900D02*
X88624285Y-108582900D01*
X88624285Y-108582900D02*
X88519523Y-108530520D01*
X88519523Y-108530520D02*
X88467142Y-108478139D01*
X88467142Y-108478139D02*
X88414761Y-108373377D01*
X88414761Y-108373377D02*
X88414761Y-108059091D01*
X88414761Y-108059091D02*
X88467142Y-107954329D01*
X88467142Y-107954329D02*
X88519523Y-107901948D01*
X88519523Y-107901948D02*
X88624285Y-107849567D01*
X88624285Y-107849567D02*
X88833809Y-107849567D01*
X88833809Y-107849567D02*
X88938571Y-107901948D01*
X89933809Y-108582900D02*
X89933809Y-108006710D01*
X89933809Y-108006710D02*
X89881428Y-107901948D01*
X89881428Y-107901948D02*
X89776666Y-107849567D01*
X89776666Y-107849567D02*
X89567142Y-107849567D01*
X89567142Y-107849567D02*
X89462380Y-107901948D01*
X89933809Y-108530520D02*
X89829047Y-108582900D01*
X89829047Y-108582900D02*
X89567142Y-108582900D01*
X89567142Y-108582900D02*
X89462380Y-108530520D01*
X89462380Y-108530520D02*
X89409999Y-108425758D01*
X89409999Y-108425758D02*
X89409999Y-108320996D01*
X89409999Y-108320996D02*
X89462380Y-108216234D01*
X89462380Y-108216234D02*
X89567142Y-108163853D01*
X89567142Y-108163853D02*
X89829047Y-108163853D01*
X89829047Y-108163853D02*
X89933809Y-108111472D01*
X90457618Y-107849567D02*
X90457618Y-108949567D01*
X90457618Y-107901948D02*
X90562380Y-107849567D01*
X90562380Y-107849567D02*
X90771904Y-107849567D01*
X90771904Y-107849567D02*
X90876666Y-107901948D01*
X90876666Y-107901948D02*
X90929047Y-107954329D01*
X90929047Y-107954329D02*
X90981428Y-108059091D01*
X90981428Y-108059091D02*
X90981428Y-108373377D01*
X90981428Y-108373377D02*
X90929047Y-108478139D01*
X90929047Y-108478139D02*
X90876666Y-108530520D01*
X90876666Y-108530520D02*
X90771904Y-108582900D01*
X90771904Y-108582900D02*
X90562380Y-108582900D01*
X90562380Y-108582900D02*
X90457618Y-108530520D01*
X91295713Y-107849567D02*
X91714761Y-107849567D01*
X91452856Y-107482900D02*
X91452856Y-108425758D01*
X91452856Y-108425758D02*
X91505237Y-108530520D01*
X91505237Y-108530520D02*
X91609999Y-108582900D01*
X91609999Y-108582900D02*
X91714761Y-108582900D01*
X92500475Y-108530520D02*
X92395713Y-108582900D01*
X92395713Y-108582900D02*
X92186189Y-108582900D01*
X92186189Y-108582900D02*
X92081427Y-108530520D01*
X92081427Y-108530520D02*
X92029046Y-108425758D01*
X92029046Y-108425758D02*
X92029046Y-108006710D01*
X92029046Y-108006710D02*
X92081427Y-107901948D01*
X92081427Y-107901948D02*
X92186189Y-107849567D01*
X92186189Y-107849567D02*
X92395713Y-107849567D01*
X92395713Y-107849567D02*
X92500475Y-107901948D01*
X92500475Y-107901948D02*
X92552856Y-108006710D01*
X92552856Y-108006710D02*
X92552856Y-108111472D01*
X92552856Y-108111472D02*
X92029046Y-108216234D01*
X93024284Y-108582900D02*
X93024284Y-107849567D01*
X93024284Y-108059091D02*
X93076665Y-107954329D01*
X93076665Y-107954329D02*
X93129046Y-107901948D01*
X93129046Y-107901948D02*
X93233808Y-107849567D01*
X93233808Y-107849567D02*
X93338570Y-107849567D01*
D11*
X86076666Y-111145180D02*
X85505238Y-111145180D01*
X85790952Y-110145180D02*
X85790952Y-111145180D01*
X85219523Y-110430895D02*
X84743333Y-110430895D01*
X85314761Y-110145180D02*
X84981428Y-111145180D01*
X84981428Y-111145180D02*
X84648095Y-110145180D01*
X84314761Y-110145180D02*
X84314761Y-111145180D01*
X84314761Y-111145180D02*
X83743333Y-110145180D01*
X83743333Y-110145180D02*
X83743333Y-111145180D01*
X83267142Y-110145180D02*
X83267142Y-111145180D01*
X83267142Y-111145180D02*
X83029047Y-111145180D01*
X83029047Y-111145180D02*
X82886190Y-111097561D01*
X82886190Y-111097561D02*
X82790952Y-111002323D01*
X82790952Y-111002323D02*
X82743333Y-110907085D01*
X82743333Y-110907085D02*
X82695714Y-110716609D01*
X82695714Y-110716609D02*
X82695714Y-110573752D01*
X82695714Y-110573752D02*
X82743333Y-110383276D01*
X82743333Y-110383276D02*
X82790952Y-110288038D01*
X82790952Y-110288038D02*
X82886190Y-110192800D01*
X82886190Y-110192800D02*
X83029047Y-110145180D01*
X83029047Y-110145180D02*
X83267142Y-110145180D01*
X82076666Y-110621371D02*
X82076666Y-110145180D01*
X82409999Y-111145180D02*
X82076666Y-110621371D01*
X82076666Y-110621371D02*
X81743333Y-111145180D01*
X80859022Y-103700942D02*
X81192723Y-103700942D01*
X81335737Y-104225329D02*
X80859022Y-104225329D01*
X80859022Y-104225329D02*
X80859022Y-103224227D01*
X80859022Y-103224227D02*
X81335737Y-103224227D01*
X81764781Y-104225329D02*
X81764781Y-103224227D01*
X82241496Y-104225329D02*
X82241496Y-103224227D01*
X82241496Y-103224227D02*
X82813554Y-104225329D01*
X82813554Y-104225329D02*
X82813554Y-103224227D01*
X83242599Y-104177658D02*
X83385613Y-104225329D01*
X83385613Y-104225329D02*
X83623971Y-104225329D01*
X83623971Y-104225329D02*
X83719314Y-104177658D01*
X83719314Y-104177658D02*
X83766985Y-104129986D01*
X83766985Y-104129986D02*
X83814657Y-104034643D01*
X83814657Y-104034643D02*
X83814657Y-103939300D01*
X83814657Y-103939300D02*
X83766985Y-103843957D01*
X83766985Y-103843957D02*
X83719314Y-103796285D01*
X83719314Y-103796285D02*
X83623971Y-103748614D01*
X83623971Y-103748614D02*
X83433285Y-103700942D01*
X83433285Y-103700942D02*
X83337942Y-103653271D01*
X83337942Y-103653271D02*
X83290270Y-103605599D01*
X83290270Y-103605599D02*
X83242599Y-103510256D01*
X83242599Y-103510256D02*
X83242599Y-103414913D01*
X83242599Y-103414913D02*
X83290270Y-103319570D01*
X83290270Y-103319570D02*
X83337942Y-103271899D01*
X83337942Y-103271899D02*
X83433285Y-103224227D01*
X83433285Y-103224227D02*
X83671642Y-103224227D01*
X83671642Y-103224227D02*
X83814657Y-103271899D01*
X84100686Y-103224227D02*
X84672744Y-103224227D01*
X84386715Y-104225329D02*
X84386715Y-103224227D01*
X85006444Y-103700942D02*
X85340145Y-103700942D01*
X85483159Y-104225329D02*
X85006444Y-104225329D01*
X85006444Y-104225329D02*
X85006444Y-103224227D01*
X85006444Y-103224227D02*
X85483159Y-103224227D01*
X85912203Y-104225329D02*
X85912203Y-103224227D01*
X86388918Y-104225329D02*
X86388918Y-103224227D01*
X86388918Y-103224227D02*
X86960976Y-104225329D01*
X86960976Y-104225329D02*
X86960976Y-103224227D01*
D12*
%TO.C,M2*%
X92880000Y-119920000D02*
X92880000Y-130720000D01*
X92880000Y-116520000D02*
X92880000Y-112120000D01*
X92880000Y-112120000D02*
X86180000Y-112120000D01*
X81880000Y-112120000D02*
X75080000Y-112120000D01*
X75080000Y-119920000D02*
X75080000Y-130920000D01*
X75080000Y-112120000D02*
X75080000Y-116720000D01*
%TO.C,M1*%
X73750000Y-102755000D02*
X73750000Y-81525000D01*
X94060000Y-81475000D02*
X94060000Y-102755000D01*
X94060000Y-102755000D02*
X73750000Y-102755000D01*
%TD*%
M02*
