M48
; DRILL file {KiCad 9.0.7} date 2026-02-22T23:56:07+0000
; FORMAT={-:-/ absolute / inch / decimal}
; #@! TF.CreationDate,2026-02-22T23:56:07+00:00
; #@! TF.GenerationSoftware,Kicad,Pcbnew,9.0.7
; #@! TF.FileFunction,Plated,1,2,PTH
FMAT,2
INCH
; #@! TA.AperFunction,Plated,PTH,ComponentDrill
T1C0.0591
; #@! TA.AperFunction,Plated,PTH,ComponentDrill
T2C0.0610
; #@! TA.AperFunction,Plated,PTH,ComponentDrill
T3C0.0728
; #@! TA.AperFunction,Plated,PTH,ComponentDrill
T4C0.0906
%
G90
G05
T1
X3.0094Y-4.6504
X3.1094Y-4.5504
X3.3094Y-4.4504
X3.3094Y-4.6504
X3.5094Y-4.5504
X3.6094Y-4.6504
T2
X3.0098Y-3.6959
X3.0098Y-3.7943
X3.0098Y-3.8935
X3.1083Y-3.6959
X3.1083Y-3.7943
X3.1083Y-3.9911
X3.2067Y-3.7943
X3.2067Y-3.888
X3.3051Y-3.6959
X3.3051Y-3.9911
X3.4035Y-3.7943
X3.4043Y-3.888
X3.502Y-3.6959
X3.502Y-3.7943
X3.502Y-3.9911
X3.6004Y-3.6959
X3.6004Y-3.7943
X3.6004Y-3.8927
T3
X3.1083Y-3.3022
X3.2067Y-3.3022
X3.4035Y-3.3022
X3.502Y-3.3022
T4
X3.1055Y-5.052
X3.2067Y-5.052
X3.4059Y-5.052
X3.5071Y-5.052
M30
