M48
; DRILL file {KiCad 9.0.3} date 2025-11-18T23:41:25+0000
; FORMAT={-:-/ absolute / inch / decimal}
; #@! TF.CreationDate,2025-11-18T23:41:25+00:00
; #@! TF.GenerationSoftware,Kicad,Pcbnew,9.0.3
; #@! TF.FileFunction,Plated,1,2,PTH
FMAT,2
INCH
; #@! TA.AperFunction,Plated,PTH,ComponentDrill
T1C0.0276
; #@! TA.AperFunction,Plated,PTH,ComponentDrill
T2C0.0315
; #@! TA.AperFunction,Plated,PTH,ComponentDrill
T3C0.0354
; #@! TA.AperFunction,Plated,PTH,ComponentDrill
T4C0.0394
; #@! TA.AperFunction,Plated,PTH,ComponentDrill
T5C0.0472
%
G90
G05
T1
X7.8421Y-3.1035
X7.8421Y-3.5035
X8.763Y-4.1742
X8.7642Y-4.2927
X8.7642Y-4.6927
X8.8827Y-4.2927
X8.8827Y-4.6927
X9.163Y-4.1742
T2
X6.672Y-4.0252
X6.6791Y-4.1331
X6.6791Y-4.7331
X6.772Y-4.0252
X6.7791Y-4.1331
X6.7791Y-4.7331
X6.8791Y-4.1331
X6.8791Y-4.7331
X6.9791Y-4.1331
X6.9791Y-4.7331
X7.0791Y-4.1331
X7.0791Y-4.7331
X7.1791Y-4.1331
X7.1791Y-4.7331
X7.2791Y-4.1331
X7.2791Y-4.7331
X7.2992Y-3.7248
X7.2992Y-3.9264
X7.3791Y-4.1331
X7.3791Y-4.7331
X7.3992Y-3.7248
X7.3992Y-3.9264
X7.4791Y-4.1331
X7.4791Y-4.7331
X7.5791Y-4.1331
X7.5791Y-4.7331
X7.5882Y-3.7256
X7.5882Y-3.9256
X7.6791Y-4.1331
X7.6791Y-4.7331
X7.7791Y-4.1331
X7.7791Y-4.7331
X7.8646Y-3.6803
X7.8646Y-3.9803
X7.8791Y-4.1331
X7.8791Y-4.7331
X7.9646Y-3.6803
X7.9646Y-3.9803
X7.9791Y-4.1331
X7.9791Y-4.7331
X8.0646Y-3.6803
X8.0646Y-3.9803
X8.0791Y-4.1331
X8.0791Y-4.7331
X8.1646Y-3.6803
X8.1646Y-3.9803
X8.1791Y-4.1331
X8.1791Y-4.7331
X8.2646Y-3.6803
X8.2646Y-3.9803
X8.2791Y-4.1331
X8.2791Y-4.7331
X8.3646Y-3.6803
X8.3646Y-3.9803
X8.3791Y-4.1331
X8.3791Y-4.7331
X8.4646Y-3.6803
X8.4646Y-3.9803
X8.4791Y-4.1331
X8.4791Y-4.7331
X8.5646Y-3.6803
X8.5646Y-3.9803
X8.5791Y-4.1331
X8.5791Y-4.7331
X8.6646Y-3.6803
X8.6646Y-3.9803
X8.7646Y-3.6803
X8.7646Y-3.9803
X8.8646Y-3.6803
X8.8646Y-3.9803
X8.9646Y-3.6803
X8.9646Y-3.9803
X9.0146Y-4.4667
X9.0146Y-4.7565
X9.0146Y-5.0474
X9.0646Y-3.6803
X9.0646Y-3.9803
X9.1146Y-4.3667
X9.1146Y-4.6565
X9.1146Y-4.9474
X9.1646Y-3.6803
X9.1646Y-3.9803
X9.2146Y-4.4667
X9.2146Y-4.7565
X9.2146Y-5.0474
T3
X7.435Y-3.2957
X7.535Y-3.2957
T4
X6.7571Y-5.0827
X6.8571Y-5.0827
X6.9571Y-5.0827
X7.0571Y-5.0827
X7.1571Y-5.0827
X7.2571Y-5.0827
X7.3571Y-5.0827
X7.4571Y-5.0827
X7.5571Y-5.0827
X7.6571Y-5.0827
X7.7571Y-5.0827
X7.8571Y-5.0827
X7.9571Y-5.0827
X8.0571Y-5.0827
X8.1571Y-5.0827
X8.2571Y-5.0827
X8.3571Y-5.0827
X8.4571Y-5.0827
X8.5571Y-5.0827
X8.6571Y-5.0827
X8.7386Y-3.2008
X8.7386Y-3.2992
T5
X6.7728Y-4.9843
X6.7728Y-5.1811
X6.8713Y-4.9843
X6.8713Y-5.1811
X6.9697Y-4.9843
X6.9697Y-5.1811
X7.0681Y-4.9843
X7.0681Y-5.1811
X7.1665Y-4.9843
X7.1665Y-5.1811
X7.265Y-4.9843
X7.265Y-5.1811
X7.3634Y-4.9843
X7.3634Y-5.1811
X7.4618Y-4.9843
X7.4618Y-5.1811
X7.5602Y-4.9843
X7.5602Y-5.1811
X7.6587Y-4.9843
X7.6587Y-5.1811
X7.7571Y-4.9843
X7.7571Y-5.1811
X7.8555Y-4.9843
X7.8555Y-5.1811
X7.9539Y-4.9843
X7.9539Y-5.1811
X8.0524Y-4.9843
X8.0524Y-5.1811
X8.1157Y-3.3858
X8.1157Y-3.4961
X8.1508Y-4.9843
X8.1508Y-5.1811
X8.1984Y-3.3858
X8.2492Y-4.9843
X8.2492Y-5.1811
X8.3008Y-3.3858
X8.3476Y-4.9843
X8.3476Y-5.1811
X8.3835Y-3.3858
X8.3835Y-3.4961
X8.4461Y-4.9843
X8.4461Y-5.1811
X8.5429Y-4.9843
X8.5429Y-5.1811
X8.6429Y-4.9843
X8.6429Y-5.1811
T4
G00X6.7252Y-3.4315
M15
G01X6.7252Y-3.5102
M16
G05
G00X6.9496Y-3.3528
M15
G01X6.8709Y-3.3528
M16
G05
G00X6.9496Y-3.589
M15
G01X6.8709Y-3.589
M16
G05
G00X7.9799Y-3.3031
M15
G01X7.9799Y-3.2441
M16
G05
G00X8.289Y-3.2421
M15
G01X8.2102Y-3.2421
M16
G05
G00X8.5193Y-3.3031
M15
G01X8.5193Y-3.2441
M16
G05
M30
