%TF.GenerationSoftware,KiCad,Pcbnew,9.0.3*%
%TF.CreationDate,2025-11-18T23:41:28+00:00*%
%TF.ProjectId,EinsteinTC01PS2Mini,45696e73-7465-4696-9e54-433031505332,rev?*%
%TF.SameCoordinates,Original*%
%TF.FileFunction,Legend,Bot*%
%TF.FilePolarity,Positive*%
%FSLAX46Y46*%
G04 Gerber Fmt 4.6, Leading zero omitted, Abs format (unit mm)*
G04 Created by KiCad (PCBNEW 9.0.3) date 2025-11-18 23:41:28*
%MOMM*%
%LPD*%
G01*
G04 APERTURE LIST*
%ADD10C,0.300000*%
G04 APERTURE END LIST*
D10*
X234326917Y-136136542D02*
X234398346Y-136065114D01*
X234398346Y-136065114D02*
X234541203Y-135993685D01*
X234541203Y-135993685D02*
X234684060Y-135993685D01*
X234684060Y-135993685D02*
X234826917Y-136065114D01*
X234826917Y-136065114D02*
X234898346Y-136136542D01*
X234898346Y-136136542D02*
X234969774Y-136279400D01*
X234969774Y-136279400D02*
X234969774Y-136422257D01*
X234969774Y-136422257D02*
X234898346Y-136565114D01*
X234898346Y-136565114D02*
X234826917Y-136636542D01*
X234826917Y-136636542D02*
X234684060Y-136707971D01*
X234684060Y-136707971D02*
X234541203Y-136707971D01*
X234541203Y-136707971D02*
X234398346Y-136636542D01*
X234398346Y-136636542D02*
X234326917Y-136565114D01*
X234326917Y-135993685D02*
X234326917Y-136565114D01*
X234326917Y-136565114D02*
X234255489Y-136636542D01*
X234255489Y-136636542D02*
X234184060Y-136636542D01*
X234184060Y-136636542D02*
X234041203Y-136565114D01*
X234041203Y-136565114D02*
X233969774Y-136422257D01*
X233969774Y-136422257D02*
X233969774Y-136065114D01*
X233969774Y-136065114D02*
X234112632Y-135850828D01*
X234112632Y-135850828D02*
X234326917Y-135707971D01*
X234326917Y-135707971D02*
X234612632Y-135636542D01*
X234612632Y-135636542D02*
X234898346Y-135707971D01*
X234898346Y-135707971D02*
X235112632Y-135850828D01*
X235112632Y-135850828D02*
X235255489Y-136065114D01*
X235255489Y-136065114D02*
X235326917Y-136350828D01*
X235326917Y-136350828D02*
X235255489Y-136636542D01*
X235255489Y-136636542D02*
X235112632Y-136850828D01*
X235112632Y-136850828D02*
X234898346Y-136993685D01*
X234898346Y-136993685D02*
X234612632Y-137065114D01*
X234612632Y-137065114D02*
X234326917Y-136993685D01*
X234326917Y-136993685D02*
X234112632Y-136850828D01*
X232684061Y-135850828D02*
X232684061Y-137065114D01*
X232684061Y-137065114D02*
X232755489Y-137207971D01*
X232755489Y-137207971D02*
X232826918Y-137279400D01*
X232826918Y-137279400D02*
X232969775Y-137350828D01*
X232969775Y-137350828D02*
X233184061Y-137350828D01*
X233184061Y-137350828D02*
X233326918Y-137279400D01*
X232684061Y-136779400D02*
X232826918Y-136850828D01*
X232826918Y-136850828D02*
X233112632Y-136850828D01*
X233112632Y-136850828D02*
X233255489Y-136779400D01*
X233255489Y-136779400D02*
X233326918Y-136707971D01*
X233326918Y-136707971D02*
X233398346Y-136565114D01*
X233398346Y-136565114D02*
X233398346Y-136136542D01*
X233398346Y-136136542D02*
X233326918Y-135993685D01*
X233326918Y-135993685D02*
X233255489Y-135922257D01*
X233255489Y-135922257D02*
X233112632Y-135850828D01*
X233112632Y-135850828D02*
X232826918Y-135850828D01*
X232826918Y-135850828D02*
X232684061Y-135922257D01*
X231969775Y-136850828D02*
X231969775Y-135850828D01*
X231969775Y-136136542D02*
X231898346Y-135993685D01*
X231898346Y-135993685D02*
X231826918Y-135922257D01*
X231826918Y-135922257D02*
X231684060Y-135850828D01*
X231684060Y-135850828D02*
X231541203Y-135850828D01*
X230398347Y-136850828D02*
X230398347Y-136065114D01*
X230398347Y-136065114D02*
X230469775Y-135922257D01*
X230469775Y-135922257D02*
X230612632Y-135850828D01*
X230612632Y-135850828D02*
X230898347Y-135850828D01*
X230898347Y-135850828D02*
X231041204Y-135922257D01*
X230398347Y-136779400D02*
X230541204Y-136850828D01*
X230541204Y-136850828D02*
X230898347Y-136850828D01*
X230898347Y-136850828D02*
X231041204Y-136779400D01*
X231041204Y-136779400D02*
X231112632Y-136636542D01*
X231112632Y-136636542D02*
X231112632Y-136493685D01*
X231112632Y-136493685D02*
X231041204Y-136350828D01*
X231041204Y-136350828D02*
X230898347Y-136279400D01*
X230898347Y-136279400D02*
X230541204Y-136279400D01*
X230541204Y-136279400D02*
X230398347Y-136207971D01*
X229684061Y-135850828D02*
X229684061Y-136850828D01*
X229684061Y-135993685D02*
X229612632Y-135922257D01*
X229612632Y-135922257D02*
X229469775Y-135850828D01*
X229469775Y-135850828D02*
X229255489Y-135850828D01*
X229255489Y-135850828D02*
X229112632Y-135922257D01*
X229112632Y-135922257D02*
X229041204Y-136065114D01*
X229041204Y-136065114D02*
X229041204Y-136850828D01*
X227684061Y-136850828D02*
X227684061Y-135350828D01*
X227684061Y-136779400D02*
X227826918Y-136850828D01*
X227826918Y-136850828D02*
X228112632Y-136850828D01*
X228112632Y-136850828D02*
X228255489Y-136779400D01*
X228255489Y-136779400D02*
X228326918Y-136707971D01*
X228326918Y-136707971D02*
X228398346Y-136565114D01*
X228398346Y-136565114D02*
X228398346Y-136136542D01*
X228398346Y-136136542D02*
X228326918Y-135993685D01*
X228326918Y-135993685D02*
X228255489Y-135922257D01*
X228255489Y-135922257D02*
X228112632Y-135850828D01*
X228112632Y-135850828D02*
X227826918Y-135850828D01*
X227826918Y-135850828D02*
X227684061Y-135922257D01*
X226755489Y-136850828D02*
X226898346Y-136779400D01*
X226898346Y-136779400D02*
X226969775Y-136707971D01*
X226969775Y-136707971D02*
X227041203Y-136565114D01*
X227041203Y-136565114D02*
X227041203Y-136136542D01*
X227041203Y-136136542D02*
X226969775Y-135993685D01*
X226969775Y-135993685D02*
X226898346Y-135922257D01*
X226898346Y-135922257D02*
X226755489Y-135850828D01*
X226755489Y-135850828D02*
X226541203Y-135850828D01*
X226541203Y-135850828D02*
X226398346Y-135922257D01*
X226398346Y-135922257D02*
X226326918Y-135993685D01*
X226326918Y-135993685D02*
X226255489Y-136136542D01*
X226255489Y-136136542D02*
X226255489Y-136565114D01*
X226255489Y-136565114D02*
X226326918Y-136707971D01*
X226326918Y-136707971D02*
X226398346Y-136779400D01*
X226398346Y-136779400D02*
X226541203Y-136850828D01*
X226541203Y-136850828D02*
X226755489Y-136850828D01*
X225398346Y-136850828D02*
X225541203Y-136779400D01*
X225541203Y-136779400D02*
X225612632Y-136636542D01*
X225612632Y-136636542D02*
X225612632Y-135350828D01*
X224184061Y-136850828D02*
X224184061Y-135350828D01*
X224184061Y-136779400D02*
X224326918Y-136850828D01*
X224326918Y-136850828D02*
X224612632Y-136850828D01*
X224612632Y-136850828D02*
X224755489Y-136779400D01*
X224755489Y-136779400D02*
X224826918Y-136707971D01*
X224826918Y-136707971D02*
X224898346Y-136565114D01*
X224898346Y-136565114D02*
X224898346Y-136136542D01*
X224898346Y-136136542D02*
X224826918Y-135993685D01*
X224826918Y-135993685D02*
X224755489Y-135922257D01*
X224755489Y-135922257D02*
X224612632Y-135850828D01*
X224612632Y-135850828D02*
X224326918Y-135850828D01*
X224326918Y-135850828D02*
X224184061Y-135922257D01*
X223469775Y-136850828D02*
X223469775Y-135850828D01*
X223469775Y-135350828D02*
X223541203Y-135422257D01*
X223541203Y-135422257D02*
X223469775Y-135493685D01*
X223469775Y-135493685D02*
X223398346Y-135422257D01*
X223398346Y-135422257D02*
X223469775Y-135350828D01*
X223469775Y-135350828D02*
X223469775Y-135493685D01*
X222112632Y-136850828D02*
X222112632Y-136065114D01*
X222112632Y-136065114D02*
X222184060Y-135922257D01*
X222184060Y-135922257D02*
X222326917Y-135850828D01*
X222326917Y-135850828D02*
X222612632Y-135850828D01*
X222612632Y-135850828D02*
X222755489Y-135922257D01*
X222112632Y-136779400D02*
X222255489Y-136850828D01*
X222255489Y-136850828D02*
X222612632Y-136850828D01*
X222612632Y-136850828D02*
X222755489Y-136779400D01*
X222755489Y-136779400D02*
X222826917Y-136636542D01*
X222826917Y-136636542D02*
X222826917Y-136493685D01*
X222826917Y-136493685D02*
X222755489Y-136350828D01*
X222755489Y-136350828D02*
X222612632Y-136279400D01*
X222612632Y-136279400D02*
X222255489Y-136279400D01*
X222255489Y-136279400D02*
X222112632Y-136207971D01*
X221398346Y-135850828D02*
X221398346Y-136850828D01*
X221398346Y-135993685D02*
X221326917Y-135922257D01*
X221326917Y-135922257D02*
X221184060Y-135850828D01*
X221184060Y-135850828D02*
X220969774Y-135850828D01*
X220969774Y-135850828D02*
X220826917Y-135922257D01*
X220826917Y-135922257D02*
X220755489Y-136065114D01*
X220755489Y-136065114D02*
X220755489Y-136850828D01*
X218112631Y-136850828D02*
X218969774Y-136850828D01*
X218541203Y-136850828D02*
X218541203Y-135350828D01*
X218541203Y-135350828D02*
X218684060Y-135565114D01*
X218684060Y-135565114D02*
X218826917Y-135707971D01*
X218826917Y-135707971D02*
X218969774Y-135779400D01*
X216684060Y-136850828D02*
X217541203Y-136850828D01*
X217112632Y-136850828D02*
X217112632Y-135350828D01*
X217112632Y-135350828D02*
X217255489Y-135565114D01*
X217255489Y-135565114D02*
X217398346Y-135707971D01*
X217398346Y-135707971D02*
X217541203Y-135779400D01*
X214969775Y-135279400D02*
X216255489Y-137207971D01*
X214541203Y-135493685D02*
X214469775Y-135422257D01*
X214469775Y-135422257D02*
X214326918Y-135350828D01*
X214326918Y-135350828D02*
X213969775Y-135350828D01*
X213969775Y-135350828D02*
X213826918Y-135422257D01*
X213826918Y-135422257D02*
X213755489Y-135493685D01*
X213755489Y-135493685D02*
X213684060Y-135636542D01*
X213684060Y-135636542D02*
X213684060Y-135779400D01*
X213684060Y-135779400D02*
X213755489Y-135993685D01*
X213755489Y-135993685D02*
X214612632Y-136850828D01*
X214612632Y-136850828D02*
X213684060Y-136850828D01*
X212755489Y-135350828D02*
X212612632Y-135350828D01*
X212612632Y-135350828D02*
X212469775Y-135422257D01*
X212469775Y-135422257D02*
X212398347Y-135493685D01*
X212398347Y-135493685D02*
X212326918Y-135636542D01*
X212326918Y-135636542D02*
X212255489Y-135922257D01*
X212255489Y-135922257D02*
X212255489Y-136279400D01*
X212255489Y-136279400D02*
X212326918Y-136565114D01*
X212326918Y-136565114D02*
X212398347Y-136707971D01*
X212398347Y-136707971D02*
X212469775Y-136779400D01*
X212469775Y-136779400D02*
X212612632Y-136850828D01*
X212612632Y-136850828D02*
X212755489Y-136850828D01*
X212755489Y-136850828D02*
X212898347Y-136779400D01*
X212898347Y-136779400D02*
X212969775Y-136707971D01*
X212969775Y-136707971D02*
X213041204Y-136565114D01*
X213041204Y-136565114D02*
X213112632Y-136279400D01*
X213112632Y-136279400D02*
X213112632Y-135922257D01*
X213112632Y-135922257D02*
X213041204Y-135636542D01*
X213041204Y-135636542D02*
X212969775Y-135493685D01*
X212969775Y-135493685D02*
X212898347Y-135422257D01*
X212898347Y-135422257D02*
X212755489Y-135350828D01*
X211684061Y-135493685D02*
X211612633Y-135422257D01*
X211612633Y-135422257D02*
X211469776Y-135350828D01*
X211469776Y-135350828D02*
X211112633Y-135350828D01*
X211112633Y-135350828D02*
X210969776Y-135422257D01*
X210969776Y-135422257D02*
X210898347Y-135493685D01*
X210898347Y-135493685D02*
X210826918Y-135636542D01*
X210826918Y-135636542D02*
X210826918Y-135779400D01*
X210826918Y-135779400D02*
X210898347Y-135993685D01*
X210898347Y-135993685D02*
X211755490Y-136850828D01*
X211755490Y-136850828D02*
X210826918Y-136850828D01*
X209469776Y-135350828D02*
X210184062Y-135350828D01*
X210184062Y-135350828D02*
X210255490Y-136065114D01*
X210255490Y-136065114D02*
X210184062Y-135993685D01*
X210184062Y-135993685D02*
X210041205Y-135922257D01*
X210041205Y-135922257D02*
X209684062Y-135922257D01*
X209684062Y-135922257D02*
X209541205Y-135993685D01*
X209541205Y-135993685D02*
X209469776Y-136065114D01*
X209469776Y-136065114D02*
X209398347Y-136207971D01*
X209398347Y-136207971D02*
X209398347Y-136565114D01*
X209398347Y-136565114D02*
X209469776Y-136707971D01*
X209469776Y-136707971D02*
X209541205Y-136779400D01*
X209541205Y-136779400D02*
X209684062Y-136850828D01*
X209684062Y-136850828D02*
X210041205Y-136850828D01*
X210041205Y-136850828D02*
X210184062Y-136779400D01*
X210184062Y-136779400D02*
X210255490Y-136707971D01*
M02*
