%TF.GenerationSoftware,KiCad,Pcbnew,9.0.3*%
%TF.CreationDate,2025-11-18T23:41:25+00:00*%
%TF.ProjectId,EinsteinTC01PS2Mini,45696e73-7465-4696-9e54-433031505332,rev?*%
%TF.SameCoordinates,Original*%
%TF.FileFunction,Drillmap*%
%TF.FilePolarity,Positive*%
%FSLAX45Y45*%
G04 Gerber Fmt 4.5, Leading zero omitted, Abs format (unit mm)*
G04 Created by KiCad (PCBNEW 9.0.3) date 2025-11-18 23:41:25*
%MOMM*%
%LPD*%
G01*
G04 APERTURE LIST*
%ADD10C,0.150000*%
%ADD11C,0.100000*%
%ADD12C,0.200000*%
%ADD13C,0.120000*%
G04 APERTURE END LIST*
D10*
X18663000Y-8119000D02*
G75*
G02*
X18263000Y-8119000I-200000J0D01*
G01*
X18263000Y-8119000D02*
G75*
G02*
X18663000Y-8119000I200000J0D01*
G01*
D11*
X22566000Y-8818000D02*
X23555998Y-8818000D01*
X16696609Y-7830004D02*
G75*
G02*
X16810613Y-7716000I114000J4D01*
G01*
X23671000Y-8932000D02*
X23671000Y-13692000D01*
X16810613Y-7716000D02*
X22452000Y-7716000D01*
X23556996Y-8817996D02*
G75*
G02*
X23671000Y-8932000I4J-114000D01*
G01*
X22566000Y-7830004D02*
X22566000Y-8818000D01*
X22452000Y-7716000D02*
G75*
G02*
X22566004Y-7830004I4J-114000D01*
G01*
X16696000Y-13692000D02*
X16696609Y-7830007D01*
X16810004Y-13806004D02*
G75*
G02*
X16695996Y-13692000I-4J114004D01*
G01*
X23557000Y-13806000D02*
X16810000Y-13806000D01*
X23671000Y-13691996D02*
G75*
G02*
X23556996Y-13805996I-114000J0D01*
G01*
D12*
D13*
X22336000Y-8480000D02*
X22456000Y-8600000D01*
X22456000Y-8480000D02*
X22336000Y-8600000D01*
D12*
X16951777Y-14122488D02*
X16951777Y-13922488D01*
X16951777Y-13922488D02*
X16999396Y-13922488D01*
X16999396Y-13922488D02*
X17027967Y-13932012D01*
X17027967Y-13932012D02*
X17047015Y-13951060D01*
X17047015Y-13951060D02*
X17056539Y-13970107D01*
X17056539Y-13970107D02*
X17066063Y-14008202D01*
X17066063Y-14008202D02*
X17066063Y-14036774D01*
X17066063Y-14036774D02*
X17056539Y-14074869D01*
X17056539Y-14074869D02*
X17047015Y-14093917D01*
X17047015Y-14093917D02*
X17027967Y-14112964D01*
X17027967Y-14112964D02*
X16999396Y-14122488D01*
X16999396Y-14122488D02*
X16951777Y-14122488D01*
X17151777Y-14122488D02*
X17151777Y-13989155D01*
X17151777Y-14027250D02*
X17161301Y-14008202D01*
X17161301Y-14008202D02*
X17170824Y-13998679D01*
X17170824Y-13998679D02*
X17189872Y-13989155D01*
X17189872Y-13989155D02*
X17208920Y-13989155D01*
X17275586Y-14122488D02*
X17275586Y-13989155D01*
X17275586Y-13922488D02*
X17266063Y-13932012D01*
X17266063Y-13932012D02*
X17275586Y-13941536D01*
X17275586Y-13941536D02*
X17285110Y-13932012D01*
X17285110Y-13932012D02*
X17275586Y-13922488D01*
X17275586Y-13922488D02*
X17275586Y-13941536D01*
X17399396Y-14122488D02*
X17380348Y-14112964D01*
X17380348Y-14112964D02*
X17370824Y-14093917D01*
X17370824Y-14093917D02*
X17370824Y-13922488D01*
X17504158Y-14122488D02*
X17485110Y-14112964D01*
X17485110Y-14112964D02*
X17475586Y-14093917D01*
X17475586Y-14093917D02*
X17475586Y-13922488D01*
X17732729Y-14122488D02*
X17732729Y-13922488D01*
X17732729Y-13922488D02*
X17799396Y-14065345D01*
X17799396Y-14065345D02*
X17866063Y-13922488D01*
X17866063Y-13922488D02*
X17866063Y-14122488D01*
X18047015Y-14122488D02*
X18047015Y-14017726D01*
X18047015Y-14017726D02*
X18037491Y-13998679D01*
X18037491Y-13998679D02*
X18018444Y-13989155D01*
X18018444Y-13989155D02*
X17980348Y-13989155D01*
X17980348Y-13989155D02*
X17961301Y-13998679D01*
X18047015Y-14112964D02*
X18027967Y-14122488D01*
X18027967Y-14122488D02*
X17980348Y-14122488D01*
X17980348Y-14122488D02*
X17961301Y-14112964D01*
X17961301Y-14112964D02*
X17951777Y-14093917D01*
X17951777Y-14093917D02*
X17951777Y-14074869D01*
X17951777Y-14074869D02*
X17961301Y-14055821D01*
X17961301Y-14055821D02*
X17980348Y-14046298D01*
X17980348Y-14046298D02*
X18027967Y-14046298D01*
X18027967Y-14046298D02*
X18047015Y-14036774D01*
X18142253Y-13989155D02*
X18142253Y-14189155D01*
X18142253Y-13998679D02*
X18161301Y-13989155D01*
X18161301Y-13989155D02*
X18199396Y-13989155D01*
X18199396Y-13989155D02*
X18218444Y-13998679D01*
X18218444Y-13998679D02*
X18227967Y-14008202D01*
X18227967Y-14008202D02*
X18237491Y-14027250D01*
X18237491Y-14027250D02*
X18237491Y-14084393D01*
X18237491Y-14084393D02*
X18227967Y-14103440D01*
X18227967Y-14103440D02*
X18218444Y-14112964D01*
X18218444Y-14112964D02*
X18199396Y-14122488D01*
X18199396Y-14122488D02*
X18161301Y-14122488D01*
X18161301Y-14122488D02*
X18142253Y-14112964D01*
X18323205Y-14103440D02*
X18332729Y-14112964D01*
X18332729Y-14112964D02*
X18323205Y-14122488D01*
X18323205Y-14122488D02*
X18313682Y-14112964D01*
X18313682Y-14112964D02*
X18323205Y-14103440D01*
X18323205Y-14103440D02*
X18323205Y-14122488D01*
X18323205Y-13998679D02*
X18332729Y-14008202D01*
X18332729Y-14008202D02*
X18323205Y-14017726D01*
X18323205Y-14017726D02*
X18313682Y-14008202D01*
X18313682Y-14008202D02*
X18323205Y-13998679D01*
X18323205Y-13998679D02*
X18323205Y-14017726D01*
D13*
X16571000Y-14391004D02*
X16691000Y-14511004D01*
X16691000Y-14391004D02*
X16571000Y-14511004D01*
D12*
X17056539Y-14542488D02*
X16942253Y-14542488D01*
X16999396Y-14542488D02*
X16999396Y-14342488D01*
X16999396Y-14342488D02*
X16980348Y-14371060D01*
X16980348Y-14371060D02*
X16961301Y-14390107D01*
X16961301Y-14390107D02*
X16942253Y-14399631D01*
X17142253Y-14523440D02*
X17151777Y-14532964D01*
X17151777Y-14532964D02*
X17142253Y-14542488D01*
X17142253Y-14542488D02*
X17132729Y-14532964D01*
X17132729Y-14532964D02*
X17142253Y-14523440D01*
X17142253Y-14523440D02*
X17142253Y-14542488D01*
X17227967Y-14361536D02*
X17237491Y-14352012D01*
X17237491Y-14352012D02*
X17256539Y-14342488D01*
X17256539Y-14342488D02*
X17304158Y-14342488D01*
X17304158Y-14342488D02*
X17323205Y-14352012D01*
X17323205Y-14352012D02*
X17332729Y-14361536D01*
X17332729Y-14361536D02*
X17342253Y-14380583D01*
X17342253Y-14380583D02*
X17342253Y-14399631D01*
X17342253Y-14399631D02*
X17332729Y-14428202D01*
X17332729Y-14428202D02*
X17218444Y-14542488D01*
X17218444Y-14542488D02*
X17342253Y-14542488D01*
X17466063Y-14342488D02*
X17485110Y-14342488D01*
X17485110Y-14342488D02*
X17504158Y-14352012D01*
X17504158Y-14352012D02*
X17513682Y-14361536D01*
X17513682Y-14361536D02*
X17523205Y-14380583D01*
X17523205Y-14380583D02*
X17532729Y-14418679D01*
X17532729Y-14418679D02*
X17532729Y-14466298D01*
X17532729Y-14466298D02*
X17523205Y-14504393D01*
X17523205Y-14504393D02*
X17513682Y-14523440D01*
X17513682Y-14523440D02*
X17504158Y-14532964D01*
X17504158Y-14532964D02*
X17485110Y-14542488D01*
X17485110Y-14542488D02*
X17466063Y-14542488D01*
X17466063Y-14542488D02*
X17447015Y-14532964D01*
X17447015Y-14532964D02*
X17437491Y-14523440D01*
X17437491Y-14523440D02*
X17427967Y-14504393D01*
X17427967Y-14504393D02*
X17418444Y-14466298D01*
X17418444Y-14466298D02*
X17418444Y-14418679D01*
X17418444Y-14418679D02*
X17427967Y-14380583D01*
X17427967Y-14380583D02*
X17437491Y-14361536D01*
X17437491Y-14361536D02*
X17447015Y-14352012D01*
X17447015Y-14352012D02*
X17466063Y-14342488D01*
X17656539Y-14342488D02*
X17675586Y-14342488D01*
X17675586Y-14342488D02*
X17694634Y-14352012D01*
X17694634Y-14352012D02*
X17704158Y-14361536D01*
X17704158Y-14361536D02*
X17713682Y-14380583D01*
X17713682Y-14380583D02*
X17723205Y-14418679D01*
X17723205Y-14418679D02*
X17723205Y-14466298D01*
X17723205Y-14466298D02*
X17713682Y-14504393D01*
X17713682Y-14504393D02*
X17704158Y-14523440D01*
X17704158Y-14523440D02*
X17694634Y-14532964D01*
X17694634Y-14532964D02*
X17675586Y-14542488D01*
X17675586Y-14542488D02*
X17656539Y-14542488D01*
X17656539Y-14542488D02*
X17637491Y-14532964D01*
X17637491Y-14532964D02*
X17627967Y-14523440D01*
X17627967Y-14523440D02*
X17618444Y-14504393D01*
X17618444Y-14504393D02*
X17608920Y-14466298D01*
X17608920Y-14466298D02*
X17608920Y-14418679D01*
X17608920Y-14418679D02*
X17618444Y-14380583D01*
X17618444Y-14380583D02*
X17627967Y-14361536D01*
X17627967Y-14361536D02*
X17637491Y-14352012D01*
X17637491Y-14352012D02*
X17656539Y-14342488D01*
X17808920Y-14542488D02*
X17808920Y-14409155D01*
X17808920Y-14428202D02*
X17818444Y-14418679D01*
X17818444Y-14418679D02*
X17837491Y-14409155D01*
X17837491Y-14409155D02*
X17866063Y-14409155D01*
X17866063Y-14409155D02*
X17885110Y-14418679D01*
X17885110Y-14418679D02*
X17894634Y-14437726D01*
X17894634Y-14437726D02*
X17894634Y-14542488D01*
X17894634Y-14437726D02*
X17904158Y-14418679D01*
X17904158Y-14418679D02*
X17923205Y-14409155D01*
X17923205Y-14409155D02*
X17951777Y-14409155D01*
X17951777Y-14409155D02*
X17970825Y-14418679D01*
X17970825Y-14418679D02*
X17980348Y-14437726D01*
X17980348Y-14437726D02*
X17980348Y-14542488D01*
X18075586Y-14542488D02*
X18075586Y-14409155D01*
X18075586Y-14428202D02*
X18085110Y-14418679D01*
X18085110Y-14418679D02*
X18104158Y-14409155D01*
X18104158Y-14409155D02*
X18132729Y-14409155D01*
X18132729Y-14409155D02*
X18151777Y-14418679D01*
X18151777Y-14418679D02*
X18161301Y-14437726D01*
X18161301Y-14437726D02*
X18161301Y-14542488D01*
X18161301Y-14437726D02*
X18170825Y-14418679D01*
X18170825Y-14418679D02*
X18189872Y-14409155D01*
X18189872Y-14409155D02*
X18218444Y-14409155D01*
X18218444Y-14409155D02*
X18237491Y-14418679D01*
X18237491Y-14418679D02*
X18247015Y-14437726D01*
X18247015Y-14437726D02*
X18247015Y-14542488D01*
X18637491Y-14332964D02*
X18466063Y-14590107D01*
X18894634Y-14342488D02*
X18913682Y-14342488D01*
X18913682Y-14342488D02*
X18932729Y-14352012D01*
X18932729Y-14352012D02*
X18942253Y-14361536D01*
X18942253Y-14361536D02*
X18951777Y-14380583D01*
X18951777Y-14380583D02*
X18961301Y-14418679D01*
X18961301Y-14418679D02*
X18961301Y-14466298D01*
X18961301Y-14466298D02*
X18951777Y-14504393D01*
X18951777Y-14504393D02*
X18942253Y-14523440D01*
X18942253Y-14523440D02*
X18932729Y-14532964D01*
X18932729Y-14532964D02*
X18913682Y-14542488D01*
X18913682Y-14542488D02*
X18894634Y-14542488D01*
X18894634Y-14542488D02*
X18875587Y-14532964D01*
X18875587Y-14532964D02*
X18866063Y-14523440D01*
X18866063Y-14523440D02*
X18856539Y-14504393D01*
X18856539Y-14504393D02*
X18847015Y-14466298D01*
X18847015Y-14466298D02*
X18847015Y-14418679D01*
X18847015Y-14418679D02*
X18856539Y-14380583D01*
X18856539Y-14380583D02*
X18866063Y-14361536D01*
X18866063Y-14361536D02*
X18875587Y-14352012D01*
X18875587Y-14352012D02*
X18894634Y-14342488D01*
X19047015Y-14523440D02*
X19056539Y-14532964D01*
X19056539Y-14532964D02*
X19047015Y-14542488D01*
X19047015Y-14542488D02*
X19037491Y-14532964D01*
X19037491Y-14532964D02*
X19047015Y-14523440D01*
X19047015Y-14523440D02*
X19047015Y-14542488D01*
X19180348Y-14342488D02*
X19199396Y-14342488D01*
X19199396Y-14342488D02*
X19218444Y-14352012D01*
X19218444Y-14352012D02*
X19227968Y-14361536D01*
X19227968Y-14361536D02*
X19237491Y-14380583D01*
X19237491Y-14380583D02*
X19247015Y-14418679D01*
X19247015Y-14418679D02*
X19247015Y-14466298D01*
X19247015Y-14466298D02*
X19237491Y-14504393D01*
X19237491Y-14504393D02*
X19227968Y-14523440D01*
X19227968Y-14523440D02*
X19218444Y-14532964D01*
X19218444Y-14532964D02*
X19199396Y-14542488D01*
X19199396Y-14542488D02*
X19180348Y-14542488D01*
X19180348Y-14542488D02*
X19161301Y-14532964D01*
X19161301Y-14532964D02*
X19151777Y-14523440D01*
X19151777Y-14523440D02*
X19142253Y-14504393D01*
X19142253Y-14504393D02*
X19132729Y-14466298D01*
X19132729Y-14466298D02*
X19132729Y-14418679D01*
X19132729Y-14418679D02*
X19142253Y-14380583D01*
X19142253Y-14380583D02*
X19151777Y-14361536D01*
X19151777Y-14361536D02*
X19161301Y-14352012D01*
X19161301Y-14352012D02*
X19180348Y-14342488D01*
X19418444Y-14409155D02*
X19418444Y-14542488D01*
X19370825Y-14332964D02*
X19323206Y-14475821D01*
X19323206Y-14475821D02*
X19447015Y-14475821D01*
X19504158Y-14342488D02*
X19637491Y-14342488D01*
X19637491Y-14342488D02*
X19551777Y-14542488D01*
X19704158Y-14361536D02*
X19713682Y-14352012D01*
X19713682Y-14352012D02*
X19732729Y-14342488D01*
X19732729Y-14342488D02*
X19780349Y-14342488D01*
X19780349Y-14342488D02*
X19799396Y-14352012D01*
X19799396Y-14352012D02*
X19808920Y-14361536D01*
X19808920Y-14361536D02*
X19818444Y-14380583D01*
X19818444Y-14380583D02*
X19818444Y-14399631D01*
X19818444Y-14399631D02*
X19808920Y-14428202D01*
X19808920Y-14428202D02*
X19694634Y-14542488D01*
X19694634Y-14542488D02*
X19818444Y-14542488D01*
X19894634Y-14342488D02*
X19894634Y-14380583D01*
X19970825Y-14342488D02*
X19970825Y-14380583D01*
X20266063Y-14618679D02*
X20256539Y-14609155D01*
X20256539Y-14609155D02*
X20237491Y-14580583D01*
X20237491Y-14580583D02*
X20227968Y-14561536D01*
X20227968Y-14561536D02*
X20218444Y-14532964D01*
X20218444Y-14532964D02*
X20208920Y-14485345D01*
X20208920Y-14485345D02*
X20208920Y-14447250D01*
X20208920Y-14447250D02*
X20218444Y-14399631D01*
X20218444Y-14399631D02*
X20227968Y-14371060D01*
X20227968Y-14371060D02*
X20237491Y-14352012D01*
X20237491Y-14352012D02*
X20256539Y-14323440D01*
X20256539Y-14323440D02*
X20266063Y-14313917D01*
X20447015Y-14542488D02*
X20332730Y-14542488D01*
X20389872Y-14542488D02*
X20389872Y-14342488D01*
X20389872Y-14342488D02*
X20370825Y-14371060D01*
X20370825Y-14371060D02*
X20351777Y-14390107D01*
X20351777Y-14390107D02*
X20332730Y-14399631D01*
X20685111Y-14542488D02*
X20685111Y-14342488D01*
X20770825Y-14542488D02*
X20770825Y-14437726D01*
X20770825Y-14437726D02*
X20761301Y-14418679D01*
X20761301Y-14418679D02*
X20742253Y-14409155D01*
X20742253Y-14409155D02*
X20713682Y-14409155D01*
X20713682Y-14409155D02*
X20694634Y-14418679D01*
X20694634Y-14418679D02*
X20685111Y-14428202D01*
X20894634Y-14542488D02*
X20875587Y-14532964D01*
X20875587Y-14532964D02*
X20866063Y-14523440D01*
X20866063Y-14523440D02*
X20856539Y-14504393D01*
X20856539Y-14504393D02*
X20856539Y-14447250D01*
X20856539Y-14447250D02*
X20866063Y-14428202D01*
X20866063Y-14428202D02*
X20875587Y-14418679D01*
X20875587Y-14418679D02*
X20894634Y-14409155D01*
X20894634Y-14409155D02*
X20923206Y-14409155D01*
X20923206Y-14409155D02*
X20942253Y-14418679D01*
X20942253Y-14418679D02*
X20951777Y-14428202D01*
X20951777Y-14428202D02*
X20961301Y-14447250D01*
X20961301Y-14447250D02*
X20961301Y-14504393D01*
X20961301Y-14504393D02*
X20951777Y-14523440D01*
X20951777Y-14523440D02*
X20942253Y-14532964D01*
X20942253Y-14532964D02*
X20923206Y-14542488D01*
X20923206Y-14542488D02*
X20894634Y-14542488D01*
X21075587Y-14542488D02*
X21056539Y-14532964D01*
X21056539Y-14532964D02*
X21047015Y-14513917D01*
X21047015Y-14513917D02*
X21047015Y-14342488D01*
X21227968Y-14532964D02*
X21208920Y-14542488D01*
X21208920Y-14542488D02*
X21170825Y-14542488D01*
X21170825Y-14542488D02*
X21151777Y-14532964D01*
X21151777Y-14532964D02*
X21142253Y-14513917D01*
X21142253Y-14513917D02*
X21142253Y-14437726D01*
X21142253Y-14437726D02*
X21151777Y-14418679D01*
X21151777Y-14418679D02*
X21170825Y-14409155D01*
X21170825Y-14409155D02*
X21208920Y-14409155D01*
X21208920Y-14409155D02*
X21227968Y-14418679D01*
X21227968Y-14418679D02*
X21237492Y-14437726D01*
X21237492Y-14437726D02*
X21237492Y-14456774D01*
X21237492Y-14456774D02*
X21142253Y-14475821D01*
X21304158Y-14618679D02*
X21313682Y-14609155D01*
X21313682Y-14609155D02*
X21332730Y-14580583D01*
X21332730Y-14580583D02*
X21342253Y-14561536D01*
X21342253Y-14561536D02*
X21351777Y-14532964D01*
X21351777Y-14532964D02*
X21361301Y-14485345D01*
X21361301Y-14485345D02*
X21361301Y-14447250D01*
X21361301Y-14447250D02*
X21351777Y-14399631D01*
X21351777Y-14399631D02*
X21342253Y-14371060D01*
X21342253Y-14371060D02*
X21332730Y-14352012D01*
X21332730Y-14352012D02*
X21313682Y-14323440D01*
X21313682Y-14323440D02*
X21304158Y-14313917D01*
X21666063Y-14618679D02*
X21656539Y-14609155D01*
X21656539Y-14609155D02*
X21637492Y-14580583D01*
X21637492Y-14580583D02*
X21627968Y-14561536D01*
X21627968Y-14561536D02*
X21618444Y-14532964D01*
X21618444Y-14532964D02*
X21608920Y-14485345D01*
X21608920Y-14485345D02*
X21608920Y-14447250D01*
X21608920Y-14447250D02*
X21618444Y-14399631D01*
X21618444Y-14399631D02*
X21627968Y-14371060D01*
X21627968Y-14371060D02*
X21637492Y-14352012D01*
X21637492Y-14352012D02*
X21656539Y-14323440D01*
X21656539Y-14323440D02*
X21666063Y-14313917D01*
X21742253Y-14409155D02*
X21742253Y-14542488D01*
X21742253Y-14428202D02*
X21751777Y-14418679D01*
X21751777Y-14418679D02*
X21770825Y-14409155D01*
X21770825Y-14409155D02*
X21799396Y-14409155D01*
X21799396Y-14409155D02*
X21818444Y-14418679D01*
X21818444Y-14418679D02*
X21827968Y-14437726D01*
X21827968Y-14437726D02*
X21827968Y-14542488D01*
X21951777Y-14542488D02*
X21932730Y-14532964D01*
X21932730Y-14532964D02*
X21923206Y-14523440D01*
X21923206Y-14523440D02*
X21913682Y-14504393D01*
X21913682Y-14504393D02*
X21913682Y-14447250D01*
X21913682Y-14447250D02*
X21923206Y-14428202D01*
X21923206Y-14428202D02*
X21932730Y-14418679D01*
X21932730Y-14418679D02*
X21951777Y-14409155D01*
X21951777Y-14409155D02*
X21980349Y-14409155D01*
X21980349Y-14409155D02*
X21999396Y-14418679D01*
X21999396Y-14418679D02*
X22008920Y-14428202D01*
X22008920Y-14428202D02*
X22018444Y-14447250D01*
X22018444Y-14447250D02*
X22018444Y-14504393D01*
X22018444Y-14504393D02*
X22008920Y-14523440D01*
X22008920Y-14523440D02*
X21999396Y-14532964D01*
X21999396Y-14532964D02*
X21980349Y-14542488D01*
X21980349Y-14542488D02*
X21951777Y-14542488D01*
X22075587Y-14409155D02*
X22151777Y-14409155D01*
X22104158Y-14342488D02*
X22104158Y-14513917D01*
X22104158Y-14513917D02*
X22113682Y-14532964D01*
X22113682Y-14532964D02*
X22132730Y-14542488D01*
X22132730Y-14542488D02*
X22151777Y-14542488D01*
X22370825Y-14409155D02*
X22370825Y-14609155D01*
X22370825Y-14418679D02*
X22389872Y-14409155D01*
X22389872Y-14409155D02*
X22427968Y-14409155D01*
X22427968Y-14409155D02*
X22447015Y-14418679D01*
X22447015Y-14418679D02*
X22456539Y-14428202D01*
X22456539Y-14428202D02*
X22466063Y-14447250D01*
X22466063Y-14447250D02*
X22466063Y-14504393D01*
X22466063Y-14504393D02*
X22456539Y-14523440D01*
X22456539Y-14523440D02*
X22447015Y-14532964D01*
X22447015Y-14532964D02*
X22427968Y-14542488D01*
X22427968Y-14542488D02*
X22389872Y-14542488D01*
X22389872Y-14542488D02*
X22370825Y-14532964D01*
X22580349Y-14542488D02*
X22561301Y-14532964D01*
X22561301Y-14532964D02*
X22551777Y-14513917D01*
X22551777Y-14513917D02*
X22551777Y-14342488D01*
X22742253Y-14542488D02*
X22742253Y-14437726D01*
X22742253Y-14437726D02*
X22732730Y-14418679D01*
X22732730Y-14418679D02*
X22713682Y-14409155D01*
X22713682Y-14409155D02*
X22675587Y-14409155D01*
X22675587Y-14409155D02*
X22656539Y-14418679D01*
X22742253Y-14532964D02*
X22723206Y-14542488D01*
X22723206Y-14542488D02*
X22675587Y-14542488D01*
X22675587Y-14542488D02*
X22656539Y-14532964D01*
X22656539Y-14532964D02*
X22647015Y-14513917D01*
X22647015Y-14513917D02*
X22647015Y-14494869D01*
X22647015Y-14494869D02*
X22656539Y-14475821D01*
X22656539Y-14475821D02*
X22675587Y-14466298D01*
X22675587Y-14466298D02*
X22723206Y-14466298D01*
X22723206Y-14466298D02*
X22742253Y-14456774D01*
X22808920Y-14409155D02*
X22885111Y-14409155D01*
X22837492Y-14342488D02*
X22837492Y-14513917D01*
X22837492Y-14513917D02*
X22847015Y-14532964D01*
X22847015Y-14532964D02*
X22866063Y-14542488D01*
X22866063Y-14542488D02*
X22885111Y-14542488D01*
X23027968Y-14532964D02*
X23008920Y-14542488D01*
X23008920Y-14542488D02*
X22970825Y-14542488D01*
X22970825Y-14542488D02*
X22951777Y-14532964D01*
X22951777Y-14532964D02*
X22942253Y-14513917D01*
X22942253Y-14513917D02*
X22942253Y-14437726D01*
X22942253Y-14437726D02*
X22951777Y-14418679D01*
X22951777Y-14418679D02*
X22970825Y-14409155D01*
X22970825Y-14409155D02*
X23008920Y-14409155D01*
X23008920Y-14409155D02*
X23027968Y-14418679D01*
X23027968Y-14418679D02*
X23037492Y-14437726D01*
X23037492Y-14437726D02*
X23037492Y-14456774D01*
X23037492Y-14456774D02*
X22942253Y-14475821D01*
X23208920Y-14542488D02*
X23208920Y-14342488D01*
X23208920Y-14532964D02*
X23189873Y-14542488D01*
X23189873Y-14542488D02*
X23151777Y-14542488D01*
X23151777Y-14542488D02*
X23132730Y-14532964D01*
X23132730Y-14532964D02*
X23123206Y-14523440D01*
X23123206Y-14523440D02*
X23113682Y-14504393D01*
X23113682Y-14504393D02*
X23113682Y-14447250D01*
X23113682Y-14447250D02*
X23123206Y-14428202D01*
X23123206Y-14428202D02*
X23132730Y-14418679D01*
X23132730Y-14418679D02*
X23151777Y-14409155D01*
X23151777Y-14409155D02*
X23189873Y-14409155D01*
X23189873Y-14409155D02*
X23208920Y-14418679D01*
X23285111Y-14618679D02*
X23294634Y-14609155D01*
X23294634Y-14609155D02*
X23313682Y-14580583D01*
X23313682Y-14580583D02*
X23323206Y-14561536D01*
X23323206Y-14561536D02*
X23332730Y-14532964D01*
X23332730Y-14532964D02*
X23342253Y-14485345D01*
X23342253Y-14485345D02*
X23342253Y-14447250D01*
X23342253Y-14447250D02*
X23332730Y-14399631D01*
X23332730Y-14399631D02*
X23323206Y-14371060D01*
X23323206Y-14371060D02*
X23313682Y-14352012D01*
X23313682Y-14352012D02*
X23294634Y-14323440D01*
X23294634Y-14323440D02*
X23285111Y-14313917D01*
M02*
