%TF.GenerationSoftware,KiCad,Pcbnew,9.0.3*%
%TF.CreationDate,2025-11-18T23:41:28+00:00*%
%TF.ProjectId,EinsteinTC01PS2Mini,45696e73-7465-4696-9e54-433031505332,rev?*%
%TF.SameCoordinates,Original*%
%TF.FileFunction,Soldermask,Top*%
%TF.FilePolarity,Negative*%
%FSLAX46Y46*%
G04 Gerber Fmt 4.6, Leading zero omitted, Abs format (unit mm)*
G04 Created by KiCad (PCBNEW 9.0.3) date 2025-11-18 23:41:28*
%MOMM*%
%LPD*%
G01*
G04 APERTURE LIST*
G04 Aperture macros list*
%AMRoundRect*
0 Rectangle with rounded corners*
0 $1 Rounding radius*
0 $2 $3 $4 $5 $6 $7 $8 $9 X,Y pos of 4 corners*
0 Add a 4 corners polygon primitive as box body*
4,1,4,$2,$3,$4,$5,$6,$7,$8,$9,$2,$3,0*
0 Add four circle primitives for the rounded corners*
1,1,$1+$1,$2,$3*
1,1,$1+$1,$4,$5*
1,1,$1+$1,$6,$7*
1,1,$1+$1,$8,$9*
0 Add four rect primitives between the rounded corners*
20,1,$1+$1,$2,$3,$4,$5,0*
20,1,$1+$1,$4,$5,$6,$7,0*
20,1,$1+$1,$6,$7,$8,$9,0*
20,1,$1+$1,$8,$9,$2,$3,0*%
G04 Aperture macros list end*
%ADD10C,2.000000*%
%ADD11C,1.700000*%
%ADD12R,1.700000X1.700000*%
%ADD13C,1.600000*%
%ADD14RoundRect,0.875000X-0.875000X0.875000X-0.875000X-0.875000X0.875000X-0.875000X0.875000X0.875000X0*%
%ADD15RoundRect,0.750000X-1.000000X0.750000X-1.000000X-0.750000X1.000000X-0.750000X1.000000X0.750000X0*%
%ADD16R,3.500000X3.500000*%
%ADD17O,2.000000X3.500000*%
%ADD18O,4.000000X2.000000*%
%ADD19C,1.800000*%
%ADD20R,1.800000X1.800000*%
%ADD21O,1.400000X1.400000*%
%ADD22C,1.400000*%
%ADD23RoundRect,0.250000X-0.550000X0.550000X-0.550000X-0.550000X0.550000X-0.550000X0.550000X0.550000X0*%
%ADD24C,1.200000*%
%ADD25RoundRect,0.250000X0.750000X-0.600000X0.750000X0.600000X-0.750000X0.600000X-0.750000X-0.600000X0*%
%ADD26O,2.000000X1.700000*%
%ADD27C,1.500000*%
%ADD28R,1.600000X1.600000*%
%ADD29O,1.600000X1.600000*%
G04 APERTURE END LIST*
D10*
%TO.C,KB1*%
X219530000Y-131600000D03*
D11*
X219890000Y-129100000D03*
D10*
X219530000Y-126600000D03*
X216990000Y-131600000D03*
D11*
X217350000Y-129100000D03*
D10*
X216990000Y-126600000D03*
X214530000Y-131600000D03*
D11*
X214810000Y-129100000D03*
D10*
X214530000Y-126600000D03*
X212030000Y-131600000D03*
D11*
X212270000Y-129100000D03*
D10*
X212030000Y-126600000D03*
X209530000Y-131600000D03*
D11*
X209730000Y-129100000D03*
D10*
X209530000Y-126600000D03*
X207030000Y-131600000D03*
D11*
X207190000Y-129100000D03*
D10*
X207030000Y-126600000D03*
X204530000Y-131600000D03*
D11*
X204650000Y-129100000D03*
D10*
X204530000Y-126600000D03*
X202030000Y-131600000D03*
D11*
X202110000Y-129100000D03*
D10*
X202030000Y-126600000D03*
X199530000Y-131600000D03*
D11*
X199570000Y-129100000D03*
D10*
X199530000Y-126600000D03*
X197030000Y-131600000D03*
D11*
X197030000Y-129100000D03*
D10*
X197030000Y-126600000D03*
X194530000Y-131600000D03*
D11*
X194490000Y-129100000D03*
D10*
X194530000Y-126600000D03*
X192030000Y-131600000D03*
D11*
X191950000Y-129100000D03*
D10*
X192030000Y-126600000D03*
X189530000Y-131600000D03*
D11*
X189410000Y-129100000D03*
D10*
X189530000Y-126600000D03*
X187030000Y-131600000D03*
D11*
X186870000Y-129100000D03*
D10*
X187030000Y-126600000D03*
X184530000Y-131600000D03*
D11*
X184330000Y-129100000D03*
D10*
X184530000Y-126600000D03*
X182030000Y-131600000D03*
D11*
X181790000Y-129100000D03*
D10*
X182030000Y-126600000D03*
X179530000Y-131600000D03*
D11*
X179250000Y-129100000D03*
D10*
X179530000Y-126600000D03*
X177030000Y-131600000D03*
D11*
X176710000Y-129100000D03*
D10*
X177030000Y-126600000D03*
X174530000Y-131600000D03*
D11*
X174170000Y-129100000D03*
D10*
X174530000Y-126600000D03*
X172030000Y-131600000D03*
D12*
X171630000Y-129100000D03*
D10*
X172030000Y-126600000D03*
%TD*%
D13*
%TO.C,C3*%
X185400000Y-99730000D03*
X187940000Y-99730000D03*
%TD*%
%TO.C,C4*%
X185400000Y-94610000D03*
X187940000Y-94610000D03*
%TD*%
%TO.C,X1*%
X192740000Y-94630000D03*
X192740000Y-99710000D03*
%TD*%
D14*
%TO.C,J1*%
X170820000Y-88160000D03*
D15*
X175520000Y-85160000D03*
D16*
X175520000Y-91160000D03*
%TD*%
D17*
%TO.C,J2*%
X202690000Y-83150000D03*
D18*
X209540000Y-82350000D03*
D17*
X216390000Y-83150000D03*
D19*
X212940000Y-88800000D03*
X206140000Y-88800000D03*
X212940000Y-86000000D03*
X206140000Y-86000000D03*
X210840000Y-86000000D03*
D20*
X208240000Y-86000000D03*
%TD*%
D21*
%TO.C,R8*%
X225620000Y-119195000D03*
D22*
X225620000Y-109035000D03*
%TD*%
D23*
%TO.C,U3*%
X232780000Y-93480000D03*
D13*
X230240000Y-93480000D03*
X227700000Y-93480000D03*
X225160000Y-93480000D03*
X222620000Y-93480000D03*
X220080000Y-93480000D03*
X217540000Y-93480000D03*
X215000000Y-93480000D03*
X212460000Y-93480000D03*
X209920000Y-93480000D03*
X207380000Y-93480000D03*
X204840000Y-93480000D03*
X202300000Y-93480000D03*
X199760000Y-93480000D03*
X199760000Y-101100000D03*
X202300000Y-101100000D03*
X204840000Y-101100000D03*
X207380000Y-101100000D03*
X209920000Y-101100000D03*
X212460000Y-101100000D03*
X215000000Y-101100000D03*
X217540000Y-101100000D03*
X220080000Y-101100000D03*
X222620000Y-101100000D03*
X225160000Y-101100000D03*
X227700000Y-101100000D03*
X230240000Y-101100000D03*
X232780000Y-101100000D03*
%TD*%
D24*
%TO.C,J3*%
X223960000Y-85400000D03*
D25*
X221960000Y-83800000D03*
D26*
X221960000Y-81300000D03*
%TD*%
D13*
%TO.C,C1*%
X172010000Y-102240000D03*
X169470000Y-102240000D03*
%TD*%
D22*
%TO.C,R9*%
X222580000Y-106025000D03*
D21*
X232740000Y-106025000D03*
%TD*%
D27*
%TO.C,Q3*%
X228970000Y-128205000D03*
X231510000Y-125665000D03*
X234050000Y-128205000D03*
%TD*%
%TO.C,Q2*%
X228970000Y-120815000D03*
X231510000Y-118275000D03*
X234050000Y-120815000D03*
%TD*%
D20*
%TO.C,D2*%
X188850000Y-83710000D03*
D19*
X191390000Y-83710000D03*
%TD*%
D22*
%TO.C,R3*%
X199190000Y-88990000D03*
D21*
X199190000Y-78830000D03*
%TD*%
D27*
%TO.C,Q4*%
X228970000Y-113455000D03*
X231510000Y-110915000D03*
X234050000Y-113455000D03*
%TD*%
D22*
%TO.C,R10*%
X222610000Y-109035000D03*
D21*
X222610000Y-119195000D03*
%TD*%
D28*
%TO.C,U1*%
X217910000Y-104980000D03*
D29*
X215370000Y-104980000D03*
X212830000Y-104980000D03*
X210290000Y-104980000D03*
X207750000Y-104980000D03*
X205210000Y-104980000D03*
X202670000Y-104980000D03*
X200130000Y-104980000D03*
X197590000Y-104980000D03*
X195050000Y-104980000D03*
X192510000Y-104980000D03*
X189970000Y-104980000D03*
X187430000Y-104980000D03*
X184890000Y-104980000D03*
X182350000Y-104980000D03*
X179810000Y-104980000D03*
X177270000Y-104980000D03*
X174730000Y-104980000D03*
X172190000Y-104980000D03*
X169650000Y-104980000D03*
X169650000Y-120220000D03*
X172190000Y-120220000D03*
X174730000Y-120220000D03*
X177270000Y-120220000D03*
X179810000Y-120220000D03*
X182350000Y-120220000D03*
X184890000Y-120220000D03*
X187430000Y-120220000D03*
X189970000Y-120220000D03*
X192510000Y-120220000D03*
X195050000Y-120220000D03*
X197590000Y-120220000D03*
X200130000Y-120220000D03*
X202670000Y-120220000D03*
X205210000Y-120220000D03*
X207750000Y-120220000D03*
X210290000Y-120220000D03*
X212830000Y-120220000D03*
X215370000Y-120220000D03*
X217910000Y-120220000D03*
%TD*%
M02*
