%TF.GenerationSoftware,KiCad,Pcbnew,9.0.3*%
%TF.CreationDate,2025-11-18T23:41:28+00:00*%
%TF.ProjectId,EinsteinTC01PS2Mini,45696e73-7465-4696-9e54-433031505332,rev?*%
%TF.SameCoordinates,Original*%
%TF.FileFunction,Copper,L1,Top*%
%TF.FilePolarity,Positive*%
%FSLAX46Y46*%
G04 Gerber Fmt 4.6, Leading zero omitted, Abs format (unit mm)*
G04 Created by KiCad (PCBNEW 9.0.3) date 2025-11-18 23:41:28*
%MOMM*%
%LPD*%
G01*
G04 APERTURE LIST*
G04 Aperture macros list*
%AMRoundRect*
0 Rectangle with rounded corners*
0 $1 Rounding radius*
0 $2 $3 $4 $5 $6 $7 $8 $9 X,Y pos of 4 corners*
0 Add a 4 corners polygon primitive as box body*
4,1,4,$2,$3,$4,$5,$6,$7,$8,$9,$2,$3,0*
0 Add four circle primitives for the rounded corners*
1,1,$1+$1,$2,$3*
1,1,$1+$1,$4,$5*
1,1,$1+$1,$6,$7*
1,1,$1+$1,$8,$9*
0 Add four rect primitives between the rounded corners*
20,1,$1+$1,$2,$3,$4,$5,0*
20,1,$1+$1,$4,$5,$6,$7,0*
20,1,$1+$1,$6,$7,$8,$9,0*
20,1,$1+$1,$8,$9,$2,$3,0*%
G04 Aperture macros list end*
%TA.AperFunction,ComponentPad*%
%ADD10C,2.000000*%
%TD*%
%TA.AperFunction,ComponentPad*%
%ADD11C,1.700000*%
%TD*%
%TA.AperFunction,ComponentPad*%
%ADD12R,1.700000X1.700000*%
%TD*%
%TA.AperFunction,ComponentPad*%
%ADD13C,1.600000*%
%TD*%
%TA.AperFunction,ComponentPad*%
%ADD14RoundRect,0.875000X-0.875000X0.875000X-0.875000X-0.875000X0.875000X-0.875000X0.875000X0.875000X0*%
%TD*%
%TA.AperFunction,ComponentPad*%
%ADD15RoundRect,0.750000X-1.000000X0.750000X-1.000000X-0.750000X1.000000X-0.750000X1.000000X0.750000X0*%
%TD*%
%TA.AperFunction,ComponentPad*%
%ADD16R,3.500000X3.500000*%
%TD*%
%TA.AperFunction,ComponentPad*%
%ADD17O,2.000000X3.500000*%
%TD*%
%TA.AperFunction,ComponentPad*%
%ADD18O,4.000000X2.000000*%
%TD*%
%TA.AperFunction,ComponentPad*%
%ADD19C,1.800000*%
%TD*%
%TA.AperFunction,ComponentPad*%
%ADD20R,1.800000X1.800000*%
%TD*%
%TA.AperFunction,ComponentPad*%
%ADD21O,1.400000X1.400000*%
%TD*%
%TA.AperFunction,ComponentPad*%
%ADD22C,1.400000*%
%TD*%
%TA.AperFunction,ComponentPad*%
%ADD23RoundRect,0.250000X-0.550000X0.550000X-0.550000X-0.550000X0.550000X-0.550000X0.550000X0.550000X0*%
%TD*%
%TA.AperFunction,ComponentPad*%
%ADD24RoundRect,0.250000X0.750000X-0.600000X0.750000X0.600000X-0.750000X0.600000X-0.750000X-0.600000X0*%
%TD*%
%TA.AperFunction,ComponentPad*%
%ADD25O,2.000000X1.700000*%
%TD*%
%TA.AperFunction,ComponentPad*%
%ADD26C,1.500000*%
%TD*%
%TA.AperFunction,ComponentPad*%
%ADD27R,1.600000X1.600000*%
%TD*%
%TA.AperFunction,ComponentPad*%
%ADD28O,1.600000X1.600000*%
%TD*%
%TA.AperFunction,Conductor*%
%ADD29C,0.400000*%
%TD*%
%TA.AperFunction,Conductor*%
%ADD30C,1.200000*%
%TD*%
G04 APERTURE END LIST*
D10*
%TO.P,KB1,20,Pin_20*%
%TO.N,Y0*%
X219530000Y-131600000D03*
D11*
X219890000Y-129100000D03*
D10*
X219530000Y-126600000D03*
%TO.P,KB1,19,Pin_19*%
%TO.N,Y1*%
X216990000Y-131600000D03*
D11*
X217350000Y-129100000D03*
D10*
X216990000Y-126600000D03*
%TO.P,KB1,18,Pin_18*%
%TO.N,Y2*%
X214530000Y-131600000D03*
D11*
X214810000Y-129100000D03*
D10*
X214530000Y-126600000D03*
%TO.P,KB1,17,Pin_17*%
%TO.N,Y3*%
X212030000Y-131600000D03*
D11*
X212270000Y-129100000D03*
D10*
X212030000Y-126600000D03*
%TO.P,KB1,16,Pin_16*%
%TO.N,Y4*%
X209530000Y-131600000D03*
D11*
X209730000Y-129100000D03*
D10*
X209530000Y-126600000D03*
%TO.P,KB1,15,Pin_15*%
%TO.N,Y5*%
X207030000Y-131600000D03*
D11*
X207190000Y-129100000D03*
D10*
X207030000Y-126600000D03*
%TO.P,KB1,14,Pin_14*%
%TO.N,Y6*%
X204530000Y-131600000D03*
D11*
X204650000Y-129100000D03*
D10*
X204530000Y-126600000D03*
%TO.P,KB1,13,Pin_13*%
%TO.N,Y7*%
X202030000Y-131600000D03*
D11*
X202110000Y-129100000D03*
D10*
X202030000Y-126600000D03*
%TO.P,KB1,12,Pin_12*%
%TO.N,X0*%
X199530000Y-131600000D03*
D11*
X199570000Y-129100000D03*
D10*
X199530000Y-126600000D03*
%TO.P,KB1,11,Pin_11*%
%TO.N,X1*%
X197030000Y-131600000D03*
D11*
X197030000Y-129100000D03*
D10*
X197030000Y-126600000D03*
%TO.P,KB1,10,Pin_10*%
%TO.N,X2*%
X194530000Y-131600000D03*
D11*
X194490000Y-129100000D03*
D10*
X194530000Y-126600000D03*
%TO.P,KB1,9,Pin_9*%
%TO.N,X3*%
X192030000Y-131600000D03*
D11*
X191950000Y-129100000D03*
D10*
X192030000Y-126600000D03*
%TO.P,KB1,8,Pin_8*%
%TO.N,X4*%
X189530000Y-131600000D03*
D11*
X189410000Y-129100000D03*
D10*
X189530000Y-126600000D03*
%TO.P,KB1,7,Pin_7*%
%TO.N,X5*%
X187030000Y-131600000D03*
D11*
X186870000Y-129100000D03*
D10*
X187030000Y-126600000D03*
%TO.P,KB1,6,Pin_6*%
%TO.N,X6*%
X184530000Y-131600000D03*
D11*
X184330000Y-129100000D03*
D10*
X184530000Y-126600000D03*
%TO.P,KB1,5,Pin_5*%
%TO.N,X7*%
X182030000Y-131600000D03*
D11*
X181790000Y-129100000D03*
D10*
X182030000Y-126600000D03*
%TO.P,KB1,4,Pin_4*%
%TO.N,~{GRPH}*%
X179530000Y-131600000D03*
D11*
X179250000Y-129100000D03*
D10*
X179530000Y-126600000D03*
%TO.P,KB1,3,Pin_3*%
%TO.N,~{SHIFT}*%
X177030000Y-131600000D03*
D11*
X176710000Y-129100000D03*
D10*
X177030000Y-126600000D03*
%TO.P,KB1,2,Pin_2*%
%TO.N,~{CTRL}*%
X174530000Y-131600000D03*
D11*
X174170000Y-129100000D03*
D10*
X174530000Y-126600000D03*
%TO.P,KB1,1,Pin_1*%
%TO.N,GND*%
X172030000Y-131600000D03*
D12*
X171630000Y-129100000D03*
D10*
X172030000Y-126600000D03*
%TD*%
D13*
%TO.P,C3,2*%
%TO.N,GND*%
X185400000Y-99730000D03*
%TO.P,C3,1*%
%TO.N,Net-(U3-PB6)*%
X187940000Y-99730000D03*
%TD*%
%TO.P,C4,2*%
%TO.N,GND*%
X185400000Y-94610000D03*
%TO.P,C4,1*%
%TO.N,Net-(U3-PB7)*%
X187940000Y-94610000D03*
%TD*%
%TO.P,X1,2,2*%
%TO.N,Net-(U3-PB7)*%
X192740000Y-94630000D03*
%TO.P,X1,1,1*%
%TO.N,Net-(U3-PB6)*%
X192740000Y-99710000D03*
%TD*%
D14*
%TO.P,J1,3*%
%TO.N,GND*%
X170820000Y-88160000D03*
D15*
%TO.P,J1,2*%
X175520000Y-85160000D03*
D16*
%TO.P,J1,1*%
%TO.N,+5V*%
X175520000Y-91160000D03*
%TD*%
D17*
%TO.P,J2,7,GND*%
%TO.N,GND*%
X202690000Y-83150000D03*
D18*
X209540000Y-82350000D03*
D17*
X216390000Y-83150000D03*
D19*
%TO.P,J2,6*%
%TO.N,unconnected-(J2-Pad6)*%
X212940000Y-88800000D03*
%TO.P,J2,5*%
%TO.N,PS2-CLK*%
X206140000Y-88800000D03*
%TO.P,J2,4*%
%TO.N,+5V*%
X212940000Y-86000000D03*
%TO.P,J2,3*%
%TO.N,GND*%
X206140000Y-86000000D03*
%TO.P,J2,2*%
%TO.N,unconnected-(J2-Pad2)*%
X210840000Y-86000000D03*
D20*
%TO.P,J2,1*%
%TO.N,PS2-DATA*%
X208240000Y-86000000D03*
%TD*%
D21*
%TO.P,R8,2*%
%TO.N,Net-(Q2-B)*%
X225620000Y-119195000D03*
D22*
%TO.P,R8,1*%
%TO.N,SHIFT*%
X225620000Y-109035000D03*
%TD*%
D23*
%TO.P,U3,1,PC6*%
%TO.N,unconnected-(U3-PC6-Pad1)*%
X232780000Y-93480000D03*
D13*
%TO.P,U3,2,PD0*%
%TO.N,unconnected-(U3-PD0-Pad2)*%
X230240000Y-93480000D03*
%TO.P,U3,3,PD1*%
%TO.N,unconnected-(U3-PD1-Pad3)*%
X227700000Y-93480000D03*
%TO.P,U3,4,PD2*%
%TO.N,MTDATA*%
X225160000Y-93480000D03*
%TO.P,U3,5,PD3*%
%TO.N,PS2-CLK*%
X222620000Y-93480000D03*
%TO.P,U3,6,PD4*%
%TO.N,MTSTROBE*%
X220080000Y-93480000D03*
%TO.P,U3,7,VCC*%
%TO.N,+5V*%
X217540000Y-93480000D03*
%TO.P,U3,8,GND*%
%TO.N,GND*%
X215000000Y-93480000D03*
%TO.P,U3,9,PB6*%
%TO.N,Net-(U3-PB6)*%
X212460000Y-93480000D03*
%TO.P,U3,10,PB7*%
%TO.N,Net-(U3-PB7)*%
X209920000Y-93480000D03*
%TO.P,U3,11,PD5*%
%TO.N,AY2*%
X207380000Y-93480000D03*
%TO.P,U3,12,PD6*%
%TO.N,AY1*%
X204840000Y-93480000D03*
%TO.P,U3,13,PD7*%
%TO.N,AY0*%
X202300000Y-93480000D03*
%TO.P,U3,14,PB0*%
%TO.N,AX2*%
X199760000Y-93480000D03*
%TO.P,U3,15,PB1*%
%TO.N,AX1*%
X199760000Y-101100000D03*
%TO.P,U3,16,PB2*%
%TO.N,AX0*%
X202300000Y-101100000D03*
%TO.P,U3,17,PB3*%
%TO.N,AX3*%
X204840000Y-101100000D03*
%TO.P,U3,18,PB4*%
%TO.N,PS2-DATA*%
X207380000Y-101100000D03*
%TO.P,U3,19,PB5*%
%TO.N,MTRESET*%
X209920000Y-101100000D03*
%TO.P,U3,20,AVCC*%
%TO.N,+5V*%
X212460000Y-101100000D03*
%TO.P,U3,21,AREF*%
%TO.N,Net-(U3-AREF)*%
X215000000Y-101100000D03*
%TO.P,U3,22,GND*%
%TO.N,GND*%
X217540000Y-101100000D03*
%TO.P,U3,23,PC0*%
%TO.N,SHIFT*%
X220080000Y-101100000D03*
%TO.P,U3,24,PC1*%
%TO.N,unconnected-(U3-PC1-Pad24)*%
X222620000Y-101100000D03*
%TO.P,U3,25,PC2*%
%TO.N,CTRL*%
X225160000Y-101100000D03*
%TO.P,U3,26,PC3*%
%TO.N,GRPH*%
X227700000Y-101100000D03*
%TO.P,U3,27,PC4*%
%TO.N,unconnected-(U3-PC4-Pad27)*%
X230240000Y-101100000D03*
%TO.P,U3,28,PC5*%
%TO.N,unconnected-(U3-PC5-Pad28)*%
X232780000Y-101100000D03*
%TD*%
D24*
%TO.P,J3,1,Pin_1*%
%TO.N,+5V*%
X221960000Y-83800000D03*
D25*
%TO.P,J3,2,Pin_2*%
%TO.N,GND*%
X221960000Y-81300000D03*
%TD*%
D13*
%TO.P,C1,1*%
%TO.N,+5V*%
X172010000Y-102240000D03*
%TO.P,C1,2*%
%TO.N,GND*%
X169470000Y-102240000D03*
%TD*%
D22*
%TO.P,R9,1*%
%TO.N,CTRL*%
X222580000Y-106025000D03*
D21*
%TO.P,R9,2*%
%TO.N,Net-(Q3-B)*%
X232740000Y-106025000D03*
%TD*%
D26*
%TO.P,Q3,1,C*%
%TO.N,~{CTRL}*%
X228970000Y-128205000D03*
%TO.P,Q3,2,B*%
%TO.N,Net-(Q3-B)*%
X231510000Y-125665000D03*
%TO.P,Q3,3,E*%
%TO.N,GND*%
X234050000Y-128205000D03*
%TD*%
%TO.P,Q2,1,C*%
%TO.N,~{SHIFT}*%
X228970000Y-120815000D03*
%TO.P,Q2,2,B*%
%TO.N,Net-(Q2-B)*%
X231510000Y-118275000D03*
%TO.P,Q2,3,E*%
%TO.N,GND*%
X234050000Y-120815000D03*
%TD*%
D20*
%TO.P,D2,1,K*%
%TO.N,Net-(D2-K)*%
X188850000Y-83710000D03*
D19*
%TO.P,D2,2,A*%
%TO.N,+5V*%
X191390000Y-83710000D03*
%TD*%
D22*
%TO.P,R3,1*%
%TO.N,Net-(D2-K)*%
X199190000Y-88990000D03*
D21*
%TO.P,R3,2*%
%TO.N,GND*%
X199190000Y-78830000D03*
%TD*%
D26*
%TO.P,Q4,1,C*%
%TO.N,~{GRPH}*%
X228970000Y-113455000D03*
%TO.P,Q4,2,B*%
%TO.N,Net-(Q4-B)*%
X231510000Y-110915000D03*
%TO.P,Q4,3,E*%
%TO.N,GND*%
X234050000Y-113455000D03*
%TD*%
D22*
%TO.P,R10,1*%
%TO.N,GRPH*%
X222610000Y-109035000D03*
D21*
%TO.P,R10,2*%
%TO.N,Net-(Q4-B)*%
X222610000Y-119195000D03*
%TD*%
D27*
%TO.P,U1,1,Y3*%
%TO.N,Y3*%
X217910000Y-104980000D03*
D28*
%TO.P,U1,2,AY2*%
%TO.N,AY2*%
X215370000Y-104980000D03*
%TO.P,U1,3,RESET*%
%TO.N,MTRESET*%
X212830000Y-104980000D03*
%TO.P,U1,4,AX3*%
%TO.N,AX3*%
X210290000Y-104980000D03*
%TO.P,U1,5,AX0*%
%TO.N,AX0*%
X207750000Y-104980000D03*
%TO.P,U1,6,X14*%
%TO.N,unconnected-(U1-X14-Pad6)*%
X205210000Y-104980000D03*
%TO.P,U1,7,X15*%
%TO.N,unconnected-(U1-X15-Pad7)*%
X202670000Y-104980000D03*
%TO.P,U1,8,X6*%
%TO.N,X6*%
X200130000Y-104980000D03*
%TO.P,U1,9,X7*%
%TO.N,X7*%
X197590000Y-104980000D03*
%TO.P,U1,10,X8*%
%TO.N,unconnected-(U1-X8-Pad10)*%
X195050000Y-104980000D03*
%TO.P,U1,11,X9*%
%TO.N,unconnected-(U1-X9-Pad11)*%
X192510000Y-104980000D03*
%TO.P,U1,12,X10*%
%TO.N,unconnected-(U1-X10-Pad12)*%
X189970000Y-104980000D03*
%TO.P,U1,13,X11*%
%TO.N,unconnected-(U1-X11-Pad13)*%
X187430000Y-104980000D03*
%TO.P,U1,14,N/C*%
%TO.N,unconnected-(U1-N{slash}C-Pad14)*%
X184890000Y-104980000D03*
%TO.P,U1,15,Y7*%
%TO.N,Y7*%
X182350000Y-104980000D03*
%TO.P,U1,16,VSS*%
%TO.N,GND*%
X179810000Y-104980000D03*
%TO.P,U1,17,Y6*%
%TO.N,Y6*%
X177270000Y-104980000D03*
%TO.P,U1,18,STROBE*%
%TO.N,MTSTROBE*%
X174730000Y-104980000D03*
%TO.P,U1,19,Y5*%
%TO.N,Y5*%
X172190000Y-104980000D03*
%TO.P,U1,20,VEE*%
%TO.N,GND*%
X169650000Y-104980000D03*
%TO.P,U1,21,Y4*%
%TO.N,Y4*%
X169650000Y-120220000D03*
%TO.P,U1,22,AX1*%
%TO.N,AX1*%
X172190000Y-120220000D03*
%TO.P,U1,23,AX2*%
%TO.N,AX2*%
X174730000Y-120220000D03*
%TO.P,U1,24,AY0*%
%TO.N,AY0*%
X177270000Y-120220000D03*
%TO.P,U1,25,AY1*%
%TO.N,AY1*%
X179810000Y-120220000D03*
%TO.P,U1,26,X13*%
%TO.N,unconnected-(U1-X13-Pad26)*%
X182350000Y-120220000D03*
%TO.P,U1,27,X12*%
%TO.N,unconnected-(U1-X12-Pad27)*%
X184890000Y-120220000D03*
%TO.P,U1,28,X5*%
%TO.N,X5*%
X187430000Y-120220000D03*
%TO.P,U1,29,X4*%
%TO.N,X4*%
X189970000Y-120220000D03*
%TO.P,U1,30,X3*%
%TO.N,X3*%
X192510000Y-120220000D03*
%TO.P,U1,31,X2*%
%TO.N,X2*%
X195050000Y-120220000D03*
%TO.P,U1,32,X1*%
%TO.N,X1*%
X197590000Y-120220000D03*
%TO.P,U1,33,X0*%
%TO.N,X0*%
X200130000Y-120220000D03*
%TO.P,U1,34,N/C*%
%TO.N,unconnected-(U1-N{slash}C-Pad34)*%
X202670000Y-120220000D03*
%TO.P,U1,35,Y0*%
%TO.N,Y0*%
X205210000Y-120220000D03*
%TO.P,U1,36,CS*%
%TO.N,+5V*%
X207750000Y-120220000D03*
%TO.P,U1,37,Y1*%
%TO.N,Y1*%
X210290000Y-120220000D03*
%TO.P,U1,38,DATA*%
%TO.N,MTDATA*%
X212830000Y-120220000D03*
%TO.P,U1,39,Y2*%
%TO.N,Y2*%
X215370000Y-120220000D03*
%TO.P,U1,40,VDD*%
%TO.N,+5V*%
X217910000Y-120220000D03*
%TD*%
D29*
%TO.N,X7*%
X197590000Y-106140000D02*
X197590000Y-104980000D01*
X186290000Y-106340000D02*
X197390000Y-106340000D01*
X183551000Y-125079000D02*
X183551000Y-109079000D01*
X183551000Y-109079000D02*
X186290000Y-106340000D01*
X182030000Y-126600000D02*
X183551000Y-125079000D01*
X197390000Y-106340000D02*
X197590000Y-106140000D01*
%TO.N,AX1*%
X199760000Y-98450000D02*
X199760000Y-101100000D01*
X182040000Y-98130000D02*
X199440000Y-98130000D01*
X176069000Y-104101000D02*
X182040000Y-98130000D01*
X176069000Y-105661000D02*
X176069000Y-104101000D01*
X172190000Y-109540000D02*
X176069000Y-105661000D01*
X199440000Y-98130000D02*
X199760000Y-98450000D01*
X172190000Y-120220000D02*
X172190000Y-109540000D01*
%TO.N,AX2*%
X178470000Y-103890000D02*
X180059000Y-102301000D01*
X180059000Y-102301000D02*
X200257471Y-102301000D01*
X200257471Y-102301000D02*
X200961000Y-101597471D01*
X178470000Y-105740000D02*
X178470000Y-103890000D01*
X200961000Y-101597471D02*
X200961000Y-94681000D01*
X200961000Y-94681000D02*
X199760000Y-93480000D01*
X174730000Y-109480000D02*
X178470000Y-105740000D01*
X174730000Y-120220000D02*
X174730000Y-109480000D01*
%TO.N,AY0*%
X203501000Y-94681000D02*
X202300000Y-93480000D01*
X203501000Y-101929000D02*
X203501000Y-94681000D01*
X181149000Y-105681000D02*
X181149000Y-104482529D01*
X181149000Y-104482529D02*
X182729529Y-102902000D01*
X202528000Y-102902000D02*
X203501000Y-101929000D01*
X177270000Y-109560000D02*
X181149000Y-105681000D01*
X182729529Y-102902000D02*
X202528000Y-102902000D01*
X177270000Y-120220000D02*
X177270000Y-109560000D01*
%TO.N,AY1*%
X206041000Y-94681000D02*
X204840000Y-93480000D01*
X184077000Y-103503000D02*
X205207000Y-103503000D01*
X183689000Y-105881000D02*
X183689000Y-103891000D01*
X179810000Y-109760000D02*
X183689000Y-105881000D01*
X183689000Y-103891000D02*
X184077000Y-103503000D01*
X205207000Y-103503000D02*
X206041000Y-102669000D01*
X179810000Y-120220000D02*
X179810000Y-109760000D01*
X206041000Y-102669000D02*
X206041000Y-94681000D01*
%TO.N,X6*%
X200130000Y-106660000D02*
X200130000Y-104980000D01*
X188630000Y-107080000D02*
X199710000Y-107080000D01*
X199710000Y-107080000D02*
X200130000Y-106660000D01*
X186091000Y-125039000D02*
X186091000Y-109619000D01*
X184530000Y-126600000D02*
X186091000Y-125039000D01*
X186091000Y-109619000D02*
X188630000Y-107080000D01*
%TO.N,Y5*%
X207030000Y-133140000D02*
X207030000Y-131600000D01*
X170110000Y-125660000D02*
X170110000Y-132800000D01*
X170920000Y-133610000D02*
X206560000Y-133610000D01*
X170989000Y-124781000D02*
X170110000Y-125660000D01*
X170989000Y-106181000D02*
X170989000Y-124781000D01*
X170110000Y-132800000D02*
X170920000Y-133610000D01*
X206560000Y-133610000D02*
X207030000Y-133140000D01*
X172190000Y-104980000D02*
X170989000Y-106181000D01*
%TO.N,Y4*%
X169509000Y-120361000D02*
X169509000Y-133048942D01*
X208349000Y-134211000D02*
X209530000Y-133030000D01*
X209530000Y-133030000D02*
X209530000Y-131600000D01*
X169650000Y-120220000D02*
X169509000Y-120361000D01*
X169509000Y-133048942D02*
X170671058Y-134211000D01*
X170671058Y-134211000D02*
X208349000Y-134211000D01*
%TO.N,MTSTROBE*%
X220080000Y-92150000D02*
X220080000Y-93480000D01*
X219140000Y-91210000D02*
X220080000Y-92150000D01*
X174730000Y-102910000D02*
X186430000Y-91210000D01*
X174730000Y-104980000D02*
X174730000Y-102910000D01*
X186430000Y-91210000D02*
X219140000Y-91210000D01*
D30*
%TO.N,+5V*%
X171360000Y-99990000D02*
X167669371Y-99990000D01*
X172010000Y-100640000D02*
X171360000Y-99990000D01*
X172010000Y-102240000D02*
X172010000Y-100640000D01*
X167669371Y-110981590D02*
X167669371Y-99990000D01*
X179870000Y-89320000D02*
X179870000Y-77861000D01*
X175520000Y-91160000D02*
X178030000Y-91160000D01*
X178030000Y-91160000D02*
X179870000Y-89320000D01*
X174850000Y-77861000D02*
X179870000Y-77861000D01*
X167699371Y-91160000D02*
X167669371Y-91130000D01*
X175520000Y-91160000D02*
X167699371Y-91160000D01*
X167669371Y-91130000D02*
X167669371Y-78722239D01*
X216900000Y-97280000D02*
X217540000Y-96640000D01*
X212460000Y-98240000D02*
X213420000Y-97280000D01*
X217540000Y-96640000D02*
X217540000Y-93480000D01*
X212460000Y-101100000D02*
X212460000Y-98240000D01*
X213420000Y-97280000D02*
X216900000Y-97280000D01*
X221290000Y-86000000D02*
X212940000Y-86000000D01*
X221380000Y-85910000D02*
X221290000Y-86000000D01*
X221960000Y-85910000D02*
X221960000Y-88180000D01*
X221960000Y-85910000D02*
X221380000Y-85910000D01*
D29*
%TO.N,Net-(D2-K)*%
X188850000Y-87790000D02*
X190050000Y-88990000D01*
X190050000Y-88990000D02*
X199190000Y-88990000D01*
X188850000Y-83710000D02*
X188850000Y-87790000D01*
%TO.N,+5V*%
X191390000Y-77871000D02*
X191400000Y-77861000D01*
X191390000Y-83710000D02*
X191390000Y-77871000D01*
D30*
X191400000Y-77861000D02*
X195731000Y-77861000D01*
D29*
%TO.N,Net-(Q2-B)*%
X226415000Y-118275000D02*
X231510000Y-118275000D01*
X225620000Y-119070000D02*
X226415000Y-118275000D01*
X225620000Y-119195000D02*
X225620000Y-119070000D01*
%TO.N,Net-(Q4-B)*%
X222610000Y-112620000D02*
X224315000Y-110915000D01*
X222610000Y-119195000D02*
X222610000Y-112620000D01*
X224315000Y-110915000D02*
X231510000Y-110915000D01*
%TO.N,GRPH*%
X226830000Y-110300000D02*
X222770000Y-110300000D01*
X227700000Y-109430000D02*
X226830000Y-110300000D01*
X222610000Y-110080000D02*
X222610000Y-109035000D01*
X227700000Y-101100000D02*
X227700000Y-109430000D01*
X222770000Y-110300000D02*
X222580000Y-110110000D01*
X222580000Y-110110000D02*
X222610000Y-110080000D01*
%TO.N,CTRL*%
X225160000Y-101100000D02*
X225160000Y-105080000D01*
X225160000Y-105080000D02*
X224215000Y-106025000D01*
X224215000Y-106025000D02*
X222580000Y-106025000D01*
%TO.N,SHIFT*%
X225620000Y-108250000D02*
X225620000Y-109035000D01*
X221320000Y-107790000D02*
X225160000Y-107790000D01*
X220080000Y-106550000D02*
X221320000Y-107790000D01*
X220080000Y-101100000D02*
X220080000Y-106550000D01*
X225160000Y-107790000D02*
X225620000Y-108250000D01*
%TO.N,MTDATA*%
X225160000Y-96520000D02*
X225160000Y-93480000D01*
X224600000Y-97080000D02*
X225160000Y-96520000D01*
X219440000Y-97080000D02*
X224600000Y-97080000D01*
X218741000Y-97779000D02*
X219440000Y-97080000D01*
X218741000Y-102329000D02*
X218741000Y-97779000D01*
X218000000Y-103070000D02*
X218741000Y-102329000D01*
X217350000Y-103070000D02*
X218000000Y-103070000D01*
X216680000Y-103740000D02*
X217350000Y-103070000D01*
X216680000Y-108180000D02*
X216680000Y-103740000D01*
X212830000Y-112030000D02*
X216680000Y-108180000D01*
X212830000Y-120220000D02*
X212830000Y-112030000D01*
%TO.N,AY2*%
X208581000Y-102771000D02*
X209220000Y-103410000D01*
X208581000Y-94681000D02*
X208581000Y-102771000D01*
X213800000Y-103410000D02*
X215370000Y-104980000D01*
X207380000Y-93480000D02*
X208581000Y-94681000D01*
X209220000Y-103410000D02*
X213800000Y-103410000D01*
%TO.N,PS2-CLK*%
X222620000Y-92120000D02*
X222620000Y-93480000D01*
X221109000Y-90609000D02*
X222620000Y-92120000D01*
X206729000Y-90609000D02*
X221109000Y-90609000D01*
X206140000Y-90020000D02*
X206729000Y-90609000D01*
X206140000Y-88800000D02*
X206140000Y-90020000D01*
D30*
%TO.N,+5V*%
X167661014Y-136787194D02*
X167661411Y-132960205D01*
X167669520Y-136990336D02*
X167661014Y-136787194D01*
X167740021Y-137160536D02*
X167669520Y-136990336D01*
X168029682Y-137350483D02*
X167859477Y-137279988D01*
X168233283Y-137359000D02*
X168029682Y-137350483D01*
X235434135Y-137359000D02*
X168233283Y-137359000D01*
X235640376Y-137350412D02*
X235434135Y-137359000D01*
X167859477Y-137279988D02*
X167740021Y-137160536D01*
X235810505Y-137279945D02*
X235640376Y-137350412D01*
X235929945Y-137160505D02*
X235810505Y-137279945D01*
X236000439Y-136990310D02*
X235929945Y-137160505D01*
X236009000Y-136785684D02*
X236000439Y-136990310D01*
X236009000Y-122960000D02*
X236009000Y-136785684D01*
X217910000Y-122960000D02*
X236009000Y-122960000D01*
D29*
%TO.N,Y0*%
X207210000Y-124950000D02*
X219060000Y-124950000D01*
X205210000Y-122950000D02*
X207210000Y-124950000D01*
X219060000Y-124950000D02*
X219530000Y-125420000D01*
X219530000Y-125420000D02*
X219530000Y-126600000D01*
X205210000Y-120220000D02*
X205210000Y-122950000D01*
D30*
%TO.N,+5V*%
X236009000Y-89454682D02*
X236009000Y-124350000D01*
X236000453Y-89249598D02*
X236009000Y-89454682D01*
X235929979Y-89079464D02*
X236000453Y-89249598D01*
X235810523Y-88960012D02*
X235929979Y-89079464D01*
X235640318Y-88889517D02*
X235810523Y-88960012D01*
X235436717Y-88881000D02*
X235640318Y-88889517D01*
X222661000Y-88881000D02*
X235436717Y-88881000D01*
X221960000Y-88180000D02*
X222661000Y-88881000D01*
X221960000Y-83800000D02*
X221960000Y-85910000D01*
X224649000Y-83800000D02*
X221960000Y-83800000D01*
X224959000Y-83490000D02*
X224649000Y-83800000D01*
X224760514Y-77940059D02*
X224879951Y-78059501D01*
X224590326Y-77869564D02*
X224760514Y-77940059D01*
X224385804Y-77861000D02*
X224590326Y-77869564D01*
X202239000Y-77861000D02*
X224385804Y-77861000D01*
X201790000Y-78310000D02*
X202239000Y-77861000D01*
X201790000Y-79720000D02*
X201790000Y-78310000D01*
X196760000Y-80440000D02*
X201070000Y-80440000D01*
X196430000Y-80110000D02*
X196760000Y-80440000D01*
X196430000Y-78560000D02*
X196430000Y-80110000D01*
X195731000Y-77861000D02*
X196430000Y-78560000D01*
X174841443Y-77869557D02*
X174850000Y-77861000D01*
X168035769Y-77869557D02*
X174841443Y-77869557D01*
X167865587Y-77940046D02*
X168035769Y-77869557D01*
X167746142Y-78059493D02*
X167865587Y-77940046D01*
X167675650Y-78229686D02*
X167746142Y-78059493D01*
X167667098Y-78434116D02*
X167675650Y-78229686D01*
X167667118Y-78719986D02*
X167667098Y-78434116D01*
X167669371Y-78722239D02*
X167667118Y-78719986D01*
X179870000Y-77861000D02*
X191400000Y-77861000D01*
X167669371Y-99990000D02*
X167669371Y-91130000D01*
X167670946Y-133547468D02*
X167669371Y-110981590D01*
X224950467Y-78229756D02*
X224959000Y-78432777D01*
X201070000Y-80440000D02*
X201790000Y-79720000D01*
X224879951Y-78059501D02*
X224950467Y-78229756D01*
X224959000Y-78432777D02*
X224959000Y-83490000D01*
X217910000Y-120220000D02*
X217910000Y-122960000D01*
X208490000Y-122960000D02*
X217910000Y-122960000D01*
X207750000Y-122220000D02*
X208490000Y-122960000D01*
X207750000Y-120220000D02*
X207750000Y-122220000D01*
%TD*%
%TA.AperFunction,Conductor*%
%TO.N,+5V*%
G36*
X214171446Y-105541487D02*
G01*
X214210485Y-105586541D01*
X214250873Y-105665806D01*
X214371926Y-105832423D01*
X214371930Y-105832428D01*
X214517571Y-105978069D01*
X214517576Y-105978073D01*
X214616345Y-106049832D01*
X214684197Y-106099129D01*
X214796693Y-106156449D01*
X214867705Y-106192632D01*
X214867707Y-106192632D01*
X214867710Y-106192634D01*
X214930818Y-106213139D01*
X215063591Y-106256280D01*
X215073100Y-106257786D01*
X215267019Y-106288500D01*
X215267020Y-106288500D01*
X215472980Y-106288500D01*
X215472981Y-106288500D01*
X215676408Y-106256280D01*
X215809182Y-106213138D01*
X215879022Y-106211144D01*
X215938855Y-106247224D01*
X215969684Y-106309925D01*
X215971500Y-106331070D01*
X215971500Y-107835166D01*
X215951815Y-107902205D01*
X215935181Y-107922847D01*
X212279674Y-111578353D01*
X212279671Y-111578356D01*
X212202135Y-111694398D01*
X212202132Y-111694403D01*
X212191490Y-111720099D01*
X212191489Y-111720102D01*
X212148727Y-111823337D01*
X212148725Y-111823345D01*
X212121500Y-111960214D01*
X212121500Y-119054179D01*
X212101815Y-119121218D01*
X212070385Y-119154497D01*
X211977576Y-119221926D01*
X211977571Y-119221930D01*
X211831930Y-119367571D01*
X211831926Y-119367576D01*
X211710871Y-119534195D01*
X211670484Y-119613459D01*
X211622510Y-119664254D01*
X211554689Y-119681049D01*
X211488554Y-119658511D01*
X211449516Y-119613459D01*
X211409128Y-119534195D01*
X211288073Y-119367576D01*
X211288069Y-119367571D01*
X211142428Y-119221930D01*
X211142423Y-119221926D01*
X210975806Y-119100873D01*
X210975805Y-119100872D01*
X210975803Y-119100871D01*
X210918496Y-119071671D01*
X210792294Y-119007367D01*
X210596408Y-118943719D01*
X210420794Y-118915905D01*
X210392981Y-118911500D01*
X210187019Y-118911500D01*
X210162550Y-118915375D01*
X209983591Y-118943719D01*
X209787705Y-119007367D01*
X209604193Y-119100873D01*
X209437576Y-119221926D01*
X209437571Y-119221930D01*
X209291930Y-119367571D01*
X209291926Y-119367576D01*
X209170871Y-119534195D01*
X209125714Y-119622820D01*
X209077740Y-119673615D01*
X209009918Y-119690410D01*
X208943784Y-119667872D01*
X208904745Y-119622818D01*
X208861861Y-119538652D01*
X208741582Y-119373105D01*
X208741582Y-119373104D01*
X208596895Y-119228417D01*
X208431349Y-119108140D01*
X208249029Y-119015244D01*
X208054413Y-118952009D01*
X208000000Y-118943390D01*
X208000000Y-119904314D01*
X207995606Y-119899920D01*
X207904394Y-119847259D01*
X207802661Y-119820000D01*
X207697339Y-119820000D01*
X207595606Y-119847259D01*
X207504394Y-119899920D01*
X207500000Y-119904314D01*
X207500000Y-118943390D01*
X207445586Y-118952009D01*
X207250970Y-119015244D01*
X207068650Y-119108140D01*
X206903105Y-119228417D01*
X206903104Y-119228417D01*
X206758417Y-119373104D01*
X206758417Y-119373105D01*
X206638140Y-119538650D01*
X206595254Y-119622819D01*
X206547279Y-119673615D01*
X206479458Y-119690410D01*
X206413323Y-119667872D01*
X206374284Y-119622819D01*
X206329129Y-119534197D01*
X206288293Y-119477991D01*
X206208073Y-119367576D01*
X206208069Y-119367571D01*
X206062428Y-119221930D01*
X206062423Y-119221926D01*
X205895806Y-119100873D01*
X205895805Y-119100872D01*
X205895803Y-119100871D01*
X205838496Y-119071671D01*
X205712294Y-119007367D01*
X205516408Y-118943719D01*
X205340794Y-118915905D01*
X205312981Y-118911500D01*
X205107019Y-118911500D01*
X205082550Y-118915375D01*
X204903591Y-118943719D01*
X204707705Y-119007367D01*
X204524193Y-119100873D01*
X204357576Y-119221926D01*
X204357571Y-119221930D01*
X204211930Y-119367571D01*
X204211926Y-119367576D01*
X204090871Y-119534195D01*
X204050484Y-119613459D01*
X204002510Y-119664254D01*
X203934689Y-119681049D01*
X203868554Y-119658511D01*
X203829516Y-119613459D01*
X203789128Y-119534195D01*
X203668073Y-119367576D01*
X203668069Y-119367571D01*
X203522428Y-119221930D01*
X203522423Y-119221926D01*
X203355806Y-119100873D01*
X203355805Y-119100872D01*
X203355803Y-119100871D01*
X203298496Y-119071671D01*
X203172294Y-119007367D01*
X202976408Y-118943719D01*
X202800794Y-118915905D01*
X202772981Y-118911500D01*
X202567019Y-118911500D01*
X202542550Y-118915375D01*
X202363591Y-118943719D01*
X202167705Y-119007367D01*
X201984193Y-119100873D01*
X201817576Y-119221926D01*
X201817571Y-119221930D01*
X201671930Y-119367571D01*
X201671926Y-119367576D01*
X201550871Y-119534195D01*
X201510484Y-119613459D01*
X201462510Y-119664254D01*
X201394689Y-119681049D01*
X201328554Y-119658511D01*
X201289516Y-119613459D01*
X201249128Y-119534195D01*
X201128073Y-119367576D01*
X201128069Y-119367571D01*
X200982428Y-119221930D01*
X200982423Y-119221926D01*
X200815806Y-119100873D01*
X200815805Y-119100872D01*
X200815803Y-119100871D01*
X200758496Y-119071671D01*
X200632294Y-119007367D01*
X200436408Y-118943719D01*
X200260794Y-118915905D01*
X200232981Y-118911500D01*
X200027019Y-118911500D01*
X200002550Y-118915375D01*
X199823591Y-118943719D01*
X199627705Y-119007367D01*
X199444193Y-119100873D01*
X199277576Y-119221926D01*
X199277571Y-119221930D01*
X199131930Y-119367571D01*
X199131926Y-119367576D01*
X199010871Y-119534195D01*
X198970484Y-119613459D01*
X198922510Y-119664254D01*
X198854689Y-119681049D01*
X198788554Y-119658511D01*
X198749516Y-119613459D01*
X198709128Y-119534195D01*
X198588073Y-119367576D01*
X198588069Y-119367571D01*
X198442428Y-119221930D01*
X198442423Y-119221926D01*
X198275806Y-119100873D01*
X198275805Y-119100872D01*
X198275803Y-119100871D01*
X198218496Y-119071671D01*
X198092294Y-119007367D01*
X197896408Y-118943719D01*
X197720794Y-118915905D01*
X197692981Y-118911500D01*
X197487019Y-118911500D01*
X197462550Y-118915375D01*
X197283591Y-118943719D01*
X197087705Y-119007367D01*
X196904193Y-119100873D01*
X196737576Y-119221926D01*
X196737571Y-119221930D01*
X196591930Y-119367571D01*
X196591926Y-119367576D01*
X196470871Y-119534195D01*
X196430484Y-119613459D01*
X196382510Y-119664254D01*
X196314689Y-119681049D01*
X196248554Y-119658511D01*
X196209516Y-119613459D01*
X196169128Y-119534195D01*
X196048073Y-119367576D01*
X196048069Y-119367571D01*
X195902428Y-119221930D01*
X195902423Y-119221926D01*
X195735806Y-119100873D01*
X195735805Y-119100872D01*
X195735803Y-119100871D01*
X195678496Y-119071671D01*
X195552294Y-119007367D01*
X195356408Y-118943719D01*
X195180794Y-118915905D01*
X195152981Y-118911500D01*
X194947019Y-118911500D01*
X194922550Y-118915375D01*
X194743591Y-118943719D01*
X194547705Y-119007367D01*
X194364193Y-119100873D01*
X194197576Y-119221926D01*
X194197571Y-119221930D01*
X194051930Y-119367571D01*
X194051926Y-119367576D01*
X193930871Y-119534195D01*
X193890484Y-119613459D01*
X193842510Y-119664254D01*
X193774689Y-119681049D01*
X193708554Y-119658511D01*
X193669516Y-119613459D01*
X193629128Y-119534195D01*
X193508073Y-119367576D01*
X193508069Y-119367571D01*
X193362428Y-119221930D01*
X193362423Y-119221926D01*
X193195806Y-119100873D01*
X193195805Y-119100872D01*
X193195803Y-119100871D01*
X193138496Y-119071671D01*
X193012294Y-119007367D01*
X192816408Y-118943719D01*
X192640794Y-118915905D01*
X192612981Y-118911500D01*
X192407019Y-118911500D01*
X192382550Y-118915375D01*
X192203591Y-118943719D01*
X192007705Y-119007367D01*
X191824193Y-119100873D01*
X191657576Y-119221926D01*
X191657571Y-119221930D01*
X191511930Y-119367571D01*
X191511926Y-119367576D01*
X191390871Y-119534195D01*
X191350484Y-119613459D01*
X191302510Y-119664254D01*
X191234689Y-119681049D01*
X191168554Y-119658511D01*
X191129516Y-119613459D01*
X191089128Y-119534195D01*
X190968073Y-119367576D01*
X190968069Y-119367571D01*
X190822428Y-119221930D01*
X190822423Y-119221926D01*
X190655806Y-119100873D01*
X190655805Y-119100872D01*
X190655803Y-119100871D01*
X190598496Y-119071671D01*
X190472294Y-119007367D01*
X190276408Y-118943719D01*
X190100794Y-118915905D01*
X190072981Y-118911500D01*
X189867019Y-118911500D01*
X189842550Y-118915375D01*
X189663591Y-118943719D01*
X189467705Y-119007367D01*
X189284193Y-119100873D01*
X189117576Y-119221926D01*
X189117571Y-119221930D01*
X188971930Y-119367571D01*
X188971926Y-119367576D01*
X188850871Y-119534195D01*
X188810484Y-119613459D01*
X188762510Y-119664254D01*
X188694689Y-119681049D01*
X188628554Y-119658511D01*
X188589516Y-119613459D01*
X188549128Y-119534195D01*
X188428073Y-119367576D01*
X188428069Y-119367571D01*
X188282428Y-119221930D01*
X188282423Y-119221926D01*
X188115806Y-119100873D01*
X188115805Y-119100872D01*
X188115803Y-119100871D01*
X188058496Y-119071671D01*
X187932294Y-119007367D01*
X187736408Y-118943719D01*
X187560794Y-118915905D01*
X187532981Y-118911500D01*
X187327019Y-118911500D01*
X187259210Y-118922240D01*
X187123590Y-118943720D01*
X187123587Y-118943720D01*
X186961818Y-118996283D01*
X186891977Y-118998278D01*
X186832144Y-118962198D01*
X186801316Y-118899497D01*
X186799500Y-118878352D01*
X186799500Y-109963833D01*
X186819185Y-109896794D01*
X186835819Y-109876152D01*
X188887152Y-107824819D01*
X188948475Y-107791334D01*
X188974833Y-107788500D01*
X199779782Y-107788500D01*
X199848221Y-107774886D01*
X199916662Y-107761273D01*
X199954427Y-107745630D01*
X200045601Y-107707865D01*
X200161643Y-107630328D01*
X200680328Y-107111642D01*
X200680330Y-107111640D01*
X200757861Y-106995606D01*
X200757861Y-106995605D01*
X200757865Y-106995600D01*
X200808507Y-106873339D01*
X200811273Y-106866662D01*
X200838500Y-106729781D01*
X200838500Y-106145819D01*
X200858185Y-106078780D01*
X200889614Y-106045501D01*
X200982430Y-105978068D01*
X201128068Y-105832430D01*
X201249129Y-105665803D01*
X201289515Y-105586540D01*
X201337490Y-105535745D01*
X201405311Y-105518950D01*
X201471446Y-105541487D01*
X201510485Y-105586541D01*
X201550873Y-105665806D01*
X201671926Y-105832423D01*
X201671930Y-105832428D01*
X201817571Y-105978069D01*
X201817576Y-105978073D01*
X201916345Y-106049832D01*
X201984197Y-106099129D01*
X202096693Y-106156449D01*
X202167705Y-106192632D01*
X202167707Y-106192632D01*
X202167710Y-106192634D01*
X202230818Y-106213139D01*
X202363591Y-106256280D01*
X202373100Y-106257786D01*
X202567019Y-106288500D01*
X202567020Y-106288500D01*
X202772980Y-106288500D01*
X202772981Y-106288500D01*
X202976408Y-106256280D01*
X203172290Y-106192634D01*
X203355803Y-106099129D01*
X203522430Y-105978068D01*
X203668068Y-105832430D01*
X203789129Y-105665803D01*
X203829515Y-105586540D01*
X203877490Y-105535745D01*
X203945311Y-105518950D01*
X204011446Y-105541487D01*
X204050485Y-105586541D01*
X204090873Y-105665806D01*
X204211926Y-105832423D01*
X204211930Y-105832428D01*
X204357571Y-105978069D01*
X204357576Y-105978073D01*
X204456345Y-106049832D01*
X204524197Y-106099129D01*
X204636693Y-106156449D01*
X204707705Y-106192632D01*
X204707707Y-106192632D01*
X204707710Y-106192634D01*
X204770818Y-106213139D01*
X204903591Y-106256280D01*
X204913100Y-106257786D01*
X205107019Y-106288500D01*
X205107020Y-106288500D01*
X205312980Y-106288500D01*
X205312981Y-106288500D01*
X205516408Y-106256280D01*
X205712290Y-106192634D01*
X205895803Y-106099129D01*
X206062430Y-105978068D01*
X206208068Y-105832430D01*
X206329129Y-105665803D01*
X206369515Y-105586540D01*
X206417490Y-105535745D01*
X206485311Y-105518950D01*
X206551446Y-105541487D01*
X206590485Y-105586541D01*
X206630873Y-105665806D01*
X206751926Y-105832423D01*
X206751930Y-105832428D01*
X206897571Y-105978069D01*
X206897576Y-105978073D01*
X206996345Y-106049832D01*
X207064197Y-106099129D01*
X207176693Y-106156449D01*
X207247705Y-106192632D01*
X207247707Y-106192632D01*
X207247710Y-106192634D01*
X207310818Y-106213139D01*
X207443591Y-106256280D01*
X207453100Y-106257786D01*
X207647019Y-106288500D01*
X207647020Y-106288500D01*
X207852980Y-106288500D01*
X207852981Y-106288500D01*
X208056408Y-106256280D01*
X208252290Y-106192634D01*
X208435803Y-106099129D01*
X208602430Y-105978068D01*
X208748068Y-105832430D01*
X208869129Y-105665803D01*
X208909515Y-105586540D01*
X208957490Y-105535745D01*
X209025311Y-105518950D01*
X209091446Y-105541487D01*
X209130485Y-105586541D01*
X209170873Y-105665806D01*
X209291926Y-105832423D01*
X209291930Y-105832428D01*
X209437571Y-105978069D01*
X209437576Y-105978073D01*
X209536345Y-106049832D01*
X209604197Y-106099129D01*
X209716693Y-106156449D01*
X209787705Y-106192632D01*
X209787707Y-106192632D01*
X209787710Y-106192634D01*
X209850818Y-106213139D01*
X209983591Y-106256280D01*
X209993100Y-106257786D01*
X210187019Y-106288500D01*
X210187020Y-106288500D01*
X210392980Y-106288500D01*
X210392981Y-106288500D01*
X210596408Y-106256280D01*
X210792290Y-106192634D01*
X210975803Y-106099129D01*
X211142430Y-105978068D01*
X211288068Y-105832430D01*
X211409129Y-105665803D01*
X211449515Y-105586540D01*
X211497490Y-105535745D01*
X211565311Y-105518950D01*
X211631446Y-105541487D01*
X211670485Y-105586541D01*
X211710873Y-105665806D01*
X211831926Y-105832423D01*
X211831930Y-105832428D01*
X211977571Y-105978069D01*
X211977576Y-105978073D01*
X212076345Y-106049832D01*
X212144197Y-106099129D01*
X212256693Y-106156449D01*
X212327705Y-106192632D01*
X212327707Y-106192632D01*
X212327710Y-106192634D01*
X212390818Y-106213139D01*
X212523591Y-106256280D01*
X212533100Y-106257786D01*
X212727019Y-106288500D01*
X212727020Y-106288500D01*
X212932980Y-106288500D01*
X212932981Y-106288500D01*
X213136408Y-106256280D01*
X213332290Y-106192634D01*
X213515803Y-106099129D01*
X213682430Y-105978068D01*
X213828068Y-105832430D01*
X213949129Y-105665803D01*
X213989515Y-105586540D01*
X214037490Y-105535745D01*
X214105311Y-105518950D01*
X214171446Y-105541487D01*
G37*
%TD.AperFunction*%
%TA.AperFunction,Conductor*%
G36*
X171610000Y-102292661D02*
G01*
X171637259Y-102394394D01*
X171689920Y-102485606D01*
X171764394Y-102560080D01*
X171855606Y-102612741D01*
X171957339Y-102640000D01*
X171963553Y-102640000D01*
X171284076Y-103319474D01*
X171328650Y-103351859D01*
X171510968Y-103444755D01*
X171705579Y-103507989D01*
X171720097Y-103510288D01*
X171783233Y-103540216D01*
X171820166Y-103599526D01*
X171819170Y-103669389D01*
X171780562Y-103727623D01*
X171739024Y-103750692D01*
X171687708Y-103767366D01*
X171504193Y-103860873D01*
X171337576Y-103981926D01*
X171337571Y-103981930D01*
X171191930Y-104127571D01*
X171191926Y-104127576D01*
X171070871Y-104294195D01*
X171030484Y-104373459D01*
X170982510Y-104424254D01*
X170914689Y-104441049D01*
X170848554Y-104418511D01*
X170809516Y-104373459D01*
X170769128Y-104294195D01*
X170648073Y-104127576D01*
X170648069Y-104127571D01*
X170502428Y-103981930D01*
X170502423Y-103981926D01*
X170335806Y-103860873D01*
X170335805Y-103860872D01*
X170335803Y-103860871D01*
X170257982Y-103821219D01*
X170152294Y-103767367D01*
X169956408Y-103703719D01*
X169951680Y-103702585D01*
X169952005Y-103701230D01*
X169894547Y-103673976D01*
X169857629Y-103614657D01*
X169858642Y-103544794D01*
X169897265Y-103486570D01*
X169938778Y-103463522D01*
X169972290Y-103452634D01*
X170155803Y-103359129D01*
X170322430Y-103238068D01*
X170468068Y-103092430D01*
X170589129Y-102925803D01*
X170634284Y-102837180D01*
X170682258Y-102786384D01*
X170750079Y-102769589D01*
X170816214Y-102792126D01*
X170855254Y-102837180D01*
X170898141Y-102921350D01*
X170898147Y-102921359D01*
X170930523Y-102965921D01*
X170930524Y-102965922D01*
X171610000Y-102286446D01*
X171610000Y-102292661D01*
G37*
%TD.AperFunction*%
%TA.AperFunction,Conductor*%
G36*
X212060000Y-101152661D02*
G01*
X212087259Y-101254394D01*
X212139920Y-101345606D01*
X212214394Y-101420080D01*
X212305606Y-101472741D01*
X212407339Y-101500000D01*
X212413553Y-101500000D01*
X211734076Y-102179474D01*
X211778650Y-102211859D01*
X211960968Y-102304755D01*
X212155582Y-102367990D01*
X212357683Y-102400000D01*
X212562317Y-102400000D01*
X212764417Y-102367990D01*
X212959031Y-102304755D01*
X213141349Y-102211859D01*
X213185921Y-102179474D01*
X212506447Y-101500000D01*
X212512661Y-101500000D01*
X212614394Y-101472741D01*
X212705606Y-101420080D01*
X212780080Y-101345606D01*
X212832741Y-101254394D01*
X212860000Y-101152661D01*
X212860000Y-101146447D01*
X213539474Y-101825921D01*
X213571861Y-101781347D01*
X213571861Y-101781346D01*
X213614745Y-101697181D01*
X213662718Y-101646385D01*
X213730539Y-101629589D01*
X213796674Y-101652126D01*
X213835715Y-101697180D01*
X213878602Y-101781350D01*
X213880873Y-101785806D01*
X214001926Y-101952423D01*
X214001930Y-101952428D01*
X214147571Y-102098069D01*
X214147576Y-102098073D01*
X214286189Y-102198780D01*
X214314197Y-102219129D01*
X214431128Y-102278709D01*
X214497705Y-102312632D01*
X214497707Y-102312632D01*
X214497710Y-102312634D01*
X214567958Y-102335459D01*
X214693591Y-102376280D01*
X214760864Y-102386935D01*
X214897019Y-102408500D01*
X214897020Y-102408500D01*
X215102980Y-102408500D01*
X215102981Y-102408500D01*
X215306408Y-102376280D01*
X215502290Y-102312634D01*
X215685803Y-102219129D01*
X215852430Y-102098068D01*
X215998068Y-101952430D01*
X216119129Y-101785803D01*
X216159515Y-101706540D01*
X216207490Y-101655745D01*
X216275311Y-101638950D01*
X216341446Y-101661487D01*
X216380484Y-101706540D01*
X216418602Y-101781350D01*
X216420873Y-101785806D01*
X216541926Y-101952423D01*
X216541930Y-101952428D01*
X216687571Y-102098069D01*
X216687576Y-102098073D01*
X216826189Y-102198780D01*
X216854197Y-102219129D01*
X216945831Y-102265819D01*
X216945939Y-102265874D01*
X216996735Y-102313849D01*
X217013530Y-102381670D01*
X216990992Y-102447805D01*
X216958536Y-102479460D01*
X216898359Y-102519669D01*
X216898353Y-102519674D01*
X216129671Y-103288356D01*
X216052138Y-103404393D01*
X216052133Y-103404403D01*
X216032155Y-103452635D01*
X215998728Y-103533333D01*
X215998725Y-103533345D01*
X215974549Y-103654886D01*
X215942164Y-103716797D01*
X215881449Y-103751371D01*
X215814614Y-103748626D01*
X215773948Y-103735412D01*
X215676408Y-103703719D01*
X215492642Y-103674614D01*
X215472981Y-103671500D01*
X215267019Y-103671500D01*
X215225938Y-103678006D01*
X215153705Y-103689447D01*
X215084411Y-103680492D01*
X215046626Y-103654655D01*
X214251646Y-102859674D01*
X214251638Y-102859668D01*
X214135603Y-102782136D01*
X214135599Y-102782134D01*
X214105313Y-102769589D01*
X214044427Y-102744369D01*
X214044426Y-102744368D01*
X214006664Y-102728727D01*
X214006658Y-102728725D01*
X213938221Y-102715113D01*
X213869785Y-102701500D01*
X213869782Y-102701500D01*
X213869781Y-102701500D01*
X209564832Y-102701500D01*
X209497793Y-102681815D01*
X209477151Y-102665181D01*
X209405523Y-102593553D01*
X209348748Y-102536777D01*
X209315264Y-102475456D01*
X209320248Y-102405764D01*
X209362120Y-102349831D01*
X209427584Y-102325414D01*
X209474748Y-102331167D01*
X209511105Y-102342980D01*
X209613592Y-102376280D01*
X209817019Y-102408500D01*
X209817020Y-102408500D01*
X210022980Y-102408500D01*
X210022981Y-102408500D01*
X210226408Y-102376280D01*
X210422290Y-102312634D01*
X210605803Y-102219129D01*
X210772430Y-102098068D01*
X210918068Y-101952430D01*
X211039129Y-101785803D01*
X211084284Y-101697180D01*
X211132258Y-101646384D01*
X211200079Y-101629589D01*
X211266214Y-101652126D01*
X211305254Y-101697180D01*
X211348141Y-101781350D01*
X211348147Y-101781359D01*
X211380523Y-101825921D01*
X211380524Y-101825922D01*
X212060000Y-101146446D01*
X212060000Y-101152661D01*
G37*
%TD.AperFunction*%
%TA.AperFunction,Conductor*%
G36*
X218862206Y-91938185D02*
G01*
X218882848Y-91954819D01*
X219231090Y-92303060D01*
X219264575Y-92364383D01*
X219259591Y-92434074D01*
X219229682Y-92477154D01*
X219231015Y-92478487D01*
X219081930Y-92627571D01*
X219081926Y-92627576D01*
X218960871Y-92794195D01*
X218915714Y-92882820D01*
X218867740Y-92933615D01*
X218799918Y-92950410D01*
X218733784Y-92927872D01*
X218694745Y-92882818D01*
X218651861Y-92798652D01*
X218619474Y-92754077D01*
X218619474Y-92754076D01*
X217940000Y-93433551D01*
X217940000Y-93427339D01*
X217912741Y-93325606D01*
X217860080Y-93234394D01*
X217785606Y-93159920D01*
X217694394Y-93107259D01*
X217592661Y-93080000D01*
X217586446Y-93080000D01*
X218265922Y-92400524D01*
X218265921Y-92400523D01*
X218221359Y-92368147D01*
X218221350Y-92368141D01*
X218039031Y-92275244D01*
X217844417Y-92212009D01*
X217642317Y-92180000D01*
X217437683Y-92180000D01*
X217235582Y-92212009D01*
X217040968Y-92275244D01*
X216858644Y-92368143D01*
X216814077Y-92400523D01*
X216814077Y-92400524D01*
X217493554Y-93080000D01*
X217487339Y-93080000D01*
X217385606Y-93107259D01*
X217294394Y-93159920D01*
X217219920Y-93234394D01*
X217167259Y-93325606D01*
X217140000Y-93427339D01*
X217140000Y-93433553D01*
X216460524Y-92754077D01*
X216460523Y-92754077D01*
X216428143Y-92798645D01*
X216428141Y-92798648D01*
X216385253Y-92882820D01*
X216337279Y-92933615D01*
X216269457Y-92950410D01*
X216203323Y-92927872D01*
X216164284Y-92882819D01*
X216119129Y-92794197D01*
X216089980Y-92754076D01*
X215998073Y-92627576D01*
X215998069Y-92627571D01*
X215852428Y-92481930D01*
X215852423Y-92481926D01*
X215685806Y-92360873D01*
X215685805Y-92360872D01*
X215685803Y-92360871D01*
X215627119Y-92330970D01*
X215502294Y-92267367D01*
X215306408Y-92203719D01*
X215130794Y-92175905D01*
X215102981Y-92171500D01*
X214897019Y-92171500D01*
X214872550Y-92175375D01*
X214693591Y-92203719D01*
X214497705Y-92267367D01*
X214314193Y-92360873D01*
X214147576Y-92481926D01*
X214147571Y-92481930D01*
X214001930Y-92627571D01*
X214001926Y-92627576D01*
X213880871Y-92794195D01*
X213840484Y-92873459D01*
X213792510Y-92924254D01*
X213724689Y-92941049D01*
X213658554Y-92918511D01*
X213619516Y-92873459D01*
X213579128Y-92794195D01*
X213458073Y-92627576D01*
X213458069Y-92627571D01*
X213312428Y-92481930D01*
X213312423Y-92481926D01*
X213145806Y-92360873D01*
X213145805Y-92360872D01*
X213145803Y-92360871D01*
X213087119Y-92330970D01*
X212962294Y-92267367D01*
X212766408Y-92203719D01*
X212590794Y-92175905D01*
X212562981Y-92171500D01*
X212357019Y-92171500D01*
X212332550Y-92175375D01*
X212153591Y-92203719D01*
X211957705Y-92267367D01*
X211774193Y-92360873D01*
X211607576Y-92481926D01*
X211607571Y-92481930D01*
X211461930Y-92627571D01*
X211461926Y-92627576D01*
X211340871Y-92794195D01*
X211300484Y-92873459D01*
X211252510Y-92924254D01*
X211184689Y-92941049D01*
X211118554Y-92918511D01*
X211079516Y-92873459D01*
X211039128Y-92794195D01*
X210918073Y-92627576D01*
X210918069Y-92627571D01*
X210772428Y-92481930D01*
X210772423Y-92481926D01*
X210605806Y-92360873D01*
X210605805Y-92360872D01*
X210605803Y-92360871D01*
X210547119Y-92330970D01*
X210422294Y-92267367D01*
X210226408Y-92203719D01*
X210050794Y-92175905D01*
X210022981Y-92171500D01*
X209817019Y-92171500D01*
X209792550Y-92175375D01*
X209613591Y-92203719D01*
X209417705Y-92267367D01*
X209234193Y-92360873D01*
X209067576Y-92481926D01*
X209067571Y-92481930D01*
X208921930Y-92627571D01*
X208921926Y-92627576D01*
X208800871Y-92794195D01*
X208760484Y-92873459D01*
X208712510Y-92924254D01*
X208644689Y-92941049D01*
X208578554Y-92918511D01*
X208539516Y-92873459D01*
X208499128Y-92794195D01*
X208378073Y-92627576D01*
X208378069Y-92627571D01*
X208232428Y-92481930D01*
X208232423Y-92481926D01*
X208065806Y-92360873D01*
X208065805Y-92360872D01*
X208065803Y-92360871D01*
X208007119Y-92330970D01*
X207882294Y-92267367D01*
X207686408Y-92203719D01*
X207510794Y-92175905D01*
X207482981Y-92171500D01*
X207277019Y-92171500D01*
X207252550Y-92175375D01*
X207073591Y-92203719D01*
X206877705Y-92267367D01*
X206694193Y-92360873D01*
X206527576Y-92481926D01*
X206527571Y-92481930D01*
X206381930Y-92627571D01*
X206381926Y-92627576D01*
X206260871Y-92794195D01*
X206220484Y-92873459D01*
X206172510Y-92924254D01*
X206104689Y-92941049D01*
X206038554Y-92918511D01*
X205999516Y-92873459D01*
X205959128Y-92794195D01*
X205838073Y-92627576D01*
X205838069Y-92627571D01*
X205692428Y-92481930D01*
X205692423Y-92481926D01*
X205525806Y-92360873D01*
X205525805Y-92360872D01*
X205525803Y-92360871D01*
X205467119Y-92330970D01*
X205342294Y-92267367D01*
X205146408Y-92203719D01*
X204970794Y-92175905D01*
X204942981Y-92171500D01*
X204737019Y-92171500D01*
X204712550Y-92175375D01*
X204533591Y-92203719D01*
X204337705Y-92267367D01*
X204154193Y-92360873D01*
X203987576Y-92481926D01*
X203987571Y-92481930D01*
X203841930Y-92627571D01*
X203841926Y-92627576D01*
X203720871Y-92794195D01*
X203680484Y-92873459D01*
X203632510Y-92924254D01*
X203564689Y-92941049D01*
X203498554Y-92918511D01*
X203459516Y-92873459D01*
X203419128Y-92794195D01*
X203298073Y-92627576D01*
X203298069Y-92627571D01*
X203152428Y-92481930D01*
X203152423Y-92481926D01*
X202985806Y-92360873D01*
X202985805Y-92360872D01*
X202985803Y-92360871D01*
X202927119Y-92330970D01*
X202802294Y-92267367D01*
X202606408Y-92203719D01*
X202430794Y-92175905D01*
X202402981Y-92171500D01*
X202197019Y-92171500D01*
X202172550Y-92175375D01*
X201993591Y-92203719D01*
X201797705Y-92267367D01*
X201614193Y-92360873D01*
X201447576Y-92481926D01*
X201447571Y-92481930D01*
X201301930Y-92627571D01*
X201301926Y-92627576D01*
X201180871Y-92794195D01*
X201140484Y-92873459D01*
X201092510Y-92924254D01*
X201024689Y-92941049D01*
X200958554Y-92918511D01*
X200919516Y-92873459D01*
X200879128Y-92794195D01*
X200758073Y-92627576D01*
X200758069Y-92627571D01*
X200612428Y-92481930D01*
X200612423Y-92481926D01*
X200445806Y-92360873D01*
X200445805Y-92360872D01*
X200445803Y-92360871D01*
X200387119Y-92330970D01*
X200262294Y-92267367D01*
X200066408Y-92203719D01*
X199890794Y-92175905D01*
X199862981Y-92171500D01*
X199657019Y-92171500D01*
X199632550Y-92175375D01*
X199453591Y-92203719D01*
X199257705Y-92267367D01*
X199074193Y-92360873D01*
X198907576Y-92481926D01*
X198907571Y-92481930D01*
X198761930Y-92627571D01*
X198761926Y-92627576D01*
X198640873Y-92794193D01*
X198547367Y-92977705D01*
X198483719Y-93173591D01*
X198451500Y-93377019D01*
X198451500Y-93582980D01*
X198483719Y-93786408D01*
X198547367Y-93982294D01*
X198597433Y-94080552D01*
X198638602Y-94161350D01*
X198640873Y-94165806D01*
X198761926Y-94332423D01*
X198761930Y-94332428D01*
X198907571Y-94478069D01*
X198907576Y-94478073D01*
X199007223Y-94550470D01*
X199074197Y-94599129D01*
X199165831Y-94645819D01*
X199257705Y-94692632D01*
X199257707Y-94692632D01*
X199257710Y-94692634D01*
X199348437Y-94722113D01*
X199453591Y-94756280D01*
X199481296Y-94760668D01*
X199657019Y-94788500D01*
X199657020Y-94788500D01*
X199862979Y-94788500D01*
X199862981Y-94788500D01*
X199976294Y-94770552D01*
X199981720Y-94771253D01*
X199986847Y-94769341D01*
X200015997Y-94775682D01*
X200045588Y-94779506D01*
X200051193Y-94783338D01*
X200055120Y-94784193D01*
X200083374Y-94805344D01*
X200216181Y-94938151D01*
X200249666Y-94999474D01*
X200252500Y-95025832D01*
X200252500Y-97641166D01*
X200232815Y-97708205D01*
X200180011Y-97753960D01*
X200110853Y-97763904D01*
X200047297Y-97734879D01*
X200040819Y-97728847D01*
X199891646Y-97579674D01*
X199891638Y-97579668D01*
X199775603Y-97502136D01*
X199775599Y-97502134D01*
X199748896Y-97491073D01*
X199684427Y-97464369D01*
X199684426Y-97464368D01*
X199646664Y-97448727D01*
X199646658Y-97448725D01*
X199578221Y-97435113D01*
X199509785Y-97421500D01*
X199509782Y-97421500D01*
X199509781Y-97421500D01*
X182109781Y-97421500D01*
X181970218Y-97421500D01*
X181970214Y-97421500D01*
X181833341Y-97448725D01*
X181833340Y-97448726D01*
X181795573Y-97464368D01*
X181795572Y-97464369D01*
X181711602Y-97499151D01*
X181704394Y-97502137D01*
X181588361Y-97579668D01*
X181588353Y-97579674D01*
X175650181Y-103517847D01*
X175630744Y-103528459D01*
X175614011Y-103542960D01*
X175600679Y-103544876D01*
X175588858Y-103551332D01*
X175566771Y-103549752D01*
X175544853Y-103552904D01*
X175532601Y-103547308D01*
X175519166Y-103546348D01*
X175501439Y-103533077D01*
X175481297Y-103523879D01*
X175474014Y-103512547D01*
X175463233Y-103504476D01*
X175455495Y-103483730D01*
X175443523Y-103465101D01*
X175440371Y-103443182D01*
X175438816Y-103439012D01*
X175438500Y-103430166D01*
X175438500Y-103254832D01*
X175458185Y-103187793D01*
X175474819Y-103167151D01*
X179682141Y-98959829D01*
X183897198Y-94744771D01*
X183958519Y-94711288D01*
X184028211Y-94716272D01*
X184084144Y-94758144D01*
X184107350Y-94813056D01*
X184123719Y-94916408D01*
X184187367Y-95112294D01*
X184280873Y-95295806D01*
X184401926Y-95462423D01*
X184401930Y-95462428D01*
X184547571Y-95608069D01*
X184547576Y-95608073D01*
X184692908Y-95713661D01*
X184714197Y-95729129D01*
X184831128Y-95788709D01*
X184897705Y-95822632D01*
X184897707Y-95822632D01*
X184897710Y-95822634D01*
X184959264Y-95842634D01*
X185093591Y-95886280D01*
X185195305Y-95902390D01*
X185297019Y-95918500D01*
X185297020Y-95918500D01*
X185502980Y-95918500D01*
X185502981Y-95918500D01*
X185706408Y-95886280D01*
X185902290Y-95822634D01*
X186085803Y-95729129D01*
X186252430Y-95608068D01*
X186398068Y-95462430D01*
X186519129Y-95295803D01*
X186559515Y-95216540D01*
X186607490Y-95165745D01*
X186675311Y-95148950D01*
X186741446Y-95171487D01*
X186780485Y-95216541D01*
X186820873Y-95295806D01*
X186941926Y-95462423D01*
X186941930Y-95462428D01*
X187087571Y-95608069D01*
X187087576Y-95608073D01*
X187232908Y-95713661D01*
X187254197Y-95729129D01*
X187371128Y-95788709D01*
X187437705Y-95822632D01*
X187437707Y-95822632D01*
X187437710Y-95822634D01*
X187499264Y-95842634D01*
X187633591Y-95886280D01*
X187735305Y-95902390D01*
X187837019Y-95918500D01*
X187837020Y-95918500D01*
X188042980Y-95918500D01*
X188042981Y-95918500D01*
X188246408Y-95886280D01*
X188442290Y-95822634D01*
X188625803Y-95729129D01*
X188792430Y-95608068D01*
X188938068Y-95462430D01*
X189059129Y-95295803D01*
X189152634Y-95112290D01*
X189216280Y-94916408D01*
X189248500Y-94712981D01*
X189248500Y-94527019D01*
X191431500Y-94527019D01*
X191431500Y-94732980D01*
X191463719Y-94936408D01*
X191527367Y-95132294D01*
X191570294Y-95216541D01*
X191610680Y-95295803D01*
X191620873Y-95315806D01*
X191741926Y-95482423D01*
X191741930Y-95482428D01*
X191887571Y-95628069D01*
X191887576Y-95628073D01*
X192026665Y-95729126D01*
X192054197Y-95749129D01*
X192171128Y-95808709D01*
X192237705Y-95842632D01*
X192237707Y-95842632D01*
X192237710Y-95842634D01*
X192342707Y-95876749D01*
X192433591Y-95906280D01*
X192510745Y-95918500D01*
X192637019Y-95938500D01*
X192637020Y-95938500D01*
X192842980Y-95938500D01*
X192842981Y-95938500D01*
X193046408Y-95906280D01*
X193242290Y-95842634D01*
X193425803Y-95749129D01*
X193592430Y-95628068D01*
X193738068Y-95482430D01*
X193859129Y-95315803D01*
X193952634Y-95132290D01*
X194016280Y-94936408D01*
X194048500Y-94732981D01*
X194048500Y-94527019D01*
X194017680Y-94332430D01*
X194016280Y-94323591D01*
X193986749Y-94232707D01*
X193952634Y-94127710D01*
X193952632Y-94127707D01*
X193952632Y-94127705D01*
X193901006Y-94026385D01*
X193859129Y-93944197D01*
X193843661Y-93922908D01*
X193738073Y-93777576D01*
X193738069Y-93777571D01*
X193592428Y-93631930D01*
X193592423Y-93631926D01*
X193425806Y-93510873D01*
X193425805Y-93510872D01*
X193425803Y-93510871D01*
X193365214Y-93479999D01*
X193242294Y-93417367D01*
X193046408Y-93353719D01*
X192868905Y-93325606D01*
X192842981Y-93321500D01*
X192637019Y-93321500D01*
X192612550Y-93325375D01*
X192433591Y-93353719D01*
X192237705Y-93417367D01*
X192054193Y-93510873D01*
X191887576Y-93631926D01*
X191887571Y-93631930D01*
X191741930Y-93777571D01*
X191741926Y-93777576D01*
X191620873Y-93944193D01*
X191527367Y-94127705D01*
X191463719Y-94323591D01*
X191431500Y-94527019D01*
X189248500Y-94527019D01*
X189248500Y-94507019D01*
X189220847Y-94332426D01*
X189216280Y-94303591D01*
X189177561Y-94184427D01*
X189152634Y-94107710D01*
X189152632Y-94107707D01*
X189152632Y-94107705D01*
X189107408Y-94018950D01*
X189059129Y-93924197D01*
X189027018Y-93880000D01*
X188938073Y-93757576D01*
X188938069Y-93757571D01*
X188792428Y-93611930D01*
X188792423Y-93611926D01*
X188625806Y-93490873D01*
X188625805Y-93490872D01*
X188625803Y-93490871D01*
X188568496Y-93461671D01*
X188442294Y-93397367D01*
X188246408Y-93333719D01*
X188070794Y-93305905D01*
X188042981Y-93301500D01*
X187837019Y-93301500D01*
X187812550Y-93305375D01*
X187633591Y-93333719D01*
X187437705Y-93397367D01*
X187254193Y-93490873D01*
X187087576Y-93611926D01*
X187087571Y-93611930D01*
X186941930Y-93757571D01*
X186941926Y-93757576D01*
X186820871Y-93924195D01*
X186780484Y-94003459D01*
X186732510Y-94054254D01*
X186664689Y-94071049D01*
X186598554Y-94048511D01*
X186559516Y-94003459D01*
X186519128Y-93924195D01*
X186398073Y-93757576D01*
X186398069Y-93757571D01*
X186252428Y-93611930D01*
X186252423Y-93611926D01*
X186085806Y-93490873D01*
X186085805Y-93490872D01*
X186085803Y-93490871D01*
X186028496Y-93461671D01*
X185902294Y-93397367D01*
X185706408Y-93333719D01*
X185603056Y-93317350D01*
X185539921Y-93287420D01*
X185502990Y-93228109D01*
X185503988Y-93158246D01*
X185534771Y-93107198D01*
X186687151Y-91954819D01*
X186748474Y-91921334D01*
X186774832Y-91918500D01*
X218795167Y-91918500D01*
X218862206Y-91938185D01*
G37*
%TD.AperFunction*%
%TA.AperFunction,Conductor*%
G36*
X217140000Y-93532661D02*
G01*
X217167259Y-93634394D01*
X217219920Y-93725606D01*
X217294394Y-93800080D01*
X217385606Y-93852741D01*
X217487339Y-93880000D01*
X217493553Y-93880000D01*
X216814076Y-94559474D01*
X216858650Y-94591859D01*
X217040968Y-94684755D01*
X217235582Y-94747990D01*
X217437683Y-94780000D01*
X217642317Y-94780000D01*
X217844417Y-94747990D01*
X218039031Y-94684755D01*
X218221349Y-94591859D01*
X218265921Y-94559474D01*
X217586447Y-93880000D01*
X217592661Y-93880000D01*
X217694394Y-93852741D01*
X217785606Y-93800080D01*
X217860080Y-93725606D01*
X217912741Y-93634394D01*
X217940000Y-93532661D01*
X217940000Y-93526448D01*
X218619474Y-94205922D01*
X218619474Y-94205921D01*
X218651861Y-94161347D01*
X218651861Y-94161346D01*
X218694745Y-94077181D01*
X218742718Y-94026385D01*
X218810539Y-94009589D01*
X218876674Y-94032126D01*
X218915715Y-94077180D01*
X218958602Y-94161350D01*
X218960873Y-94165806D01*
X219081926Y-94332423D01*
X219081930Y-94332428D01*
X219227571Y-94478069D01*
X219227576Y-94478073D01*
X219327223Y-94550470D01*
X219394197Y-94599129D01*
X219485831Y-94645819D01*
X219577705Y-94692632D01*
X219577707Y-94692632D01*
X219577710Y-94692634D01*
X219668437Y-94722113D01*
X219773591Y-94756280D01*
X219801296Y-94760668D01*
X219977019Y-94788500D01*
X219977020Y-94788500D01*
X220182980Y-94788500D01*
X220182981Y-94788500D01*
X220386408Y-94756280D01*
X220582290Y-94692634D01*
X220765803Y-94599129D01*
X220932430Y-94478068D01*
X221078068Y-94332430D01*
X221199129Y-94165803D01*
X221239515Y-94086540D01*
X221287490Y-94035745D01*
X221355311Y-94018950D01*
X221421446Y-94041487D01*
X221460484Y-94086540D01*
X221498602Y-94161350D01*
X221500873Y-94165806D01*
X221621926Y-94332423D01*
X221621930Y-94332428D01*
X221767571Y-94478069D01*
X221767576Y-94478073D01*
X221867223Y-94550470D01*
X221934197Y-94599129D01*
X222025831Y-94645819D01*
X222117705Y-94692632D01*
X222117707Y-94692632D01*
X222117710Y-94692634D01*
X222208437Y-94722113D01*
X222313591Y-94756280D01*
X222341296Y-94760668D01*
X222517019Y-94788500D01*
X222517020Y-94788500D01*
X222722980Y-94788500D01*
X222722981Y-94788500D01*
X222926408Y-94756280D01*
X223122290Y-94692634D01*
X223305803Y-94599129D01*
X223472430Y-94478068D01*
X223618068Y-94332430D01*
X223739129Y-94165803D01*
X223779515Y-94086540D01*
X223827490Y-94035745D01*
X223895311Y-94018950D01*
X223961446Y-94041487D01*
X224000484Y-94086540D01*
X224038602Y-94161350D01*
X224040873Y-94165806D01*
X224161926Y-94332423D01*
X224161930Y-94332428D01*
X224161932Y-94332430D01*
X224307570Y-94478068D01*
X224400384Y-94545501D01*
X224443051Y-94600830D01*
X224451500Y-94645819D01*
X224451500Y-96175167D01*
X224442855Y-96204607D01*
X224436332Y-96234594D01*
X224432577Y-96239609D01*
X224431815Y-96242206D01*
X224415181Y-96262848D01*
X224342848Y-96335181D01*
X224281525Y-96368666D01*
X224255167Y-96371500D01*
X219370214Y-96371500D01*
X219350737Y-96375374D01*
X219233343Y-96398725D01*
X219233337Y-96398727D01*
X219157807Y-96430013D01*
X219104395Y-96452136D01*
X218988357Y-96529671D01*
X218988353Y-96529674D01*
X218190674Y-97327353D01*
X218190671Y-97327357D01*
X218113136Y-97443395D01*
X218113135Y-97443398D01*
X218059728Y-97572335D01*
X218059725Y-97572346D01*
X218032778Y-97707823D01*
X218032768Y-97707874D01*
X218032500Y-97709218D01*
X218032500Y-99713513D01*
X218012815Y-99780552D01*
X217960011Y-99826307D01*
X217890853Y-99836251D01*
X217870182Y-99831444D01*
X217846410Y-99823720D01*
X217696647Y-99800000D01*
X217642981Y-99791500D01*
X217437019Y-99791500D01*
X217412550Y-99795375D01*
X217233591Y-99823719D01*
X217037705Y-99887367D01*
X216854193Y-99980873D01*
X216687576Y-100101926D01*
X216687571Y-100101930D01*
X216541930Y-100247571D01*
X216541926Y-100247576D01*
X216420871Y-100414195D01*
X216380484Y-100493459D01*
X216332510Y-100544254D01*
X216264689Y-100561049D01*
X216198554Y-100538511D01*
X216159516Y-100493459D01*
X216119128Y-100414195D01*
X215998073Y-100247576D01*
X215998069Y-100247571D01*
X215852428Y-100101930D01*
X215852423Y-100101926D01*
X215685806Y-99980873D01*
X215685805Y-99980872D01*
X215685803Y-99980871D01*
X215628496Y-99951671D01*
X215502294Y-99887367D01*
X215306408Y-99823719D01*
X215130794Y-99795905D01*
X215102981Y-99791500D01*
X214897019Y-99791500D01*
X214872550Y-99795375D01*
X214693591Y-99823719D01*
X214497705Y-99887367D01*
X214314193Y-99980873D01*
X214147576Y-100101926D01*
X214147571Y-100101930D01*
X214001930Y-100247571D01*
X214001926Y-100247576D01*
X213880871Y-100414195D01*
X213835714Y-100502820D01*
X213787740Y-100553615D01*
X213719918Y-100570410D01*
X213653784Y-100547872D01*
X213614745Y-100502818D01*
X213571861Y-100418652D01*
X213539474Y-100374077D01*
X213539474Y-100374076D01*
X212860000Y-101053551D01*
X212860000Y-101047339D01*
X212832741Y-100945606D01*
X212780080Y-100854394D01*
X212705606Y-100779920D01*
X212614394Y-100727259D01*
X212512661Y-100700000D01*
X212506446Y-100700000D01*
X213185922Y-100020524D01*
X213185921Y-100020523D01*
X213141359Y-99988147D01*
X213141350Y-99988141D01*
X212959031Y-99895244D01*
X212764417Y-99832009D01*
X212562317Y-99800000D01*
X212357683Y-99800000D01*
X212155582Y-99832009D01*
X211960968Y-99895244D01*
X211778644Y-99988143D01*
X211734077Y-100020523D01*
X211734077Y-100020524D01*
X212413554Y-100700000D01*
X212407339Y-100700000D01*
X212305606Y-100727259D01*
X212214394Y-100779920D01*
X212139920Y-100854394D01*
X212087259Y-100945606D01*
X212060000Y-101047339D01*
X212060000Y-101053553D01*
X211380524Y-100374077D01*
X211380523Y-100374077D01*
X211348143Y-100418645D01*
X211348141Y-100418648D01*
X211305253Y-100502820D01*
X211257279Y-100553615D01*
X211189457Y-100570410D01*
X211123323Y-100547872D01*
X211084284Y-100502819D01*
X211039129Y-100414197D01*
X210982709Y-100336541D01*
X210918073Y-100247576D01*
X210918069Y-100247571D01*
X210772428Y-100101930D01*
X210772423Y-100101926D01*
X210605806Y-99980873D01*
X210605805Y-99980872D01*
X210605803Y-99980871D01*
X210548496Y-99951671D01*
X210422294Y-99887367D01*
X210226408Y-99823719D01*
X210050794Y-99795905D01*
X210022981Y-99791500D01*
X209817019Y-99791500D01*
X209763353Y-99800000D01*
X209613590Y-99823720D01*
X209613587Y-99823720D01*
X209451818Y-99876283D01*
X209381977Y-99878278D01*
X209322144Y-99842198D01*
X209291316Y-99779497D01*
X209289500Y-99758352D01*
X209289500Y-94821647D01*
X209309185Y-94754608D01*
X209361989Y-94708853D01*
X209431147Y-94698909D01*
X209451811Y-94703714D01*
X209562299Y-94739613D01*
X209613591Y-94756280D01*
X209641296Y-94760668D01*
X209817019Y-94788500D01*
X209817020Y-94788500D01*
X210022980Y-94788500D01*
X210022981Y-94788500D01*
X210226408Y-94756280D01*
X210422290Y-94692634D01*
X210605803Y-94599129D01*
X210772430Y-94478068D01*
X210918068Y-94332430D01*
X211039129Y-94165803D01*
X211079515Y-94086540D01*
X211127490Y-94035745D01*
X211195311Y-94018950D01*
X211261446Y-94041487D01*
X211300484Y-94086540D01*
X211338602Y-94161350D01*
X211340873Y-94165806D01*
X211461926Y-94332423D01*
X211461930Y-94332428D01*
X211607571Y-94478069D01*
X211607576Y-94478073D01*
X211707223Y-94550470D01*
X211774197Y-94599129D01*
X211865831Y-94645819D01*
X211957705Y-94692632D01*
X211957707Y-94692632D01*
X211957710Y-94692634D01*
X212048437Y-94722113D01*
X212153591Y-94756280D01*
X212181296Y-94760668D01*
X212357019Y-94788500D01*
X212357020Y-94788500D01*
X212562980Y-94788500D01*
X212562981Y-94788500D01*
X212766408Y-94756280D01*
X212962290Y-94692634D01*
X213145803Y-94599129D01*
X213312430Y-94478068D01*
X213458068Y-94332430D01*
X213579129Y-94165803D01*
X213619515Y-94086540D01*
X213667490Y-94035745D01*
X213735311Y-94018950D01*
X213801446Y-94041487D01*
X213840484Y-94086540D01*
X213878602Y-94161350D01*
X213880873Y-94165806D01*
X214001926Y-94332423D01*
X214001930Y-94332428D01*
X214147571Y-94478069D01*
X214147576Y-94478073D01*
X214247223Y-94550470D01*
X214314197Y-94599129D01*
X214405831Y-94645819D01*
X214497705Y-94692632D01*
X214497707Y-94692632D01*
X214497710Y-94692634D01*
X214588437Y-94722113D01*
X214693591Y-94756280D01*
X214721296Y-94760668D01*
X214897019Y-94788500D01*
X214897020Y-94788500D01*
X215102980Y-94788500D01*
X215102981Y-94788500D01*
X215306408Y-94756280D01*
X215502290Y-94692634D01*
X215685803Y-94599129D01*
X215852430Y-94478068D01*
X215998068Y-94332430D01*
X216119129Y-94165803D01*
X216164284Y-94077180D01*
X216212258Y-94026384D01*
X216280079Y-94009589D01*
X216346214Y-94032126D01*
X216385254Y-94077180D01*
X216428141Y-94161350D01*
X216428147Y-94161359D01*
X216460523Y-94205921D01*
X216460524Y-94205922D01*
X217140000Y-93526446D01*
X217140000Y-93532661D01*
G37*
%TD.AperFunction*%
%TA.AperFunction,Conductor*%
G36*
X212380889Y-86231591D02*
G01*
X212459881Y-86368408D01*
X212571592Y-86480119D01*
X212708409Y-86559111D01*
X212728939Y-86564612D01*
X212142485Y-87151065D01*
X212142485Y-87151066D01*
X212206243Y-87197388D01*
X212377689Y-87284745D01*
X212428485Y-87332720D01*
X212445280Y-87400541D01*
X212422742Y-87466676D01*
X212377689Y-87505715D01*
X212201784Y-87595343D01*
X212099452Y-87669692D01*
X212022424Y-87725657D01*
X212022422Y-87725659D01*
X212022421Y-87725659D01*
X211865659Y-87882421D01*
X211865659Y-87882422D01*
X211865657Y-87882424D01*
X211809692Y-87959452D01*
X211735343Y-88061784D01*
X211634693Y-88259319D01*
X211580555Y-88425939D01*
X211566182Y-88470176D01*
X211531500Y-88689149D01*
X211531500Y-88910851D01*
X211559100Y-89085111D01*
X211566182Y-89129824D01*
X211634693Y-89340680D01*
X211692384Y-89453903D01*
X211735343Y-89538215D01*
X211855514Y-89703616D01*
X211878994Y-89769420D01*
X211863169Y-89837474D01*
X211813063Y-89886169D01*
X211755196Y-89900500D01*
X207324804Y-89900500D01*
X207257765Y-89880815D01*
X207212010Y-89828011D01*
X207202066Y-89758853D01*
X207224484Y-89703617D01*
X207344657Y-89538215D01*
X207445308Y-89340676D01*
X207513818Y-89129824D01*
X207548500Y-88910851D01*
X207548500Y-88689149D01*
X207513818Y-88470176D01*
X207445308Y-88259324D01*
X207445306Y-88259321D01*
X207445306Y-88259319D01*
X207353661Y-88079457D01*
X207344657Y-88061785D01*
X207214343Y-87882424D01*
X207057576Y-87725657D01*
X206878215Y-87595343D01*
X206711670Y-87510484D01*
X206702516Y-87501839D01*
X206690852Y-87497105D01*
X206677600Y-87478307D01*
X206660875Y-87462511D01*
X206657848Y-87450287D01*
X206650595Y-87439999D01*
X206649609Y-87417020D01*
X206644080Y-87394690D01*
X206648141Y-87382772D01*
X206647602Y-87370194D01*
X206659196Y-87350329D01*
X206666617Y-87328555D01*
X206677319Y-87319280D01*
X206682824Y-87309851D01*
X206711670Y-87289516D01*
X206730308Y-87280019D01*
X206824772Y-87231887D01*
X206893438Y-87218991D01*
X206958179Y-87245267D01*
X206970011Y-87257440D01*
X206970465Y-87256987D01*
X206976736Y-87263257D01*
X206976739Y-87263261D01*
X207093796Y-87350889D01*
X207230799Y-87401989D01*
X207258050Y-87404918D01*
X207291345Y-87408499D01*
X207291362Y-87408500D01*
X209188638Y-87408500D01*
X209188654Y-87408499D01*
X209215692Y-87405591D01*
X209249201Y-87401989D01*
X209386204Y-87350889D01*
X209503261Y-87263261D01*
X209590889Y-87146204D01*
X209633048Y-87033172D01*
X209674918Y-86977242D01*
X209740382Y-86952825D01*
X209808655Y-86967677D01*
X209836909Y-86988828D01*
X209922424Y-87074343D01*
X210101785Y-87204657D01*
X210155229Y-87231888D01*
X210299319Y-87305306D01*
X210299321Y-87305306D01*
X210299324Y-87305308D01*
X210510176Y-87373818D01*
X210729149Y-87408500D01*
X210729150Y-87408500D01*
X210950850Y-87408500D01*
X210950851Y-87408500D01*
X211169824Y-87373818D01*
X211380676Y-87305308D01*
X211578215Y-87204657D01*
X211757576Y-87074343D01*
X211914343Y-86917576D01*
X212044657Y-86738215D01*
X212145308Y-86540676D01*
X212184019Y-86421535D01*
X212214265Y-86372178D01*
X212375386Y-86211056D01*
X212380889Y-86231591D01*
G37*
%TD.AperFunction*%
%TA.AperFunction,Conductor*%
G36*
X224525394Y-77260971D02*
G01*
X224689710Y-77275347D01*
X224710987Y-77279100D01*
X224865062Y-77320385D01*
X224885359Y-77327772D01*
X225029930Y-77395188D01*
X225048647Y-77405995D01*
X225179303Y-77497484D01*
X225195861Y-77511378D01*
X225308646Y-77624167D01*
X225322540Y-77640726D01*
X225414025Y-77771387D01*
X225424832Y-77790107D01*
X225492236Y-77934666D01*
X225499628Y-77954977D01*
X225540906Y-78109047D01*
X225544659Y-78130334D01*
X225559029Y-78294654D01*
X225559500Y-78305457D01*
X225559500Y-88199992D01*
X225574799Y-88236928D01*
X225574800Y-88236929D01*
X225603071Y-88265200D01*
X225640009Y-88280500D01*
X225679991Y-88280500D01*
X235565046Y-88280500D01*
X235575848Y-88280971D01*
X235588264Y-88282056D01*
X235739681Y-88295298D01*
X235760951Y-88299048D01*
X235915042Y-88340331D01*
X235935344Y-88347720D01*
X236079924Y-88415133D01*
X236098634Y-88425936D01*
X236229303Y-88517427D01*
X236245852Y-88531312D01*
X236358654Y-88644109D01*
X236372548Y-88660667D01*
X236464041Y-88791328D01*
X236474849Y-88810047D01*
X236542264Y-88954615D01*
X236549657Y-88974927D01*
X236590942Y-89129004D01*
X236594695Y-89150290D01*
X236609028Y-89314102D01*
X236609500Y-89324910D01*
X236609500Y-136878591D01*
X236609499Y-136905487D01*
X236609499Y-136914542D01*
X236609028Y-136925348D01*
X236594658Y-137089668D01*
X236590904Y-137110956D01*
X236549623Y-137265032D01*
X236542231Y-137285344D01*
X236474824Y-137429906D01*
X236464016Y-137448626D01*
X236372527Y-137579288D01*
X236358633Y-137595846D01*
X236245846Y-137708633D01*
X236229288Y-137722527D01*
X236098626Y-137814016D01*
X236079906Y-137824824D01*
X235935344Y-137892231D01*
X235915032Y-137899623D01*
X235760956Y-137940904D01*
X235739668Y-137944658D01*
X235575348Y-137959028D01*
X235564548Y-137959499D01*
X235552245Y-137959499D01*
X235543031Y-137959499D01*
X235543029Y-137959499D01*
X235528592Y-137959500D01*
X235528591Y-137959499D01*
X235528589Y-137959500D01*
X168104954Y-137959500D01*
X168094151Y-137959029D01*
X167930326Y-137944702D01*
X167909039Y-137940949D01*
X167754962Y-137899669D01*
X167734651Y-137892277D01*
X167590080Y-137824868D01*
X167571360Y-137814060D01*
X167440697Y-137722573D01*
X167424146Y-137708686D01*
X167311343Y-137595888D01*
X167297451Y-137579332D01*
X167297420Y-137579288D01*
X167205958Y-137448671D01*
X167195150Y-137429952D01*
X167179418Y-137396215D01*
X167127733Y-137285380D01*
X167120344Y-137265078D01*
X167079056Y-137110994D01*
X167075304Y-137089709D01*
X167060971Y-136925891D01*
X167060500Y-136915095D01*
X167064113Y-102137019D01*
X168161500Y-102137019D01*
X168161500Y-102342980D01*
X168193719Y-102546408D01*
X168257367Y-102742294D01*
X168307550Y-102840782D01*
X168348602Y-102921350D01*
X168350873Y-102925806D01*
X168471926Y-103092423D01*
X168471930Y-103092428D01*
X168617571Y-103238069D01*
X168617576Y-103238073D01*
X168686787Y-103288357D01*
X168784197Y-103359129D01*
X168873044Y-103404399D01*
X168967705Y-103452632D01*
X168967707Y-103452632D01*
X168967710Y-103452634D01*
X169018055Y-103468992D01*
X169163591Y-103516280D01*
X169168320Y-103517415D01*
X169167993Y-103518774D01*
X169225431Y-103546003D01*
X169262362Y-103605314D01*
X169261366Y-103675177D01*
X169222756Y-103733410D01*
X169181219Y-103756477D01*
X169167688Y-103760874D01*
X169147705Y-103767367D01*
X168964193Y-103860873D01*
X168797576Y-103981926D01*
X168797571Y-103981930D01*
X168651930Y-104127571D01*
X168651926Y-104127576D01*
X168530873Y-104294193D01*
X168437367Y-104477705D01*
X168373719Y-104673591D01*
X168341500Y-104877019D01*
X168341500Y-105082980D01*
X168373719Y-105286408D01*
X168437367Y-105482294D01*
X168530873Y-105665806D01*
X168651926Y-105832423D01*
X168651930Y-105832428D01*
X168797571Y-105978069D01*
X168797576Y-105978073D01*
X168896345Y-106049832D01*
X168964197Y-106099129D01*
X169076693Y-106156449D01*
X169147705Y-106192632D01*
X169147707Y-106192632D01*
X169147710Y-106192634D01*
X169210818Y-106213139D01*
X169343591Y-106256280D01*
X169353100Y-106257786D01*
X169547019Y-106288500D01*
X169547020Y-106288500D01*
X169752980Y-106288500D01*
X169752981Y-106288500D01*
X169956408Y-106256280D01*
X170118183Y-106203715D01*
X170188022Y-106201721D01*
X170247855Y-106237801D01*
X170278684Y-106300502D01*
X170280500Y-106321647D01*
X170280500Y-118878352D01*
X170260815Y-118945391D01*
X170208011Y-118991146D01*
X170138853Y-119001090D01*
X170118182Y-118996283D01*
X169956410Y-118943720D01*
X169820790Y-118922240D01*
X169752981Y-118911500D01*
X169547019Y-118911500D01*
X169522550Y-118915375D01*
X169343591Y-118943719D01*
X169147705Y-119007367D01*
X168964193Y-119100873D01*
X168797576Y-119221926D01*
X168797571Y-119221930D01*
X168651930Y-119367571D01*
X168651926Y-119367576D01*
X168530873Y-119534193D01*
X168437367Y-119717705D01*
X168373719Y-119913591D01*
X168341500Y-120117019D01*
X168341500Y-120322980D01*
X168373719Y-120526408D01*
X168437367Y-120722294D01*
X168530873Y-120905806D01*
X168651926Y-121072423D01*
X168651930Y-121072428D01*
X168764181Y-121184679D01*
X168797666Y-121246002D01*
X168800500Y-121272360D01*
X168800500Y-133118728D01*
X168827724Y-133255595D01*
X168827727Y-133255604D01*
X168881135Y-133384543D01*
X168881136Y-133384546D01*
X168958671Y-133500584D01*
X168958674Y-133500588D01*
X170219411Y-134761325D01*
X170219415Y-134761328D01*
X170335450Y-134838861D01*
X170335463Y-134838868D01*
X170419786Y-134873795D01*
X170426630Y-134876630D01*
X170464396Y-134892273D01*
X170499912Y-134899337D01*
X170532788Y-134905877D01*
X170532812Y-134905881D01*
X170532836Y-134905886D01*
X170584166Y-134916096D01*
X170601275Y-134919500D01*
X170601276Y-134919500D01*
X208418782Y-134919500D01*
X208487221Y-134905886D01*
X208555662Y-134892273D01*
X208593427Y-134876630D01*
X208684601Y-134838865D01*
X208800643Y-134761328D01*
X210080328Y-133481643D01*
X210157865Y-133365601D01*
X210179986Y-133312192D01*
X210211273Y-133236662D01*
X210238500Y-133099781D01*
X210238500Y-133008017D01*
X210258185Y-132940978D01*
X210306205Y-132897532D01*
X210320627Y-132890185D01*
X210512722Y-132750620D01*
X210680620Y-132582722D01*
X210680624Y-132582716D01*
X210683792Y-132579009D01*
X210684923Y-132579975D01*
X210735002Y-132541352D01*
X210804615Y-132535367D01*
X210866413Y-132567967D01*
X210876077Y-132579120D01*
X210876208Y-132579009D01*
X210879378Y-132582720D01*
X210879380Y-132582722D01*
X211047278Y-132750620D01*
X211239373Y-132890185D01*
X211321499Y-132932030D01*
X211450932Y-132997980D01*
X211450934Y-132997980D01*
X211450937Y-132997982D01*
X211481822Y-133008017D01*
X211676758Y-133071356D01*
X211911273Y-133108500D01*
X211911278Y-133108500D01*
X212148727Y-133108500D01*
X212383241Y-133071356D01*
X212609063Y-132997982D01*
X212820627Y-132890185D01*
X213012722Y-132750620D01*
X213180620Y-132582722D01*
X213180624Y-132582716D01*
X213183792Y-132579009D01*
X213184923Y-132579975D01*
X213235002Y-132541352D01*
X213304615Y-132535367D01*
X213366413Y-132567967D01*
X213376077Y-132579120D01*
X213376208Y-132579009D01*
X213379378Y-132582720D01*
X213379380Y-132582722D01*
X213547278Y-132750620D01*
X213739373Y-132890185D01*
X213821499Y-132932030D01*
X213950932Y-132997980D01*
X213950934Y-132997980D01*
X213950937Y-132997982D01*
X213981822Y-133008017D01*
X214176758Y-133071356D01*
X214411273Y-133108500D01*
X214411278Y-133108500D01*
X214648727Y-133108500D01*
X214883241Y-133071356D01*
X215109063Y-132997982D01*
X215320627Y-132890185D01*
X215512722Y-132750620D01*
X215672319Y-132591023D01*
X215733642Y-132557538D01*
X215803334Y-132562522D01*
X215847681Y-132591023D01*
X216007278Y-132750620D01*
X216199373Y-132890185D01*
X216281499Y-132932030D01*
X216410932Y-132997980D01*
X216410934Y-132997980D01*
X216410937Y-132997982D01*
X216441822Y-133008017D01*
X216636758Y-133071356D01*
X216871273Y-133108500D01*
X216871278Y-133108500D01*
X217108727Y-133108500D01*
X217343241Y-133071356D01*
X217569063Y-132997982D01*
X217780627Y-132890185D01*
X217972722Y-132750620D01*
X218140620Y-132582722D01*
X218159681Y-132556487D01*
X218215010Y-132513820D01*
X218284624Y-132507840D01*
X218346419Y-132540446D01*
X218360319Y-132556487D01*
X218379376Y-132582718D01*
X218379380Y-132582722D01*
X218547278Y-132750620D01*
X218739373Y-132890185D01*
X218821499Y-132932030D01*
X218950932Y-132997980D01*
X218950934Y-132997980D01*
X218950937Y-132997982D01*
X218981822Y-133008017D01*
X219176758Y-133071356D01*
X219411273Y-133108500D01*
X219411278Y-133108500D01*
X219648727Y-133108500D01*
X219883241Y-133071356D01*
X220109063Y-132997982D01*
X220320627Y-132890185D01*
X220512722Y-132750620D01*
X220680620Y-132582722D01*
X220820185Y-132390627D01*
X220927982Y-132179063D01*
X221001356Y-131953241D01*
X221038500Y-131718727D01*
X221038500Y-131481272D01*
X221001356Y-131246758D01*
X220927980Y-131020932D01*
X220820184Y-130809372D01*
X220780000Y-130754063D01*
X220680620Y-130617278D01*
X220539340Y-130475998D01*
X220505855Y-130414675D01*
X220510839Y-130344983D01*
X220552711Y-130289050D01*
X220570720Y-130277836D01*
X220602009Y-130261894D01*
X220775004Y-130136206D01*
X220926206Y-129985004D01*
X221051894Y-129812009D01*
X221148972Y-129621483D01*
X221215049Y-129418116D01*
X221248500Y-129206916D01*
X221248500Y-128993084D01*
X221215049Y-128781884D01*
X221148972Y-128578517D01*
X221148972Y-128578516D01*
X221077756Y-128438748D01*
X221051894Y-128387991D01*
X220926206Y-128214996D01*
X220817158Y-128105948D01*
X227711500Y-128105948D01*
X227711500Y-128304051D01*
X227742487Y-128499700D01*
X227803703Y-128688101D01*
X227851489Y-128781884D01*
X227893634Y-128864598D01*
X228010070Y-129024858D01*
X228150142Y-129164930D01*
X228310402Y-129281366D01*
X228393790Y-129323854D01*
X228486898Y-129371296D01*
X228486900Y-129371296D01*
X228486903Y-129371298D01*
X228587888Y-129404110D01*
X228675299Y-129432512D01*
X228870949Y-129463500D01*
X228870954Y-129463500D01*
X229069051Y-129463500D01*
X229264700Y-129432512D01*
X229309006Y-129418116D01*
X229453097Y-129371298D01*
X229629598Y-129281366D01*
X229789858Y-129164930D01*
X229929930Y-129024858D01*
X230046366Y-128864598D01*
X230136298Y-128688097D01*
X230197512Y-128499700D01*
X230207166Y-128438748D01*
X230228500Y-128304051D01*
X230228500Y-128105948D01*
X232791500Y-128105948D01*
X232791500Y-128304051D01*
X232822487Y-128499700D01*
X232883703Y-128688101D01*
X232931489Y-128781884D01*
X232973634Y-128864598D01*
X233090070Y-129024858D01*
X233230142Y-129164930D01*
X233390402Y-129281366D01*
X233473790Y-129323854D01*
X233566898Y-129371296D01*
X233566900Y-129371296D01*
X233566903Y-129371298D01*
X233667888Y-129404110D01*
X233755299Y-129432512D01*
X233950949Y-129463500D01*
X233950954Y-129463500D01*
X234149051Y-129463500D01*
X234344700Y-129432512D01*
X234389006Y-129418116D01*
X234533097Y-129371298D01*
X234709598Y-129281366D01*
X234869858Y-129164930D01*
X235009930Y-129024858D01*
X235126366Y-128864598D01*
X235216298Y-128688097D01*
X235277512Y-128499700D01*
X235287166Y-128438748D01*
X235308500Y-128304051D01*
X235308500Y-128105948D01*
X235277512Y-127910299D01*
X235241404Y-127799171D01*
X235216298Y-127721903D01*
X235216296Y-127721900D01*
X235216296Y-127721898D01*
X235149611Y-127591023D01*
X235126366Y-127545402D01*
X235009930Y-127385142D01*
X234869858Y-127245070D01*
X234709598Y-127128634D01*
X234533101Y-127038703D01*
X234344700Y-126977487D01*
X234149051Y-126946500D01*
X234149046Y-126946500D01*
X233950954Y-126946500D01*
X233950949Y-126946500D01*
X233755299Y-126977487D01*
X233566898Y-127038703D01*
X233390401Y-127128634D01*
X233320987Y-127179067D01*
X233230142Y-127245070D01*
X233230140Y-127245072D01*
X233230139Y-127245072D01*
X233090072Y-127385139D01*
X233090072Y-127385140D01*
X233090070Y-127385142D01*
X233040065Y-127453967D01*
X232973634Y-127545401D01*
X232883703Y-127721898D01*
X232822487Y-127910299D01*
X232791500Y-128105948D01*
X230228500Y-128105948D01*
X230197512Y-127910299D01*
X230161404Y-127799171D01*
X230136298Y-127721903D01*
X230136296Y-127721900D01*
X230136296Y-127721898D01*
X230069611Y-127591023D01*
X230046366Y-127545402D01*
X229929930Y-127385142D01*
X229789858Y-127245070D01*
X229629598Y-127128634D01*
X229453101Y-127038703D01*
X229264700Y-126977487D01*
X229069051Y-126946500D01*
X229069046Y-126946500D01*
X228870954Y-126946500D01*
X228870949Y-126946500D01*
X228675299Y-126977487D01*
X228486898Y-127038703D01*
X228310401Y-127128634D01*
X228240987Y-127179067D01*
X228150142Y-127245070D01*
X228150140Y-127245072D01*
X228150139Y-127245072D01*
X228010072Y-127385139D01*
X228010072Y-127385140D01*
X228010070Y-127385142D01*
X227960065Y-127453967D01*
X227893634Y-127545401D01*
X227803703Y-127721898D01*
X227742487Y-127910299D01*
X227711500Y-128105948D01*
X220817158Y-128105948D01*
X220775004Y-128063794D01*
X220670140Y-127987606D01*
X220602007Y-127938104D01*
X220570727Y-127922167D01*
X220519931Y-127874193D01*
X220503135Y-127806372D01*
X220525672Y-127740237D01*
X220539329Y-127724012D01*
X220680620Y-127582722D01*
X220820185Y-127390627D01*
X220927982Y-127179063D01*
X221001356Y-126953241D01*
X221002424Y-126946500D01*
X221038500Y-126718727D01*
X221038500Y-126481272D01*
X221001356Y-126246758D01*
X220927980Y-126020932D01*
X220820184Y-125809372D01*
X220799999Y-125781590D01*
X220680620Y-125617278D01*
X220629290Y-125565948D01*
X230251500Y-125565948D01*
X230251500Y-125764051D01*
X230282487Y-125959700D01*
X230343703Y-126148101D01*
X230433634Y-126324598D01*
X230550070Y-126484858D01*
X230690142Y-126624930D01*
X230850402Y-126741366D01*
X230933790Y-126783854D01*
X231026898Y-126831296D01*
X231026900Y-126831296D01*
X231026903Y-126831298D01*
X231127888Y-126864110D01*
X231215299Y-126892512D01*
X231410949Y-126923500D01*
X231410954Y-126923500D01*
X231609051Y-126923500D01*
X231804700Y-126892512D01*
X231993097Y-126831298D01*
X232169598Y-126741366D01*
X232329858Y-126624930D01*
X232469930Y-126484858D01*
X232586366Y-126324598D01*
X232676298Y-126148097D01*
X232737512Y-125959700D01*
X232768500Y-125764051D01*
X232768500Y-125565948D01*
X232737512Y-125370299D01*
X232695840Y-125242048D01*
X232676298Y-125181903D01*
X232676296Y-125181900D01*
X232676296Y-125181898D01*
X232586365Y-125005401D01*
X232559450Y-124968356D01*
X232469930Y-124845142D01*
X232329858Y-124705070D01*
X232169598Y-124588634D01*
X231993101Y-124498703D01*
X231804700Y-124437487D01*
X231609051Y-124406500D01*
X231609046Y-124406500D01*
X231410954Y-124406500D01*
X231410949Y-124406500D01*
X231215299Y-124437487D01*
X231026898Y-124498703D01*
X230850401Y-124588634D01*
X230758967Y-124655065D01*
X230690142Y-124705070D01*
X230690140Y-124705072D01*
X230690139Y-124705072D01*
X230550072Y-124845139D01*
X230550072Y-124845140D01*
X230550070Y-124845142D01*
X230500065Y-124913967D01*
X230433634Y-125005401D01*
X230343703Y-125181898D01*
X230282487Y-125370299D01*
X230251500Y-125565948D01*
X220629290Y-125565948D01*
X220512722Y-125449380D01*
X220397800Y-125365884D01*
X220320622Y-125309811D01*
X220272936Y-125285514D01*
X220253897Y-125267533D01*
X220232435Y-125252531D01*
X220226914Y-125242048D01*
X220222140Y-125237540D01*
X220214521Y-125222121D01*
X220211609Y-125215028D01*
X220211273Y-125213338D01*
X220171203Y-125116601D01*
X220157865Y-125084399D01*
X220149457Y-125071815D01*
X220080328Y-124968356D01*
X219511646Y-124399674D01*
X219511638Y-124399668D01*
X219395603Y-124322136D01*
X219395599Y-124322134D01*
X219368896Y-124311073D01*
X219304427Y-124284369D01*
X219304426Y-124284368D01*
X219266664Y-124268727D01*
X219266658Y-124268725D01*
X219198221Y-124255113D01*
X219129785Y-124241500D01*
X219129782Y-124241500D01*
X219129781Y-124241500D01*
X207554833Y-124241500D01*
X207487794Y-124221815D01*
X207467152Y-124205181D01*
X205954819Y-122692848D01*
X205921334Y-122631525D01*
X205918500Y-122605167D01*
X205918500Y-121385819D01*
X205938185Y-121318780D01*
X205969614Y-121285501D01*
X206062430Y-121218068D01*
X206208068Y-121072430D01*
X206329129Y-120905803D01*
X206374284Y-120817180D01*
X206422258Y-120766384D01*
X206490079Y-120749589D01*
X206556214Y-120772126D01*
X206595254Y-120817180D01*
X206638140Y-120901349D01*
X206758417Y-121066894D01*
X206758417Y-121066895D01*
X206903104Y-121211582D01*
X207068650Y-121331859D01*
X207250968Y-121424754D01*
X207445578Y-121487988D01*
X207500000Y-121496607D01*
X207500000Y-120535686D01*
X207504394Y-120540080D01*
X207595606Y-120592741D01*
X207697339Y-120620000D01*
X207802661Y-120620000D01*
X207904394Y-120592741D01*
X207995606Y-120540080D01*
X208000000Y-120535686D01*
X208000000Y-121496606D01*
X208054421Y-121487988D01*
X208249031Y-121424754D01*
X208431349Y-121331859D01*
X208596894Y-121211582D01*
X208596895Y-121211582D01*
X208741582Y-121066895D01*
X208741582Y-121066894D01*
X208861861Y-120901347D01*
X208904745Y-120817181D01*
X208952718Y-120766385D01*
X209020539Y-120749589D01*
X209086674Y-120772126D01*
X209125715Y-120817180D01*
X209170873Y-120905806D01*
X209291926Y-121072423D01*
X209291930Y-121072428D01*
X209437571Y-121218069D01*
X209437576Y-121218073D01*
X209576189Y-121318780D01*
X209604197Y-121339129D01*
X209695831Y-121385819D01*
X209787705Y-121432632D01*
X209787707Y-121432632D01*
X209787710Y-121432634D01*
X209837627Y-121448853D01*
X209983591Y-121496280D01*
X210085305Y-121512390D01*
X210187019Y-121528500D01*
X210187020Y-121528500D01*
X210392980Y-121528500D01*
X210392981Y-121528500D01*
X210596408Y-121496280D01*
X210792290Y-121432634D01*
X210975803Y-121339129D01*
X211142430Y-121218068D01*
X211288068Y-121072430D01*
X211409129Y-120905803D01*
X211449515Y-120826540D01*
X211497490Y-120775745D01*
X211565311Y-120758950D01*
X211631446Y-120781487D01*
X211670485Y-120826541D01*
X211710873Y-120905806D01*
X211831926Y-121072423D01*
X211831930Y-121072428D01*
X211977571Y-121218069D01*
X211977576Y-121218073D01*
X212116189Y-121318780D01*
X212144197Y-121339129D01*
X212235831Y-121385819D01*
X212327705Y-121432632D01*
X212327707Y-121432632D01*
X212327710Y-121432634D01*
X212377627Y-121448853D01*
X212523591Y-121496280D01*
X212625305Y-121512390D01*
X212727019Y-121528500D01*
X212727020Y-121528500D01*
X212932980Y-121528500D01*
X212932981Y-121528500D01*
X213136408Y-121496280D01*
X213332290Y-121432634D01*
X213515803Y-121339129D01*
X213682430Y-121218068D01*
X213828068Y-121072430D01*
X213949129Y-120905803D01*
X213989515Y-120826540D01*
X214037490Y-120775745D01*
X214105311Y-120758950D01*
X214171446Y-120781487D01*
X214210485Y-120826541D01*
X214250873Y-120905806D01*
X214371926Y-121072423D01*
X214371930Y-121072428D01*
X214517571Y-121218069D01*
X214517576Y-121218073D01*
X214656189Y-121318780D01*
X214684197Y-121339129D01*
X214775831Y-121385819D01*
X214867705Y-121432632D01*
X214867707Y-121432632D01*
X214867710Y-121432634D01*
X214917627Y-121448853D01*
X215063591Y-121496280D01*
X215165305Y-121512390D01*
X215267019Y-121528500D01*
X215267020Y-121528500D01*
X215472980Y-121528500D01*
X215472981Y-121528500D01*
X215676408Y-121496280D01*
X215872290Y-121432634D01*
X216055803Y-121339129D01*
X216222430Y-121218068D01*
X216368068Y-121072430D01*
X216489129Y-120905803D01*
X216534284Y-120817180D01*
X216582258Y-120766384D01*
X216650079Y-120749589D01*
X216716214Y-120772126D01*
X216755254Y-120817180D01*
X216798140Y-120901349D01*
X216918417Y-121066894D01*
X216918417Y-121066895D01*
X217063104Y-121211582D01*
X217228650Y-121331859D01*
X217410968Y-121424754D01*
X217605578Y-121487988D01*
X217660000Y-121496607D01*
X217660000Y-120535686D01*
X217664394Y-120540080D01*
X217755606Y-120592741D01*
X217857339Y-120620000D01*
X217962661Y-120620000D01*
X218064394Y-120592741D01*
X218155606Y-120540080D01*
X218160000Y-120535686D01*
X218160000Y-121496606D01*
X218214421Y-121487988D01*
X218409031Y-121424754D01*
X218591349Y-121331859D01*
X218756894Y-121211582D01*
X218756895Y-121211582D01*
X218901582Y-121066895D01*
X218901582Y-121066894D01*
X219021859Y-120901349D01*
X219114755Y-120719031D01*
X219115757Y-120715948D01*
X227711500Y-120715948D01*
X227711500Y-120914051D01*
X227742487Y-121109700D01*
X227803703Y-121298101D01*
X227875449Y-121438909D01*
X227893634Y-121474598D01*
X228010070Y-121634858D01*
X228150142Y-121774930D01*
X228310402Y-121891366D01*
X228393790Y-121933854D01*
X228486898Y-121981296D01*
X228486900Y-121981296D01*
X228486903Y-121981298D01*
X228587888Y-122014110D01*
X228675299Y-122042512D01*
X228870949Y-122073500D01*
X228870954Y-122073500D01*
X229069051Y-122073500D01*
X229264700Y-122042512D01*
X229453097Y-121981298D01*
X229629598Y-121891366D01*
X229789858Y-121774930D01*
X229929930Y-121634858D01*
X230046366Y-121474598D01*
X230136298Y-121298097D01*
X230197512Y-121109700D01*
X230204292Y-121066894D01*
X230228500Y-120914051D01*
X230228500Y-120715948D01*
X232791500Y-120715948D01*
X232791500Y-120914051D01*
X232822487Y-121109700D01*
X232883703Y-121298101D01*
X232955449Y-121438909D01*
X232973634Y-121474598D01*
X233090070Y-121634858D01*
X233230142Y-121774930D01*
X233390402Y-121891366D01*
X233473790Y-121933854D01*
X233566898Y-121981296D01*
X233566900Y-121981296D01*
X233566903Y-121981298D01*
X233667888Y-122014110D01*
X233755299Y-122042512D01*
X233950949Y-122073500D01*
X233950954Y-122073500D01*
X234149051Y-122073500D01*
X234344700Y-122042512D01*
X234533097Y-121981298D01*
X234709598Y-121891366D01*
X234869858Y-121774930D01*
X235009930Y-121634858D01*
X235126366Y-121474598D01*
X235216298Y-121298097D01*
X235277512Y-121109700D01*
X235284292Y-121066894D01*
X235308500Y-120914051D01*
X235308500Y-120715948D01*
X235277512Y-120520299D01*
X235230104Y-120374394D01*
X235216298Y-120331903D01*
X235216296Y-120331900D01*
X235216296Y-120331898D01*
X235126365Y-120155401D01*
X235009930Y-119995142D01*
X234869858Y-119855070D01*
X234709598Y-119738634D01*
X234674931Y-119720970D01*
X234533101Y-119648703D01*
X234344700Y-119587487D01*
X234149051Y-119556500D01*
X234149046Y-119556500D01*
X233950954Y-119556500D01*
X233950949Y-119556500D01*
X233755299Y-119587487D01*
X233566898Y-119648703D01*
X233390401Y-119738634D01*
X233298967Y-119805065D01*
X233230142Y-119855070D01*
X233230140Y-119855072D01*
X233230139Y-119855072D01*
X233090072Y-119995139D01*
X233090072Y-119995140D01*
X233090070Y-119995142D01*
X233040065Y-120063967D01*
X232973634Y-120155401D01*
X232883703Y-120331898D01*
X232822487Y-120520299D01*
X232791500Y-120715948D01*
X230228500Y-120715948D01*
X230197512Y-120520299D01*
X230150104Y-120374394D01*
X230136298Y-120331903D01*
X230136296Y-120331900D01*
X230136296Y-120331898D01*
X230046365Y-120155401D01*
X229929930Y-119995142D01*
X229789858Y-119855070D01*
X229629598Y-119738634D01*
X229594931Y-119720970D01*
X229453101Y-119648703D01*
X229264700Y-119587487D01*
X229069051Y-119556500D01*
X229069046Y-119556500D01*
X228870954Y-119556500D01*
X228870949Y-119556500D01*
X228675299Y-119587487D01*
X228486898Y-119648703D01*
X228310401Y-119738634D01*
X228218967Y-119805065D01*
X228150142Y-119855070D01*
X228150140Y-119855072D01*
X228150139Y-119855072D01*
X228010072Y-119995139D01*
X228010072Y-119995140D01*
X228010070Y-119995142D01*
X227960065Y-120063967D01*
X227893634Y-120155401D01*
X227803703Y-120331898D01*
X227742487Y-120520299D01*
X227711500Y-120715948D01*
X219115757Y-120715948D01*
X219129789Y-120672763D01*
X219129789Y-120672762D01*
X219177990Y-120524414D01*
X219177990Y-120524413D01*
X219186609Y-120470000D01*
X218225686Y-120470000D01*
X218230080Y-120465606D01*
X218282741Y-120374394D01*
X218310000Y-120272661D01*
X218310000Y-120167339D01*
X218282741Y-120065606D01*
X218230080Y-119974394D01*
X218225686Y-119970000D01*
X219186609Y-119970000D01*
X219177990Y-119915586D01*
X219114755Y-119720970D01*
X219021859Y-119538650D01*
X218901582Y-119373105D01*
X218901582Y-119373104D01*
X218756895Y-119228417D01*
X218591349Y-119108140D01*
X218409029Y-119015244D01*
X218214413Y-118952009D01*
X218160000Y-118943390D01*
X218160000Y-119904314D01*
X218155606Y-119899920D01*
X218064394Y-119847259D01*
X217962661Y-119820000D01*
X217857339Y-119820000D01*
X217755606Y-119847259D01*
X217664394Y-119899920D01*
X217660000Y-119904314D01*
X217660000Y-118943390D01*
X217605586Y-118952009D01*
X217410970Y-119015244D01*
X217228650Y-119108140D01*
X217063105Y-119228417D01*
X217063104Y-119228417D01*
X216918417Y-119373104D01*
X216918417Y-119373105D01*
X216798140Y-119538650D01*
X216755254Y-119622819D01*
X216707279Y-119673615D01*
X216639458Y-119690410D01*
X216573323Y-119667872D01*
X216534284Y-119622819D01*
X216489129Y-119534197D01*
X216448293Y-119477991D01*
X216368073Y-119367576D01*
X216368069Y-119367571D01*
X216222428Y-119221930D01*
X216222423Y-119221926D01*
X216055806Y-119100873D01*
X216055805Y-119100872D01*
X216055803Y-119100871D01*
X215998496Y-119071671D01*
X215872294Y-119007367D01*
X215676408Y-118943719D01*
X215500794Y-118915905D01*
X215472981Y-118911500D01*
X215267019Y-118911500D01*
X215242550Y-118915375D01*
X215063591Y-118943719D01*
X214867705Y-119007367D01*
X214684193Y-119100873D01*
X214517576Y-119221926D01*
X214517571Y-119221930D01*
X214371930Y-119367571D01*
X214371926Y-119367576D01*
X214250871Y-119534195D01*
X214210484Y-119613459D01*
X214162510Y-119664254D01*
X214094689Y-119681049D01*
X214028554Y-119658511D01*
X213989516Y-119613459D01*
X213949128Y-119534195D01*
X213828073Y-119367576D01*
X213828069Y-119367571D01*
X213682428Y-119221930D01*
X213682423Y-119221926D01*
X213589615Y-119154497D01*
X213546949Y-119099167D01*
X213538500Y-119054179D01*
X213538500Y-112374833D01*
X213558185Y-112307794D01*
X213574819Y-112287152D01*
X217230328Y-108631643D01*
X217251024Y-108600669D01*
X217307865Y-108515601D01*
X217332278Y-108456661D01*
X217361273Y-108386662D01*
X217388500Y-108249781D01*
X217388500Y-106412500D01*
X217408185Y-106345461D01*
X217460989Y-106299706D01*
X217512500Y-106288500D01*
X218758638Y-106288500D01*
X218758654Y-106288499D01*
X218785692Y-106285591D01*
X218819201Y-106281989D01*
X218956204Y-106230889D01*
X219073261Y-106143261D01*
X219148233Y-106043109D01*
X219204167Y-106001239D01*
X219273859Y-105996255D01*
X219335182Y-106029740D01*
X219368666Y-106091063D01*
X219371500Y-106117421D01*
X219371500Y-106619786D01*
X219398724Y-106756653D01*
X219398727Y-106756662D01*
X219452135Y-106885601D01*
X219452136Y-106885604D01*
X219529671Y-107001642D01*
X219529674Y-107001646D01*
X220868354Y-108340325D01*
X220868358Y-108340328D01*
X220984399Y-108417865D01*
X220984400Y-108417865D01*
X220984401Y-108417866D01*
X220984403Y-108417867D01*
X221075572Y-108455630D01*
X221113338Y-108471273D01*
X221113340Y-108471273D01*
X221113345Y-108471275D01*
X221250214Y-108498499D01*
X221250218Y-108498500D01*
X221250219Y-108498500D01*
X221342956Y-108498500D01*
X221409995Y-108518185D01*
X221455750Y-108570989D01*
X221465694Y-108640147D01*
X221460888Y-108660813D01*
X221453001Y-108685087D01*
X221431256Y-108752008D01*
X221401500Y-108939883D01*
X221401500Y-109130116D01*
X221431256Y-109317991D01*
X221490040Y-109498907D01*
X221560227Y-109636655D01*
X221576398Y-109668392D01*
X221688208Y-109822285D01*
X221822715Y-109956792D01*
X221822718Y-109956794D01*
X221826420Y-109959956D01*
X221825215Y-109961365D01*
X221863048Y-110010420D01*
X221871500Y-110055417D01*
X221871500Y-110179786D01*
X221898724Y-110316653D01*
X221898727Y-110316662D01*
X221952135Y-110445601D01*
X221952136Y-110445604D01*
X222029671Y-110561642D01*
X222029674Y-110561646D01*
X222318354Y-110850325D01*
X222318358Y-110850328D01*
X222434400Y-110927865D01*
X222509930Y-110959150D01*
X222563338Y-110981273D01*
X222700214Y-111008499D01*
X222700218Y-111008500D01*
X222700219Y-111008500D01*
X222839782Y-111008500D01*
X222920167Y-111008500D01*
X222987206Y-111028185D01*
X223032961Y-111080989D01*
X223042905Y-111150147D01*
X223013880Y-111213703D01*
X223007848Y-111220181D01*
X222059674Y-112168353D01*
X222059668Y-112168361D01*
X221982137Y-112284394D01*
X221982135Y-112284399D01*
X221944369Y-112375572D01*
X221944368Y-112375573D01*
X221928727Y-112413336D01*
X221928725Y-112413342D01*
X221901500Y-112550214D01*
X221901500Y-118152786D01*
X221881815Y-118219825D01*
X221850386Y-118253103D01*
X221822721Y-118273203D01*
X221822712Y-118273210D01*
X221688210Y-118407712D01*
X221688210Y-118407713D01*
X221688208Y-118407715D01*
X221640189Y-118473806D01*
X221576398Y-118561607D01*
X221490040Y-118731092D01*
X221431256Y-118912008D01*
X221401500Y-119099883D01*
X221401500Y-119290116D01*
X221431256Y-119477991D01*
X221490040Y-119658907D01*
X221572122Y-119820000D01*
X221576398Y-119828392D01*
X221688208Y-119982285D01*
X221822715Y-120116792D01*
X221976608Y-120228602D01*
X222056683Y-120269402D01*
X222146092Y-120314959D01*
X222146094Y-120314959D01*
X222146097Y-120314961D01*
X222243070Y-120346469D01*
X222327008Y-120373743D01*
X222514884Y-120403500D01*
X222514889Y-120403500D01*
X222705116Y-120403500D01*
X222892991Y-120373743D01*
X223073903Y-120314961D01*
X223243392Y-120228602D01*
X223397285Y-120116792D01*
X223531792Y-119982285D01*
X223643602Y-119828392D01*
X223729961Y-119658903D01*
X223788743Y-119477991D01*
X223794555Y-119441296D01*
X223818500Y-119290116D01*
X223818500Y-119099883D01*
X224411500Y-119099883D01*
X224411500Y-119290116D01*
X224441256Y-119477991D01*
X224500040Y-119658907D01*
X224582122Y-119820000D01*
X224586398Y-119828392D01*
X224698208Y-119982285D01*
X224832715Y-120116792D01*
X224986608Y-120228602D01*
X225066683Y-120269402D01*
X225156092Y-120314959D01*
X225156094Y-120314959D01*
X225156097Y-120314961D01*
X225253070Y-120346469D01*
X225337008Y-120373743D01*
X225524884Y-120403500D01*
X225524889Y-120403500D01*
X225715116Y-120403500D01*
X225902991Y-120373743D01*
X226083903Y-120314961D01*
X226253392Y-120228602D01*
X226407285Y-120116792D01*
X226541792Y-119982285D01*
X226653602Y-119828392D01*
X226739961Y-119658903D01*
X226798743Y-119477991D01*
X226804555Y-119441296D01*
X226828500Y-119290116D01*
X226828500Y-119107500D01*
X226848185Y-119040461D01*
X226900989Y-118994706D01*
X226952500Y-118983500D01*
X230405982Y-118983500D01*
X230473021Y-119003185D01*
X230506299Y-119034614D01*
X230533965Y-119072692D01*
X230550070Y-119094858D01*
X230690142Y-119234930D01*
X230850402Y-119351366D01*
X230933790Y-119393854D01*
X231026898Y-119441296D01*
X231026900Y-119441296D01*
X231026903Y-119441298D01*
X231127888Y-119474110D01*
X231215299Y-119502512D01*
X231410949Y-119533500D01*
X231410954Y-119533500D01*
X231609051Y-119533500D01*
X231804700Y-119502512D01*
X231993097Y-119441298D01*
X232169598Y-119351366D01*
X232329858Y-119234930D01*
X232469930Y-119094858D01*
X232586366Y-118934598D01*
X232676298Y-118758097D01*
X232737512Y-118569700D01*
X232738794Y-118561607D01*
X232768500Y-118374051D01*
X232768500Y-118175948D01*
X232737512Y-117980299D01*
X232676296Y-117791898D01*
X232586365Y-117615401D01*
X232469930Y-117455142D01*
X232329858Y-117315070D01*
X232169598Y-117198634D01*
X231993101Y-117108703D01*
X231804700Y-117047487D01*
X231609051Y-117016500D01*
X231609046Y-117016500D01*
X231410954Y-117016500D01*
X231410949Y-117016500D01*
X231215299Y-117047487D01*
X231026898Y-117108703D01*
X230850401Y-117198634D01*
X230758967Y-117265065D01*
X230690142Y-117315070D01*
X230690140Y-117315072D01*
X230690139Y-117315072D01*
X230550072Y-117455139D01*
X230550065Y-117455148D01*
X230506299Y-117515386D01*
X230450969Y-117558052D01*
X230405982Y-117566500D01*
X226345214Y-117566500D01*
X226208342Y-117593725D01*
X226208336Y-117593727D01*
X226170573Y-117609368D01*
X226170572Y-117609369D01*
X226079399Y-117647135D01*
X226079397Y-117647136D01*
X225963358Y-117724671D01*
X225963354Y-117724674D01*
X225737849Y-117950181D01*
X225676526Y-117983666D01*
X225650168Y-117986500D01*
X225524884Y-117986500D01*
X225337008Y-118016256D01*
X225156092Y-118075040D01*
X224986607Y-118161398D01*
X224966573Y-118175954D01*
X224832715Y-118273208D01*
X224832713Y-118273210D01*
X224832712Y-118273210D01*
X224698210Y-118407712D01*
X224698210Y-118407713D01*
X224698208Y-118407715D01*
X224650189Y-118473806D01*
X224586398Y-118561607D01*
X224500040Y-118731092D01*
X224441256Y-118912008D01*
X224411500Y-119099883D01*
X223818500Y-119099883D01*
X223788743Y-118912008D01*
X223729959Y-118731092D01*
X223643601Y-118561607D01*
X223531792Y-118407715D01*
X223397285Y-118273208D01*
X223394330Y-118271061D01*
X223369614Y-118253103D01*
X223326948Y-118197773D01*
X223318500Y-118152786D01*
X223318500Y-113355948D01*
X227711500Y-113355948D01*
X227711500Y-113554051D01*
X227742487Y-113749700D01*
X227803703Y-113938101D01*
X227893634Y-114114598D01*
X228010070Y-114274858D01*
X228150142Y-114414930D01*
X228310402Y-114531366D01*
X228393790Y-114573854D01*
X228486898Y-114621296D01*
X228486900Y-114621296D01*
X228486903Y-114621298D01*
X228587888Y-114654110D01*
X228675299Y-114682512D01*
X228870949Y-114713500D01*
X228870954Y-114713500D01*
X229069051Y-114713500D01*
X229264700Y-114682512D01*
X229453097Y-114621298D01*
X229629598Y-114531366D01*
X229789858Y-114414930D01*
X229929930Y-114274858D01*
X230046366Y-114114598D01*
X230136298Y-113938097D01*
X230197512Y-113749700D01*
X230228500Y-113554051D01*
X230228500Y-113355948D01*
X232791500Y-113355948D01*
X232791500Y-113554051D01*
X232822487Y-113749700D01*
X232883703Y-113938101D01*
X232973634Y-114114598D01*
X233090070Y-114274858D01*
X233230142Y-114414930D01*
X233390402Y-114531366D01*
X233473790Y-114573854D01*
X233566898Y-114621296D01*
X233566900Y-114621296D01*
X233566903Y-114621298D01*
X233667888Y-114654110D01*
X233755299Y-114682512D01*
X233950949Y-114713500D01*
X233950954Y-114713500D01*
X234149051Y-114713500D01*
X234344700Y-114682512D01*
X234533097Y-114621298D01*
X234709598Y-114531366D01*
X234869858Y-114414930D01*
X235009930Y-114274858D01*
X235126366Y-114114598D01*
X235216298Y-113938097D01*
X235277512Y-113749700D01*
X235308500Y-113554051D01*
X235308500Y-113355948D01*
X235277512Y-113160299D01*
X235216296Y-112971898D01*
X235126365Y-112795401D01*
X235009930Y-112635142D01*
X234869858Y-112495070D01*
X234709598Y-112378634D01*
X234703592Y-112375574D01*
X234533101Y-112288703D01*
X234344700Y-112227487D01*
X234149051Y-112196500D01*
X234149046Y-112196500D01*
X233950954Y-112196500D01*
X233950949Y-112196500D01*
X233755299Y-112227487D01*
X233566898Y-112288703D01*
X233390401Y-112378634D01*
X233298967Y-112445065D01*
X233230142Y-112495070D01*
X233230140Y-112495072D01*
X233230139Y-112495072D01*
X233090072Y-112635139D01*
X233090072Y-112635140D01*
X233090070Y-112635142D01*
X233040065Y-112703967D01*
X232973634Y-112795401D01*
X232883703Y-112971898D01*
X232822487Y-113160299D01*
X232791500Y-113355948D01*
X230228500Y-113355948D01*
X230197512Y-113160299D01*
X230136296Y-112971898D01*
X230046365Y-112795401D01*
X229929930Y-112635142D01*
X229789858Y-112495070D01*
X229629598Y-112378634D01*
X229623592Y-112375574D01*
X229453101Y-112288703D01*
X229264700Y-112227487D01*
X229069051Y-112196500D01*
X229069046Y-112196500D01*
X228870954Y-112196500D01*
X228870949Y-112196500D01*
X228675299Y-112227487D01*
X228486898Y-112288703D01*
X228310401Y-112378634D01*
X228218967Y-112445065D01*
X228150142Y-112495070D01*
X228150140Y-112495072D01*
X228150139Y-112495072D01*
X228010072Y-112635139D01*
X228010072Y-112635140D01*
X228010070Y-112635142D01*
X227960065Y-112703967D01*
X227893634Y-112795401D01*
X227803703Y-112971898D01*
X227742487Y-113160299D01*
X227711500Y-113355948D01*
X223318500Y-113355948D01*
X223318500Y-112964833D01*
X223338185Y-112897794D01*
X223354819Y-112877152D01*
X224572152Y-111659819D01*
X224633475Y-111626334D01*
X224659833Y-111623500D01*
X230405982Y-111623500D01*
X230473021Y-111643185D01*
X230506299Y-111674614D01*
X230520677Y-111694403D01*
X230550070Y-111734858D01*
X230690142Y-111874930D01*
X230850402Y-111991366D01*
X230933790Y-112033854D01*
X231026898Y-112081296D01*
X231026900Y-112081296D01*
X231026903Y-112081298D01*
X231127888Y-112114110D01*
X231215299Y-112142512D01*
X231410949Y-112173500D01*
X231410954Y-112173500D01*
X231609051Y-112173500D01*
X231804700Y-112142512D01*
X231993097Y-112081298D01*
X232169598Y-111991366D01*
X232329858Y-111874930D01*
X232469930Y-111734858D01*
X232586366Y-111574598D01*
X232676298Y-111398097D01*
X232737512Y-111209700D01*
X232746944Y-111150147D01*
X232768500Y-111014051D01*
X232768500Y-110815948D01*
X232737512Y-110620299D01*
X232709110Y-110532888D01*
X232676298Y-110431903D01*
X232676296Y-110431900D01*
X232676296Y-110431898D01*
X232628854Y-110338790D01*
X232586366Y-110255402D01*
X232469930Y-110095142D01*
X232329858Y-109955070D01*
X232169598Y-109838634D01*
X232142510Y-109824832D01*
X231993101Y-109748703D01*
X231804700Y-109687487D01*
X231609051Y-109656500D01*
X231609046Y-109656500D01*
X231410954Y-109656500D01*
X231410949Y-109656500D01*
X231215299Y-109687487D01*
X231026898Y-109748703D01*
X230850401Y-109838634D01*
X230758967Y-109905065D01*
X230690142Y-109955070D01*
X230690140Y-109955072D01*
X230690139Y-109955072D01*
X230550072Y-110095139D01*
X230550065Y-110095148D01*
X230506299Y-110155386D01*
X230450969Y-110198052D01*
X230405982Y-110206500D01*
X228224833Y-110206500D01*
X228157794Y-110186815D01*
X228112039Y-110134011D01*
X228102095Y-110064853D01*
X228131120Y-110001297D01*
X228137152Y-109994819D01*
X228250325Y-109881645D01*
X228250328Y-109881642D01*
X228327865Y-109765601D01*
X228370420Y-109662864D01*
X228381273Y-109636662D01*
X228408500Y-109499781D01*
X228408500Y-105929883D01*
X231531500Y-105929883D01*
X231531500Y-106120116D01*
X231561256Y-106307991D01*
X231620040Y-106488907D01*
X231686725Y-106619782D01*
X231706398Y-106658392D01*
X231818208Y-106812285D01*
X231952715Y-106946792D01*
X232106608Y-107058602D01*
X232141007Y-107076129D01*
X232276092Y-107144959D01*
X232276094Y-107144959D01*
X232276097Y-107144961D01*
X232373070Y-107176469D01*
X232457008Y-107203743D01*
X232644884Y-107233500D01*
X232644889Y-107233500D01*
X232835116Y-107233500D01*
X233022991Y-107203743D01*
X233064835Y-107190147D01*
X233203903Y-107144961D01*
X233373392Y-107058602D01*
X233527285Y-106946792D01*
X233661792Y-106812285D01*
X233773602Y-106658392D01*
X233859961Y-106488903D01*
X233918743Y-106307991D01*
X233922861Y-106281989D01*
X233948500Y-106120116D01*
X233948500Y-105929883D01*
X233918743Y-105742008D01*
X233891469Y-105658070D01*
X233859961Y-105561097D01*
X233859959Y-105561094D01*
X233859959Y-105561092D01*
X233785827Y-105415601D01*
X233773602Y-105391608D01*
X233661792Y-105237715D01*
X233527285Y-105103208D01*
X233373392Y-104991398D01*
X233203907Y-104905040D01*
X233022991Y-104846256D01*
X232835116Y-104816500D01*
X232835111Y-104816500D01*
X232644889Y-104816500D01*
X232644884Y-104816500D01*
X232457008Y-104846256D01*
X232276092Y-104905040D01*
X232106607Y-104991398D01*
X232018806Y-105055189D01*
X231952715Y-105103208D01*
X231952713Y-105103210D01*
X231952712Y-105103210D01*
X231818210Y-105237712D01*
X231818210Y-105237713D01*
X231818208Y-105237715D01*
X231782652Y-105286654D01*
X231706398Y-105391607D01*
X231620040Y-105561092D01*
X231561256Y-105742008D01*
X231531500Y-105929883D01*
X228408500Y-105929883D01*
X228408500Y-102265819D01*
X228428185Y-102198780D01*
X228459614Y-102165501D01*
X228552430Y-102098068D01*
X228698068Y-101952430D01*
X228819129Y-101785803D01*
X228859515Y-101706540D01*
X228907490Y-101655745D01*
X228975311Y-101638950D01*
X229041446Y-101661487D01*
X229080484Y-101706540D01*
X229118602Y-101781350D01*
X229120873Y-101785806D01*
X229241926Y-101952423D01*
X229241930Y-101952428D01*
X229387571Y-102098069D01*
X229387576Y-102098073D01*
X229526189Y-102198780D01*
X229554197Y-102219129D01*
X229671128Y-102278709D01*
X229737705Y-102312632D01*
X229737707Y-102312632D01*
X229737710Y-102312634D01*
X229807958Y-102335459D01*
X229933591Y-102376280D01*
X230000864Y-102386935D01*
X230137019Y-102408500D01*
X230137020Y-102408500D01*
X230342980Y-102408500D01*
X230342981Y-102408500D01*
X230546408Y-102376280D01*
X230742290Y-102312634D01*
X230925803Y-102219129D01*
X231092430Y-102098068D01*
X231238068Y-101952430D01*
X231359129Y-101785803D01*
X231399515Y-101706540D01*
X231447490Y-101655745D01*
X231515311Y-101638950D01*
X231581446Y-101661487D01*
X231620484Y-101706540D01*
X231658602Y-101781350D01*
X231660873Y-101785806D01*
X231781926Y-101952423D01*
X231781930Y-101952428D01*
X231927571Y-102098069D01*
X231927576Y-102098073D01*
X232066189Y-102198780D01*
X232094197Y-102219129D01*
X232211128Y-102278709D01*
X232277705Y-102312632D01*
X232277707Y-102312632D01*
X232277710Y-102312634D01*
X232347958Y-102335459D01*
X232473591Y-102376280D01*
X232540864Y-102386935D01*
X232677019Y-102408500D01*
X232677020Y-102408500D01*
X232882980Y-102408500D01*
X232882981Y-102408500D01*
X233086408Y-102376280D01*
X233282290Y-102312634D01*
X233465803Y-102219129D01*
X233632430Y-102098068D01*
X233778068Y-101952430D01*
X233899129Y-101785803D01*
X233992634Y-101602290D01*
X234056280Y-101406408D01*
X234088500Y-101202981D01*
X234088500Y-100997019D01*
X234078123Y-100931500D01*
X234056280Y-100793591D01*
X233992632Y-100597705D01*
X233939515Y-100493459D01*
X233899129Y-100414197D01*
X233842709Y-100336541D01*
X233778073Y-100247576D01*
X233778069Y-100247571D01*
X233632428Y-100101930D01*
X233632423Y-100101926D01*
X233465806Y-99980873D01*
X233465805Y-99980872D01*
X233465803Y-99980871D01*
X233408496Y-99951671D01*
X233282294Y-99887367D01*
X233086408Y-99823719D01*
X232910794Y-99795905D01*
X232882981Y-99791500D01*
X232677019Y-99791500D01*
X232652550Y-99795375D01*
X232473591Y-99823719D01*
X232277705Y-99887367D01*
X232094193Y-99980873D01*
X231927576Y-100101926D01*
X231927571Y-100101930D01*
X231781930Y-100247571D01*
X231781926Y-100247576D01*
X231660871Y-100414195D01*
X231620484Y-100493459D01*
X231572510Y-100544254D01*
X231504689Y-100561049D01*
X231438554Y-100538511D01*
X231399516Y-100493459D01*
X231359128Y-100414195D01*
X231238073Y-100247576D01*
X231238069Y-100247571D01*
X231092428Y-100101930D01*
X231092423Y-100101926D01*
X230925806Y-99980873D01*
X230925805Y-99980872D01*
X230925803Y-99980871D01*
X230868496Y-99951671D01*
X230742294Y-99887367D01*
X230546408Y-99823719D01*
X230370794Y-99795905D01*
X230342981Y-99791500D01*
X230137019Y-99791500D01*
X230112550Y-99795375D01*
X229933591Y-99823719D01*
X229737705Y-99887367D01*
X229554193Y-99980873D01*
X229387576Y-100101926D01*
X229387571Y-100101930D01*
X229241930Y-100247571D01*
X229241926Y-100247576D01*
X229120871Y-100414195D01*
X229080484Y-100493459D01*
X229032510Y-100544254D01*
X228964689Y-100561049D01*
X228898554Y-100538511D01*
X228859516Y-100493459D01*
X228819128Y-100414195D01*
X228698073Y-100247576D01*
X228698069Y-100247571D01*
X228552428Y-100101930D01*
X228552423Y-100101926D01*
X228385806Y-99980873D01*
X228385805Y-99980872D01*
X228385803Y-99980871D01*
X228328496Y-99951671D01*
X228202294Y-99887367D01*
X228006408Y-99823719D01*
X227830794Y-99795905D01*
X227802981Y-99791500D01*
X227597019Y-99791500D01*
X227572550Y-99795375D01*
X227393591Y-99823719D01*
X227197705Y-99887367D01*
X227014193Y-99980873D01*
X226847576Y-100101926D01*
X226847571Y-100101930D01*
X226701930Y-100247571D01*
X226701926Y-100247576D01*
X226580871Y-100414195D01*
X226540484Y-100493459D01*
X226492510Y-100544254D01*
X226424689Y-100561049D01*
X226358554Y-100538511D01*
X226319516Y-100493459D01*
X226279128Y-100414195D01*
X226158073Y-100247576D01*
X226158069Y-100247571D01*
X226012428Y-100101930D01*
X226012423Y-100101926D01*
X225845806Y-99980873D01*
X225845805Y-99980872D01*
X225845803Y-99980871D01*
X225788496Y-99951671D01*
X225662294Y-99887367D01*
X225466408Y-99823719D01*
X225290794Y-99795905D01*
X225262981Y-99791500D01*
X225057019Y-99791500D01*
X225032550Y-99795375D01*
X224853591Y-99823719D01*
X224657705Y-99887367D01*
X224474193Y-99980873D01*
X224307576Y-100101926D01*
X224307571Y-100101930D01*
X224161930Y-100247571D01*
X224161926Y-100247576D01*
X224040871Y-100414195D01*
X224000484Y-100493459D01*
X223952510Y-100544254D01*
X223884689Y-100561049D01*
X223818554Y-100538511D01*
X223779516Y-100493459D01*
X223739128Y-100414195D01*
X223618073Y-100247576D01*
X223618069Y-100247571D01*
X223472428Y-100101930D01*
X223472423Y-100101926D01*
X223305806Y-99980873D01*
X223305805Y-99980872D01*
X223305803Y-99980871D01*
X223248496Y-99951671D01*
X223122294Y-99887367D01*
X222926408Y-99823719D01*
X222750794Y-99795905D01*
X222722981Y-99791500D01*
X222517019Y-99791500D01*
X222492550Y-99795375D01*
X222313591Y-99823719D01*
X222117705Y-99887367D01*
X221934193Y-99980873D01*
X221767576Y-100101926D01*
X221767571Y-100101930D01*
X221621930Y-100247571D01*
X221621926Y-100247576D01*
X221500871Y-100414195D01*
X221460484Y-100493459D01*
X221412510Y-100544254D01*
X221344689Y-100561049D01*
X221278554Y-100538511D01*
X221239516Y-100493459D01*
X221199128Y-100414195D01*
X221078073Y-100247576D01*
X221078069Y-100247571D01*
X220932428Y-100101930D01*
X220932423Y-100101926D01*
X220765806Y-99980873D01*
X220765805Y-99980872D01*
X220765803Y-99980871D01*
X220708496Y-99951671D01*
X220582294Y-99887367D01*
X220386408Y-99823719D01*
X220210794Y-99795905D01*
X220182981Y-99791500D01*
X219977019Y-99791500D01*
X219923353Y-99800000D01*
X219773590Y-99823720D01*
X219773587Y-99823720D01*
X219611818Y-99876283D01*
X219541977Y-99878278D01*
X219482144Y-99842198D01*
X219451316Y-99779497D01*
X219449500Y-99758352D01*
X219449500Y-98123833D01*
X219469185Y-98056794D01*
X219485819Y-98036152D01*
X219697152Y-97824819D01*
X219758475Y-97791334D01*
X219784833Y-97788500D01*
X224669782Y-97788500D01*
X224738221Y-97774886D01*
X224806662Y-97761273D01*
X224854398Y-97741500D01*
X224935601Y-97707865D01*
X225051643Y-97630328D01*
X225710328Y-96971642D01*
X225787865Y-96855600D01*
X225819150Y-96780070D01*
X225841273Y-96726662D01*
X225868500Y-96589781D01*
X225868500Y-94645819D01*
X225888185Y-94578780D01*
X225919614Y-94545501D01*
X226012430Y-94478068D01*
X226158068Y-94332430D01*
X226279129Y-94165803D01*
X226319515Y-94086540D01*
X226367490Y-94035745D01*
X226435311Y-94018950D01*
X226501446Y-94041487D01*
X226540484Y-94086540D01*
X226578602Y-94161350D01*
X226580873Y-94165806D01*
X226701926Y-94332423D01*
X226701930Y-94332428D01*
X226847571Y-94478069D01*
X226847576Y-94478073D01*
X226947223Y-94550470D01*
X227014197Y-94599129D01*
X227105831Y-94645819D01*
X227197705Y-94692632D01*
X227197707Y-94692632D01*
X227197710Y-94692634D01*
X227288437Y-94722113D01*
X227393591Y-94756280D01*
X227421296Y-94760668D01*
X227597019Y-94788500D01*
X227597020Y-94788500D01*
X227802980Y-94788500D01*
X227802981Y-94788500D01*
X228006408Y-94756280D01*
X228202290Y-94692634D01*
X228385803Y-94599129D01*
X228552430Y-94478068D01*
X228698068Y-94332430D01*
X228819129Y-94165803D01*
X228859515Y-94086540D01*
X228907490Y-94035745D01*
X228975311Y-94018950D01*
X229041446Y-94041487D01*
X229080484Y-94086540D01*
X229118602Y-94161350D01*
X229120873Y-94165806D01*
X229241926Y-94332423D01*
X229241930Y-94332428D01*
X229387571Y-94478069D01*
X229387576Y-94478073D01*
X229487223Y-94550470D01*
X229554197Y-94599129D01*
X229645831Y-94645819D01*
X229737705Y-94692632D01*
X229737707Y-94692632D01*
X229737710Y-94692634D01*
X229828437Y-94722113D01*
X229933591Y-94756280D01*
X229961296Y-94760668D01*
X230137019Y-94788500D01*
X230137020Y-94788500D01*
X230342980Y-94788500D01*
X230342981Y-94788500D01*
X230546408Y-94756280D01*
X230742290Y-94692634D01*
X230925803Y-94599129D01*
X231092430Y-94478068D01*
X231238068Y-94332430D01*
X231297330Y-94250861D01*
X231352658Y-94208196D01*
X231422272Y-94202216D01*
X231484067Y-94234822D01*
X231515354Y-94284743D01*
X231537885Y-94352738D01*
X231630970Y-94503652D01*
X231756348Y-94629030D01*
X231907262Y-94722115D01*
X232075574Y-94777887D01*
X232179455Y-94788500D01*
X233380544Y-94788499D01*
X233484426Y-94777887D01*
X233652738Y-94722115D01*
X233803652Y-94629030D01*
X233929030Y-94503652D01*
X234022115Y-94352738D01*
X234077887Y-94184426D01*
X234088500Y-94080545D01*
X234088499Y-92879456D01*
X234077887Y-92775574D01*
X234022115Y-92607262D01*
X233929030Y-92456348D01*
X233803652Y-92330970D01*
X233652738Y-92237885D01*
X233549630Y-92203719D01*
X233484427Y-92182113D01*
X233380545Y-92171500D01*
X232179462Y-92171500D01*
X232179446Y-92171501D01*
X232075572Y-92182113D01*
X231907264Y-92237884D01*
X231907259Y-92237886D01*
X231756346Y-92330971D01*
X231630971Y-92456346D01*
X231537886Y-92607259D01*
X231537885Y-92607262D01*
X231515354Y-92675257D01*
X231475581Y-92732701D01*
X231411065Y-92759524D01*
X231342289Y-92747209D01*
X231297330Y-92709138D01*
X231238068Y-92627570D01*
X231092430Y-92481932D01*
X231092428Y-92481930D01*
X231092423Y-92481926D01*
X230925806Y-92360873D01*
X230925805Y-92360872D01*
X230925803Y-92360871D01*
X230867119Y-92330970D01*
X230742294Y-92267367D01*
X230546408Y-92203719D01*
X230370794Y-92175905D01*
X230342981Y-92171500D01*
X230137019Y-92171500D01*
X230112550Y-92175375D01*
X229933591Y-92203719D01*
X229737705Y-92267367D01*
X229554193Y-92360873D01*
X229387576Y-92481926D01*
X229387571Y-92481930D01*
X229241930Y-92627571D01*
X229241926Y-92627576D01*
X229120871Y-92794195D01*
X229080484Y-92873459D01*
X229032510Y-92924254D01*
X228964689Y-92941049D01*
X228898554Y-92918511D01*
X228859516Y-92873459D01*
X228819128Y-92794195D01*
X228698073Y-92627576D01*
X228698069Y-92627571D01*
X228552428Y-92481930D01*
X228552423Y-92481926D01*
X228385806Y-92360873D01*
X228385805Y-92360872D01*
X228385803Y-92360871D01*
X228327119Y-92330970D01*
X228202294Y-92267367D01*
X228006408Y-92203719D01*
X227830794Y-92175905D01*
X227802981Y-92171500D01*
X227597019Y-92171500D01*
X227572550Y-92175375D01*
X227393591Y-92203719D01*
X227197705Y-92267367D01*
X227014193Y-92360873D01*
X226847576Y-92481926D01*
X226847571Y-92481930D01*
X226701930Y-92627571D01*
X226701926Y-92627576D01*
X226580871Y-92794195D01*
X226540484Y-92873459D01*
X226492510Y-92924254D01*
X226424689Y-92941049D01*
X226358554Y-92918511D01*
X226319516Y-92873459D01*
X226279128Y-92794195D01*
X226158073Y-92627576D01*
X226158069Y-92627571D01*
X226012428Y-92481930D01*
X226012423Y-92481926D01*
X225845806Y-92360873D01*
X225845805Y-92360872D01*
X225845803Y-92360871D01*
X225787119Y-92330970D01*
X225662294Y-92267367D01*
X225466408Y-92203719D01*
X225290794Y-92175905D01*
X225262981Y-92171500D01*
X225057019Y-92171500D01*
X225032550Y-92175375D01*
X224853591Y-92203719D01*
X224657705Y-92267367D01*
X224474193Y-92360873D01*
X224307576Y-92481926D01*
X224307571Y-92481930D01*
X224161930Y-92627571D01*
X224161926Y-92627576D01*
X224040871Y-92794195D01*
X224000484Y-92873459D01*
X223952510Y-92924254D01*
X223884689Y-92941049D01*
X223818554Y-92918511D01*
X223779516Y-92873459D01*
X223739128Y-92794195D01*
X223618073Y-92627576D01*
X223618069Y-92627571D01*
X223472428Y-92481930D01*
X223472423Y-92481926D01*
X223379615Y-92414497D01*
X223336949Y-92359167D01*
X223328500Y-92314179D01*
X223328500Y-92050218D01*
X223328499Y-92050214D01*
X223309524Y-91954819D01*
X223301273Y-91913338D01*
X223260291Y-91814399D01*
X223260290Y-91814396D01*
X223247868Y-91784406D01*
X223247861Y-91784393D01*
X223170328Y-91668358D01*
X223170325Y-91668354D01*
X221560646Y-90058674D01*
X221560642Y-90058671D01*
X221444604Y-89981136D01*
X221444601Y-89981135D01*
X221360230Y-89946187D01*
X221360223Y-89946185D01*
X221353386Y-89943353D01*
X221315662Y-89927727D01*
X221247221Y-89914113D01*
X221242536Y-89913181D01*
X221242525Y-89913178D01*
X221178785Y-89900500D01*
X221178782Y-89900500D01*
X221178781Y-89900500D01*
X214124804Y-89900500D01*
X214057765Y-89880815D01*
X214012010Y-89828011D01*
X214002066Y-89758853D01*
X214024484Y-89703617D01*
X214144657Y-89538215D01*
X214245308Y-89340676D01*
X214313818Y-89129824D01*
X214348500Y-88910851D01*
X214348500Y-88689149D01*
X214313818Y-88470176D01*
X214245308Y-88259324D01*
X214245306Y-88259321D01*
X214245306Y-88259319D01*
X214153661Y-88079457D01*
X214144657Y-88061785D01*
X214014343Y-87882424D01*
X213857576Y-87725657D01*
X213678215Y-87595343D01*
X213502310Y-87505715D01*
X213451514Y-87457740D01*
X213434719Y-87389919D01*
X213457256Y-87323785D01*
X213502310Y-87284745D01*
X213673760Y-87197386D01*
X213737513Y-87151066D01*
X213737514Y-87151066D01*
X213151059Y-86564612D01*
X213171591Y-86559111D01*
X213308408Y-86480119D01*
X213420119Y-86368408D01*
X213499111Y-86231591D01*
X213504612Y-86211060D01*
X214091066Y-86797514D01*
X214091066Y-86797513D01*
X214137386Y-86733760D01*
X214237432Y-86537410D01*
X214305526Y-86327835D01*
X214340000Y-86110181D01*
X214340000Y-85889818D01*
X214305526Y-85672164D01*
X214237432Y-85462589D01*
X214137388Y-85266243D01*
X214091066Y-85202485D01*
X214091065Y-85202485D01*
X213504612Y-85788939D01*
X213499111Y-85768409D01*
X213420119Y-85631592D01*
X213308408Y-85519881D01*
X213171591Y-85440889D01*
X213151057Y-85435387D01*
X213737513Y-84848932D01*
X213673756Y-84802611D01*
X213477410Y-84702567D01*
X213267835Y-84634473D01*
X213050181Y-84600000D01*
X212829819Y-84600000D01*
X212612164Y-84634473D01*
X212402589Y-84702567D01*
X212206233Y-84802616D01*
X212142485Y-84848931D01*
X212142485Y-84848932D01*
X212728940Y-85435387D01*
X212708409Y-85440889D01*
X212571592Y-85519881D01*
X212459881Y-85631592D01*
X212380889Y-85768409D01*
X212375387Y-85788941D01*
X212214266Y-85627820D01*
X212184016Y-85578456D01*
X212145310Y-85459329D01*
X212145308Y-85459323D01*
X212094023Y-85358672D01*
X212044657Y-85261785D01*
X211914343Y-85082424D01*
X211757576Y-84925657D01*
X211578215Y-84795343D01*
X211529403Y-84770472D01*
X211380680Y-84694693D01*
X211169824Y-84626182D01*
X211114926Y-84617487D01*
X210950851Y-84591500D01*
X210729149Y-84591500D01*
X210619662Y-84608841D01*
X210510175Y-84626182D01*
X210299319Y-84694693D01*
X210101784Y-84795343D01*
X209922425Y-84925656D01*
X209836909Y-85011172D01*
X209775585Y-85044656D01*
X209705894Y-85039672D01*
X209649960Y-84997800D01*
X209633048Y-84966828D01*
X209590889Y-84853796D01*
X209503261Y-84736739D01*
X209386204Y-84649111D01*
X209249203Y-84598011D01*
X209188654Y-84591500D01*
X209188638Y-84591500D01*
X207291362Y-84591500D01*
X207291345Y-84591500D01*
X207230797Y-84598011D01*
X207230795Y-84598011D01*
X207093795Y-84649111D01*
X206976738Y-84736740D01*
X206970465Y-84743013D01*
X206968359Y-84740907D01*
X206924366Y-84773821D01*
X206854673Y-84778786D01*
X206824773Y-84768113D01*
X206771378Y-84740907D01*
X206680680Y-84694693D01*
X206469824Y-84626182D01*
X206414926Y-84617487D01*
X206250851Y-84591500D01*
X206029149Y-84591500D01*
X205919662Y-84608841D01*
X205810175Y-84626182D01*
X205599319Y-84694693D01*
X205401784Y-84795343D01*
X205328028Y-84848931D01*
X205222424Y-84925657D01*
X205222422Y-84925659D01*
X205222421Y-84925659D01*
X205065659Y-85082421D01*
X205065659Y-85082422D01*
X205065657Y-85082424D01*
X205025144Y-85138185D01*
X204935343Y-85261784D01*
X204834693Y-85459319D01*
X204766182Y-85670175D01*
X204766182Y-85670176D01*
X204731500Y-85889149D01*
X204731500Y-86110851D01*
X204748442Y-86217816D01*
X204766182Y-86329824D01*
X204834693Y-86540680D01*
X204908915Y-86686348D01*
X204935343Y-86738215D01*
X205065657Y-86917576D01*
X205222424Y-87074343D01*
X205401785Y-87204657D01*
X205455229Y-87231888D01*
X205568328Y-87289515D01*
X205619124Y-87337490D01*
X205635919Y-87405311D01*
X205613382Y-87471446D01*
X205568328Y-87510485D01*
X205401784Y-87595343D01*
X205299452Y-87669692D01*
X205222424Y-87725657D01*
X205222422Y-87725659D01*
X205222421Y-87725659D01*
X205065659Y-87882421D01*
X205065659Y-87882422D01*
X205065657Y-87882424D01*
X205009692Y-87959452D01*
X204935343Y-88061784D01*
X204834693Y-88259319D01*
X204780555Y-88425939D01*
X204766182Y-88470176D01*
X204731500Y-88689149D01*
X204731500Y-88910851D01*
X204759100Y-89085111D01*
X204766182Y-89129824D01*
X204834693Y-89340680D01*
X204892384Y-89453903D01*
X204935343Y-89538215D01*
X205065657Y-89717576D01*
X205222424Y-89874343D01*
X205380387Y-89989110D01*
X205423051Y-90044439D01*
X205430436Y-90083765D01*
X205430903Y-90083720D01*
X205431426Y-90089035D01*
X205431500Y-90089427D01*
X205431500Y-90089785D01*
X205455113Y-90208497D01*
X205455114Y-90208500D01*
X205458727Y-90226661D01*
X205501551Y-90330049D01*
X205509020Y-90399517D01*
X205477745Y-90461996D01*
X205417656Y-90497648D01*
X205386990Y-90501500D01*
X186360214Y-90501500D01*
X186223345Y-90528724D01*
X186223341Y-90528726D01*
X186223339Y-90528726D01*
X186223338Y-90528727D01*
X186169930Y-90550849D01*
X186169928Y-90550850D01*
X186094401Y-90582134D01*
X186094397Y-90582136D01*
X185978362Y-90659668D01*
X185978354Y-90659674D01*
X174179674Y-102458353D01*
X174179671Y-102458357D01*
X174102136Y-102574395D01*
X174075998Y-102637500D01*
X174048728Y-102703333D01*
X174048725Y-102703345D01*
X174021500Y-102840214D01*
X174021500Y-103814179D01*
X174001815Y-103881218D01*
X173970385Y-103914497D01*
X173877576Y-103981926D01*
X173877571Y-103981930D01*
X173731930Y-104127571D01*
X173731926Y-104127576D01*
X173610871Y-104294195D01*
X173570484Y-104373459D01*
X173522510Y-104424254D01*
X173454689Y-104441049D01*
X173388554Y-104418511D01*
X173349516Y-104373459D01*
X173309128Y-104294195D01*
X173188073Y-104127576D01*
X173188069Y-104127571D01*
X173042428Y-103981930D01*
X173042423Y-103981926D01*
X172875806Y-103860873D01*
X172875805Y-103860872D01*
X172875803Y-103860871D01*
X172797982Y-103821219D01*
X172692294Y-103767367D01*
X172496409Y-103703720D01*
X172479210Y-103700996D01*
X172416076Y-103671066D01*
X172379145Y-103611755D01*
X172380143Y-103541892D01*
X172418753Y-103483660D01*
X172460291Y-103460592D01*
X172509029Y-103444755D01*
X172691349Y-103351859D01*
X172735921Y-103319474D01*
X172056447Y-102640000D01*
X172062661Y-102640000D01*
X172164394Y-102612741D01*
X172255606Y-102560080D01*
X172330080Y-102485606D01*
X172382741Y-102394394D01*
X172410000Y-102292661D01*
X172410000Y-102286448D01*
X173089474Y-102965922D01*
X173089474Y-102965921D01*
X173121859Y-102921349D01*
X173214755Y-102739031D01*
X173277990Y-102544417D01*
X173310000Y-102342317D01*
X173310000Y-102137682D01*
X173277990Y-101935582D01*
X173214755Y-101740968D01*
X173121859Y-101558650D01*
X173089474Y-101514077D01*
X173089474Y-101514076D01*
X172410000Y-102193551D01*
X172410000Y-102187339D01*
X172382741Y-102085606D01*
X172330080Y-101994394D01*
X172255606Y-101919920D01*
X172164394Y-101867259D01*
X172062661Y-101840000D01*
X172056446Y-101840000D01*
X172735922Y-101160524D01*
X172735921Y-101160523D01*
X172691359Y-101128147D01*
X172691350Y-101128141D01*
X172509031Y-101035244D01*
X172314417Y-100972009D01*
X172112317Y-100940000D01*
X171907683Y-100940000D01*
X171705582Y-100972009D01*
X171510968Y-101035244D01*
X171328644Y-101128143D01*
X171284077Y-101160523D01*
X171284077Y-101160524D01*
X171963554Y-101840000D01*
X171957339Y-101840000D01*
X171855606Y-101867259D01*
X171764394Y-101919920D01*
X171689920Y-101994394D01*
X171637259Y-102085606D01*
X171610000Y-102187339D01*
X171610000Y-102193553D01*
X170930524Y-101514077D01*
X170930523Y-101514077D01*
X170898143Y-101558645D01*
X170898141Y-101558648D01*
X170855253Y-101642820D01*
X170807279Y-101693615D01*
X170739457Y-101710410D01*
X170673323Y-101687872D01*
X170634284Y-101642819D01*
X170622518Y-101619727D01*
X170589129Y-101554197D01*
X170559980Y-101514076D01*
X170468073Y-101387576D01*
X170468069Y-101387571D01*
X170322428Y-101241930D01*
X170322423Y-101241926D01*
X170155806Y-101120873D01*
X170155805Y-101120872D01*
X170155803Y-101120871D01*
X170098496Y-101091671D01*
X169972294Y-101027367D01*
X169776408Y-100963719D01*
X169600794Y-100935905D01*
X169572981Y-100931500D01*
X169367019Y-100931500D01*
X169342550Y-100935375D01*
X169163591Y-100963719D01*
X168967705Y-101027367D01*
X168784193Y-101120873D01*
X168617576Y-101241926D01*
X168617571Y-101241930D01*
X168471930Y-101387571D01*
X168471926Y-101387576D01*
X168350873Y-101554193D01*
X168257367Y-101737705D01*
X168193719Y-101933591D01*
X168161500Y-102137019D01*
X167064113Y-102137019D01*
X167065665Y-87190837D01*
X168561500Y-87190837D01*
X168561500Y-89129160D01*
X168561501Y-89129172D01*
X168564311Y-89182095D01*
X168599139Y-89362172D01*
X168609030Y-89413314D01*
X168623588Y-89451890D01*
X168692181Y-89633651D01*
X168811374Y-89836767D01*
X168811379Y-89836774D01*
X168963179Y-90016818D01*
X168963181Y-90016820D01*
X169143225Y-90168620D01*
X169143232Y-90168625D01*
X169346348Y-90287818D01*
X169566686Y-90370970D01*
X169797908Y-90415689D01*
X169850829Y-90418500D01*
X171789170Y-90418499D01*
X171842092Y-90415689D01*
X172073314Y-90370970D01*
X172293652Y-90287818D01*
X172496768Y-90168625D01*
X172566347Y-90109961D01*
X172676818Y-90016820D01*
X172676820Y-90016818D01*
X172828620Y-89836774D01*
X172828620Y-89836773D01*
X172828625Y-89836768D01*
X172947818Y-89633652D01*
X173029987Y-89415918D01*
X173072073Y-89360148D01*
X173137631Y-89335984D01*
X173205846Y-89351099D01*
X173255061Y-89400694D01*
X173270000Y-89459701D01*
X173270000Y-90910000D01*
X174086988Y-90910000D01*
X174054075Y-90967007D01*
X174020000Y-91094174D01*
X174020000Y-91225826D01*
X174054075Y-91352993D01*
X174086988Y-91410000D01*
X173270000Y-91410000D01*
X173270000Y-92957844D01*
X173276401Y-93017372D01*
X173276403Y-93017379D01*
X173326645Y-93152086D01*
X173326649Y-93152093D01*
X173412809Y-93267187D01*
X173412812Y-93267190D01*
X173527906Y-93353350D01*
X173527913Y-93353354D01*
X173662620Y-93403596D01*
X173662627Y-93403598D01*
X173722155Y-93409999D01*
X173722172Y-93410000D01*
X175270000Y-93410000D01*
X175270000Y-91660000D01*
X175770000Y-91660000D01*
X175770000Y-93410000D01*
X177317828Y-93410000D01*
X177317844Y-93409999D01*
X177377372Y-93403598D01*
X177377379Y-93403596D01*
X177512086Y-93353354D01*
X177512093Y-93353350D01*
X177627187Y-93267190D01*
X177627190Y-93267187D01*
X177713350Y-93152093D01*
X177713354Y-93152086D01*
X177763596Y-93017379D01*
X177763598Y-93017372D01*
X177769999Y-92957844D01*
X177770000Y-92957827D01*
X177770000Y-91410000D01*
X176953012Y-91410000D01*
X176985925Y-91352993D01*
X177020000Y-91225826D01*
X177020000Y-91094174D01*
X176985925Y-90967007D01*
X176953012Y-90910000D01*
X177770000Y-90910000D01*
X177770000Y-89362172D01*
X177769999Y-89362155D01*
X177763598Y-89302627D01*
X177763596Y-89302620D01*
X177713354Y-89167913D01*
X177713350Y-89167906D01*
X177627190Y-89052812D01*
X177627187Y-89052809D01*
X177512093Y-88966649D01*
X177512086Y-88966645D01*
X177377379Y-88916403D01*
X177377372Y-88916401D01*
X177317844Y-88910000D01*
X175770000Y-88910000D01*
X175770000Y-90660000D01*
X175270000Y-90660000D01*
X175270000Y-88910000D01*
X173722155Y-88910000D01*
X173662627Y-88916401D01*
X173662620Y-88916403D01*
X173527913Y-88966645D01*
X173527906Y-88966649D01*
X173412812Y-89052809D01*
X173412809Y-89052812D01*
X173326649Y-89167906D01*
X173326645Y-89167914D01*
X173317846Y-89191504D01*
X173275973Y-89247437D01*
X173210508Y-89271852D01*
X173142235Y-89256999D01*
X173092831Y-89207592D01*
X173077840Y-89141584D01*
X173078500Y-89129171D01*
X173078499Y-87190830D01*
X173075689Y-87137908D01*
X173030970Y-86906686D01*
X172947818Y-86686348D01*
X172828625Y-86483232D01*
X172828620Y-86483225D01*
X172676820Y-86303181D01*
X172676818Y-86303179D01*
X172496774Y-86151379D01*
X172496767Y-86151374D01*
X172293651Y-86032181D01*
X172073311Y-85949029D01*
X171842096Y-85904311D01*
X171789201Y-85901501D01*
X171789179Y-85901500D01*
X171789171Y-85901500D01*
X171789162Y-85901500D01*
X169850839Y-85901500D01*
X169850827Y-85901501D01*
X169797904Y-85904311D01*
X169566688Y-85949029D01*
X169346348Y-86032181D01*
X169143232Y-86151374D01*
X169143225Y-86151379D01*
X168963181Y-86303179D01*
X168963179Y-86303181D01*
X168811379Y-86483225D01*
X168811374Y-86483232D01*
X168692181Y-86686348D01*
X168609029Y-86906688D01*
X168564311Y-87137903D01*
X168561501Y-87190798D01*
X168561500Y-87190837D01*
X167065665Y-87190837D01*
X167065961Y-84345358D01*
X173261500Y-84345358D01*
X173261500Y-85974641D01*
X173271970Y-86107668D01*
X173327321Y-86327338D01*
X173421008Y-86533595D01*
X173550014Y-86719803D01*
X173710196Y-86879985D01*
X173896404Y-87008991D01*
X173896405Y-87008991D01*
X173896409Y-87008994D01*
X174034134Y-87071551D01*
X174102661Y-87102678D01*
X174102662Y-87102678D01*
X174102664Y-87102679D01*
X174322331Y-87158030D01*
X174455364Y-87168500D01*
X174455372Y-87168500D01*
X176584628Y-87168500D01*
X176584636Y-87168500D01*
X176717669Y-87158030D01*
X176937336Y-87102679D01*
X177143591Y-87008994D01*
X177329802Y-86879986D01*
X177489986Y-86719802D01*
X177618994Y-86533591D01*
X177712679Y-86327336D01*
X177768030Y-86107669D01*
X177778500Y-85974636D01*
X177778500Y-84345364D01*
X177768030Y-84212331D01*
X177712679Y-83992664D01*
X177618994Y-83786409D01*
X177592370Y-83747980D01*
X177489985Y-83600196D01*
X177329803Y-83440014D01*
X177143595Y-83311008D01*
X176937338Y-83217321D01*
X176790891Y-83180420D01*
X176717669Y-83161970D01*
X176695496Y-83160225D01*
X176584641Y-83151500D01*
X176584636Y-83151500D01*
X174455364Y-83151500D01*
X174455358Y-83151500D01*
X174322331Y-83161970D01*
X174102661Y-83217321D01*
X173896404Y-83311008D01*
X173710196Y-83440014D01*
X173550014Y-83600196D01*
X173421008Y-83786404D01*
X173327321Y-83992661D01*
X173271970Y-84212331D01*
X173261500Y-84345358D01*
X167065961Y-84345358D01*
X167066303Y-81052332D01*
X182529500Y-81052332D01*
X182529500Y-81327667D01*
X182529501Y-81327684D01*
X182565438Y-81600655D01*
X182565439Y-81600660D01*
X182565440Y-81600666D01*
X182565441Y-81600668D01*
X182636704Y-81866630D01*
X182742075Y-82121017D01*
X182742080Y-82121028D01*
X182814121Y-82245805D01*
X182879751Y-82359479D01*
X182879753Y-82359482D01*
X182879754Y-82359483D01*
X183047370Y-82577926D01*
X183047376Y-82577933D01*
X183242066Y-82772623D01*
X183242072Y-82772628D01*
X183460521Y-82940249D01*
X183613778Y-83028732D01*
X183698971Y-83077919D01*
X183698976Y-83077921D01*
X183698979Y-83077923D01*
X183953368Y-83183295D01*
X184219334Y-83254560D01*
X184492326Y-83290500D01*
X184492333Y-83290500D01*
X184767667Y-83290500D01*
X184767674Y-83290500D01*
X185040666Y-83254560D01*
X185306632Y-83183295D01*
X185561021Y-83077923D01*
X185799479Y-82940249D01*
X186017928Y-82772628D01*
X186029211Y-82761345D01*
X187441500Y-82761345D01*
X187441500Y-84658654D01*
X187448011Y-84719202D01*
X187448011Y-84719204D01*
X187496398Y-84848931D01*
X187499111Y-84856204D01*
X187586739Y-84973261D01*
X187703796Y-85060889D01*
X187818949Y-85103839D01*
X187826015Y-85106475D01*
X187840799Y-85111989D01*
X187868050Y-85114918D01*
X187901345Y-85118499D01*
X187901362Y-85118500D01*
X188017500Y-85118500D01*
X188084539Y-85138185D01*
X188130294Y-85190989D01*
X188141500Y-85242500D01*
X188141500Y-87859786D01*
X188168724Y-87996653D01*
X188168727Y-87996662D01*
X188222135Y-88125601D01*
X188222136Y-88125604D01*
X188299671Y-88241642D01*
X188299674Y-88241646D01*
X189598356Y-89540328D01*
X189714393Y-89617861D01*
X189714399Y-89617865D01*
X189727743Y-89623392D01*
X189762289Y-89637702D01*
X189762294Y-89637703D01*
X189762296Y-89637704D01*
X189843338Y-89671273D01*
X189881939Y-89678951D01*
X189960741Y-89694626D01*
X189971859Y-89696837D01*
X189980218Y-89698500D01*
X189980219Y-89698500D01*
X198147786Y-89698500D01*
X198214825Y-89718185D01*
X198248103Y-89749614D01*
X198254816Y-89758853D01*
X198268208Y-89777285D01*
X198402715Y-89911792D01*
X198556608Y-90023602D01*
X198597503Y-90044439D01*
X198726092Y-90109959D01*
X198726094Y-90109959D01*
X198726097Y-90109961D01*
X198823070Y-90141469D01*
X198907008Y-90168743D01*
X199094884Y-90198500D01*
X199094889Y-90198500D01*
X199285116Y-90198500D01*
X199472991Y-90168743D01*
X199473370Y-90168620D01*
X199653903Y-90109961D01*
X199823392Y-90023602D01*
X199977285Y-89911792D01*
X200111792Y-89777285D01*
X200223602Y-89623392D01*
X200309961Y-89453903D01*
X200368743Y-89272991D01*
X200372790Y-89247437D01*
X200398500Y-89085116D01*
X200398500Y-88894883D01*
X200368743Y-88707008D01*
X200341469Y-88623070D01*
X200309961Y-88526097D01*
X200309959Y-88526094D01*
X200309959Y-88526092D01*
X200253421Y-88415131D01*
X200223602Y-88356608D01*
X200111792Y-88202715D01*
X199977285Y-88068208D01*
X199823392Y-87956398D01*
X199653907Y-87870040D01*
X199472991Y-87811256D01*
X199285116Y-87781500D01*
X199285111Y-87781500D01*
X199094889Y-87781500D01*
X199094884Y-87781500D01*
X198907008Y-87811256D01*
X198726092Y-87870040D01*
X198556607Y-87956398D01*
X198501189Y-87996662D01*
X198402715Y-88068208D01*
X198402713Y-88068210D01*
X198402712Y-88068210D01*
X198268210Y-88202712D01*
X198268203Y-88202721D01*
X198248103Y-88230386D01*
X198192773Y-88273052D01*
X198147786Y-88281500D01*
X190394833Y-88281500D01*
X190327794Y-88261815D01*
X190307152Y-88245181D01*
X189594819Y-87532848D01*
X189561334Y-87471525D01*
X189558500Y-87445167D01*
X189558500Y-85242500D01*
X189578185Y-85175461D01*
X189630989Y-85129706D01*
X189682500Y-85118500D01*
X189798638Y-85118500D01*
X189798654Y-85118499D01*
X189825692Y-85115591D01*
X189859201Y-85111989D01*
X189996204Y-85060889D01*
X190113261Y-84973261D01*
X190200889Y-84856204D01*
X190243108Y-84743013D01*
X190251988Y-84719204D01*
X190251988Y-84719203D01*
X190251989Y-84719201D01*
X190255591Y-84685692D01*
X190258499Y-84658654D01*
X190258500Y-84658637D01*
X190258500Y-84539308D01*
X190278185Y-84472269D01*
X190294819Y-84451627D01*
X190947861Y-83798584D01*
X190970667Y-83883694D01*
X191029910Y-83986306D01*
X191113694Y-84070090D01*
X191216306Y-84129333D01*
X191301414Y-84152137D01*
X190592485Y-84861065D01*
X190592485Y-84861066D01*
X190656243Y-84907388D01*
X190852589Y-85007432D01*
X191062164Y-85075526D01*
X191279819Y-85110000D01*
X191500181Y-85110000D01*
X191717835Y-85075526D01*
X191927410Y-85007432D01*
X192123760Y-84907386D01*
X192187513Y-84861066D01*
X192187514Y-84861066D01*
X191478585Y-84152138D01*
X191563694Y-84129333D01*
X191666306Y-84070090D01*
X191750090Y-83986306D01*
X191809333Y-83883694D01*
X191832137Y-83798585D01*
X192541066Y-84507514D01*
X192541066Y-84507513D01*
X192587386Y-84443760D01*
X192687432Y-84247410D01*
X192755526Y-84037835D01*
X192790000Y-83820181D01*
X192790000Y-83599818D01*
X192755526Y-83382164D01*
X192687432Y-83172589D01*
X192587388Y-82976243D01*
X192541066Y-82912485D01*
X192541065Y-82912485D01*
X191832137Y-83621413D01*
X191809333Y-83536306D01*
X191750090Y-83433694D01*
X191666306Y-83349910D01*
X191563694Y-83290667D01*
X191478583Y-83267861D01*
X192187513Y-82558932D01*
X192123756Y-82512611D01*
X191927410Y-82412567D01*
X191871302Y-82394337D01*
X191717835Y-82344473D01*
X191500181Y-82310000D01*
X191279819Y-82310000D01*
X191062164Y-82344473D01*
X190852589Y-82412567D01*
X190656233Y-82512616D01*
X190592485Y-82558931D01*
X190592485Y-82558932D01*
X191301414Y-83267861D01*
X191216306Y-83290667D01*
X191113694Y-83349910D01*
X191029910Y-83433694D01*
X190970667Y-83536306D01*
X190947861Y-83621414D01*
X190294819Y-82968372D01*
X190261334Y-82907049D01*
X190258500Y-82880691D01*
X190258500Y-82761362D01*
X190258499Y-82761345D01*
X190255157Y-82730270D01*
X190251989Y-82700799D01*
X190200889Y-82563796D01*
X190113261Y-82446739D01*
X189996204Y-82359111D01*
X189859203Y-82308011D01*
X189798654Y-82301500D01*
X189798638Y-82301500D01*
X187901362Y-82301500D01*
X187901345Y-82301500D01*
X187840797Y-82308011D01*
X187840795Y-82308011D01*
X187703795Y-82359111D01*
X187586739Y-82446739D01*
X187499111Y-82563795D01*
X187448011Y-82700795D01*
X187448011Y-82700797D01*
X187441500Y-82761345D01*
X186029211Y-82761345D01*
X186058902Y-82731654D01*
X186120197Y-82670360D01*
X186212623Y-82577933D01*
X186212628Y-82577928D01*
X186380249Y-82359479D01*
X186425402Y-82281272D01*
X201181500Y-82281272D01*
X201181500Y-84018727D01*
X201218643Y-84253241D01*
X201292019Y-84479067D01*
X201383515Y-84658637D01*
X201399815Y-84690627D01*
X201539380Y-84882722D01*
X201707278Y-85050620D01*
X201899373Y-85190185D01*
X201999328Y-85241114D01*
X202110932Y-85297980D01*
X202110934Y-85297980D01*
X202110937Y-85297982D01*
X202167105Y-85316232D01*
X202336758Y-85371356D01*
X202571273Y-85408500D01*
X202571278Y-85408500D01*
X202808727Y-85408500D01*
X203043241Y-85371356D01*
X203269063Y-85297982D01*
X203480627Y-85190185D01*
X203672722Y-85050620D01*
X203840620Y-84882722D01*
X203980185Y-84690627D01*
X204087982Y-84479063D01*
X204161356Y-84253241D01*
X204162280Y-84247410D01*
X204198500Y-84018727D01*
X204198500Y-82281273D01*
X204192882Y-82245805D01*
X204192882Y-82245804D01*
X204190580Y-82231272D01*
X207031500Y-82231272D01*
X207031500Y-82468727D01*
X207068643Y-82703241D01*
X207142019Y-82929067D01*
X207217866Y-83077924D01*
X207249815Y-83140627D01*
X207389380Y-83332722D01*
X207557278Y-83500620D01*
X207749373Y-83640185D01*
X207849328Y-83691114D01*
X207960932Y-83747980D01*
X207960934Y-83747980D01*
X207960937Y-83747982D01*
X208026375Y-83769244D01*
X208186758Y-83821356D01*
X208421273Y-83858500D01*
X208421278Y-83858500D01*
X210658727Y-83858500D01*
X210893241Y-83821356D01*
X210896857Y-83820181D01*
X211119063Y-83747982D01*
X211330627Y-83640185D01*
X211522722Y-83500620D01*
X211690620Y-83332722D01*
X211830185Y-83140627D01*
X211937982Y-82929063D01*
X212011356Y-82703241D01*
X212018442Y-82658500D01*
X212048500Y-82468727D01*
X212048500Y-82281272D01*
X214881500Y-82281272D01*
X214881500Y-84018727D01*
X214918643Y-84253241D01*
X214992019Y-84479067D01*
X215083515Y-84658637D01*
X215099815Y-84690627D01*
X215239380Y-84882722D01*
X215407278Y-85050620D01*
X215599373Y-85190185D01*
X215699328Y-85241114D01*
X215810932Y-85297980D01*
X215810934Y-85297980D01*
X215810937Y-85297982D01*
X215867105Y-85316232D01*
X216036758Y-85371356D01*
X216271273Y-85408500D01*
X216271278Y-85408500D01*
X216508727Y-85408500D01*
X216743241Y-85371356D01*
X216969063Y-85297982D01*
X217180627Y-85190185D01*
X217372722Y-85050620D01*
X217540620Y-84882722D01*
X217680185Y-84690627D01*
X217787982Y-84479063D01*
X217861356Y-84253241D01*
X217862280Y-84247410D01*
X217898500Y-84018727D01*
X217898500Y-82281272D01*
X217861356Y-82046758D01*
X217802829Y-81866632D01*
X217787982Y-81820937D01*
X217787980Y-81820934D01*
X217787980Y-81820932D01*
X217684640Y-81618117D01*
X217680185Y-81609373D01*
X217540620Y-81417278D01*
X217372722Y-81249380D01*
X217295237Y-81193084D01*
X220451500Y-81193084D01*
X220451500Y-81406915D01*
X220484951Y-81618117D01*
X220551026Y-81821480D01*
X220551027Y-81821483D01*
X220640335Y-81996758D01*
X220648106Y-82012009D01*
X220773794Y-82185004D01*
X220773796Y-82185006D01*
X220912070Y-82323280D01*
X220945555Y-82384603D01*
X220940571Y-82454295D01*
X220898699Y-82510228D01*
X220889486Y-82516499D01*
X220741659Y-82607680D01*
X220741655Y-82607683D01*
X220617684Y-82731654D01*
X220525643Y-82880875D01*
X220525641Y-82880880D01*
X220470494Y-83047302D01*
X220470493Y-83047309D01*
X220460000Y-83150013D01*
X220460000Y-83550000D01*
X221526988Y-83550000D01*
X221494075Y-83607007D01*
X221460000Y-83734174D01*
X221460000Y-83865826D01*
X221494075Y-83992993D01*
X221526988Y-84050000D01*
X220460001Y-84050000D01*
X220460001Y-84449986D01*
X220470494Y-84552697D01*
X220525641Y-84719119D01*
X220525643Y-84719124D01*
X220617684Y-84868345D01*
X220741654Y-84992315D01*
X220890875Y-85084356D01*
X220890880Y-85084358D01*
X221057302Y-85139505D01*
X221057309Y-85139506D01*
X221160019Y-85149999D01*
X221709999Y-85149999D01*
X221710000Y-85149998D01*
X221710000Y-84233012D01*
X221767007Y-84265925D01*
X221894174Y-84300000D01*
X222025826Y-84300000D01*
X222152993Y-84265925D01*
X222210000Y-84233012D01*
X222210000Y-85149999D01*
X222759972Y-85149999D01*
X222759986Y-85149998D01*
X222862698Y-85139505D01*
X222962374Y-85106475D01*
X223032203Y-85104072D01*
X223092245Y-85139803D01*
X223123438Y-85202323D01*
X223122998Y-85248369D01*
X223109500Y-85316233D01*
X223109500Y-85483771D01*
X223142182Y-85648074D01*
X223142184Y-85648082D01*
X223206295Y-85802860D01*
X223299373Y-85942162D01*
X223417837Y-86060626D01*
X223492002Y-86110181D01*
X223557137Y-86153703D01*
X223711918Y-86217816D01*
X223876228Y-86250499D01*
X223876232Y-86250500D01*
X223876233Y-86250500D01*
X224043768Y-86250500D01*
X224043769Y-86250499D01*
X224208082Y-86217816D01*
X224362863Y-86153703D01*
X224502162Y-86060626D01*
X224620626Y-85942162D01*
X224713703Y-85802863D01*
X224777816Y-85648082D01*
X224810500Y-85483767D01*
X224810500Y-85316233D01*
X224777816Y-85151918D01*
X224713703Y-84997137D01*
X224665943Y-84925659D01*
X224620626Y-84857837D01*
X224502162Y-84739373D01*
X224362860Y-84646295D01*
X224208082Y-84582184D01*
X224208074Y-84582182D01*
X224043771Y-84549500D01*
X224043767Y-84549500D01*
X223876233Y-84549500D01*
X223876228Y-84549500D01*
X223711925Y-84582182D01*
X223711917Y-84582184D01*
X223626689Y-84617487D01*
X223557219Y-84624956D01*
X223494740Y-84593681D01*
X223459088Y-84533592D01*
X223455878Y-84490322D01*
X223459999Y-84449983D01*
X223460000Y-84449973D01*
X223460000Y-84050000D01*
X222393012Y-84050000D01*
X222425925Y-83992993D01*
X222460000Y-83865826D01*
X222460000Y-83734174D01*
X222425925Y-83607007D01*
X222393012Y-83550000D01*
X223459999Y-83550000D01*
X223459999Y-83150028D01*
X223459998Y-83150013D01*
X223449505Y-83047302D01*
X223394358Y-82880880D01*
X223394356Y-82880875D01*
X223302315Y-82731654D01*
X223178344Y-82607683D01*
X223178340Y-82607680D01*
X223030513Y-82516499D01*
X222983788Y-82464551D01*
X222972567Y-82395589D01*
X223000410Y-82331507D01*
X223007907Y-82323302D01*
X223146206Y-82185004D01*
X223271894Y-82012009D01*
X223368972Y-81821483D01*
X223435049Y-81618116D01*
X223468500Y-81406916D01*
X223468500Y-81193084D01*
X223435049Y-80981884D01*
X223369241Y-80779344D01*
X223368973Y-80778519D01*
X223368972Y-80778516D01*
X223271893Y-80587990D01*
X223217677Y-80513368D01*
X223146206Y-80414996D01*
X222995004Y-80263794D01*
X222822009Y-80138106D01*
X222815313Y-80134694D01*
X222631483Y-80041027D01*
X222631480Y-80041026D01*
X222428117Y-79974951D01*
X222270336Y-79949961D01*
X222216916Y-79941500D01*
X221703084Y-79941500D01*
X221649664Y-79949961D01*
X221491882Y-79974951D01*
X221288519Y-80041026D01*
X221288516Y-80041027D01*
X221097990Y-80138106D01*
X220924993Y-80263796D01*
X220773796Y-80414993D01*
X220648106Y-80587990D01*
X220551027Y-80778516D01*
X220551026Y-80778519D01*
X220484951Y-80981882D01*
X220451500Y-81193084D01*
X217295237Y-81193084D01*
X217180627Y-81109815D01*
X216969067Y-81002019D01*
X216743241Y-80928643D01*
X216508727Y-80891500D01*
X216508722Y-80891500D01*
X216271278Y-80891500D01*
X216271273Y-80891500D01*
X216036758Y-80928643D01*
X215810932Y-81002019D01*
X215599372Y-81109815D01*
X215407275Y-81249382D01*
X215239382Y-81417275D01*
X215099815Y-81609372D01*
X214992019Y-81820932D01*
X214918643Y-82046758D01*
X214881500Y-82281272D01*
X212048500Y-82281272D01*
X212048500Y-82231272D01*
X212011356Y-81996758D01*
X211969075Y-81866632D01*
X211937982Y-81770937D01*
X211937980Y-81770934D01*
X211937980Y-81770932D01*
X211855661Y-81609373D01*
X211830185Y-81559373D01*
X211690620Y-81367278D01*
X211522722Y-81199380D01*
X211330627Y-81059815D01*
X211315929Y-81052326D01*
X211119067Y-80952019D01*
X210893241Y-80878643D01*
X210658727Y-80841500D01*
X210658722Y-80841500D01*
X208421278Y-80841500D01*
X208421273Y-80841500D01*
X208186758Y-80878643D01*
X207960932Y-80952019D01*
X207749372Y-81059815D01*
X207557275Y-81199382D01*
X207389382Y-81367275D01*
X207249815Y-81559372D01*
X207142019Y-81770932D01*
X207068643Y-81996758D01*
X207031500Y-82231272D01*
X204190580Y-82231272D01*
X204161356Y-82046758D01*
X204102829Y-81866632D01*
X204087982Y-81820937D01*
X204087980Y-81820934D01*
X204087980Y-81820932D01*
X203984640Y-81618117D01*
X203980185Y-81609373D01*
X203840620Y-81417278D01*
X203672722Y-81249380D01*
X203480627Y-81109815D01*
X203269067Y-81002019D01*
X203043241Y-80928643D01*
X202808727Y-80891500D01*
X202808722Y-80891500D01*
X202571278Y-80891500D01*
X202571273Y-80891500D01*
X202336758Y-80928643D01*
X202110932Y-81002019D01*
X201899372Y-81109815D01*
X201707275Y-81249382D01*
X201539382Y-81417275D01*
X201399815Y-81609372D01*
X201292019Y-81820932D01*
X201218643Y-82046758D01*
X201181500Y-82281272D01*
X186425402Y-82281272D01*
X186517923Y-82121021D01*
X186623295Y-81866632D01*
X186694560Y-81600666D01*
X186730500Y-81327674D01*
X186730500Y-81052326D01*
X186694560Y-80779334D01*
X186623295Y-80513368D01*
X186517923Y-80258979D01*
X186517921Y-80258976D01*
X186517919Y-80258971D01*
X186446167Y-80134694D01*
X186380249Y-80020521D01*
X186311099Y-79930403D01*
X186212629Y-79802073D01*
X186212623Y-79802066D01*
X186017933Y-79607376D01*
X186017926Y-79607370D01*
X185799483Y-79439754D01*
X185799482Y-79439753D01*
X185799479Y-79439751D01*
X185704407Y-79384861D01*
X185561028Y-79302080D01*
X185561017Y-79302075D01*
X185306630Y-79196704D01*
X185173649Y-79161072D01*
X185040666Y-79125440D01*
X185040660Y-79125439D01*
X185040655Y-79125438D01*
X184767684Y-79089501D01*
X184767679Y-79089500D01*
X184767674Y-79089500D01*
X184492326Y-79089500D01*
X184492320Y-79089500D01*
X184492315Y-79089501D01*
X184219344Y-79125438D01*
X184219337Y-79125439D01*
X184219334Y-79125440D01*
X184163125Y-79140500D01*
X183953369Y-79196704D01*
X183698982Y-79302075D01*
X183698971Y-79302080D01*
X183460516Y-79439754D01*
X183242073Y-79607370D01*
X183242066Y-79607376D01*
X183047376Y-79802066D01*
X183047370Y-79802073D01*
X182879754Y-80020516D01*
X182742080Y-80258971D01*
X182742075Y-80258982D01*
X182636704Y-80513369D01*
X182580500Y-80723125D01*
X182565659Y-80778519D01*
X182565441Y-80779331D01*
X182565438Y-80779344D01*
X182529501Y-81052315D01*
X182529500Y-81052332D01*
X167066303Y-81052332D01*
X167066544Y-78734883D01*
X197981500Y-78734883D01*
X197981500Y-78925116D01*
X198011256Y-79112991D01*
X198070040Y-79293907D01*
X198119668Y-79391306D01*
X198156398Y-79463392D01*
X198268208Y-79617285D01*
X198402715Y-79751792D01*
X198556608Y-79863602D01*
X198636683Y-79904402D01*
X198726092Y-79949959D01*
X198726094Y-79949959D01*
X198726097Y-79949961D01*
X198803008Y-79974951D01*
X198907008Y-80008743D01*
X199094884Y-80038500D01*
X199094889Y-80038500D01*
X199285116Y-80038500D01*
X199472991Y-80008743D01*
X199653903Y-79949961D01*
X199823392Y-79863602D01*
X199977285Y-79751792D01*
X200111792Y-79617285D01*
X200223602Y-79463392D01*
X200309961Y-79293903D01*
X200368743Y-79112991D01*
X200398500Y-78925116D01*
X200398500Y-78734883D01*
X200368743Y-78547008D01*
X200309959Y-78366092D01*
X200226561Y-78202416D01*
X200223602Y-78196608D01*
X200111792Y-78042715D01*
X199977285Y-77908208D01*
X199823392Y-77796398D01*
X199791745Y-77780273D01*
X199653907Y-77710040D01*
X199472991Y-77651256D01*
X199285116Y-77621500D01*
X199285111Y-77621500D01*
X199094889Y-77621500D01*
X199094884Y-77621500D01*
X198907008Y-77651256D01*
X198726092Y-77710040D01*
X198556607Y-77796398D01*
X198468806Y-77860189D01*
X198402715Y-77908208D01*
X198402713Y-77908210D01*
X198402712Y-77908210D01*
X198268210Y-78042712D01*
X198268210Y-78042713D01*
X198268208Y-78042715D01*
X198220189Y-78108806D01*
X198156398Y-78196607D01*
X198070040Y-78366092D01*
X198011256Y-78547008D01*
X197981500Y-78734883D01*
X167066544Y-78734883D01*
X167066586Y-78326975D01*
X167066590Y-78326969D01*
X167066589Y-78305437D01*
X167066590Y-78305434D01*
X167067060Y-78294651D01*
X167081431Y-78130318D01*
X167085180Y-78109053D01*
X167126465Y-77954959D01*
X167133852Y-77934662D01*
X167201266Y-77790086D01*
X167212068Y-77771376D01*
X167303563Y-77640704D01*
X167317453Y-77624152D01*
X167430244Y-77511359D01*
X167446796Y-77497469D01*
X167577466Y-77405974D01*
X167596179Y-77395171D01*
X167684918Y-77353792D01*
X167740753Y-77327756D01*
X167761042Y-77320370D01*
X167915153Y-77279080D01*
X167936411Y-77275333D01*
X168100611Y-77260971D01*
X168111403Y-77260500D01*
X168133059Y-77260501D01*
X168133061Y-77260500D01*
X224493071Y-77260500D01*
X224514588Y-77260500D01*
X224525394Y-77260971D01*
G37*
%TD.AperFunction*%
%TD*%
M02*
