%TF.GenerationSoftware,KiCad,Pcbnew,9.0.3*%
%TF.CreationDate,2025-10-30T22:20:44+00:00*%
%TF.ProjectId,TMSAdapterTC01,544d5341-6461-4707-9465-72544330312e,rev?*%
%TF.SameCoordinates,Original*%
%TF.FileFunction,Drillmap*%
%TF.FilePolarity,Positive*%
%FSLAX45Y45*%
G04 Gerber Fmt 4.5, Leading zero omitted, Abs format (unit mm)*
G04 Created by KiCad (PCBNEW 9.0.3) date 2025-10-30 22:20:44*
%MOMM*%
%LPD*%
G01*
G04 APERTURE LIST*
%ADD10C,0.050000*%
%ADD11C,0.200000*%
%ADD12C,0.100000*%
G04 APERTURE END LIST*
D10*
X6132462Y-2567000D02*
G75*
G02*
X6475460Y-2910000I-2J-343000D01*
G01*
X2745000Y-2567000D02*
X6132462Y-2567000D01*
X7650000Y-4153000D02*
G75*
G02*
X7993000Y-4496000I0J-343000D01*
G01*
X7650000Y-11459000D02*
X2745000Y-11459000D01*
X6475462Y-2910000D02*
X6475462Y-4153000D01*
X7993000Y-4496000D02*
X7993000Y-11116000D01*
X2402000Y-2910000D02*
X2402000Y-11116000D01*
X7993000Y-11116000D02*
G75*
G02*
X7650000Y-11459000I-343000J0D01*
G01*
X2402000Y-2910000D02*
G75*
G02*
X2745000Y-2567000I343000J0D01*
G01*
X6475462Y-4153000D02*
X7650000Y-4153000D01*
X2745000Y-11459000D02*
G75*
G02*
X2402000Y-11116000I0J343000D01*
G01*
D11*
D12*
X3046690Y-7328520D02*
X3091690Y-7373520D01*
X3091690Y-7328520D02*
X3046690Y-7373520D01*
X3094190Y-6601250D02*
X3139190Y-6646250D01*
X3139190Y-6601250D02*
X3094190Y-6646250D01*
X3121500Y-9011500D02*
X3166500Y-9056500D01*
X3166500Y-9011500D02*
X3121500Y-9056500D01*
X3169500Y-5351500D02*
X3214500Y-5396500D01*
X3214500Y-5351500D02*
X3169500Y-5396500D01*
X3194500Y-7733500D02*
X3239500Y-7778500D01*
X3239500Y-7733500D02*
X3194500Y-7778500D01*
X3245283Y-7314717D02*
X3290283Y-7359717D01*
X3290283Y-7314717D02*
X3245283Y-7359717D01*
X3296550Y-4214600D02*
X3341550Y-4259600D01*
X3341550Y-4214600D02*
X3296550Y-4259600D01*
X3924500Y-10825010D02*
X3969500Y-10870010D01*
X3969500Y-10825010D02*
X3924500Y-10870010D01*
X4143490Y-10269960D02*
X4188490Y-10314960D01*
X4188490Y-10269960D02*
X4143490Y-10314960D01*
X4145920Y-10096230D02*
X4190920Y-10141230D01*
X4190920Y-10096230D02*
X4145920Y-10141230D01*
X4201680Y-2974290D02*
X4246680Y-3019290D01*
X4246680Y-2974290D02*
X4201680Y-3019290D01*
X4329500Y-5976500D02*
X4374500Y-6021500D01*
X4374500Y-5976500D02*
X4329500Y-6021500D01*
X4856000Y-6331000D02*
X4901000Y-6376000D01*
X4901000Y-6331000D02*
X4856000Y-6376000D01*
X4888500Y-4089500D02*
X4933500Y-4134500D01*
X4933500Y-4089500D02*
X4888500Y-4134500D01*
X4909500Y-7526500D02*
X4954500Y-7571500D01*
X4954500Y-7526500D02*
X4909500Y-7571500D01*
X5147830Y-6842920D02*
X5192830Y-6887920D01*
X5192830Y-6842920D02*
X5147830Y-6887920D01*
X5298910Y-5337398D02*
X5343910Y-5382398D01*
X5343910Y-5337398D02*
X5298910Y-5382398D01*
X5449090Y-6892320D02*
X5494090Y-6937320D01*
X5494090Y-6892320D02*
X5449090Y-6937320D01*
X6167860Y-7376460D02*
X6212860Y-7421460D01*
X6212860Y-7376460D02*
X6167860Y-7421460D01*
X6188870Y-5459290D02*
X6233870Y-5504290D01*
X6233870Y-5459290D02*
X6188870Y-5504290D01*
X6251570Y-8522320D02*
X6296570Y-8567320D01*
X6296570Y-8522320D02*
X6251570Y-8567320D01*
X6354100Y-5839920D02*
X6399100Y-5884920D01*
X6399100Y-5839920D02*
X6354100Y-5884920D01*
X6846020Y-6724500D02*
X6891020Y-6769500D01*
X6891020Y-6724500D02*
X6846020Y-6769500D01*
X6967030Y-5874440D02*
X7012030Y-5919440D01*
X7012030Y-5874440D02*
X6967030Y-5919440D01*
X4464000Y-11208000D02*
G75*
G02*
X4394000Y-11208000I-35000J0D01*
G01*
X4394000Y-11208000D02*
G75*
G02*
X4464000Y-11208000I35000J0D01*
G01*
X5480000Y-11208000D02*
G75*
G02*
X5410000Y-11208000I-35000J0D01*
G01*
X5410000Y-11208000D02*
G75*
G02*
X5480000Y-11208000I35000J0D01*
G01*
X6336000Y-4964000D02*
G75*
G02*
X6266000Y-4964000I-35000J0D01*
G01*
X6266000Y-4964000D02*
G75*
G02*
X6336000Y-4964000I35000J0D01*
G01*
X6336000Y-5980000D02*
G75*
G02*
X6266000Y-5980000I-35000J0D01*
G01*
X6266000Y-5980000D02*
G75*
G02*
X6336000Y-5980000I35000J0D01*
G01*
X6336000Y-6883000D02*
G75*
G02*
X6266000Y-6883000I-35000J0D01*
G01*
X6266000Y-6883000D02*
G75*
G02*
X6336000Y-6883000I35000J0D01*
G01*
X6336000Y-7899000D02*
G75*
G02*
X6266000Y-7899000I-35000J0D01*
G01*
X6266000Y-7899000D02*
G75*
G02*
X6336000Y-7899000I35000J0D01*
G01*
X6336000Y-8817000D02*
G75*
G02*
X6266000Y-8817000I-35000J0D01*
G01*
X6266000Y-8817000D02*
G75*
G02*
X6336000Y-8817000I35000J0D01*
G01*
X6336000Y-9833000D02*
G75*
G02*
X6266000Y-9833000I-35000J0D01*
G01*
X6266000Y-9833000D02*
G75*
G02*
X6336000Y-9833000I35000J0D01*
G01*
X2824500Y-4315000D02*
X2824500Y-4395000D01*
X2784500Y-4355000D02*
X2864500Y-4355000D01*
X2824500Y-4569000D02*
X2824500Y-4649000D01*
X2784500Y-4609000D02*
X2864500Y-4609000D01*
X2824500Y-4823000D02*
X2824500Y-4903000D01*
X2784500Y-4863000D02*
X2864500Y-4863000D01*
X2824500Y-5077000D02*
X2824500Y-5157000D01*
X2784500Y-5117000D02*
X2864500Y-5117000D01*
X2824500Y-5331000D02*
X2824500Y-5411000D01*
X2784500Y-5371000D02*
X2864500Y-5371000D01*
X2824500Y-5585000D02*
X2824500Y-5665000D01*
X2784500Y-5625000D02*
X2864500Y-5625000D01*
X2824500Y-5839000D02*
X2824500Y-5919000D01*
X2784500Y-5879000D02*
X2864500Y-5879000D01*
X2824500Y-6093000D02*
X2824500Y-6173000D01*
X2784500Y-6133000D02*
X2864500Y-6133000D01*
X2824500Y-6452000D02*
X2824500Y-6532000D01*
X2784500Y-6492000D02*
X2864500Y-6492000D01*
X2824500Y-6706000D02*
X2824500Y-6786000D01*
X2784500Y-6746000D02*
X2864500Y-6746000D01*
X2824500Y-6960000D02*
X2824500Y-7040000D01*
X2784500Y-7000000D02*
X2864500Y-7000000D01*
X2824500Y-7214000D02*
X2824500Y-7294000D01*
X2784500Y-7254000D02*
X2864500Y-7254000D01*
X2824500Y-7468000D02*
X2824500Y-7548000D01*
X2784500Y-7508000D02*
X2864500Y-7508000D01*
X2824500Y-7722000D02*
X2824500Y-7802000D01*
X2784500Y-7762000D02*
X2864500Y-7762000D01*
X2824500Y-7976000D02*
X2824500Y-8056000D01*
X2784500Y-8016000D02*
X2864500Y-8016000D01*
X2824500Y-8230000D02*
X2824500Y-8310000D01*
X2784500Y-8270000D02*
X2864500Y-8270000D01*
X2824500Y-8591000D02*
X2824500Y-8671000D01*
X2784500Y-8631000D02*
X2864500Y-8631000D01*
X2824500Y-8845000D02*
X2824500Y-8925000D01*
X2784500Y-8885000D02*
X2864500Y-8885000D01*
X2824500Y-9099000D02*
X2824500Y-9179000D01*
X2784500Y-9139000D02*
X2864500Y-9139000D01*
X2824500Y-9353000D02*
X2824500Y-9433000D01*
X2784500Y-9393000D02*
X2864500Y-9393000D01*
X2824500Y-9607000D02*
X2824500Y-9687000D01*
X2784500Y-9647000D02*
X2864500Y-9647000D01*
X2824500Y-9861000D02*
X2824500Y-9941000D01*
X2784500Y-9901000D02*
X2864500Y-9901000D01*
X2824500Y-10115000D02*
X2824500Y-10195000D01*
X2784500Y-10155000D02*
X2864500Y-10155000D01*
X2824500Y-10369000D02*
X2824500Y-10449000D01*
X2784500Y-10409000D02*
X2864500Y-10409000D01*
X3276000Y-3223000D02*
X3276000Y-3303000D01*
X3236000Y-3263000D02*
X3316000Y-3263000D01*
X3276000Y-3731000D02*
X3276000Y-3811000D01*
X3236000Y-3771000D02*
X3316000Y-3771000D01*
X3586500Y-4315000D02*
X3586500Y-4395000D01*
X3546500Y-4355000D02*
X3626500Y-4355000D01*
X3586500Y-4569000D02*
X3586500Y-4649000D01*
X3546500Y-4609000D02*
X3626500Y-4609000D01*
X3586500Y-4823000D02*
X3586500Y-4903000D01*
X3546500Y-4863000D02*
X3626500Y-4863000D01*
X3586500Y-5077000D02*
X3586500Y-5157000D01*
X3546500Y-5117000D02*
X3626500Y-5117000D01*
X3586500Y-5331000D02*
X3586500Y-5411000D01*
X3546500Y-5371000D02*
X3626500Y-5371000D01*
X3586500Y-5585000D02*
X3586500Y-5665000D01*
X3546500Y-5625000D02*
X3626500Y-5625000D01*
X3586500Y-5839000D02*
X3586500Y-5919000D01*
X3546500Y-5879000D02*
X3626500Y-5879000D01*
X3586500Y-6093000D02*
X3586500Y-6173000D01*
X3546500Y-6133000D02*
X3626500Y-6133000D01*
X3586500Y-6452000D02*
X3586500Y-6532000D01*
X3546500Y-6492000D02*
X3626500Y-6492000D01*
X3586500Y-6706000D02*
X3586500Y-6786000D01*
X3546500Y-6746000D02*
X3626500Y-6746000D01*
X3586500Y-6960000D02*
X3586500Y-7040000D01*
X3546500Y-7000000D02*
X3626500Y-7000000D01*
X3586500Y-7214000D02*
X3586500Y-7294000D01*
X3546500Y-7254000D02*
X3626500Y-7254000D01*
X3586500Y-7468000D02*
X3586500Y-7548000D01*
X3546500Y-7508000D02*
X3626500Y-7508000D01*
X3586500Y-7722000D02*
X3586500Y-7802000D01*
X3546500Y-7762000D02*
X3626500Y-7762000D01*
X3586500Y-7976000D02*
X3586500Y-8056000D01*
X3546500Y-8016000D02*
X3626500Y-8016000D01*
X3586500Y-8230000D02*
X3586500Y-8310000D01*
X3546500Y-8270000D02*
X3626500Y-8270000D01*
X3586500Y-8591000D02*
X3586500Y-8671000D01*
X3546500Y-8631000D02*
X3626500Y-8631000D01*
X3586500Y-8845000D02*
X3586500Y-8925000D01*
X3546500Y-8885000D02*
X3626500Y-8885000D01*
X3586500Y-9099000D02*
X3586500Y-9179000D01*
X3546500Y-9139000D02*
X3626500Y-9139000D01*
X3586500Y-9353000D02*
X3586500Y-9433000D01*
X3546500Y-9393000D02*
X3626500Y-9393000D01*
X3586500Y-9607000D02*
X3586500Y-9687000D01*
X3546500Y-9647000D02*
X3626500Y-9647000D01*
X3586500Y-9861000D02*
X3586500Y-9941000D01*
X3546500Y-9901000D02*
X3626500Y-9901000D01*
X3586500Y-10115000D02*
X3586500Y-10195000D01*
X3546500Y-10155000D02*
X3626500Y-10155000D01*
X3586500Y-10369000D02*
X3586500Y-10449000D01*
X3546500Y-10409000D02*
X3626500Y-10409000D01*
X3885000Y-6028000D02*
X3885000Y-6108000D01*
X3845000Y-6068000D02*
X3925000Y-6068000D01*
X3885000Y-6536000D02*
X3885000Y-6616000D01*
X3845000Y-6576000D02*
X3925000Y-6576000D01*
X3885000Y-8136000D02*
X3885000Y-8216000D01*
X3845000Y-8176000D02*
X3925000Y-8176000D01*
X3885000Y-8644000D02*
X3885000Y-8724000D01*
X3845000Y-8684000D02*
X3925000Y-8684000D01*
X4074000Y-3130500D02*
X4074000Y-3210500D01*
X4034000Y-3170500D02*
X4114000Y-3170500D01*
X4074000Y-3892500D02*
X4074000Y-3972500D01*
X4034000Y-3932500D02*
X4114000Y-3932500D01*
X4074000Y-9855000D02*
X4074000Y-9935000D01*
X4034000Y-9895000D02*
X4114000Y-9895000D01*
X4074000Y-10617000D02*
X4074000Y-10697000D01*
X4034000Y-10657000D02*
X4114000Y-10657000D01*
X4174000Y-4588000D02*
X4174000Y-4668000D01*
X4134000Y-4628000D02*
X4214000Y-4628000D01*
X4174000Y-4842000D02*
X4174000Y-4922000D01*
X4134000Y-4882000D02*
X4214000Y-4882000D01*
X4174000Y-5096000D02*
X4174000Y-5176000D01*
X4134000Y-5136000D02*
X4214000Y-5136000D01*
X4174000Y-5350000D02*
X4174000Y-5430000D01*
X4134000Y-5390000D02*
X4214000Y-5390000D01*
X4174000Y-5604000D02*
X4174000Y-5684000D01*
X4134000Y-5644000D02*
X4214000Y-5644000D01*
X4174000Y-5858000D02*
X4174000Y-5938000D01*
X4134000Y-5898000D02*
X4214000Y-5898000D01*
X4174000Y-6112000D02*
X4174000Y-6192000D01*
X4134000Y-6152000D02*
X4214000Y-6152000D01*
X4174000Y-6366000D02*
X4174000Y-6446000D01*
X4134000Y-6406000D02*
X4214000Y-6406000D01*
X4174000Y-6620000D02*
X4174000Y-6700000D01*
X4134000Y-6660000D02*
X4214000Y-6660000D01*
X4174000Y-6874000D02*
X4174000Y-6954000D01*
X4134000Y-6914000D02*
X4214000Y-6914000D01*
X4174000Y-7128000D02*
X4174000Y-7208000D01*
X4134000Y-7168000D02*
X4214000Y-7168000D01*
X4174000Y-7382000D02*
X4174000Y-7462000D01*
X4134000Y-7422000D02*
X4214000Y-7422000D01*
X4174000Y-7636000D02*
X4174000Y-7716000D01*
X4134000Y-7676000D02*
X4214000Y-7676000D01*
X4174000Y-7890000D02*
X4174000Y-7970000D01*
X4134000Y-7930000D02*
X4214000Y-7930000D01*
X4174000Y-8144000D02*
X4174000Y-8224000D01*
X4134000Y-8184000D02*
X4214000Y-8184000D01*
X4174000Y-8398000D02*
X4174000Y-8478000D01*
X4134000Y-8438000D02*
X4214000Y-8438000D01*
X4174000Y-8652000D02*
X4174000Y-8732000D01*
X4134000Y-8692000D02*
X4214000Y-8692000D01*
X4174000Y-8906000D02*
X4174000Y-8986000D01*
X4134000Y-8946000D02*
X4214000Y-8946000D01*
X4174000Y-9160000D02*
X4174000Y-9240000D01*
X4134000Y-9200000D02*
X4214000Y-9200000D01*
X4174000Y-9414000D02*
X4174000Y-9494000D01*
X4134000Y-9454000D02*
X4214000Y-9454000D01*
X4328000Y-3130500D02*
X4328000Y-3210500D01*
X4288000Y-3170500D02*
X4368000Y-3170500D01*
X4328000Y-3892500D02*
X4328000Y-3972500D01*
X4288000Y-3932500D02*
X4368000Y-3932500D01*
X4328000Y-9855000D02*
X4328000Y-9935000D01*
X4288000Y-9895000D02*
X4368000Y-9895000D01*
X4328000Y-10617000D02*
X4328000Y-10697000D01*
X4288000Y-10657000D02*
X4368000Y-10657000D01*
X4582000Y-3130500D02*
X4582000Y-3210500D01*
X4542000Y-3170500D02*
X4622000Y-3170500D01*
X4582000Y-3892500D02*
X4582000Y-3972500D01*
X4542000Y-3932500D02*
X4622000Y-3932500D01*
X4582000Y-9855000D02*
X4582000Y-9935000D01*
X4542000Y-9895000D02*
X4622000Y-9895000D01*
X4582000Y-10617000D02*
X4582000Y-10697000D01*
X4542000Y-10657000D02*
X4622000Y-10657000D01*
X4836000Y-3130500D02*
X4836000Y-3210500D01*
X4796000Y-3170500D02*
X4876000Y-3170500D01*
X4836000Y-3892500D02*
X4836000Y-3972500D01*
X4796000Y-3932500D02*
X4876000Y-3932500D01*
X4836000Y-9855000D02*
X4836000Y-9935000D01*
X4796000Y-9895000D02*
X4876000Y-9895000D01*
X4836000Y-10617000D02*
X4836000Y-10697000D01*
X4796000Y-10657000D02*
X4876000Y-10657000D01*
X5090000Y-3130500D02*
X5090000Y-3210500D01*
X5050000Y-3170500D02*
X5130000Y-3170500D01*
X5090000Y-3892500D02*
X5090000Y-3972500D01*
X5050000Y-3932500D02*
X5130000Y-3932500D01*
X5090000Y-9855000D02*
X5090000Y-9935000D01*
X5050000Y-9895000D02*
X5130000Y-9895000D01*
X5090000Y-10617000D02*
X5090000Y-10697000D01*
X5050000Y-10657000D02*
X5130000Y-10657000D01*
X5344000Y-3130500D02*
X5344000Y-3210500D01*
X5304000Y-3170500D02*
X5384000Y-3170500D01*
X5344000Y-3892500D02*
X5344000Y-3972500D01*
X5304000Y-3932500D02*
X5384000Y-3932500D01*
X5344000Y-9855000D02*
X5344000Y-9935000D01*
X5304000Y-9895000D02*
X5384000Y-9895000D01*
X5344000Y-10617000D02*
X5344000Y-10697000D01*
X5304000Y-10657000D02*
X5384000Y-10657000D01*
X5598000Y-3130500D02*
X5598000Y-3210500D01*
X5558000Y-3170500D02*
X5638000Y-3170500D01*
X5598000Y-3892500D02*
X5598000Y-3972500D01*
X5558000Y-3932500D02*
X5638000Y-3932500D01*
X5598000Y-9855000D02*
X5598000Y-9935000D01*
X5558000Y-9895000D02*
X5638000Y-9895000D01*
X5598000Y-10617000D02*
X5598000Y-10697000D01*
X5558000Y-10657000D02*
X5638000Y-10657000D01*
X5698000Y-4588000D02*
X5698000Y-4668000D01*
X5658000Y-4628000D02*
X5738000Y-4628000D01*
X5698000Y-4842000D02*
X5698000Y-4922000D01*
X5658000Y-4882000D02*
X5738000Y-4882000D01*
X5698000Y-5096000D02*
X5698000Y-5176000D01*
X5658000Y-5136000D02*
X5738000Y-5136000D01*
X5698000Y-5350000D02*
X5698000Y-5430000D01*
X5658000Y-5390000D02*
X5738000Y-5390000D01*
X5698000Y-5604000D02*
X5698000Y-5684000D01*
X5658000Y-5644000D02*
X5738000Y-5644000D01*
X5698000Y-5858000D02*
X5698000Y-5938000D01*
X5658000Y-5898000D02*
X5738000Y-5898000D01*
X5698000Y-6112000D02*
X5698000Y-6192000D01*
X5658000Y-6152000D02*
X5738000Y-6152000D01*
X5698000Y-6366000D02*
X5698000Y-6446000D01*
X5658000Y-6406000D02*
X5738000Y-6406000D01*
X5698000Y-6620000D02*
X5698000Y-6700000D01*
X5658000Y-6660000D02*
X5738000Y-6660000D01*
X5698000Y-6874000D02*
X5698000Y-6954000D01*
X5658000Y-6914000D02*
X5738000Y-6914000D01*
X5698000Y-7128000D02*
X5698000Y-7208000D01*
X5658000Y-7168000D02*
X5738000Y-7168000D01*
X5698000Y-7382000D02*
X5698000Y-7462000D01*
X5658000Y-7422000D02*
X5738000Y-7422000D01*
X5698000Y-7636000D02*
X5698000Y-7716000D01*
X5658000Y-7676000D02*
X5738000Y-7676000D01*
X5698000Y-7890000D02*
X5698000Y-7970000D01*
X5658000Y-7930000D02*
X5738000Y-7930000D01*
X5698000Y-8144000D02*
X5698000Y-8224000D01*
X5658000Y-8184000D02*
X5738000Y-8184000D01*
X5698000Y-8398000D02*
X5698000Y-8478000D01*
X5658000Y-8438000D02*
X5738000Y-8438000D01*
X5698000Y-8652000D02*
X5698000Y-8732000D01*
X5658000Y-8692000D02*
X5738000Y-8692000D01*
X5698000Y-8906000D02*
X5698000Y-8986000D01*
X5658000Y-8946000D02*
X5738000Y-8946000D01*
X5698000Y-9160000D02*
X5698000Y-9240000D01*
X5658000Y-9200000D02*
X5738000Y-9200000D01*
X5698000Y-9414000D02*
X5698000Y-9494000D01*
X5658000Y-9454000D02*
X5738000Y-9454000D01*
X5852000Y-3130500D02*
X5852000Y-3210500D01*
X5812000Y-3170500D02*
X5892000Y-3170500D01*
X5852000Y-3892500D02*
X5852000Y-3972500D01*
X5812000Y-3932500D02*
X5892000Y-3932500D01*
X5852000Y-9855000D02*
X5852000Y-9935000D01*
X5812000Y-9895000D02*
X5892000Y-9895000D01*
X5852000Y-10617000D02*
X5852000Y-10697000D01*
X5812000Y-10657000D02*
X5892000Y-10657000D01*
X6156000Y-3257000D02*
X6156000Y-3337000D01*
X6116000Y-3297000D02*
X6196000Y-3297000D01*
X6156000Y-3765000D02*
X6156000Y-3845000D01*
X6116000Y-3805000D02*
X6196000Y-3805000D01*
X6169000Y-10107000D02*
X6169000Y-10187000D01*
X6129000Y-10147000D02*
X6209000Y-10147000D01*
X6169000Y-10615000D02*
X6169000Y-10695000D01*
X6129000Y-10655000D02*
X6209000Y-10655000D01*
X6576000Y-4315000D02*
X6576000Y-4395000D01*
X6536000Y-4355000D02*
X6616000Y-4355000D01*
X6576000Y-4569000D02*
X6576000Y-4649000D01*
X6536000Y-4609000D02*
X6616000Y-4609000D01*
X6576000Y-4823000D02*
X6576000Y-4903000D01*
X6536000Y-4863000D02*
X6616000Y-4863000D01*
X6576000Y-5077000D02*
X6576000Y-5157000D01*
X6536000Y-5117000D02*
X6616000Y-5117000D01*
X6576000Y-5331000D02*
X6576000Y-5411000D01*
X6536000Y-5371000D02*
X6616000Y-5371000D01*
X6576000Y-5585000D02*
X6576000Y-5665000D01*
X6536000Y-5625000D02*
X6616000Y-5625000D01*
X6576000Y-5839000D02*
X6576000Y-5919000D01*
X6536000Y-5879000D02*
X6616000Y-5879000D01*
X6576000Y-6093000D02*
X6576000Y-6173000D01*
X6536000Y-6133000D02*
X6616000Y-6133000D01*
X6576000Y-6452000D02*
X6576000Y-6532000D01*
X6536000Y-6492000D02*
X6616000Y-6492000D01*
X6576000Y-6706000D02*
X6576000Y-6786000D01*
X6536000Y-6746000D02*
X6616000Y-6746000D01*
X6576000Y-6960000D02*
X6576000Y-7040000D01*
X6536000Y-7000000D02*
X6616000Y-7000000D01*
X6576000Y-7214000D02*
X6576000Y-7294000D01*
X6536000Y-7254000D02*
X6616000Y-7254000D01*
X6576000Y-7468000D02*
X6576000Y-7548000D01*
X6536000Y-7508000D02*
X6616000Y-7508000D01*
X6576000Y-7722000D02*
X6576000Y-7802000D01*
X6536000Y-7762000D02*
X6616000Y-7762000D01*
X6576000Y-7976000D02*
X6576000Y-8056000D01*
X6536000Y-8016000D02*
X6616000Y-8016000D01*
X6576000Y-8230000D02*
X6576000Y-8310000D01*
X6536000Y-8270000D02*
X6616000Y-8270000D01*
X6576000Y-8591000D02*
X6576000Y-8671000D01*
X6536000Y-8631000D02*
X6616000Y-8631000D01*
X6576000Y-8845000D02*
X6576000Y-8925000D01*
X6536000Y-8885000D02*
X6616000Y-8885000D01*
X6576000Y-9099000D02*
X6576000Y-9179000D01*
X6536000Y-9139000D02*
X6616000Y-9139000D01*
X6576000Y-9353000D02*
X6576000Y-9433000D01*
X6536000Y-9393000D02*
X6616000Y-9393000D01*
X6576000Y-9607000D02*
X6576000Y-9687000D01*
X6536000Y-9647000D02*
X6616000Y-9647000D01*
X6576000Y-9861000D02*
X6576000Y-9941000D01*
X6536000Y-9901000D02*
X6616000Y-9901000D01*
X6576000Y-10115000D02*
X6576000Y-10195000D01*
X6536000Y-10155000D02*
X6616000Y-10155000D01*
X6576000Y-10369000D02*
X6576000Y-10449000D01*
X6536000Y-10409000D02*
X6616000Y-10409000D01*
X7338000Y-4315000D02*
X7338000Y-4395000D01*
X7298000Y-4355000D02*
X7378000Y-4355000D01*
X7338000Y-4569000D02*
X7338000Y-4649000D01*
X7298000Y-4609000D02*
X7378000Y-4609000D01*
X7338000Y-4823000D02*
X7338000Y-4903000D01*
X7298000Y-4863000D02*
X7378000Y-4863000D01*
X7338000Y-5077000D02*
X7338000Y-5157000D01*
X7298000Y-5117000D02*
X7378000Y-5117000D01*
X7338000Y-5331000D02*
X7338000Y-5411000D01*
X7298000Y-5371000D02*
X7378000Y-5371000D01*
X7338000Y-5585000D02*
X7338000Y-5665000D01*
X7298000Y-5625000D02*
X7378000Y-5625000D01*
X7338000Y-5839000D02*
X7338000Y-5919000D01*
X7298000Y-5879000D02*
X7378000Y-5879000D01*
X7338000Y-6093000D02*
X7338000Y-6173000D01*
X7298000Y-6133000D02*
X7378000Y-6133000D01*
X7338000Y-6452000D02*
X7338000Y-6532000D01*
X7298000Y-6492000D02*
X7378000Y-6492000D01*
X7338000Y-6706000D02*
X7338000Y-6786000D01*
X7298000Y-6746000D02*
X7378000Y-6746000D01*
X7338000Y-6960000D02*
X7338000Y-7040000D01*
X7298000Y-7000000D02*
X7378000Y-7000000D01*
X7338000Y-7214000D02*
X7338000Y-7294000D01*
X7298000Y-7254000D02*
X7378000Y-7254000D01*
X7338000Y-7468000D02*
X7338000Y-7548000D01*
X7298000Y-7508000D02*
X7378000Y-7508000D01*
X7338000Y-7722000D02*
X7338000Y-7802000D01*
X7298000Y-7762000D02*
X7378000Y-7762000D01*
X7338000Y-7976000D02*
X7338000Y-8056000D01*
X7298000Y-8016000D02*
X7378000Y-8016000D01*
X7338000Y-8230000D02*
X7338000Y-8310000D01*
X7298000Y-8270000D02*
X7378000Y-8270000D01*
X7338000Y-8591000D02*
X7338000Y-8671000D01*
X7298000Y-8631000D02*
X7378000Y-8631000D01*
X7338000Y-8845000D02*
X7338000Y-8925000D01*
X7298000Y-8885000D02*
X7378000Y-8885000D01*
X7338000Y-9099000D02*
X7338000Y-9179000D01*
X7298000Y-9139000D02*
X7378000Y-9139000D01*
X7338000Y-9353000D02*
X7338000Y-9433000D01*
X7298000Y-9393000D02*
X7378000Y-9393000D01*
X7338000Y-9607000D02*
X7338000Y-9687000D01*
X7298000Y-9647000D02*
X7378000Y-9647000D01*
X7338000Y-9861000D02*
X7338000Y-9941000D01*
X7298000Y-9901000D02*
X7378000Y-9901000D01*
X7338000Y-10115000D02*
X7338000Y-10195000D01*
X7298000Y-10155000D02*
X7378000Y-10155000D01*
X7338000Y-10369000D02*
X7338000Y-10449000D01*
X7298000Y-10409000D02*
X7378000Y-10409000D01*
X7636000Y-6016000D02*
X7636000Y-6096000D01*
X7596000Y-6056000D02*
X7676000Y-6056000D01*
X7636000Y-6524000D02*
X7636000Y-6604000D01*
X7596000Y-6564000D02*
X7676000Y-6564000D01*
X7636000Y-8136000D02*
X7636000Y-8216000D01*
X7596000Y-8176000D02*
X7676000Y-8176000D01*
X7636000Y-8644000D02*
X7636000Y-8724000D01*
X7596000Y-8684000D02*
X7676000Y-8684000D01*
X2867820Y-11107320D02*
X2867820Y-11043680D01*
X2804180Y-11043680D01*
X2804180Y-11107320D01*
X2867820Y-11107320D01*
X3121820Y-11107320D02*
X3121820Y-11043680D01*
X3058180Y-11043680D01*
X3058180Y-11107320D01*
X3121820Y-11107320D01*
X4511000Y-4393000D02*
X4561000Y-4343000D01*
X4511000Y-4293000D01*
X4461000Y-4343000D01*
X4511000Y-4393000D01*
X4511000Y-4647000D02*
X4561000Y-4597000D01*
X4511000Y-4547000D01*
X4461000Y-4597000D01*
X4511000Y-4647000D01*
X4511000Y-4901000D02*
X4561000Y-4851000D01*
X4511000Y-4801000D01*
X4461000Y-4851000D01*
X4511000Y-4901000D01*
X4511000Y-5155000D02*
X4561000Y-5105000D01*
X4511000Y-5055000D01*
X4461000Y-5105000D01*
X4511000Y-5155000D01*
X4511000Y-5409000D02*
X4561000Y-5359000D01*
X4511000Y-5309000D01*
X4461000Y-5359000D01*
X4511000Y-5409000D01*
X4511000Y-5663000D02*
X4561000Y-5613000D01*
X4511000Y-5563000D01*
X4461000Y-5613000D01*
X4511000Y-5663000D01*
X4511000Y-5917000D02*
X4561000Y-5867000D01*
X4511000Y-5817000D01*
X4461000Y-5867000D01*
X4511000Y-5917000D01*
X4511000Y-6171000D02*
X4561000Y-6121000D01*
X4511000Y-6071000D01*
X4461000Y-6121000D01*
X4511000Y-6171000D01*
X4511000Y-6425000D02*
X4561000Y-6375000D01*
X4511000Y-6325000D01*
X4461000Y-6375000D01*
X4511000Y-6425000D01*
X4511000Y-6679000D02*
X4561000Y-6629000D01*
X4511000Y-6579000D01*
X4461000Y-6629000D01*
X4511000Y-6679000D01*
X4511000Y-6933000D02*
X4561000Y-6883000D01*
X4511000Y-6833000D01*
X4461000Y-6883000D01*
X4511000Y-6933000D01*
X4511000Y-7187000D02*
X4561000Y-7137000D01*
X4511000Y-7087000D01*
X4461000Y-7137000D01*
X4511000Y-7187000D01*
X4511000Y-7441000D02*
X4561000Y-7391000D01*
X4511000Y-7341000D01*
X4461000Y-7391000D01*
X4511000Y-7441000D01*
X4511000Y-7695000D02*
X4561000Y-7645000D01*
X4511000Y-7595000D01*
X4461000Y-7645000D01*
X4511000Y-7695000D01*
X4511000Y-7949000D02*
X4561000Y-7899000D01*
X4511000Y-7849000D01*
X4461000Y-7899000D01*
X4511000Y-7949000D01*
X4511000Y-8203000D02*
X4561000Y-8153000D01*
X4511000Y-8103000D01*
X4461000Y-8153000D01*
X4511000Y-8203000D01*
X4511000Y-8457000D02*
X4561000Y-8407000D01*
X4511000Y-8357000D01*
X4461000Y-8407000D01*
X4511000Y-8457000D01*
X4511000Y-8711000D02*
X4561000Y-8661000D01*
X4511000Y-8611000D01*
X4461000Y-8661000D01*
X4511000Y-8711000D01*
X4511000Y-8965000D02*
X4561000Y-8915000D01*
X4511000Y-8865000D01*
X4461000Y-8915000D01*
X4511000Y-8965000D01*
X4511000Y-9219000D02*
X4561000Y-9169000D01*
X4511000Y-9119000D01*
X4461000Y-9169000D01*
X4511000Y-9219000D01*
X6035000Y-4393000D02*
X6085000Y-4343000D01*
X6035000Y-4293000D01*
X5985000Y-4343000D01*
X6035000Y-4393000D01*
X6035000Y-4647000D02*
X6085000Y-4597000D01*
X6035000Y-4547000D01*
X5985000Y-4597000D01*
X6035000Y-4647000D01*
X6035000Y-4901000D02*
X6085000Y-4851000D01*
X6035000Y-4801000D01*
X5985000Y-4851000D01*
X6035000Y-4901000D01*
X6035000Y-5155000D02*
X6085000Y-5105000D01*
X6035000Y-5055000D01*
X5985000Y-5105000D01*
X6035000Y-5155000D01*
X6035000Y-5409000D02*
X6085000Y-5359000D01*
X6035000Y-5309000D01*
X5985000Y-5359000D01*
X6035000Y-5409000D01*
X6035000Y-5663000D02*
X6085000Y-5613000D01*
X6035000Y-5563000D01*
X5985000Y-5613000D01*
X6035000Y-5663000D01*
X6035000Y-5917000D02*
X6085000Y-5867000D01*
X6035000Y-5817000D01*
X5985000Y-5867000D01*
X6035000Y-5917000D01*
X6035000Y-6171000D02*
X6085000Y-6121000D01*
X6035000Y-6071000D01*
X5985000Y-6121000D01*
X6035000Y-6171000D01*
X6035000Y-6425000D02*
X6085000Y-6375000D01*
X6035000Y-6325000D01*
X5985000Y-6375000D01*
X6035000Y-6425000D01*
X6035000Y-6679000D02*
X6085000Y-6629000D01*
X6035000Y-6579000D01*
X5985000Y-6629000D01*
X6035000Y-6679000D01*
X6035000Y-6933000D02*
X6085000Y-6883000D01*
X6035000Y-6833000D01*
X5985000Y-6883000D01*
X6035000Y-6933000D01*
X6035000Y-7187000D02*
X6085000Y-7137000D01*
X6035000Y-7087000D01*
X5985000Y-7137000D01*
X6035000Y-7187000D01*
X6035000Y-7441000D02*
X6085000Y-7391000D01*
X6035000Y-7341000D01*
X5985000Y-7391000D01*
X6035000Y-7441000D01*
X6035000Y-7695000D02*
X6085000Y-7645000D01*
X6035000Y-7595000D01*
X5985000Y-7645000D01*
X6035000Y-7695000D01*
X6035000Y-7949000D02*
X6085000Y-7899000D01*
X6035000Y-7849000D01*
X5985000Y-7899000D01*
X6035000Y-7949000D01*
X6035000Y-8203000D02*
X6085000Y-8153000D01*
X6035000Y-8103000D01*
X5985000Y-8153000D01*
X6035000Y-8203000D01*
X6035000Y-8457000D02*
X6085000Y-8407000D01*
X6035000Y-8357000D01*
X5985000Y-8407000D01*
X6035000Y-8457000D01*
X6035000Y-8711000D02*
X6085000Y-8661000D01*
X6035000Y-8611000D01*
X5985000Y-8661000D01*
X6035000Y-8711000D01*
X6035000Y-8965000D02*
X6085000Y-8915000D01*
X6035000Y-8865000D01*
X5985000Y-8915000D01*
X6035000Y-8965000D01*
X6035000Y-9219000D02*
X6085000Y-9169000D01*
X6035000Y-9119000D01*
X5985000Y-9169000D01*
X6035000Y-9219000D01*
D11*
X2660277Y-11772984D02*
X2660277Y-11572984D01*
X2660277Y-11572984D02*
X2707896Y-11572984D01*
X2707896Y-11572984D02*
X2736467Y-11582508D01*
X2736467Y-11582508D02*
X2755515Y-11601555D01*
X2755515Y-11601555D02*
X2765039Y-11620603D01*
X2765039Y-11620603D02*
X2774563Y-11658698D01*
X2774563Y-11658698D02*
X2774563Y-11687269D01*
X2774563Y-11687269D02*
X2765039Y-11725365D01*
X2765039Y-11725365D02*
X2755515Y-11744412D01*
X2755515Y-11744412D02*
X2736467Y-11763460D01*
X2736467Y-11763460D02*
X2707896Y-11772984D01*
X2707896Y-11772984D02*
X2660277Y-11772984D01*
X2860277Y-11772984D02*
X2860277Y-11639650D01*
X2860277Y-11677746D02*
X2869801Y-11658698D01*
X2869801Y-11658698D02*
X2879324Y-11649174D01*
X2879324Y-11649174D02*
X2898372Y-11639650D01*
X2898372Y-11639650D02*
X2917420Y-11639650D01*
X2984086Y-11772984D02*
X2984086Y-11639650D01*
X2984086Y-11572984D02*
X2974562Y-11582508D01*
X2974562Y-11582508D02*
X2984086Y-11592031D01*
X2984086Y-11592031D02*
X2993610Y-11582508D01*
X2993610Y-11582508D02*
X2984086Y-11572984D01*
X2984086Y-11572984D02*
X2984086Y-11592031D01*
X3107896Y-11772984D02*
X3088848Y-11763460D01*
X3088848Y-11763460D02*
X3079324Y-11744412D01*
X3079324Y-11744412D02*
X3079324Y-11572984D01*
X3212658Y-11772984D02*
X3193610Y-11763460D01*
X3193610Y-11763460D02*
X3184086Y-11744412D01*
X3184086Y-11744412D02*
X3184086Y-11572984D01*
X3441229Y-11772984D02*
X3441229Y-11572984D01*
X3441229Y-11572984D02*
X3507896Y-11715841D01*
X3507896Y-11715841D02*
X3574562Y-11572984D01*
X3574562Y-11572984D02*
X3574562Y-11772984D01*
X3755515Y-11772984D02*
X3755515Y-11668222D01*
X3755515Y-11668222D02*
X3745991Y-11649174D01*
X3745991Y-11649174D02*
X3726943Y-11639650D01*
X3726943Y-11639650D02*
X3688848Y-11639650D01*
X3688848Y-11639650D02*
X3669801Y-11649174D01*
X3755515Y-11763460D02*
X3736467Y-11772984D01*
X3736467Y-11772984D02*
X3688848Y-11772984D01*
X3688848Y-11772984D02*
X3669801Y-11763460D01*
X3669801Y-11763460D02*
X3660277Y-11744412D01*
X3660277Y-11744412D02*
X3660277Y-11725365D01*
X3660277Y-11725365D02*
X3669801Y-11706317D01*
X3669801Y-11706317D02*
X3688848Y-11696793D01*
X3688848Y-11696793D02*
X3736467Y-11696793D01*
X3736467Y-11696793D02*
X3755515Y-11687269D01*
X3850753Y-11639650D02*
X3850753Y-11839650D01*
X3850753Y-11649174D02*
X3869801Y-11639650D01*
X3869801Y-11639650D02*
X3907896Y-11639650D01*
X3907896Y-11639650D02*
X3926943Y-11649174D01*
X3926943Y-11649174D02*
X3936467Y-11658698D01*
X3936467Y-11658698D02*
X3945991Y-11677746D01*
X3945991Y-11677746D02*
X3945991Y-11734888D01*
X3945991Y-11734888D02*
X3936467Y-11753936D01*
X3936467Y-11753936D02*
X3926943Y-11763460D01*
X3926943Y-11763460D02*
X3907896Y-11772984D01*
X3907896Y-11772984D02*
X3869801Y-11772984D01*
X3869801Y-11772984D02*
X3850753Y-11763460D01*
X4031705Y-11753936D02*
X4041229Y-11763460D01*
X4041229Y-11763460D02*
X4031705Y-11772984D01*
X4031705Y-11772984D02*
X4022182Y-11763460D01*
X4022182Y-11763460D02*
X4031705Y-11753936D01*
X4031705Y-11753936D02*
X4031705Y-11772984D01*
X4031705Y-11649174D02*
X4041229Y-11658698D01*
X4041229Y-11658698D02*
X4031705Y-11668222D01*
X4031705Y-11668222D02*
X4022182Y-11658698D01*
X4022182Y-11658698D02*
X4031705Y-11649174D01*
X4031705Y-11649174D02*
X4031705Y-11668222D01*
D12*
X2354500Y-12079000D02*
X2399500Y-12124000D01*
X2399500Y-12079000D02*
X2354500Y-12124000D01*
D11*
X2698372Y-11992984D02*
X2717420Y-11992984D01*
X2717420Y-11992984D02*
X2736467Y-12002508D01*
X2736467Y-12002508D02*
X2745991Y-12012031D01*
X2745991Y-12012031D02*
X2755515Y-12031079D01*
X2755515Y-12031079D02*
X2765039Y-12069174D01*
X2765039Y-12069174D02*
X2765039Y-12116793D01*
X2765039Y-12116793D02*
X2755515Y-12154888D01*
X2755515Y-12154888D02*
X2745991Y-12173936D01*
X2745991Y-12173936D02*
X2736467Y-12183460D01*
X2736467Y-12183460D02*
X2717420Y-12192984D01*
X2717420Y-12192984D02*
X2698372Y-12192984D01*
X2698372Y-12192984D02*
X2679324Y-12183460D01*
X2679324Y-12183460D02*
X2669801Y-12173936D01*
X2669801Y-12173936D02*
X2660277Y-12154888D01*
X2660277Y-12154888D02*
X2650753Y-12116793D01*
X2650753Y-12116793D02*
X2650753Y-12069174D01*
X2650753Y-12069174D02*
X2660277Y-12031079D01*
X2660277Y-12031079D02*
X2669801Y-12012031D01*
X2669801Y-12012031D02*
X2679324Y-12002508D01*
X2679324Y-12002508D02*
X2698372Y-11992984D01*
X2850753Y-12173936D02*
X2860277Y-12183460D01*
X2860277Y-12183460D02*
X2850753Y-12192984D01*
X2850753Y-12192984D02*
X2841229Y-12183460D01*
X2841229Y-12183460D02*
X2850753Y-12173936D01*
X2850753Y-12173936D02*
X2850753Y-12192984D01*
X3031705Y-12059650D02*
X3031705Y-12192984D01*
X2984086Y-11983460D02*
X2936467Y-12126317D01*
X2936467Y-12126317D02*
X3060277Y-12126317D01*
X3231705Y-11992984D02*
X3136467Y-11992984D01*
X3136467Y-11992984D02*
X3126943Y-12088222D01*
X3126943Y-12088222D02*
X3136467Y-12078698D01*
X3136467Y-12078698D02*
X3155515Y-12069174D01*
X3155515Y-12069174D02*
X3203134Y-12069174D01*
X3203134Y-12069174D02*
X3222182Y-12078698D01*
X3222182Y-12078698D02*
X3231705Y-12088222D01*
X3231705Y-12088222D02*
X3241229Y-12107269D01*
X3241229Y-12107269D02*
X3241229Y-12154888D01*
X3241229Y-12154888D02*
X3231705Y-12173936D01*
X3231705Y-12173936D02*
X3222182Y-12183460D01*
X3222182Y-12183460D02*
X3203134Y-12192984D01*
X3203134Y-12192984D02*
X3155515Y-12192984D01*
X3155515Y-12192984D02*
X3136467Y-12183460D01*
X3136467Y-12183460D02*
X3126943Y-12173936D01*
X3365039Y-11992984D02*
X3384086Y-11992984D01*
X3384086Y-11992984D02*
X3403134Y-12002508D01*
X3403134Y-12002508D02*
X3412658Y-12012031D01*
X3412658Y-12012031D02*
X3422182Y-12031079D01*
X3422182Y-12031079D02*
X3431705Y-12069174D01*
X3431705Y-12069174D02*
X3431705Y-12116793D01*
X3431705Y-12116793D02*
X3422182Y-12154888D01*
X3422182Y-12154888D02*
X3412658Y-12173936D01*
X3412658Y-12173936D02*
X3403134Y-12183460D01*
X3403134Y-12183460D02*
X3384086Y-12192984D01*
X3384086Y-12192984D02*
X3365039Y-12192984D01*
X3365039Y-12192984D02*
X3345991Y-12183460D01*
X3345991Y-12183460D02*
X3336467Y-12173936D01*
X3336467Y-12173936D02*
X3326943Y-12154888D01*
X3326943Y-12154888D02*
X3317420Y-12116793D01*
X3317420Y-12116793D02*
X3317420Y-12069174D01*
X3317420Y-12069174D02*
X3326943Y-12031079D01*
X3326943Y-12031079D02*
X3336467Y-12012031D01*
X3336467Y-12012031D02*
X3345991Y-12002508D01*
X3345991Y-12002508D02*
X3365039Y-11992984D01*
X3517420Y-12192984D02*
X3517420Y-12059650D01*
X3517420Y-12078698D02*
X3526943Y-12069174D01*
X3526943Y-12069174D02*
X3545991Y-12059650D01*
X3545991Y-12059650D02*
X3574563Y-12059650D01*
X3574563Y-12059650D02*
X3593610Y-12069174D01*
X3593610Y-12069174D02*
X3603134Y-12088222D01*
X3603134Y-12088222D02*
X3603134Y-12192984D01*
X3603134Y-12088222D02*
X3612658Y-12069174D01*
X3612658Y-12069174D02*
X3631705Y-12059650D01*
X3631705Y-12059650D02*
X3660277Y-12059650D01*
X3660277Y-12059650D02*
X3679324Y-12069174D01*
X3679324Y-12069174D02*
X3688848Y-12088222D01*
X3688848Y-12088222D02*
X3688848Y-12192984D01*
X3784086Y-12192984D02*
X3784086Y-12059650D01*
X3784086Y-12078698D02*
X3793610Y-12069174D01*
X3793610Y-12069174D02*
X3812658Y-12059650D01*
X3812658Y-12059650D02*
X3841229Y-12059650D01*
X3841229Y-12059650D02*
X3860277Y-12069174D01*
X3860277Y-12069174D02*
X3869801Y-12088222D01*
X3869801Y-12088222D02*
X3869801Y-12192984D01*
X3869801Y-12088222D02*
X3879324Y-12069174D01*
X3879324Y-12069174D02*
X3898372Y-12059650D01*
X3898372Y-12059650D02*
X3926943Y-12059650D01*
X3926943Y-12059650D02*
X3945991Y-12069174D01*
X3945991Y-12069174D02*
X3955515Y-12088222D01*
X3955515Y-12088222D02*
X3955515Y-12192984D01*
X4345991Y-11983460D02*
X4174563Y-12240603D01*
X4603134Y-11992984D02*
X4622182Y-11992984D01*
X4622182Y-11992984D02*
X4641229Y-12002508D01*
X4641229Y-12002508D02*
X4650753Y-12012031D01*
X4650753Y-12012031D02*
X4660277Y-12031079D01*
X4660277Y-12031079D02*
X4669801Y-12069174D01*
X4669801Y-12069174D02*
X4669801Y-12116793D01*
X4669801Y-12116793D02*
X4660277Y-12154888D01*
X4660277Y-12154888D02*
X4650753Y-12173936D01*
X4650753Y-12173936D02*
X4641229Y-12183460D01*
X4641229Y-12183460D02*
X4622182Y-12192984D01*
X4622182Y-12192984D02*
X4603134Y-12192984D01*
X4603134Y-12192984D02*
X4584087Y-12183460D01*
X4584087Y-12183460D02*
X4574563Y-12173936D01*
X4574563Y-12173936D02*
X4565039Y-12154888D01*
X4565039Y-12154888D02*
X4555515Y-12116793D01*
X4555515Y-12116793D02*
X4555515Y-12069174D01*
X4555515Y-12069174D02*
X4565039Y-12031079D01*
X4565039Y-12031079D02*
X4574563Y-12012031D01*
X4574563Y-12012031D02*
X4584087Y-12002508D01*
X4584087Y-12002508D02*
X4603134Y-11992984D01*
X4755515Y-12173936D02*
X4765039Y-12183460D01*
X4765039Y-12183460D02*
X4755515Y-12192984D01*
X4755515Y-12192984D02*
X4745991Y-12183460D01*
X4745991Y-12183460D02*
X4755515Y-12173936D01*
X4755515Y-12173936D02*
X4755515Y-12192984D01*
X4888848Y-11992984D02*
X4907896Y-11992984D01*
X4907896Y-11992984D02*
X4926944Y-12002508D01*
X4926944Y-12002508D02*
X4936468Y-12012031D01*
X4936468Y-12012031D02*
X4945991Y-12031079D01*
X4945991Y-12031079D02*
X4955515Y-12069174D01*
X4955515Y-12069174D02*
X4955515Y-12116793D01*
X4955515Y-12116793D02*
X4945991Y-12154888D01*
X4945991Y-12154888D02*
X4936468Y-12173936D01*
X4936468Y-12173936D02*
X4926944Y-12183460D01*
X4926944Y-12183460D02*
X4907896Y-12192984D01*
X4907896Y-12192984D02*
X4888848Y-12192984D01*
X4888848Y-12192984D02*
X4869801Y-12183460D01*
X4869801Y-12183460D02*
X4860277Y-12173936D01*
X4860277Y-12173936D02*
X4850753Y-12154888D01*
X4850753Y-12154888D02*
X4841229Y-12116793D01*
X4841229Y-12116793D02*
X4841229Y-12069174D01*
X4841229Y-12069174D02*
X4850753Y-12031079D01*
X4850753Y-12031079D02*
X4860277Y-12012031D01*
X4860277Y-12012031D02*
X4869801Y-12002508D01*
X4869801Y-12002508D02*
X4888848Y-11992984D01*
X5145991Y-12192984D02*
X5031706Y-12192984D01*
X5088848Y-12192984D02*
X5088848Y-11992984D01*
X5088848Y-11992984D02*
X5069801Y-12021555D01*
X5069801Y-12021555D02*
X5050753Y-12040603D01*
X5050753Y-12040603D02*
X5031706Y-12050127D01*
X5212658Y-11992984D02*
X5345991Y-11992984D01*
X5345991Y-11992984D02*
X5260277Y-12192984D01*
X5403134Y-11992984D02*
X5536468Y-11992984D01*
X5536468Y-11992984D02*
X5450753Y-12192984D01*
X5603134Y-11992984D02*
X5603134Y-12031079D01*
X5679325Y-11992984D02*
X5679325Y-12031079D01*
X5974563Y-12269174D02*
X5965039Y-12259650D01*
X5965039Y-12259650D02*
X5945991Y-12231079D01*
X5945991Y-12231079D02*
X5936468Y-12212031D01*
X5936468Y-12212031D02*
X5926944Y-12183460D01*
X5926944Y-12183460D02*
X5917420Y-12135841D01*
X5917420Y-12135841D02*
X5917420Y-12097746D01*
X5917420Y-12097746D02*
X5926944Y-12050127D01*
X5926944Y-12050127D02*
X5936468Y-12021555D01*
X5936468Y-12021555D02*
X5945991Y-12002508D01*
X5945991Y-12002508D02*
X5965039Y-11973936D01*
X5965039Y-11973936D02*
X5974563Y-11964412D01*
X6041229Y-12012031D02*
X6050753Y-12002508D01*
X6050753Y-12002508D02*
X6069801Y-11992984D01*
X6069801Y-11992984D02*
X6117420Y-11992984D01*
X6117420Y-11992984D02*
X6136468Y-12002508D01*
X6136468Y-12002508D02*
X6145991Y-12012031D01*
X6145991Y-12012031D02*
X6155515Y-12031079D01*
X6155515Y-12031079D02*
X6155515Y-12050127D01*
X6155515Y-12050127D02*
X6145991Y-12078698D01*
X6145991Y-12078698D02*
X6031706Y-12192984D01*
X6031706Y-12192984D02*
X6155515Y-12192984D01*
X6326944Y-12059650D02*
X6326944Y-12192984D01*
X6279325Y-11983460D02*
X6231706Y-12126317D01*
X6231706Y-12126317D02*
X6355515Y-12126317D01*
X6584087Y-12192984D02*
X6584087Y-11992984D01*
X6669801Y-12192984D02*
X6669801Y-12088222D01*
X6669801Y-12088222D02*
X6660277Y-12069174D01*
X6660277Y-12069174D02*
X6641230Y-12059650D01*
X6641230Y-12059650D02*
X6612658Y-12059650D01*
X6612658Y-12059650D02*
X6593610Y-12069174D01*
X6593610Y-12069174D02*
X6584087Y-12078698D01*
X6793610Y-12192984D02*
X6774563Y-12183460D01*
X6774563Y-12183460D02*
X6765039Y-12173936D01*
X6765039Y-12173936D02*
X6755515Y-12154888D01*
X6755515Y-12154888D02*
X6755515Y-12097746D01*
X6755515Y-12097746D02*
X6765039Y-12078698D01*
X6765039Y-12078698D02*
X6774563Y-12069174D01*
X6774563Y-12069174D02*
X6793610Y-12059650D01*
X6793610Y-12059650D02*
X6822182Y-12059650D01*
X6822182Y-12059650D02*
X6841230Y-12069174D01*
X6841230Y-12069174D02*
X6850753Y-12078698D01*
X6850753Y-12078698D02*
X6860277Y-12097746D01*
X6860277Y-12097746D02*
X6860277Y-12154888D01*
X6860277Y-12154888D02*
X6850753Y-12173936D01*
X6850753Y-12173936D02*
X6841230Y-12183460D01*
X6841230Y-12183460D02*
X6822182Y-12192984D01*
X6822182Y-12192984D02*
X6793610Y-12192984D01*
X6974563Y-12192984D02*
X6955515Y-12183460D01*
X6955515Y-12183460D02*
X6945991Y-12164412D01*
X6945991Y-12164412D02*
X6945991Y-11992984D01*
X7126944Y-12183460D02*
X7107896Y-12192984D01*
X7107896Y-12192984D02*
X7069801Y-12192984D01*
X7069801Y-12192984D02*
X7050753Y-12183460D01*
X7050753Y-12183460D02*
X7041230Y-12164412D01*
X7041230Y-12164412D02*
X7041230Y-12088222D01*
X7041230Y-12088222D02*
X7050753Y-12069174D01*
X7050753Y-12069174D02*
X7069801Y-12059650D01*
X7069801Y-12059650D02*
X7107896Y-12059650D01*
X7107896Y-12059650D02*
X7126944Y-12069174D01*
X7126944Y-12069174D02*
X7136468Y-12088222D01*
X7136468Y-12088222D02*
X7136468Y-12107269D01*
X7136468Y-12107269D02*
X7041230Y-12126317D01*
X7212658Y-12183460D02*
X7231706Y-12192984D01*
X7231706Y-12192984D02*
X7269801Y-12192984D01*
X7269801Y-12192984D02*
X7288849Y-12183460D01*
X7288849Y-12183460D02*
X7298372Y-12164412D01*
X7298372Y-12164412D02*
X7298372Y-12154888D01*
X7298372Y-12154888D02*
X7288849Y-12135841D01*
X7288849Y-12135841D02*
X7269801Y-12126317D01*
X7269801Y-12126317D02*
X7241230Y-12126317D01*
X7241230Y-12126317D02*
X7222182Y-12116793D01*
X7222182Y-12116793D02*
X7212658Y-12097746D01*
X7212658Y-12097746D02*
X7212658Y-12088222D01*
X7212658Y-12088222D02*
X7222182Y-12069174D01*
X7222182Y-12069174D02*
X7241230Y-12059650D01*
X7241230Y-12059650D02*
X7269801Y-12059650D01*
X7269801Y-12059650D02*
X7288849Y-12069174D01*
X7365039Y-12269174D02*
X7374563Y-12259650D01*
X7374563Y-12259650D02*
X7393611Y-12231079D01*
X7393611Y-12231079D02*
X7403134Y-12212031D01*
X7403134Y-12212031D02*
X7412658Y-12183460D01*
X7412658Y-12183460D02*
X7422182Y-12135841D01*
X7422182Y-12135841D02*
X7422182Y-12097746D01*
X7422182Y-12097746D02*
X7412658Y-12050127D01*
X7412658Y-12050127D02*
X7403134Y-12021555D01*
X7403134Y-12021555D02*
X7393611Y-12002508D01*
X7393611Y-12002508D02*
X7374563Y-11973936D01*
X7374563Y-11973936D02*
X7365039Y-11964412D01*
D12*
X2399500Y-12365500D02*
G75*
G02*
X2329500Y-12365500I-35000J0D01*
G01*
X2329500Y-12365500D02*
G75*
G02*
X2399500Y-12365500I35000J0D01*
G01*
D11*
X2698372Y-12256984D02*
X2717420Y-12256984D01*
X2717420Y-12256984D02*
X2736467Y-12266508D01*
X2736467Y-12266508D02*
X2745991Y-12276031D01*
X2745991Y-12276031D02*
X2755515Y-12295079D01*
X2755515Y-12295079D02*
X2765039Y-12333174D01*
X2765039Y-12333174D02*
X2765039Y-12380793D01*
X2765039Y-12380793D02*
X2755515Y-12418888D01*
X2755515Y-12418888D02*
X2745991Y-12437936D01*
X2745991Y-12437936D02*
X2736467Y-12447460D01*
X2736467Y-12447460D02*
X2717420Y-12456984D01*
X2717420Y-12456984D02*
X2698372Y-12456984D01*
X2698372Y-12456984D02*
X2679324Y-12447460D01*
X2679324Y-12447460D02*
X2669801Y-12437936D01*
X2669801Y-12437936D02*
X2660277Y-12418888D01*
X2660277Y-12418888D02*
X2650753Y-12380793D01*
X2650753Y-12380793D02*
X2650753Y-12333174D01*
X2650753Y-12333174D02*
X2660277Y-12295079D01*
X2660277Y-12295079D02*
X2669801Y-12276031D01*
X2669801Y-12276031D02*
X2679324Y-12266508D01*
X2679324Y-12266508D02*
X2698372Y-12256984D01*
X2850753Y-12437936D02*
X2860277Y-12447460D01*
X2860277Y-12447460D02*
X2850753Y-12456984D01*
X2850753Y-12456984D02*
X2841229Y-12447460D01*
X2841229Y-12447460D02*
X2850753Y-12437936D01*
X2850753Y-12437936D02*
X2850753Y-12456984D01*
X2926943Y-12256984D02*
X3060277Y-12256984D01*
X3060277Y-12256984D02*
X2974562Y-12456984D01*
X3174562Y-12256984D02*
X3193610Y-12256984D01*
X3193610Y-12256984D02*
X3212658Y-12266508D01*
X3212658Y-12266508D02*
X3222182Y-12276031D01*
X3222182Y-12276031D02*
X3231705Y-12295079D01*
X3231705Y-12295079D02*
X3241229Y-12333174D01*
X3241229Y-12333174D02*
X3241229Y-12380793D01*
X3241229Y-12380793D02*
X3231705Y-12418888D01*
X3231705Y-12418888D02*
X3222182Y-12437936D01*
X3222182Y-12437936D02*
X3212658Y-12447460D01*
X3212658Y-12447460D02*
X3193610Y-12456984D01*
X3193610Y-12456984D02*
X3174562Y-12456984D01*
X3174562Y-12456984D02*
X3155515Y-12447460D01*
X3155515Y-12447460D02*
X3145991Y-12437936D01*
X3145991Y-12437936D02*
X3136467Y-12418888D01*
X3136467Y-12418888D02*
X3126943Y-12380793D01*
X3126943Y-12380793D02*
X3126943Y-12333174D01*
X3126943Y-12333174D02*
X3136467Y-12295079D01*
X3136467Y-12295079D02*
X3145991Y-12276031D01*
X3145991Y-12276031D02*
X3155515Y-12266508D01*
X3155515Y-12266508D02*
X3174562Y-12256984D01*
X3365039Y-12256984D02*
X3384086Y-12256984D01*
X3384086Y-12256984D02*
X3403134Y-12266508D01*
X3403134Y-12266508D02*
X3412658Y-12276031D01*
X3412658Y-12276031D02*
X3422182Y-12295079D01*
X3422182Y-12295079D02*
X3431705Y-12333174D01*
X3431705Y-12333174D02*
X3431705Y-12380793D01*
X3431705Y-12380793D02*
X3422182Y-12418888D01*
X3422182Y-12418888D02*
X3412658Y-12437936D01*
X3412658Y-12437936D02*
X3403134Y-12447460D01*
X3403134Y-12447460D02*
X3384086Y-12456984D01*
X3384086Y-12456984D02*
X3365039Y-12456984D01*
X3365039Y-12456984D02*
X3345991Y-12447460D01*
X3345991Y-12447460D02*
X3336467Y-12437936D01*
X3336467Y-12437936D02*
X3326943Y-12418888D01*
X3326943Y-12418888D02*
X3317420Y-12380793D01*
X3317420Y-12380793D02*
X3317420Y-12333174D01*
X3317420Y-12333174D02*
X3326943Y-12295079D01*
X3326943Y-12295079D02*
X3336467Y-12276031D01*
X3336467Y-12276031D02*
X3345991Y-12266508D01*
X3345991Y-12266508D02*
X3365039Y-12256984D01*
X3517420Y-12456984D02*
X3517420Y-12323650D01*
X3517420Y-12342698D02*
X3526943Y-12333174D01*
X3526943Y-12333174D02*
X3545991Y-12323650D01*
X3545991Y-12323650D02*
X3574563Y-12323650D01*
X3574563Y-12323650D02*
X3593610Y-12333174D01*
X3593610Y-12333174D02*
X3603134Y-12352222D01*
X3603134Y-12352222D02*
X3603134Y-12456984D01*
X3603134Y-12352222D02*
X3612658Y-12333174D01*
X3612658Y-12333174D02*
X3631705Y-12323650D01*
X3631705Y-12323650D02*
X3660277Y-12323650D01*
X3660277Y-12323650D02*
X3679324Y-12333174D01*
X3679324Y-12333174D02*
X3688848Y-12352222D01*
X3688848Y-12352222D02*
X3688848Y-12456984D01*
X3784086Y-12456984D02*
X3784086Y-12323650D01*
X3784086Y-12342698D02*
X3793610Y-12333174D01*
X3793610Y-12333174D02*
X3812658Y-12323650D01*
X3812658Y-12323650D02*
X3841229Y-12323650D01*
X3841229Y-12323650D02*
X3860277Y-12333174D01*
X3860277Y-12333174D02*
X3869801Y-12352222D01*
X3869801Y-12352222D02*
X3869801Y-12456984D01*
X3869801Y-12352222D02*
X3879324Y-12333174D01*
X3879324Y-12333174D02*
X3898372Y-12323650D01*
X3898372Y-12323650D02*
X3926943Y-12323650D01*
X3926943Y-12323650D02*
X3945991Y-12333174D01*
X3945991Y-12333174D02*
X3955515Y-12352222D01*
X3955515Y-12352222D02*
X3955515Y-12456984D01*
X4345991Y-12247460D02*
X4174563Y-12504603D01*
X4603134Y-12256984D02*
X4622182Y-12256984D01*
X4622182Y-12256984D02*
X4641229Y-12266508D01*
X4641229Y-12266508D02*
X4650753Y-12276031D01*
X4650753Y-12276031D02*
X4660277Y-12295079D01*
X4660277Y-12295079D02*
X4669801Y-12333174D01*
X4669801Y-12333174D02*
X4669801Y-12380793D01*
X4669801Y-12380793D02*
X4660277Y-12418888D01*
X4660277Y-12418888D02*
X4650753Y-12437936D01*
X4650753Y-12437936D02*
X4641229Y-12447460D01*
X4641229Y-12447460D02*
X4622182Y-12456984D01*
X4622182Y-12456984D02*
X4603134Y-12456984D01*
X4603134Y-12456984D02*
X4584087Y-12447460D01*
X4584087Y-12447460D02*
X4574563Y-12437936D01*
X4574563Y-12437936D02*
X4565039Y-12418888D01*
X4565039Y-12418888D02*
X4555515Y-12380793D01*
X4555515Y-12380793D02*
X4555515Y-12333174D01*
X4555515Y-12333174D02*
X4565039Y-12295079D01*
X4565039Y-12295079D02*
X4574563Y-12276031D01*
X4574563Y-12276031D02*
X4584087Y-12266508D01*
X4584087Y-12266508D02*
X4603134Y-12256984D01*
X4755515Y-12437936D02*
X4765039Y-12447460D01*
X4765039Y-12447460D02*
X4755515Y-12456984D01*
X4755515Y-12456984D02*
X4745991Y-12447460D01*
X4745991Y-12447460D02*
X4755515Y-12437936D01*
X4755515Y-12437936D02*
X4755515Y-12456984D01*
X4888848Y-12256984D02*
X4907896Y-12256984D01*
X4907896Y-12256984D02*
X4926944Y-12266508D01*
X4926944Y-12266508D02*
X4936468Y-12276031D01*
X4936468Y-12276031D02*
X4945991Y-12295079D01*
X4945991Y-12295079D02*
X4955515Y-12333174D01*
X4955515Y-12333174D02*
X4955515Y-12380793D01*
X4955515Y-12380793D02*
X4945991Y-12418888D01*
X4945991Y-12418888D02*
X4936468Y-12437936D01*
X4936468Y-12437936D02*
X4926944Y-12447460D01*
X4926944Y-12447460D02*
X4907896Y-12456984D01*
X4907896Y-12456984D02*
X4888848Y-12456984D01*
X4888848Y-12456984D02*
X4869801Y-12447460D01*
X4869801Y-12447460D02*
X4860277Y-12437936D01*
X4860277Y-12437936D02*
X4850753Y-12418888D01*
X4850753Y-12418888D02*
X4841229Y-12380793D01*
X4841229Y-12380793D02*
X4841229Y-12333174D01*
X4841229Y-12333174D02*
X4850753Y-12295079D01*
X4850753Y-12295079D02*
X4860277Y-12276031D01*
X4860277Y-12276031D02*
X4869801Y-12266508D01*
X4869801Y-12266508D02*
X4888848Y-12256984D01*
X5031706Y-12276031D02*
X5041229Y-12266508D01*
X5041229Y-12266508D02*
X5060277Y-12256984D01*
X5060277Y-12256984D02*
X5107896Y-12256984D01*
X5107896Y-12256984D02*
X5126944Y-12266508D01*
X5126944Y-12266508D02*
X5136468Y-12276031D01*
X5136468Y-12276031D02*
X5145991Y-12295079D01*
X5145991Y-12295079D02*
X5145991Y-12314127D01*
X5145991Y-12314127D02*
X5136468Y-12342698D01*
X5136468Y-12342698D02*
X5022182Y-12456984D01*
X5022182Y-12456984D02*
X5145991Y-12456984D01*
X5212658Y-12256984D02*
X5345991Y-12256984D01*
X5345991Y-12256984D02*
X5260277Y-12456984D01*
X5507896Y-12256984D02*
X5469801Y-12256984D01*
X5469801Y-12256984D02*
X5450753Y-12266508D01*
X5450753Y-12266508D02*
X5441229Y-12276031D01*
X5441229Y-12276031D02*
X5422182Y-12304603D01*
X5422182Y-12304603D02*
X5412658Y-12342698D01*
X5412658Y-12342698D02*
X5412658Y-12418888D01*
X5412658Y-12418888D02*
X5422182Y-12437936D01*
X5422182Y-12437936D02*
X5431706Y-12447460D01*
X5431706Y-12447460D02*
X5450753Y-12456984D01*
X5450753Y-12456984D02*
X5488849Y-12456984D01*
X5488849Y-12456984D02*
X5507896Y-12447460D01*
X5507896Y-12447460D02*
X5517420Y-12437936D01*
X5517420Y-12437936D02*
X5526944Y-12418888D01*
X5526944Y-12418888D02*
X5526944Y-12371269D01*
X5526944Y-12371269D02*
X5517420Y-12352222D01*
X5517420Y-12352222D02*
X5507896Y-12342698D01*
X5507896Y-12342698D02*
X5488849Y-12333174D01*
X5488849Y-12333174D02*
X5450753Y-12333174D01*
X5450753Y-12333174D02*
X5431706Y-12342698D01*
X5431706Y-12342698D02*
X5422182Y-12352222D01*
X5422182Y-12352222D02*
X5412658Y-12371269D01*
X5603134Y-12256984D02*
X5603134Y-12295079D01*
X5679325Y-12256984D02*
X5679325Y-12295079D01*
X5974563Y-12533174D02*
X5965039Y-12523650D01*
X5965039Y-12523650D02*
X5945991Y-12495079D01*
X5945991Y-12495079D02*
X5936468Y-12476031D01*
X5936468Y-12476031D02*
X5926944Y-12447460D01*
X5926944Y-12447460D02*
X5917420Y-12399841D01*
X5917420Y-12399841D02*
X5917420Y-12361746D01*
X5917420Y-12361746D02*
X5926944Y-12314127D01*
X5926944Y-12314127D02*
X5936468Y-12285555D01*
X5936468Y-12285555D02*
X5945991Y-12266508D01*
X5945991Y-12266508D02*
X5965039Y-12237936D01*
X5965039Y-12237936D02*
X5974563Y-12228412D01*
X6079325Y-12342698D02*
X6060277Y-12333174D01*
X6060277Y-12333174D02*
X6050753Y-12323650D01*
X6050753Y-12323650D02*
X6041229Y-12304603D01*
X6041229Y-12304603D02*
X6041229Y-12295079D01*
X6041229Y-12295079D02*
X6050753Y-12276031D01*
X6050753Y-12276031D02*
X6060277Y-12266508D01*
X6060277Y-12266508D02*
X6079325Y-12256984D01*
X6079325Y-12256984D02*
X6117420Y-12256984D01*
X6117420Y-12256984D02*
X6136468Y-12266508D01*
X6136468Y-12266508D02*
X6145991Y-12276031D01*
X6145991Y-12276031D02*
X6155515Y-12295079D01*
X6155515Y-12295079D02*
X6155515Y-12304603D01*
X6155515Y-12304603D02*
X6145991Y-12323650D01*
X6145991Y-12323650D02*
X6136468Y-12333174D01*
X6136468Y-12333174D02*
X6117420Y-12342698D01*
X6117420Y-12342698D02*
X6079325Y-12342698D01*
X6079325Y-12342698D02*
X6060277Y-12352222D01*
X6060277Y-12352222D02*
X6050753Y-12361746D01*
X6050753Y-12361746D02*
X6041229Y-12380793D01*
X6041229Y-12380793D02*
X6041229Y-12418888D01*
X6041229Y-12418888D02*
X6050753Y-12437936D01*
X6050753Y-12437936D02*
X6060277Y-12447460D01*
X6060277Y-12447460D02*
X6079325Y-12456984D01*
X6079325Y-12456984D02*
X6117420Y-12456984D01*
X6117420Y-12456984D02*
X6136468Y-12447460D01*
X6136468Y-12447460D02*
X6145991Y-12437936D01*
X6145991Y-12437936D02*
X6155515Y-12418888D01*
X6155515Y-12418888D02*
X6155515Y-12380793D01*
X6155515Y-12380793D02*
X6145991Y-12361746D01*
X6145991Y-12361746D02*
X6136468Y-12352222D01*
X6136468Y-12352222D02*
X6117420Y-12342698D01*
X6393610Y-12456984D02*
X6393610Y-12256984D01*
X6479325Y-12456984D02*
X6479325Y-12352222D01*
X6479325Y-12352222D02*
X6469801Y-12333174D01*
X6469801Y-12333174D02*
X6450753Y-12323650D01*
X6450753Y-12323650D02*
X6422182Y-12323650D01*
X6422182Y-12323650D02*
X6403134Y-12333174D01*
X6403134Y-12333174D02*
X6393610Y-12342698D01*
X6603134Y-12456984D02*
X6584087Y-12447460D01*
X6584087Y-12447460D02*
X6574563Y-12437936D01*
X6574563Y-12437936D02*
X6565039Y-12418888D01*
X6565039Y-12418888D02*
X6565039Y-12361746D01*
X6565039Y-12361746D02*
X6574563Y-12342698D01*
X6574563Y-12342698D02*
X6584087Y-12333174D01*
X6584087Y-12333174D02*
X6603134Y-12323650D01*
X6603134Y-12323650D02*
X6631706Y-12323650D01*
X6631706Y-12323650D02*
X6650753Y-12333174D01*
X6650753Y-12333174D02*
X6660277Y-12342698D01*
X6660277Y-12342698D02*
X6669801Y-12361746D01*
X6669801Y-12361746D02*
X6669801Y-12418888D01*
X6669801Y-12418888D02*
X6660277Y-12437936D01*
X6660277Y-12437936D02*
X6650753Y-12447460D01*
X6650753Y-12447460D02*
X6631706Y-12456984D01*
X6631706Y-12456984D02*
X6603134Y-12456984D01*
X6784087Y-12456984D02*
X6765039Y-12447460D01*
X6765039Y-12447460D02*
X6755515Y-12428412D01*
X6755515Y-12428412D02*
X6755515Y-12256984D01*
X6936468Y-12447460D02*
X6917420Y-12456984D01*
X6917420Y-12456984D02*
X6879325Y-12456984D01*
X6879325Y-12456984D02*
X6860277Y-12447460D01*
X6860277Y-12447460D02*
X6850753Y-12428412D01*
X6850753Y-12428412D02*
X6850753Y-12352222D01*
X6850753Y-12352222D02*
X6860277Y-12333174D01*
X6860277Y-12333174D02*
X6879325Y-12323650D01*
X6879325Y-12323650D02*
X6917420Y-12323650D01*
X6917420Y-12323650D02*
X6936468Y-12333174D01*
X6936468Y-12333174D02*
X6945991Y-12352222D01*
X6945991Y-12352222D02*
X6945991Y-12371269D01*
X6945991Y-12371269D02*
X6850753Y-12390317D01*
X7022182Y-12447460D02*
X7041230Y-12456984D01*
X7041230Y-12456984D02*
X7079325Y-12456984D01*
X7079325Y-12456984D02*
X7098372Y-12447460D01*
X7098372Y-12447460D02*
X7107896Y-12428412D01*
X7107896Y-12428412D02*
X7107896Y-12418888D01*
X7107896Y-12418888D02*
X7098372Y-12399841D01*
X7098372Y-12399841D02*
X7079325Y-12390317D01*
X7079325Y-12390317D02*
X7050753Y-12390317D01*
X7050753Y-12390317D02*
X7031706Y-12380793D01*
X7031706Y-12380793D02*
X7022182Y-12361746D01*
X7022182Y-12361746D02*
X7022182Y-12352222D01*
X7022182Y-12352222D02*
X7031706Y-12333174D01*
X7031706Y-12333174D02*
X7050753Y-12323650D01*
X7050753Y-12323650D02*
X7079325Y-12323650D01*
X7079325Y-12323650D02*
X7098372Y-12333174D01*
X7174563Y-12533174D02*
X7184087Y-12523650D01*
X7184087Y-12523650D02*
X7203134Y-12495079D01*
X7203134Y-12495079D02*
X7212658Y-12476031D01*
X7212658Y-12476031D02*
X7222182Y-12447460D01*
X7222182Y-12447460D02*
X7231706Y-12399841D01*
X7231706Y-12399841D02*
X7231706Y-12361746D01*
X7231706Y-12361746D02*
X7222182Y-12314127D01*
X7222182Y-12314127D02*
X7212658Y-12285555D01*
X7212658Y-12285555D02*
X7203134Y-12266508D01*
X7203134Y-12266508D02*
X7184087Y-12237936D01*
X7184087Y-12237936D02*
X7174563Y-12228412D01*
D12*
X2359500Y-12589500D02*
X2359500Y-12669500D01*
X2319500Y-12629500D02*
X2399500Y-12629500D01*
D11*
X2698372Y-12520984D02*
X2717420Y-12520984D01*
X2717420Y-12520984D02*
X2736467Y-12530508D01*
X2736467Y-12530508D02*
X2745991Y-12540031D01*
X2745991Y-12540031D02*
X2755515Y-12559079D01*
X2755515Y-12559079D02*
X2765039Y-12597174D01*
X2765039Y-12597174D02*
X2765039Y-12644793D01*
X2765039Y-12644793D02*
X2755515Y-12682888D01*
X2755515Y-12682888D02*
X2745991Y-12701936D01*
X2745991Y-12701936D02*
X2736467Y-12711460D01*
X2736467Y-12711460D02*
X2717420Y-12720984D01*
X2717420Y-12720984D02*
X2698372Y-12720984D01*
X2698372Y-12720984D02*
X2679324Y-12711460D01*
X2679324Y-12711460D02*
X2669801Y-12701936D01*
X2669801Y-12701936D02*
X2660277Y-12682888D01*
X2660277Y-12682888D02*
X2650753Y-12644793D01*
X2650753Y-12644793D02*
X2650753Y-12597174D01*
X2650753Y-12597174D02*
X2660277Y-12559079D01*
X2660277Y-12559079D02*
X2669801Y-12540031D01*
X2669801Y-12540031D02*
X2679324Y-12530508D01*
X2679324Y-12530508D02*
X2698372Y-12520984D01*
X2850753Y-12701936D02*
X2860277Y-12711460D01*
X2860277Y-12711460D02*
X2850753Y-12720984D01*
X2850753Y-12720984D02*
X2841229Y-12711460D01*
X2841229Y-12711460D02*
X2850753Y-12701936D01*
X2850753Y-12701936D02*
X2850753Y-12720984D01*
X2974562Y-12606698D02*
X2955515Y-12597174D01*
X2955515Y-12597174D02*
X2945991Y-12587650D01*
X2945991Y-12587650D02*
X2936467Y-12568603D01*
X2936467Y-12568603D02*
X2936467Y-12559079D01*
X2936467Y-12559079D02*
X2945991Y-12540031D01*
X2945991Y-12540031D02*
X2955515Y-12530508D01*
X2955515Y-12530508D02*
X2974562Y-12520984D01*
X2974562Y-12520984D02*
X3012658Y-12520984D01*
X3012658Y-12520984D02*
X3031705Y-12530508D01*
X3031705Y-12530508D02*
X3041229Y-12540031D01*
X3041229Y-12540031D02*
X3050753Y-12559079D01*
X3050753Y-12559079D02*
X3050753Y-12568603D01*
X3050753Y-12568603D02*
X3041229Y-12587650D01*
X3041229Y-12587650D02*
X3031705Y-12597174D01*
X3031705Y-12597174D02*
X3012658Y-12606698D01*
X3012658Y-12606698D02*
X2974562Y-12606698D01*
X2974562Y-12606698D02*
X2955515Y-12616222D01*
X2955515Y-12616222D02*
X2945991Y-12625746D01*
X2945991Y-12625746D02*
X2936467Y-12644793D01*
X2936467Y-12644793D02*
X2936467Y-12682888D01*
X2936467Y-12682888D02*
X2945991Y-12701936D01*
X2945991Y-12701936D02*
X2955515Y-12711460D01*
X2955515Y-12711460D02*
X2974562Y-12720984D01*
X2974562Y-12720984D02*
X3012658Y-12720984D01*
X3012658Y-12720984D02*
X3031705Y-12711460D01*
X3031705Y-12711460D02*
X3041229Y-12701936D01*
X3041229Y-12701936D02*
X3050753Y-12682888D01*
X3050753Y-12682888D02*
X3050753Y-12644793D01*
X3050753Y-12644793D02*
X3041229Y-12625746D01*
X3041229Y-12625746D02*
X3031705Y-12616222D01*
X3031705Y-12616222D02*
X3012658Y-12606698D01*
X3174562Y-12520984D02*
X3193610Y-12520984D01*
X3193610Y-12520984D02*
X3212658Y-12530508D01*
X3212658Y-12530508D02*
X3222182Y-12540031D01*
X3222182Y-12540031D02*
X3231705Y-12559079D01*
X3231705Y-12559079D02*
X3241229Y-12597174D01*
X3241229Y-12597174D02*
X3241229Y-12644793D01*
X3241229Y-12644793D02*
X3231705Y-12682888D01*
X3231705Y-12682888D02*
X3222182Y-12701936D01*
X3222182Y-12701936D02*
X3212658Y-12711460D01*
X3212658Y-12711460D02*
X3193610Y-12720984D01*
X3193610Y-12720984D02*
X3174562Y-12720984D01*
X3174562Y-12720984D02*
X3155515Y-12711460D01*
X3155515Y-12711460D02*
X3145991Y-12701936D01*
X3145991Y-12701936D02*
X3136467Y-12682888D01*
X3136467Y-12682888D02*
X3126943Y-12644793D01*
X3126943Y-12644793D02*
X3126943Y-12597174D01*
X3126943Y-12597174D02*
X3136467Y-12559079D01*
X3136467Y-12559079D02*
X3145991Y-12540031D01*
X3145991Y-12540031D02*
X3155515Y-12530508D01*
X3155515Y-12530508D02*
X3174562Y-12520984D01*
X3365039Y-12520984D02*
X3384086Y-12520984D01*
X3384086Y-12520984D02*
X3403134Y-12530508D01*
X3403134Y-12530508D02*
X3412658Y-12540031D01*
X3412658Y-12540031D02*
X3422182Y-12559079D01*
X3422182Y-12559079D02*
X3431705Y-12597174D01*
X3431705Y-12597174D02*
X3431705Y-12644793D01*
X3431705Y-12644793D02*
X3422182Y-12682888D01*
X3422182Y-12682888D02*
X3412658Y-12701936D01*
X3412658Y-12701936D02*
X3403134Y-12711460D01*
X3403134Y-12711460D02*
X3384086Y-12720984D01*
X3384086Y-12720984D02*
X3365039Y-12720984D01*
X3365039Y-12720984D02*
X3345991Y-12711460D01*
X3345991Y-12711460D02*
X3336467Y-12701936D01*
X3336467Y-12701936D02*
X3326943Y-12682888D01*
X3326943Y-12682888D02*
X3317420Y-12644793D01*
X3317420Y-12644793D02*
X3317420Y-12597174D01*
X3317420Y-12597174D02*
X3326943Y-12559079D01*
X3326943Y-12559079D02*
X3336467Y-12540031D01*
X3336467Y-12540031D02*
X3345991Y-12530508D01*
X3345991Y-12530508D02*
X3365039Y-12520984D01*
X3517420Y-12720984D02*
X3517420Y-12587650D01*
X3517420Y-12606698D02*
X3526943Y-12597174D01*
X3526943Y-12597174D02*
X3545991Y-12587650D01*
X3545991Y-12587650D02*
X3574563Y-12587650D01*
X3574563Y-12587650D02*
X3593610Y-12597174D01*
X3593610Y-12597174D02*
X3603134Y-12616222D01*
X3603134Y-12616222D02*
X3603134Y-12720984D01*
X3603134Y-12616222D02*
X3612658Y-12597174D01*
X3612658Y-12597174D02*
X3631705Y-12587650D01*
X3631705Y-12587650D02*
X3660277Y-12587650D01*
X3660277Y-12587650D02*
X3679324Y-12597174D01*
X3679324Y-12597174D02*
X3688848Y-12616222D01*
X3688848Y-12616222D02*
X3688848Y-12720984D01*
X3784086Y-12720984D02*
X3784086Y-12587650D01*
X3784086Y-12606698D02*
X3793610Y-12597174D01*
X3793610Y-12597174D02*
X3812658Y-12587650D01*
X3812658Y-12587650D02*
X3841229Y-12587650D01*
X3841229Y-12587650D02*
X3860277Y-12597174D01*
X3860277Y-12597174D02*
X3869801Y-12616222D01*
X3869801Y-12616222D02*
X3869801Y-12720984D01*
X3869801Y-12616222D02*
X3879324Y-12597174D01*
X3879324Y-12597174D02*
X3898372Y-12587650D01*
X3898372Y-12587650D02*
X3926943Y-12587650D01*
X3926943Y-12587650D02*
X3945991Y-12597174D01*
X3945991Y-12597174D02*
X3955515Y-12616222D01*
X3955515Y-12616222D02*
X3955515Y-12720984D01*
X4345991Y-12511460D02*
X4174563Y-12768603D01*
X4603134Y-12520984D02*
X4622182Y-12520984D01*
X4622182Y-12520984D02*
X4641229Y-12530508D01*
X4641229Y-12530508D02*
X4650753Y-12540031D01*
X4650753Y-12540031D02*
X4660277Y-12559079D01*
X4660277Y-12559079D02*
X4669801Y-12597174D01*
X4669801Y-12597174D02*
X4669801Y-12644793D01*
X4669801Y-12644793D02*
X4660277Y-12682888D01*
X4660277Y-12682888D02*
X4650753Y-12701936D01*
X4650753Y-12701936D02*
X4641229Y-12711460D01*
X4641229Y-12711460D02*
X4622182Y-12720984D01*
X4622182Y-12720984D02*
X4603134Y-12720984D01*
X4603134Y-12720984D02*
X4584087Y-12711460D01*
X4584087Y-12711460D02*
X4574563Y-12701936D01*
X4574563Y-12701936D02*
X4565039Y-12682888D01*
X4565039Y-12682888D02*
X4555515Y-12644793D01*
X4555515Y-12644793D02*
X4555515Y-12597174D01*
X4555515Y-12597174D02*
X4565039Y-12559079D01*
X4565039Y-12559079D02*
X4574563Y-12540031D01*
X4574563Y-12540031D02*
X4584087Y-12530508D01*
X4584087Y-12530508D02*
X4603134Y-12520984D01*
X4755515Y-12701936D02*
X4765039Y-12711460D01*
X4765039Y-12711460D02*
X4755515Y-12720984D01*
X4755515Y-12720984D02*
X4745991Y-12711460D01*
X4745991Y-12711460D02*
X4755515Y-12701936D01*
X4755515Y-12701936D02*
X4755515Y-12720984D01*
X4888848Y-12520984D02*
X4907896Y-12520984D01*
X4907896Y-12520984D02*
X4926944Y-12530508D01*
X4926944Y-12530508D02*
X4936468Y-12540031D01*
X4936468Y-12540031D02*
X4945991Y-12559079D01*
X4945991Y-12559079D02*
X4955515Y-12597174D01*
X4955515Y-12597174D02*
X4955515Y-12644793D01*
X4955515Y-12644793D02*
X4945991Y-12682888D01*
X4945991Y-12682888D02*
X4936468Y-12701936D01*
X4936468Y-12701936D02*
X4926944Y-12711460D01*
X4926944Y-12711460D02*
X4907896Y-12720984D01*
X4907896Y-12720984D02*
X4888848Y-12720984D01*
X4888848Y-12720984D02*
X4869801Y-12711460D01*
X4869801Y-12711460D02*
X4860277Y-12701936D01*
X4860277Y-12701936D02*
X4850753Y-12682888D01*
X4850753Y-12682888D02*
X4841229Y-12644793D01*
X4841229Y-12644793D02*
X4841229Y-12597174D01*
X4841229Y-12597174D02*
X4850753Y-12559079D01*
X4850753Y-12559079D02*
X4860277Y-12540031D01*
X4860277Y-12540031D02*
X4869801Y-12530508D01*
X4869801Y-12530508D02*
X4888848Y-12520984D01*
X5022182Y-12520984D02*
X5145991Y-12520984D01*
X5145991Y-12520984D02*
X5079325Y-12597174D01*
X5079325Y-12597174D02*
X5107896Y-12597174D01*
X5107896Y-12597174D02*
X5126944Y-12606698D01*
X5126944Y-12606698D02*
X5136468Y-12616222D01*
X5136468Y-12616222D02*
X5145991Y-12635269D01*
X5145991Y-12635269D02*
X5145991Y-12682888D01*
X5145991Y-12682888D02*
X5136468Y-12701936D01*
X5136468Y-12701936D02*
X5126944Y-12711460D01*
X5126944Y-12711460D02*
X5107896Y-12720984D01*
X5107896Y-12720984D02*
X5050753Y-12720984D01*
X5050753Y-12720984D02*
X5031706Y-12711460D01*
X5031706Y-12711460D02*
X5022182Y-12701936D01*
X5336468Y-12720984D02*
X5222182Y-12720984D01*
X5279325Y-12720984D02*
X5279325Y-12520984D01*
X5279325Y-12520984D02*
X5260277Y-12549555D01*
X5260277Y-12549555D02*
X5241229Y-12568603D01*
X5241229Y-12568603D02*
X5222182Y-12578127D01*
X5517420Y-12520984D02*
X5422182Y-12520984D01*
X5422182Y-12520984D02*
X5412658Y-12616222D01*
X5412658Y-12616222D02*
X5422182Y-12606698D01*
X5422182Y-12606698D02*
X5441229Y-12597174D01*
X5441229Y-12597174D02*
X5488849Y-12597174D01*
X5488849Y-12597174D02*
X5507896Y-12606698D01*
X5507896Y-12606698D02*
X5517420Y-12616222D01*
X5517420Y-12616222D02*
X5526944Y-12635269D01*
X5526944Y-12635269D02*
X5526944Y-12682888D01*
X5526944Y-12682888D02*
X5517420Y-12701936D01*
X5517420Y-12701936D02*
X5507896Y-12711460D01*
X5507896Y-12711460D02*
X5488849Y-12720984D01*
X5488849Y-12720984D02*
X5441229Y-12720984D01*
X5441229Y-12720984D02*
X5422182Y-12711460D01*
X5422182Y-12711460D02*
X5412658Y-12701936D01*
X5603134Y-12520984D02*
X5603134Y-12559079D01*
X5679325Y-12520984D02*
X5679325Y-12559079D01*
X5974563Y-12797174D02*
X5965039Y-12787650D01*
X5965039Y-12787650D02*
X5945991Y-12759079D01*
X5945991Y-12759079D02*
X5936468Y-12740031D01*
X5936468Y-12740031D02*
X5926944Y-12711460D01*
X5926944Y-12711460D02*
X5917420Y-12663841D01*
X5917420Y-12663841D02*
X5917420Y-12625746D01*
X5917420Y-12625746D02*
X5926944Y-12578127D01*
X5926944Y-12578127D02*
X5936468Y-12549555D01*
X5936468Y-12549555D02*
X5945991Y-12530508D01*
X5945991Y-12530508D02*
X5965039Y-12501936D01*
X5965039Y-12501936D02*
X5974563Y-12492412D01*
X6155515Y-12720984D02*
X6041229Y-12720984D01*
X6098372Y-12720984D02*
X6098372Y-12520984D01*
X6098372Y-12520984D02*
X6079325Y-12549555D01*
X6079325Y-12549555D02*
X6060277Y-12568603D01*
X6060277Y-12568603D02*
X6041229Y-12578127D01*
X6269801Y-12606698D02*
X6250753Y-12597174D01*
X6250753Y-12597174D02*
X6241229Y-12587650D01*
X6241229Y-12587650D02*
X6231706Y-12568603D01*
X6231706Y-12568603D02*
X6231706Y-12559079D01*
X6231706Y-12559079D02*
X6241229Y-12540031D01*
X6241229Y-12540031D02*
X6250753Y-12530508D01*
X6250753Y-12530508D02*
X6269801Y-12520984D01*
X6269801Y-12520984D02*
X6307896Y-12520984D01*
X6307896Y-12520984D02*
X6326944Y-12530508D01*
X6326944Y-12530508D02*
X6336468Y-12540031D01*
X6336468Y-12540031D02*
X6345991Y-12559079D01*
X6345991Y-12559079D02*
X6345991Y-12568603D01*
X6345991Y-12568603D02*
X6336468Y-12587650D01*
X6336468Y-12587650D02*
X6326944Y-12597174D01*
X6326944Y-12597174D02*
X6307896Y-12606698D01*
X6307896Y-12606698D02*
X6269801Y-12606698D01*
X6269801Y-12606698D02*
X6250753Y-12616222D01*
X6250753Y-12616222D02*
X6241229Y-12625746D01*
X6241229Y-12625746D02*
X6231706Y-12644793D01*
X6231706Y-12644793D02*
X6231706Y-12682888D01*
X6231706Y-12682888D02*
X6241229Y-12701936D01*
X6241229Y-12701936D02*
X6250753Y-12711460D01*
X6250753Y-12711460D02*
X6269801Y-12720984D01*
X6269801Y-12720984D02*
X6307896Y-12720984D01*
X6307896Y-12720984D02*
X6326944Y-12711460D01*
X6326944Y-12711460D02*
X6336468Y-12701936D01*
X6336468Y-12701936D02*
X6345991Y-12682888D01*
X6345991Y-12682888D02*
X6345991Y-12644793D01*
X6345991Y-12644793D02*
X6336468Y-12625746D01*
X6336468Y-12625746D02*
X6326944Y-12616222D01*
X6326944Y-12616222D02*
X6307896Y-12606698D01*
X6422182Y-12540031D02*
X6431706Y-12530508D01*
X6431706Y-12530508D02*
X6450753Y-12520984D01*
X6450753Y-12520984D02*
X6498372Y-12520984D01*
X6498372Y-12520984D02*
X6517420Y-12530508D01*
X6517420Y-12530508D02*
X6526944Y-12540031D01*
X6526944Y-12540031D02*
X6536468Y-12559079D01*
X6536468Y-12559079D02*
X6536468Y-12578127D01*
X6536468Y-12578127D02*
X6526944Y-12606698D01*
X6526944Y-12606698D02*
X6412658Y-12720984D01*
X6412658Y-12720984D02*
X6536468Y-12720984D01*
X6774563Y-12720984D02*
X6774563Y-12520984D01*
X6860277Y-12720984D02*
X6860277Y-12616222D01*
X6860277Y-12616222D02*
X6850753Y-12597174D01*
X6850753Y-12597174D02*
X6831706Y-12587650D01*
X6831706Y-12587650D02*
X6803134Y-12587650D01*
X6803134Y-12587650D02*
X6784087Y-12597174D01*
X6784087Y-12597174D02*
X6774563Y-12606698D01*
X6984087Y-12720984D02*
X6965039Y-12711460D01*
X6965039Y-12711460D02*
X6955515Y-12701936D01*
X6955515Y-12701936D02*
X6945991Y-12682888D01*
X6945991Y-12682888D02*
X6945991Y-12625746D01*
X6945991Y-12625746D02*
X6955515Y-12606698D01*
X6955515Y-12606698D02*
X6965039Y-12597174D01*
X6965039Y-12597174D02*
X6984087Y-12587650D01*
X6984087Y-12587650D02*
X7012658Y-12587650D01*
X7012658Y-12587650D02*
X7031706Y-12597174D01*
X7031706Y-12597174D02*
X7041230Y-12606698D01*
X7041230Y-12606698D02*
X7050753Y-12625746D01*
X7050753Y-12625746D02*
X7050753Y-12682888D01*
X7050753Y-12682888D02*
X7041230Y-12701936D01*
X7041230Y-12701936D02*
X7031706Y-12711460D01*
X7031706Y-12711460D02*
X7012658Y-12720984D01*
X7012658Y-12720984D02*
X6984087Y-12720984D01*
X7165039Y-12720984D02*
X7145991Y-12711460D01*
X7145991Y-12711460D02*
X7136468Y-12692412D01*
X7136468Y-12692412D02*
X7136468Y-12520984D01*
X7317420Y-12711460D02*
X7298372Y-12720984D01*
X7298372Y-12720984D02*
X7260277Y-12720984D01*
X7260277Y-12720984D02*
X7241230Y-12711460D01*
X7241230Y-12711460D02*
X7231706Y-12692412D01*
X7231706Y-12692412D02*
X7231706Y-12616222D01*
X7231706Y-12616222D02*
X7241230Y-12597174D01*
X7241230Y-12597174D02*
X7260277Y-12587650D01*
X7260277Y-12587650D02*
X7298372Y-12587650D01*
X7298372Y-12587650D02*
X7317420Y-12597174D01*
X7317420Y-12597174D02*
X7326944Y-12616222D01*
X7326944Y-12616222D02*
X7326944Y-12635269D01*
X7326944Y-12635269D02*
X7231706Y-12654317D01*
X7403134Y-12711460D02*
X7422182Y-12720984D01*
X7422182Y-12720984D02*
X7460277Y-12720984D01*
X7460277Y-12720984D02*
X7479325Y-12711460D01*
X7479325Y-12711460D02*
X7488849Y-12692412D01*
X7488849Y-12692412D02*
X7488849Y-12682888D01*
X7488849Y-12682888D02*
X7479325Y-12663841D01*
X7479325Y-12663841D02*
X7460277Y-12654317D01*
X7460277Y-12654317D02*
X7431706Y-12654317D01*
X7431706Y-12654317D02*
X7412658Y-12644793D01*
X7412658Y-12644793D02*
X7403134Y-12625746D01*
X7403134Y-12625746D02*
X7403134Y-12616222D01*
X7403134Y-12616222D02*
X7412658Y-12597174D01*
X7412658Y-12597174D02*
X7431706Y-12587650D01*
X7431706Y-12587650D02*
X7460277Y-12587650D01*
X7460277Y-12587650D02*
X7479325Y-12597174D01*
X7555515Y-12797174D02*
X7565039Y-12787650D01*
X7565039Y-12787650D02*
X7584087Y-12759079D01*
X7584087Y-12759079D02*
X7593611Y-12740031D01*
X7593611Y-12740031D02*
X7603134Y-12711460D01*
X7603134Y-12711460D02*
X7612658Y-12663841D01*
X7612658Y-12663841D02*
X7612658Y-12625746D01*
X7612658Y-12625746D02*
X7603134Y-12578127D01*
X7603134Y-12578127D02*
X7593611Y-12549555D01*
X7593611Y-12549555D02*
X7584087Y-12530508D01*
X7584087Y-12530508D02*
X7565039Y-12501936D01*
X7565039Y-12501936D02*
X7555515Y-12492412D01*
D12*
X2386320Y-12925320D02*
X2386320Y-12861680D01*
X2322680Y-12861680D01*
X2322680Y-12925320D01*
X2386320Y-12925320D01*
D11*
X2698372Y-12784984D02*
X2717420Y-12784984D01*
X2717420Y-12784984D02*
X2736467Y-12794508D01*
X2736467Y-12794508D02*
X2745991Y-12804031D01*
X2745991Y-12804031D02*
X2755515Y-12823079D01*
X2755515Y-12823079D02*
X2765039Y-12861174D01*
X2765039Y-12861174D02*
X2765039Y-12908793D01*
X2765039Y-12908793D02*
X2755515Y-12946888D01*
X2755515Y-12946888D02*
X2745991Y-12965936D01*
X2745991Y-12965936D02*
X2736467Y-12975460D01*
X2736467Y-12975460D02*
X2717420Y-12984984D01*
X2717420Y-12984984D02*
X2698372Y-12984984D01*
X2698372Y-12984984D02*
X2679324Y-12975460D01*
X2679324Y-12975460D02*
X2669801Y-12965936D01*
X2669801Y-12965936D02*
X2660277Y-12946888D01*
X2660277Y-12946888D02*
X2650753Y-12908793D01*
X2650753Y-12908793D02*
X2650753Y-12861174D01*
X2650753Y-12861174D02*
X2660277Y-12823079D01*
X2660277Y-12823079D02*
X2669801Y-12804031D01*
X2669801Y-12804031D02*
X2679324Y-12794508D01*
X2679324Y-12794508D02*
X2698372Y-12784984D01*
X2850753Y-12965936D02*
X2860277Y-12975460D01*
X2860277Y-12975460D02*
X2850753Y-12984984D01*
X2850753Y-12984984D02*
X2841229Y-12975460D01*
X2841229Y-12975460D02*
X2850753Y-12965936D01*
X2850753Y-12965936D02*
X2850753Y-12984984D01*
X2955515Y-12984984D02*
X2993610Y-12984984D01*
X2993610Y-12984984D02*
X3012658Y-12975460D01*
X3012658Y-12975460D02*
X3022182Y-12965936D01*
X3022182Y-12965936D02*
X3041229Y-12937365D01*
X3041229Y-12937365D02*
X3050753Y-12899269D01*
X3050753Y-12899269D02*
X3050753Y-12823079D01*
X3050753Y-12823079D02*
X3041229Y-12804031D01*
X3041229Y-12804031D02*
X3031705Y-12794508D01*
X3031705Y-12794508D02*
X3012658Y-12784984D01*
X3012658Y-12784984D02*
X2974562Y-12784984D01*
X2974562Y-12784984D02*
X2955515Y-12794508D01*
X2955515Y-12794508D02*
X2945991Y-12804031D01*
X2945991Y-12804031D02*
X2936467Y-12823079D01*
X2936467Y-12823079D02*
X2936467Y-12870698D01*
X2936467Y-12870698D02*
X2945991Y-12889746D01*
X2945991Y-12889746D02*
X2955515Y-12899269D01*
X2955515Y-12899269D02*
X2974562Y-12908793D01*
X2974562Y-12908793D02*
X3012658Y-12908793D01*
X3012658Y-12908793D02*
X3031705Y-12899269D01*
X3031705Y-12899269D02*
X3041229Y-12889746D01*
X3041229Y-12889746D02*
X3050753Y-12870698D01*
X3174562Y-12784984D02*
X3193610Y-12784984D01*
X3193610Y-12784984D02*
X3212658Y-12794508D01*
X3212658Y-12794508D02*
X3222182Y-12804031D01*
X3222182Y-12804031D02*
X3231705Y-12823079D01*
X3231705Y-12823079D02*
X3241229Y-12861174D01*
X3241229Y-12861174D02*
X3241229Y-12908793D01*
X3241229Y-12908793D02*
X3231705Y-12946888D01*
X3231705Y-12946888D02*
X3222182Y-12965936D01*
X3222182Y-12965936D02*
X3212658Y-12975460D01*
X3212658Y-12975460D02*
X3193610Y-12984984D01*
X3193610Y-12984984D02*
X3174562Y-12984984D01*
X3174562Y-12984984D02*
X3155515Y-12975460D01*
X3155515Y-12975460D02*
X3145991Y-12965936D01*
X3145991Y-12965936D02*
X3136467Y-12946888D01*
X3136467Y-12946888D02*
X3126943Y-12908793D01*
X3126943Y-12908793D02*
X3126943Y-12861174D01*
X3126943Y-12861174D02*
X3136467Y-12823079D01*
X3136467Y-12823079D02*
X3145991Y-12804031D01*
X3145991Y-12804031D02*
X3155515Y-12794508D01*
X3155515Y-12794508D02*
X3174562Y-12784984D01*
X3365039Y-12784984D02*
X3384086Y-12784984D01*
X3384086Y-12784984D02*
X3403134Y-12794508D01*
X3403134Y-12794508D02*
X3412658Y-12804031D01*
X3412658Y-12804031D02*
X3422182Y-12823079D01*
X3422182Y-12823079D02*
X3431705Y-12861174D01*
X3431705Y-12861174D02*
X3431705Y-12908793D01*
X3431705Y-12908793D02*
X3422182Y-12946888D01*
X3422182Y-12946888D02*
X3412658Y-12965936D01*
X3412658Y-12965936D02*
X3403134Y-12975460D01*
X3403134Y-12975460D02*
X3384086Y-12984984D01*
X3384086Y-12984984D02*
X3365039Y-12984984D01*
X3365039Y-12984984D02*
X3345991Y-12975460D01*
X3345991Y-12975460D02*
X3336467Y-12965936D01*
X3336467Y-12965936D02*
X3326943Y-12946888D01*
X3326943Y-12946888D02*
X3317420Y-12908793D01*
X3317420Y-12908793D02*
X3317420Y-12861174D01*
X3317420Y-12861174D02*
X3326943Y-12823079D01*
X3326943Y-12823079D02*
X3336467Y-12804031D01*
X3336467Y-12804031D02*
X3345991Y-12794508D01*
X3345991Y-12794508D02*
X3365039Y-12784984D01*
X3517420Y-12984984D02*
X3517420Y-12851650D01*
X3517420Y-12870698D02*
X3526943Y-12861174D01*
X3526943Y-12861174D02*
X3545991Y-12851650D01*
X3545991Y-12851650D02*
X3574563Y-12851650D01*
X3574563Y-12851650D02*
X3593610Y-12861174D01*
X3593610Y-12861174D02*
X3603134Y-12880222D01*
X3603134Y-12880222D02*
X3603134Y-12984984D01*
X3603134Y-12880222D02*
X3612658Y-12861174D01*
X3612658Y-12861174D02*
X3631705Y-12851650D01*
X3631705Y-12851650D02*
X3660277Y-12851650D01*
X3660277Y-12851650D02*
X3679324Y-12861174D01*
X3679324Y-12861174D02*
X3688848Y-12880222D01*
X3688848Y-12880222D02*
X3688848Y-12984984D01*
X3784086Y-12984984D02*
X3784086Y-12851650D01*
X3784086Y-12870698D02*
X3793610Y-12861174D01*
X3793610Y-12861174D02*
X3812658Y-12851650D01*
X3812658Y-12851650D02*
X3841229Y-12851650D01*
X3841229Y-12851650D02*
X3860277Y-12861174D01*
X3860277Y-12861174D02*
X3869801Y-12880222D01*
X3869801Y-12880222D02*
X3869801Y-12984984D01*
X3869801Y-12880222D02*
X3879324Y-12861174D01*
X3879324Y-12861174D02*
X3898372Y-12851650D01*
X3898372Y-12851650D02*
X3926943Y-12851650D01*
X3926943Y-12851650D02*
X3945991Y-12861174D01*
X3945991Y-12861174D02*
X3955515Y-12880222D01*
X3955515Y-12880222D02*
X3955515Y-12984984D01*
X4345991Y-12775460D02*
X4174563Y-13032603D01*
X4603134Y-12784984D02*
X4622182Y-12784984D01*
X4622182Y-12784984D02*
X4641229Y-12794508D01*
X4641229Y-12794508D02*
X4650753Y-12804031D01*
X4650753Y-12804031D02*
X4660277Y-12823079D01*
X4660277Y-12823079D02*
X4669801Y-12861174D01*
X4669801Y-12861174D02*
X4669801Y-12908793D01*
X4669801Y-12908793D02*
X4660277Y-12946888D01*
X4660277Y-12946888D02*
X4650753Y-12965936D01*
X4650753Y-12965936D02*
X4641229Y-12975460D01*
X4641229Y-12975460D02*
X4622182Y-12984984D01*
X4622182Y-12984984D02*
X4603134Y-12984984D01*
X4603134Y-12984984D02*
X4584087Y-12975460D01*
X4584087Y-12975460D02*
X4574563Y-12965936D01*
X4574563Y-12965936D02*
X4565039Y-12946888D01*
X4565039Y-12946888D02*
X4555515Y-12908793D01*
X4555515Y-12908793D02*
X4555515Y-12861174D01*
X4555515Y-12861174D02*
X4565039Y-12823079D01*
X4565039Y-12823079D02*
X4574563Y-12804031D01*
X4574563Y-12804031D02*
X4584087Y-12794508D01*
X4584087Y-12794508D02*
X4603134Y-12784984D01*
X4755515Y-12965936D02*
X4765039Y-12975460D01*
X4765039Y-12975460D02*
X4755515Y-12984984D01*
X4755515Y-12984984D02*
X4745991Y-12975460D01*
X4745991Y-12975460D02*
X4755515Y-12965936D01*
X4755515Y-12965936D02*
X4755515Y-12984984D01*
X4888848Y-12784984D02*
X4907896Y-12784984D01*
X4907896Y-12784984D02*
X4926944Y-12794508D01*
X4926944Y-12794508D02*
X4936468Y-12804031D01*
X4936468Y-12804031D02*
X4945991Y-12823079D01*
X4945991Y-12823079D02*
X4955515Y-12861174D01*
X4955515Y-12861174D02*
X4955515Y-12908793D01*
X4955515Y-12908793D02*
X4945991Y-12946888D01*
X4945991Y-12946888D02*
X4936468Y-12965936D01*
X4936468Y-12965936D02*
X4926944Y-12975460D01*
X4926944Y-12975460D02*
X4907896Y-12984984D01*
X4907896Y-12984984D02*
X4888848Y-12984984D01*
X4888848Y-12984984D02*
X4869801Y-12975460D01*
X4869801Y-12975460D02*
X4860277Y-12965936D01*
X4860277Y-12965936D02*
X4850753Y-12946888D01*
X4850753Y-12946888D02*
X4841229Y-12908793D01*
X4841229Y-12908793D02*
X4841229Y-12861174D01*
X4841229Y-12861174D02*
X4850753Y-12823079D01*
X4850753Y-12823079D02*
X4860277Y-12804031D01*
X4860277Y-12804031D02*
X4869801Y-12794508D01*
X4869801Y-12794508D02*
X4888848Y-12784984D01*
X5022182Y-12784984D02*
X5145991Y-12784984D01*
X5145991Y-12784984D02*
X5079325Y-12861174D01*
X5079325Y-12861174D02*
X5107896Y-12861174D01*
X5107896Y-12861174D02*
X5126944Y-12870698D01*
X5126944Y-12870698D02*
X5136468Y-12880222D01*
X5136468Y-12880222D02*
X5145991Y-12899269D01*
X5145991Y-12899269D02*
X5145991Y-12946888D01*
X5145991Y-12946888D02*
X5136468Y-12965936D01*
X5136468Y-12965936D02*
X5126944Y-12975460D01*
X5126944Y-12975460D02*
X5107896Y-12984984D01*
X5107896Y-12984984D02*
X5050753Y-12984984D01*
X5050753Y-12984984D02*
X5031706Y-12975460D01*
X5031706Y-12975460D02*
X5022182Y-12965936D01*
X5326944Y-12784984D02*
X5231706Y-12784984D01*
X5231706Y-12784984D02*
X5222182Y-12880222D01*
X5222182Y-12880222D02*
X5231706Y-12870698D01*
X5231706Y-12870698D02*
X5250753Y-12861174D01*
X5250753Y-12861174D02*
X5298372Y-12861174D01*
X5298372Y-12861174D02*
X5317420Y-12870698D01*
X5317420Y-12870698D02*
X5326944Y-12880222D01*
X5326944Y-12880222D02*
X5336468Y-12899269D01*
X5336468Y-12899269D02*
X5336468Y-12946888D01*
X5336468Y-12946888D02*
X5326944Y-12965936D01*
X5326944Y-12965936D02*
X5317420Y-12975460D01*
X5317420Y-12975460D02*
X5298372Y-12984984D01*
X5298372Y-12984984D02*
X5250753Y-12984984D01*
X5250753Y-12984984D02*
X5231706Y-12975460D01*
X5231706Y-12975460D02*
X5222182Y-12965936D01*
X5507896Y-12851650D02*
X5507896Y-12984984D01*
X5460277Y-12775460D02*
X5412658Y-12918317D01*
X5412658Y-12918317D02*
X5536468Y-12918317D01*
X5603134Y-12784984D02*
X5603134Y-12823079D01*
X5679325Y-12784984D02*
X5679325Y-12823079D01*
X5974563Y-13061174D02*
X5965039Y-13051650D01*
X5965039Y-13051650D02*
X5945991Y-13023079D01*
X5945991Y-13023079D02*
X5936468Y-13004031D01*
X5936468Y-13004031D02*
X5926944Y-12975460D01*
X5926944Y-12975460D02*
X5917420Y-12927841D01*
X5917420Y-12927841D02*
X5917420Y-12889746D01*
X5917420Y-12889746D02*
X5926944Y-12842127D01*
X5926944Y-12842127D02*
X5936468Y-12813555D01*
X5936468Y-12813555D02*
X5945991Y-12794508D01*
X5945991Y-12794508D02*
X5965039Y-12765936D01*
X5965039Y-12765936D02*
X5974563Y-12756412D01*
X6041229Y-12804031D02*
X6050753Y-12794508D01*
X6050753Y-12794508D02*
X6069801Y-12784984D01*
X6069801Y-12784984D02*
X6117420Y-12784984D01*
X6117420Y-12784984D02*
X6136468Y-12794508D01*
X6136468Y-12794508D02*
X6145991Y-12804031D01*
X6145991Y-12804031D02*
X6155515Y-12823079D01*
X6155515Y-12823079D02*
X6155515Y-12842127D01*
X6155515Y-12842127D02*
X6145991Y-12870698D01*
X6145991Y-12870698D02*
X6031706Y-12984984D01*
X6031706Y-12984984D02*
X6155515Y-12984984D01*
X6393610Y-12984984D02*
X6393610Y-12784984D01*
X6479325Y-12984984D02*
X6479325Y-12880222D01*
X6479325Y-12880222D02*
X6469801Y-12861174D01*
X6469801Y-12861174D02*
X6450753Y-12851650D01*
X6450753Y-12851650D02*
X6422182Y-12851650D01*
X6422182Y-12851650D02*
X6403134Y-12861174D01*
X6403134Y-12861174D02*
X6393610Y-12870698D01*
X6603134Y-12984984D02*
X6584087Y-12975460D01*
X6584087Y-12975460D02*
X6574563Y-12965936D01*
X6574563Y-12965936D02*
X6565039Y-12946888D01*
X6565039Y-12946888D02*
X6565039Y-12889746D01*
X6565039Y-12889746D02*
X6574563Y-12870698D01*
X6574563Y-12870698D02*
X6584087Y-12861174D01*
X6584087Y-12861174D02*
X6603134Y-12851650D01*
X6603134Y-12851650D02*
X6631706Y-12851650D01*
X6631706Y-12851650D02*
X6650753Y-12861174D01*
X6650753Y-12861174D02*
X6660277Y-12870698D01*
X6660277Y-12870698D02*
X6669801Y-12889746D01*
X6669801Y-12889746D02*
X6669801Y-12946888D01*
X6669801Y-12946888D02*
X6660277Y-12965936D01*
X6660277Y-12965936D02*
X6650753Y-12975460D01*
X6650753Y-12975460D02*
X6631706Y-12984984D01*
X6631706Y-12984984D02*
X6603134Y-12984984D01*
X6784087Y-12984984D02*
X6765039Y-12975460D01*
X6765039Y-12975460D02*
X6755515Y-12956412D01*
X6755515Y-12956412D02*
X6755515Y-12784984D01*
X6936468Y-12975460D02*
X6917420Y-12984984D01*
X6917420Y-12984984D02*
X6879325Y-12984984D01*
X6879325Y-12984984D02*
X6860277Y-12975460D01*
X6860277Y-12975460D02*
X6850753Y-12956412D01*
X6850753Y-12956412D02*
X6850753Y-12880222D01*
X6850753Y-12880222D02*
X6860277Y-12861174D01*
X6860277Y-12861174D02*
X6879325Y-12851650D01*
X6879325Y-12851650D02*
X6917420Y-12851650D01*
X6917420Y-12851650D02*
X6936468Y-12861174D01*
X6936468Y-12861174D02*
X6945991Y-12880222D01*
X6945991Y-12880222D02*
X6945991Y-12899269D01*
X6945991Y-12899269D02*
X6850753Y-12918317D01*
X7022182Y-12975460D02*
X7041230Y-12984984D01*
X7041230Y-12984984D02*
X7079325Y-12984984D01*
X7079325Y-12984984D02*
X7098372Y-12975460D01*
X7098372Y-12975460D02*
X7107896Y-12956412D01*
X7107896Y-12956412D02*
X7107896Y-12946888D01*
X7107896Y-12946888D02*
X7098372Y-12927841D01*
X7098372Y-12927841D02*
X7079325Y-12918317D01*
X7079325Y-12918317D02*
X7050753Y-12918317D01*
X7050753Y-12918317D02*
X7031706Y-12908793D01*
X7031706Y-12908793D02*
X7022182Y-12889746D01*
X7022182Y-12889746D02*
X7022182Y-12880222D01*
X7022182Y-12880222D02*
X7031706Y-12861174D01*
X7031706Y-12861174D02*
X7050753Y-12851650D01*
X7050753Y-12851650D02*
X7079325Y-12851650D01*
X7079325Y-12851650D02*
X7098372Y-12861174D01*
X7174563Y-13061174D02*
X7184087Y-13051650D01*
X7184087Y-13051650D02*
X7203134Y-13023079D01*
X7203134Y-13023079D02*
X7212658Y-13004031D01*
X7212658Y-13004031D02*
X7222182Y-12975460D01*
X7222182Y-12975460D02*
X7231706Y-12927841D01*
X7231706Y-12927841D02*
X7231706Y-12889746D01*
X7231706Y-12889746D02*
X7222182Y-12842127D01*
X7222182Y-12842127D02*
X7212658Y-12813555D01*
X7212658Y-12813555D02*
X7203134Y-12794508D01*
X7203134Y-12794508D02*
X7184087Y-12765936D01*
X7184087Y-12765936D02*
X7174563Y-12756412D01*
D12*
X2349500Y-13207500D02*
X2399500Y-13157500D01*
X2349500Y-13107500D01*
X2299500Y-13157500D01*
X2349500Y-13207500D01*
D11*
X2765039Y-13248984D02*
X2650753Y-13248984D01*
X2707896Y-13248984D02*
X2707896Y-13048984D01*
X2707896Y-13048984D02*
X2688848Y-13077555D01*
X2688848Y-13077555D02*
X2669801Y-13096603D01*
X2669801Y-13096603D02*
X2650753Y-13106127D01*
X2850753Y-13229936D02*
X2860277Y-13239460D01*
X2860277Y-13239460D02*
X2850753Y-13248984D01*
X2850753Y-13248984D02*
X2841229Y-13239460D01*
X2841229Y-13239460D02*
X2850753Y-13229936D01*
X2850753Y-13229936D02*
X2850753Y-13248984D01*
X2984086Y-13048984D02*
X3003134Y-13048984D01*
X3003134Y-13048984D02*
X3022182Y-13058508D01*
X3022182Y-13058508D02*
X3031705Y-13068031D01*
X3031705Y-13068031D02*
X3041229Y-13087079D01*
X3041229Y-13087079D02*
X3050753Y-13125174D01*
X3050753Y-13125174D02*
X3050753Y-13172793D01*
X3050753Y-13172793D02*
X3041229Y-13210888D01*
X3041229Y-13210888D02*
X3031705Y-13229936D01*
X3031705Y-13229936D02*
X3022182Y-13239460D01*
X3022182Y-13239460D02*
X3003134Y-13248984D01*
X3003134Y-13248984D02*
X2984086Y-13248984D01*
X2984086Y-13248984D02*
X2965039Y-13239460D01*
X2965039Y-13239460D02*
X2955515Y-13229936D01*
X2955515Y-13229936D02*
X2945991Y-13210888D01*
X2945991Y-13210888D02*
X2936467Y-13172793D01*
X2936467Y-13172793D02*
X2936467Y-13125174D01*
X2936467Y-13125174D02*
X2945991Y-13087079D01*
X2945991Y-13087079D02*
X2955515Y-13068031D01*
X2955515Y-13068031D02*
X2965039Y-13058508D01*
X2965039Y-13058508D02*
X2984086Y-13048984D01*
X3174562Y-13048984D02*
X3193610Y-13048984D01*
X3193610Y-13048984D02*
X3212658Y-13058508D01*
X3212658Y-13058508D02*
X3222182Y-13068031D01*
X3222182Y-13068031D02*
X3231705Y-13087079D01*
X3231705Y-13087079D02*
X3241229Y-13125174D01*
X3241229Y-13125174D02*
X3241229Y-13172793D01*
X3241229Y-13172793D02*
X3231705Y-13210888D01*
X3231705Y-13210888D02*
X3222182Y-13229936D01*
X3222182Y-13229936D02*
X3212658Y-13239460D01*
X3212658Y-13239460D02*
X3193610Y-13248984D01*
X3193610Y-13248984D02*
X3174562Y-13248984D01*
X3174562Y-13248984D02*
X3155515Y-13239460D01*
X3155515Y-13239460D02*
X3145991Y-13229936D01*
X3145991Y-13229936D02*
X3136467Y-13210888D01*
X3136467Y-13210888D02*
X3126943Y-13172793D01*
X3126943Y-13172793D02*
X3126943Y-13125174D01*
X3126943Y-13125174D02*
X3136467Y-13087079D01*
X3136467Y-13087079D02*
X3145991Y-13068031D01*
X3145991Y-13068031D02*
X3155515Y-13058508D01*
X3155515Y-13058508D02*
X3174562Y-13048984D01*
X3365039Y-13048984D02*
X3384086Y-13048984D01*
X3384086Y-13048984D02*
X3403134Y-13058508D01*
X3403134Y-13058508D02*
X3412658Y-13068031D01*
X3412658Y-13068031D02*
X3422182Y-13087079D01*
X3422182Y-13087079D02*
X3431705Y-13125174D01*
X3431705Y-13125174D02*
X3431705Y-13172793D01*
X3431705Y-13172793D02*
X3422182Y-13210888D01*
X3422182Y-13210888D02*
X3412658Y-13229936D01*
X3412658Y-13229936D02*
X3403134Y-13239460D01*
X3403134Y-13239460D02*
X3384086Y-13248984D01*
X3384086Y-13248984D02*
X3365039Y-13248984D01*
X3365039Y-13248984D02*
X3345991Y-13239460D01*
X3345991Y-13239460D02*
X3336467Y-13229936D01*
X3336467Y-13229936D02*
X3326943Y-13210888D01*
X3326943Y-13210888D02*
X3317420Y-13172793D01*
X3317420Y-13172793D02*
X3317420Y-13125174D01*
X3317420Y-13125174D02*
X3326943Y-13087079D01*
X3326943Y-13087079D02*
X3336467Y-13068031D01*
X3336467Y-13068031D02*
X3345991Y-13058508D01*
X3345991Y-13058508D02*
X3365039Y-13048984D01*
X3517420Y-13248984D02*
X3517420Y-13115650D01*
X3517420Y-13134698D02*
X3526943Y-13125174D01*
X3526943Y-13125174D02*
X3545991Y-13115650D01*
X3545991Y-13115650D02*
X3574563Y-13115650D01*
X3574563Y-13115650D02*
X3593610Y-13125174D01*
X3593610Y-13125174D02*
X3603134Y-13144222D01*
X3603134Y-13144222D02*
X3603134Y-13248984D01*
X3603134Y-13144222D02*
X3612658Y-13125174D01*
X3612658Y-13125174D02*
X3631705Y-13115650D01*
X3631705Y-13115650D02*
X3660277Y-13115650D01*
X3660277Y-13115650D02*
X3679324Y-13125174D01*
X3679324Y-13125174D02*
X3688848Y-13144222D01*
X3688848Y-13144222D02*
X3688848Y-13248984D01*
X3784086Y-13248984D02*
X3784086Y-13115650D01*
X3784086Y-13134698D02*
X3793610Y-13125174D01*
X3793610Y-13125174D02*
X3812658Y-13115650D01*
X3812658Y-13115650D02*
X3841229Y-13115650D01*
X3841229Y-13115650D02*
X3860277Y-13125174D01*
X3860277Y-13125174D02*
X3869801Y-13144222D01*
X3869801Y-13144222D02*
X3869801Y-13248984D01*
X3869801Y-13144222D02*
X3879324Y-13125174D01*
X3879324Y-13125174D02*
X3898372Y-13115650D01*
X3898372Y-13115650D02*
X3926943Y-13115650D01*
X3926943Y-13115650D02*
X3945991Y-13125174D01*
X3945991Y-13125174D02*
X3955515Y-13144222D01*
X3955515Y-13144222D02*
X3955515Y-13248984D01*
X4345991Y-13039460D02*
X4174563Y-13296603D01*
X4603134Y-13048984D02*
X4622182Y-13048984D01*
X4622182Y-13048984D02*
X4641229Y-13058508D01*
X4641229Y-13058508D02*
X4650753Y-13068031D01*
X4650753Y-13068031D02*
X4660277Y-13087079D01*
X4660277Y-13087079D02*
X4669801Y-13125174D01*
X4669801Y-13125174D02*
X4669801Y-13172793D01*
X4669801Y-13172793D02*
X4660277Y-13210888D01*
X4660277Y-13210888D02*
X4650753Y-13229936D01*
X4650753Y-13229936D02*
X4641229Y-13239460D01*
X4641229Y-13239460D02*
X4622182Y-13248984D01*
X4622182Y-13248984D02*
X4603134Y-13248984D01*
X4603134Y-13248984D02*
X4584087Y-13239460D01*
X4584087Y-13239460D02*
X4574563Y-13229936D01*
X4574563Y-13229936D02*
X4565039Y-13210888D01*
X4565039Y-13210888D02*
X4555515Y-13172793D01*
X4555515Y-13172793D02*
X4555515Y-13125174D01*
X4555515Y-13125174D02*
X4565039Y-13087079D01*
X4565039Y-13087079D02*
X4574563Y-13068031D01*
X4574563Y-13068031D02*
X4584087Y-13058508D01*
X4584087Y-13058508D02*
X4603134Y-13048984D01*
X4755515Y-13229936D02*
X4765039Y-13239460D01*
X4765039Y-13239460D02*
X4755515Y-13248984D01*
X4755515Y-13248984D02*
X4745991Y-13239460D01*
X4745991Y-13239460D02*
X4755515Y-13229936D01*
X4755515Y-13229936D02*
X4755515Y-13248984D01*
X4888848Y-13048984D02*
X4907896Y-13048984D01*
X4907896Y-13048984D02*
X4926944Y-13058508D01*
X4926944Y-13058508D02*
X4936468Y-13068031D01*
X4936468Y-13068031D02*
X4945991Y-13087079D01*
X4945991Y-13087079D02*
X4955515Y-13125174D01*
X4955515Y-13125174D02*
X4955515Y-13172793D01*
X4955515Y-13172793D02*
X4945991Y-13210888D01*
X4945991Y-13210888D02*
X4936468Y-13229936D01*
X4936468Y-13229936D02*
X4926944Y-13239460D01*
X4926944Y-13239460D02*
X4907896Y-13248984D01*
X4907896Y-13248984D02*
X4888848Y-13248984D01*
X4888848Y-13248984D02*
X4869801Y-13239460D01*
X4869801Y-13239460D02*
X4860277Y-13229936D01*
X4860277Y-13229936D02*
X4850753Y-13210888D01*
X4850753Y-13210888D02*
X4841229Y-13172793D01*
X4841229Y-13172793D02*
X4841229Y-13125174D01*
X4841229Y-13125174D02*
X4850753Y-13087079D01*
X4850753Y-13087079D02*
X4860277Y-13068031D01*
X4860277Y-13068031D02*
X4869801Y-13058508D01*
X4869801Y-13058508D02*
X4888848Y-13048984D01*
X5022182Y-13048984D02*
X5145991Y-13048984D01*
X5145991Y-13048984D02*
X5079325Y-13125174D01*
X5079325Y-13125174D02*
X5107896Y-13125174D01*
X5107896Y-13125174D02*
X5126944Y-13134698D01*
X5126944Y-13134698D02*
X5136468Y-13144222D01*
X5136468Y-13144222D02*
X5145991Y-13163269D01*
X5145991Y-13163269D02*
X5145991Y-13210888D01*
X5145991Y-13210888D02*
X5136468Y-13229936D01*
X5136468Y-13229936D02*
X5126944Y-13239460D01*
X5126944Y-13239460D02*
X5107896Y-13248984D01*
X5107896Y-13248984D02*
X5050753Y-13248984D01*
X5050753Y-13248984D02*
X5031706Y-13239460D01*
X5031706Y-13239460D02*
X5022182Y-13229936D01*
X5241229Y-13248984D02*
X5279325Y-13248984D01*
X5279325Y-13248984D02*
X5298372Y-13239460D01*
X5298372Y-13239460D02*
X5307896Y-13229936D01*
X5307896Y-13229936D02*
X5326944Y-13201365D01*
X5326944Y-13201365D02*
X5336468Y-13163269D01*
X5336468Y-13163269D02*
X5336468Y-13087079D01*
X5336468Y-13087079D02*
X5326944Y-13068031D01*
X5326944Y-13068031D02*
X5317420Y-13058508D01*
X5317420Y-13058508D02*
X5298372Y-13048984D01*
X5298372Y-13048984D02*
X5260277Y-13048984D01*
X5260277Y-13048984D02*
X5241229Y-13058508D01*
X5241229Y-13058508D02*
X5231706Y-13068031D01*
X5231706Y-13068031D02*
X5222182Y-13087079D01*
X5222182Y-13087079D02*
X5222182Y-13134698D01*
X5222182Y-13134698D02*
X5231706Y-13153746D01*
X5231706Y-13153746D02*
X5241229Y-13163269D01*
X5241229Y-13163269D02*
X5260277Y-13172793D01*
X5260277Y-13172793D02*
X5298372Y-13172793D01*
X5298372Y-13172793D02*
X5317420Y-13163269D01*
X5317420Y-13163269D02*
X5326944Y-13153746D01*
X5326944Y-13153746D02*
X5336468Y-13134698D01*
X5507896Y-13115650D02*
X5507896Y-13248984D01*
X5460277Y-13039460D02*
X5412658Y-13182317D01*
X5412658Y-13182317D02*
X5536468Y-13182317D01*
X5603134Y-13048984D02*
X5603134Y-13087079D01*
X5679325Y-13048984D02*
X5679325Y-13087079D01*
X5974563Y-13325174D02*
X5965039Y-13315650D01*
X5965039Y-13315650D02*
X5945991Y-13287079D01*
X5945991Y-13287079D02*
X5936468Y-13268031D01*
X5936468Y-13268031D02*
X5926944Y-13239460D01*
X5926944Y-13239460D02*
X5917420Y-13191841D01*
X5917420Y-13191841D02*
X5917420Y-13153746D01*
X5917420Y-13153746D02*
X5926944Y-13106127D01*
X5926944Y-13106127D02*
X5936468Y-13077555D01*
X5936468Y-13077555D02*
X5945991Y-13058508D01*
X5945991Y-13058508D02*
X5965039Y-13029936D01*
X5965039Y-13029936D02*
X5974563Y-13020412D01*
X6136468Y-13115650D02*
X6136468Y-13248984D01*
X6088848Y-13039460D02*
X6041229Y-13182317D01*
X6041229Y-13182317D02*
X6165039Y-13182317D01*
X6279325Y-13048984D02*
X6298372Y-13048984D01*
X6298372Y-13048984D02*
X6317420Y-13058508D01*
X6317420Y-13058508D02*
X6326944Y-13068031D01*
X6326944Y-13068031D02*
X6336468Y-13087079D01*
X6336468Y-13087079D02*
X6345991Y-13125174D01*
X6345991Y-13125174D02*
X6345991Y-13172793D01*
X6345991Y-13172793D02*
X6336468Y-13210888D01*
X6336468Y-13210888D02*
X6326944Y-13229936D01*
X6326944Y-13229936D02*
X6317420Y-13239460D01*
X6317420Y-13239460D02*
X6298372Y-13248984D01*
X6298372Y-13248984D02*
X6279325Y-13248984D01*
X6279325Y-13248984D02*
X6260277Y-13239460D01*
X6260277Y-13239460D02*
X6250753Y-13229936D01*
X6250753Y-13229936D02*
X6241229Y-13210888D01*
X6241229Y-13210888D02*
X6231706Y-13172793D01*
X6231706Y-13172793D02*
X6231706Y-13125174D01*
X6231706Y-13125174D02*
X6241229Y-13087079D01*
X6241229Y-13087079D02*
X6250753Y-13068031D01*
X6250753Y-13068031D02*
X6260277Y-13058508D01*
X6260277Y-13058508D02*
X6279325Y-13048984D01*
X6584087Y-13248984D02*
X6584087Y-13048984D01*
X6669801Y-13248984D02*
X6669801Y-13144222D01*
X6669801Y-13144222D02*
X6660277Y-13125174D01*
X6660277Y-13125174D02*
X6641230Y-13115650D01*
X6641230Y-13115650D02*
X6612658Y-13115650D01*
X6612658Y-13115650D02*
X6593610Y-13125174D01*
X6593610Y-13125174D02*
X6584087Y-13134698D01*
X6793610Y-13248984D02*
X6774563Y-13239460D01*
X6774563Y-13239460D02*
X6765039Y-13229936D01*
X6765039Y-13229936D02*
X6755515Y-13210888D01*
X6755515Y-13210888D02*
X6755515Y-13153746D01*
X6755515Y-13153746D02*
X6765039Y-13134698D01*
X6765039Y-13134698D02*
X6774563Y-13125174D01*
X6774563Y-13125174D02*
X6793610Y-13115650D01*
X6793610Y-13115650D02*
X6822182Y-13115650D01*
X6822182Y-13115650D02*
X6841230Y-13125174D01*
X6841230Y-13125174D02*
X6850753Y-13134698D01*
X6850753Y-13134698D02*
X6860277Y-13153746D01*
X6860277Y-13153746D02*
X6860277Y-13210888D01*
X6860277Y-13210888D02*
X6850753Y-13229936D01*
X6850753Y-13229936D02*
X6841230Y-13239460D01*
X6841230Y-13239460D02*
X6822182Y-13248984D01*
X6822182Y-13248984D02*
X6793610Y-13248984D01*
X6974563Y-13248984D02*
X6955515Y-13239460D01*
X6955515Y-13239460D02*
X6945991Y-13220412D01*
X6945991Y-13220412D02*
X6945991Y-13048984D01*
X7126944Y-13239460D02*
X7107896Y-13248984D01*
X7107896Y-13248984D02*
X7069801Y-13248984D01*
X7069801Y-13248984D02*
X7050753Y-13239460D01*
X7050753Y-13239460D02*
X7041230Y-13220412D01*
X7041230Y-13220412D02*
X7041230Y-13144222D01*
X7041230Y-13144222D02*
X7050753Y-13125174D01*
X7050753Y-13125174D02*
X7069801Y-13115650D01*
X7069801Y-13115650D02*
X7107896Y-13115650D01*
X7107896Y-13115650D02*
X7126944Y-13125174D01*
X7126944Y-13125174D02*
X7136468Y-13144222D01*
X7136468Y-13144222D02*
X7136468Y-13163269D01*
X7136468Y-13163269D02*
X7041230Y-13182317D01*
X7212658Y-13239460D02*
X7231706Y-13248984D01*
X7231706Y-13248984D02*
X7269801Y-13248984D01*
X7269801Y-13248984D02*
X7288849Y-13239460D01*
X7288849Y-13239460D02*
X7298372Y-13220412D01*
X7298372Y-13220412D02*
X7298372Y-13210888D01*
X7298372Y-13210888D02*
X7288849Y-13191841D01*
X7288849Y-13191841D02*
X7269801Y-13182317D01*
X7269801Y-13182317D02*
X7241230Y-13182317D01*
X7241230Y-13182317D02*
X7222182Y-13172793D01*
X7222182Y-13172793D02*
X7212658Y-13153746D01*
X7212658Y-13153746D02*
X7212658Y-13144222D01*
X7212658Y-13144222D02*
X7222182Y-13125174D01*
X7222182Y-13125174D02*
X7241230Y-13115650D01*
X7241230Y-13115650D02*
X7269801Y-13115650D01*
X7269801Y-13115650D02*
X7288849Y-13125174D01*
X7365039Y-13325174D02*
X7374563Y-13315650D01*
X7374563Y-13315650D02*
X7393611Y-13287079D01*
X7393611Y-13287079D02*
X7403134Y-13268031D01*
X7403134Y-13268031D02*
X7412658Y-13239460D01*
X7412658Y-13239460D02*
X7422182Y-13191841D01*
X7422182Y-13191841D02*
X7422182Y-13153746D01*
X7422182Y-13153746D02*
X7412658Y-13106127D01*
X7412658Y-13106127D02*
X7403134Y-13077555D01*
X7403134Y-13077555D02*
X7393611Y-13058508D01*
X7393611Y-13058508D02*
X7374563Y-13029936D01*
X7374563Y-13029936D02*
X7365039Y-13020412D01*
M02*
