M48
; DRILL file {KiCad 9.0.3} date 2025-10-30T22:20:44+0000
; FORMAT={-:-/ absolute / inch / decimal}
; #@! TF.CreationDate,2025-10-30T22:20:44+00:00
; #@! TF.GenerationSoftware,Kicad,Pcbnew,9.0.3
; #@! TF.FileFunction,Plated,1,2,PTH
FMAT,2
INCH
; #@! TA.AperFunction,Plated,PTH,ViaDrill
T1C0.0177
; #@! TA.AperFunction,Plated,PTH,ComponentDrill
T2C0.0276
; #@! TA.AperFunction,Plated,PTH,ComponentDrill
T3C0.0315
; #@! TA.AperFunction,Plated,PTH,ComponentDrill
T4C0.0354
; #@! TA.AperFunction,Plated,PTH,ComponentDrill
T5C0.0394
%
G90
G05
T1
X1.2083Y-2.8941
X1.227Y-2.6078
X1.2378Y-3.5567
X1.2567Y-2.1157
X1.2665Y-3.0535
X1.2865Y-2.8887
X1.3067Y-1.6681
X1.5539Y-4.2707
X1.6402Y-4.0521
X1.6411Y-3.9838
X1.6631Y-1.1798
X1.7134Y-2.3618
X1.9207Y-2.5014
X1.9335Y-1.6189
X1.9417Y-2.972
X2.0356Y-2.7029
X2.095Y-2.1102
X2.1542Y-2.7224
X2.4371Y-2.913
X2.4454Y-2.1582
X2.4701Y-3.3641
X2.5105Y-2.308
X2.7041Y-2.6563
X2.7518Y-2.3216
T2
X1.7437Y-4.4126
X2.1437Y-4.4126
X2.4807Y-1.9543
X2.4807Y-2.3543
X2.4807Y-2.7098
X2.4807Y-3.1098
X2.4807Y-3.4713
X2.4807Y-3.8713
T3
X1.112Y-1.7146
X1.112Y-1.8146
X1.112Y-1.9146
X1.112Y-2.0146
X1.112Y-2.1146
X1.112Y-2.2146
X1.112Y-2.3146
X1.112Y-2.4146
X1.112Y-2.5559
X1.112Y-2.6559
X1.112Y-2.7559
X1.112Y-2.8559
X1.112Y-2.9559
X1.112Y-3.0559
X1.112Y-3.1559
X1.112Y-3.2559
X1.112Y-3.398
X1.112Y-3.498
X1.112Y-3.598
X1.112Y-3.698
X1.112Y-3.798
X1.112Y-3.898
X1.112Y-3.998
X1.112Y-4.098
X1.2898Y-1.2846
X1.2898Y-1.4846
X1.412Y-1.7146
X1.412Y-1.8146
X1.412Y-1.9146
X1.412Y-2.0146
X1.412Y-2.1146
X1.412Y-2.2146
X1.412Y-2.3146
X1.412Y-2.4146
X1.412Y-2.5559
X1.412Y-2.6559
X1.412Y-2.7559
X1.412Y-2.8559
X1.412Y-2.9559
X1.412Y-3.0559
X1.412Y-3.1559
X1.412Y-3.2559
X1.412Y-3.398
X1.412Y-3.498
X1.412Y-3.598
X1.412Y-3.698
X1.412Y-3.798
X1.412Y-3.898
X1.412Y-3.998
X1.412Y-4.098
X1.5295Y-2.389
X1.5295Y-2.589
X1.5295Y-3.2189
X1.5295Y-3.4189
X1.6039Y-1.2482
X1.6039Y-1.5482
X1.6039Y-3.8957
X1.6039Y-4.1957
X1.6433Y-1.822
X1.6433Y-1.922
X1.6433Y-2.022
X1.6433Y-2.122
X1.6433Y-2.222
X1.6433Y-2.322
X1.6433Y-2.422
X1.6433Y-2.522
X1.6433Y-2.622
X1.6433Y-2.722
X1.6433Y-2.822
X1.6433Y-2.922
X1.6433Y-3.022
X1.6433Y-3.122
X1.6433Y-3.222
X1.6433Y-3.322
X1.6433Y-3.422
X1.6433Y-3.522
X1.6433Y-3.622
X1.6433Y-3.722
X1.7039Y-1.2482
X1.7039Y-1.5482
X1.7039Y-3.8957
X1.7039Y-4.1957
X1.8039Y-1.2482
X1.8039Y-1.5482
X1.8039Y-3.8957
X1.8039Y-4.1957
X1.9039Y-1.2482
X1.9039Y-1.5482
X1.9039Y-3.8957
X1.9039Y-4.1957
X2.0039Y-1.2482
X2.0039Y-1.5482
X2.0039Y-3.8957
X2.0039Y-4.1957
X2.1039Y-1.2482
X2.1039Y-1.5482
X2.1039Y-3.8957
X2.1039Y-4.1957
X2.2039Y-1.2482
X2.2039Y-1.5482
X2.2039Y-3.8957
X2.2039Y-4.1957
X2.2433Y-1.822
X2.2433Y-1.922
X2.2433Y-2.022
X2.2433Y-2.122
X2.2433Y-2.222
X2.2433Y-2.322
X2.2433Y-2.422
X2.2433Y-2.522
X2.2433Y-2.622
X2.2433Y-2.722
X2.2433Y-2.822
X2.2433Y-2.922
X2.2433Y-3.022
X2.2433Y-3.122
X2.2433Y-3.222
X2.2433Y-3.322
X2.2433Y-3.422
X2.2433Y-3.522
X2.2433Y-3.622
X2.2433Y-3.722
X2.3039Y-1.2482
X2.3039Y-1.5482
X2.3039Y-3.8957
X2.3039Y-4.1957
X2.4236Y-1.298
X2.4236Y-1.498
X2.4287Y-3.9949
X2.4287Y-4.1949
X2.589Y-1.7146
X2.589Y-1.8146
X2.589Y-1.9146
X2.589Y-2.0146
X2.589Y-2.1146
X2.589Y-2.2146
X2.589Y-2.3146
X2.589Y-2.4146
X2.589Y-2.5559
X2.589Y-2.6559
X2.589Y-2.7559
X2.589Y-2.8559
X2.589Y-2.9559
X2.589Y-3.0559
X2.589Y-3.1559
X2.589Y-3.2559
X2.589Y-3.398
X2.589Y-3.498
X2.589Y-3.598
X2.589Y-3.698
X2.589Y-3.798
X2.589Y-3.898
X2.589Y-3.998
X2.589Y-4.098
X2.889Y-1.7146
X2.889Y-1.8146
X2.889Y-1.9146
X2.889Y-2.0146
X2.889Y-2.1146
X2.889Y-2.2146
X2.889Y-2.3146
X2.889Y-2.4146
X2.889Y-2.5559
X2.889Y-2.6559
X2.889Y-2.7559
X2.889Y-2.8559
X2.889Y-2.9559
X2.889Y-3.0559
X2.889Y-3.1559
X2.889Y-3.2559
X2.889Y-3.398
X2.889Y-3.498
X2.889Y-3.598
X2.889Y-3.698
X2.889Y-3.798
X2.889Y-3.898
X2.889Y-3.998
X2.889Y-4.098
X3.0063Y-2.3843
X3.0063Y-2.5843
X3.0063Y-3.2189
X3.0063Y-3.4189
T4
X1.1165Y-4.3604
X1.2165Y-4.3604
T5
X1.776Y-1.7098
X1.776Y-1.8098
X1.776Y-1.9098
X1.776Y-2.0098
X1.776Y-2.1098
X1.776Y-2.2098
X1.776Y-2.3098
X1.776Y-2.4098
X1.776Y-2.5098
X1.776Y-2.6098
X1.776Y-2.7098
X1.776Y-2.8098
X1.776Y-2.9098
X1.776Y-3.0098
X1.776Y-3.1098
X1.776Y-3.2098
X1.776Y-3.3098
X1.776Y-3.4098
X1.776Y-3.5098
X1.776Y-3.6098
X2.376Y-1.7098
X2.376Y-1.8098
X2.376Y-1.9098
X2.376Y-2.0098
X2.376Y-2.1098
X2.376Y-2.2098
X2.376Y-2.3098
X2.376Y-2.4098
X2.376Y-2.5098
X2.376Y-2.6098
X2.376Y-2.7098
X2.376Y-2.8098
X2.376Y-2.9098
X2.376Y-3.0098
X2.376Y-3.1098
X2.376Y-3.2098
X2.376Y-3.3098
X2.376Y-3.4098
X2.376Y-3.5098
X2.376Y-3.6098
M30
