%TF.GenerationSoftware,KiCad,Pcbnew,9.0.3*%
%TF.CreationDate,2025-10-30T22:20:44+00:00*%
%TF.ProjectId,TMSAdapterTC01,544d5341-6461-4707-9465-72544330312e,rev?*%
%TF.SameCoordinates,Original*%
%TF.FileFunction,Drillmap*%
%TF.FilePolarity,Positive*%
%FSLAX45Y45*%
G04 Gerber Fmt 4.5, Leading zero omitted, Abs format (unit mm)*
G04 Created by KiCad (PCBNEW 9.0.3) date 2025-10-30 22:20:44*
%MOMM*%
%LPD*%
G01*
G04 APERTURE LIST*
%ADD10C,0.050000*%
%ADD11C,0.200000*%
G04 APERTURE END LIST*
D10*
X6132462Y-2567000D02*
G75*
G02*
X6475460Y-2910000I-2J-343000D01*
G01*
X2745000Y-2567000D02*
X6132462Y-2567000D01*
X7650000Y-4153000D02*
G75*
G02*
X7993000Y-4496000I0J-343000D01*
G01*
X7650000Y-11459000D02*
X2745000Y-11459000D01*
X6475462Y-2910000D02*
X6475462Y-4153000D01*
X7993000Y-4496000D02*
X7993000Y-11116000D01*
X2402000Y-2910000D02*
X2402000Y-11116000D01*
X7993000Y-11116000D02*
G75*
G02*
X7650000Y-11459000I-343000J0D01*
G01*
X2402000Y-2910000D02*
G75*
G02*
X2745000Y-2567000I343000J0D01*
G01*
X6475462Y-4153000D02*
X7650000Y-4153000D01*
X2745000Y-11459000D02*
G75*
G02*
X2402000Y-11116000I0J343000D01*
G01*
D11*
X2660277Y-11772984D02*
X2660277Y-11572984D01*
X2660277Y-11572984D02*
X2707896Y-11572984D01*
X2707896Y-11572984D02*
X2736467Y-11582508D01*
X2736467Y-11582508D02*
X2755515Y-11601555D01*
X2755515Y-11601555D02*
X2765039Y-11620603D01*
X2765039Y-11620603D02*
X2774563Y-11658698D01*
X2774563Y-11658698D02*
X2774563Y-11687269D01*
X2774563Y-11687269D02*
X2765039Y-11725365D01*
X2765039Y-11725365D02*
X2755515Y-11744412D01*
X2755515Y-11744412D02*
X2736467Y-11763460D01*
X2736467Y-11763460D02*
X2707896Y-11772984D01*
X2707896Y-11772984D02*
X2660277Y-11772984D01*
X2860277Y-11772984D02*
X2860277Y-11639650D01*
X2860277Y-11677746D02*
X2869801Y-11658698D01*
X2869801Y-11658698D02*
X2879324Y-11649174D01*
X2879324Y-11649174D02*
X2898372Y-11639650D01*
X2898372Y-11639650D02*
X2917420Y-11639650D01*
X2984086Y-11772984D02*
X2984086Y-11639650D01*
X2984086Y-11572984D02*
X2974562Y-11582508D01*
X2974562Y-11582508D02*
X2984086Y-11592031D01*
X2984086Y-11592031D02*
X2993610Y-11582508D01*
X2993610Y-11582508D02*
X2984086Y-11572984D01*
X2984086Y-11572984D02*
X2984086Y-11592031D01*
X3107896Y-11772984D02*
X3088848Y-11763460D01*
X3088848Y-11763460D02*
X3079324Y-11744412D01*
X3079324Y-11744412D02*
X3079324Y-11572984D01*
X3212658Y-11772984D02*
X3193610Y-11763460D01*
X3193610Y-11763460D02*
X3184086Y-11744412D01*
X3184086Y-11744412D02*
X3184086Y-11572984D01*
X3441229Y-11772984D02*
X3441229Y-11572984D01*
X3441229Y-11572984D02*
X3507896Y-11715841D01*
X3507896Y-11715841D02*
X3574562Y-11572984D01*
X3574562Y-11572984D02*
X3574562Y-11772984D01*
X3755515Y-11772984D02*
X3755515Y-11668222D01*
X3755515Y-11668222D02*
X3745991Y-11649174D01*
X3745991Y-11649174D02*
X3726943Y-11639650D01*
X3726943Y-11639650D02*
X3688848Y-11639650D01*
X3688848Y-11639650D02*
X3669801Y-11649174D01*
X3755515Y-11763460D02*
X3736467Y-11772984D01*
X3736467Y-11772984D02*
X3688848Y-11772984D01*
X3688848Y-11772984D02*
X3669801Y-11763460D01*
X3669801Y-11763460D02*
X3660277Y-11744412D01*
X3660277Y-11744412D02*
X3660277Y-11725365D01*
X3660277Y-11725365D02*
X3669801Y-11706317D01*
X3669801Y-11706317D02*
X3688848Y-11696793D01*
X3688848Y-11696793D02*
X3736467Y-11696793D01*
X3736467Y-11696793D02*
X3755515Y-11687269D01*
X3850753Y-11639650D02*
X3850753Y-11839650D01*
X3850753Y-11649174D02*
X3869801Y-11639650D01*
X3869801Y-11639650D02*
X3907896Y-11639650D01*
X3907896Y-11639650D02*
X3926943Y-11649174D01*
X3926943Y-11649174D02*
X3936467Y-11658698D01*
X3936467Y-11658698D02*
X3945991Y-11677746D01*
X3945991Y-11677746D02*
X3945991Y-11734888D01*
X3945991Y-11734888D02*
X3936467Y-11753936D01*
X3936467Y-11753936D02*
X3926943Y-11763460D01*
X3926943Y-11763460D02*
X3907896Y-11772984D01*
X3907896Y-11772984D02*
X3869801Y-11772984D01*
X3869801Y-11772984D02*
X3850753Y-11763460D01*
X4031705Y-11753936D02*
X4041229Y-11763460D01*
X4041229Y-11763460D02*
X4031705Y-11772984D01*
X4031705Y-11772984D02*
X4022182Y-11763460D01*
X4022182Y-11763460D02*
X4031705Y-11753936D01*
X4031705Y-11753936D02*
X4031705Y-11772984D01*
X4031705Y-11649174D02*
X4041229Y-11658698D01*
X4041229Y-11658698D02*
X4031705Y-11668222D01*
X4031705Y-11668222D02*
X4022182Y-11658698D01*
X4022182Y-11658698D02*
X4031705Y-11649174D01*
X4031705Y-11649174D02*
X4031705Y-11668222D01*
M02*
