%TF.GenerationSoftware,KiCad,Pcbnew,9.0.3*%
%TF.CreationDate,2025-10-30T22:20:45+00:00*%
%TF.ProjectId,TMSAdapterTC01,544d5341-6461-4707-9465-72544330312e,rev?*%
%TF.SameCoordinates,Original*%
%TF.FileFunction,Copper,L2,Bot*%
%TF.FilePolarity,Positive*%
%FSLAX46Y46*%
G04 Gerber Fmt 4.6, Leading zero omitted, Abs format (unit mm)*
G04 Created by KiCad (PCBNEW 9.0.3) date 2025-10-30 22:20:45*
%MOMM*%
%LPD*%
G01*
G04 APERTURE LIST*
%TA.AperFunction,ComponentPad*%
%ADD10O,1.600000X1.600000*%
%TD*%
%TA.AperFunction,ComponentPad*%
%ADD11R,1.600000X1.600000*%
%TD*%
%TA.AperFunction,ComponentPad*%
%ADD12C,1.600000*%
%TD*%
%TA.AperFunction,ComponentPad*%
%ADD13C,1.400000*%
%TD*%
%TA.AperFunction,ComponentPad*%
%ADD14O,1.400000X1.400000*%
%TD*%
%TA.AperFunction,ComponentPad*%
%ADD15R,1.800000X1.800000*%
%TD*%
%TA.AperFunction,ComponentPad*%
%ADD16C,1.800000*%
%TD*%
%TA.AperFunction,ViaPad*%
%ADD17C,0.800000*%
%TD*%
%TA.AperFunction,Conductor*%
%ADD18C,0.300000*%
%TD*%
%TA.AperFunction,Conductor*%
%ADD19C,0.400000*%
%TD*%
%TA.AperFunction,Conductor*%
%ADD20C,0.600000*%
%TD*%
%TA.AperFunction,Conductor*%
%ADD21C,1.200000*%
%TD*%
G04 APERTURE END LIST*
D10*
%TO.P,IC156,16,VSS*%
%TO.N,GND*%
X35865000Y-43550000D03*
%TO.P,IC156,15,~{CAS}*%
%TO.N,~{VCAS}*%
X35865000Y-46090000D03*
%TO.P,IC156,14,OUT*%
%TO.N,/VD6*%
X35865000Y-48630000D03*
%TO.P,IC156,13,A6*%
%TO.N,/VAD7*%
X35865000Y-51170000D03*
%TO.P,IC156,12,A3*%
%TO.N,/VAD4*%
X35865000Y-53710000D03*
%TO.P,IC156,11,A4*%
%TO.N,/VAD5*%
X35865000Y-56250000D03*
%TO.P,IC156,10,A5*%
%TO.N,/VAD6*%
X35865000Y-58790000D03*
%TO.P,IC156,9,VCC*%
%TO.N,+5V*%
X35865000Y-61330000D03*
%TO.P,IC156,8,VDD*%
X28245000Y-61330000D03*
%TO.P,IC156,7,A1*%
%TO.N,/VAD2*%
X28245000Y-58790000D03*
%TO.P,IC156,6,A2*%
%TO.N,/VAD3*%
X28245000Y-56250000D03*
%TO.P,IC156,5,A0*%
%TO.N,/VAD1*%
X28245000Y-53710000D03*
%TO.P,IC156,4,~{RAS}*%
%TO.N,~{VRAS}*%
X28245000Y-51170000D03*
%TO.P,IC156,3,~{WE}*%
%TO.N,VR{slash}~{W}*%
X28245000Y-48630000D03*
%TO.P,IC156,2,IN*%
%TO.N,/VAD6*%
X28245000Y-46090000D03*
D11*
%TO.P,IC156,1,VBB*%
%TO.N,GND*%
X28245000Y-43550000D03*
%TD*%
D12*
%TO.P,C152,1*%
%TO.N,GND*%
X76360000Y-86840000D03*
%TO.P,C152,2*%
%TO.N,+5V*%
X76360000Y-81760000D03*
%TD*%
D11*
%TO.P,IC154,1,VBB*%
%TO.N,GND*%
X28245000Y-64920000D03*
D10*
%TO.P,IC154,2,IN*%
%TO.N,/VAD5*%
X28245000Y-67460000D03*
%TO.P,IC154,3,~{WE}*%
%TO.N,VR{slash}~{W}*%
X28245000Y-70000000D03*
%TO.P,IC154,4,~{RAS}*%
%TO.N,~{VRAS}*%
X28245000Y-72540000D03*
%TO.P,IC154,5,A0*%
%TO.N,/VAD1*%
X28245000Y-75080000D03*
%TO.P,IC154,6,A2*%
%TO.N,/VAD3*%
X28245000Y-77620000D03*
%TO.P,IC154,7,A1*%
%TO.N,/VAD2*%
X28245000Y-80160000D03*
%TO.P,IC154,8,VDD*%
%TO.N,+5V*%
X28245000Y-82700000D03*
%TO.P,IC154,9,VCC*%
X35865000Y-82700000D03*
%TO.P,IC154,10,A5*%
%TO.N,/VAD6*%
X35865000Y-80160000D03*
%TO.P,IC154,11,A4*%
%TO.N,/VAD5*%
X35865000Y-77620000D03*
%TO.P,IC154,12,A3*%
%TO.N,/VAD4*%
X35865000Y-75080000D03*
%TO.P,IC154,13,A6*%
%TO.N,/VAD7*%
X35865000Y-72540000D03*
%TO.P,IC154,14,OUT*%
%TO.N,/VD5*%
X35865000Y-70000000D03*
%TO.P,IC154,15,~{CAS}*%
%TO.N,~{VCAS}*%
X35865000Y-67460000D03*
%TO.P,IC154,16,VSS*%
%TO.N,GND*%
X35865000Y-64920000D03*
%TD*%
D11*
%TO.P,IC158,1,VBB*%
%TO.N,GND*%
X65760000Y-43550000D03*
D10*
%TO.P,IC158,2,IN*%
%TO.N,/VAD7*%
X65760000Y-46090000D03*
%TO.P,IC158,3,~{WE}*%
%TO.N,VR{slash}~{W}*%
X65760000Y-48630000D03*
%TO.P,IC158,4,~{RAS}*%
%TO.N,~{VRAS}*%
X65760000Y-51170000D03*
%TO.P,IC158,5,A0*%
%TO.N,/VAD1*%
X65760000Y-53710000D03*
%TO.P,IC158,6,A2*%
%TO.N,/VAD3*%
X65760000Y-56250000D03*
%TO.P,IC158,7,A1*%
%TO.N,/VAD2*%
X65760000Y-58790000D03*
%TO.P,IC158,8,VDD*%
%TO.N,+5V*%
X65760000Y-61330000D03*
%TO.P,IC158,9,VCC*%
X73380000Y-61330000D03*
%TO.P,IC158,10,A5*%
%TO.N,/VAD6*%
X73380000Y-58790000D03*
%TO.P,IC158,11,A4*%
%TO.N,/VAD5*%
X73380000Y-56250000D03*
%TO.P,IC158,12,A3*%
%TO.N,/VAD4*%
X73380000Y-53710000D03*
%TO.P,IC158,13,A6*%
%TO.N,/VAD7*%
X73380000Y-51170000D03*
%TO.P,IC158,14,OUT*%
%TO.N,/VD7*%
X73380000Y-48630000D03*
%TO.P,IC158,15,~{CAS}*%
%TO.N,~{VCAS}*%
X73380000Y-46090000D03*
%TO.P,IC158,16,VSS*%
%TO.N,GND*%
X73380000Y-43550000D03*
%TD*%
D11*
%TO.P,IC151,1,VBB*%
%TO.N,GND*%
X40740000Y-106570000D03*
D10*
%TO.P,IC151,2,IN*%
%TO.N,/VAD0*%
X43280000Y-106570000D03*
%TO.P,IC151,3,~{WE}*%
%TO.N,VR{slash}~{W}*%
X45820000Y-106570000D03*
%TO.P,IC151,4,~{RAS}*%
%TO.N,~{VRAS}*%
X48360000Y-106570000D03*
%TO.P,IC151,5,A0*%
%TO.N,/VAD1*%
X50900000Y-106570000D03*
%TO.P,IC151,6,A2*%
%TO.N,/VAD3*%
X53440000Y-106570000D03*
%TO.P,IC151,7,A1*%
%TO.N,/VAD2*%
X55980000Y-106570000D03*
%TO.P,IC151,8,VDD*%
%TO.N,+5V*%
X58520000Y-106570000D03*
%TO.P,IC151,9,VCC*%
X58520000Y-98950000D03*
%TO.P,IC151,10,A5*%
%TO.N,/VAD6*%
X55980000Y-98950000D03*
%TO.P,IC151,11,A4*%
%TO.N,/VAD5*%
X53440000Y-98950000D03*
%TO.P,IC151,12,A3*%
%TO.N,/VAD4*%
X50900000Y-98950000D03*
%TO.P,IC151,13,A6*%
%TO.N,/VAD7*%
X48360000Y-98950000D03*
%TO.P,IC151,14,OUT*%
%TO.N,/VD0*%
X45820000Y-98950000D03*
%TO.P,IC151,15,~{CAS}*%
%TO.N,~{VCAS}*%
X43280000Y-98950000D03*
%TO.P,IC151,16,VSS*%
%TO.N,GND*%
X40740000Y-98950000D03*
%TD*%
D13*
%TO.P,R153,1*%
%TO.N,Net-(J150-~{CAS})*%
X63010000Y-49640000D03*
D14*
%TO.P,R153,2*%
%TO.N,+5V*%
X63010000Y-59800000D03*
%TD*%
D15*
%TO.P,D150,1,K*%
%TO.N,GND*%
X28360000Y-110755000D03*
D16*
%TO.P,D150,2,A*%
%TO.N,Net-(D150-A)*%
X30900000Y-110755000D03*
%TD*%
D13*
%TO.P,R152,1*%
%TO.N,Net-(J150-R{slash}~{W})*%
X63010000Y-68830000D03*
D14*
%TO.P,R152,2*%
%TO.N,+5V*%
X63010000Y-78990000D03*
%TD*%
D11*
%TO.P,IC155,1,VBB*%
%TO.N,GND*%
X65760000Y-64920000D03*
D10*
%TO.P,IC155,2,IN*%
%TO.N,/VAD2*%
X65760000Y-67460000D03*
%TO.P,IC155,3,~{WE}*%
%TO.N,VR{slash}~{W}*%
X65760000Y-70000000D03*
%TO.P,IC155,4,~{RAS}*%
%TO.N,~{VRAS}*%
X65760000Y-72540000D03*
%TO.P,IC155,5,A0*%
%TO.N,/VAD1*%
X65760000Y-75080000D03*
%TO.P,IC155,6,A2*%
%TO.N,/VAD3*%
X65760000Y-77620000D03*
%TO.P,IC155,7,A1*%
%TO.N,/VAD2*%
X65760000Y-80160000D03*
%TO.P,IC155,8,VDD*%
%TO.N,+5V*%
X65760000Y-82700000D03*
%TO.P,IC155,9,VCC*%
X73380000Y-82700000D03*
%TO.P,IC155,10,A5*%
%TO.N,/VAD6*%
X73380000Y-80160000D03*
%TO.P,IC155,11,A4*%
%TO.N,/VAD5*%
X73380000Y-77620000D03*
%TO.P,IC155,12,A3*%
%TO.N,/VAD4*%
X73380000Y-75080000D03*
%TO.P,IC155,13,A6*%
%TO.N,/VAD7*%
X73380000Y-72540000D03*
%TO.P,IC155,14,OUT*%
%TO.N,/VD2*%
X73380000Y-70000000D03*
%TO.P,IC155,15,~{CAS}*%
%TO.N,~{VCAS}*%
X73380000Y-67460000D03*
%TO.P,IC155,16,VSS*%
%TO.N,GND*%
X73380000Y-64920000D03*
%TD*%
D12*
%TO.P,C153,1*%
%TO.N,GND*%
X61690000Y-101470000D03*
%TO.P,C153,2*%
%TO.N,+5V*%
X61690000Y-106550000D03*
%TD*%
D11*
%TO.P,IC157,1,VBB*%
%TO.N,GND*%
X40740000Y-39325000D03*
D10*
%TO.P,IC157,2,IN*%
%TO.N,/VAD3*%
X43280000Y-39325000D03*
%TO.P,IC157,3,~{WE}*%
%TO.N,VR{slash}~{W}*%
X45820000Y-39325000D03*
%TO.P,IC157,4,~{RAS}*%
%TO.N,~{VRAS}*%
X48360000Y-39325000D03*
%TO.P,IC157,5,A0*%
%TO.N,/VAD1*%
X50900000Y-39325000D03*
%TO.P,IC157,6,A2*%
%TO.N,/VAD3*%
X53440000Y-39325000D03*
%TO.P,IC157,7,A1*%
%TO.N,/VAD2*%
X55980000Y-39325000D03*
%TO.P,IC157,8,VDD*%
%TO.N,+5V*%
X58520000Y-39325000D03*
%TO.P,IC157,9,VCC*%
X58520000Y-31705000D03*
%TO.P,IC157,10,A5*%
%TO.N,/VAD6*%
X55980000Y-31705000D03*
%TO.P,IC157,11,A4*%
%TO.N,/VAD5*%
X53440000Y-31705000D03*
%TO.P,IC157,12,A3*%
%TO.N,/VAD4*%
X50900000Y-31705000D03*
%TO.P,IC157,13,A6*%
%TO.N,/VAD7*%
X48360000Y-31705000D03*
%TO.P,IC157,14,OUT*%
%TO.N,/VD3*%
X45820000Y-31705000D03*
%TO.P,IC157,15,~{CAS}*%
%TO.N,~{VCAS}*%
X43280000Y-31705000D03*
%TO.P,IC157,16,VSS*%
%TO.N,GND*%
X40740000Y-31705000D03*
%TD*%
D13*
%TO.P,R151,1*%
%TO.N,Net-(J150-~{RAS})*%
X63010000Y-88170000D03*
D14*
%TO.P,R151,2*%
%TO.N,+5V*%
X63010000Y-98330000D03*
%TD*%
D11*
%TO.P,IC153,1,VBB*%
%TO.N,GND*%
X65760000Y-86310000D03*
D10*
%TO.P,IC153,2,IN*%
%TO.N,/VAD1*%
X65760000Y-88850000D03*
%TO.P,IC153,3,~{WE}*%
%TO.N,VR{slash}~{W}*%
X65760000Y-91390000D03*
%TO.P,IC153,4,~{RAS}*%
%TO.N,~{VRAS}*%
X65760000Y-93930000D03*
%TO.P,IC153,5,A0*%
%TO.N,/VAD1*%
X65760000Y-96470000D03*
%TO.P,IC153,6,A2*%
%TO.N,/VAD3*%
X65760000Y-99010000D03*
%TO.P,IC153,7,A1*%
%TO.N,/VAD2*%
X65760000Y-101550000D03*
%TO.P,IC153,8,VDD*%
%TO.N,+5V*%
X65760000Y-104090000D03*
%TO.P,IC153,9,VCC*%
X73380000Y-104090000D03*
%TO.P,IC153,10,A5*%
%TO.N,/VAD6*%
X73380000Y-101550000D03*
%TO.P,IC153,11,A4*%
%TO.N,/VAD5*%
X73380000Y-99010000D03*
%TO.P,IC153,12,A3*%
%TO.N,/VAD4*%
X73380000Y-96470000D03*
%TO.P,IC153,13,A6*%
%TO.N,/VAD7*%
X73380000Y-93930000D03*
%TO.P,IC153,14,OUT*%
%TO.N,/VD1*%
X73380000Y-91390000D03*
%TO.P,IC153,15,~{CAS}*%
%TO.N,~{VCAS}*%
X73380000Y-88850000D03*
%TO.P,IC153,16,VSS*%
%TO.N,GND*%
X73380000Y-86310000D03*
%TD*%
D11*
%TO.P,IC150,1,~{RAS}*%
%TO.N,~{VRAS}*%
X41740000Y-46280000D03*
D10*
%TO.P,IC150,2,~{CAS}*%
%TO.N,~{VCAS}*%
X41740000Y-48820000D03*
%TO.P,IC150,3,AD7*%
%TO.N,/VAD7*%
X41740000Y-51360000D03*
%TO.P,IC150,4,AD6*%
%TO.N,/VAD6*%
X41740000Y-53900000D03*
%TO.P,IC150,5,AD5*%
%TO.N,/VAD5*%
X41740000Y-56440000D03*
%TO.P,IC150,6,AD4*%
%TO.N,/VAD4*%
X41740000Y-58980000D03*
%TO.P,IC150,7,AD3*%
%TO.N,/VAD3*%
X41740000Y-61520000D03*
%TO.P,IC150,8,AD2*%
%TO.N,/VAD2*%
X41740000Y-64060000D03*
%TO.P,IC150,9,AD1*%
%TO.N,/VAD1*%
X41740000Y-66600000D03*
%TO.P,IC150,10,AD0*%
%TO.N,/VAD0*%
X41740000Y-69140000D03*
%TO.P,IC150,11,R/~{W}*%
%TO.N,VR{slash}~{W}*%
X41740000Y-71680000D03*
%TO.P,IC150,12,VSS*%
%TO.N,GND*%
X41740000Y-74220000D03*
%TO.P,IC150,13,MODE*%
%TO.N,/A0*%
X41740000Y-76760000D03*
%TO.P,IC150,14,~{CSW}*%
%TO.N,~{CSW}*%
X41740000Y-79300000D03*
%TO.P,IC150,15,~{CSR}*%
%TO.N,~{CSR}*%
X41740000Y-81840000D03*
%TO.P,IC150,16,~{INT}*%
%TO.N,~{INTVDP}*%
X41740000Y-84380000D03*
%TO.P,IC150,17,CD7*%
%TO.N,/D7*%
X41740000Y-86920000D03*
%TO.P,IC150,18,CD6*%
%TO.N,/D6*%
X41740000Y-89460000D03*
%TO.P,IC150,19,CD5*%
%TO.N,/D5*%
X41740000Y-92000000D03*
%TO.P,IC150,20,CD4*%
%TO.N,/D4*%
X41740000Y-94540000D03*
%TO.P,IC150,21,CD3*%
%TO.N,/D3*%
X56980000Y-94540000D03*
%TO.P,IC150,22,CD2*%
%TO.N,/D2*%
X56980000Y-92000000D03*
%TO.P,IC150,23,CD1*%
%TO.N,/D1*%
X56980000Y-89460000D03*
%TO.P,IC150,24,CD0*%
%TO.N,/D0*%
X56980000Y-86920000D03*
%TO.P,IC150,25,RD7*%
%TO.N,/VD7*%
X56980000Y-84380000D03*
%TO.P,IC150,26,RD6*%
%TO.N,/VD6*%
X56980000Y-81840000D03*
%TO.P,IC150,27,RD5*%
%TO.N,/VD5*%
X56980000Y-79300000D03*
%TO.P,IC150,28,RD4*%
%TO.N,/VD4*%
X56980000Y-76760000D03*
%TO.P,IC150,29,RD3*%
%TO.N,/VD3*%
X56980000Y-74220000D03*
%TO.P,IC150,30,RD2*%
%TO.N,/VD2*%
X56980000Y-71680000D03*
%TO.P,IC150,31,RD1*%
%TO.N,/VD1*%
X56980000Y-69140000D03*
%TO.P,IC150,32,RD0*%
%TO.N,/VD0*%
X56980000Y-66600000D03*
%TO.P,IC150,33,VCC*%
%TO.N,+5V*%
X56980000Y-64060000D03*
%TO.P,IC150,34,~{RESET}/SYNC*%
%TO.N,~{RST}*%
X56980000Y-61520000D03*
%TO.P,IC150,35,EXTVDP*%
%TO.N,B-Y*%
X56980000Y-58980000D03*
%TO.P,IC150,36,COMVID*%
%TO.N,Y*%
X56980000Y-56440000D03*
%TO.P,IC150,37,GROMCLK*%
%TO.N,unconnected-(IC150-GROMCLK-Pad37)*%
X56980000Y-53900000D03*
%TO.P,IC150,38,CPUCLK*%
%TO.N,R-Y*%
X56980000Y-51360000D03*
%TO.P,IC150,39,XTAL2*%
%TO.N,XTAL2*%
X56980000Y-48820000D03*
%TO.P,IC150,40,XTAL1*%
%TO.N,XTAL1*%
X56980000Y-46280000D03*
%TD*%
D13*
%TO.P,R150,1*%
%TO.N,+5V*%
X54450000Y-112080000D03*
D14*
%TO.P,R150,2*%
%TO.N,Net-(D150-A)*%
X44290000Y-112080000D03*
%TD*%
D11*
%TO.P,C156,1*%
%TO.N,+5V*%
X32760000Y-37710000D03*
D12*
%TO.P,C156,2*%
%TO.N,GND*%
X32760000Y-32630000D03*
%TD*%
%TO.P,C154,1*%
%TO.N,GND*%
X38850000Y-65760000D03*
%TO.P,C154,2*%
%TO.N,+5V*%
X38850000Y-60680000D03*
%TD*%
%TO.P,C150,1*%
%TO.N,GND*%
X61560000Y-38050000D03*
%TO.P,C150,2*%
%TO.N,+5V*%
X61560000Y-32970000D03*
%TD*%
%TO.P,C155,1*%
%TO.N,GND*%
X76360000Y-65640000D03*
%TO.P,C155,2*%
%TO.N,+5V*%
X76360000Y-60560000D03*
%TD*%
%TO.P,C151,1*%
%TO.N,GND*%
X38850000Y-86840000D03*
%TO.P,C151,2*%
%TO.N,+5V*%
X38850000Y-81760000D03*
%TD*%
D11*
%TO.P,J150,1,~{RAS}*%
%TO.N,Net-(J150-~{RAS})*%
X45110000Y-43430000D03*
D10*
%TO.P,J150,2,~{CAS}*%
%TO.N,Net-(J150-~{CAS})*%
X45110000Y-45970000D03*
%TO.P,J150,3,AD7*%
%TO.N,unconnected-(J150-AD7-Pad3)*%
X45110000Y-48510000D03*
%TO.P,J150,4,AD6*%
%TO.N,unconnected-(J150-AD6-Pad4)*%
X45110000Y-51050000D03*
%TO.P,J150,5,AD5*%
%TO.N,unconnected-(J150-AD5-Pad5)*%
X45110000Y-53590000D03*
%TO.P,J150,6,AD4*%
%TO.N,unconnected-(J150-AD4-Pad6)*%
X45110000Y-56130000D03*
%TO.P,J150,7,AD3*%
%TO.N,unconnected-(J150-AD3-Pad7)*%
X45110000Y-58670000D03*
%TO.P,J150,8,AD2*%
%TO.N,unconnected-(J150-AD2-Pad8)*%
X45110000Y-61210000D03*
%TO.P,J150,9,AD1*%
%TO.N,unconnected-(J150-AD1-Pad9)*%
X45110000Y-63750000D03*
%TO.P,J150,10,AD0*%
%TO.N,unconnected-(J150-AD0-Pad10)*%
X45110000Y-66290000D03*
%TO.P,J150,11,R/~{W}*%
%TO.N,Net-(J150-R{slash}~{W})*%
X45110000Y-68830000D03*
%TO.P,J150,12,GND*%
%TO.N,GND*%
X45110000Y-71370000D03*
%TO.P,J150,13,MODE*%
%TO.N,/A0*%
X45110000Y-73910000D03*
%TO.P,J150,14,~{CSW}*%
%TO.N,~{CSW}*%
X45110000Y-76450000D03*
%TO.P,J150,15,~{CSR}*%
%TO.N,~{CSR}*%
X45110000Y-78990000D03*
%TO.P,J150,16,~{INT}*%
%TO.N,~{INTVDP}*%
X45110000Y-81530000D03*
%TO.P,J150,17,CD7*%
%TO.N,/D7*%
X45110000Y-84070000D03*
%TO.P,J150,18,CD6*%
%TO.N,/D6*%
X45110000Y-86610000D03*
%TO.P,J150,19,CD5*%
%TO.N,/D5*%
X45110000Y-89150000D03*
%TO.P,J150,20,CD4*%
%TO.N,/D4*%
X45110000Y-91690000D03*
%TO.P,J150,21,CD3*%
%TO.N,/D3*%
X60350000Y-91690000D03*
%TO.P,J150,22,CD2*%
%TO.N,/D2*%
X60350000Y-89150000D03*
%TO.P,J150,23,CD1*%
%TO.N,/D1*%
X60350000Y-86610000D03*
%TO.P,J150,24,CD0*%
%TO.N,/D0*%
X60350000Y-84070000D03*
%TO.P,J150,25,RD7*%
%TO.N,unconnected-(J150-RD7-Pad25)*%
X60350000Y-81530000D03*
%TO.P,J150,26,RD6*%
%TO.N,unconnected-(J150-RD6-Pad26)*%
X60350000Y-78990000D03*
%TO.P,J150,27,RD5*%
%TO.N,unconnected-(J150-RD5-Pad27)*%
X60350000Y-76450000D03*
%TO.P,J150,28,RD4*%
%TO.N,unconnected-(J150-RD4-Pad28)*%
X60350000Y-73910000D03*
%TO.P,J150,29,RD3*%
%TO.N,unconnected-(J150-RD3-Pad29)*%
X60350000Y-71370000D03*
%TO.P,J150,30,RD2*%
%TO.N,unconnected-(J150-RD2-Pad30)*%
X60350000Y-68830000D03*
%TO.P,J150,31,RD1*%
%TO.N,unconnected-(J150-RD1-Pad31)*%
X60350000Y-66290000D03*
%TO.P,J150,32,RD0*%
%TO.N,unconnected-(J150-RD0-Pad32)*%
X60350000Y-63750000D03*
%TO.P,J150,33,VCC*%
%TO.N,+5V*%
X60350000Y-61210000D03*
%TO.P,J150,34,~{RESET}/SYNC*%
%TO.N,~{RST}*%
X60350000Y-58670000D03*
%TO.P,J150,35,B-Y*%
%TO.N,B-Y*%
X60350000Y-56130000D03*
%TO.P,J150,36,Y*%
%TO.N,Y*%
X60350000Y-53590000D03*
%TO.P,J150,37,GROMCLK*%
%TO.N,unconnected-(J150-GROMCLK-Pad37)*%
X60350000Y-51050000D03*
%TO.P,J150,38,R-Y*%
%TO.N,R-Y*%
X60350000Y-48510000D03*
%TO.P,J150,39,XTAL2*%
%TO.N,XTAL2*%
X60350000Y-45970000D03*
%TO.P,J150,40,XTAL1*%
%TO.N,XTAL1*%
X60350000Y-43430000D03*
%TD*%
%TO.P,IC152,16,VSS*%
%TO.N,GND*%
X35865000Y-86310000D03*
%TO.P,IC152,15,~{CAS}*%
%TO.N,~{VCAS}*%
X35865000Y-88850000D03*
%TO.P,IC152,14,OUT*%
%TO.N,/VD4*%
X35865000Y-91390000D03*
%TO.P,IC152,13,A6*%
%TO.N,/VAD7*%
X35865000Y-93930000D03*
%TO.P,IC152,12,A3*%
%TO.N,/VAD4*%
X35865000Y-96470000D03*
%TO.P,IC152,11,A4*%
%TO.N,/VAD5*%
X35865000Y-99010000D03*
%TO.P,IC152,10,A5*%
%TO.N,/VAD6*%
X35865000Y-101550000D03*
%TO.P,IC152,9,VCC*%
%TO.N,+5V*%
X35865000Y-104090000D03*
%TO.P,IC152,8,VDD*%
X28245000Y-104090000D03*
%TO.P,IC152,7,A1*%
%TO.N,/VAD2*%
X28245000Y-101550000D03*
%TO.P,IC152,6,A2*%
%TO.N,/VAD3*%
X28245000Y-99010000D03*
%TO.P,IC152,5,A0*%
%TO.N,/VAD1*%
X28245000Y-96470000D03*
%TO.P,IC152,4,~{RAS}*%
%TO.N,~{VRAS}*%
X28245000Y-93930000D03*
%TO.P,IC152,3,~{WE}*%
%TO.N,VR{slash}~{W}*%
X28245000Y-91390000D03*
%TO.P,IC152,2,IN*%
%TO.N,/VAD4*%
X28245000Y-88850000D03*
D11*
%TO.P,IC152,1,VBB*%
%TO.N,GND*%
X28245000Y-86310000D03*
%TD*%
D17*
%TO.N,+5V*%
X48785000Y-63535000D03*
%TO.N,/VAD2*%
X68685200Y-67470000D03*
%TO.N,/VAD1*%
X43520000Y-59990000D03*
X31920000Y-53740000D03*
X32170000Y-77560000D03*
%TO.N,/VAD6*%
X42241800Y-29967900D03*
X41684200Y-101187300D03*
%TO.N,/VD6*%
X53214100Y-53598981D03*
%TO.N,/VD5*%
X49320000Y-75490000D03*
%TO.N,~{VRAS}*%
X30691900Y-73510200D03*
X31440000Y-90340000D03*
X62113700Y-54817900D03*
%TO.N,/VAD4*%
X32677831Y-73372169D03*
X69895300Y-58969400D03*
%TO.N,/VD7*%
X61903600Y-73989600D03*
X63766000Y-58624200D03*
%TO.N,/VAD2*%
X41659900Y-102924600D03*
%TO.N,/VAD3*%
X39470000Y-108475100D03*
%TO.N,/VD2*%
X54715900Y-69148200D03*
%TO.N,/VD0*%
X51703300Y-68654200D03*
%TO.N,/VD1*%
X62740700Y-85448200D03*
%TO.N,VR{slash}~{W}*%
X31166900Y-66237500D03*
X33190500Y-42371000D03*
%TO.N,/VAD1*%
X49110000Y-41120000D03*
%TD*%
D18*
%TO.N,/VD5*%
X58380000Y-76150000D02*
X58380000Y-77900000D01*
X57720000Y-75490000D02*
X58380000Y-76150000D01*
X49320000Y-75490000D02*
X57720000Y-75490000D01*
X58380000Y-77900000D02*
X56980000Y-79300000D01*
D19*
%TO.N,+5V*%
X48785000Y-63535000D02*
X49310000Y-64060000D01*
D18*
%TO.N,/VD4*%
X40170600Y-95695600D02*
X35865000Y-91390000D01*
X48277380Y-95695600D02*
X40170600Y-95695600D01*
X48720979Y-95252000D02*
X48277380Y-95695600D01*
X55420000Y-94320000D02*
X54488000Y-95252000D01*
X54488000Y-95252000D02*
X48720979Y-95252000D01*
X55420000Y-77100000D02*
X55420000Y-94320000D01*
X55760000Y-76760000D02*
X55420000Y-77100000D01*
X56980000Y-76760000D02*
X55760000Y-76760000D01*
D19*
%TO.N,GND*%
X46621000Y-72881000D02*
X45110000Y-71370000D01*
X58729000Y-72881000D02*
X46621000Y-72881000D01*
X61560000Y-72590000D02*
X59020000Y-72590000D01*
X62940000Y-71210000D02*
X61560000Y-72590000D01*
X79529000Y-71210000D02*
X62940000Y-71210000D01*
X59020000Y-72590000D02*
X58729000Y-72881000D01*
D20*
X79529000Y-71210000D02*
X79529000Y-86870000D01*
D18*
%TO.N,/VAD2*%
X68675200Y-67460000D02*
X68685200Y-67470000D01*
X65760000Y-67460000D02*
X68675200Y-67460000D01*
%TO.N,/VAD1*%
X31940000Y-55470000D02*
X33871000Y-57401000D01*
X38363000Y-57401000D02*
X39326000Y-58364000D01*
X31940000Y-53820000D02*
X31940000Y-55470000D01*
X33871000Y-57401000D02*
X38363000Y-57401000D01*
X31970000Y-53770000D02*
X31990000Y-53770000D01*
X31990000Y-53770000D02*
X31940000Y-53820000D01*
X28245000Y-53710000D02*
X31910000Y-53710000D01*
X31910000Y-53710000D02*
X31970000Y-53770000D01*
X43520000Y-59990000D02*
X53920000Y-59990000D01*
D19*
%TO.N,+5V*%
X49310000Y-64060000D02*
X56980000Y-64060000D01*
X47760000Y-62510000D02*
X48785000Y-63535000D01*
X43390000Y-62510000D02*
X47760000Y-62510000D01*
X43041000Y-62859000D02*
X43390000Y-62510000D01*
X39689000Y-62859000D02*
X43041000Y-62859000D01*
X38850000Y-62020000D02*
X39689000Y-62859000D01*
X38850000Y-60680000D02*
X38850000Y-62020000D01*
D18*
%TO.N,/VAD1*%
X39326000Y-58364000D02*
X41212000Y-60250000D01*
%TO.N,/VAD4*%
X32677831Y-73417831D02*
X34340000Y-75080000D01*
X34340000Y-75080000D02*
X35865000Y-75080000D01*
X32677831Y-73372169D02*
X32677831Y-73417831D01*
%TO.N,/VAD1*%
X30725000Y-77560000D02*
X28245000Y-75080000D01*
X32170000Y-77560000D02*
X30725000Y-77560000D01*
X54670000Y-59240000D02*
X54670000Y-57590000D01*
X53920000Y-59990000D02*
X54670000Y-59240000D01*
X43207000Y-59990000D02*
X43520000Y-59990000D01*
X42947000Y-60250000D02*
X43207000Y-59990000D01*
X41212000Y-60250000D02*
X42947000Y-60250000D01*
%TO.N,VR{slash}~{W}*%
X26990000Y-68745000D02*
X28245000Y-70000000D01*
X27542500Y-66237500D02*
X26990000Y-66790000D01*
X31166900Y-66237500D02*
X27542500Y-66237500D01*
X26990000Y-66790000D02*
X26990000Y-68745000D01*
%TO.N,/VAD1*%
X54678400Y-57598400D02*
X54670000Y-57590000D01*
X55828300Y-57598400D02*
X54678400Y-57598400D01*
X52950000Y-47240000D02*
X54670000Y-48960000D01*
X44110000Y-47240000D02*
X52950000Y-47240000D01*
X43770000Y-45250000D02*
X43770000Y-46900000D01*
X45728300Y-44581700D02*
X44438300Y-44581700D01*
X54670000Y-48960000D02*
X54670000Y-57590000D01*
X44438300Y-44581700D02*
X43770000Y-45250000D01*
X45729000Y-44581000D02*
X45728300Y-44581700D01*
X49110000Y-43770000D02*
X48299000Y-44581000D01*
X43770000Y-46900000D02*
X44110000Y-47240000D01*
X49110000Y-41120000D02*
X49110000Y-43770000D01*
X48299000Y-44581000D02*
X45729000Y-44581000D01*
%TO.N,~{VCAS}*%
X72036800Y-44746800D02*
X73380000Y-46090000D01*
X64847900Y-44746800D02*
X72036800Y-44746800D01*
X64802100Y-44701000D02*
X64847900Y-44746800D01*
X64784820Y-44701000D02*
X64802100Y-44701000D01*
X64609000Y-44525180D02*
X64784820Y-44701000D01*
X64609000Y-44507900D02*
X64609000Y-44525180D01*
X60409000Y-40307900D02*
X64609000Y-44507900D01*
X59300100Y-34740100D02*
X60409000Y-35849000D01*
X52231400Y-33751400D02*
X53220100Y-34740100D01*
X53220100Y-34740100D02*
X59300100Y-34740100D01*
X52231400Y-31323500D02*
X52231400Y-33751400D01*
X44476200Y-30508800D02*
X51416700Y-30508800D01*
X51416700Y-30508800D02*
X52231400Y-31323500D01*
X43280000Y-31705000D02*
X44476200Y-30508800D01*
X60409000Y-35849000D02*
X60409000Y-40307900D01*
%TO.N,/VAD7*%
X65760000Y-46089900D02*
X65760000Y-46090000D01*
X65465200Y-46089900D02*
X65760000Y-46089900D01*
X59830000Y-36800000D02*
X59830000Y-40454700D01*
X49459700Y-35889700D02*
X58919700Y-35889700D01*
X58919700Y-35889700D02*
X59830000Y-36800000D01*
X48360000Y-34790000D02*
X49459700Y-35889700D01*
X48360000Y-31705000D02*
X48360000Y-34790000D01*
X59830000Y-40454700D02*
X65465200Y-46089900D01*
%TO.N,/VD6*%
X53214100Y-51144100D02*
X53214100Y-53598981D01*
X42369900Y-49899000D02*
X51969000Y-49899000D01*
X51969000Y-49899000D02*
X53214100Y-51144100D01*
X42178900Y-50090000D02*
X42369900Y-49899000D01*
X35865000Y-48630000D02*
X37325000Y-50090000D01*
X37325000Y-50090000D02*
X42178900Y-50090000D01*
%TO.N,Net-(J150-~{CAS})*%
X62870000Y-49780000D02*
X63010000Y-49640000D01*
X59624136Y-49780000D02*
X62870000Y-49780000D01*
X59273293Y-50076707D02*
X59624136Y-49780000D01*
X58820000Y-50530000D02*
X59273293Y-50076707D01*
X58645600Y-52564400D02*
X58820000Y-52390000D01*
X55440000Y-52210000D02*
X55794400Y-52564400D01*
X55794400Y-52564400D02*
X58645600Y-52564400D01*
X58820000Y-52390000D02*
X58820000Y-50530000D01*
X55440000Y-48010000D02*
X55440000Y-52210000D01*
X53400000Y-45970000D02*
X55440000Y-48010000D01*
X45110000Y-45970000D02*
X53400000Y-45970000D01*
%TO.N,/VD0*%
X52100000Y-66600000D02*
X51703300Y-66996700D01*
X56980000Y-66600000D02*
X52100000Y-66600000D01*
X51703300Y-66996700D02*
X51703300Y-68654200D01*
%TO.N,/VD2*%
X54458200Y-69405900D02*
X54715900Y-69148200D01*
X51392100Y-69405900D02*
X54458200Y-69405900D01*
X50951600Y-68965400D02*
X51392100Y-69405900D01*
X50951600Y-65878400D02*
X50951600Y-68965400D01*
X51440000Y-65390000D02*
X50951600Y-65878400D01*
X61995900Y-66307100D02*
X60756300Y-65067500D01*
X60756300Y-65067500D02*
X58872500Y-65067500D01*
X58550000Y-65390000D02*
X51440000Y-65390000D01*
X58872500Y-65067500D02*
X58550000Y-65390000D01*
X69687100Y-66307100D02*
X61995900Y-66307100D01*
X73380000Y-70000000D02*
X69687100Y-66307100D01*
%TO.N,Net-(J150-R{slash}~{W})*%
X61805600Y-67625600D02*
X63010000Y-68830000D01*
X58504200Y-67625600D02*
X61805600Y-67625600D01*
X58307300Y-67822500D02*
X58504200Y-67625600D01*
X55897500Y-67822500D02*
X58307300Y-67822500D01*
X55634400Y-68085600D02*
X55897500Y-67822500D01*
X55634400Y-69292700D02*
X55634400Y-68085600D01*
X55026975Y-69899200D02*
X55172775Y-69753400D01*
X55172775Y-69753400D02*
X55173700Y-69753400D01*
X54665721Y-69906900D02*
X54673421Y-69899200D01*
X55173700Y-69753400D02*
X55634400Y-69292700D01*
X50789656Y-69906900D02*
X54665721Y-69906900D01*
X54673421Y-69899200D02*
X55026975Y-69899200D01*
X49712756Y-68830000D02*
X50789656Y-69906900D01*
X45110000Y-68830000D02*
X49712756Y-68830000D01*
%TO.N,VR{slash}~{W}*%
X60091200Y-70000000D02*
X65760000Y-70000000D01*
X59681900Y-70409300D02*
X60091200Y-70000000D01*
X49850000Y-70201100D02*
X50058200Y-70409300D01*
X43218900Y-70201100D02*
X49850000Y-70201100D01*
X41740000Y-71680000D02*
X43218900Y-70201100D01*
X50058200Y-70409300D02*
X59681900Y-70409300D01*
%TO.N,/VAD3*%
X32080000Y-102820000D02*
X28270000Y-99010000D01*
X36228900Y-102820000D02*
X32080000Y-102820000D01*
X39470000Y-108475100D02*
X38896500Y-108475100D01*
X38141600Y-104732700D02*
X36228900Y-102820000D01*
X28270000Y-99010000D02*
X28245000Y-99010000D01*
X38896500Y-108475100D02*
X38141600Y-107720200D01*
X38141600Y-107720200D02*
X38141600Y-104732700D01*
%TO.N,/VD1*%
X64872500Y-87580000D02*
X62740700Y-85448200D01*
X69570000Y-87580000D02*
X64872500Y-87580000D01*
X73380000Y-91390000D02*
X69570000Y-87580000D01*
%TO.N,/VAD7*%
X48928500Y-95753000D02*
X48360000Y-96321500D01*
X57697000Y-95753000D02*
X48928500Y-95753000D01*
X58250000Y-95200000D02*
X57697000Y-95753000D01*
X72110000Y-95200000D02*
X58250000Y-95200000D01*
X73380000Y-93930000D02*
X72110000Y-95200000D01*
%TO.N,/VAD4*%
X63840200Y-96253200D02*
X65212100Y-97625100D01*
X65212100Y-97625100D02*
X72224900Y-97625100D01*
X61459200Y-96253200D02*
X63840200Y-96253200D01*
X72224900Y-97625100D02*
X73380000Y-96470000D01*
X53595300Y-96254700D02*
X61457700Y-96254700D01*
X61457700Y-96254700D02*
X61459200Y-96253200D01*
X50900000Y-98950000D02*
X53595300Y-96254700D01*
%TO.N,/VAD5*%
X72228000Y-100162000D02*
X73380000Y-99010000D01*
X65256600Y-100162000D02*
X72228000Y-100162000D01*
X64585500Y-99490900D02*
X65256600Y-100162000D01*
X64585500Y-97707900D02*
X64585500Y-99490900D01*
X61666900Y-96754900D02*
X63632500Y-96754900D01*
X63632500Y-96754900D02*
X64585500Y-97707900D01*
X55633600Y-96756400D02*
X61665400Y-96756400D01*
X53440000Y-98950000D02*
X55633600Y-96756400D01*
X61665400Y-96756400D02*
X61666900Y-96754900D01*
%TO.N,/VAD6*%
X72196100Y-102733900D02*
X73380000Y-101550000D01*
X65293900Y-102733900D02*
X72196100Y-102733900D01*
X61874600Y-97256600D02*
X63424800Y-97256600D01*
X61874160Y-97256160D02*
X61874600Y-97256600D01*
X64083800Y-101523800D02*
X65293900Y-102733900D01*
X57672600Y-97257400D02*
X61872921Y-97257400D01*
X55980000Y-98950000D02*
X57672600Y-97257400D01*
X61872921Y-97257400D02*
X61874160Y-97256160D01*
X63424800Y-97256600D02*
X64083800Y-97915600D01*
X64083800Y-97915600D02*
X64083800Y-101523800D01*
%TO.N,/VAD4*%
X69895300Y-57194700D02*
X73380000Y-53710000D01*
X69895300Y-58969400D02*
X69895300Y-57194700D01*
%TO.N,/VD7*%
X74588100Y-51652600D02*
X74588100Y-49838100D01*
X73800700Y-52440000D02*
X74588100Y-51652600D01*
X71277200Y-52440000D02*
X73800700Y-52440000D01*
X64870200Y-57520000D02*
X66197200Y-57520000D01*
X66197200Y-57520000D02*
X71277200Y-52440000D01*
X74588100Y-49838100D02*
X73380000Y-48630000D01*
X63766000Y-58624200D02*
X64870200Y-57520000D01*
%TO.N,VR{slash}~{W}*%
X64370200Y-47240200D02*
X65760000Y-48630000D01*
X50006700Y-40476700D02*
X59044300Y-40476700D01*
X49630000Y-40100000D02*
X50006700Y-40476700D01*
X64370200Y-45802600D02*
X64370200Y-47240200D01*
X49630000Y-38480000D02*
X49630000Y-40100000D01*
X59044300Y-40476700D02*
X64370200Y-45802600D01*
X46445200Y-38124000D02*
X49274000Y-38124000D01*
X45244200Y-39325000D02*
X46445200Y-38124000D01*
X49274000Y-38124000D02*
X49630000Y-38480000D01*
%TO.N,/VAD1*%
X61677300Y-55590000D02*
X63880000Y-55590000D01*
X61064500Y-54977200D02*
X61677300Y-55590000D01*
X59502800Y-54977200D02*
X61064500Y-54977200D01*
X58488100Y-55991900D02*
X59502800Y-54977200D01*
X58488100Y-56911900D02*
X58488100Y-55991900D01*
X63880000Y-55590000D02*
X65760000Y-53710000D01*
X57801600Y-57598400D02*
X58488100Y-56911900D01*
X55828300Y-57598400D02*
X57801600Y-57598400D01*
%TO.N,~{VRAS}*%
X65760000Y-51171600D02*
X62113700Y-54817900D01*
X65760000Y-51170000D02*
X65760000Y-51171600D01*
X61958300Y-90128300D02*
X65760000Y-93930000D01*
X65760000Y-72540000D02*
X61958300Y-76341700D01*
X61958300Y-76341700D02*
X61958300Y-90128300D01*
%TO.N,/VD7*%
X60788300Y-75104900D02*
X61903600Y-73989600D01*
X59198300Y-75972900D02*
X60066300Y-75104900D01*
X59198300Y-82161700D02*
X59198300Y-75972900D01*
X60066300Y-75104900D02*
X60788300Y-75104900D01*
X56980000Y-84380000D02*
X59198300Y-82161700D01*
%TO.N,/VAD3*%
X28270000Y-56250000D02*
X28245000Y-56250000D01*
X37698000Y-59942000D02*
X31962000Y-59942000D01*
X38117800Y-59522200D02*
X37698000Y-59942000D01*
X39722200Y-59522200D02*
X38117800Y-59522200D01*
X41720000Y-61520000D02*
X39722200Y-59522200D01*
X31962000Y-59942000D02*
X28270000Y-56250000D01*
X41740000Y-61520000D02*
X41720000Y-61520000D01*
%TO.N,/VAD5*%
X40398300Y-56250000D02*
X35865000Y-56250000D01*
X40588300Y-56440000D02*
X40398300Y-56250000D01*
X41740000Y-56440000D02*
X40588300Y-56440000D01*
%TO.N,/VAD4*%
X42938800Y-57781200D02*
X41740000Y-58980000D01*
X42938800Y-55997900D02*
X42938800Y-57781200D01*
X37310000Y-55170000D02*
X42110900Y-55170000D01*
X35865000Y-53725000D02*
X37310000Y-55170000D01*
X42110900Y-55170000D02*
X42938800Y-55997900D01*
X35865000Y-53710000D02*
X35865000Y-53725000D01*
%TO.N,/VAD5*%
X29634800Y-68849800D02*
X28245000Y-67460000D01*
X29634800Y-71389800D02*
X29634800Y-68849800D01*
X35865000Y-77620000D02*
X29634800Y-71389800D01*
%TO.N,/VAD4*%
X45324100Y-100116900D02*
X49733100Y-100116900D01*
X49733100Y-100116900D02*
X50900000Y-98950000D01*
X43958800Y-96948800D02*
X44550000Y-97540000D01*
X44550000Y-99342800D02*
X45324100Y-100116900D01*
X36343800Y-96948800D02*
X43958800Y-96948800D01*
X35865000Y-96470000D02*
X36343800Y-96948800D01*
X44550000Y-97540000D02*
X44550000Y-99342800D01*
%TO.N,/VAD5*%
X41570000Y-97560000D02*
X37315000Y-97560000D01*
X42010000Y-98000000D02*
X41570000Y-97560000D01*
X42645300Y-100635300D02*
X42010000Y-100000000D01*
X42010000Y-100000000D02*
X42010000Y-98000000D01*
X37315000Y-97560000D02*
X35865000Y-99010000D01*
X51754700Y-100635300D02*
X42645300Y-100635300D01*
X53440000Y-98950000D02*
X51754700Y-100635300D01*
%TO.N,/VAD7*%
X38256500Y-96321500D02*
X35865000Y-93930000D01*
X48360000Y-96321500D02*
X38256500Y-96321500D01*
%TO.N,/VAD4*%
X40569200Y-88430800D02*
X38899400Y-90100600D01*
X40569200Y-79784200D02*
X40569200Y-88430800D01*
X35865000Y-75080000D02*
X40569200Y-79784200D01*
X38899400Y-90100600D02*
X34655000Y-90100600D01*
X34655000Y-90100600D02*
X34655000Y-95260000D01*
X34655000Y-95260000D02*
X35865000Y-96470000D01*
%TO.N,/VAD2*%
X52334600Y-102924600D02*
X41659900Y-102924600D01*
X55980000Y-106570000D02*
X52334600Y-102924600D01*
%TO.N,~{VRAS}*%
X31440000Y-90340000D02*
X31440000Y-90380000D01*
X31440000Y-90380000D02*
X28245000Y-93575000D01*
X28245000Y-93575000D02*
X28245000Y-93930000D01*
%TO.N,/VAD2*%
X27020000Y-60015000D02*
X28245000Y-58790000D01*
X27020000Y-62740000D02*
X27020000Y-60015000D01*
X40110900Y-63582600D02*
X27862600Y-63582600D01*
X40588300Y-64060000D02*
X40110900Y-63582600D01*
X27862600Y-63582600D02*
X27020000Y-62740000D01*
X41740000Y-64060000D02*
X40588300Y-64060000D01*
%TO.N,/VAD6*%
X27040000Y-54610000D02*
X27040000Y-52440000D01*
X27410000Y-54980000D02*
X27040000Y-54610000D01*
X29025200Y-54980000D02*
X27410000Y-54980000D01*
X32835200Y-58790000D02*
X29025200Y-54980000D01*
X35865000Y-58790000D02*
X32835200Y-58790000D01*
X27040000Y-47295000D02*
X28245000Y-46090000D01*
X27040000Y-52440000D02*
X27040000Y-47295000D01*
X27040000Y-52440000D02*
X27884000Y-52440000D01*
X54242900Y-29967900D02*
X55980000Y-31705000D01*
X42241800Y-29967900D02*
X54242900Y-29967900D01*
%TO.N,/VAD3*%
X44982700Y-37622300D02*
X43280000Y-39325000D01*
X51737300Y-37622300D02*
X44982700Y-37622300D01*
X53440000Y-39325000D02*
X51737300Y-37622300D01*
%TO.N,~{VRAS}*%
X34513000Y-44902000D02*
X28245000Y-51170000D01*
X41740000Y-44902000D02*
X34513000Y-44902000D01*
X48360000Y-40760000D02*
X48360000Y-39325000D01*
X47742500Y-41377500D02*
X48360000Y-40760000D01*
X41740000Y-43770000D02*
X44132500Y-41377500D01*
X44132500Y-41377500D02*
X47742500Y-41377500D01*
X41740000Y-44902000D02*
X41740000Y-43770000D01*
%TO.N,R-Y*%
X56980000Y-51360000D02*
X60350000Y-48510000D01*
%TO.N,/VAD6*%
X41740000Y-53900000D02*
X40588300Y-53900000D01*
X39128300Y-52440000D02*
X27884000Y-52440000D01*
X40588300Y-53900000D02*
X39128300Y-52440000D01*
X53742700Y-101187300D02*
X41684200Y-101187300D01*
X55980000Y-98950000D02*
X53742700Y-101187300D01*
%TO.N,Y*%
X56980000Y-56440000D02*
X60350000Y-53590000D01*
%TO.N,~{VRAS}*%
X29721700Y-72540000D02*
X30691900Y-73510200D01*
X28245000Y-72540000D02*
X29721700Y-72540000D01*
X41740000Y-46280000D02*
X41740000Y-44902000D01*
%TO.N,/VAD4*%
X28245000Y-88850000D02*
X29396700Y-88850000D01*
X33404400Y-88850000D02*
X29396700Y-88850000D01*
X34655000Y-90100600D02*
X33404400Y-88850000D01*
%TO.N,XTAL1*%
X56980000Y-46280000D02*
X60350000Y-43430000D01*
%TO.N,/VAD7*%
X37206700Y-51360000D02*
X37016700Y-51170000D01*
X41740000Y-51360000D02*
X37206700Y-51360000D01*
X35865000Y-51170000D02*
X37016700Y-51170000D01*
X71991700Y-51170000D02*
X73380000Y-51170000D01*
X66911700Y-46090000D02*
X71991700Y-51170000D01*
X65760000Y-46090000D02*
X66911700Y-46090000D01*
X48360000Y-98950000D02*
X48360000Y-97798300D01*
X48360000Y-97798300D02*
X48360000Y-96321500D01*
%TO.N,B-Y*%
X56980000Y-58980000D02*
X60350000Y-56130000D01*
%TO.N,~{VCAS}*%
X37858300Y-46090000D02*
X35865000Y-46090000D01*
X40588300Y-48820000D02*
X37858300Y-46090000D01*
X41740000Y-48820000D02*
X40588300Y-48820000D01*
%TO.N,XTAL2*%
X56980000Y-48820000D02*
X60350000Y-45970000D01*
%TO.N,~{CSW}*%
X41740000Y-79300000D02*
X45110000Y-76450000D01*
%TO.N,/D3*%
X56980000Y-94540000D02*
X60350000Y-91690000D01*
%TO.N,VR{slash}~{W}*%
X45820000Y-39325000D02*
X45244200Y-39325000D01*
X42198200Y-42371000D02*
X33190500Y-42371000D01*
X45244200Y-39325000D02*
X42198200Y-42371000D01*
%TO.N,~{INTVDP}*%
X41740000Y-84380000D02*
X45110000Y-81530000D01*
%TO.N,/D0*%
X56980000Y-86920000D02*
X60350000Y-84070000D01*
%TO.N,~{CSR}*%
X41740000Y-81840000D02*
X45110000Y-78990000D01*
%TO.N,~{RST}*%
X56980000Y-61520000D02*
X60350000Y-58670000D01*
%TO.N,/D1*%
X56980000Y-89460000D02*
X60350000Y-86610000D01*
%TO.N,/D6*%
X41740000Y-89460000D02*
X45110000Y-86610000D01*
%TO.N,/A0*%
X41740000Y-76760000D02*
X45110000Y-73910000D01*
%TO.N,/D7*%
X41740000Y-86920000D02*
X45110000Y-84070000D01*
%TO.N,/D4*%
X41740000Y-94540000D02*
X45110000Y-91690000D01*
%TO.N,/D5*%
X41740000Y-92000000D02*
X45110000Y-89150000D01*
%TO.N,/D2*%
X56980000Y-92000000D02*
X60350000Y-89150000D01*
D20*
%TO.N,+5V*%
X75420000Y-82700000D02*
X76360000Y-81760000D01*
X73380000Y-82700000D02*
X75420000Y-82700000D01*
X65760000Y-82700000D02*
X73380000Y-82700000D01*
X64020000Y-82700000D02*
X65760000Y-82700000D01*
X63010000Y-81690000D02*
X64020000Y-82700000D01*
X63010000Y-78990000D02*
X63010000Y-81690000D01*
X65760000Y-104090000D02*
X73380000Y-104090000D01*
X62390000Y-98950000D02*
X63010000Y-98330000D01*
X58520000Y-98950000D02*
X62390000Y-98950000D01*
X58520000Y-98950000D02*
X58520000Y-106570000D01*
X61670000Y-106570000D02*
X61690000Y-106550000D01*
X58520000Y-106570000D02*
X61670000Y-106570000D01*
X28245000Y-104090000D02*
X35865000Y-104090000D01*
X35865000Y-61330000D02*
X28245000Y-61330000D01*
X38200000Y-61330000D02*
X38850000Y-60680000D01*
X35865000Y-61330000D02*
X38200000Y-61330000D01*
D21*
X73380000Y-61330000D02*
X76360000Y-60560000D01*
X65760000Y-61330000D02*
X73380000Y-61330000D01*
X62970000Y-61268100D02*
X63010000Y-59800000D01*
X62970000Y-61268100D02*
X65760000Y-61330000D01*
X63010000Y-59800000D02*
X65760000Y-61330000D01*
X56980000Y-64060000D02*
X60350000Y-61210000D01*
X63010000Y-59800000D02*
X60350000Y-61210000D01*
X60350000Y-61210000D02*
X62970000Y-61268100D01*
D20*
X28245000Y-82700000D02*
X35865000Y-82700000D01*
X37910000Y-82700000D02*
X38850000Y-81760000D01*
X35865000Y-82700000D02*
X37910000Y-82700000D01*
D21*
%TO.N,GND*%
X28245000Y-64920000D02*
X35865000Y-64920000D01*
X28245000Y-64920000D02*
X24720000Y-64920000D01*
X35865000Y-64920000D02*
X38850000Y-65760000D01*
X40190000Y-74220000D02*
X41740000Y-74220000D01*
X38850000Y-72880000D02*
X40190000Y-74220000D01*
X38850000Y-65760000D02*
X38850000Y-72880000D01*
X45110000Y-71370000D02*
X41740000Y-74220000D01*
D20*
X24441000Y-86310000D02*
X24421000Y-86330000D01*
X28245000Y-86310000D02*
X24441000Y-86310000D01*
X35865000Y-86310000D02*
X28245000Y-86310000D01*
X36395000Y-86840000D02*
X35865000Y-86310000D01*
X38850000Y-86840000D02*
X36395000Y-86840000D01*
X40740000Y-98950000D02*
X40740000Y-106570000D01*
X63310000Y-103090000D02*
X63310000Y-114189000D01*
X61690000Y-101470000D02*
X63310000Y-103090000D01*
X63310000Y-114189000D02*
X40740000Y-114189000D01*
X79499000Y-86840000D02*
X79529000Y-86870000D01*
X76360000Y-86840000D02*
X79499000Y-86840000D01*
X75830000Y-86310000D02*
X76360000Y-86840000D01*
X73380000Y-86310000D02*
X75830000Y-86310000D01*
X65760000Y-86310000D02*
X73380000Y-86310000D01*
X79479000Y-65640000D02*
X79529000Y-65690000D01*
X76360000Y-65640000D02*
X79479000Y-65640000D01*
X75640000Y-64920000D02*
X76360000Y-65640000D01*
X73380000Y-64920000D02*
X75640000Y-64920000D01*
X65760000Y-64920000D02*
X73380000Y-64920000D01*
X40740000Y-39325000D02*
X40740000Y-31705000D01*
X24501000Y-43550000D02*
X24421000Y-43630000D01*
X28245000Y-43550000D02*
X24501000Y-43550000D01*
X35865000Y-43550000D02*
X28245000Y-43550000D01*
X75461000Y-114189000D02*
X63310000Y-114189000D01*
X79529000Y-110121000D02*
X75461000Y-114189000D01*
X79529000Y-86870000D02*
X79529000Y-110121000D01*
X79529000Y-65690000D02*
X79529000Y-71210000D01*
X79529000Y-45260000D02*
X79529000Y-65690000D01*
X77819000Y-43550000D02*
X79529000Y-45260000D01*
X73380000Y-43550000D02*
X77819000Y-43550000D01*
X64353600Y-29279600D02*
X64353600Y-38210000D01*
X64353500Y-29279500D02*
X64353600Y-29279600D01*
X64342600Y-28890000D02*
X64353500Y-29279500D01*
X41760000Y-28890000D02*
X64342600Y-28890000D01*
X40740000Y-29910000D02*
X41760000Y-28890000D01*
X40740000Y-31705000D02*
X40740000Y-29910000D01*
X39815000Y-32630000D02*
X40740000Y-31705000D01*
X32760000Y-32630000D02*
X39815000Y-32630000D01*
X25610000Y-32630000D02*
X32760000Y-32630000D01*
X24421000Y-33819000D02*
X25610000Y-32630000D01*
X24421000Y-43630000D02*
X24421000Y-33819000D01*
X24421000Y-86330000D02*
X24421000Y-65070000D01*
X24421000Y-110750000D02*
X24421000Y-86330000D01*
X24426000Y-110755000D02*
X24421000Y-110750000D01*
X28360000Y-110755000D02*
X24426000Y-110755000D01*
X24421000Y-65070000D02*
X24421000Y-43630000D01*
X68200000Y-41931000D02*
X68560000Y-41931000D01*
X73121000Y-41931000D02*
X68560000Y-41931000D01*
X73380000Y-42190000D02*
X73121000Y-41931000D01*
X73380000Y-43550000D02*
X73380000Y-42190000D01*
X68560000Y-41931000D02*
X68200000Y-41931000D01*
X65760000Y-41951000D02*
X65740000Y-41931000D01*
X65760000Y-43550000D02*
X65760000Y-41951000D01*
X65740000Y-41931000D02*
X68200000Y-41931000D01*
X64193600Y-38050000D02*
X64353600Y-38210000D01*
X61560000Y-38050000D02*
X64193600Y-38050000D01*
X64588500Y-41931000D02*
X65740000Y-41931000D01*
X64353600Y-41696100D02*
X64588500Y-41931000D01*
X64353600Y-38210000D02*
X64353600Y-41696100D01*
X40740000Y-106570000D02*
X40740000Y-114189000D01*
X28360000Y-113550000D02*
X28360000Y-110755000D01*
X28390000Y-113580000D02*
X28360000Y-113550000D01*
X28390000Y-114189000D02*
X28390000Y-113580000D01*
X40740000Y-114189000D02*
X28390000Y-114189000D01*
X24571000Y-64920000D02*
X24496000Y-64995000D01*
X24496000Y-64995000D02*
X24421000Y-65070000D01*
D18*
X24645000Y-64995000D02*
X24720000Y-64920000D01*
X24496000Y-64995000D02*
X24645000Y-64995000D01*
%TD*%
%TA.AperFunction,Conductor*%
%TO.N,GND*%
G36*
X39522459Y-98230185D02*
G01*
X39568214Y-98282989D01*
X39578158Y-98352147D01*
X39565905Y-98390795D01*
X39535244Y-98450970D01*
X39472009Y-98645586D01*
X39463391Y-98700000D01*
X40424314Y-98700000D01*
X40419920Y-98704394D01*
X40367259Y-98795606D01*
X40340000Y-98897339D01*
X40340000Y-99002661D01*
X40367259Y-99104394D01*
X40419920Y-99195606D01*
X40424314Y-99200000D01*
X39463391Y-99200000D01*
X39472009Y-99254413D01*
X39535244Y-99449029D01*
X39628140Y-99631349D01*
X39748417Y-99796894D01*
X39748417Y-99796895D01*
X39893104Y-99941582D01*
X40058650Y-100061859D01*
X40240968Y-100154754D01*
X40435578Y-100217988D01*
X40490000Y-100226607D01*
X40490000Y-99265686D01*
X40494394Y-99270080D01*
X40585606Y-99322741D01*
X40687339Y-99350000D01*
X40792661Y-99350000D01*
X40894394Y-99322741D01*
X40985606Y-99270080D01*
X40990000Y-99265686D01*
X40990000Y-100226606D01*
X41044421Y-100217988D01*
X41105910Y-100198009D01*
X41175751Y-100196013D01*
X41235584Y-100232093D01*
X41266413Y-100294794D01*
X41258449Y-100364208D01*
X41214221Y-100418298D01*
X41213121Y-100419042D01*
X41110161Y-100487838D01*
X40984738Y-100613261D01*
X40984735Y-100613265D01*
X40886190Y-100760746D01*
X40886183Y-100760759D01*
X40818306Y-100924632D01*
X40818303Y-100924641D01*
X40783700Y-101098604D01*
X40783700Y-101275995D01*
X40818303Y-101449958D01*
X40818306Y-101449967D01*
X40886183Y-101613840D01*
X40886190Y-101613853D01*
X40984735Y-101761334D01*
X40984738Y-101761338D01*
X41110161Y-101886761D01*
X41110165Y-101886764D01*
X41196915Y-101944729D01*
X41241720Y-101998341D01*
X41250427Y-102067666D01*
X41220273Y-102130694D01*
X41196916Y-102150933D01*
X41085861Y-102225138D01*
X40960438Y-102350561D01*
X40960435Y-102350565D01*
X40861890Y-102498046D01*
X40861883Y-102498059D01*
X40794006Y-102661932D01*
X40794003Y-102661941D01*
X40759400Y-102835904D01*
X40759400Y-103013295D01*
X40794003Y-103187258D01*
X40794006Y-103187267D01*
X40861883Y-103351140D01*
X40861890Y-103351153D01*
X40960435Y-103498634D01*
X40960438Y-103498638D01*
X41085861Y-103624061D01*
X41085865Y-103624064D01*
X41233346Y-103722609D01*
X41233359Y-103722616D01*
X41356263Y-103773523D01*
X41397234Y-103790494D01*
X41397236Y-103790494D01*
X41397241Y-103790496D01*
X41571204Y-103825099D01*
X41571207Y-103825100D01*
X41571209Y-103825100D01*
X41748593Y-103825100D01*
X41748594Y-103825099D01*
X41806582Y-103813564D01*
X41922558Y-103790496D01*
X41922561Y-103790494D01*
X41922566Y-103790494D01*
X42086447Y-103722613D01*
X42233935Y-103624064D01*
X42233938Y-103624061D01*
X42246581Y-103611419D01*
X42307904Y-103577934D01*
X42334262Y-103575100D01*
X52013792Y-103575100D01*
X52080831Y-103594785D01*
X52101473Y-103611419D01*
X53547873Y-105057819D01*
X53581358Y-105119142D01*
X53576374Y-105188834D01*
X53534502Y-105244767D01*
X53469038Y-105269184D01*
X53460192Y-105269500D01*
X53337648Y-105269500D01*
X53313329Y-105273351D01*
X53135465Y-105301522D01*
X52940776Y-105364781D01*
X52758386Y-105457715D01*
X52592786Y-105578028D01*
X52448028Y-105722786D01*
X52327715Y-105888386D01*
X52280485Y-105981080D01*
X52232510Y-106031876D01*
X52164689Y-106048671D01*
X52098554Y-106026134D01*
X52059515Y-105981080D01*
X52058883Y-105979840D01*
X52012287Y-105888390D01*
X51997753Y-105868386D01*
X51891971Y-105722786D01*
X51747213Y-105578028D01*
X51581613Y-105457715D01*
X51581612Y-105457714D01*
X51581610Y-105457713D01*
X51493487Y-105412812D01*
X51399223Y-105364781D01*
X51204534Y-105301522D01*
X51029995Y-105273878D01*
X51002352Y-105269500D01*
X50797648Y-105269500D01*
X50773329Y-105273351D01*
X50595465Y-105301522D01*
X50400776Y-105364781D01*
X50218386Y-105457715D01*
X50052786Y-105578028D01*
X49908028Y-105722786D01*
X49787715Y-105888386D01*
X49740485Y-105981080D01*
X49692510Y-106031876D01*
X49624689Y-106048671D01*
X49558554Y-106026134D01*
X49519515Y-105981080D01*
X49518883Y-105979840D01*
X49472287Y-105888390D01*
X49457753Y-105868386D01*
X49351971Y-105722786D01*
X49207213Y-105578028D01*
X49041613Y-105457715D01*
X49041612Y-105457714D01*
X49041610Y-105457713D01*
X48953487Y-105412812D01*
X48859223Y-105364781D01*
X48664534Y-105301522D01*
X48489995Y-105273878D01*
X48462352Y-105269500D01*
X48257648Y-105269500D01*
X48233329Y-105273351D01*
X48055465Y-105301522D01*
X47860776Y-105364781D01*
X47678386Y-105457715D01*
X47512786Y-105578028D01*
X47368028Y-105722786D01*
X47247715Y-105888386D01*
X47200485Y-105981080D01*
X47152510Y-106031876D01*
X47084689Y-106048671D01*
X47018554Y-106026134D01*
X46979515Y-105981080D01*
X46978883Y-105979840D01*
X46932287Y-105888390D01*
X46917753Y-105868386D01*
X46811971Y-105722786D01*
X46667213Y-105578028D01*
X46501613Y-105457715D01*
X46501612Y-105457714D01*
X46501610Y-105457713D01*
X46413487Y-105412812D01*
X46319223Y-105364781D01*
X46124534Y-105301522D01*
X45949995Y-105273878D01*
X45922352Y-105269500D01*
X45717648Y-105269500D01*
X45693329Y-105273351D01*
X45515465Y-105301522D01*
X45320776Y-105364781D01*
X45138386Y-105457715D01*
X44972786Y-105578028D01*
X44828028Y-105722786D01*
X44707715Y-105888386D01*
X44660485Y-105981080D01*
X44612510Y-106031876D01*
X44544689Y-106048671D01*
X44478554Y-106026134D01*
X44439515Y-105981080D01*
X44438883Y-105979840D01*
X44392287Y-105888390D01*
X44377753Y-105868386D01*
X44271971Y-105722786D01*
X44127213Y-105578028D01*
X43961613Y-105457715D01*
X43961612Y-105457714D01*
X43961610Y-105457713D01*
X43873487Y-105412812D01*
X43779223Y-105364781D01*
X43584534Y-105301522D01*
X43409995Y-105273878D01*
X43382352Y-105269500D01*
X43177648Y-105269500D01*
X43153329Y-105273351D01*
X42975465Y-105301522D01*
X42780776Y-105364781D01*
X42598386Y-105457715D01*
X42432786Y-105578028D01*
X42288032Y-105722782D01*
X42288026Y-105722789D01*
X42261227Y-105759675D01*
X42205897Y-105802341D01*
X42136284Y-105808319D01*
X42074489Y-105775712D01*
X42040132Y-105714873D01*
X42037620Y-105700043D01*
X42033596Y-105662620D01*
X41983354Y-105527913D01*
X41983350Y-105527906D01*
X41897190Y-105412812D01*
X41897187Y-105412809D01*
X41782093Y-105326649D01*
X41782086Y-105326645D01*
X41647379Y-105276403D01*
X41647372Y-105276401D01*
X41587844Y-105270000D01*
X40990000Y-105270000D01*
X40990000Y-106254314D01*
X40985606Y-106249920D01*
X40894394Y-106197259D01*
X40792661Y-106170000D01*
X40687339Y-106170000D01*
X40585606Y-106197259D01*
X40494394Y-106249920D01*
X40490000Y-106254314D01*
X40490000Y-105270000D01*
X39892155Y-105270000D01*
X39832627Y-105276401D01*
X39832620Y-105276403D01*
X39697913Y-105326645D01*
X39697906Y-105326649D01*
X39582812Y-105412809D01*
X39582809Y-105412812D01*
X39496649Y-105527906D01*
X39496645Y-105527913D01*
X39446403Y-105662620D01*
X39446401Y-105662627D01*
X39440000Y-105722155D01*
X39440000Y-106320000D01*
X40424314Y-106320000D01*
X40419920Y-106324394D01*
X40367259Y-106415606D01*
X40340000Y-106517339D01*
X40340000Y-106622661D01*
X40367259Y-106724394D01*
X40419920Y-106815606D01*
X40424314Y-106820000D01*
X39440000Y-106820000D01*
X39440000Y-107417830D01*
X39443151Y-107447139D01*
X39430745Y-107515898D01*
X39383134Y-107567035D01*
X39344053Y-107582010D01*
X39207340Y-107609204D01*
X39207337Y-107609205D01*
X39207335Y-107609205D01*
X39207334Y-107609206D01*
X39175282Y-107622481D01*
X39102306Y-107652709D01*
X39082429Y-107654845D01*
X39063701Y-107661831D01*
X39048402Y-107658502D01*
X39032837Y-107660176D01*
X39014962Y-107651228D01*
X38995428Y-107646979D01*
X38973137Y-107630292D01*
X38970358Y-107628901D01*
X38967174Y-107625828D01*
X38828419Y-107487073D01*
X38794934Y-107425750D01*
X38792100Y-107399392D01*
X38792100Y-104668628D01*
X38767102Y-104542961D01*
X38767101Y-104542960D01*
X38767101Y-104542956D01*
X38718065Y-104424573D01*
X38718064Y-104424571D01*
X38697994Y-104394533D01*
X38697994Y-104394532D01*
X38646879Y-104318034D01*
X38646873Y-104318026D01*
X36876769Y-102547923D01*
X36843284Y-102486600D01*
X36848268Y-102416908D01*
X36864132Y-102387357D01*
X36963670Y-102250352D01*
X36977287Y-102231610D01*
X37070220Y-102049219D01*
X37133477Y-101854534D01*
X37165500Y-101652352D01*
X37165500Y-101447648D01*
X37160666Y-101417127D01*
X37133477Y-101245465D01*
X37085760Y-101098609D01*
X37070220Y-101050781D01*
X37070218Y-101050778D01*
X37070218Y-101050776D01*
X37005948Y-100924641D01*
X36977287Y-100868390D01*
X36953138Y-100835151D01*
X36856971Y-100702786D01*
X36712213Y-100558028D01*
X36546614Y-100437715D01*
X36508506Y-100418298D01*
X36453917Y-100390483D01*
X36403123Y-100342511D01*
X36386328Y-100274690D01*
X36408865Y-100208555D01*
X36453917Y-100169516D01*
X36546610Y-100122287D01*
X36629783Y-100061859D01*
X36712213Y-100001971D01*
X36712215Y-100001968D01*
X36712219Y-100001966D01*
X36856966Y-99857219D01*
X36856968Y-99857215D01*
X36856971Y-99857213D01*
X36934502Y-99750499D01*
X36977287Y-99691610D01*
X37070220Y-99509219D01*
X37133477Y-99314534D01*
X37165500Y-99112352D01*
X37165500Y-98907648D01*
X37137345Y-98729887D01*
X37146300Y-98660594D01*
X37172137Y-98622808D01*
X37548127Y-98246819D01*
X37609450Y-98213334D01*
X37635808Y-98210500D01*
X39455420Y-98210500D01*
X39522459Y-98230185D01*
G37*
%TD.AperFunction*%
%TA.AperFunction,Conductor*%
G36*
X49550644Y-70857899D02*
G01*
X49572943Y-70859575D01*
X49586800Y-70868516D01*
X49596230Y-70871285D01*
X49603859Y-70876601D01*
X49610759Y-70881805D01*
X49643530Y-70914576D01*
X49734158Y-70975131D01*
X49750073Y-70985765D01*
X49750074Y-70985765D01*
X49750075Y-70985766D01*
X49768136Y-70993247D01*
X49868456Y-71034801D01*
X49868460Y-71034801D01*
X49868461Y-71034802D01*
X49994128Y-71059800D01*
X49994131Y-71059800D01*
X55643418Y-71059800D01*
X55710457Y-71079485D01*
X55756212Y-71132289D01*
X55766156Y-71201447D01*
X55761350Y-71222113D01*
X55747516Y-71264690D01*
X55711522Y-71375465D01*
X55679500Y-71577648D01*
X55679500Y-71782351D01*
X55711522Y-71984534D01*
X55774781Y-72179223D01*
X55867715Y-72361613D01*
X55988028Y-72527213D01*
X56132786Y-72671971D01*
X56287749Y-72784556D01*
X56298390Y-72792287D01*
X56352998Y-72820111D01*
X56391080Y-72839515D01*
X56441876Y-72887490D01*
X56458671Y-72955311D01*
X56436134Y-73021446D01*
X56391080Y-73060485D01*
X56298386Y-73107715D01*
X56132786Y-73228028D01*
X55988028Y-73372786D01*
X55867715Y-73538386D01*
X55774781Y-73720776D01*
X55711522Y-73915465D01*
X55685733Y-74078293D01*
X55679500Y-74117648D01*
X55679500Y-74322352D01*
X55693353Y-74409815D01*
X55711523Y-74524535D01*
X55711523Y-74524538D01*
X55761121Y-74677182D01*
X55763116Y-74747023D01*
X55727036Y-74806856D01*
X55664335Y-74837684D01*
X55643190Y-74839500D01*
X49994362Y-74839500D01*
X49927323Y-74819815D01*
X49906681Y-74803181D01*
X49894038Y-74790538D01*
X49894034Y-74790535D01*
X49746553Y-74691990D01*
X49746540Y-74691983D01*
X49582667Y-74624106D01*
X49582658Y-74624103D01*
X49408694Y-74589500D01*
X49408691Y-74589500D01*
X49231309Y-74589500D01*
X49231306Y-74589500D01*
X49057341Y-74624103D01*
X49057332Y-74624106D01*
X48893459Y-74691983D01*
X48893446Y-74691990D01*
X48745965Y-74790535D01*
X48745961Y-74790538D01*
X48620538Y-74915961D01*
X48620535Y-74915965D01*
X48521990Y-75063446D01*
X48521983Y-75063459D01*
X48454106Y-75227332D01*
X48454103Y-75227341D01*
X48419500Y-75401304D01*
X48419500Y-75578695D01*
X48454103Y-75752658D01*
X48454106Y-75752667D01*
X48521983Y-75916540D01*
X48521990Y-75916553D01*
X48620535Y-76064034D01*
X48620538Y-76064038D01*
X48745961Y-76189461D01*
X48745965Y-76189464D01*
X48893446Y-76288009D01*
X48893459Y-76288016D01*
X48984762Y-76325834D01*
X49057334Y-76355894D01*
X49057336Y-76355894D01*
X49057341Y-76355896D01*
X49231304Y-76390499D01*
X49231307Y-76390500D01*
X49231309Y-76390500D01*
X49408693Y-76390500D01*
X49408694Y-76390499D01*
X49490812Y-76374165D01*
X49582658Y-76355896D01*
X49582661Y-76355894D01*
X49582666Y-76355894D01*
X49746547Y-76288013D01*
X49894035Y-76189464D01*
X49899965Y-76183534D01*
X49906681Y-76176819D01*
X49968004Y-76143334D01*
X49994362Y-76140500D01*
X55160191Y-76140500D01*
X55227230Y-76160185D01*
X55272985Y-76212989D01*
X55282929Y-76282147D01*
X55253904Y-76345703D01*
X55247872Y-76352181D01*
X54914722Y-76685331D01*
X54914717Y-76685337D01*
X54887682Y-76725802D01*
X54887239Y-76726465D01*
X54869733Y-76752664D01*
X54843534Y-76791873D01*
X54794499Y-76910255D01*
X54794497Y-76910261D01*
X54769500Y-77035928D01*
X54769500Y-93999192D01*
X54749815Y-94066231D01*
X54733181Y-94086873D01*
X54254873Y-94565181D01*
X54193550Y-94598666D01*
X54167192Y-94601500D01*
X48656908Y-94601500D01*
X48531240Y-94626497D01*
X48531236Y-94626498D01*
X48492963Y-94642352D01*
X48492962Y-94642352D01*
X48412858Y-94675531D01*
X48412840Y-94675541D01*
X48306313Y-94746720D01*
X48306310Y-94746722D01*
X48240428Y-94812605D01*
X48044251Y-95008782D01*
X47982931Y-95042266D01*
X47956572Y-95045100D01*
X43113981Y-95045100D01*
X43046942Y-95025415D01*
X43001187Y-94972611D01*
X42991243Y-94903453D01*
X42996050Y-94882782D01*
X43008476Y-94844538D01*
X43008476Y-94844537D01*
X43008477Y-94844534D01*
X43040500Y-94642352D01*
X43040500Y-94437648D01*
X43031095Y-94378273D01*
X43040049Y-94308984D01*
X43073493Y-94264199D01*
X44616919Y-92958929D01*
X44680817Y-92930670D01*
X44735302Y-92935679D01*
X44805466Y-92958477D01*
X45007648Y-92990500D01*
X45007649Y-92990500D01*
X45212351Y-92990500D01*
X45212352Y-92990500D01*
X45414534Y-92958477D01*
X45609219Y-92895220D01*
X45791610Y-92802287D01*
X45901413Y-92722511D01*
X45957213Y-92681971D01*
X45957215Y-92681968D01*
X45957219Y-92681966D01*
X46101966Y-92537219D01*
X46101968Y-92537215D01*
X46101971Y-92537213D01*
X46164038Y-92451784D01*
X46222287Y-92371610D01*
X46315220Y-92189219D01*
X46378477Y-91994534D01*
X46410500Y-91792352D01*
X46410500Y-91587648D01*
X46378477Y-91385466D01*
X46378476Y-91385464D01*
X46332692Y-91244555D01*
X46315220Y-91190781D01*
X46315218Y-91190778D01*
X46315218Y-91190776D01*
X46261559Y-91085466D01*
X46222287Y-91008390D01*
X46214556Y-90997749D01*
X46101971Y-90842786D01*
X45957213Y-90698028D01*
X45791614Y-90577715D01*
X45780955Y-90572284D01*
X45698917Y-90530483D01*
X45648123Y-90482511D01*
X45631328Y-90414690D01*
X45653865Y-90348555D01*
X45698917Y-90309516D01*
X45791610Y-90262287D01*
X45888365Y-90191991D01*
X45957213Y-90141971D01*
X45957215Y-90141968D01*
X45957219Y-90141966D01*
X46101966Y-89997219D01*
X46101968Y-89997215D01*
X46101971Y-89997213D01*
X46176106Y-89895173D01*
X46222287Y-89831610D01*
X46315220Y-89649219D01*
X46378477Y-89454534D01*
X46410500Y-89252352D01*
X46410500Y-89047648D01*
X46395406Y-88952351D01*
X46378477Y-88845465D01*
X46332692Y-88704555D01*
X46315220Y-88650781D01*
X46315218Y-88650778D01*
X46315218Y-88650776D01*
X46261559Y-88545466D01*
X46222287Y-88468390D01*
X46209738Y-88451118D01*
X46101971Y-88302786D01*
X45957213Y-88158028D01*
X45791614Y-88037715D01*
X45780961Y-88032287D01*
X45698917Y-87990483D01*
X45648123Y-87942511D01*
X45631328Y-87874690D01*
X45653865Y-87808555D01*
X45698917Y-87769516D01*
X45791610Y-87722287D01*
X45835770Y-87690203D01*
X45957213Y-87601971D01*
X45957215Y-87601968D01*
X45957219Y-87601966D01*
X46101966Y-87457219D01*
X46101968Y-87457215D01*
X46101971Y-87457213D01*
X46178349Y-87352086D01*
X46222287Y-87291610D01*
X46315220Y-87109219D01*
X46378477Y-86914534D01*
X46410500Y-86712352D01*
X46410500Y-86507648D01*
X46378477Y-86305466D01*
X46378476Y-86305464D01*
X46331593Y-86161172D01*
X46315220Y-86110781D01*
X46315218Y-86110778D01*
X46315218Y-86110776D01*
X46253638Y-85989920D01*
X46222287Y-85928390D01*
X46162510Y-85846113D01*
X46101971Y-85762786D01*
X45957213Y-85618028D01*
X45791614Y-85497715D01*
X45727550Y-85465073D01*
X45698917Y-85450483D01*
X45648123Y-85402511D01*
X45631328Y-85334690D01*
X45653865Y-85268555D01*
X45698917Y-85229516D01*
X45791610Y-85182287D01*
X45832183Y-85152809D01*
X45957213Y-85061971D01*
X45957215Y-85061968D01*
X45957219Y-85061966D01*
X46101966Y-84917219D01*
X46101968Y-84917215D01*
X46101971Y-84917213D01*
X46164038Y-84831784D01*
X46222287Y-84751610D01*
X46315220Y-84569219D01*
X46378477Y-84374534D01*
X46410500Y-84172352D01*
X46410500Y-83967648D01*
X46378477Y-83765466D01*
X46378476Y-83765464D01*
X46340021Y-83647112D01*
X46315220Y-83570781D01*
X46315218Y-83570778D01*
X46315218Y-83570776D01*
X46253839Y-83450315D01*
X46222287Y-83388390D01*
X46168265Y-83314034D01*
X46101971Y-83222786D01*
X45957213Y-83078028D01*
X45791614Y-82957715D01*
X45780961Y-82952287D01*
X45698917Y-82910483D01*
X45648123Y-82862511D01*
X45631328Y-82794690D01*
X45653865Y-82728555D01*
X45698917Y-82689516D01*
X45791610Y-82642287D01*
X45839565Y-82607446D01*
X45957213Y-82521971D01*
X45957215Y-82521968D01*
X45957219Y-82521966D01*
X46101966Y-82377219D01*
X46101968Y-82377215D01*
X46101971Y-82377213D01*
X46164038Y-82291784D01*
X46222287Y-82211610D01*
X46315220Y-82029219D01*
X46378477Y-81834534D01*
X46410500Y-81632352D01*
X46410500Y-81427648D01*
X46393373Y-81319515D01*
X46378477Y-81225465D01*
X46330688Y-81078386D01*
X46315220Y-81030781D01*
X46315218Y-81030778D01*
X46315218Y-81030776D01*
X46255098Y-80912786D01*
X46222287Y-80848390D01*
X46175408Y-80783866D01*
X46101971Y-80682786D01*
X45957213Y-80538028D01*
X45791614Y-80417715D01*
X45780955Y-80412284D01*
X45698917Y-80370483D01*
X45648123Y-80322511D01*
X45631328Y-80254690D01*
X45653865Y-80188555D01*
X45698917Y-80149516D01*
X45791610Y-80102287D01*
X45858559Y-80053646D01*
X45957213Y-79981971D01*
X45957215Y-79981968D01*
X45957219Y-79981966D01*
X46101966Y-79837219D01*
X46101968Y-79837215D01*
X46101971Y-79837213D01*
X46164038Y-79751784D01*
X46222287Y-79671610D01*
X46315220Y-79489219D01*
X46378477Y-79294534D01*
X46410500Y-79092352D01*
X46410500Y-78887648D01*
X46393373Y-78779515D01*
X46378477Y-78685465D01*
X46340021Y-78567112D01*
X46315220Y-78490781D01*
X46315218Y-78490778D01*
X46315218Y-78490776D01*
X46253839Y-78370315D01*
X46222287Y-78308390D01*
X46214556Y-78297749D01*
X46101971Y-78142786D01*
X45957213Y-77998028D01*
X45791614Y-77877715D01*
X45753072Y-77858077D01*
X45698917Y-77830483D01*
X45648123Y-77782511D01*
X45631328Y-77714690D01*
X45653865Y-77648555D01*
X45698917Y-77609516D01*
X45791610Y-77562287D01*
X45860650Y-77512127D01*
X45957213Y-77441971D01*
X45957215Y-77441968D01*
X45957219Y-77441966D01*
X46101966Y-77297219D01*
X46101968Y-77297215D01*
X46101971Y-77297213D01*
X46164038Y-77211784D01*
X46222287Y-77131610D01*
X46315220Y-76949219D01*
X46378477Y-76754534D01*
X46410500Y-76552352D01*
X46410500Y-76347648D01*
X46400612Y-76285220D01*
X46378477Y-76145465D01*
X46340021Y-76027112D01*
X46315220Y-75950781D01*
X46315218Y-75950778D01*
X46315218Y-75950776D01*
X46232334Y-75788109D01*
X46222287Y-75768390D01*
X46199807Y-75737449D01*
X46101971Y-75602786D01*
X45957213Y-75458028D01*
X45791614Y-75337715D01*
X45780125Y-75331861D01*
X45698917Y-75290483D01*
X45648123Y-75242511D01*
X45631328Y-75174690D01*
X45653865Y-75108555D01*
X45698917Y-75069516D01*
X45791610Y-75022287D01*
X45829962Y-74994423D01*
X45957213Y-74901971D01*
X45957215Y-74901968D01*
X45957219Y-74901966D01*
X46101966Y-74757219D01*
X46101968Y-74757215D01*
X46101971Y-74757213D01*
X46198677Y-74624106D01*
X46222287Y-74591610D01*
X46315220Y-74409219D01*
X46378477Y-74214534D01*
X46410500Y-74012352D01*
X46410500Y-73807648D01*
X46378477Y-73605466D01*
X46315220Y-73410781D01*
X46315218Y-73410778D01*
X46315218Y-73410776D01*
X46253748Y-73290136D01*
X46222287Y-73228390D01*
X46209112Y-73210256D01*
X46101971Y-73062786D01*
X45957213Y-72918028D01*
X45791611Y-72797713D01*
X45698369Y-72750203D01*
X45647574Y-72702229D01*
X45630779Y-72634407D01*
X45653317Y-72568273D01*
X45698371Y-72529234D01*
X45791347Y-72481861D01*
X45956894Y-72361582D01*
X45956895Y-72361582D01*
X46101582Y-72216895D01*
X46101582Y-72216894D01*
X46221859Y-72051349D01*
X46314755Y-71869029D01*
X46377990Y-71674413D01*
X46386609Y-71620000D01*
X45543012Y-71620000D01*
X45575925Y-71562993D01*
X45610000Y-71435826D01*
X45610000Y-71304174D01*
X45575925Y-71177007D01*
X45543012Y-71120000D01*
X46386609Y-71120000D01*
X46377990Y-71065586D01*
X46377989Y-71065581D01*
X46361203Y-71013917D01*
X46359208Y-70944076D01*
X46395289Y-70884244D01*
X46457990Y-70853416D01*
X46479134Y-70851600D01*
X49529191Y-70851600D01*
X49550644Y-70857899D01*
G37*
%TD.AperFunction*%
%TA.AperFunction,Conductor*%
G36*
X69790903Y-67331295D02*
G01*
X69797381Y-67337327D01*
X72072862Y-69612808D01*
X72106347Y-69674131D01*
X72107654Y-69719886D01*
X72079500Y-69897647D01*
X72079500Y-70102351D01*
X72111522Y-70304534D01*
X72174781Y-70499223D01*
X72238691Y-70624653D01*
X72252093Y-70650955D01*
X72267715Y-70681613D01*
X72388028Y-70847213D01*
X72532786Y-70991971D01*
X72675078Y-71095350D01*
X72698390Y-71112287D01*
X72776877Y-71152278D01*
X72791080Y-71159515D01*
X72841876Y-71207490D01*
X72858671Y-71275311D01*
X72836134Y-71341446D01*
X72791080Y-71380485D01*
X72698386Y-71427715D01*
X72532786Y-71548028D01*
X72388028Y-71692786D01*
X72267715Y-71858386D01*
X72174781Y-72040776D01*
X72111522Y-72235465D01*
X72079500Y-72437648D01*
X72079500Y-72642351D01*
X72111522Y-72844534D01*
X72174781Y-73039223D01*
X72217828Y-73123706D01*
X72252415Y-73191587D01*
X72267715Y-73221613D01*
X72388028Y-73387213D01*
X72532786Y-73531971D01*
X72687749Y-73644556D01*
X72698390Y-73652287D01*
X72789840Y-73698883D01*
X72791080Y-73699515D01*
X72841876Y-73747490D01*
X72858671Y-73815311D01*
X72836134Y-73881446D01*
X72791080Y-73920485D01*
X72698386Y-73967715D01*
X72532786Y-74088028D01*
X72388028Y-74232786D01*
X72267715Y-74398386D01*
X72174781Y-74580776D01*
X72111522Y-74775465D01*
X72079500Y-74977648D01*
X72079500Y-75182351D01*
X72111522Y-75384534D01*
X72174781Y-75579223D01*
X72209679Y-75647713D01*
X72267506Y-75761204D01*
X72267715Y-75761613D01*
X72388028Y-75927213D01*
X72532786Y-76071971D01*
X72654205Y-76160185D01*
X72698390Y-76192287D01*
X72789840Y-76238883D01*
X72791080Y-76239515D01*
X72841876Y-76287490D01*
X72858671Y-76355311D01*
X72836134Y-76421446D01*
X72791080Y-76460485D01*
X72698386Y-76507715D01*
X72532786Y-76628028D01*
X72388028Y-76772786D01*
X72267715Y-76938386D01*
X72174781Y-77120776D01*
X72111522Y-77315465D01*
X72079500Y-77517648D01*
X72079500Y-77722351D01*
X72111522Y-77924534D01*
X72174781Y-78119223D01*
X72267715Y-78301613D01*
X72388028Y-78467213D01*
X72532786Y-78611971D01*
X72679765Y-78718755D01*
X72698390Y-78732287D01*
X72789840Y-78778883D01*
X72791080Y-78779515D01*
X72841876Y-78827490D01*
X72858671Y-78895311D01*
X72836134Y-78961446D01*
X72791080Y-79000485D01*
X72698386Y-79047715D01*
X72532786Y-79168028D01*
X72388028Y-79312786D01*
X72267715Y-79478386D01*
X72174781Y-79660776D01*
X72111522Y-79855465D01*
X72079500Y-80057648D01*
X72079500Y-80262351D01*
X72111522Y-80464534D01*
X72174781Y-80659223D01*
X72267715Y-80841613D01*
X72388028Y-81007213D01*
X72532786Y-81151971D01*
X72682546Y-81260776D01*
X72698390Y-81272287D01*
X72766636Y-81307060D01*
X72791080Y-81319515D01*
X72841876Y-81367490D01*
X72858671Y-81435311D01*
X72836134Y-81501446D01*
X72791080Y-81540485D01*
X72698386Y-81587715D01*
X72532786Y-81708028D01*
X72388035Y-81852779D01*
X72385252Y-81856038D01*
X72326742Y-81894227D01*
X72290967Y-81899500D01*
X66849033Y-81899500D01*
X66781994Y-81879815D01*
X66754748Y-81856038D01*
X66751964Y-81852779D01*
X66607213Y-81708028D01*
X66441614Y-81587715D01*
X66395455Y-81564196D01*
X66348917Y-81540483D01*
X66298123Y-81492511D01*
X66281328Y-81424690D01*
X66303865Y-81358555D01*
X66348917Y-81319516D01*
X66441610Y-81272287D01*
X66506054Y-81225466D01*
X66607213Y-81151971D01*
X66607215Y-81151968D01*
X66607219Y-81151966D01*
X66751966Y-81007219D01*
X66751968Y-81007215D01*
X66751971Y-81007213D01*
X66820575Y-80912786D01*
X66872287Y-80841610D01*
X66965220Y-80659219D01*
X67028477Y-80464534D01*
X67060500Y-80262352D01*
X67060500Y-80057648D01*
X67031030Y-79871586D01*
X67028477Y-79855465D01*
X66985399Y-79722885D01*
X66965220Y-79660781D01*
X66965218Y-79660778D01*
X66965218Y-79660776D01*
X66931503Y-79594607D01*
X66872287Y-79478390D01*
X66817042Y-79402351D01*
X66751971Y-79312786D01*
X66607213Y-79168028D01*
X66441614Y-79047715D01*
X66386998Y-79019887D01*
X66348917Y-79000483D01*
X66298123Y-78952511D01*
X66281328Y-78884690D01*
X66303865Y-78818555D01*
X66348917Y-78779516D01*
X66441610Y-78732287D01*
X66468141Y-78713011D01*
X66607213Y-78611971D01*
X66607215Y-78611968D01*
X66607219Y-78611966D01*
X66751966Y-78467219D01*
X66751968Y-78467215D01*
X66751971Y-78467213D01*
X66822370Y-78370315D01*
X66872287Y-78301610D01*
X66965220Y-78119219D01*
X67028477Y-77924534D01*
X67060500Y-77722352D01*
X67060500Y-77517648D01*
X67032345Y-77339886D01*
X67028477Y-77315465D01*
X66969335Y-77133446D01*
X66965220Y-77120781D01*
X66965218Y-77120778D01*
X66965218Y-77120776D01*
X66921985Y-77035928D01*
X66872287Y-76938390D01*
X66851846Y-76910255D01*
X66751971Y-76772786D01*
X66607213Y-76628028D01*
X66441614Y-76507715D01*
X66395455Y-76484196D01*
X66348917Y-76460483D01*
X66298123Y-76412511D01*
X66281328Y-76344690D01*
X66303865Y-76278555D01*
X66348917Y-76239516D01*
X66441610Y-76192287D01*
X66485795Y-76160185D01*
X66607213Y-76071971D01*
X66607215Y-76071968D01*
X66607219Y-76071966D01*
X66751966Y-75927219D01*
X66751968Y-75927215D01*
X66751971Y-75927213D01*
X66804732Y-75854590D01*
X66872287Y-75761610D01*
X66965220Y-75579219D01*
X67028477Y-75384534D01*
X67060500Y-75182352D01*
X67060500Y-74977648D01*
X67046633Y-74890099D01*
X67028477Y-74775465D01*
X66996543Y-74677182D01*
X66965220Y-74580781D01*
X66965218Y-74580778D01*
X66965218Y-74580776D01*
X66901942Y-74456592D01*
X66872287Y-74398390D01*
X66856088Y-74376094D01*
X66751971Y-74232786D01*
X66607213Y-74088028D01*
X66441614Y-73967715D01*
X66435006Y-73964348D01*
X66348917Y-73920483D01*
X66298123Y-73872511D01*
X66281328Y-73804690D01*
X66303865Y-73738555D01*
X66348917Y-73699516D01*
X66441610Y-73652287D01*
X66506054Y-73605466D01*
X66607213Y-73531971D01*
X66607215Y-73531968D01*
X66607219Y-73531966D01*
X66751966Y-73387219D01*
X66751968Y-73387215D01*
X66751971Y-73387213D01*
X66822501Y-73290135D01*
X66872287Y-73221610D01*
X66965220Y-73039219D01*
X67028477Y-72844534D01*
X67060500Y-72642352D01*
X67060500Y-72437648D01*
X67028477Y-72235466D01*
X66965220Y-72040781D01*
X66965218Y-72040778D01*
X66965218Y-72040776D01*
X66931503Y-71974607D01*
X66872287Y-71858390D01*
X66817042Y-71782351D01*
X66751971Y-71692786D01*
X66607213Y-71548028D01*
X66441614Y-71427715D01*
X66386998Y-71399887D01*
X66348917Y-71380483D01*
X66298123Y-71332511D01*
X66281328Y-71264690D01*
X66303865Y-71198555D01*
X66348917Y-71159516D01*
X66441610Y-71112287D01*
X66468920Y-71092445D01*
X66607213Y-70991971D01*
X66607215Y-70991968D01*
X66607219Y-70991966D01*
X66751966Y-70847219D01*
X66751968Y-70847215D01*
X66751971Y-70847213D01*
X66813789Y-70762126D01*
X66872287Y-70681610D01*
X66965220Y-70499219D01*
X67028477Y-70304534D01*
X67060500Y-70102352D01*
X67060500Y-69897648D01*
X67036239Y-69744470D01*
X67028477Y-69695465D01*
X66989253Y-69574747D01*
X66965220Y-69500781D01*
X66965218Y-69500778D01*
X66965218Y-69500776D01*
X66918144Y-69408389D01*
X66872287Y-69318390D01*
X66817042Y-69242351D01*
X66751971Y-69152786D01*
X66607213Y-69008028D01*
X66441614Y-68887715D01*
X66435006Y-68884348D01*
X66348917Y-68840483D01*
X66298123Y-68792511D01*
X66281328Y-68724690D01*
X66303865Y-68658555D01*
X66348917Y-68619516D01*
X66441610Y-68572287D01*
X66462770Y-68556913D01*
X66607213Y-68451971D01*
X66607215Y-68451968D01*
X66607219Y-68451966D01*
X66751966Y-68307219D01*
X66857753Y-68161613D01*
X66913082Y-68118949D01*
X66958071Y-68110500D01*
X68000838Y-68110500D01*
X68067877Y-68130185D01*
X68088519Y-68146819D01*
X68111161Y-68169461D01*
X68111165Y-68169464D01*
X68258646Y-68268009D01*
X68258659Y-68268016D01*
X68364568Y-68311884D01*
X68422534Y-68335894D01*
X68422536Y-68335894D01*
X68422541Y-68335896D01*
X68596504Y-68370499D01*
X68596507Y-68370500D01*
X68596509Y-68370500D01*
X68773893Y-68370500D01*
X68773894Y-68370499D01*
X68876011Y-68350187D01*
X68947858Y-68335896D01*
X68947861Y-68335894D01*
X68947866Y-68335894D01*
X69111747Y-68268013D01*
X69259235Y-68169464D01*
X69384664Y-68044035D01*
X69483213Y-67896547D01*
X69551094Y-67732666D01*
X69554069Y-67717713D01*
X69584972Y-67562351D01*
X69585700Y-67558691D01*
X69585700Y-67425008D01*
X69605385Y-67357969D01*
X69658189Y-67312214D01*
X69727347Y-67302270D01*
X69790903Y-67331295D01*
G37*
%TD.AperFunction*%
%TA.AperFunction,Conductor*%
G36*
X38671746Y-64252785D02*
G01*
X38717501Y-64305589D01*
X38727445Y-64374747D01*
X38698420Y-64438303D01*
X38639642Y-64476077D01*
X38624105Y-64479573D01*
X38545582Y-64492009D01*
X38350968Y-64555244D01*
X38168644Y-64648143D01*
X38124077Y-64680523D01*
X38124077Y-64680524D01*
X38803554Y-65360000D01*
X38797339Y-65360000D01*
X38695606Y-65387259D01*
X38604394Y-65439920D01*
X38529920Y-65514394D01*
X38477259Y-65605606D01*
X38450000Y-65707339D01*
X38450000Y-65713553D01*
X37770524Y-65034077D01*
X37770523Y-65034077D01*
X37738143Y-65078644D01*
X37645244Y-65260968D01*
X37582009Y-65455582D01*
X37550000Y-65657682D01*
X37550000Y-65862317D01*
X37582009Y-66064417D01*
X37645244Y-66259031D01*
X37738141Y-66441350D01*
X37738147Y-66441359D01*
X37770523Y-66485921D01*
X37770524Y-66485922D01*
X38450000Y-65806446D01*
X38450000Y-65812661D01*
X38477259Y-65914394D01*
X38529920Y-66005606D01*
X38604394Y-66080080D01*
X38695606Y-66132741D01*
X38797339Y-66160000D01*
X38803553Y-66160000D01*
X38124076Y-66839474D01*
X38168650Y-66871859D01*
X38350968Y-66964755D01*
X38545582Y-67027990D01*
X38747683Y-67060000D01*
X38952317Y-67060000D01*
X39154417Y-67027990D01*
X39349031Y-66964755D01*
X39531349Y-66871859D01*
X39575921Y-66839474D01*
X38896447Y-66160000D01*
X38902661Y-66160000D01*
X39004394Y-66132741D01*
X39095606Y-66080080D01*
X39170080Y-66005606D01*
X39222741Y-65914394D01*
X39250000Y-65812661D01*
X39250000Y-65806447D01*
X39929474Y-66485921D01*
X39961859Y-66441349D01*
X40054755Y-66259031D01*
X40117990Y-66064417D01*
X40150000Y-65862317D01*
X40150000Y-65657682D01*
X40117990Y-65455582D01*
X40054755Y-65260968D01*
X39961859Y-65078650D01*
X39929474Y-65034077D01*
X39929474Y-65034076D01*
X39250000Y-65713551D01*
X39250000Y-65707339D01*
X39222741Y-65605606D01*
X39170080Y-65514394D01*
X39095606Y-65439920D01*
X39004394Y-65387259D01*
X38902661Y-65360000D01*
X38896446Y-65360000D01*
X39575922Y-64680524D01*
X39575921Y-64680523D01*
X39531359Y-64648147D01*
X39531350Y-64648141D01*
X39349031Y-64555244D01*
X39154417Y-64492009D01*
X39075895Y-64479573D01*
X39012760Y-64449644D01*
X38975829Y-64390332D01*
X38976827Y-64320470D01*
X39015437Y-64262237D01*
X39079401Y-64234123D01*
X39095293Y-64233100D01*
X39790092Y-64233100D01*
X39857131Y-64252785D01*
X39877773Y-64269419D01*
X40173625Y-64565272D01*
X40173632Y-64565278D01*
X40266276Y-64627180D01*
X40280174Y-64636466D01*
X40349521Y-64665189D01*
X40398556Y-64685501D01*
X40524231Y-64710500D01*
X40555903Y-64710500D01*
X40569523Y-64713609D01*
X40588313Y-64724120D01*
X40608968Y-64730185D01*
X40623223Y-64743648D01*
X40630501Y-64747719D01*
X40633506Y-64753359D01*
X40642245Y-64761613D01*
X40715387Y-64862284D01*
X40748034Y-64907219D01*
X40892786Y-65051971D01*
X41047749Y-65164556D01*
X41058390Y-65172287D01*
X41149840Y-65218883D01*
X41151080Y-65219515D01*
X41201876Y-65267490D01*
X41218671Y-65335311D01*
X41196134Y-65401446D01*
X41151080Y-65440485D01*
X41058386Y-65487715D01*
X40892786Y-65608028D01*
X40748028Y-65752786D01*
X40627715Y-65918386D01*
X40534781Y-66100776D01*
X40471522Y-66295465D01*
X40439500Y-66497648D01*
X40439500Y-66702351D01*
X40471522Y-66904534D01*
X40534781Y-67099223D01*
X40563439Y-67155466D01*
X40617571Y-67261706D01*
X40627715Y-67281613D01*
X40748028Y-67447213D01*
X40892786Y-67591971D01*
X41047749Y-67704556D01*
X41058390Y-67712287D01*
X41113000Y-67740112D01*
X41151080Y-67759515D01*
X41201876Y-67807490D01*
X41218671Y-67875311D01*
X41196134Y-67941446D01*
X41151080Y-67980485D01*
X41058386Y-68027715D01*
X40892786Y-68148028D01*
X40748028Y-68292786D01*
X40627715Y-68458386D01*
X40534781Y-68640776D01*
X40471522Y-68835465D01*
X40439500Y-69037648D01*
X40439500Y-69242351D01*
X40471522Y-69444534D01*
X40534781Y-69639223D01*
X40627715Y-69821613D01*
X40748028Y-69987213D01*
X40892786Y-70131971D01*
X41047749Y-70244556D01*
X41058390Y-70252287D01*
X41149840Y-70298883D01*
X41151080Y-70299515D01*
X41201876Y-70347490D01*
X41218671Y-70415311D01*
X41196134Y-70481446D01*
X41151080Y-70520485D01*
X41058386Y-70567715D01*
X40892786Y-70688028D01*
X40748028Y-70832786D01*
X40627715Y-70998386D01*
X40534781Y-71180776D01*
X40471522Y-71375465D01*
X40439500Y-71577648D01*
X40439500Y-71782351D01*
X40471522Y-71984534D01*
X40534781Y-72179223D01*
X40627715Y-72361613D01*
X40748028Y-72527213D01*
X40892786Y-72671971D01*
X41047749Y-72784556D01*
X41058390Y-72792287D01*
X41112998Y-72820111D01*
X41151629Y-72839795D01*
X41202425Y-72887770D01*
X41219220Y-72955591D01*
X41196682Y-73021726D01*
X41151629Y-73060765D01*
X41058650Y-73108140D01*
X40893105Y-73228417D01*
X40893104Y-73228417D01*
X40748417Y-73373104D01*
X40748417Y-73373105D01*
X40628140Y-73538650D01*
X40535244Y-73720970D01*
X40472009Y-73915586D01*
X40463391Y-73970000D01*
X41424314Y-73970000D01*
X41419920Y-73974394D01*
X41367259Y-74065606D01*
X41340000Y-74167339D01*
X41340000Y-74272661D01*
X41367259Y-74374394D01*
X41419920Y-74465606D01*
X41424314Y-74470000D01*
X40463391Y-74470000D01*
X40472009Y-74524413D01*
X40535244Y-74719029D01*
X40628140Y-74901349D01*
X40748417Y-75066894D01*
X40748417Y-75066895D01*
X40893104Y-75211582D01*
X41058652Y-75331861D01*
X41151628Y-75379234D01*
X41202425Y-75427208D01*
X41219220Y-75495029D01*
X41196683Y-75561164D01*
X41151630Y-75600203D01*
X41058388Y-75647713D01*
X40892786Y-75768028D01*
X40748028Y-75912786D01*
X40627715Y-76078386D01*
X40534781Y-76260776D01*
X40471522Y-76455465D01*
X40439500Y-76657648D01*
X40439500Y-76862351D01*
X40471522Y-77064534D01*
X40534781Y-77259223D01*
X40627715Y-77441613D01*
X40748028Y-77607213D01*
X40892786Y-77751971D01*
X41038831Y-77858077D01*
X41058390Y-77872287D01*
X41149840Y-77918883D01*
X41151080Y-77919515D01*
X41201876Y-77967490D01*
X41218671Y-78035311D01*
X41196134Y-78101446D01*
X41151080Y-78140485D01*
X41058386Y-78187715D01*
X40892786Y-78308028D01*
X40748028Y-78452786D01*
X40627713Y-78618388D01*
X40602455Y-78667959D01*
X40554480Y-78718755D01*
X40486659Y-78735549D01*
X40420524Y-78713011D01*
X40404290Y-78699344D01*
X37172137Y-75467191D01*
X37138652Y-75405868D01*
X37137345Y-75360112D01*
X37165500Y-75182352D01*
X37165500Y-74977648D01*
X37151633Y-74890099D01*
X37133477Y-74775465D01*
X37101543Y-74677182D01*
X37070220Y-74580781D01*
X37070218Y-74580778D01*
X37070218Y-74580776D01*
X37006942Y-74456592D01*
X36977287Y-74398390D01*
X36961088Y-74376094D01*
X36856971Y-74232786D01*
X36712213Y-74088028D01*
X36546614Y-73967715D01*
X36540006Y-73964348D01*
X36453917Y-73920483D01*
X36403123Y-73872511D01*
X36386328Y-73804690D01*
X36408865Y-73738555D01*
X36453917Y-73699516D01*
X36546610Y-73652287D01*
X36611054Y-73605466D01*
X36712213Y-73531971D01*
X36712215Y-73531968D01*
X36712219Y-73531966D01*
X36856966Y-73387219D01*
X36856968Y-73387215D01*
X36856971Y-73387213D01*
X36927501Y-73290135D01*
X36977287Y-73221610D01*
X37070220Y-73039219D01*
X37133477Y-72844534D01*
X37165500Y-72642352D01*
X37165500Y-72437648D01*
X37133477Y-72235466D01*
X37070220Y-72040781D01*
X37070218Y-72040778D01*
X37070218Y-72040776D01*
X37036503Y-71974607D01*
X36977287Y-71858390D01*
X36922042Y-71782351D01*
X36856971Y-71692786D01*
X36712213Y-71548028D01*
X36546614Y-71427715D01*
X36491998Y-71399887D01*
X36453917Y-71380483D01*
X36403123Y-71332511D01*
X36386328Y-71264690D01*
X36408865Y-71198555D01*
X36453917Y-71159516D01*
X36546610Y-71112287D01*
X36573920Y-71092445D01*
X36712213Y-70991971D01*
X36712215Y-70991968D01*
X36712219Y-70991966D01*
X36856966Y-70847219D01*
X36856968Y-70847215D01*
X36856971Y-70847213D01*
X36918789Y-70762126D01*
X36977287Y-70681610D01*
X37070220Y-70499219D01*
X37133477Y-70304534D01*
X37165500Y-70102352D01*
X37165500Y-69897648D01*
X37141239Y-69744470D01*
X37133477Y-69695465D01*
X37094253Y-69574747D01*
X37070220Y-69500781D01*
X37070218Y-69500778D01*
X37070218Y-69500776D01*
X37023144Y-69408389D01*
X36977287Y-69318390D01*
X36922042Y-69242351D01*
X36856971Y-69152786D01*
X36712213Y-69008028D01*
X36546614Y-68887715D01*
X36540006Y-68884348D01*
X36453917Y-68840483D01*
X36403123Y-68792511D01*
X36386328Y-68724690D01*
X36408865Y-68658555D01*
X36453917Y-68619516D01*
X36546610Y-68572287D01*
X36567770Y-68556913D01*
X36712213Y-68451971D01*
X36712215Y-68451968D01*
X36712219Y-68451966D01*
X36856966Y-68307219D01*
X36856968Y-68307215D01*
X36856971Y-68307213D01*
X36931597Y-68204497D01*
X36977287Y-68141610D01*
X37070220Y-67959219D01*
X37133477Y-67764534D01*
X37165500Y-67562352D01*
X37165500Y-67357648D01*
X37133477Y-67155466D01*
X37122058Y-67120323D01*
X37094502Y-67035513D01*
X37070220Y-66960781D01*
X37070218Y-66960778D01*
X37070218Y-66960776D01*
X37013015Y-66848510D01*
X37008411Y-66839474D01*
X36977287Y-66778390D01*
X36958011Y-66751859D01*
X36856971Y-66612786D01*
X36712213Y-66468028D01*
X36546611Y-66347713D01*
X36453369Y-66300203D01*
X36402574Y-66252229D01*
X36385779Y-66184407D01*
X36408317Y-66118273D01*
X36453371Y-66079234D01*
X36546347Y-66031861D01*
X36711894Y-65911582D01*
X36711895Y-65911582D01*
X36856582Y-65766895D01*
X36856582Y-65766894D01*
X36976861Y-65601346D01*
X36979321Y-65596520D01*
X37069755Y-65419029D01*
X37132990Y-65224413D01*
X37141609Y-65170000D01*
X36180686Y-65170000D01*
X36185080Y-65165606D01*
X36237741Y-65074394D01*
X36265000Y-64972661D01*
X36265000Y-64867339D01*
X36237741Y-64765606D01*
X36185080Y-64674394D01*
X36180686Y-64670000D01*
X37141609Y-64670000D01*
X37132990Y-64615586D01*
X37069755Y-64420970D01*
X37065896Y-64413395D01*
X37053000Y-64344725D01*
X37079277Y-64279985D01*
X37136383Y-64239728D01*
X37176381Y-64233100D01*
X38604707Y-64233100D01*
X38671746Y-64252785D01*
G37*
%TD.AperFunction*%
%TA.AperFunction,Conductor*%
G36*
X59004274Y-71079485D02*
G01*
X59050029Y-71132289D01*
X59059973Y-71201447D01*
X59059708Y-71203198D01*
X59049500Y-71267648D01*
X59049500Y-71472351D01*
X59081522Y-71674534D01*
X59144781Y-71869223D01*
X59203536Y-71984534D01*
X59232195Y-72040781D01*
X59237715Y-72051613D01*
X59358028Y-72217213D01*
X59502786Y-72361971D01*
X59606949Y-72437648D01*
X59668390Y-72482287D01*
X59756562Y-72527213D01*
X59761080Y-72529515D01*
X59811876Y-72577490D01*
X59828671Y-72645311D01*
X59806134Y-72711446D01*
X59761080Y-72750485D01*
X59668386Y-72797715D01*
X59502786Y-72918028D01*
X59358028Y-73062786D01*
X59237715Y-73228386D01*
X59144781Y-73410776D01*
X59081522Y-73605465D01*
X59049500Y-73807648D01*
X59049500Y-74012351D01*
X59081522Y-74214534D01*
X59144781Y-74409223D01*
X59237712Y-74591609D01*
X59353014Y-74750310D01*
X59376493Y-74816117D01*
X59360667Y-74884171D01*
X59340376Y-74910876D01*
X58788281Y-75462972D01*
X58726958Y-75496457D01*
X58657267Y-75491473D01*
X58612919Y-75462972D01*
X58142243Y-74992296D01*
X58108758Y-74930973D01*
X58113742Y-74861281D01*
X58119434Y-74848329D01*
X58185220Y-74719219D01*
X58248477Y-74524534D01*
X58280500Y-74322352D01*
X58280500Y-74117648D01*
X58272257Y-74065606D01*
X58248477Y-73915465D01*
X58193898Y-73747490D01*
X58185220Y-73720781D01*
X58185218Y-73720778D01*
X58185218Y-73720776D01*
X58151503Y-73654607D01*
X58092287Y-73538390D01*
X58059547Y-73493327D01*
X57971971Y-73372786D01*
X57827213Y-73228028D01*
X57661614Y-73107715D01*
X57625080Y-73089100D01*
X57568917Y-73060483D01*
X57518123Y-73012511D01*
X57501328Y-72944690D01*
X57523865Y-72878555D01*
X57568917Y-72839516D01*
X57661610Y-72792287D01*
X57682770Y-72776913D01*
X57827213Y-72671971D01*
X57827215Y-72671968D01*
X57827219Y-72671966D01*
X57971966Y-72527219D01*
X57971968Y-72527215D01*
X57971971Y-72527213D01*
X58024732Y-72454590D01*
X58092287Y-72361610D01*
X58185220Y-72179219D01*
X58248477Y-71984534D01*
X58280500Y-71782352D01*
X58280500Y-71577648D01*
X58275809Y-71548028D01*
X58248477Y-71375465D01*
X58221620Y-71292808D01*
X58198650Y-71222117D01*
X58196656Y-71152278D01*
X58232736Y-71092445D01*
X58295437Y-71061616D01*
X58316582Y-71059800D01*
X58937235Y-71059800D01*
X59004274Y-71079485D01*
G37*
%TD.AperFunction*%
%TA.AperFunction,Conductor*%
G36*
X43807905Y-70871285D02*
G01*
X43853660Y-70924089D01*
X43863604Y-70993247D01*
X43858797Y-71013917D01*
X43842010Y-71065581D01*
X43842009Y-71065586D01*
X43833391Y-71120000D01*
X44676988Y-71120000D01*
X44644075Y-71177007D01*
X44610000Y-71304174D01*
X44610000Y-71435826D01*
X44644075Y-71562993D01*
X44676988Y-71620000D01*
X43833391Y-71620000D01*
X43842009Y-71674413D01*
X43905244Y-71869029D01*
X43998140Y-72051349D01*
X44118417Y-72216894D01*
X44118417Y-72216895D01*
X44263104Y-72361582D01*
X44428652Y-72481861D01*
X44521628Y-72529234D01*
X44572425Y-72577208D01*
X44589220Y-72645029D01*
X44566683Y-72711164D01*
X44521630Y-72750203D01*
X44428388Y-72797713D01*
X44262786Y-72918028D01*
X44118028Y-73062786D01*
X43997715Y-73228386D01*
X43904781Y-73410776D01*
X43841522Y-73605465D01*
X43809500Y-73807648D01*
X43809500Y-74012352D01*
X43809499Y-74012352D01*
X43818903Y-74071723D01*
X43809948Y-74141016D01*
X43776502Y-74185801D01*
X43201125Y-74672396D01*
X43137225Y-74700656D01*
X43068191Y-74689883D01*
X43015940Y-74643497D01*
X42997062Y-74576226D01*
X43003123Y-74539395D01*
X43007989Y-74524417D01*
X43007990Y-74524413D01*
X43016609Y-74470000D01*
X42055686Y-74470000D01*
X42060080Y-74465606D01*
X42112741Y-74374394D01*
X42140000Y-74272661D01*
X42140000Y-74167339D01*
X42112741Y-74065606D01*
X42060080Y-73974394D01*
X42055686Y-73970000D01*
X43016609Y-73970000D01*
X43007990Y-73915586D01*
X42944755Y-73720970D01*
X42851859Y-73538650D01*
X42731582Y-73373105D01*
X42731582Y-73373104D01*
X42586895Y-73228417D01*
X42421349Y-73108140D01*
X42328370Y-73060765D01*
X42277574Y-73012790D01*
X42260779Y-72944969D01*
X42283316Y-72878835D01*
X42328370Y-72839795D01*
X42328920Y-72839515D01*
X42421610Y-72792287D01*
X42442770Y-72776913D01*
X42587213Y-72671971D01*
X42587215Y-72671968D01*
X42587219Y-72671966D01*
X42731966Y-72527219D01*
X42731968Y-72527215D01*
X42731971Y-72527213D01*
X42784732Y-72454590D01*
X42852287Y-72361610D01*
X42945220Y-72179219D01*
X43008477Y-71984534D01*
X43040500Y-71782352D01*
X43040500Y-71577648D01*
X43035809Y-71548028D01*
X43012345Y-71399887D01*
X43021300Y-71330594D01*
X43047137Y-71292808D01*
X43244596Y-71095350D01*
X43452027Y-70887919D01*
X43478954Y-70873215D01*
X43504773Y-70856623D01*
X43510973Y-70855731D01*
X43513350Y-70854434D01*
X43539708Y-70851600D01*
X43740866Y-70851600D01*
X43807905Y-70871285D01*
G37*
%TD.AperFunction*%
%TA.AperFunction,Conductor*%
G36*
X64567178Y-70652041D02*
G01*
X64572541Y-70650955D01*
X64600343Y-70661779D01*
X64628968Y-70670185D01*
X64633903Y-70674846D01*
X64637650Y-70676305D01*
X64662245Y-70701612D01*
X64706211Y-70762126D01*
X64768034Y-70847219D01*
X64912786Y-70991971D01*
X65055078Y-71095350D01*
X65078390Y-71112287D01*
X65156877Y-71152278D01*
X65171080Y-71159515D01*
X65221876Y-71207490D01*
X65238671Y-71275311D01*
X65216134Y-71341446D01*
X65171080Y-71380485D01*
X65078386Y-71427715D01*
X64912786Y-71548028D01*
X64768028Y-71692786D01*
X64647715Y-71858386D01*
X64554781Y-72040776D01*
X64491522Y-72235465D01*
X64459500Y-72437648D01*
X64459500Y-72642351D01*
X64487654Y-72820111D01*
X64478699Y-72889405D01*
X64452862Y-72927190D01*
X62956945Y-74423107D01*
X62895622Y-74456592D01*
X62825930Y-74451608D01*
X62769997Y-74409736D01*
X62745580Y-74344272D01*
X62754702Y-74287976D01*
X62769494Y-74252266D01*
X62777000Y-74214534D01*
X62802917Y-74084238D01*
X62804100Y-74078291D01*
X62804100Y-73900909D01*
X62804100Y-73900906D01*
X62804099Y-73900904D01*
X62769496Y-73726941D01*
X62769493Y-73726932D01*
X62701616Y-73563059D01*
X62701609Y-73563046D01*
X62603064Y-73415565D01*
X62603061Y-73415561D01*
X62477638Y-73290138D01*
X62477634Y-73290135D01*
X62330153Y-73191590D01*
X62330140Y-73191583D01*
X62166267Y-73123706D01*
X62166258Y-73123703D01*
X61992294Y-73089100D01*
X61992291Y-73089100D01*
X61814909Y-73089100D01*
X61814906Y-73089100D01*
X61640941Y-73123703D01*
X61640932Y-73123706D01*
X61535462Y-73167393D01*
X61465992Y-73174862D01*
X61403513Y-73143586D01*
X61387691Y-73125717D01*
X61375909Y-73109501D01*
X61341966Y-73062781D01*
X61197219Y-72918034D01*
X61197213Y-72918028D01*
X61031614Y-72797715D01*
X61020955Y-72792284D01*
X60938917Y-72750483D01*
X60888123Y-72702511D01*
X60871328Y-72634690D01*
X60893865Y-72568555D01*
X60938917Y-72529516D01*
X61031610Y-72482287D01*
X61093051Y-72437648D01*
X61197213Y-72361971D01*
X61197215Y-72361968D01*
X61197219Y-72361966D01*
X61341966Y-72217219D01*
X61341968Y-72217215D01*
X61341971Y-72217213D01*
X61394732Y-72144590D01*
X61462287Y-72051610D01*
X61555220Y-71869219D01*
X61618477Y-71674534D01*
X61650500Y-71472352D01*
X61650500Y-71267648D01*
X61627171Y-71120354D01*
X61618477Y-71065465D01*
X61557111Y-70876601D01*
X61555220Y-70870781D01*
X61555218Y-70870778D01*
X61555218Y-70870776D01*
X61537551Y-70836104D01*
X61534845Y-70830794D01*
X61521950Y-70762126D01*
X61548226Y-70697386D01*
X61605332Y-70657128D01*
X61645331Y-70650500D01*
X64561929Y-70650500D01*
X64567178Y-70652041D01*
G37*
%TD.AperFunction*%
%TA.AperFunction,Conductor*%
G36*
X34620658Y-64252785D02*
G01*
X34666413Y-64305589D01*
X34676357Y-64374747D01*
X34664104Y-64413395D01*
X34660244Y-64420970D01*
X34597009Y-64615586D01*
X34588391Y-64670000D01*
X35549314Y-64670000D01*
X35544920Y-64674394D01*
X35492259Y-64765606D01*
X35465000Y-64867339D01*
X35465000Y-64972661D01*
X35492259Y-65074394D01*
X35544920Y-65165606D01*
X35549314Y-65170000D01*
X34588391Y-65170000D01*
X34597009Y-65224413D01*
X34660244Y-65419029D01*
X34753140Y-65601349D01*
X34873417Y-65766894D01*
X34873417Y-65766895D01*
X35018104Y-65911582D01*
X35183652Y-66031861D01*
X35276628Y-66079234D01*
X35327425Y-66127208D01*
X35344220Y-66195029D01*
X35321683Y-66261164D01*
X35276630Y-66300203D01*
X35183388Y-66347713D01*
X35017786Y-66468028D01*
X34873028Y-66612786D01*
X34752715Y-66778386D01*
X34659781Y-66960776D01*
X34596522Y-67155465D01*
X34564500Y-67357648D01*
X34564500Y-67562351D01*
X34596522Y-67764534D01*
X34659781Y-67959223D01*
X34752715Y-68141613D01*
X34873028Y-68307213D01*
X35017786Y-68451971D01*
X35172749Y-68564556D01*
X35183390Y-68572287D01*
X35274840Y-68618883D01*
X35276080Y-68619515D01*
X35326876Y-68667490D01*
X35343671Y-68735311D01*
X35321134Y-68801446D01*
X35276080Y-68840485D01*
X35183386Y-68887715D01*
X35017786Y-69008028D01*
X34873028Y-69152786D01*
X34752715Y-69318386D01*
X34659781Y-69500776D01*
X34596522Y-69695465D01*
X34564500Y-69897648D01*
X34564500Y-70102351D01*
X34596522Y-70304534D01*
X34659781Y-70499223D01*
X34723691Y-70624653D01*
X34737093Y-70650955D01*
X34752715Y-70681613D01*
X34873028Y-70847213D01*
X35017786Y-70991971D01*
X35160078Y-71095350D01*
X35183390Y-71112287D01*
X35261877Y-71152278D01*
X35276080Y-71159515D01*
X35326876Y-71207490D01*
X35343671Y-71275311D01*
X35321134Y-71341446D01*
X35276080Y-71380485D01*
X35183386Y-71427715D01*
X35017786Y-71548028D01*
X34873028Y-71692786D01*
X34752715Y-71858386D01*
X34659781Y-72040776D01*
X34596522Y-72235465D01*
X34564500Y-72437648D01*
X34564500Y-72642351D01*
X34596522Y-72844534D01*
X34659781Y-73039223D01*
X34702828Y-73123706D01*
X34737415Y-73191587D01*
X34752715Y-73221613D01*
X34873028Y-73387213D01*
X35017786Y-73531971D01*
X35172749Y-73644556D01*
X35183390Y-73652287D01*
X35274840Y-73698883D01*
X35276080Y-73699515D01*
X35326876Y-73747490D01*
X35343671Y-73815311D01*
X35321134Y-73881446D01*
X35276080Y-73920485D01*
X35183386Y-73967715D01*
X35017786Y-74088028D01*
X34873034Y-74232780D01*
X34832935Y-74287973D01*
X34767246Y-74378386D01*
X34762914Y-74381726D01*
X34760642Y-74386703D01*
X34735545Y-74402831D01*
X34711918Y-74421051D01*
X34705244Y-74422304D01*
X34701864Y-74424477D01*
X34666929Y-74429500D01*
X34660808Y-74429500D01*
X34593769Y-74409815D01*
X34573127Y-74393181D01*
X33614650Y-73434704D01*
X33581165Y-73373381D01*
X33578331Y-73347023D01*
X33578331Y-73283475D01*
X33578330Y-73283473D01*
X33543727Y-73109510D01*
X33543724Y-73109501D01*
X33542983Y-73107713D01*
X33523421Y-73060485D01*
X33475847Y-72945628D01*
X33475840Y-72945615D01*
X33377295Y-72798134D01*
X33377292Y-72798130D01*
X33251869Y-72672707D01*
X33251865Y-72672704D01*
X33104384Y-72574159D01*
X33104371Y-72574152D01*
X32940498Y-72506275D01*
X32940489Y-72506272D01*
X32766525Y-72471669D01*
X32766522Y-72471669D01*
X32589140Y-72471669D01*
X32589137Y-72471669D01*
X32415172Y-72506272D01*
X32415163Y-72506275D01*
X32251290Y-72574152D01*
X32251277Y-72574159D01*
X32103796Y-72672704D01*
X32103792Y-72672707D01*
X32058404Y-72718096D01*
X31997081Y-72751581D01*
X31927389Y-72746597D01*
X31883042Y-72718096D01*
X30321619Y-71156673D01*
X30288134Y-71095350D01*
X30285300Y-71068992D01*
X30285300Y-68785728D01*
X30260302Y-68660061D01*
X30260301Y-68660060D01*
X30260301Y-68660056D01*
X30211265Y-68541673D01*
X30181884Y-68497701D01*
X30181883Y-68497699D01*
X30181882Y-68497697D01*
X30140078Y-68435132D01*
X30140072Y-68435125D01*
X29552137Y-67847191D01*
X29518652Y-67785868D01*
X29517345Y-67740112D01*
X29518526Y-67732658D01*
X29545500Y-67562352D01*
X29545500Y-67357648D01*
X29513477Y-67155466D01*
X29479311Y-67050316D01*
X29477317Y-66980478D01*
X29513397Y-66920645D01*
X29576097Y-66889816D01*
X29597243Y-66888000D01*
X30492538Y-66888000D01*
X30559577Y-66907685D01*
X30580219Y-66924319D01*
X30592861Y-66936961D01*
X30592865Y-66936964D01*
X30740346Y-67035509D01*
X30740359Y-67035516D01*
X30799470Y-67060000D01*
X30904234Y-67103394D01*
X30904236Y-67103394D01*
X30904241Y-67103396D01*
X31078204Y-67137999D01*
X31078207Y-67138000D01*
X31078209Y-67138000D01*
X31255593Y-67138000D01*
X31255594Y-67137999D01*
X31346490Y-67119919D01*
X31429558Y-67103396D01*
X31429561Y-67103394D01*
X31429566Y-67103394D01*
X31593447Y-67035513D01*
X31740935Y-66936964D01*
X31866364Y-66811535D01*
X31964913Y-66664047D01*
X32032794Y-66500166D01*
X32035628Y-66485922D01*
X32067399Y-66326195D01*
X32067400Y-66326193D01*
X32067400Y-66148806D01*
X32067399Y-66148804D01*
X32032796Y-65974841D01*
X32032793Y-65974832D01*
X31964916Y-65810959D01*
X31964909Y-65810946D01*
X31866364Y-65663465D01*
X31866361Y-65663461D01*
X31740938Y-65538038D01*
X31740934Y-65538035D01*
X31593453Y-65439490D01*
X31593440Y-65439483D01*
X31429567Y-65371606D01*
X31429558Y-65371603D01*
X31255594Y-65337000D01*
X31255591Y-65337000D01*
X31078209Y-65337000D01*
X31078206Y-65337000D01*
X30904241Y-65371603D01*
X30904232Y-65371606D01*
X30740359Y-65439483D01*
X30740346Y-65439490D01*
X30592865Y-65538035D01*
X30592861Y-65538038D01*
X30580219Y-65550681D01*
X30518896Y-65584166D01*
X30492538Y-65587000D01*
X29669000Y-65587000D01*
X29601961Y-65567315D01*
X29556206Y-65514511D01*
X29545000Y-65463000D01*
X29545000Y-65170000D01*
X28560686Y-65170000D01*
X28565080Y-65165606D01*
X28617741Y-65074394D01*
X28645000Y-64972661D01*
X28645000Y-64867339D01*
X28617741Y-64765606D01*
X28565080Y-64674394D01*
X28560686Y-64670000D01*
X29545000Y-64670000D01*
X29545000Y-64357100D01*
X29564685Y-64290061D01*
X29617489Y-64244306D01*
X29669000Y-64233100D01*
X34553619Y-64233100D01*
X34620658Y-64252785D01*
G37*
%TD.AperFunction*%
%TA.AperFunction,Conductor*%
G36*
X41336230Y-43041185D02*
G01*
X41381985Y-43093989D01*
X41391929Y-43163147D01*
X41362904Y-43226703D01*
X41356872Y-43233181D01*
X41234727Y-43355325D01*
X41234726Y-43355326D01*
X41163534Y-43461874D01*
X41114499Y-43580255D01*
X41114497Y-43580261D01*
X41089500Y-43705928D01*
X41089500Y-44127500D01*
X41069815Y-44194539D01*
X41017011Y-44240294D01*
X40965500Y-44251500D01*
X37168942Y-44251500D01*
X37101903Y-44231815D01*
X37056148Y-44179011D01*
X37046204Y-44109853D01*
X37058457Y-44071206D01*
X37069754Y-44049032D01*
X37132990Y-43854413D01*
X37141609Y-43800000D01*
X36180686Y-43800000D01*
X36185080Y-43795606D01*
X36237741Y-43704394D01*
X36265000Y-43602661D01*
X36265000Y-43497339D01*
X36237741Y-43395606D01*
X36185080Y-43304394D01*
X36180686Y-43300000D01*
X37141609Y-43300000D01*
X37132990Y-43245586D01*
X37132990Y-43245585D01*
X37112921Y-43183818D01*
X37110926Y-43113977D01*
X37147006Y-43054144D01*
X37209707Y-43023316D01*
X37230852Y-43021500D01*
X41269191Y-43021500D01*
X41336230Y-43041185D01*
G37*
%TD.AperFunction*%
%TA.AperFunction,Conductor*%
G36*
X61327865Y-25770670D02*
G01*
X61350760Y-25771870D01*
X61666176Y-25788402D01*
X61679052Y-25789756D01*
X62010451Y-25842246D01*
X62023122Y-25844939D01*
X62245864Y-25904624D01*
X62347213Y-25931781D01*
X62359558Y-25935792D01*
X62672789Y-26056032D01*
X62684637Y-26061308D01*
X62698055Y-26068145D01*
X62983564Y-26213621D01*
X62994803Y-26220109D01*
X63276197Y-26402850D01*
X63286689Y-26410473D01*
X63373691Y-26480926D01*
X63547427Y-26621616D01*
X63557073Y-26630301D01*
X63794319Y-26867549D01*
X63803003Y-26877195D01*
X64014136Y-27137924D01*
X64021765Y-27148424D01*
X64204492Y-27429802D01*
X64210982Y-27441042D01*
X64363303Y-27739989D01*
X64368582Y-27751846D01*
X64488814Y-28065062D01*
X64492825Y-28077406D01*
X64579662Y-28401486D01*
X64582360Y-28414182D01*
X64634843Y-28745552D01*
X64636200Y-28758460D01*
X64653954Y-29097215D01*
X64654124Y-29103705D01*
X64654124Y-41549992D01*
X64669423Y-41586928D01*
X64669424Y-41586929D01*
X64697695Y-41615200D01*
X64734633Y-41630500D01*
X76473071Y-41630500D01*
X76496754Y-41630500D01*
X76503243Y-41630669D01*
X76841541Y-41648399D01*
X76854448Y-41649755D01*
X77185835Y-41702243D01*
X77198499Y-41704934D01*
X77522602Y-41791777D01*
X77534934Y-41795784D01*
X77848166Y-41916022D01*
X77860008Y-41921294D01*
X78158977Y-42073626D01*
X78170183Y-42080096D01*
X78451587Y-42262843D01*
X78462078Y-42270465D01*
X78669139Y-42438140D01*
X78722823Y-42481612D01*
X78732468Y-42490297D01*
X78969702Y-42727531D01*
X78978387Y-42737176D01*
X79189534Y-42997921D01*
X79197159Y-43008415D01*
X79379899Y-43289810D01*
X79386376Y-43301029D01*
X79528650Y-43580256D01*
X79538700Y-43599980D01*
X79543979Y-43611838D01*
X79664214Y-43925062D01*
X79668225Y-43937406D01*
X79755061Y-44261484D01*
X79757759Y-44274179D01*
X79810243Y-44605550D01*
X79811600Y-44618458D01*
X79829330Y-44956756D01*
X79829500Y-44963246D01*
X79829500Y-111156753D01*
X79829330Y-111163243D01*
X79811600Y-111501541D01*
X79810243Y-111514449D01*
X79757759Y-111845820D01*
X79755061Y-111858515D01*
X79668225Y-112182593D01*
X79664214Y-112194937D01*
X79543979Y-112508161D01*
X79538700Y-112520019D01*
X79386380Y-112818964D01*
X79379894Y-112830197D01*
X79359193Y-112862075D01*
X79197163Y-113111578D01*
X79189534Y-113122078D01*
X78978387Y-113382823D01*
X78969702Y-113392468D01*
X78732468Y-113629702D01*
X78722823Y-113638387D01*
X78462078Y-113849534D01*
X78451578Y-113857163D01*
X78170197Y-114039894D01*
X78158964Y-114046380D01*
X77860019Y-114198700D01*
X77848161Y-114203979D01*
X77534937Y-114324214D01*
X77522593Y-114328225D01*
X77198515Y-114415061D01*
X77185820Y-114417759D01*
X76854449Y-114470243D01*
X76841541Y-114471600D01*
X76503244Y-114489330D01*
X76496754Y-114489500D01*
X27453246Y-114489500D01*
X27446756Y-114489330D01*
X27108458Y-114471600D01*
X27095550Y-114470243D01*
X26764179Y-114417759D01*
X26751484Y-114415061D01*
X26427406Y-114328225D01*
X26415062Y-114324214D01*
X26101838Y-114203979D01*
X26089980Y-114198700D01*
X26076562Y-114191863D01*
X25791029Y-114046376D01*
X25779810Y-114039899D01*
X25498415Y-113857159D01*
X25487921Y-113849534D01*
X25227176Y-113638387D01*
X25217531Y-113629702D01*
X24980297Y-113392468D01*
X24971612Y-113382823D01*
X24760465Y-113122078D01*
X24752843Y-113111587D01*
X24570096Y-112830183D01*
X24563626Y-112818977D01*
X24411294Y-112520008D01*
X24406020Y-112508161D01*
X24285785Y-112194937D01*
X24281777Y-112182602D01*
X24194934Y-111858499D01*
X24192243Y-111845835D01*
X24139755Y-111514448D01*
X24138399Y-111501540D01*
X24120670Y-111163242D01*
X24120500Y-111156753D01*
X24120500Y-109807155D01*
X26960000Y-109807155D01*
X26960000Y-110505000D01*
X27984722Y-110505000D01*
X27940667Y-110581306D01*
X27910000Y-110695756D01*
X27910000Y-110814244D01*
X27940667Y-110928694D01*
X27984722Y-111005000D01*
X26960000Y-111005000D01*
X26960000Y-111702844D01*
X26966401Y-111762372D01*
X26966403Y-111762379D01*
X27016645Y-111897086D01*
X27016649Y-111897093D01*
X27102809Y-112012187D01*
X27102812Y-112012190D01*
X27217906Y-112098350D01*
X27217913Y-112098354D01*
X27352620Y-112148596D01*
X27352627Y-112148598D01*
X27412155Y-112154999D01*
X27412172Y-112155000D01*
X28110000Y-112155000D01*
X28110000Y-111130277D01*
X28186306Y-111174333D01*
X28300756Y-111205000D01*
X28419244Y-111205000D01*
X28533694Y-111174333D01*
X28610000Y-111130277D01*
X28610000Y-112155000D01*
X29307828Y-112155000D01*
X29307844Y-112154999D01*
X29367372Y-112148598D01*
X29367379Y-112148596D01*
X29502086Y-112098354D01*
X29502093Y-112098350D01*
X29617187Y-112012190D01*
X29617190Y-112012187D01*
X29703350Y-111897093D01*
X29703354Y-111897086D01*
X29733213Y-111817031D01*
X29775084Y-111761097D01*
X29840548Y-111736680D01*
X29908821Y-111751531D01*
X29937076Y-111772683D01*
X29987636Y-111823243D01*
X29987641Y-111823247D01*
X30143192Y-111936260D01*
X30165978Y-111952815D01*
X30230163Y-111985519D01*
X30362393Y-112052895D01*
X30362396Y-112052896D01*
X30467221Y-112086955D01*
X30572049Y-112121015D01*
X30789778Y-112155500D01*
X30789779Y-112155500D01*
X31010221Y-112155500D01*
X31010222Y-112155500D01*
X31227951Y-112121015D01*
X31437606Y-112052895D01*
X31569849Y-111985513D01*
X43089500Y-111985513D01*
X43089500Y-112174486D01*
X43119059Y-112361118D01*
X43177454Y-112540836D01*
X43263240Y-112709199D01*
X43374310Y-112862073D01*
X43507927Y-112995690D01*
X43660801Y-113106760D01*
X43740347Y-113147290D01*
X43829163Y-113192545D01*
X43829165Y-113192545D01*
X43829168Y-113192547D01*
X43925497Y-113223846D01*
X44008881Y-113250940D01*
X44195514Y-113280500D01*
X44195519Y-113280500D01*
X44384486Y-113280500D01*
X44571118Y-113250940D01*
X44750832Y-113192547D01*
X44919199Y-113106760D01*
X45072073Y-112995690D01*
X45205690Y-112862073D01*
X45316760Y-112709199D01*
X45402547Y-112540832D01*
X45460940Y-112361118D01*
X45462570Y-112350824D01*
X45490500Y-112174486D01*
X45490500Y-111985513D01*
X53249500Y-111985513D01*
X53249500Y-112174486D01*
X53279059Y-112361118D01*
X53337454Y-112540836D01*
X53423240Y-112709199D01*
X53534310Y-112862073D01*
X53667927Y-112995690D01*
X53820801Y-113106760D01*
X53900347Y-113147290D01*
X53989163Y-113192545D01*
X53989165Y-113192545D01*
X53989168Y-113192547D01*
X54085497Y-113223846D01*
X54168881Y-113250940D01*
X54355514Y-113280500D01*
X54355519Y-113280500D01*
X54544486Y-113280500D01*
X54731118Y-113250940D01*
X54910832Y-113192547D01*
X55079199Y-113106760D01*
X55232073Y-112995690D01*
X55365690Y-112862073D01*
X55476760Y-112709199D01*
X55562547Y-112540832D01*
X55620940Y-112361118D01*
X55622570Y-112350824D01*
X55650500Y-112174486D01*
X55650500Y-111985513D01*
X55620940Y-111798881D01*
X55578207Y-111667365D01*
X55562547Y-111619168D01*
X55562545Y-111619165D01*
X55562545Y-111619163D01*
X55509190Y-111514449D01*
X55476760Y-111450801D01*
X55365690Y-111297927D01*
X55232073Y-111164310D01*
X55079199Y-111053240D01*
X55036151Y-111031306D01*
X54910836Y-110967454D01*
X54731118Y-110909059D01*
X54544486Y-110879500D01*
X54544481Y-110879500D01*
X54355519Y-110879500D01*
X54355514Y-110879500D01*
X54168881Y-110909059D01*
X53989163Y-110967454D01*
X53820800Y-111053240D01*
X53779906Y-111082952D01*
X53667927Y-111164310D01*
X53667925Y-111164312D01*
X53667924Y-111164312D01*
X53534312Y-111297924D01*
X53534312Y-111297925D01*
X53534310Y-111297927D01*
X53508507Y-111333442D01*
X53423240Y-111450800D01*
X53337454Y-111619163D01*
X53279059Y-111798881D01*
X53249500Y-111985513D01*
X45490500Y-111985513D01*
X45460940Y-111798881D01*
X45418207Y-111667365D01*
X45402547Y-111619168D01*
X45402545Y-111619165D01*
X45402545Y-111619163D01*
X45349190Y-111514449D01*
X45316760Y-111450801D01*
X45205690Y-111297927D01*
X45072073Y-111164310D01*
X44919199Y-111053240D01*
X44876151Y-111031306D01*
X44750836Y-110967454D01*
X44571118Y-110909059D01*
X44384486Y-110879500D01*
X44384481Y-110879500D01*
X44195519Y-110879500D01*
X44195514Y-110879500D01*
X44008881Y-110909059D01*
X43829163Y-110967454D01*
X43660800Y-111053240D01*
X43619906Y-111082952D01*
X43507927Y-111164310D01*
X43507925Y-111164312D01*
X43507924Y-111164312D01*
X43374312Y-111297924D01*
X43374312Y-111297925D01*
X43374310Y-111297927D01*
X43348507Y-111333442D01*
X43263240Y-111450800D01*
X43177454Y-111619163D01*
X43119059Y-111798881D01*
X43089500Y-111985513D01*
X31569849Y-111985513D01*
X31634022Y-111952815D01*
X31687333Y-111914082D01*
X31733792Y-111880329D01*
X31812359Y-111823247D01*
X31812361Y-111823244D01*
X31812365Y-111823242D01*
X31968242Y-111667365D01*
X32097815Y-111489022D01*
X32197895Y-111292606D01*
X32266015Y-111082951D01*
X32300500Y-110865222D01*
X32300500Y-110644778D01*
X32266015Y-110427049D01*
X32231955Y-110322221D01*
X32197896Y-110217396D01*
X32197895Y-110217393D01*
X32163237Y-110149375D01*
X32097815Y-110020978D01*
X32081260Y-109998192D01*
X31968247Y-109842641D01*
X31968243Y-109842636D01*
X31812363Y-109686756D01*
X31812358Y-109686752D01*
X31634025Y-109557187D01*
X31634024Y-109557186D01*
X31634022Y-109557185D01*
X31571096Y-109525122D01*
X31437606Y-109457104D01*
X31437603Y-109457103D01*
X31227952Y-109388985D01*
X31119086Y-109371742D01*
X31010222Y-109354500D01*
X30789778Y-109354500D01*
X30717201Y-109365995D01*
X30572047Y-109388985D01*
X30362396Y-109457103D01*
X30362393Y-109457104D01*
X30165974Y-109557187D01*
X29987641Y-109686752D01*
X29987636Y-109686756D01*
X29937075Y-109737317D01*
X29875752Y-109770801D01*
X29806060Y-109765816D01*
X29750127Y-109723945D01*
X29733213Y-109692968D01*
X29703354Y-109612913D01*
X29703350Y-109612906D01*
X29617190Y-109497812D01*
X29617187Y-109497809D01*
X29502093Y-109411649D01*
X29502086Y-109411645D01*
X29367379Y-109361403D01*
X29367372Y-109361401D01*
X29307844Y-109355000D01*
X28610000Y-109355000D01*
X28610000Y-110379722D01*
X28533694Y-110335667D01*
X28419244Y-110305000D01*
X28300756Y-110305000D01*
X28186306Y-110335667D01*
X28110000Y-110379722D01*
X28110000Y-109355000D01*
X27412155Y-109355000D01*
X27352627Y-109361401D01*
X27352620Y-109361403D01*
X27217913Y-109411645D01*
X27217906Y-109411649D01*
X27102812Y-109497809D01*
X27102809Y-109497812D01*
X27016649Y-109612906D01*
X27016645Y-109612913D01*
X26966403Y-109747620D01*
X26966401Y-109747627D01*
X26960000Y-109807155D01*
X24120500Y-109807155D01*
X24120500Y-66725928D01*
X26339500Y-66725928D01*
X26339500Y-66725931D01*
X26339500Y-68809069D01*
X26355144Y-68887713D01*
X26362458Y-68924481D01*
X26364499Y-68934744D01*
X26413534Y-69053125D01*
X26484726Y-69159673D01*
X26484727Y-69159674D01*
X26937862Y-69612808D01*
X26971347Y-69674131D01*
X26972654Y-69719886D01*
X26944500Y-69897647D01*
X26944500Y-70102351D01*
X26976522Y-70304534D01*
X27039781Y-70499223D01*
X27103691Y-70624653D01*
X27117093Y-70650955D01*
X27132715Y-70681613D01*
X27253028Y-70847213D01*
X27397786Y-70991971D01*
X27540078Y-71095350D01*
X27563390Y-71112287D01*
X27641877Y-71152278D01*
X27656080Y-71159515D01*
X27706876Y-71207490D01*
X27723671Y-71275311D01*
X27701134Y-71341446D01*
X27656080Y-71380485D01*
X27563386Y-71427715D01*
X27397786Y-71548028D01*
X27253028Y-71692786D01*
X27132715Y-71858386D01*
X27039781Y-72040776D01*
X26976522Y-72235465D01*
X26944500Y-72437648D01*
X26944500Y-72642351D01*
X26976522Y-72844534D01*
X27039781Y-73039223D01*
X27082828Y-73123706D01*
X27117415Y-73191587D01*
X27132715Y-73221613D01*
X27253028Y-73387213D01*
X27397786Y-73531971D01*
X27552749Y-73644556D01*
X27563390Y-73652287D01*
X27654840Y-73698883D01*
X27656080Y-73699515D01*
X27706876Y-73747490D01*
X27723671Y-73815311D01*
X27701134Y-73881446D01*
X27656080Y-73920485D01*
X27563386Y-73967715D01*
X27397786Y-74088028D01*
X27253028Y-74232786D01*
X27132715Y-74398386D01*
X27039781Y-74580776D01*
X26976522Y-74775465D01*
X26944500Y-74977648D01*
X26944500Y-75182351D01*
X26976522Y-75384534D01*
X27039781Y-75579223D01*
X27074679Y-75647713D01*
X27132506Y-75761204D01*
X27132715Y-75761613D01*
X27253028Y-75927213D01*
X27397786Y-76071971D01*
X27519205Y-76160185D01*
X27563390Y-76192287D01*
X27654840Y-76238883D01*
X27656080Y-76239515D01*
X27706876Y-76287490D01*
X27723671Y-76355311D01*
X27701134Y-76421446D01*
X27656080Y-76460485D01*
X27563386Y-76507715D01*
X27397786Y-76628028D01*
X27253028Y-76772786D01*
X27132715Y-76938386D01*
X27039781Y-77120776D01*
X26976522Y-77315465D01*
X26944500Y-77517648D01*
X26944500Y-77722351D01*
X26976522Y-77924534D01*
X27039781Y-78119223D01*
X27132715Y-78301613D01*
X27253028Y-78467213D01*
X27397786Y-78611971D01*
X27544765Y-78718755D01*
X27563390Y-78732287D01*
X27654840Y-78778883D01*
X27656080Y-78779515D01*
X27706876Y-78827490D01*
X27723671Y-78895311D01*
X27701134Y-78961446D01*
X27656080Y-79000485D01*
X27563386Y-79047715D01*
X27397786Y-79168028D01*
X27253028Y-79312786D01*
X27132715Y-79478386D01*
X27039781Y-79660776D01*
X26976522Y-79855465D01*
X26944500Y-80057648D01*
X26944500Y-80262351D01*
X26976522Y-80464534D01*
X27039781Y-80659223D01*
X27132715Y-80841613D01*
X27253028Y-81007213D01*
X27397786Y-81151971D01*
X27547546Y-81260776D01*
X27563390Y-81272287D01*
X27631636Y-81307060D01*
X27656080Y-81319515D01*
X27706876Y-81367490D01*
X27723671Y-81435311D01*
X27701134Y-81501446D01*
X27656080Y-81540485D01*
X27563386Y-81587715D01*
X27397786Y-81708028D01*
X27253028Y-81852786D01*
X27132715Y-82018386D01*
X27039781Y-82200776D01*
X26976522Y-82395465D01*
X26944500Y-82597648D01*
X26944500Y-82802351D01*
X26976522Y-83004534D01*
X27039781Y-83199223D01*
X27083687Y-83285391D01*
X27131177Y-83378596D01*
X27132715Y-83381613D01*
X27253028Y-83547213D01*
X27397786Y-83691971D01*
X27552749Y-83804556D01*
X27563390Y-83812287D01*
X27679607Y-83871503D01*
X27745776Y-83905218D01*
X27745778Y-83905218D01*
X27745781Y-83905220D01*
X27850137Y-83939127D01*
X27940465Y-83968477D01*
X28041557Y-83984488D01*
X28142648Y-84000500D01*
X28142649Y-84000500D01*
X28347351Y-84000500D01*
X28347352Y-84000500D01*
X28549534Y-83968477D01*
X28744219Y-83905220D01*
X28926610Y-83812287D01*
X29019590Y-83744732D01*
X29092213Y-83691971D01*
X29092215Y-83691968D01*
X29092219Y-83691966D01*
X29236966Y-83547219D01*
X29236972Y-83547210D01*
X29239748Y-83543962D01*
X29298258Y-83505773D01*
X29334033Y-83500500D01*
X34775967Y-83500500D01*
X34843006Y-83520185D01*
X34870252Y-83543962D01*
X34873035Y-83547220D01*
X35017786Y-83691971D01*
X35172749Y-83804556D01*
X35183390Y-83812287D01*
X35299607Y-83871503D01*
X35365776Y-83905218D01*
X35365778Y-83905218D01*
X35365781Y-83905220D01*
X35470137Y-83939127D01*
X35560465Y-83968477D01*
X35661557Y-83984488D01*
X35762648Y-84000500D01*
X35762649Y-84000500D01*
X35967351Y-84000500D01*
X35967352Y-84000500D01*
X36169534Y-83968477D01*
X36364219Y-83905220D01*
X36546610Y-83812287D01*
X36639590Y-83744732D01*
X36712213Y-83691971D01*
X36712215Y-83691968D01*
X36712219Y-83691966D01*
X36856966Y-83547219D01*
X36856972Y-83547210D01*
X36859748Y-83543962D01*
X36918258Y-83505773D01*
X36954033Y-83500500D01*
X37988844Y-83500500D01*
X37988845Y-83500499D01*
X38143497Y-83469737D01*
X38289179Y-83409394D01*
X38420289Y-83321789D01*
X38645979Y-83096097D01*
X38707298Y-83062615D01*
X38743404Y-83060165D01*
X38747643Y-83060499D01*
X38747648Y-83060500D01*
X38747653Y-83060500D01*
X38952351Y-83060500D01*
X38952352Y-83060500D01*
X39154534Y-83028477D01*
X39349219Y-82965220D01*
X39531610Y-82872287D01*
X39672831Y-82769685D01*
X39697213Y-82751971D01*
X39697215Y-82751968D01*
X39697219Y-82751966D01*
X39707019Y-82742166D01*
X39768342Y-82708681D01*
X39838034Y-82713665D01*
X39893967Y-82755537D01*
X39918384Y-82821001D01*
X39918700Y-82829847D01*
X39918700Y-86073491D01*
X39899015Y-86140530D01*
X39882381Y-86161172D01*
X39250000Y-86793553D01*
X39250000Y-86787339D01*
X39222741Y-86685606D01*
X39170080Y-86594394D01*
X39095606Y-86519920D01*
X39004394Y-86467259D01*
X38902661Y-86440000D01*
X38896446Y-86440000D01*
X39575922Y-85760524D01*
X39575921Y-85760523D01*
X39531359Y-85728147D01*
X39531350Y-85728141D01*
X39349031Y-85635244D01*
X39154417Y-85572009D01*
X38952317Y-85540000D01*
X38747683Y-85540000D01*
X38545582Y-85572009D01*
X38350968Y-85635244D01*
X38168644Y-85728143D01*
X38124077Y-85760523D01*
X38124077Y-85760524D01*
X38803554Y-86440000D01*
X38797339Y-86440000D01*
X38695606Y-86467259D01*
X38604394Y-86519920D01*
X38529920Y-86594394D01*
X38477259Y-86685606D01*
X38450000Y-86787339D01*
X38450000Y-86793553D01*
X37770524Y-86114077D01*
X37770523Y-86114077D01*
X37738143Y-86158644D01*
X37645244Y-86340968D01*
X37582009Y-86535582D01*
X37550000Y-86737682D01*
X37550000Y-86942317D01*
X37582009Y-87144417D01*
X37645244Y-87339031D01*
X37738141Y-87521350D01*
X37738147Y-87521359D01*
X37770523Y-87565921D01*
X37770524Y-87565922D01*
X38450000Y-86886446D01*
X38450000Y-86892661D01*
X38477259Y-86994394D01*
X38529920Y-87085606D01*
X38604394Y-87160080D01*
X38695606Y-87212741D01*
X38797339Y-87240000D01*
X38803553Y-87240000D01*
X38124076Y-87919474D01*
X38168650Y-87951859D01*
X38350968Y-88044755D01*
X38545582Y-88107990D01*
X38747683Y-88140000D01*
X38952317Y-88140000D01*
X39154417Y-88107990D01*
X39349031Y-88044755D01*
X39531349Y-87951859D01*
X39575921Y-87919474D01*
X38896447Y-87240000D01*
X38902661Y-87240000D01*
X39004394Y-87212741D01*
X39095606Y-87160080D01*
X39170080Y-87085606D01*
X39222741Y-86994394D01*
X39250000Y-86892661D01*
X39250000Y-86886446D01*
X39882381Y-87518827D01*
X39915866Y-87580150D01*
X39918700Y-87606508D01*
X39918700Y-88109992D01*
X39899015Y-88177031D01*
X39882381Y-88197673D01*
X38666273Y-89413781D01*
X38604950Y-89447266D01*
X38578592Y-89450100D01*
X37208113Y-89450100D01*
X37141074Y-89430415D01*
X37095319Y-89377611D01*
X37085375Y-89308453D01*
X37090182Y-89287781D01*
X37091884Y-89282545D01*
X37133477Y-89154534D01*
X37165500Y-88952352D01*
X37165500Y-88747648D01*
X37154900Y-88680726D01*
X37133477Y-88545465D01*
X37102821Y-88451118D01*
X37070220Y-88350781D01*
X37070218Y-88350778D01*
X37070218Y-88350776D01*
X37026248Y-88264481D01*
X36977287Y-88168390D01*
X36954705Y-88137308D01*
X36856971Y-88002786D01*
X36712213Y-87858028D01*
X36546611Y-87737713D01*
X36453369Y-87690203D01*
X36402574Y-87642229D01*
X36385779Y-87574407D01*
X36408317Y-87508273D01*
X36453371Y-87469234D01*
X36546347Y-87421861D01*
X36711894Y-87301582D01*
X36711895Y-87301582D01*
X36856582Y-87156895D01*
X36856582Y-87156894D01*
X36976859Y-86991349D01*
X37069754Y-86809031D01*
X37106970Y-86694497D01*
X37106970Y-86694496D01*
X37132990Y-86614414D01*
X37132990Y-86614413D01*
X37141609Y-86560000D01*
X36180686Y-86560000D01*
X36185080Y-86555606D01*
X36237741Y-86464394D01*
X36265000Y-86362661D01*
X36265000Y-86257339D01*
X36237741Y-86155606D01*
X36185080Y-86064394D01*
X36180686Y-86060000D01*
X37141609Y-86060000D01*
X37132990Y-86005586D01*
X37132990Y-86005585D01*
X37081174Y-85846113D01*
X37081171Y-85846103D01*
X37069754Y-85810967D01*
X36976859Y-85628650D01*
X36856582Y-85463105D01*
X36856582Y-85463104D01*
X36711895Y-85318417D01*
X36546349Y-85198140D01*
X36364029Y-85105244D01*
X36169413Y-85042009D01*
X36115000Y-85033390D01*
X36115000Y-85994314D01*
X36110606Y-85989920D01*
X36019394Y-85937259D01*
X35917661Y-85910000D01*
X35812339Y-85910000D01*
X35710606Y-85937259D01*
X35619394Y-85989920D01*
X35615000Y-85994314D01*
X35615000Y-85033390D01*
X35560586Y-85042009D01*
X35365970Y-85105244D01*
X35183650Y-85198140D01*
X35018105Y-85318417D01*
X35018104Y-85318417D01*
X34873417Y-85463104D01*
X34873417Y-85463105D01*
X34753140Y-85628650D01*
X34660244Y-85810970D01*
X34597009Y-86005586D01*
X34588391Y-86060000D01*
X35549314Y-86060000D01*
X35544920Y-86064394D01*
X35492259Y-86155606D01*
X35465000Y-86257339D01*
X35465000Y-86362661D01*
X35492259Y-86464394D01*
X35544920Y-86555606D01*
X35549314Y-86560000D01*
X34588391Y-86560000D01*
X34597009Y-86614413D01*
X34660244Y-86809029D01*
X34753140Y-86991349D01*
X34873417Y-87156894D01*
X34873417Y-87156895D01*
X35018104Y-87301582D01*
X35183652Y-87421861D01*
X35276628Y-87469234D01*
X35327425Y-87517208D01*
X35344220Y-87585029D01*
X35321683Y-87651164D01*
X35276630Y-87690203D01*
X35183388Y-87737713D01*
X35017786Y-87858028D01*
X34873028Y-88002786D01*
X34752715Y-88168386D01*
X34659781Y-88350776D01*
X34596522Y-88545465D01*
X34564500Y-88747648D01*
X34564500Y-88790791D01*
X34544815Y-88857830D01*
X34492011Y-88903585D01*
X34422853Y-88913529D01*
X34359297Y-88884504D01*
X34352819Y-88878472D01*
X33819073Y-88344726D01*
X33786523Y-88322977D01*
X33712527Y-88273535D01*
X33707341Y-88271387D01*
X33594144Y-88224499D01*
X33594138Y-88224497D01*
X33468471Y-88199500D01*
X33468469Y-88199500D01*
X29460769Y-88199500D01*
X29443071Y-88199500D01*
X29376032Y-88179815D01*
X29342754Y-88148386D01*
X29236966Y-88002781D01*
X29092219Y-87858034D01*
X29092217Y-87858032D01*
X29092212Y-87858028D01*
X29055325Y-87831228D01*
X29012659Y-87775898D01*
X29006680Y-87706285D01*
X29039286Y-87644490D01*
X29100124Y-87610133D01*
X29114956Y-87607620D01*
X29152379Y-87603596D01*
X29287086Y-87553354D01*
X29287093Y-87553350D01*
X29402187Y-87467190D01*
X29402190Y-87467187D01*
X29488350Y-87352093D01*
X29488354Y-87352086D01*
X29538596Y-87217379D01*
X29538598Y-87217372D01*
X29544999Y-87157844D01*
X29545000Y-87157827D01*
X29545000Y-86560000D01*
X28560686Y-86560000D01*
X28565080Y-86555606D01*
X28617741Y-86464394D01*
X28645000Y-86362661D01*
X28645000Y-86257339D01*
X28617741Y-86155606D01*
X28565080Y-86064394D01*
X28560686Y-86060000D01*
X29545000Y-86060000D01*
X29545000Y-85462172D01*
X29544999Y-85462155D01*
X29538598Y-85402627D01*
X29538596Y-85402620D01*
X29488354Y-85267913D01*
X29488350Y-85267906D01*
X29402190Y-85152812D01*
X29402187Y-85152809D01*
X29287093Y-85066649D01*
X29287086Y-85066645D01*
X29152379Y-85016403D01*
X29152372Y-85016401D01*
X29092844Y-85010000D01*
X28495000Y-85010000D01*
X28495000Y-85994314D01*
X28490606Y-85989920D01*
X28399394Y-85937259D01*
X28297661Y-85910000D01*
X28192339Y-85910000D01*
X28090606Y-85937259D01*
X27999394Y-85989920D01*
X27995000Y-85994314D01*
X27995000Y-85010000D01*
X27397155Y-85010000D01*
X27337627Y-85016401D01*
X27337620Y-85016403D01*
X27202913Y-85066645D01*
X27202906Y-85066649D01*
X27087812Y-85152809D01*
X27087809Y-85152812D01*
X27001649Y-85267906D01*
X27001645Y-85267913D01*
X26951403Y-85402620D01*
X26951401Y-85402627D01*
X26945000Y-85462155D01*
X26945000Y-86060000D01*
X27929314Y-86060000D01*
X27924920Y-86064394D01*
X27872259Y-86155606D01*
X27845000Y-86257339D01*
X27845000Y-86362661D01*
X27872259Y-86464394D01*
X27924920Y-86555606D01*
X27929314Y-86560000D01*
X26945000Y-86560000D01*
X26945000Y-87157844D01*
X26951401Y-87217372D01*
X26951403Y-87217379D01*
X27001645Y-87352086D01*
X27001649Y-87352093D01*
X27087809Y-87467187D01*
X27087812Y-87467190D01*
X27202906Y-87553350D01*
X27202913Y-87553354D01*
X27337620Y-87603596D01*
X27375043Y-87607620D01*
X27439595Y-87634358D01*
X27479443Y-87691750D01*
X27481937Y-87761576D01*
X27446285Y-87821665D01*
X27434675Y-87831227D01*
X27397789Y-87858026D01*
X27397782Y-87858032D01*
X27253028Y-88002786D01*
X27132715Y-88168386D01*
X27039781Y-88350776D01*
X26976522Y-88545465D01*
X26944500Y-88747648D01*
X26944500Y-88952351D01*
X26976522Y-89154534D01*
X27039781Y-89349223D01*
X27132715Y-89531613D01*
X27253028Y-89697213D01*
X27397786Y-89841971D01*
X27496175Y-89913453D01*
X27563390Y-89962287D01*
X27631948Y-89997219D01*
X27656080Y-90009515D01*
X27706876Y-90057490D01*
X27723671Y-90125311D01*
X27701134Y-90191446D01*
X27656080Y-90230485D01*
X27563386Y-90277715D01*
X27397786Y-90398028D01*
X27253028Y-90542786D01*
X27132715Y-90708386D01*
X27039781Y-90890776D01*
X26976522Y-91085465D01*
X26951908Y-91240875D01*
X26944500Y-91287648D01*
X26944500Y-91492352D01*
X26945834Y-91500776D01*
X26976522Y-91694534D01*
X27039781Y-91889223D01*
X27132715Y-92071613D01*
X27253028Y-92237213D01*
X27397786Y-92381971D01*
X27517947Y-92469271D01*
X27563390Y-92502287D01*
X27631948Y-92537219D01*
X27656080Y-92549515D01*
X27706876Y-92597490D01*
X27723671Y-92665311D01*
X27701134Y-92731446D01*
X27656080Y-92770485D01*
X27563386Y-92817715D01*
X27397786Y-92938028D01*
X27253028Y-93082786D01*
X27132715Y-93248386D01*
X27039781Y-93430776D01*
X26976522Y-93625465D01*
X26944500Y-93827648D01*
X26944500Y-94032351D01*
X26976522Y-94234534D01*
X27039781Y-94429223D01*
X27132715Y-94611613D01*
X27253028Y-94777213D01*
X27397786Y-94921971D01*
X27540167Y-95025415D01*
X27563390Y-95042287D01*
X27654840Y-95088883D01*
X27656080Y-95089515D01*
X27706876Y-95137490D01*
X27723671Y-95205311D01*
X27701134Y-95271446D01*
X27656080Y-95310485D01*
X27563386Y-95357715D01*
X27397786Y-95478028D01*
X27253028Y-95622786D01*
X27132715Y-95788386D01*
X27039781Y-95970776D01*
X26976522Y-96165465D01*
X26944500Y-96367648D01*
X26944500Y-96572351D01*
X26976522Y-96774534D01*
X27039781Y-96969223D01*
X27132715Y-97151613D01*
X27253028Y-97317213D01*
X27397786Y-97461971D01*
X27552749Y-97574556D01*
X27563390Y-97582287D01*
X27654840Y-97628883D01*
X27656080Y-97629515D01*
X27706876Y-97677490D01*
X27723671Y-97745311D01*
X27701134Y-97811446D01*
X27656080Y-97850485D01*
X27563386Y-97897715D01*
X27397786Y-98018028D01*
X27253028Y-98162786D01*
X27132715Y-98328386D01*
X27039781Y-98510776D01*
X26976522Y-98705465D01*
X26944500Y-98907648D01*
X26944500Y-99112351D01*
X26976522Y-99314534D01*
X27039781Y-99509223D01*
X27132715Y-99691613D01*
X27253028Y-99857213D01*
X27397786Y-100001971D01*
X27552749Y-100114556D01*
X27563390Y-100122287D01*
X27628021Y-100155218D01*
X27656080Y-100169515D01*
X27706876Y-100217490D01*
X27723671Y-100285311D01*
X27701134Y-100351446D01*
X27656080Y-100390485D01*
X27563386Y-100437715D01*
X27397786Y-100558028D01*
X27253028Y-100702786D01*
X27132715Y-100868386D01*
X27039781Y-101050776D01*
X26976522Y-101245465D01*
X26944500Y-101447648D01*
X26944500Y-101652351D01*
X26976522Y-101854534D01*
X27039781Y-102049223D01*
X27084433Y-102136856D01*
X27129415Y-102225138D01*
X27132715Y-102231613D01*
X27253028Y-102397213D01*
X27397786Y-102541971D01*
X27552749Y-102654556D01*
X27563390Y-102662287D01*
X27654840Y-102708883D01*
X27656080Y-102709515D01*
X27706876Y-102757490D01*
X27723671Y-102825311D01*
X27701134Y-102891446D01*
X27656080Y-102930485D01*
X27563386Y-102977715D01*
X27397786Y-103098028D01*
X27253028Y-103242786D01*
X27132715Y-103408386D01*
X27039781Y-103590776D01*
X26976522Y-103785465D01*
X26944500Y-103987648D01*
X26944500Y-104192351D01*
X26976522Y-104394534D01*
X27039781Y-104589223D01*
X27132715Y-104771613D01*
X27253028Y-104937213D01*
X27397786Y-105081971D01*
X27544873Y-105188834D01*
X27563390Y-105202287D01*
X27646762Y-105244767D01*
X27745776Y-105295218D01*
X27745778Y-105295218D01*
X27745781Y-105295220D01*
X27798385Y-105312312D01*
X27940465Y-105358477D01*
X27980267Y-105364781D01*
X28142648Y-105390500D01*
X28142649Y-105390500D01*
X28347351Y-105390500D01*
X28347352Y-105390500D01*
X28549534Y-105358477D01*
X28744219Y-105295220D01*
X28926610Y-105202287D01*
X29041050Y-105119142D01*
X29092213Y-105081971D01*
X29092215Y-105081968D01*
X29092219Y-105081966D01*
X29236966Y-104937219D01*
X29236972Y-104937210D01*
X29239748Y-104933962D01*
X29298258Y-104895773D01*
X29334033Y-104890500D01*
X34775967Y-104890500D01*
X34843006Y-104910185D01*
X34870252Y-104933962D01*
X34873035Y-104937220D01*
X35017786Y-105081971D01*
X35164873Y-105188834D01*
X35183390Y-105202287D01*
X35266762Y-105244767D01*
X35365776Y-105295218D01*
X35365778Y-105295218D01*
X35365781Y-105295220D01*
X35418385Y-105312312D01*
X35560465Y-105358477D01*
X35600267Y-105364781D01*
X35762648Y-105390500D01*
X35762649Y-105390500D01*
X35967351Y-105390500D01*
X35967352Y-105390500D01*
X36169534Y-105358477D01*
X36364219Y-105295220D01*
X36546610Y-105202287D01*
X36661050Y-105119142D01*
X36712213Y-105081971D01*
X36712215Y-105081968D01*
X36712219Y-105081966D01*
X36856966Y-104937219D01*
X36856968Y-104937215D01*
X36856971Y-104937213D01*
X36977286Y-104771611D01*
X36995421Y-104736020D01*
X37043395Y-104685224D01*
X37111216Y-104668428D01*
X37177351Y-104690965D01*
X37193587Y-104704633D01*
X37454781Y-104965827D01*
X37488266Y-105027150D01*
X37491100Y-105053508D01*
X37491100Y-107784271D01*
X37514332Y-107901061D01*
X37514332Y-107901062D01*
X37516097Y-107909937D01*
X37516100Y-107909947D01*
X37565132Y-108028323D01*
X37636326Y-108134873D01*
X38481828Y-108980375D01*
X38481831Y-108980377D01*
X38569017Y-109038632D01*
X38569018Y-109038633D01*
X38569017Y-109038633D01*
X38588371Y-109051564D01*
X38588372Y-109051564D01*
X38588373Y-109051565D01*
X38706756Y-109100601D01*
X38813726Y-109121879D01*
X38875637Y-109154264D01*
X38877218Y-109155817D01*
X38895962Y-109174562D01*
X38895965Y-109174564D01*
X39043446Y-109273109D01*
X39043459Y-109273116D01*
X39166363Y-109324023D01*
X39207334Y-109340994D01*
X39207336Y-109340994D01*
X39207341Y-109340996D01*
X39381304Y-109375599D01*
X39381307Y-109375600D01*
X39381309Y-109375600D01*
X39558693Y-109375600D01*
X39558694Y-109375599D01*
X39662254Y-109355000D01*
X39732658Y-109340996D01*
X39732661Y-109340994D01*
X39732666Y-109340994D01*
X39896547Y-109273113D01*
X40044035Y-109174564D01*
X40169464Y-109049135D01*
X40268013Y-108901647D01*
X40335894Y-108737766D01*
X40370500Y-108563791D01*
X40370500Y-108386409D01*
X40370500Y-108386406D01*
X40370499Y-108386404D01*
X40335896Y-108212441D01*
X40335893Y-108212432D01*
X40265682Y-108042924D01*
X40267923Y-108041995D01*
X40255855Y-107984063D01*
X40280848Y-107918817D01*
X40337149Y-107877441D01*
X40379456Y-107870000D01*
X40490000Y-107870000D01*
X40490000Y-106885686D01*
X40494394Y-106890080D01*
X40585606Y-106942741D01*
X40687339Y-106970000D01*
X40792661Y-106970000D01*
X40894394Y-106942741D01*
X40985606Y-106890080D01*
X40990000Y-106885686D01*
X40990000Y-107870000D01*
X41587828Y-107870000D01*
X41587844Y-107869999D01*
X41647372Y-107863598D01*
X41647379Y-107863596D01*
X41782086Y-107813354D01*
X41782093Y-107813350D01*
X41897187Y-107727190D01*
X41897190Y-107727187D01*
X41983350Y-107612093D01*
X41983354Y-107612086D01*
X42033596Y-107477379D01*
X42037620Y-107439956D01*
X42064358Y-107375404D01*
X42121750Y-107335556D01*
X42191575Y-107333062D01*
X42251664Y-107368714D01*
X42261228Y-107380325D01*
X42288028Y-107417212D01*
X42288032Y-107417217D01*
X42432786Y-107561971D01*
X42570858Y-107662284D01*
X42598390Y-107682287D01*
X42686517Y-107727190D01*
X42780776Y-107775218D01*
X42780778Y-107775218D01*
X42780781Y-107775220D01*
X42885137Y-107809127D01*
X42975465Y-107838477D01*
X43051375Y-107850500D01*
X43177648Y-107870500D01*
X43177649Y-107870500D01*
X43382351Y-107870500D01*
X43382352Y-107870500D01*
X43584534Y-107838477D01*
X43779219Y-107775220D01*
X43961610Y-107682287D01*
X44109830Y-107574600D01*
X44127213Y-107561971D01*
X44127215Y-107561968D01*
X44127219Y-107561966D01*
X44271966Y-107417219D01*
X44271968Y-107417215D01*
X44271971Y-107417213D01*
X44392284Y-107251614D01*
X44392283Y-107251614D01*
X44392287Y-107251610D01*
X44439516Y-107158917D01*
X44487489Y-107108123D01*
X44555310Y-107091328D01*
X44621445Y-107113865D01*
X44660483Y-107158917D01*
X44697524Y-107231613D01*
X44707715Y-107251614D01*
X44828028Y-107417213D01*
X44972786Y-107561971D01*
X45110858Y-107662284D01*
X45138390Y-107682287D01*
X45226517Y-107727190D01*
X45320776Y-107775218D01*
X45320778Y-107775218D01*
X45320781Y-107775220D01*
X45425137Y-107809127D01*
X45515465Y-107838477D01*
X45591375Y-107850500D01*
X45717648Y-107870500D01*
X45717649Y-107870500D01*
X45922351Y-107870500D01*
X45922352Y-107870500D01*
X46124534Y-107838477D01*
X46319219Y-107775220D01*
X46501610Y-107682287D01*
X46649830Y-107574600D01*
X46667213Y-107561971D01*
X46667215Y-107561968D01*
X46667219Y-107561966D01*
X46811966Y-107417219D01*
X46811968Y-107417215D01*
X46811971Y-107417213D01*
X46932284Y-107251614D01*
X46932283Y-107251614D01*
X46932287Y-107251610D01*
X46979516Y-107158917D01*
X47027489Y-107108123D01*
X47095310Y-107091328D01*
X47161445Y-107113865D01*
X47200483Y-107158917D01*
X47237524Y-107231613D01*
X47247715Y-107251614D01*
X47368028Y-107417213D01*
X47512786Y-107561971D01*
X47650858Y-107662284D01*
X47678390Y-107682287D01*
X47766517Y-107727190D01*
X47860776Y-107775218D01*
X47860778Y-107775218D01*
X47860781Y-107775220D01*
X47965137Y-107809127D01*
X48055465Y-107838477D01*
X48131375Y-107850500D01*
X48257648Y-107870500D01*
X48257649Y-107870500D01*
X48462351Y-107870500D01*
X48462352Y-107870500D01*
X48664534Y-107838477D01*
X48859219Y-107775220D01*
X49041610Y-107682287D01*
X49189830Y-107574600D01*
X49207213Y-107561971D01*
X49207215Y-107561968D01*
X49207219Y-107561966D01*
X49351966Y-107417219D01*
X49351968Y-107417215D01*
X49351971Y-107417213D01*
X49472284Y-107251614D01*
X49472283Y-107251614D01*
X49472287Y-107251610D01*
X49519516Y-107158917D01*
X49567489Y-107108123D01*
X49635310Y-107091328D01*
X49701445Y-107113865D01*
X49740483Y-107158917D01*
X49777524Y-107231613D01*
X49787715Y-107251614D01*
X49908028Y-107417213D01*
X50052786Y-107561971D01*
X50190858Y-107662284D01*
X50218390Y-107682287D01*
X50306517Y-107727190D01*
X50400776Y-107775218D01*
X50400778Y-107775218D01*
X50400781Y-107775220D01*
X50505137Y-107809127D01*
X50595465Y-107838477D01*
X50671375Y-107850500D01*
X50797648Y-107870500D01*
X50797649Y-107870500D01*
X51002351Y-107870500D01*
X51002352Y-107870500D01*
X51204534Y-107838477D01*
X51399219Y-107775220D01*
X51581610Y-107682287D01*
X51729830Y-107574600D01*
X51747213Y-107561971D01*
X51747215Y-107561968D01*
X51747219Y-107561966D01*
X51891966Y-107417219D01*
X51891968Y-107417215D01*
X51891971Y-107417213D01*
X52012284Y-107251614D01*
X52012283Y-107251614D01*
X52012287Y-107251610D01*
X52059516Y-107158917D01*
X52107489Y-107108123D01*
X52175310Y-107091328D01*
X52241445Y-107113865D01*
X52280483Y-107158917D01*
X52317524Y-107231613D01*
X52327715Y-107251614D01*
X52448028Y-107417213D01*
X52592786Y-107561971D01*
X52730858Y-107662284D01*
X52758390Y-107682287D01*
X52846517Y-107727190D01*
X52940776Y-107775218D01*
X52940778Y-107775218D01*
X52940781Y-107775220D01*
X53045137Y-107809127D01*
X53135465Y-107838477D01*
X53211375Y-107850500D01*
X53337648Y-107870500D01*
X53337649Y-107870500D01*
X53542351Y-107870500D01*
X53542352Y-107870500D01*
X53744534Y-107838477D01*
X53939219Y-107775220D01*
X54121610Y-107682287D01*
X54269830Y-107574600D01*
X54287213Y-107561971D01*
X54287215Y-107561968D01*
X54287219Y-107561966D01*
X54431966Y-107417219D01*
X54431968Y-107417215D01*
X54431971Y-107417213D01*
X54552284Y-107251614D01*
X54552283Y-107251614D01*
X54552287Y-107251610D01*
X54599516Y-107158917D01*
X54647489Y-107108123D01*
X54715310Y-107091328D01*
X54781445Y-107113865D01*
X54820483Y-107158917D01*
X54857524Y-107231613D01*
X54867715Y-107251614D01*
X54988028Y-107417213D01*
X55132786Y-107561971D01*
X55270858Y-107662284D01*
X55298390Y-107682287D01*
X55386517Y-107727190D01*
X55480776Y-107775218D01*
X55480778Y-107775218D01*
X55480781Y-107775220D01*
X55585137Y-107809127D01*
X55675465Y-107838477D01*
X55751375Y-107850500D01*
X55877648Y-107870500D01*
X55877649Y-107870500D01*
X56082351Y-107870500D01*
X56082352Y-107870500D01*
X56284534Y-107838477D01*
X56479219Y-107775220D01*
X56661610Y-107682287D01*
X56809830Y-107574600D01*
X56827213Y-107561971D01*
X56827215Y-107561968D01*
X56827219Y-107561966D01*
X56971966Y-107417219D01*
X56971968Y-107417215D01*
X56971971Y-107417213D01*
X57092284Y-107251614D01*
X57092283Y-107251614D01*
X57092287Y-107251610D01*
X57139516Y-107158917D01*
X57187489Y-107108123D01*
X57255310Y-107091328D01*
X57321445Y-107113865D01*
X57360483Y-107158917D01*
X57397524Y-107231613D01*
X57407715Y-107251614D01*
X57528028Y-107417213D01*
X57672786Y-107561971D01*
X57810858Y-107662284D01*
X57838390Y-107682287D01*
X57926517Y-107727190D01*
X58020776Y-107775218D01*
X58020778Y-107775218D01*
X58020781Y-107775220D01*
X58125137Y-107809127D01*
X58215465Y-107838477D01*
X58291375Y-107850500D01*
X58417648Y-107870500D01*
X58417649Y-107870500D01*
X58622351Y-107870500D01*
X58622352Y-107870500D01*
X58824534Y-107838477D01*
X59019219Y-107775220D01*
X59201610Y-107682287D01*
X59349830Y-107574600D01*
X59367213Y-107561971D01*
X59367215Y-107561968D01*
X59367219Y-107561966D01*
X59511966Y-107417219D01*
X59511972Y-107417210D01*
X59514748Y-107413962D01*
X59573258Y-107375773D01*
X59609033Y-107370500D01*
X60619952Y-107370500D01*
X60686991Y-107390185D01*
X60707633Y-107406818D01*
X60842781Y-107541966D01*
X60842784Y-107541968D01*
X60842788Y-107541972D01*
X60964352Y-107630292D01*
X61008390Y-107662287D01*
X61124607Y-107721503D01*
X61190776Y-107755218D01*
X61190778Y-107755218D01*
X61190781Y-107755220D01*
X61252329Y-107775218D01*
X61385465Y-107818477D01*
X61486557Y-107834488D01*
X61587648Y-107850500D01*
X61587649Y-107850500D01*
X61792351Y-107850500D01*
X61792352Y-107850500D01*
X61994534Y-107818477D01*
X62189219Y-107755220D01*
X62371610Y-107662287D01*
X62492302Y-107574600D01*
X62537213Y-107541971D01*
X62537215Y-107541968D01*
X62537219Y-107541966D01*
X62681966Y-107397219D01*
X62681968Y-107397215D01*
X62681971Y-107397213D01*
X62787756Y-107251610D01*
X62802287Y-107231610D01*
X62895220Y-107049219D01*
X62958477Y-106854534D01*
X62990500Y-106652352D01*
X62990500Y-106447648D01*
X62961645Y-106265466D01*
X62958477Y-106245465D01*
X62895218Y-106050776D01*
X62861503Y-105984607D01*
X62802287Y-105868390D01*
X62794556Y-105857749D01*
X62681971Y-105702786D01*
X62537213Y-105558028D01*
X62371613Y-105437715D01*
X62371612Y-105437714D01*
X62371610Y-105437713D01*
X62314653Y-105408691D01*
X62189223Y-105344781D01*
X61994534Y-105281522D01*
X61819995Y-105253878D01*
X61792352Y-105249500D01*
X61587648Y-105249500D01*
X61563329Y-105253351D01*
X61385465Y-105281522D01*
X61190776Y-105344781D01*
X61008386Y-105437715D01*
X60842786Y-105558028D01*
X60698032Y-105702782D01*
X60698028Y-105702787D01*
X60686696Y-105718385D01*
X60631366Y-105761051D01*
X60586378Y-105769500D01*
X59609033Y-105769500D01*
X59579592Y-105760855D01*
X59549606Y-105754332D01*
X59545201Y-105750756D01*
X59541994Y-105749815D01*
X59521351Y-105733181D01*
X59514662Y-105726492D01*
X59511966Y-105722781D01*
X59367219Y-105578034D01*
X59363510Y-105575339D01*
X59356818Y-105568647D01*
X59342309Y-105542076D01*
X59325770Y-105516731D01*
X59324771Y-105509957D01*
X59323334Y-105507324D01*
X59323677Y-105502527D01*
X59320500Y-105480966D01*
X59320500Y-101367682D01*
X60390000Y-101367682D01*
X60390000Y-101572317D01*
X60422009Y-101774417D01*
X60485244Y-101969031D01*
X60578141Y-102151350D01*
X60578147Y-102151359D01*
X60610523Y-102195921D01*
X60610524Y-102195922D01*
X61290000Y-101516446D01*
X61290000Y-101522661D01*
X61317259Y-101624394D01*
X61369920Y-101715606D01*
X61444394Y-101790080D01*
X61535606Y-101842741D01*
X61637339Y-101870000D01*
X61643553Y-101870000D01*
X60964076Y-102549474D01*
X61008650Y-102581859D01*
X61190968Y-102674755D01*
X61385582Y-102737990D01*
X61587683Y-102770000D01*
X61792317Y-102770000D01*
X61994417Y-102737990D01*
X62189031Y-102674755D01*
X62371349Y-102581859D01*
X62415921Y-102549474D01*
X61736447Y-101870000D01*
X61742661Y-101870000D01*
X61844394Y-101842741D01*
X61935606Y-101790080D01*
X62010080Y-101715606D01*
X62062741Y-101624394D01*
X62090000Y-101522661D01*
X62090000Y-101516447D01*
X62769474Y-102195921D01*
X62801859Y-102151349D01*
X62894755Y-101969031D01*
X62957990Y-101774417D01*
X62990000Y-101572317D01*
X62990000Y-101367682D01*
X62957990Y-101165582D01*
X62894755Y-100970968D01*
X62801859Y-100788650D01*
X62769474Y-100744077D01*
X62769474Y-100744076D01*
X62090000Y-101423551D01*
X62090000Y-101417339D01*
X62062741Y-101315606D01*
X62010080Y-101224394D01*
X61935606Y-101149920D01*
X61844394Y-101097259D01*
X61742661Y-101070000D01*
X61736446Y-101070000D01*
X62415922Y-100390524D01*
X62415921Y-100390523D01*
X62371359Y-100358147D01*
X62371350Y-100358141D01*
X62189031Y-100265244D01*
X61994417Y-100202009D01*
X61792317Y-100170000D01*
X61587683Y-100170000D01*
X61385582Y-100202009D01*
X61190968Y-100265244D01*
X61008644Y-100358143D01*
X60964077Y-100390523D01*
X60964077Y-100390524D01*
X61643554Y-101070000D01*
X61637339Y-101070000D01*
X61535606Y-101097259D01*
X61444394Y-101149920D01*
X61369920Y-101224394D01*
X61317259Y-101315606D01*
X61290000Y-101417339D01*
X61290000Y-101423553D01*
X60610524Y-100744077D01*
X60610523Y-100744077D01*
X60578143Y-100788644D01*
X60485244Y-100970968D01*
X60422009Y-101165582D01*
X60390000Y-101367682D01*
X59320500Y-101367682D01*
X59320500Y-100039033D01*
X59329144Y-100009592D01*
X59335668Y-99979606D01*
X59339243Y-99975201D01*
X59340185Y-99971994D01*
X59356819Y-99951352D01*
X59363511Y-99944659D01*
X59367219Y-99941966D01*
X59511966Y-99797219D01*
X59514659Y-99793511D01*
X59521352Y-99786819D01*
X59547912Y-99772315D01*
X59573258Y-99755773D01*
X59580038Y-99754773D01*
X59582675Y-99753334D01*
X59587476Y-99753677D01*
X59609033Y-99750500D01*
X62468844Y-99750500D01*
X62468845Y-99750499D01*
X62623497Y-99719737D01*
X62769179Y-99659394D01*
X62900289Y-99571789D01*
X62900292Y-99571786D01*
X62905260Y-99566819D01*
X62966583Y-99533334D01*
X62992941Y-99530500D01*
X63104485Y-99530500D01*
X63189310Y-99517064D01*
X63289903Y-99501132D01*
X63359195Y-99510086D01*
X63412647Y-99555082D01*
X63433287Y-99621834D01*
X63433300Y-99623605D01*
X63433300Y-101587870D01*
X63446127Y-101652351D01*
X63446127Y-101652353D01*
X63458297Y-101713536D01*
X63458299Y-101713544D01*
X63483513Y-101774417D01*
X63507335Y-101831927D01*
X63566906Y-101921082D01*
X63578526Y-101938473D01*
X63578527Y-101938474D01*
X64741456Y-103101402D01*
X64774941Y-103162725D01*
X64769957Y-103232417D01*
X64754093Y-103261968D01*
X64647715Y-103408386D01*
X64554781Y-103590776D01*
X64491522Y-103785465D01*
X64459500Y-103987648D01*
X64459500Y-104192351D01*
X64491522Y-104394534D01*
X64554781Y-104589223D01*
X64647715Y-104771613D01*
X64768028Y-104937213D01*
X64912786Y-105081971D01*
X65059873Y-105188834D01*
X65078390Y-105202287D01*
X65161762Y-105244767D01*
X65260776Y-105295218D01*
X65260778Y-105295218D01*
X65260781Y-105295220D01*
X65313385Y-105312312D01*
X65455465Y-105358477D01*
X65495267Y-105364781D01*
X65657648Y-105390500D01*
X65657649Y-105390500D01*
X65862351Y-105390500D01*
X65862352Y-105390500D01*
X66064534Y-105358477D01*
X66259219Y-105295220D01*
X66441610Y-105202287D01*
X66556050Y-105119142D01*
X66607213Y-105081971D01*
X66607215Y-105081968D01*
X66607219Y-105081966D01*
X66751966Y-104937219D01*
X66751972Y-104937210D01*
X66754748Y-104933962D01*
X66813258Y-104895773D01*
X66849033Y-104890500D01*
X72290967Y-104890500D01*
X72358006Y-104910185D01*
X72385252Y-104933962D01*
X72388035Y-104937220D01*
X72532786Y-105081971D01*
X72679873Y-105188834D01*
X72698390Y-105202287D01*
X72781762Y-105244767D01*
X72880776Y-105295218D01*
X72880778Y-105295218D01*
X72880781Y-105295220D01*
X72933385Y-105312312D01*
X73075465Y-105358477D01*
X73115267Y-105364781D01*
X73277648Y-105390500D01*
X73277649Y-105390500D01*
X73482351Y-105390500D01*
X73482352Y-105390500D01*
X73684534Y-105358477D01*
X73879219Y-105295220D01*
X74061610Y-105202287D01*
X74176050Y-105119142D01*
X74227213Y-105081971D01*
X74227215Y-105081968D01*
X74227219Y-105081966D01*
X74371966Y-104937219D01*
X74371968Y-104937215D01*
X74371971Y-104937213D01*
X74424732Y-104864590D01*
X74492287Y-104771610D01*
X74585220Y-104589219D01*
X74648477Y-104394534D01*
X74680500Y-104192352D01*
X74680500Y-103987648D01*
X74649274Y-103790496D01*
X74648477Y-103785465D01*
X74596033Y-103624061D01*
X74585220Y-103590781D01*
X74585218Y-103590778D01*
X74585218Y-103590776D01*
X74538269Y-103498635D01*
X74492287Y-103408390D01*
X74484556Y-103397749D01*
X74371971Y-103242786D01*
X74227213Y-103098028D01*
X74061614Y-102977715D01*
X74055006Y-102974348D01*
X73968917Y-102930483D01*
X73918123Y-102882511D01*
X73901328Y-102814690D01*
X73923865Y-102748555D01*
X73968917Y-102709516D01*
X74061610Y-102662287D01*
X74172311Y-102581859D01*
X74227213Y-102541971D01*
X74227215Y-102541968D01*
X74227219Y-102541966D01*
X74371966Y-102397219D01*
X74371968Y-102397215D01*
X74371971Y-102397213D01*
X74478670Y-102250352D01*
X74492287Y-102231610D01*
X74585220Y-102049219D01*
X74648477Y-101854534D01*
X74680500Y-101652352D01*
X74680500Y-101447648D01*
X74675666Y-101417127D01*
X74648477Y-101245465D01*
X74600760Y-101098609D01*
X74585220Y-101050781D01*
X74585218Y-101050778D01*
X74585218Y-101050776D01*
X74520948Y-100924641D01*
X74492287Y-100868390D01*
X74468138Y-100835151D01*
X74371971Y-100702786D01*
X74227213Y-100558028D01*
X74061614Y-100437715D01*
X74023506Y-100418298D01*
X73968917Y-100390483D01*
X73918123Y-100342511D01*
X73901328Y-100274690D01*
X73923865Y-100208555D01*
X73968917Y-100169516D01*
X74061610Y-100122287D01*
X74144783Y-100061859D01*
X74227213Y-100001971D01*
X74227215Y-100001968D01*
X74227219Y-100001966D01*
X74371966Y-99857219D01*
X74371968Y-99857215D01*
X74371971Y-99857213D01*
X74449502Y-99750499D01*
X74492287Y-99691610D01*
X74585220Y-99509219D01*
X74648477Y-99314534D01*
X74680500Y-99112352D01*
X74680500Y-98907648D01*
X74648477Y-98705466D01*
X74585220Y-98510781D01*
X74585218Y-98510778D01*
X74585218Y-98510776D01*
X74534825Y-98411876D01*
X74492287Y-98328390D01*
X74470391Y-98298252D01*
X74371971Y-98162786D01*
X74227213Y-98018028D01*
X74061614Y-97897715D01*
X74055006Y-97894348D01*
X73968917Y-97850483D01*
X73918123Y-97802511D01*
X73901328Y-97734690D01*
X73923865Y-97668555D01*
X73968917Y-97629516D01*
X74061610Y-97582287D01*
X74082770Y-97566913D01*
X74227213Y-97461971D01*
X74227215Y-97461968D01*
X74227219Y-97461966D01*
X74371966Y-97317219D01*
X74371968Y-97317215D01*
X74371971Y-97317213D01*
X74449553Y-97210429D01*
X74492287Y-97151610D01*
X74585220Y-96969219D01*
X74648477Y-96774534D01*
X74680500Y-96572352D01*
X74680500Y-96367648D01*
X74648477Y-96165466D01*
X74648476Y-96165464D01*
X74604116Y-96028937D01*
X74585220Y-95970781D01*
X74585218Y-95970778D01*
X74585218Y-95970776D01*
X74544795Y-95891442D01*
X74492287Y-95788390D01*
X74484556Y-95777749D01*
X74371971Y-95622786D01*
X74227213Y-95478028D01*
X74061614Y-95357715D01*
X74055006Y-95354348D01*
X73968917Y-95310483D01*
X73918123Y-95262511D01*
X73901328Y-95194690D01*
X73923865Y-95128555D01*
X73968917Y-95089516D01*
X74061610Y-95042287D01*
X74084833Y-95025415D01*
X74227213Y-94921971D01*
X74227215Y-94921968D01*
X74227219Y-94921966D01*
X74371966Y-94777219D01*
X74371968Y-94777215D01*
X74371971Y-94777213D01*
X74445846Y-94675531D01*
X74492287Y-94611610D01*
X74585220Y-94429219D01*
X74648477Y-94234534D01*
X74680500Y-94032352D01*
X74680500Y-93827648D01*
X74648477Y-93625466D01*
X74585220Y-93430781D01*
X74585218Y-93430778D01*
X74585218Y-93430776D01*
X74526560Y-93315655D01*
X74492287Y-93248390D01*
X74462572Y-93207490D01*
X74371971Y-93082786D01*
X74227213Y-92938028D01*
X74061614Y-92817715D01*
X74031329Y-92802284D01*
X73968917Y-92770483D01*
X73918123Y-92722511D01*
X73901328Y-92654690D01*
X73923865Y-92588555D01*
X73968917Y-92549516D01*
X74061610Y-92502287D01*
X74131122Y-92451784D01*
X74227213Y-92381971D01*
X74227215Y-92381968D01*
X74227219Y-92381966D01*
X74371966Y-92237219D01*
X74371968Y-92237215D01*
X74371971Y-92237213D01*
X74424732Y-92164590D01*
X74492287Y-92071610D01*
X74585220Y-91889219D01*
X74648477Y-91694534D01*
X74680500Y-91492352D01*
X74680500Y-91287648D01*
X74669900Y-91220726D01*
X74648477Y-91085465D01*
X74619127Y-90995137D01*
X74585220Y-90890781D01*
X74585218Y-90890778D01*
X74585218Y-90890776D01*
X74526560Y-90775655D01*
X74492287Y-90708390D01*
X74462572Y-90667490D01*
X74371971Y-90542786D01*
X74227213Y-90398028D01*
X74061614Y-90277715D01*
X74009779Y-90251304D01*
X73968917Y-90230483D01*
X73918123Y-90182511D01*
X73901328Y-90114690D01*
X73923865Y-90048555D01*
X73968917Y-90009516D01*
X74061610Y-89962287D01*
X74128825Y-89913453D01*
X74227213Y-89841971D01*
X74227215Y-89841968D01*
X74227219Y-89841966D01*
X74371966Y-89697219D01*
X74371968Y-89697215D01*
X74371971Y-89697213D01*
X74424732Y-89624590D01*
X74492287Y-89531610D01*
X74585220Y-89349219D01*
X74648477Y-89154534D01*
X74680500Y-88952352D01*
X74680500Y-88747648D01*
X74669900Y-88680726D01*
X74648477Y-88545465D01*
X74617821Y-88451118D01*
X74585220Y-88350781D01*
X74585218Y-88350778D01*
X74585218Y-88350776D01*
X74541248Y-88264481D01*
X74492287Y-88168390D01*
X74469705Y-88137308D01*
X74371971Y-88002786D01*
X74227213Y-87858028D01*
X74061611Y-87737713D01*
X73968369Y-87690203D01*
X73917574Y-87642229D01*
X73900779Y-87574407D01*
X73923317Y-87508273D01*
X73968371Y-87469234D01*
X74061347Y-87421861D01*
X74226894Y-87301582D01*
X74226895Y-87301582D01*
X74371582Y-87156895D01*
X74371582Y-87156894D01*
X74491859Y-86991349D01*
X74584754Y-86809031D01*
X74607938Y-86737682D01*
X75060000Y-86737682D01*
X75060000Y-86942317D01*
X75092009Y-87144417D01*
X75155244Y-87339031D01*
X75248141Y-87521350D01*
X75248147Y-87521359D01*
X75280523Y-87565921D01*
X75280524Y-87565922D01*
X75960000Y-86886446D01*
X75960000Y-86892661D01*
X75987259Y-86994394D01*
X76039920Y-87085606D01*
X76114394Y-87160080D01*
X76205606Y-87212741D01*
X76307339Y-87240000D01*
X76313553Y-87240000D01*
X75634076Y-87919474D01*
X75678650Y-87951859D01*
X75860968Y-88044755D01*
X76055582Y-88107990D01*
X76257683Y-88140000D01*
X76462317Y-88140000D01*
X76664417Y-88107990D01*
X76859031Y-88044755D01*
X77041349Y-87951859D01*
X77085921Y-87919474D01*
X76406447Y-87240000D01*
X76412661Y-87240000D01*
X76514394Y-87212741D01*
X76605606Y-87160080D01*
X76680080Y-87085606D01*
X76732741Y-86994394D01*
X76760000Y-86892661D01*
X76760000Y-86886447D01*
X77439474Y-87565921D01*
X77471859Y-87521349D01*
X77564755Y-87339031D01*
X77627990Y-87144417D01*
X77660000Y-86942317D01*
X77660000Y-86737682D01*
X77627990Y-86535582D01*
X77564755Y-86340968D01*
X77471859Y-86158650D01*
X77439474Y-86114077D01*
X77439474Y-86114076D01*
X76760000Y-86793551D01*
X76760000Y-86787339D01*
X76732741Y-86685606D01*
X76680080Y-86594394D01*
X76605606Y-86519920D01*
X76514394Y-86467259D01*
X76412661Y-86440000D01*
X76406446Y-86440000D01*
X77085922Y-85760524D01*
X77085921Y-85760523D01*
X77041359Y-85728147D01*
X77041350Y-85728141D01*
X76859031Y-85635244D01*
X76664417Y-85572009D01*
X76462317Y-85540000D01*
X76257683Y-85540000D01*
X76055582Y-85572009D01*
X75860968Y-85635244D01*
X75678644Y-85728143D01*
X75634077Y-85760523D01*
X75634077Y-85760524D01*
X76313554Y-86440000D01*
X76307339Y-86440000D01*
X76205606Y-86467259D01*
X76114394Y-86519920D01*
X76039920Y-86594394D01*
X75987259Y-86685606D01*
X75960000Y-86787339D01*
X75960000Y-86793553D01*
X75280524Y-86114077D01*
X75280523Y-86114077D01*
X75248143Y-86158644D01*
X75155244Y-86340968D01*
X75092009Y-86535582D01*
X75060000Y-86737682D01*
X74607938Y-86737682D01*
X74621970Y-86694497D01*
X74621970Y-86694496D01*
X74647990Y-86614414D01*
X74647990Y-86614413D01*
X74656609Y-86560000D01*
X73695686Y-86560000D01*
X73700080Y-86555606D01*
X73752741Y-86464394D01*
X73780000Y-86362661D01*
X73780000Y-86257339D01*
X73752741Y-86155606D01*
X73700080Y-86064394D01*
X73695686Y-86060000D01*
X74656609Y-86060000D01*
X74647990Y-86005586D01*
X74647990Y-86005585D01*
X74596174Y-85846113D01*
X74596171Y-85846103D01*
X74584754Y-85810967D01*
X74491859Y-85628650D01*
X74371582Y-85463105D01*
X74371582Y-85463104D01*
X74226895Y-85318417D01*
X74061349Y-85198140D01*
X73879029Y-85105244D01*
X73684413Y-85042009D01*
X73630000Y-85033390D01*
X73630000Y-85994314D01*
X73625606Y-85989920D01*
X73534394Y-85937259D01*
X73432661Y-85910000D01*
X73327339Y-85910000D01*
X73225606Y-85937259D01*
X73134394Y-85989920D01*
X73130000Y-85994314D01*
X73130000Y-85033390D01*
X73075586Y-85042009D01*
X72880970Y-85105244D01*
X72698650Y-85198140D01*
X72533105Y-85318417D01*
X72533104Y-85318417D01*
X72388417Y-85463104D01*
X72388417Y-85463105D01*
X72268140Y-85628650D01*
X72175244Y-85810970D01*
X72112009Y-86005586D01*
X72103391Y-86060000D01*
X73064314Y-86060000D01*
X73059920Y-86064394D01*
X73007259Y-86155606D01*
X72980000Y-86257339D01*
X72980000Y-86362661D01*
X73007259Y-86464394D01*
X73059920Y-86555606D01*
X73064314Y-86560000D01*
X72103391Y-86560000D01*
X72112009Y-86614413D01*
X72175244Y-86809029D01*
X72268140Y-86991349D01*
X72388417Y-87156894D01*
X72388417Y-87156895D01*
X72533104Y-87301582D01*
X72698652Y-87421861D01*
X72791628Y-87469234D01*
X72842425Y-87517208D01*
X72859220Y-87585029D01*
X72836683Y-87651164D01*
X72791630Y-87690203D01*
X72698388Y-87737713D01*
X72532786Y-87858028D01*
X72388028Y-88002786D01*
X72267715Y-88168386D01*
X72174781Y-88350776D01*
X72111522Y-88545465D01*
X72079500Y-88747648D01*
X72079500Y-88870191D01*
X72059815Y-88937230D01*
X72007011Y-88982985D01*
X71937853Y-88992929D01*
X71874297Y-88963904D01*
X71867819Y-88957872D01*
X69984673Y-87074726D01*
X69984669Y-87074723D01*
X69878127Y-87003535D01*
X69867323Y-86999060D01*
X69759744Y-86954499D01*
X69759738Y-86954497D01*
X69634071Y-86929500D01*
X69634069Y-86929500D01*
X67184000Y-86929500D01*
X67116961Y-86909815D01*
X67071206Y-86857011D01*
X67060000Y-86805500D01*
X67060000Y-86560000D01*
X66075686Y-86560000D01*
X66080080Y-86555606D01*
X66132741Y-86464394D01*
X66160000Y-86362661D01*
X66160000Y-86257339D01*
X66132741Y-86155606D01*
X66080080Y-86064394D01*
X66075686Y-86060000D01*
X67060000Y-86060000D01*
X67060000Y-85462172D01*
X67059999Y-85462155D01*
X67053598Y-85402627D01*
X67053596Y-85402620D01*
X67003354Y-85267913D01*
X67003350Y-85267906D01*
X66917190Y-85152812D01*
X66917187Y-85152809D01*
X66802093Y-85066649D01*
X66802086Y-85066645D01*
X66667379Y-85016403D01*
X66667372Y-85016401D01*
X66607844Y-85010000D01*
X66010000Y-85010000D01*
X66010000Y-85994314D01*
X66005606Y-85989920D01*
X65914394Y-85937259D01*
X65812661Y-85910000D01*
X65707339Y-85910000D01*
X65605606Y-85937259D01*
X65514394Y-85989920D01*
X65510000Y-85994314D01*
X65510000Y-85010000D01*
X64912155Y-85010000D01*
X64852627Y-85016401D01*
X64852620Y-85016403D01*
X64717913Y-85066645D01*
X64717906Y-85066649D01*
X64602812Y-85152809D01*
X64602809Y-85152812D01*
X64516649Y-85267906D01*
X64516645Y-85267913D01*
X64466403Y-85402620D01*
X64466401Y-85402627D01*
X64460000Y-85462155D01*
X64460000Y-85948192D01*
X64440315Y-86015231D01*
X64387511Y-86060986D01*
X64318353Y-86070930D01*
X64254797Y-86041905D01*
X64248319Y-86035873D01*
X63677519Y-85465073D01*
X63644034Y-85403750D01*
X63641200Y-85377392D01*
X63641200Y-85359506D01*
X63641199Y-85359504D01*
X63606596Y-85185541D01*
X63606593Y-85185532D01*
X63538716Y-85021659D01*
X63538709Y-85021646D01*
X63440164Y-84874165D01*
X63440161Y-84874161D01*
X63314738Y-84748738D01*
X63314734Y-84748735D01*
X63167253Y-84650190D01*
X63167240Y-84650183D01*
X63003367Y-84582306D01*
X63003358Y-84582303D01*
X62829394Y-84547700D01*
X62829391Y-84547700D01*
X62732800Y-84547700D01*
X62665761Y-84528015D01*
X62620006Y-84475211D01*
X62608800Y-84423700D01*
X62608800Y-82720240D01*
X62628485Y-82653201D01*
X62681289Y-82607446D01*
X62750447Y-82597502D01*
X62814003Y-82626527D01*
X62820481Y-82632559D01*
X63509707Y-83321786D01*
X63509711Y-83321789D01*
X63640814Y-83409390D01*
X63640818Y-83409392D01*
X63640821Y-83409394D01*
X63786503Y-83469738D01*
X63941153Y-83500499D01*
X63941157Y-83500500D01*
X63941158Y-83500500D01*
X64098843Y-83500500D01*
X64670967Y-83500500D01*
X64738006Y-83520185D01*
X64765252Y-83543962D01*
X64768035Y-83547220D01*
X64912786Y-83691971D01*
X65067749Y-83804556D01*
X65078390Y-83812287D01*
X65194607Y-83871503D01*
X65260776Y-83905218D01*
X65260778Y-83905218D01*
X65260781Y-83905220D01*
X65365137Y-83939127D01*
X65455465Y-83968477D01*
X65556557Y-83984488D01*
X65657648Y-84000500D01*
X65657649Y-84000500D01*
X65862351Y-84000500D01*
X65862352Y-84000500D01*
X66064534Y-83968477D01*
X66259219Y-83905220D01*
X66441610Y-83812287D01*
X66534590Y-83744732D01*
X66607213Y-83691971D01*
X66607215Y-83691968D01*
X66607219Y-83691966D01*
X66751966Y-83547219D01*
X66751972Y-83547210D01*
X66754748Y-83543962D01*
X66813258Y-83505773D01*
X66849033Y-83500500D01*
X72290967Y-83500500D01*
X72358006Y-83520185D01*
X72385252Y-83543962D01*
X72388035Y-83547220D01*
X72532786Y-83691971D01*
X72687749Y-83804556D01*
X72698390Y-83812287D01*
X72814607Y-83871503D01*
X72880776Y-83905218D01*
X72880778Y-83905218D01*
X72880781Y-83905220D01*
X72985137Y-83939127D01*
X73075465Y-83968477D01*
X73176557Y-83984488D01*
X73277648Y-84000500D01*
X73277649Y-84000500D01*
X73482351Y-84000500D01*
X73482352Y-84000500D01*
X73684534Y-83968477D01*
X73879219Y-83905220D01*
X74061610Y-83812287D01*
X74154590Y-83744732D01*
X74227213Y-83691971D01*
X74227215Y-83691968D01*
X74227219Y-83691966D01*
X74371966Y-83547219D01*
X74371972Y-83547210D01*
X74374748Y-83543962D01*
X74433258Y-83505773D01*
X74469033Y-83500500D01*
X75498844Y-83500500D01*
X75498845Y-83500499D01*
X75653497Y-83469737D01*
X75799179Y-83409394D01*
X75930289Y-83321789D01*
X76155979Y-83096097D01*
X76217298Y-83062615D01*
X76253404Y-83060165D01*
X76257643Y-83060499D01*
X76257648Y-83060500D01*
X76257653Y-83060500D01*
X76462351Y-83060500D01*
X76462352Y-83060500D01*
X76664534Y-83028477D01*
X76859219Y-82965220D01*
X77041610Y-82872287D01*
X77182831Y-82769685D01*
X77207213Y-82751971D01*
X77207215Y-82751968D01*
X77207219Y-82751966D01*
X77351966Y-82607219D01*
X77351968Y-82607215D01*
X77351971Y-82607213D01*
X77414164Y-82521610D01*
X77472287Y-82441610D01*
X77565220Y-82259219D01*
X77628477Y-82064534D01*
X77660500Y-81862352D01*
X77660500Y-81657648D01*
X77656493Y-81632351D01*
X77628477Y-81455465D01*
X77596945Y-81358422D01*
X77565220Y-81260781D01*
X77565218Y-81260778D01*
X77565218Y-81260776D01*
X77509776Y-81151966D01*
X77472287Y-81078390D01*
X77464556Y-81067749D01*
X77351971Y-80912786D01*
X77207213Y-80768028D01*
X77041613Y-80647715D01*
X77041612Y-80647714D01*
X77041610Y-80647713D01*
X76978693Y-80615655D01*
X76859223Y-80554781D01*
X76664534Y-80491522D01*
X76489995Y-80463878D01*
X76462352Y-80459500D01*
X76257648Y-80459500D01*
X76233329Y-80463351D01*
X76055465Y-80491522D01*
X75860776Y-80554781D01*
X75678386Y-80647715D01*
X75512786Y-80768028D01*
X75368028Y-80912786D01*
X75247715Y-81078386D01*
X75154781Y-81260776D01*
X75091522Y-81455465D01*
X75059500Y-81657648D01*
X75059500Y-81775500D01*
X75039815Y-81842539D01*
X74987011Y-81888294D01*
X74935500Y-81899500D01*
X74469033Y-81899500D01*
X74401994Y-81879815D01*
X74374748Y-81856038D01*
X74371964Y-81852779D01*
X74227213Y-81708028D01*
X74061614Y-81587715D01*
X74015455Y-81564196D01*
X73968917Y-81540483D01*
X73918123Y-81492511D01*
X73901328Y-81424690D01*
X73923865Y-81358555D01*
X73968917Y-81319516D01*
X74061610Y-81272287D01*
X74126054Y-81225466D01*
X74227213Y-81151971D01*
X74227215Y-81151968D01*
X74227219Y-81151966D01*
X74371966Y-81007219D01*
X74371968Y-81007215D01*
X74371971Y-81007213D01*
X74440575Y-80912786D01*
X74492287Y-80841610D01*
X74585220Y-80659219D01*
X74648477Y-80464534D01*
X74680500Y-80262352D01*
X74680500Y-80057648D01*
X74651030Y-79871586D01*
X74648477Y-79855465D01*
X74605399Y-79722885D01*
X74585220Y-79660781D01*
X74585218Y-79660778D01*
X74585218Y-79660776D01*
X74551503Y-79594607D01*
X74492287Y-79478390D01*
X74437042Y-79402351D01*
X74371971Y-79312786D01*
X74227213Y-79168028D01*
X74061614Y-79047715D01*
X74006998Y-79019887D01*
X73968917Y-79000483D01*
X73918123Y-78952511D01*
X73901328Y-78884690D01*
X73923865Y-78818555D01*
X73968917Y-78779516D01*
X74061610Y-78732287D01*
X74088141Y-78713011D01*
X74227213Y-78611971D01*
X74227215Y-78611968D01*
X74227219Y-78611966D01*
X74371966Y-78467219D01*
X74371968Y-78467215D01*
X74371971Y-78467213D01*
X74442370Y-78370315D01*
X74492287Y-78301610D01*
X74585220Y-78119219D01*
X74648477Y-77924534D01*
X74680500Y-77722352D01*
X74680500Y-77517648D01*
X74652345Y-77339886D01*
X74648477Y-77315465D01*
X74589335Y-77133446D01*
X74585220Y-77120781D01*
X74585218Y-77120778D01*
X74585218Y-77120776D01*
X74541985Y-77035928D01*
X74492287Y-76938390D01*
X74471846Y-76910255D01*
X74371971Y-76772786D01*
X74227213Y-76628028D01*
X74061614Y-76507715D01*
X74015455Y-76484196D01*
X73968917Y-76460483D01*
X73918123Y-76412511D01*
X73901328Y-76344690D01*
X73923865Y-76278555D01*
X73968917Y-76239516D01*
X74061610Y-76192287D01*
X74105795Y-76160185D01*
X74227213Y-76071971D01*
X74227215Y-76071968D01*
X74227219Y-76071966D01*
X74371966Y-75927219D01*
X74371968Y-75927215D01*
X74371971Y-75927213D01*
X74424732Y-75854590D01*
X74492287Y-75761610D01*
X74585220Y-75579219D01*
X74648477Y-75384534D01*
X74680500Y-75182352D01*
X74680500Y-74977648D01*
X74666633Y-74890099D01*
X74648477Y-74775465D01*
X74616543Y-74677182D01*
X74585220Y-74580781D01*
X74585218Y-74580778D01*
X74585218Y-74580776D01*
X74521942Y-74456592D01*
X74492287Y-74398390D01*
X74476088Y-74376094D01*
X74371971Y-74232786D01*
X74227213Y-74088028D01*
X74061614Y-73967715D01*
X74055006Y-73964348D01*
X73968917Y-73920483D01*
X73918123Y-73872511D01*
X73901328Y-73804690D01*
X73923865Y-73738555D01*
X73968917Y-73699516D01*
X74061610Y-73652287D01*
X74126054Y-73605466D01*
X74227213Y-73531971D01*
X74227215Y-73531968D01*
X74227219Y-73531966D01*
X74371966Y-73387219D01*
X74371968Y-73387215D01*
X74371971Y-73387213D01*
X74442501Y-73290135D01*
X74492287Y-73221610D01*
X74585220Y-73039219D01*
X74648477Y-72844534D01*
X74680500Y-72642352D01*
X74680500Y-72437648D01*
X74648477Y-72235466D01*
X74585220Y-72040781D01*
X74585218Y-72040778D01*
X74585218Y-72040776D01*
X74551503Y-71974607D01*
X74492287Y-71858390D01*
X74437042Y-71782351D01*
X74371971Y-71692786D01*
X74227213Y-71548028D01*
X74061614Y-71427715D01*
X74006998Y-71399887D01*
X73968917Y-71380483D01*
X73918123Y-71332511D01*
X73901328Y-71264690D01*
X73923865Y-71198555D01*
X73968917Y-71159516D01*
X74061610Y-71112287D01*
X74088920Y-71092445D01*
X74227213Y-70991971D01*
X74227215Y-70991968D01*
X74227219Y-70991966D01*
X74371966Y-70847219D01*
X74371968Y-70847215D01*
X74371971Y-70847213D01*
X74433789Y-70762126D01*
X74492287Y-70681610D01*
X74585220Y-70499219D01*
X74648477Y-70304534D01*
X74680500Y-70102352D01*
X74680500Y-69897648D01*
X74656239Y-69744470D01*
X74648477Y-69695465D01*
X74609253Y-69574747D01*
X74585220Y-69500781D01*
X74585218Y-69500778D01*
X74585218Y-69500776D01*
X74538144Y-69408389D01*
X74492287Y-69318390D01*
X74437042Y-69242351D01*
X74371971Y-69152786D01*
X74227213Y-69008028D01*
X74061614Y-68887715D01*
X74055006Y-68884348D01*
X73968917Y-68840483D01*
X73918123Y-68792511D01*
X73901328Y-68724690D01*
X73923865Y-68658555D01*
X73968917Y-68619516D01*
X74061610Y-68572287D01*
X74082770Y-68556913D01*
X74227213Y-68451971D01*
X74227215Y-68451968D01*
X74227219Y-68451966D01*
X74371966Y-68307219D01*
X74371968Y-68307215D01*
X74371971Y-68307213D01*
X74446597Y-68204497D01*
X74492287Y-68141610D01*
X74585220Y-67959219D01*
X74648477Y-67764534D01*
X74680500Y-67562352D01*
X74680500Y-67357648D01*
X74648477Y-67155466D01*
X74637058Y-67120323D01*
X74609502Y-67035513D01*
X74585220Y-66960781D01*
X74585218Y-66960778D01*
X74585218Y-66960776D01*
X74523411Y-66839474D01*
X74492287Y-66778390D01*
X74371966Y-66612781D01*
X74227219Y-66468034D01*
X74227213Y-66468028D01*
X74061611Y-66347713D01*
X73968369Y-66300203D01*
X73917574Y-66252229D01*
X73900779Y-66184407D01*
X73923317Y-66118273D01*
X73968371Y-66079234D01*
X74061347Y-66031861D01*
X74226894Y-65911582D01*
X74226895Y-65911582D01*
X74371582Y-65766895D01*
X74371582Y-65766894D01*
X74491859Y-65601349D01*
X74524299Y-65537682D01*
X75060000Y-65537682D01*
X75060000Y-65742317D01*
X75092009Y-65944417D01*
X75155244Y-66139031D01*
X75248141Y-66321350D01*
X75248147Y-66321359D01*
X75280523Y-66365921D01*
X75280524Y-66365922D01*
X75960000Y-65686446D01*
X75960000Y-65692661D01*
X75987259Y-65794394D01*
X76039920Y-65885606D01*
X76114394Y-65960080D01*
X76205606Y-66012741D01*
X76307339Y-66040000D01*
X76313553Y-66040000D01*
X75634076Y-66719474D01*
X75678650Y-66751859D01*
X75860968Y-66844755D01*
X76055582Y-66907990D01*
X76257683Y-66940000D01*
X76462317Y-66940000D01*
X76664417Y-66907990D01*
X76859031Y-66844755D01*
X77041349Y-66751859D01*
X77085921Y-66719474D01*
X76406447Y-66040000D01*
X76412661Y-66040000D01*
X76514394Y-66012741D01*
X76605606Y-65960080D01*
X76680080Y-65885606D01*
X76732741Y-65794394D01*
X76760000Y-65692661D01*
X76760000Y-65686447D01*
X77439474Y-66365921D01*
X77471859Y-66321349D01*
X77564755Y-66139031D01*
X77627990Y-65944417D01*
X77660000Y-65742317D01*
X77660000Y-65537682D01*
X77627990Y-65335582D01*
X77564755Y-65140968D01*
X77471859Y-64958650D01*
X77439474Y-64914077D01*
X77439474Y-64914076D01*
X76760000Y-65593551D01*
X76760000Y-65587339D01*
X76732741Y-65485606D01*
X76680080Y-65394394D01*
X76605606Y-65319920D01*
X76514394Y-65267259D01*
X76412661Y-65240000D01*
X76406446Y-65240000D01*
X77085922Y-64560524D01*
X77085921Y-64560523D01*
X77041359Y-64528147D01*
X77041350Y-64528141D01*
X76859031Y-64435244D01*
X76664417Y-64372009D01*
X76462317Y-64340000D01*
X76257683Y-64340000D01*
X76055582Y-64372009D01*
X75860968Y-64435244D01*
X75678644Y-64528143D01*
X75634077Y-64560523D01*
X75634077Y-64560524D01*
X76313554Y-65240000D01*
X76307339Y-65240000D01*
X76205606Y-65267259D01*
X76114394Y-65319920D01*
X76039920Y-65394394D01*
X75987259Y-65485606D01*
X75960000Y-65587339D01*
X75960000Y-65593553D01*
X75280524Y-64914077D01*
X75280523Y-64914077D01*
X75248143Y-64958644D01*
X75155244Y-65140968D01*
X75092009Y-65335582D01*
X75060000Y-65537682D01*
X74524299Y-65537682D01*
X74555463Y-65476521D01*
X74555464Y-65476519D01*
X74584754Y-65419032D01*
X74647990Y-65224413D01*
X74656609Y-65170000D01*
X73695686Y-65170000D01*
X73700080Y-65165606D01*
X73752741Y-65074394D01*
X73780000Y-64972661D01*
X73780000Y-64867339D01*
X73752741Y-64765606D01*
X73700080Y-64674394D01*
X73695686Y-64670000D01*
X74656609Y-64670000D01*
X74649827Y-64627182D01*
X74649827Y-64627180D01*
X74647991Y-64615587D01*
X74647990Y-64615586D01*
X74584755Y-64420970D01*
X74491859Y-64238650D01*
X74371582Y-64073105D01*
X74371582Y-64073104D01*
X74226895Y-63928417D01*
X74061349Y-63808140D01*
X73879029Y-63715244D01*
X73684413Y-63652009D01*
X73630000Y-63643390D01*
X73630000Y-64604314D01*
X73625606Y-64599920D01*
X73534394Y-64547259D01*
X73432661Y-64520000D01*
X73327339Y-64520000D01*
X73225606Y-64547259D01*
X73134394Y-64599920D01*
X73130000Y-64604314D01*
X73130000Y-63643390D01*
X73075586Y-63652009D01*
X72880970Y-63715244D01*
X72698650Y-63808140D01*
X72533105Y-63928417D01*
X72533104Y-63928417D01*
X72388417Y-64073104D01*
X72388417Y-64073105D01*
X72268140Y-64238650D01*
X72175244Y-64420970D01*
X72112009Y-64615586D01*
X72103391Y-64670000D01*
X73064314Y-64670000D01*
X73059920Y-64674394D01*
X73007259Y-64765606D01*
X72980000Y-64867339D01*
X72980000Y-64972661D01*
X73007259Y-65074394D01*
X73059920Y-65165606D01*
X73064314Y-65170000D01*
X72103391Y-65170000D01*
X72112009Y-65224413D01*
X72175244Y-65419029D01*
X72268140Y-65601349D01*
X72388417Y-65766894D01*
X72388417Y-65766895D01*
X72533104Y-65911582D01*
X72698652Y-66031861D01*
X72791628Y-66079234D01*
X72842425Y-66127208D01*
X72859220Y-66195029D01*
X72836683Y-66261164D01*
X72791630Y-66300203D01*
X72698388Y-66347713D01*
X72532786Y-66468028D01*
X72388028Y-66612786D01*
X72267715Y-66778386D01*
X72174781Y-66960776D01*
X72111522Y-67155465D01*
X72079500Y-67357648D01*
X72079500Y-67480191D01*
X72059815Y-67547230D01*
X72007011Y-67592985D01*
X71937853Y-67602929D01*
X71874297Y-67573904D01*
X71867819Y-67567872D01*
X70101773Y-65801826D01*
X70101769Y-65801823D01*
X69995227Y-65730635D01*
X69876844Y-65681599D01*
X69876838Y-65681597D01*
X69751171Y-65656600D01*
X69751169Y-65656600D01*
X67184000Y-65656600D01*
X67116961Y-65636915D01*
X67071206Y-65584111D01*
X67060000Y-65532600D01*
X67060000Y-65170000D01*
X66075686Y-65170000D01*
X66080080Y-65165606D01*
X66132741Y-65074394D01*
X66160000Y-64972661D01*
X66160000Y-64867339D01*
X66132741Y-64765606D01*
X66080080Y-64674394D01*
X66075686Y-64670000D01*
X67060000Y-64670000D01*
X67060000Y-64072172D01*
X67059999Y-64072155D01*
X67053598Y-64012627D01*
X67053596Y-64012620D01*
X67003354Y-63877913D01*
X67003350Y-63877906D01*
X66917190Y-63762812D01*
X66917187Y-63762809D01*
X66802093Y-63676649D01*
X66802086Y-63676645D01*
X66667379Y-63626403D01*
X66667372Y-63626401D01*
X66607844Y-63620000D01*
X66010000Y-63620000D01*
X66010000Y-64604314D01*
X66005606Y-64599920D01*
X65914394Y-64547259D01*
X65812661Y-64520000D01*
X65707339Y-64520000D01*
X65605606Y-64547259D01*
X65514394Y-64599920D01*
X65510000Y-64604314D01*
X65510000Y-63620000D01*
X64912155Y-63620000D01*
X64852627Y-63626401D01*
X64852620Y-63626403D01*
X64717913Y-63676645D01*
X64717906Y-63676649D01*
X64602812Y-63762809D01*
X64602809Y-63762812D01*
X64516649Y-63877906D01*
X64516645Y-63877913D01*
X64466403Y-64012620D01*
X64466401Y-64012627D01*
X64460000Y-64072155D01*
X64460000Y-64670000D01*
X65444314Y-64670000D01*
X65439920Y-64674394D01*
X65387259Y-64765606D01*
X65360000Y-64867339D01*
X65360000Y-64972661D01*
X65387259Y-65074394D01*
X65439920Y-65165606D01*
X65444314Y-65170000D01*
X64460000Y-65170000D01*
X64460000Y-65532600D01*
X64440315Y-65599639D01*
X64387511Y-65645394D01*
X64336000Y-65656600D01*
X62316707Y-65656600D01*
X62249668Y-65636915D01*
X62229026Y-65620281D01*
X61359622Y-64750876D01*
X61326137Y-64689553D01*
X61331121Y-64619861D01*
X61346981Y-64590316D01*
X61462287Y-64431610D01*
X61555220Y-64249219D01*
X61618477Y-64054534D01*
X61650500Y-63852352D01*
X61650500Y-63647648D01*
X61632274Y-63532578D01*
X61618477Y-63445465D01*
X61573936Y-63308384D01*
X61555220Y-63250781D01*
X61555218Y-63250778D01*
X61555218Y-63250776D01*
X61482700Y-63108453D01*
X61462287Y-63068390D01*
X61447564Y-63048125D01*
X61341971Y-62902786D01*
X61197213Y-62758028D01*
X61031610Y-62637712D01*
X61031608Y-62637711D01*
X60938919Y-62590483D01*
X60929765Y-62581838D01*
X60918099Y-62577103D01*
X60904845Y-62558302D01*
X60888123Y-62542509D01*
X60885096Y-62530287D01*
X60877842Y-62519997D01*
X60876856Y-62497014D01*
X60871328Y-62474688D01*
X60875389Y-62462770D01*
X60874850Y-62450191D01*
X60886446Y-62430324D01*
X60893866Y-62408553D01*
X60904568Y-62399279D01*
X60910073Y-62389849D01*
X60938916Y-62369516D01*
X60997018Y-62339911D01*
X61056059Y-62326427D01*
X62942600Y-62368263D01*
X62943224Y-62368278D01*
X63026606Y-62370551D01*
X63026629Y-62370547D01*
X63027806Y-62370488D01*
X63036923Y-62370355D01*
X65001805Y-62413947D01*
X65068389Y-62435113D01*
X65071900Y-62437572D01*
X65078390Y-62442287D01*
X65149417Y-62478477D01*
X65260776Y-62535218D01*
X65260778Y-62535218D01*
X65260781Y-62535220D01*
X65290204Y-62544780D01*
X65455465Y-62598477D01*
X65556557Y-62614488D01*
X65657648Y-62630500D01*
X65657649Y-62630500D01*
X65862351Y-62630500D01*
X65862352Y-62630500D01*
X66064534Y-62598477D01*
X66259219Y-62535220D01*
X66438220Y-62444014D01*
X66494512Y-62430500D01*
X72645488Y-62430500D01*
X72701779Y-62444014D01*
X72769417Y-62478477D01*
X72880776Y-62535218D01*
X72880778Y-62535218D01*
X72880781Y-62535220D01*
X72910204Y-62544780D01*
X73075465Y-62598477D01*
X73176557Y-62614488D01*
X73277648Y-62630500D01*
X73277649Y-62630500D01*
X73482351Y-62630500D01*
X73482352Y-62630500D01*
X73684534Y-62598477D01*
X73879219Y-62535220D01*
X74061610Y-62442287D01*
X74221079Y-62326427D01*
X74227211Y-62321972D01*
X74227211Y-62321971D01*
X74227219Y-62321966D01*
X74303404Y-62245779D01*
X74360060Y-62213406D01*
X75929378Y-61807911D01*
X75998715Y-61810036D01*
X76055466Y-61828477D01*
X76257648Y-61860500D01*
X76257649Y-61860500D01*
X76462351Y-61860500D01*
X76462352Y-61860500D01*
X76664534Y-61828477D01*
X76859219Y-61765220D01*
X77041610Y-61672287D01*
X77134590Y-61604732D01*
X77207213Y-61551971D01*
X77207215Y-61551968D01*
X77207219Y-61551966D01*
X77351966Y-61407219D01*
X77351968Y-61407215D01*
X77351971Y-61407213D01*
X77460994Y-61257153D01*
X77472287Y-61241610D01*
X77565220Y-61059219D01*
X77628477Y-60864534D01*
X77660500Y-60662352D01*
X77660500Y-60457648D01*
X77637872Y-60314780D01*
X77628477Y-60255465D01*
X77588180Y-60131446D01*
X77565220Y-60060781D01*
X77565218Y-60060778D01*
X77565218Y-60060776D01*
X77519966Y-59971966D01*
X77472287Y-59878390D01*
X77440976Y-59835294D01*
X77351971Y-59712786D01*
X77207213Y-59568028D01*
X77041613Y-59447715D01*
X77041612Y-59447714D01*
X77041610Y-59447713D01*
X76984653Y-59418691D01*
X76859223Y-59354781D01*
X76664534Y-59291522D01*
X76489995Y-59263878D01*
X76462352Y-59259500D01*
X76257648Y-59259500D01*
X76233329Y-59263351D01*
X76055465Y-59291522D01*
X75860776Y-59354781D01*
X75678386Y-59447715D01*
X75512781Y-59568033D01*
X75436596Y-59644218D01*
X75379936Y-59676593D01*
X74407856Y-59927768D01*
X74338024Y-59925481D01*
X74280514Y-59885803D01*
X74253585Y-59821331D01*
X74265787Y-59752535D01*
X74289148Y-59720036D01*
X74371966Y-59637219D01*
X74492287Y-59471610D01*
X74585220Y-59289219D01*
X74648477Y-59094534D01*
X74680500Y-58892352D01*
X74680500Y-58687648D01*
X74675666Y-58657127D01*
X74648477Y-58485465D01*
X74595165Y-58321389D01*
X74585220Y-58290781D01*
X74585218Y-58290778D01*
X74585218Y-58290776D01*
X74548245Y-58218213D01*
X74492287Y-58108390D01*
X74450954Y-58051500D01*
X74371968Y-57942783D01*
X74227213Y-57798028D01*
X74061614Y-57677715D01*
X74002294Y-57647490D01*
X73968917Y-57630483D01*
X73918123Y-57582511D01*
X73901328Y-57514690D01*
X73923865Y-57448555D01*
X73968917Y-57409516D01*
X74061610Y-57362287D01*
X74082770Y-57346913D01*
X74227213Y-57241971D01*
X74227215Y-57241968D01*
X74227219Y-57241966D01*
X74371966Y-57097219D01*
X74371968Y-57097215D01*
X74371971Y-57097213D01*
X74438999Y-57004955D01*
X74492287Y-56931610D01*
X74585220Y-56749219D01*
X74648477Y-56554534D01*
X74680500Y-56352352D01*
X74680500Y-56147648D01*
X74673733Y-56104923D01*
X74648477Y-55945465D01*
X74594105Y-55778127D01*
X74585220Y-55750781D01*
X74585218Y-55750778D01*
X74585218Y-55750776D01*
X74538833Y-55659742D01*
X74492287Y-55568390D01*
X74452516Y-55513649D01*
X74371971Y-55402786D01*
X74227213Y-55258028D01*
X74061614Y-55137715D01*
X74002294Y-55107490D01*
X73968917Y-55090483D01*
X73918123Y-55042511D01*
X73901328Y-54974690D01*
X73923865Y-54908555D01*
X73968917Y-54869516D01*
X74061610Y-54822287D01*
X74095241Y-54797853D01*
X74227213Y-54701971D01*
X74227215Y-54701968D01*
X74227219Y-54701966D01*
X74371966Y-54557219D01*
X74371968Y-54557215D01*
X74371971Y-54557213D01*
X74439058Y-54464874D01*
X74492287Y-54391610D01*
X74585220Y-54209219D01*
X74648477Y-54014534D01*
X74680500Y-53812352D01*
X74680500Y-53607648D01*
X74648477Y-53405466D01*
X74648476Y-53405464D01*
X74618576Y-53313441D01*
X74585220Y-53210781D01*
X74585218Y-53210778D01*
X74585218Y-53210776D01*
X74492287Y-53028390D01*
X74403032Y-52905540D01*
X74379553Y-52839733D01*
X74395379Y-52771680D01*
X74415666Y-52744978D01*
X75093377Y-52067269D01*
X75164565Y-51960727D01*
X75173606Y-51938899D01*
X75213601Y-51842344D01*
X75224113Y-51789500D01*
X75238600Y-51716671D01*
X75238600Y-49774028D01*
X75213602Y-49648361D01*
X75213601Y-49648360D01*
X75213601Y-49648356D01*
X75164565Y-49529973D01*
X75157543Y-49519464D01*
X75145613Y-49501610D01*
X75093377Y-49423431D01*
X75093371Y-49423424D01*
X74687137Y-49017191D01*
X74653652Y-48955868D01*
X74652345Y-48910112D01*
X74680500Y-48732352D01*
X74680500Y-48527648D01*
X74648477Y-48325466D01*
X74585220Y-48130781D01*
X74585218Y-48130778D01*
X74585218Y-48130776D01*
X74540843Y-48043687D01*
X74492287Y-47948390D01*
X74464530Y-47910185D01*
X74371971Y-47782786D01*
X74227213Y-47638028D01*
X74061614Y-47517715D01*
X74002294Y-47487490D01*
X73968917Y-47470483D01*
X73918123Y-47422511D01*
X73901328Y-47354690D01*
X73923865Y-47288555D01*
X73968917Y-47249516D01*
X74061610Y-47202287D01*
X74098865Y-47175220D01*
X74227213Y-47081971D01*
X74227215Y-47081968D01*
X74227219Y-47081966D01*
X74371966Y-46937219D01*
X74371968Y-46937215D01*
X74371971Y-46937213D01*
X74459150Y-46817219D01*
X74492287Y-46771610D01*
X74585220Y-46589219D01*
X74648477Y-46394534D01*
X74680500Y-46192352D01*
X74680500Y-45987648D01*
X74648477Y-45785466D01*
X74585220Y-45590781D01*
X74585218Y-45590778D01*
X74585218Y-45590776D01*
X74540843Y-45503687D01*
X74492287Y-45408390D01*
X74445868Y-45344499D01*
X74371971Y-45242786D01*
X74227213Y-45098028D01*
X74061611Y-44977713D01*
X73968369Y-44930203D01*
X73917574Y-44882229D01*
X73900779Y-44814407D01*
X73923317Y-44748273D01*
X73968371Y-44709234D01*
X74061347Y-44661861D01*
X74226894Y-44541582D01*
X74226895Y-44541582D01*
X74371582Y-44396895D01*
X74371582Y-44396894D01*
X74491859Y-44231349D01*
X74584755Y-44049029D01*
X74647990Y-43854413D01*
X74656609Y-43800000D01*
X73695686Y-43800000D01*
X73700080Y-43795606D01*
X73752741Y-43704394D01*
X73780000Y-43602661D01*
X73780000Y-43497339D01*
X73752741Y-43395606D01*
X73700080Y-43304394D01*
X73695686Y-43300000D01*
X74656609Y-43300000D01*
X74647990Y-43245586D01*
X74584755Y-43050970D01*
X74491859Y-42868650D01*
X74371582Y-42703105D01*
X74371582Y-42703104D01*
X74226895Y-42558417D01*
X74061349Y-42438140D01*
X73879029Y-42345244D01*
X73684413Y-42282009D01*
X73630000Y-42273390D01*
X73630000Y-43234314D01*
X73625606Y-43229920D01*
X73534394Y-43177259D01*
X73432661Y-43150000D01*
X73327339Y-43150000D01*
X73225606Y-43177259D01*
X73134394Y-43229920D01*
X73130000Y-43234314D01*
X73130000Y-42273390D01*
X73075586Y-42282009D01*
X72880970Y-42345244D01*
X72698650Y-42438140D01*
X72533105Y-42558417D01*
X72533104Y-42558417D01*
X72388417Y-42703104D01*
X72388417Y-42703105D01*
X72268140Y-42868650D01*
X72175244Y-43050970D01*
X72112009Y-43245586D01*
X72103391Y-43300000D01*
X73064314Y-43300000D01*
X73059920Y-43304394D01*
X73007259Y-43395606D01*
X72980000Y-43497339D01*
X72980000Y-43602661D01*
X73007259Y-43704394D01*
X73059920Y-43795606D01*
X73064314Y-43800000D01*
X72103391Y-43800000D01*
X72112009Y-43854411D01*
X72137863Y-43933981D01*
X72139858Y-44003823D01*
X72103778Y-44063656D01*
X72041077Y-44094484D01*
X72019932Y-44096300D01*
X67184000Y-44096300D01*
X67116961Y-44076615D01*
X67071206Y-44023811D01*
X67060000Y-43972300D01*
X67060000Y-43800000D01*
X66075686Y-43800000D01*
X66080080Y-43795606D01*
X66132741Y-43704394D01*
X66160000Y-43602661D01*
X66160000Y-43497339D01*
X66132741Y-43395606D01*
X66080080Y-43304394D01*
X66075686Y-43300000D01*
X67060000Y-43300000D01*
X67060000Y-42702172D01*
X67059999Y-42702155D01*
X67053598Y-42642627D01*
X67053596Y-42642620D01*
X67003354Y-42507913D01*
X67003350Y-42507906D01*
X66917190Y-42392812D01*
X66917187Y-42392809D01*
X66802093Y-42306649D01*
X66802086Y-42306645D01*
X66667379Y-42256403D01*
X66667372Y-42256401D01*
X66607844Y-42250000D01*
X66010000Y-42250000D01*
X66010000Y-43234314D01*
X66005606Y-43229920D01*
X65914394Y-43177259D01*
X65812661Y-43150000D01*
X65707339Y-43150000D01*
X65605606Y-43177259D01*
X65514394Y-43229920D01*
X65510000Y-43234314D01*
X65510000Y-42250000D01*
X64912155Y-42250000D01*
X64852627Y-42256401D01*
X64852620Y-42256403D01*
X64717913Y-42306645D01*
X64717906Y-42306649D01*
X64602812Y-42392809D01*
X64602809Y-42392812D01*
X64516649Y-42507906D01*
X64516645Y-42507913D01*
X64466403Y-42642620D01*
X64466401Y-42642627D01*
X64460000Y-42702155D01*
X64460000Y-43139592D01*
X64440315Y-43206631D01*
X64387511Y-43252386D01*
X64318353Y-43262330D01*
X64254797Y-43233305D01*
X64248319Y-43227273D01*
X61095819Y-40074773D01*
X61062334Y-40013450D01*
X61059500Y-39987092D01*
X61059500Y-39424950D01*
X61079185Y-39357911D01*
X61131989Y-39312156D01*
X61201147Y-39302212D01*
X61221820Y-39307020D01*
X61255575Y-39317988D01*
X61255581Y-39317989D01*
X61457683Y-39350000D01*
X61662317Y-39350000D01*
X61864417Y-39317990D01*
X62059031Y-39254755D01*
X62241349Y-39161859D01*
X62285921Y-39129474D01*
X61606447Y-38450000D01*
X61612661Y-38450000D01*
X61714394Y-38422741D01*
X61805606Y-38370080D01*
X61880080Y-38295606D01*
X61932741Y-38204394D01*
X61960000Y-38102661D01*
X61960000Y-38096447D01*
X62639474Y-38775921D01*
X62671859Y-38731349D01*
X62764755Y-38549031D01*
X62827990Y-38354417D01*
X62860000Y-38152317D01*
X62860000Y-37947682D01*
X62827990Y-37745582D01*
X62764755Y-37550968D01*
X62671859Y-37368650D01*
X62639474Y-37324077D01*
X62639474Y-37324076D01*
X61960000Y-38003551D01*
X61960000Y-37997339D01*
X61932741Y-37895606D01*
X61880080Y-37804394D01*
X61805606Y-37729920D01*
X61714394Y-37677259D01*
X61612661Y-37650000D01*
X61606446Y-37650000D01*
X62285922Y-36970524D01*
X62285921Y-36970523D01*
X62241359Y-36938147D01*
X62241350Y-36938141D01*
X62059031Y-36845244D01*
X61864417Y-36782009D01*
X61662317Y-36750000D01*
X61457683Y-36750000D01*
X61255581Y-36782010D01*
X61255574Y-36782011D01*
X61221817Y-36792980D01*
X61151976Y-36794975D01*
X61092144Y-36758894D01*
X61061316Y-36696193D01*
X61059500Y-36675049D01*
X61059500Y-35784928D01*
X61034502Y-35659261D01*
X61034501Y-35659260D01*
X61034501Y-35659256D01*
X60985465Y-35540873D01*
X60941471Y-35475031D01*
X60914276Y-35434330D01*
X60914274Y-35434327D01*
X59714773Y-34234826D01*
X59611877Y-34166074D01*
X59608227Y-34163635D01*
X59489844Y-34114599D01*
X59489838Y-34114597D01*
X59364171Y-34089600D01*
X59364169Y-34089600D01*
X53540908Y-34089600D01*
X53473869Y-34069915D01*
X53453227Y-34053281D01*
X52918219Y-33518273D01*
X52884734Y-33456950D01*
X52881900Y-33430592D01*
X52881900Y-33061759D01*
X52901585Y-32994720D01*
X52954389Y-32948965D01*
X53023547Y-32939021D01*
X53044205Y-32943824D01*
X53135466Y-32973477D01*
X53337648Y-33005500D01*
X53337649Y-33005500D01*
X53542351Y-33005500D01*
X53542352Y-33005500D01*
X53744534Y-32973477D01*
X53939219Y-32910220D01*
X54121610Y-32817287D01*
X54238562Y-32732317D01*
X54287213Y-32696971D01*
X54287215Y-32696968D01*
X54287219Y-32696966D01*
X54431966Y-32552219D01*
X54431968Y-32552215D01*
X54431971Y-32552213D01*
X54552284Y-32386614D01*
X54552286Y-32386611D01*
X54552287Y-32386610D01*
X54599516Y-32293917D01*
X54647489Y-32243123D01*
X54715310Y-32226328D01*
X54781445Y-32248865D01*
X54820483Y-32293917D01*
X54836618Y-32325582D01*
X54867715Y-32386614D01*
X54988028Y-32552213D01*
X55132786Y-32696971D01*
X55253116Y-32784394D01*
X55298390Y-32817287D01*
X55378453Y-32858081D01*
X55480776Y-32910218D01*
X55480778Y-32910218D01*
X55480781Y-32910220D01*
X55584216Y-32943828D01*
X55675465Y-32973477D01*
X55739082Y-32983553D01*
X55877648Y-33005500D01*
X55877649Y-33005500D01*
X56082351Y-33005500D01*
X56082352Y-33005500D01*
X56284534Y-32973477D01*
X56479219Y-32910220D01*
X56661610Y-32817287D01*
X56778562Y-32732317D01*
X56827213Y-32696971D01*
X56827215Y-32696968D01*
X56827219Y-32696966D01*
X56971966Y-32552219D01*
X56971968Y-32552215D01*
X56971971Y-32552213D01*
X57092284Y-32386614D01*
X57092286Y-32386611D01*
X57092287Y-32386610D01*
X57139516Y-32293917D01*
X57187489Y-32243123D01*
X57255310Y-32226328D01*
X57321445Y-32248865D01*
X57360483Y-32293917D01*
X57376618Y-32325582D01*
X57407715Y-32386614D01*
X57528028Y-32552213D01*
X57672786Y-32696971D01*
X57793116Y-32784394D01*
X57838390Y-32817287D01*
X57918453Y-32858081D01*
X58020776Y-32910218D01*
X58020778Y-32910218D01*
X58020781Y-32910220D01*
X58124216Y-32943828D01*
X58215465Y-32973477D01*
X58279082Y-32983553D01*
X58417648Y-33005500D01*
X58417649Y-33005500D01*
X58622351Y-33005500D01*
X58622352Y-33005500D01*
X58824534Y-32973477D01*
X59019219Y-32910220D01*
X59102771Y-32867648D01*
X60259500Y-32867648D01*
X60259500Y-33072351D01*
X60291522Y-33274534D01*
X60354781Y-33469223D01*
X60447715Y-33651613D01*
X60568028Y-33817213D01*
X60712786Y-33961971D01*
X60847063Y-34059527D01*
X60878390Y-34082287D01*
X60994607Y-34141503D01*
X61060776Y-34175218D01*
X61060778Y-34175218D01*
X61060781Y-34175220D01*
X61165137Y-34209127D01*
X61255465Y-34238477D01*
X61356557Y-34254488D01*
X61457648Y-34270500D01*
X61457649Y-34270500D01*
X61662351Y-34270500D01*
X61662352Y-34270500D01*
X61864534Y-34238477D01*
X62059219Y-34175220D01*
X62241610Y-34082287D01*
X62334590Y-34014732D01*
X62407213Y-33961971D01*
X62407215Y-33961968D01*
X62407219Y-33961966D01*
X62551966Y-33817219D01*
X62551968Y-33817215D01*
X62551971Y-33817213D01*
X62606718Y-33741859D01*
X62672287Y-33651610D01*
X62765220Y-33469219D01*
X62828477Y-33274534D01*
X62860500Y-33072352D01*
X62860500Y-32867648D01*
X62852581Y-32817648D01*
X62828477Y-32665465D01*
X62791679Y-32552213D01*
X62765220Y-32470781D01*
X62765218Y-32470778D01*
X62765218Y-32470776D01*
X62722199Y-32386347D01*
X62672287Y-32288390D01*
X62655346Y-32265073D01*
X62551971Y-32122786D01*
X62407213Y-31978028D01*
X62241613Y-31857715D01*
X62241612Y-31857714D01*
X62241610Y-31857713D01*
X62184653Y-31828691D01*
X62059223Y-31764781D01*
X61864534Y-31701522D01*
X61689995Y-31673878D01*
X61662352Y-31669500D01*
X61457648Y-31669500D01*
X61433329Y-31673351D01*
X61255465Y-31701522D01*
X61060776Y-31764781D01*
X60878386Y-31857715D01*
X60712786Y-31978028D01*
X60568028Y-32122786D01*
X60447715Y-32288386D01*
X60354781Y-32470776D01*
X60291522Y-32665465D01*
X60259500Y-32867648D01*
X59102771Y-32867648D01*
X59201610Y-32817287D01*
X59367219Y-32696966D01*
X59511966Y-32552219D01*
X59511968Y-32552215D01*
X59511971Y-32552213D01*
X59571137Y-32470776D01*
X59632287Y-32386610D01*
X59725220Y-32204219D01*
X59788477Y-32009534D01*
X59820500Y-31807352D01*
X59820500Y-31602648D01*
X59807115Y-31518141D01*
X59788477Y-31400465D01*
X59725218Y-31205776D01*
X59632419Y-31023650D01*
X59632287Y-31023390D01*
X59624556Y-31012749D01*
X59511971Y-30857786D01*
X59367213Y-30713028D01*
X59201613Y-30592715D01*
X59201612Y-30592714D01*
X59201610Y-30592713D01*
X59101953Y-30541935D01*
X59019223Y-30499781D01*
X58824534Y-30436522D01*
X58649995Y-30408878D01*
X58622352Y-30404500D01*
X58417648Y-30404500D01*
X58393329Y-30408351D01*
X58215465Y-30436522D01*
X58020776Y-30499781D01*
X57838386Y-30592715D01*
X57672786Y-30713028D01*
X57528028Y-30857786D01*
X57407715Y-31023386D01*
X57360485Y-31116080D01*
X57312510Y-31166876D01*
X57244689Y-31183671D01*
X57178554Y-31161134D01*
X57139515Y-31116080D01*
X57092419Y-31023650D01*
X57092287Y-31023390D01*
X57084556Y-31012749D01*
X56971971Y-30857786D01*
X56827213Y-30713028D01*
X56661613Y-30592715D01*
X56661612Y-30592714D01*
X56661610Y-30592713D01*
X56561953Y-30541935D01*
X56479223Y-30499781D01*
X56284534Y-30436522D01*
X56109995Y-30408878D01*
X56082352Y-30404500D01*
X55877648Y-30404500D01*
X55699886Y-30432654D01*
X55630593Y-30423699D01*
X55592808Y-30397862D01*
X54657574Y-29462627D01*
X54657573Y-29462626D01*
X54657569Y-29462623D01*
X54551027Y-29391435D01*
X54432644Y-29342399D01*
X54432638Y-29342397D01*
X54306971Y-29317400D01*
X54306969Y-29317400D01*
X42916162Y-29317400D01*
X42849123Y-29297715D01*
X42828481Y-29281081D01*
X42815838Y-29268438D01*
X42815834Y-29268435D01*
X42668353Y-29169890D01*
X42668340Y-29169883D01*
X42504467Y-29102006D01*
X42504458Y-29102003D01*
X42330494Y-29067400D01*
X42330491Y-29067400D01*
X42153109Y-29067400D01*
X42153106Y-29067400D01*
X41979141Y-29102003D01*
X41979132Y-29102006D01*
X41815259Y-29169883D01*
X41815246Y-29169890D01*
X41667765Y-29268435D01*
X41667761Y-29268438D01*
X41542338Y-29393861D01*
X41542335Y-29393865D01*
X41443790Y-29541346D01*
X41443783Y-29541359D01*
X41375906Y-29705232D01*
X41375903Y-29705241D01*
X41341300Y-29879204D01*
X41341300Y-30056595D01*
X41375903Y-30230558D01*
X41375906Y-30230567D01*
X41425481Y-30350253D01*
X41432950Y-30419723D01*
X41401674Y-30482202D01*
X41341585Y-30517853D01*
X41271760Y-30515359D01*
X41254627Y-30508191D01*
X41239030Y-30500244D01*
X41044413Y-30437009D01*
X40990000Y-30428390D01*
X40990000Y-31389314D01*
X40985606Y-31384920D01*
X40894394Y-31332259D01*
X40792661Y-31305000D01*
X40687339Y-31305000D01*
X40585606Y-31332259D01*
X40494394Y-31384920D01*
X40490000Y-31389314D01*
X40490000Y-30428390D01*
X40435586Y-30437009D01*
X40240970Y-30500244D01*
X40058650Y-30593140D01*
X39893105Y-30713417D01*
X39893104Y-30713417D01*
X39748417Y-30858104D01*
X39748417Y-30858105D01*
X39628140Y-31023650D01*
X39535244Y-31205970D01*
X39472009Y-31400586D01*
X39463391Y-31455000D01*
X40424314Y-31455000D01*
X40419920Y-31459394D01*
X40367259Y-31550606D01*
X40340000Y-31652339D01*
X40340000Y-31757661D01*
X40367259Y-31859394D01*
X40419920Y-31950606D01*
X40424314Y-31955000D01*
X39463391Y-31955000D01*
X39472009Y-32009413D01*
X39535244Y-32204029D01*
X39628140Y-32386349D01*
X39748417Y-32551894D01*
X39748417Y-32551895D01*
X39893104Y-32696582D01*
X40058650Y-32816859D01*
X40240968Y-32909754D01*
X40435578Y-32972988D01*
X40490000Y-32981607D01*
X40490000Y-32020686D01*
X40494394Y-32025080D01*
X40585606Y-32077741D01*
X40687339Y-32105000D01*
X40792661Y-32105000D01*
X40894394Y-32077741D01*
X40985606Y-32025080D01*
X40990000Y-32020686D01*
X40990000Y-32981606D01*
X41044421Y-32972988D01*
X41239031Y-32909754D01*
X41421349Y-32816859D01*
X41586894Y-32696582D01*
X41586895Y-32696582D01*
X41731582Y-32551895D01*
X41731582Y-32551894D01*
X41851861Y-32386347D01*
X41899234Y-32293371D01*
X41947208Y-32242575D01*
X42015028Y-32225779D01*
X42081164Y-32248316D01*
X42120203Y-32293369D01*
X42167713Y-32386611D01*
X42288028Y-32552213D01*
X42432786Y-32696971D01*
X42553116Y-32784394D01*
X42598390Y-32817287D01*
X42678453Y-32858081D01*
X42780776Y-32910218D01*
X42780778Y-32910218D01*
X42780781Y-32910220D01*
X42884216Y-32943828D01*
X42975465Y-32973477D01*
X43039082Y-32983553D01*
X43177648Y-33005500D01*
X43177649Y-33005500D01*
X43382351Y-33005500D01*
X43382352Y-33005500D01*
X43584534Y-32973477D01*
X43779219Y-32910220D01*
X43961610Y-32817287D01*
X44078562Y-32732317D01*
X44127213Y-32696971D01*
X44127215Y-32696968D01*
X44127219Y-32696966D01*
X44271966Y-32552219D01*
X44271968Y-32552215D01*
X44271971Y-32552213D01*
X44392284Y-32386614D01*
X44392286Y-32386611D01*
X44392287Y-32386610D01*
X44439516Y-32293917D01*
X44487489Y-32243123D01*
X44555310Y-32226328D01*
X44621445Y-32248865D01*
X44660483Y-32293917D01*
X44676618Y-32325582D01*
X44707715Y-32386614D01*
X44828028Y-32552213D01*
X44972786Y-32696971D01*
X45093116Y-32784394D01*
X45138390Y-32817287D01*
X45218453Y-32858081D01*
X45320776Y-32910218D01*
X45320778Y-32910218D01*
X45320781Y-32910220D01*
X45424216Y-32943828D01*
X45515465Y-32973477D01*
X45579082Y-32983553D01*
X45717648Y-33005500D01*
X45717649Y-33005500D01*
X45922351Y-33005500D01*
X45922352Y-33005500D01*
X46124534Y-32973477D01*
X46319219Y-32910220D01*
X46501610Y-32817287D01*
X46618562Y-32732317D01*
X46667213Y-32696971D01*
X46667215Y-32696968D01*
X46667219Y-32696966D01*
X46811966Y-32552219D01*
X46811968Y-32552215D01*
X46811971Y-32552213D01*
X46932284Y-32386614D01*
X46932286Y-32386611D01*
X46932287Y-32386610D01*
X46979516Y-32293917D01*
X47027489Y-32243123D01*
X47095310Y-32226328D01*
X47161445Y-32248865D01*
X47200483Y-32293917D01*
X47216618Y-32325582D01*
X47247715Y-32386614D01*
X47368028Y-32552213D01*
X47512784Y-32696969D01*
X47561438Y-32732317D01*
X47658385Y-32802753D01*
X47701051Y-32858081D01*
X47709500Y-32903070D01*
X47709500Y-34854069D01*
X47724573Y-34929844D01*
X47734499Y-34979744D01*
X47783535Y-35098127D01*
X47854723Y-35204669D01*
X47854726Y-35204673D01*
X49045025Y-36394972D01*
X49045032Y-36394978D01*
X49151563Y-36466159D01*
X49151567Y-36466161D01*
X49151574Y-36466166D01*
X49213637Y-36491873D01*
X49269956Y-36515201D01*
X49269960Y-36515201D01*
X49269961Y-36515202D01*
X49395628Y-36540200D01*
X49395631Y-36540200D01*
X49523769Y-36540200D01*
X58598892Y-36540200D01*
X58665931Y-36559885D01*
X58686573Y-36576519D01*
X59143181Y-37033127D01*
X59176666Y-37094450D01*
X59179500Y-37120808D01*
X59179500Y-38001187D01*
X59159815Y-38068226D01*
X59107011Y-38113981D01*
X59037853Y-38123925D01*
X59017182Y-38119118D01*
X58824536Y-38056523D01*
X58665922Y-38031401D01*
X58622352Y-38024500D01*
X58417648Y-38024500D01*
X58393329Y-38028351D01*
X58215465Y-38056522D01*
X58020776Y-38119781D01*
X57838386Y-38212715D01*
X57672786Y-38333028D01*
X57528028Y-38477786D01*
X57407715Y-38643386D01*
X57360485Y-38736080D01*
X57312510Y-38786876D01*
X57244689Y-38803671D01*
X57178554Y-38781134D01*
X57139515Y-38736080D01*
X57137104Y-38731349D01*
X57092287Y-38643390D01*
X57073464Y-38617482D01*
X56971971Y-38477786D01*
X56827213Y-38333028D01*
X56661613Y-38212715D01*
X56661612Y-38212714D01*
X56661610Y-38212713D01*
X56573487Y-38167812D01*
X56479223Y-38119781D01*
X56284534Y-38056522D01*
X56109995Y-38028878D01*
X56082352Y-38024500D01*
X55877648Y-38024500D01*
X55853329Y-38028351D01*
X55675465Y-38056522D01*
X55480776Y-38119781D01*
X55298386Y-38212715D01*
X55132786Y-38333028D01*
X54988028Y-38477786D01*
X54867715Y-38643386D01*
X54820485Y-38736080D01*
X54772510Y-38786876D01*
X54704689Y-38803671D01*
X54638554Y-38781134D01*
X54599515Y-38736080D01*
X54597104Y-38731349D01*
X54552287Y-38643390D01*
X54533464Y-38617482D01*
X54431971Y-38477786D01*
X54287213Y-38333028D01*
X54121613Y-38212715D01*
X54121612Y-38212714D01*
X54121610Y-38212713D01*
X54033487Y-38167812D01*
X53939223Y-38119781D01*
X53744534Y-38056522D01*
X53569995Y-38028878D01*
X53542352Y-38024500D01*
X53337648Y-38024500D01*
X53159886Y-38052654D01*
X53090593Y-38043699D01*
X53052808Y-38017862D01*
X52151974Y-37117027D01*
X52151973Y-37117026D01*
X52151969Y-37117023D01*
X52045427Y-37045835D01*
X52014747Y-37033127D01*
X51927044Y-36996799D01*
X51927038Y-36996797D01*
X51801371Y-36971800D01*
X51801369Y-36971800D01*
X44918631Y-36971800D01*
X44918629Y-36971800D01*
X44792961Y-36996797D01*
X44792955Y-36996799D01*
X44674570Y-37045835D01*
X44568031Y-37117022D01*
X44568024Y-37117028D01*
X43667190Y-38017862D01*
X43605867Y-38051347D01*
X43560111Y-38052654D01*
X43414611Y-38029609D01*
X43382352Y-38024500D01*
X43177648Y-38024500D01*
X43153329Y-38028351D01*
X42975465Y-38056522D01*
X42780776Y-38119781D01*
X42598386Y-38212715D01*
X42432786Y-38333028D01*
X42288032Y-38477782D01*
X42288026Y-38477789D01*
X42261227Y-38514675D01*
X42205897Y-38557341D01*
X42136284Y-38563319D01*
X42074489Y-38530712D01*
X42040132Y-38469873D01*
X42037620Y-38455043D01*
X42033596Y-38417620D01*
X41983354Y-38282913D01*
X41983350Y-38282906D01*
X41897190Y-38167812D01*
X41897187Y-38167809D01*
X41782093Y-38081649D01*
X41782086Y-38081645D01*
X41647379Y-38031403D01*
X41647372Y-38031401D01*
X41587844Y-38025000D01*
X40990000Y-38025000D01*
X40990000Y-39009314D01*
X40985606Y-39004920D01*
X40894394Y-38952259D01*
X40792661Y-38925000D01*
X40687339Y-38925000D01*
X40585606Y-38952259D01*
X40494394Y-39004920D01*
X40490000Y-39009314D01*
X40490000Y-38025000D01*
X39892155Y-38025000D01*
X39832627Y-38031401D01*
X39832620Y-38031403D01*
X39697913Y-38081645D01*
X39697906Y-38081649D01*
X39582812Y-38167809D01*
X39582809Y-38167812D01*
X39496649Y-38282906D01*
X39496645Y-38282913D01*
X39446403Y-38417620D01*
X39446401Y-38417627D01*
X39440000Y-38477155D01*
X39440000Y-39075000D01*
X40424314Y-39075000D01*
X40419920Y-39079394D01*
X40367259Y-39170606D01*
X40340000Y-39272339D01*
X40340000Y-39377661D01*
X40367259Y-39479394D01*
X40419920Y-39570606D01*
X40424314Y-39575000D01*
X39440000Y-39575000D01*
X39440000Y-40172844D01*
X39446401Y-40232372D01*
X39446403Y-40232379D01*
X39496645Y-40367086D01*
X39496649Y-40367093D01*
X39582809Y-40482187D01*
X39582812Y-40482190D01*
X39697906Y-40568350D01*
X39697913Y-40568354D01*
X39832620Y-40618596D01*
X39832627Y-40618598D01*
X39892155Y-40624999D01*
X39892172Y-40625000D01*
X40490000Y-40625000D01*
X40490000Y-39640686D01*
X40494394Y-39645080D01*
X40585606Y-39697741D01*
X40687339Y-39725000D01*
X40792661Y-39725000D01*
X40894394Y-39697741D01*
X40985606Y-39645080D01*
X40990000Y-39640686D01*
X40990000Y-40625000D01*
X41587828Y-40625000D01*
X41587844Y-40624999D01*
X41647372Y-40618598D01*
X41647379Y-40618596D01*
X41782086Y-40568354D01*
X41782093Y-40568350D01*
X41897187Y-40482190D01*
X41897190Y-40482187D01*
X41983350Y-40367093D01*
X41983354Y-40367086D01*
X42033596Y-40232379D01*
X42037620Y-40194956D01*
X42064358Y-40130404D01*
X42121750Y-40090556D01*
X42191575Y-40088062D01*
X42251664Y-40123714D01*
X42261228Y-40135325D01*
X42288028Y-40172212D01*
X42288032Y-40172217D01*
X42432786Y-40316971D01*
X42548271Y-40400874D01*
X42598390Y-40437287D01*
X42780781Y-40530220D01*
X42843636Y-40550642D01*
X42901310Y-40590079D01*
X42928509Y-40654438D01*
X42916595Y-40723284D01*
X42892998Y-40756254D01*
X41965073Y-41684181D01*
X41903750Y-41717666D01*
X41877392Y-41720500D01*
X33864862Y-41720500D01*
X33797823Y-41700815D01*
X33777181Y-41684181D01*
X33764538Y-41671538D01*
X33764534Y-41671535D01*
X33617053Y-41572990D01*
X33617040Y-41572983D01*
X33453167Y-41505106D01*
X33453158Y-41505103D01*
X33279194Y-41470500D01*
X33279191Y-41470500D01*
X33101809Y-41470500D01*
X33101806Y-41470500D01*
X32927841Y-41505103D01*
X32927832Y-41505106D01*
X32763959Y-41572983D01*
X32763946Y-41572990D01*
X32616465Y-41671535D01*
X32616461Y-41671538D01*
X32491038Y-41796961D01*
X32491035Y-41796965D01*
X32392490Y-41944446D01*
X32392483Y-41944459D01*
X32324606Y-42108332D01*
X32324603Y-42108341D01*
X32290000Y-42282304D01*
X32290000Y-42459695D01*
X32324603Y-42633658D01*
X32324606Y-42633667D01*
X32392483Y-42797540D01*
X32392490Y-42797553D01*
X32491035Y-42945034D01*
X32491038Y-42945038D01*
X32616461Y-43070461D01*
X32616465Y-43070464D01*
X32763946Y-43169009D01*
X32763959Y-43169016D01*
X32854772Y-43206631D01*
X32927834Y-43236894D01*
X32927836Y-43236894D01*
X32927841Y-43236896D01*
X33101804Y-43271499D01*
X33101807Y-43271500D01*
X33101809Y-43271500D01*
X33279193Y-43271500D01*
X33279194Y-43271499D01*
X33337182Y-43259964D01*
X33453158Y-43236896D01*
X33453161Y-43236894D01*
X33453166Y-43236894D01*
X33617047Y-43169013D01*
X33764535Y-43070464D01*
X33764538Y-43070461D01*
X33777181Y-43057819D01*
X33838504Y-43024334D01*
X33864862Y-43021500D01*
X34499148Y-43021500D01*
X34566187Y-43041185D01*
X34611942Y-43093989D01*
X34621886Y-43163147D01*
X34617079Y-43183818D01*
X34597009Y-43245585D01*
X34597009Y-43245586D01*
X34588391Y-43300000D01*
X35549314Y-43300000D01*
X35544920Y-43304394D01*
X35492259Y-43395606D01*
X35465000Y-43497339D01*
X35465000Y-43602661D01*
X35492259Y-43704394D01*
X35544920Y-43795606D01*
X35549314Y-43800000D01*
X34588391Y-43800000D01*
X34597009Y-43854413D01*
X34660245Y-44049032D01*
X34671543Y-44071206D01*
X34684439Y-44139875D01*
X34658162Y-44204615D01*
X34601056Y-44244872D01*
X34561058Y-44251500D01*
X34448929Y-44251500D01*
X34323260Y-44276497D01*
X34323254Y-44276499D01*
X34299519Y-44286331D01*
X34204877Y-44325532D01*
X34204863Y-44325540D01*
X34098332Y-44396721D01*
X34098325Y-44396727D01*
X29757181Y-48737872D01*
X29695858Y-48771357D01*
X29626166Y-48766373D01*
X29570233Y-48724501D01*
X29545816Y-48659037D01*
X29545500Y-48650191D01*
X29545500Y-48527648D01*
X29513477Y-48325465D01*
X29458554Y-48156430D01*
X29450220Y-48130781D01*
X29450218Y-48130778D01*
X29450218Y-48130776D01*
X29405843Y-48043687D01*
X29357287Y-47948390D01*
X29329530Y-47910185D01*
X29236971Y-47782786D01*
X29092213Y-47638028D01*
X28926614Y-47517715D01*
X28867294Y-47487490D01*
X28833917Y-47470483D01*
X28783123Y-47422511D01*
X28766328Y-47354690D01*
X28788865Y-47288555D01*
X28833917Y-47249516D01*
X28926610Y-47202287D01*
X28963865Y-47175220D01*
X29092213Y-47081971D01*
X29092215Y-47081968D01*
X29092219Y-47081966D01*
X29236966Y-46937219D01*
X29236968Y-46937215D01*
X29236971Y-46937213D01*
X29324150Y-46817219D01*
X29357287Y-46771610D01*
X29450220Y-46589219D01*
X29513477Y-46394534D01*
X29545500Y-46192352D01*
X29545500Y-45987648D01*
X29513477Y-45785466D01*
X29450220Y-45590781D01*
X29450218Y-45590778D01*
X29450218Y-45590776D01*
X29405843Y-45503687D01*
X29357287Y-45408390D01*
X29310868Y-45344499D01*
X29236971Y-45242786D01*
X29092217Y-45098032D01*
X29092212Y-45098028D01*
X29055325Y-45071228D01*
X29012659Y-45015898D01*
X29006680Y-44946285D01*
X29039286Y-44884490D01*
X29100124Y-44850133D01*
X29114956Y-44847620D01*
X29152379Y-44843596D01*
X29287086Y-44793354D01*
X29287093Y-44793350D01*
X29402187Y-44707190D01*
X29402190Y-44707187D01*
X29488350Y-44592093D01*
X29488354Y-44592086D01*
X29538596Y-44457379D01*
X29538598Y-44457372D01*
X29544999Y-44397844D01*
X29545000Y-44397827D01*
X29545000Y-43800000D01*
X28560686Y-43800000D01*
X28565080Y-43795606D01*
X28617741Y-43704394D01*
X28645000Y-43602661D01*
X28645000Y-43497339D01*
X28617741Y-43395606D01*
X28565080Y-43304394D01*
X28560686Y-43300000D01*
X29545000Y-43300000D01*
X29545000Y-42702172D01*
X29544999Y-42702155D01*
X29538598Y-42642627D01*
X29538596Y-42642620D01*
X29488354Y-42507913D01*
X29488350Y-42507906D01*
X29402190Y-42392812D01*
X29402187Y-42392809D01*
X29287093Y-42306649D01*
X29287086Y-42306645D01*
X29152379Y-42256403D01*
X29152372Y-42256401D01*
X29092844Y-42250000D01*
X28495000Y-42250000D01*
X28495000Y-43234314D01*
X28490606Y-43229920D01*
X28399394Y-43177259D01*
X28297661Y-43150000D01*
X28192339Y-43150000D01*
X28090606Y-43177259D01*
X27999394Y-43229920D01*
X27995000Y-43234314D01*
X27995000Y-42250000D01*
X27397155Y-42250000D01*
X27337627Y-42256401D01*
X27337620Y-42256403D01*
X27202913Y-42306645D01*
X27202906Y-42306649D01*
X27087812Y-42392809D01*
X27087809Y-42392812D01*
X27001649Y-42507906D01*
X27001645Y-42507913D01*
X26951403Y-42642620D01*
X26951401Y-42642627D01*
X26945000Y-42702155D01*
X26945000Y-43300000D01*
X27929314Y-43300000D01*
X27924920Y-43304394D01*
X27872259Y-43395606D01*
X27845000Y-43497339D01*
X27845000Y-43602661D01*
X27872259Y-43704394D01*
X27924920Y-43795606D01*
X27929314Y-43800000D01*
X26945000Y-43800000D01*
X26945000Y-44397844D01*
X26951401Y-44457372D01*
X26951403Y-44457379D01*
X27001645Y-44592086D01*
X27001649Y-44592093D01*
X27087809Y-44707187D01*
X27087812Y-44707190D01*
X27202906Y-44793350D01*
X27202913Y-44793354D01*
X27337620Y-44843596D01*
X27375043Y-44847620D01*
X27439595Y-44874358D01*
X27479443Y-44931750D01*
X27481937Y-45001576D01*
X27446285Y-45061665D01*
X27434675Y-45071227D01*
X27397789Y-45098026D01*
X27397782Y-45098032D01*
X27253028Y-45242786D01*
X27132715Y-45408386D01*
X27039781Y-45590776D01*
X26976522Y-45785465D01*
X26944500Y-45987648D01*
X26944500Y-46192351D01*
X26972654Y-46370111D01*
X26963699Y-46439405D01*
X26937862Y-46477190D01*
X26534726Y-46880326D01*
X26463534Y-46986874D01*
X26414499Y-47105255D01*
X26414497Y-47105261D01*
X26389500Y-47230928D01*
X26389500Y-47230931D01*
X26389500Y-52375931D01*
X26389500Y-54674069D01*
X26389500Y-54674071D01*
X26389499Y-54674071D01*
X26407765Y-54765892D01*
X26412273Y-54788555D01*
X26414499Y-54799744D01*
X26423837Y-54822287D01*
X26458756Y-54906591D01*
X26463535Y-54918127D01*
X26530077Y-55017715D01*
X26534726Y-55024673D01*
X26995328Y-55485275D01*
X27037793Y-55513649D01*
X27082598Y-55567261D01*
X27091305Y-55636586D01*
X27079387Y-55673045D01*
X27039779Y-55750780D01*
X27039779Y-55750781D01*
X26976523Y-55945461D01*
X26976523Y-55945464D01*
X26944500Y-56147648D01*
X26944500Y-56352351D01*
X26976522Y-56554534D01*
X27039781Y-56749223D01*
X27093510Y-56854670D01*
X27130983Y-56928215D01*
X27132715Y-56931613D01*
X27253028Y-57097213D01*
X27397786Y-57241971D01*
X27552457Y-57354344D01*
X27563390Y-57362287D01*
X27634417Y-57398477D01*
X27656080Y-57409515D01*
X27706876Y-57457490D01*
X27723671Y-57525311D01*
X27701134Y-57591446D01*
X27656080Y-57630485D01*
X27563386Y-57677715D01*
X27397786Y-57798028D01*
X27397782Y-57798032D01*
X27253035Y-57942780D01*
X27253032Y-57942783D01*
X27132715Y-58108386D01*
X27039781Y-58290776D01*
X26976522Y-58485465D01*
X26944500Y-58687648D01*
X26944500Y-58892351D01*
X26972654Y-59070111D01*
X26963699Y-59139405D01*
X26937862Y-59177190D01*
X26514725Y-59600328D01*
X26514719Y-59600336D01*
X26461848Y-59679463D01*
X26461849Y-59679464D01*
X26443534Y-59706874D01*
X26394499Y-59825255D01*
X26394497Y-59825261D01*
X26369500Y-59950928D01*
X26369500Y-62804070D01*
X26381296Y-62863368D01*
X26381296Y-62863370D01*
X26389136Y-62902786D01*
X26394499Y-62929744D01*
X26443535Y-63048127D01*
X26483843Y-63108453D01*
X26514726Y-63154673D01*
X26514727Y-63154674D01*
X27026841Y-63666787D01*
X27060326Y-63728110D01*
X27055342Y-63797801D01*
X27038427Y-63828779D01*
X27001647Y-63877910D01*
X27001645Y-63877913D01*
X26951403Y-64012620D01*
X26951401Y-64012627D01*
X26945000Y-64072155D01*
X26945000Y-64670000D01*
X27929314Y-64670000D01*
X27924920Y-64674394D01*
X27872259Y-64765606D01*
X27845000Y-64867339D01*
X27845000Y-64972661D01*
X27872259Y-65074394D01*
X27924920Y-65165606D01*
X27929314Y-65170000D01*
X26945000Y-65170000D01*
X26945000Y-65767844D01*
X26952231Y-65835087D01*
X26950529Y-65835269D01*
X26947291Y-65895595D01*
X26918038Y-65942014D01*
X26484722Y-66375331D01*
X26484718Y-66375336D01*
X26435421Y-66449118D01*
X26435420Y-66449119D01*
X26413536Y-66481870D01*
X26413534Y-66481874D01*
X26364499Y-66600255D01*
X26364497Y-66600261D01*
X26339500Y-66725928D01*
X24120500Y-66725928D01*
X24120500Y-36862135D01*
X31459500Y-36862135D01*
X31459500Y-38557870D01*
X31459501Y-38557876D01*
X31465908Y-38617483D01*
X31516202Y-38752328D01*
X31516206Y-38752335D01*
X31602452Y-38867544D01*
X31602455Y-38867547D01*
X31717664Y-38953793D01*
X31717671Y-38953797D01*
X31852517Y-39004091D01*
X31852516Y-39004091D01*
X31859444Y-39004835D01*
X31912127Y-39010500D01*
X33607872Y-39010499D01*
X33667483Y-39004091D01*
X33802331Y-38953796D01*
X33917546Y-38867546D01*
X34003796Y-38752331D01*
X34054091Y-38617483D01*
X34060500Y-38557873D01*
X34060499Y-37677259D01*
X34060499Y-36862129D01*
X34060498Y-36862123D01*
X34060497Y-36862116D01*
X34054091Y-36802517D01*
X34046442Y-36782010D01*
X34003797Y-36667671D01*
X34003793Y-36667664D01*
X33917547Y-36552455D01*
X33917544Y-36552452D01*
X33802335Y-36466206D01*
X33802328Y-36466202D01*
X33667482Y-36415908D01*
X33667483Y-36415908D01*
X33607883Y-36409501D01*
X33607881Y-36409500D01*
X33607873Y-36409500D01*
X33607864Y-36409500D01*
X31912129Y-36409500D01*
X31912123Y-36409501D01*
X31852516Y-36415908D01*
X31717671Y-36466202D01*
X31717664Y-36466206D01*
X31602455Y-36552452D01*
X31602452Y-36552455D01*
X31516206Y-36667664D01*
X31516202Y-36667671D01*
X31465908Y-36802517D01*
X31461315Y-36845244D01*
X31459501Y-36862123D01*
X31459500Y-36862135D01*
X24120500Y-36862135D01*
X24120500Y-32527682D01*
X31460000Y-32527682D01*
X31460000Y-32732317D01*
X31492009Y-32934417D01*
X31555244Y-33129031D01*
X31648141Y-33311350D01*
X31648147Y-33311359D01*
X31680523Y-33355921D01*
X31680524Y-33355922D01*
X32360000Y-32676446D01*
X32360000Y-32682661D01*
X32387259Y-32784394D01*
X32439920Y-32875606D01*
X32514394Y-32950080D01*
X32605606Y-33002741D01*
X32707339Y-33030000D01*
X32713553Y-33030000D01*
X32034076Y-33709474D01*
X32078650Y-33741859D01*
X32260968Y-33834755D01*
X32455582Y-33897990D01*
X32657683Y-33930000D01*
X32862317Y-33930000D01*
X33064417Y-33897990D01*
X33259031Y-33834755D01*
X33441349Y-33741859D01*
X33485921Y-33709474D01*
X32806447Y-33030000D01*
X32812661Y-33030000D01*
X32914394Y-33002741D01*
X33005606Y-32950080D01*
X33080080Y-32875606D01*
X33132741Y-32784394D01*
X33160000Y-32682661D01*
X33160000Y-32676447D01*
X33839474Y-33355921D01*
X33871859Y-33311349D01*
X33964755Y-33129031D01*
X34027990Y-32934417D01*
X34060000Y-32732317D01*
X34060000Y-32527682D01*
X34027990Y-32325582D01*
X33964755Y-32130968D01*
X33884894Y-31974232D01*
X33871859Y-31948650D01*
X33839474Y-31904077D01*
X33839474Y-31904076D01*
X33160000Y-32583551D01*
X33160000Y-32577339D01*
X33132741Y-32475606D01*
X33080080Y-32384394D01*
X33005606Y-32309920D01*
X32914394Y-32257259D01*
X32812661Y-32230000D01*
X32806446Y-32230000D01*
X33485922Y-31550524D01*
X33485922Y-31550523D01*
X33441359Y-31518147D01*
X33441350Y-31518141D01*
X33259031Y-31425244D01*
X33064417Y-31362009D01*
X32862317Y-31330000D01*
X32657683Y-31330000D01*
X32455582Y-31362009D01*
X32260968Y-31425244D01*
X32078644Y-31518143D01*
X32034077Y-31550523D01*
X32034077Y-31550524D01*
X32713554Y-32230000D01*
X32707339Y-32230000D01*
X32605606Y-32257259D01*
X32514394Y-32309920D01*
X32439920Y-32384394D01*
X32387259Y-32475606D01*
X32360000Y-32577339D01*
X32360000Y-32583553D01*
X31680524Y-31904077D01*
X31680523Y-31904077D01*
X31648143Y-31948644D01*
X31555244Y-32130968D01*
X31492009Y-32325582D01*
X31460000Y-32527682D01*
X24120500Y-32527682D01*
X24120500Y-29103246D01*
X24120670Y-29096757D01*
X24138399Y-28758459D01*
X24139756Y-28745550D01*
X24192243Y-28414160D01*
X24194933Y-28401503D01*
X24281778Y-28077391D01*
X24285782Y-28065070D01*
X24406025Y-27751826D01*
X24411291Y-27739997D01*
X24563630Y-27441014D01*
X24570091Y-27429824D01*
X24752849Y-27148402D01*
X24760463Y-27137924D01*
X24971620Y-26877166D01*
X24980287Y-26867541D01*
X25217541Y-26630287D01*
X25227172Y-26621616D01*
X25487930Y-26410458D01*
X25498406Y-26402847D01*
X25779824Y-26220091D01*
X25791014Y-26213630D01*
X26089997Y-26061291D01*
X26101826Y-26056025D01*
X26415070Y-25935782D01*
X26427391Y-25931778D01*
X26751503Y-25844933D01*
X26764160Y-25842243D01*
X27095553Y-25789755D01*
X27108458Y-25788399D01*
X27262601Y-25780320D01*
X27446757Y-25770670D01*
X27453246Y-25770500D01*
X27476929Y-25770500D01*
X61297694Y-25770500D01*
X61321375Y-25770500D01*
X61327865Y-25770670D01*
G37*
%TD.AperFunction*%
%TD*%
M02*
