%TF.GenerationSoftware,KiCad,Pcbnew,9.0.3*%
%TF.CreationDate,2025-10-30T22:20:45+00:00*%
%TF.ProjectId,TMSAdapterTC01,544d5341-6461-4707-9465-72544330312e,rev?*%
%TF.SameCoordinates,Original*%
%TF.FileFunction,Legend,Bot*%
%TF.FilePolarity,Positive*%
%FSLAX46Y46*%
G04 Gerber Fmt 4.6, Leading zero omitted, Abs format (unit mm)*
G04 Created by KiCad (PCBNEW 9.0.3) date 2025-10-30 22:20:45*
%MOMM*%
%LPD*%
G01*
G04 APERTURE LIST*
%ADD10C,0.200000*%
%ADD11C,0.400000*%
G04 APERTURE END LIST*
D10*
X47278685Y-91129850D02*
X47335828Y-91186993D01*
X47335828Y-91186993D02*
X47392971Y-91301279D01*
X47392971Y-91301279D02*
X47392971Y-91415564D01*
X47392971Y-91415564D02*
X47335828Y-91529850D01*
X47335828Y-91529850D02*
X47278685Y-91586993D01*
X47278685Y-91586993D02*
X47164400Y-91644136D01*
X47164400Y-91644136D02*
X47050114Y-91644136D01*
X47050114Y-91644136D02*
X46935828Y-91586993D01*
X46935828Y-91586993D02*
X46878685Y-91529850D01*
X46878685Y-91529850D02*
X46821542Y-91415564D01*
X46821542Y-91415564D02*
X46821542Y-91301279D01*
X46821542Y-91301279D02*
X46878685Y-91186993D01*
X46878685Y-91186993D02*
X46935828Y-91129850D01*
X47392971Y-91129850D02*
X46935828Y-91129850D01*
X46935828Y-91129850D02*
X46878685Y-91072707D01*
X46878685Y-91072707D02*
X46878685Y-91015564D01*
X46878685Y-91015564D02*
X46935828Y-90901279D01*
X46935828Y-90901279D02*
X47050114Y-90844136D01*
X47050114Y-90844136D02*
X47335828Y-90844136D01*
X47335828Y-90844136D02*
X47507257Y-90958422D01*
X47507257Y-90958422D02*
X47621542Y-91129850D01*
X47621542Y-91129850D02*
X47678685Y-91358422D01*
X47678685Y-91358422D02*
X47621542Y-91586993D01*
X47621542Y-91586993D02*
X47507257Y-91758422D01*
X47507257Y-91758422D02*
X47335828Y-91872707D01*
X47335828Y-91872707D02*
X47107257Y-91929850D01*
X47107257Y-91929850D02*
X46878685Y-91872707D01*
X46878685Y-91872707D02*
X46707257Y-91758422D01*
X46707257Y-91758422D02*
X46592971Y-91586993D01*
X46592971Y-91586993D02*
X46535828Y-91358422D01*
X46535828Y-91358422D02*
X46592971Y-91129850D01*
X46592971Y-91129850D02*
X46707257Y-90958422D01*
X47507257Y-89815565D02*
X46535828Y-89815565D01*
X46535828Y-89815565D02*
X46421542Y-89872707D01*
X46421542Y-89872707D02*
X46364400Y-89929850D01*
X46364400Y-89929850D02*
X46307257Y-90044136D01*
X46307257Y-90044136D02*
X46307257Y-90215565D01*
X46307257Y-90215565D02*
X46364400Y-90329850D01*
X46764400Y-89815565D02*
X46707257Y-89929850D01*
X46707257Y-89929850D02*
X46707257Y-90158422D01*
X46707257Y-90158422D02*
X46764400Y-90272707D01*
X46764400Y-90272707D02*
X46821542Y-90329850D01*
X46821542Y-90329850D02*
X46935828Y-90386993D01*
X46935828Y-90386993D02*
X47278685Y-90386993D01*
X47278685Y-90386993D02*
X47392971Y-90329850D01*
X47392971Y-90329850D02*
X47450114Y-90272707D01*
X47450114Y-90272707D02*
X47507257Y-90158422D01*
X47507257Y-90158422D02*
X47507257Y-89929850D01*
X47507257Y-89929850D02*
X47450114Y-89815565D01*
X46707257Y-89244136D02*
X47507257Y-89244136D01*
X47278685Y-89244136D02*
X47392971Y-89186993D01*
X47392971Y-89186993D02*
X47450114Y-89129851D01*
X47450114Y-89129851D02*
X47507257Y-89015565D01*
X47507257Y-89015565D02*
X47507257Y-88901279D01*
X46707257Y-87986994D02*
X47335828Y-87986994D01*
X47335828Y-87986994D02*
X47450114Y-88044136D01*
X47450114Y-88044136D02*
X47507257Y-88158422D01*
X47507257Y-88158422D02*
X47507257Y-88386994D01*
X47507257Y-88386994D02*
X47450114Y-88501279D01*
X46764400Y-87986994D02*
X46707257Y-88101279D01*
X46707257Y-88101279D02*
X46707257Y-88386994D01*
X46707257Y-88386994D02*
X46764400Y-88501279D01*
X46764400Y-88501279D02*
X46878685Y-88558422D01*
X46878685Y-88558422D02*
X46992971Y-88558422D01*
X46992971Y-88558422D02*
X47107257Y-88501279D01*
X47107257Y-88501279D02*
X47164400Y-88386994D01*
X47164400Y-88386994D02*
X47164400Y-88101279D01*
X47164400Y-88101279D02*
X47221542Y-87986994D01*
X47507257Y-87415565D02*
X46707257Y-87415565D01*
X47392971Y-87415565D02*
X47450114Y-87358422D01*
X47450114Y-87358422D02*
X47507257Y-87244137D01*
X47507257Y-87244137D02*
X47507257Y-87072708D01*
X47507257Y-87072708D02*
X47450114Y-86958422D01*
X47450114Y-86958422D02*
X47335828Y-86901280D01*
X47335828Y-86901280D02*
X46707257Y-86901280D01*
X46707257Y-85815566D02*
X47907257Y-85815566D01*
X46764400Y-85815566D02*
X46707257Y-85929851D01*
X46707257Y-85929851D02*
X46707257Y-86158423D01*
X46707257Y-86158423D02*
X46764400Y-86272708D01*
X46764400Y-86272708D02*
X46821542Y-86329851D01*
X46821542Y-86329851D02*
X46935828Y-86386994D01*
X46935828Y-86386994D02*
X47278685Y-86386994D01*
X47278685Y-86386994D02*
X47392971Y-86329851D01*
X47392971Y-86329851D02*
X47450114Y-86272708D01*
X47450114Y-86272708D02*
X47507257Y-86158423D01*
X47507257Y-86158423D02*
X47507257Y-85929851D01*
X47507257Y-85929851D02*
X47450114Y-85815566D01*
X46707257Y-85072709D02*
X46764400Y-85186994D01*
X46764400Y-85186994D02*
X46821542Y-85244137D01*
X46821542Y-85244137D02*
X46935828Y-85301280D01*
X46935828Y-85301280D02*
X47278685Y-85301280D01*
X47278685Y-85301280D02*
X47392971Y-85244137D01*
X47392971Y-85244137D02*
X47450114Y-85186994D01*
X47450114Y-85186994D02*
X47507257Y-85072709D01*
X47507257Y-85072709D02*
X47507257Y-84901280D01*
X47507257Y-84901280D02*
X47450114Y-84786994D01*
X47450114Y-84786994D02*
X47392971Y-84729852D01*
X47392971Y-84729852D02*
X47278685Y-84672709D01*
X47278685Y-84672709D02*
X46935828Y-84672709D01*
X46935828Y-84672709D02*
X46821542Y-84729852D01*
X46821542Y-84729852D02*
X46764400Y-84786994D01*
X46764400Y-84786994D02*
X46707257Y-84901280D01*
X46707257Y-84901280D02*
X46707257Y-85072709D01*
X46707257Y-83986995D02*
X46764400Y-84101280D01*
X46764400Y-84101280D02*
X46878685Y-84158423D01*
X46878685Y-84158423D02*
X47907257Y-84158423D01*
X46707257Y-83015567D02*
X47907257Y-83015567D01*
X46764400Y-83015567D02*
X46707257Y-83129852D01*
X46707257Y-83129852D02*
X46707257Y-83358424D01*
X46707257Y-83358424D02*
X46764400Y-83472709D01*
X46764400Y-83472709D02*
X46821542Y-83529852D01*
X46821542Y-83529852D02*
X46935828Y-83586995D01*
X46935828Y-83586995D02*
X47278685Y-83586995D01*
X47278685Y-83586995D02*
X47392971Y-83529852D01*
X47392971Y-83529852D02*
X47450114Y-83472709D01*
X47450114Y-83472709D02*
X47507257Y-83358424D01*
X47507257Y-83358424D02*
X47507257Y-83129852D01*
X47507257Y-83129852D02*
X47450114Y-83015567D01*
X46707257Y-82444138D02*
X47507257Y-82444138D01*
X47907257Y-82444138D02*
X47850114Y-82501281D01*
X47850114Y-82501281D02*
X47792971Y-82444138D01*
X47792971Y-82444138D02*
X47850114Y-82386995D01*
X47850114Y-82386995D02*
X47907257Y-82444138D01*
X47907257Y-82444138D02*
X47792971Y-82444138D01*
X46707257Y-81358424D02*
X47335828Y-81358424D01*
X47335828Y-81358424D02*
X47450114Y-81415566D01*
X47450114Y-81415566D02*
X47507257Y-81529852D01*
X47507257Y-81529852D02*
X47507257Y-81758424D01*
X47507257Y-81758424D02*
X47450114Y-81872709D01*
X46764400Y-81358424D02*
X46707257Y-81472709D01*
X46707257Y-81472709D02*
X46707257Y-81758424D01*
X46707257Y-81758424D02*
X46764400Y-81872709D01*
X46764400Y-81872709D02*
X46878685Y-81929852D01*
X46878685Y-81929852D02*
X46992971Y-81929852D01*
X46992971Y-81929852D02*
X47107257Y-81872709D01*
X47107257Y-81872709D02*
X47164400Y-81758424D01*
X47164400Y-81758424D02*
X47164400Y-81472709D01*
X47164400Y-81472709D02*
X47221542Y-81358424D01*
X47507257Y-80786995D02*
X46707257Y-80786995D01*
X47392971Y-80786995D02*
X47450114Y-80729852D01*
X47450114Y-80729852D02*
X47507257Y-80615567D01*
X47507257Y-80615567D02*
X47507257Y-80444138D01*
X47507257Y-80444138D02*
X47450114Y-80329852D01*
X47450114Y-80329852D02*
X47335828Y-80272710D01*
X47335828Y-80272710D02*
X46707257Y-80272710D01*
X46707257Y-78158424D02*
X46707257Y-78844138D01*
X46707257Y-78501281D02*
X47907257Y-78501281D01*
X47907257Y-78501281D02*
X47735828Y-78615567D01*
X47735828Y-78615567D02*
X47621542Y-78729852D01*
X47621542Y-78729852D02*
X47564400Y-78844138D01*
X47907257Y-77415567D02*
X47907257Y-77301281D01*
X47907257Y-77301281D02*
X47850114Y-77186995D01*
X47850114Y-77186995D02*
X47792971Y-77129853D01*
X47792971Y-77129853D02*
X47678685Y-77072710D01*
X47678685Y-77072710D02*
X47450114Y-77015567D01*
X47450114Y-77015567D02*
X47164400Y-77015567D01*
X47164400Y-77015567D02*
X46935828Y-77072710D01*
X46935828Y-77072710D02*
X46821542Y-77129853D01*
X46821542Y-77129853D02*
X46764400Y-77186995D01*
X46764400Y-77186995D02*
X46707257Y-77301281D01*
X46707257Y-77301281D02*
X46707257Y-77415567D01*
X46707257Y-77415567D02*
X46764400Y-77529853D01*
X46764400Y-77529853D02*
X46821542Y-77586995D01*
X46821542Y-77586995D02*
X46935828Y-77644138D01*
X46935828Y-77644138D02*
X47164400Y-77701281D01*
X47164400Y-77701281D02*
X47450114Y-77701281D01*
X47450114Y-77701281D02*
X47678685Y-77644138D01*
X47678685Y-77644138D02*
X47792971Y-77586995D01*
X47792971Y-77586995D02*
X47850114Y-77529853D01*
X47850114Y-77529853D02*
X47907257Y-77415567D01*
X47964400Y-75644138D02*
X46421542Y-76672710D01*
X47792971Y-75301281D02*
X47850114Y-75244138D01*
X47850114Y-75244138D02*
X47907257Y-75129853D01*
X47907257Y-75129853D02*
X47907257Y-74844138D01*
X47907257Y-74844138D02*
X47850114Y-74729853D01*
X47850114Y-74729853D02*
X47792971Y-74672710D01*
X47792971Y-74672710D02*
X47678685Y-74615567D01*
X47678685Y-74615567D02*
X47564400Y-74615567D01*
X47564400Y-74615567D02*
X47392971Y-74672710D01*
X47392971Y-74672710D02*
X46707257Y-75358424D01*
X46707257Y-75358424D02*
X46707257Y-74615567D01*
X47907257Y-73872710D02*
X47907257Y-73758424D01*
X47907257Y-73758424D02*
X47850114Y-73644138D01*
X47850114Y-73644138D02*
X47792971Y-73586996D01*
X47792971Y-73586996D02*
X47678685Y-73529853D01*
X47678685Y-73529853D02*
X47450114Y-73472710D01*
X47450114Y-73472710D02*
X47164400Y-73472710D01*
X47164400Y-73472710D02*
X46935828Y-73529853D01*
X46935828Y-73529853D02*
X46821542Y-73586996D01*
X46821542Y-73586996D02*
X46764400Y-73644138D01*
X46764400Y-73644138D02*
X46707257Y-73758424D01*
X46707257Y-73758424D02*
X46707257Y-73872710D01*
X46707257Y-73872710D02*
X46764400Y-73986996D01*
X46764400Y-73986996D02*
X46821542Y-74044138D01*
X46821542Y-74044138D02*
X46935828Y-74101281D01*
X46935828Y-74101281D02*
X47164400Y-74158424D01*
X47164400Y-74158424D02*
X47450114Y-74158424D01*
X47450114Y-74158424D02*
X47678685Y-74101281D01*
X47678685Y-74101281D02*
X47792971Y-74044138D01*
X47792971Y-74044138D02*
X47850114Y-73986996D01*
X47850114Y-73986996D02*
X47907257Y-73872710D01*
X47792971Y-73015567D02*
X47850114Y-72958424D01*
X47850114Y-72958424D02*
X47907257Y-72844139D01*
X47907257Y-72844139D02*
X47907257Y-72558424D01*
X47907257Y-72558424D02*
X47850114Y-72444139D01*
X47850114Y-72444139D02*
X47792971Y-72386996D01*
X47792971Y-72386996D02*
X47678685Y-72329853D01*
X47678685Y-72329853D02*
X47564400Y-72329853D01*
X47564400Y-72329853D02*
X47392971Y-72386996D01*
X47392971Y-72386996D02*
X46707257Y-73072710D01*
X46707257Y-73072710D02*
X46707257Y-72329853D01*
X47907257Y-71244139D02*
X47907257Y-71815567D01*
X47907257Y-71815567D02*
X47335828Y-71872710D01*
X47335828Y-71872710D02*
X47392971Y-71815567D01*
X47392971Y-71815567D02*
X47450114Y-71701282D01*
X47450114Y-71701282D02*
X47450114Y-71415567D01*
X47450114Y-71415567D02*
X47392971Y-71301282D01*
X47392971Y-71301282D02*
X47335828Y-71244139D01*
X47335828Y-71244139D02*
X47221542Y-71186996D01*
X47221542Y-71186996D02*
X46935828Y-71186996D01*
X46935828Y-71186996D02*
X46821542Y-71244139D01*
X46821542Y-71244139D02*
X46764400Y-71301282D01*
X46764400Y-71301282D02*
X46707257Y-71415567D01*
X46707257Y-71415567D02*
X46707257Y-71701282D01*
X46707257Y-71701282D02*
X46764400Y-71815567D01*
X46764400Y-71815567D02*
X46821542Y-71872710D01*
D11*
%TO.C,J150*%
X44100000Y-42100000D02*
X44100000Y-93020000D01*
X44100000Y-93020000D02*
X61360000Y-93020000D01*
X51730000Y-42100000D02*
X44100000Y-42100000D01*
X61360000Y-42100000D02*
X53730000Y-42100000D01*
X61360000Y-93020000D02*
X61360000Y-42100000D01*
X53730000Y-42100000D02*
G75*
G02*
X51730000Y-42100000I-1000000J0D01*
G01*
%TD*%
M02*
