%TF.GenerationSoftware,KiCad,Pcbnew,9.0.6*%
%TF.CreationDate,2025-11-01T23:52:33+00:00*%
%TF.ProjectId,EinsteinTC01,45696e73-7465-4696-9e54-4330312e6b69,rev?*%
%TF.SameCoordinates,Original*%
%TF.FileFunction,Profile,NP*%
%FSLAX46Y46*%
G04 Gerber Fmt 4.6, Leading zero omitted, Abs format (unit mm)*
G04 Created by KiCad (PCBNEW 9.0.6) date 2025-11-01 23:52:33*
%MOMM*%
%LPD*%
G01*
G04 APERTURE LIST*
%TA.AperFunction,Profile*%
%ADD10C,0.050000*%
%TD*%
%TA.AperFunction,Profile*%
%ADD11C,0.200000*%
%TD*%
%TA.AperFunction,Profile*%
%ADD12C,0.150000*%
%TD*%
%TA.AperFunction,Profile*%
%ADD13C,0.100000*%
%TD*%
G04 APERTURE END LIST*
D10*
X382410803Y-180389197D02*
G75*
G02*
X377909197Y-180389197I-2250803J0D01*
G01*
X377909197Y-180389197D02*
G75*
G02*
X382410803Y-180389197I2250803J0D01*
G01*
X270830129Y-31190000D02*
G75*
G02*
X267729871Y-31190000I-1550129J0D01*
G01*
X267729871Y-31190000D02*
G75*
G02*
X270830129Y-31190000I1550129J0D01*
G01*
X382400803Y-330619197D02*
G75*
G02*
X377899197Y-330619197I-2250803J0D01*
G01*
X377899197Y-330619197D02*
G75*
G02*
X382400803Y-330619197I2250803J0D01*
G01*
X277120803Y-40559871D02*
G75*
G02*
X272619197Y-40559871I-2250803J0D01*
G01*
X272619197Y-40559871D02*
G75*
G02*
X277120803Y-40559871I2250803J0D01*
G01*
X110350129Y-53259871D02*
G75*
G02*
X107249871Y-53259871I-1550129J0D01*
G01*
X107249871Y-53259871D02*
G75*
G02*
X110350129Y-53259871I1550129J0D01*
G01*
X172400803Y-330549197D02*
G75*
G02*
X167899197Y-330549197I-2250803J0D01*
G01*
X167899197Y-330549197D02*
G75*
G02*
X172400803Y-330549197I2250803J0D01*
G01*
X102660803Y-180199197D02*
G75*
G02*
X98159197Y-180199197I-2250803J0D01*
G01*
X98159197Y-180199197D02*
G75*
G02*
X102660803Y-180199197I2250803J0D01*
G01*
X382340803Y-44819197D02*
G75*
G02*
X377839197Y-44819197I-2250803J0D01*
G01*
X377839197Y-44819197D02*
G75*
G02*
X382340803Y-44819197I2250803J0D01*
G01*
X362610129Y-31190000D02*
G75*
G02*
X359509871Y-31190000I-1550129J0D01*
G01*
X359509871Y-31190000D02*
G75*
G02*
X362610129Y-31190000I1550129J0D01*
G01*
X112380129Y-31190000D02*
G75*
G02*
X109279871Y-31190000I-1550129J0D01*
G01*
X109279871Y-31190000D02*
G75*
G02*
X112380129Y-31190000I1550129J0D01*
G01*
X259990129Y-31190000D02*
G75*
G02*
X256889871Y-31190000I-1550129J0D01*
G01*
X256889871Y-31190000D02*
G75*
G02*
X259990129Y-31190000I1550129J0D01*
G01*
X177250803Y-40559871D02*
G75*
G02*
X172749197Y-40559871I-2250803J0D01*
G01*
X172749197Y-40559871D02*
G75*
G02*
X177250803Y-40559871I2250803J0D01*
G01*
X175070129Y-31190000D02*
G75*
G02*
X171969871Y-31190000I-1550129J0D01*
G01*
X171969871Y-31190000D02*
G75*
G02*
X175070129Y-31190000I1550129J0D01*
G01*
X310640129Y-31190000D02*
G75*
G02*
X307539871Y-31190000I-1550129J0D01*
G01*
X307539871Y-31190000D02*
G75*
G02*
X310640129Y-31190000I1550129J0D01*
G01*
X164340129Y-31190000D02*
G75*
G02*
X161239871Y-31190000I-1550129J0D01*
G01*
X161239871Y-31190000D02*
G75*
G02*
X164340129Y-31190000I1550129J0D01*
G01*
D11*
X89980000Y-20300000D02*
X389680000Y-20300000D01*
X389680000Y-340300000D01*
X89980000Y-340300000D01*
X89980000Y-20300000D01*
D10*
X112440803Y-40559871D02*
G75*
G02*
X107939197Y-40559871I-2250803J0D01*
G01*
X107939197Y-40559871D02*
G75*
G02*
X112440803Y-40559871I2250803J0D01*
G01*
X102600803Y-330569197D02*
G75*
G02*
X98099197Y-330569197I-2250803J0D01*
G01*
X98099197Y-330569197D02*
G75*
G02*
X102600803Y-330569197I2250803J0D01*
G01*
X168740129Y-53259871D02*
G75*
G02*
X165639871Y-53259871I-1550129J0D01*
G01*
X165639871Y-53259871D02*
G75*
G02*
X168740129Y-53259871I1550129J0D01*
G01*
X299870129Y-31190000D02*
G75*
G02*
X296769871Y-31190000I-1550129J0D01*
G01*
X296769871Y-31190000D02*
G75*
G02*
X299870129Y-31190000I1550129J0D01*
G01*
D12*
%TO.C,M16*%
X371570000Y-28435000D02*
G75*
G02*
X368770000Y-28435000I-1400000J0D01*
G01*
X368770000Y-28435000D02*
G75*
G02*
X371570000Y-28435000I1400000J0D01*
G01*
X386570000Y-28435000D02*
G75*
G02*
X383770000Y-28435000I-1400000J0D01*
G01*
X383770000Y-28435000D02*
G75*
G02*
X386570000Y-28435000I1400000J0D01*
G01*
%TO.C,M15*%
X383850000Y-84035000D02*
G75*
G02*
X381050000Y-84035000I-1400000J0D01*
G01*
X381050000Y-84035000D02*
G75*
G02*
X383850000Y-84035000I1400000J0D01*
G01*
X383850000Y-99035000D02*
G75*
G02*
X381050000Y-99035000I-1400000J0D01*
G01*
X381050000Y-99035000D02*
G75*
G02*
X383850000Y-99035000I1400000J0D01*
G01*
%TO.C,M13*%
X383970000Y-63650000D02*
G75*
G02*
X381170000Y-63650000I-1400000J0D01*
G01*
X381170000Y-63650000D02*
G75*
G02*
X383970000Y-63650000I1400000J0D01*
G01*
X383970000Y-78650000D02*
G75*
G02*
X381170000Y-78650000I-1400000J0D01*
G01*
X381170000Y-78650000D02*
G75*
G02*
X383970000Y-78650000I1400000J0D01*
G01*
%TO.C,M14*%
X383850000Y-104360000D02*
G75*
G02*
X381050000Y-104360000I-1400000J0D01*
G01*
X381050000Y-104360000D02*
G75*
G02*
X383850000Y-104360000I1400000J0D01*
G01*
X383850000Y-119360000D02*
G75*
G02*
X381050000Y-119360000I-1400000J0D01*
G01*
X381050000Y-119360000D02*
G75*
G02*
X383850000Y-119360000I1400000J0D01*
G01*
D13*
%TO.C,M6*%
X113720000Y-332790000D02*
G75*
G02*
X111620000Y-332790000I-1050000J0D01*
G01*
X111620000Y-332790000D02*
G75*
G02*
X113720000Y-332790000I1050000J0D01*
G01*
X158720000Y-333040000D02*
G75*
G02*
X156620000Y-333040000I-1050000J0D01*
G01*
X156620000Y-333040000D02*
G75*
G02*
X158720000Y-333040000I1050000J0D01*
G01*
%TD*%
M02*
