%TF.GenerationSoftware,KiCad,Pcbnew,9.0.6*%
%TF.CreationDate,2025-11-01T23:52:29+00:00*%
%TF.ProjectId,EinsteinTC01,45696e73-7465-4696-9e54-4330312e6b69,rev?*%
%TF.SameCoordinates,Original*%
%TF.FileFunction,Drillmap*%
%TF.FilePolarity,Positive*%
%FSLAX45Y45*%
G04 Gerber Fmt 4.5, Leading zero omitted, Abs format (unit mm)*
G04 Created by KiCad (PCBNEW 9.0.6) date 2025-11-01 23:52:29*
%MOMM*%
%LPD*%
G01*
G04 APERTURE LIST*
%ADD10C,0.050000*%
%ADD11C,0.200000*%
%ADD12C,0.150000*%
%ADD13C,0.100000*%
G04 APERTURE END LIST*
D10*
X38241080Y-18038920D02*
G75*
G02*
X37790920Y-18038920I-225080J0D01*
G01*
X37790920Y-18038920D02*
G75*
G02*
X38241080Y-18038920I225080J0D01*
G01*
X27083013Y-3119000D02*
G75*
G02*
X26772987Y-3119000I-155013J0D01*
G01*
X26772987Y-3119000D02*
G75*
G02*
X27083013Y-3119000I155013J0D01*
G01*
X38240080Y-33061920D02*
G75*
G02*
X37789920Y-33061920I-225080J0D01*
G01*
X37789920Y-33061920D02*
G75*
G02*
X38240080Y-33061920I225080J0D01*
G01*
X27712080Y-4055987D02*
G75*
G02*
X27261920Y-4055987I-225080J0D01*
G01*
X27261920Y-4055987D02*
G75*
G02*
X27712080Y-4055987I225080J0D01*
G01*
X11035013Y-5325987D02*
G75*
G02*
X10724987Y-5325987I-155013J0D01*
G01*
X10724987Y-5325987D02*
G75*
G02*
X11035013Y-5325987I155013J0D01*
G01*
X17240080Y-33054920D02*
G75*
G02*
X16789920Y-33054920I-225080J0D01*
G01*
X16789920Y-33054920D02*
G75*
G02*
X17240080Y-33054920I225080J0D01*
G01*
X10266080Y-18019920D02*
G75*
G02*
X9815920Y-18019920I-225080J0D01*
G01*
X9815920Y-18019920D02*
G75*
G02*
X10266080Y-18019920I225080J0D01*
G01*
X38234080Y-4481920D02*
G75*
G02*
X37783920Y-4481920I-225080J0D01*
G01*
X37783920Y-4481920D02*
G75*
G02*
X38234080Y-4481920I225080J0D01*
G01*
X36261013Y-3119000D02*
G75*
G02*
X35950987Y-3119000I-155013J0D01*
G01*
X35950987Y-3119000D02*
G75*
G02*
X36261013Y-3119000I155013J0D01*
G01*
X11238013Y-3119000D02*
G75*
G02*
X10927987Y-3119000I-155013J0D01*
G01*
X10927987Y-3119000D02*
G75*
G02*
X11238013Y-3119000I155013J0D01*
G01*
X25999013Y-3119000D02*
G75*
G02*
X25688987Y-3119000I-155013J0D01*
G01*
X25688987Y-3119000D02*
G75*
G02*
X25999013Y-3119000I155013J0D01*
G01*
X17725080Y-4055987D02*
G75*
G02*
X17274920Y-4055987I-225080J0D01*
G01*
X17274920Y-4055987D02*
G75*
G02*
X17725080Y-4055987I225080J0D01*
G01*
X17507013Y-3119000D02*
G75*
G02*
X17196987Y-3119000I-155013J0D01*
G01*
X17196987Y-3119000D02*
G75*
G02*
X17507013Y-3119000I155013J0D01*
G01*
X31064013Y-3119000D02*
G75*
G02*
X30753987Y-3119000I-155013J0D01*
G01*
X30753987Y-3119000D02*
G75*
G02*
X31064013Y-3119000I155013J0D01*
G01*
X16434013Y-3119000D02*
G75*
G02*
X16123987Y-3119000I-155013J0D01*
G01*
X16123987Y-3119000D02*
G75*
G02*
X16434013Y-3119000I155013J0D01*
G01*
D11*
X8998000Y-2030000D02*
X38968000Y-2030000D01*
X38968000Y-34030000D01*
X8998000Y-34030000D01*
X8998000Y-2030000D01*
D10*
X11244080Y-4055987D02*
G75*
G02*
X10793920Y-4055987I-225080J0D01*
G01*
X10793920Y-4055987D02*
G75*
G02*
X11244080Y-4055987I225080J0D01*
G01*
X10260080Y-33056920D02*
G75*
G02*
X9809920Y-33056920I-225080J0D01*
G01*
X9809920Y-33056920D02*
G75*
G02*
X10260080Y-33056920I225080J0D01*
G01*
X16874013Y-5325987D02*
G75*
G02*
X16563987Y-5325987I-155013J0D01*
G01*
X16563987Y-5325987D02*
G75*
G02*
X16874013Y-5325987I155013J0D01*
G01*
X29987013Y-3119000D02*
G75*
G02*
X29676987Y-3119000I-155013J0D01*
G01*
X29676987Y-3119000D02*
G75*
G02*
X29987013Y-3119000I155013J0D01*
G01*
D12*
X37157000Y-2843500D02*
G75*
G02*
X36877000Y-2843500I-140000J0D01*
G01*
X36877000Y-2843500D02*
G75*
G02*
X37157000Y-2843500I140000J0D01*
G01*
X38657000Y-2843500D02*
G75*
G02*
X38377000Y-2843500I-140000J0D01*
G01*
X38377000Y-2843500D02*
G75*
G02*
X38657000Y-2843500I140000J0D01*
G01*
X38385000Y-8403500D02*
G75*
G02*
X38105000Y-8403500I-140000J0D01*
G01*
X38105000Y-8403500D02*
G75*
G02*
X38385000Y-8403500I140000J0D01*
G01*
X38385000Y-9903500D02*
G75*
G02*
X38105000Y-9903500I-140000J0D01*
G01*
X38105000Y-9903500D02*
G75*
G02*
X38385000Y-9903500I140000J0D01*
G01*
X38397000Y-6365000D02*
G75*
G02*
X38117000Y-6365000I-140000J0D01*
G01*
X38117000Y-6365000D02*
G75*
G02*
X38397000Y-6365000I140000J0D01*
G01*
X38397000Y-7865000D02*
G75*
G02*
X38117000Y-7865000I-140000J0D01*
G01*
X38117000Y-7865000D02*
G75*
G02*
X38397000Y-7865000I140000J0D01*
G01*
X38385000Y-10436000D02*
G75*
G02*
X38105000Y-10436000I-140000J0D01*
G01*
X38105000Y-10436000D02*
G75*
G02*
X38385000Y-10436000I140000J0D01*
G01*
X38385000Y-11936000D02*
G75*
G02*
X38105000Y-11936000I-140000J0D01*
G01*
X38105000Y-11936000D02*
G75*
G02*
X38385000Y-11936000I140000J0D01*
G01*
D13*
X11372000Y-33279000D02*
G75*
G02*
X11162000Y-33279000I-105000J0D01*
G01*
X11162000Y-33279000D02*
G75*
G02*
X11372000Y-33279000I105000J0D01*
G01*
X15872000Y-33304000D02*
G75*
G02*
X15662000Y-33304000I-105000J0D01*
G01*
X15662000Y-33304000D02*
G75*
G02*
X15872000Y-33304000I105000J0D01*
G01*
D11*
X9248777Y-34351484D02*
X9248777Y-34151484D01*
X9248777Y-34151484D02*
X9296396Y-34151484D01*
X9296396Y-34151484D02*
X9324967Y-34161008D01*
X9324967Y-34161008D02*
X9344015Y-34180055D01*
X9344015Y-34180055D02*
X9353539Y-34199103D01*
X9353539Y-34199103D02*
X9363063Y-34237198D01*
X9363063Y-34237198D02*
X9363063Y-34265770D01*
X9363063Y-34265770D02*
X9353539Y-34303865D01*
X9353539Y-34303865D02*
X9344015Y-34322912D01*
X9344015Y-34322912D02*
X9324967Y-34341960D01*
X9324967Y-34341960D02*
X9296396Y-34351484D01*
X9296396Y-34351484D02*
X9248777Y-34351484D01*
X9448777Y-34351484D02*
X9448777Y-34218150D01*
X9448777Y-34256246D02*
X9458301Y-34237198D01*
X9458301Y-34237198D02*
X9467824Y-34227674D01*
X9467824Y-34227674D02*
X9486872Y-34218150D01*
X9486872Y-34218150D02*
X9505920Y-34218150D01*
X9572586Y-34351484D02*
X9572586Y-34218150D01*
X9572586Y-34151484D02*
X9563063Y-34161008D01*
X9563063Y-34161008D02*
X9572586Y-34170531D01*
X9572586Y-34170531D02*
X9582110Y-34161008D01*
X9582110Y-34161008D02*
X9572586Y-34151484D01*
X9572586Y-34151484D02*
X9572586Y-34170531D01*
X9696396Y-34351484D02*
X9677348Y-34341960D01*
X9677348Y-34341960D02*
X9667824Y-34322912D01*
X9667824Y-34322912D02*
X9667824Y-34151484D01*
X9801158Y-34351484D02*
X9782110Y-34341960D01*
X9782110Y-34341960D02*
X9772586Y-34322912D01*
X9772586Y-34322912D02*
X9772586Y-34151484D01*
X10029729Y-34351484D02*
X10029729Y-34151484D01*
X10029729Y-34151484D02*
X10096396Y-34294341D01*
X10096396Y-34294341D02*
X10163063Y-34151484D01*
X10163063Y-34151484D02*
X10163063Y-34351484D01*
X10344015Y-34351484D02*
X10344015Y-34246722D01*
X10344015Y-34246722D02*
X10334491Y-34227674D01*
X10334491Y-34227674D02*
X10315444Y-34218150D01*
X10315444Y-34218150D02*
X10277348Y-34218150D01*
X10277348Y-34218150D02*
X10258301Y-34227674D01*
X10344015Y-34341960D02*
X10324967Y-34351484D01*
X10324967Y-34351484D02*
X10277348Y-34351484D01*
X10277348Y-34351484D02*
X10258301Y-34341960D01*
X10258301Y-34341960D02*
X10248777Y-34322912D01*
X10248777Y-34322912D02*
X10248777Y-34303865D01*
X10248777Y-34303865D02*
X10258301Y-34284817D01*
X10258301Y-34284817D02*
X10277348Y-34275293D01*
X10277348Y-34275293D02*
X10324967Y-34275293D01*
X10324967Y-34275293D02*
X10344015Y-34265770D01*
X10439253Y-34218150D02*
X10439253Y-34418150D01*
X10439253Y-34227674D02*
X10458301Y-34218150D01*
X10458301Y-34218150D02*
X10496396Y-34218150D01*
X10496396Y-34218150D02*
X10515444Y-34227674D01*
X10515444Y-34227674D02*
X10524967Y-34237198D01*
X10524967Y-34237198D02*
X10534491Y-34256246D01*
X10534491Y-34256246D02*
X10534491Y-34313389D01*
X10534491Y-34313389D02*
X10524967Y-34332436D01*
X10524967Y-34332436D02*
X10515444Y-34341960D01*
X10515444Y-34341960D02*
X10496396Y-34351484D01*
X10496396Y-34351484D02*
X10458301Y-34351484D01*
X10458301Y-34351484D02*
X10439253Y-34341960D01*
X10620205Y-34332436D02*
X10629729Y-34341960D01*
X10629729Y-34341960D02*
X10620205Y-34351484D01*
X10620205Y-34351484D02*
X10610682Y-34341960D01*
X10610682Y-34341960D02*
X10620205Y-34332436D01*
X10620205Y-34332436D02*
X10620205Y-34351484D01*
X10620205Y-34227674D02*
X10629729Y-34237198D01*
X10629729Y-34237198D02*
X10620205Y-34246722D01*
X10620205Y-34246722D02*
X10610682Y-34237198D01*
X10610682Y-34237198D02*
X10620205Y-34227674D01*
X10620205Y-34227674D02*
X10620205Y-34246722D01*
M02*
