M48
; DRILL file {KiCad 9.0.6} date 2025-11-01T23:52:29+0000
; FORMAT={-:-/ absolute / inch / decimal}
; #@! TF.CreationDate,2025-11-01T23:52:29+00:00
; #@! TF.GenerationSoftware,Kicad,Pcbnew,9.0.6
; #@! TF.FileFunction,Plated,1,2,PTH
FMAT,2
INCH
; #@! TA.AperFunction,Plated,PTH,ViaDrill
T1C0.0197
; #@! TA.AperFunction,Plated,PTH,ComponentDrill
T2C0.0197
; #@! TA.AperFunction,Plated,PTH,ViaDrill
T3C0.0236
; #@! TA.AperFunction,Plated,PTH,ComponentDrill
T4C0.0276
; #@! TA.AperFunction,Plated,PTH,ComponentDrill
T5C0.0315
; #@! TA.AperFunction,Plated,PTH,ComponentDrill
T6C0.0394
; #@! TA.AperFunction,Plated,PTH,ComponentDrill
T7C0.0433
; #@! TA.AperFunction,Plated,PTH,ComponentDrill
T8C0.0472
; #@! TA.AperFunction,Plated,PTH,ComponentDrill
T9C0.0512
; #@! TA.AperFunction,Plated,PTH,ComponentDrill
T10C0.0551
; #@! TA.AperFunction,Plated,PTH,ComponentDrill
T11C0.0591
; #@! TA.AperFunction,Plated,PTH,ComponentDrill
T12C0.0610
; #@! TA.AperFunction,Plated,PTH,ComponentDrill
T13C0.0630
; #@! TA.AperFunction,Plated,PTH,ComponentDrill
T14C0.0669
; #@! TA.AperFunction,Plated,PTH,ComponentDrill
T15C0.0689
; #@! TA.AperFunction,Plated,PTH,ComponentDrill
T16C0.0728
; #@! TA.AperFunction,Plated,PTH,ComponentDrill
T17C0.0787
; #@! TA.AperFunction,Plated,PTH,ComponentDrill
T18C0.1102
%
G90
G05
T1
X3.8646Y-9.2736
X3.8657Y-9.2028
X3.8657Y-10.0043
X3.9067Y-6.0012
X3.9449Y-9.2409
X3.952Y-5.2008
X3.9563Y-6.6988
X3.9892Y-4.5541
X4.015Y-11.0236
X4.0315Y-6.1722
X4.0423Y-4.4439
X4.0598Y-7.4024
X4.0807Y-6.9006
X4.0874Y-8.9244
X4.0925Y-6.2622
X4.1098Y-2.9949
X4.1154Y-11.498
X4.1201Y-7.4902
X4.1591Y-3.7965
X4.1661Y-11.6476
X4.2079Y-4.2516
X4.2626Y-11.7984
X4.3071Y-4.0988
X4.3087Y-11.1736
X4.3563Y-2.8945
X4.3618Y-9.0768
X4.3661Y-6.0012
X4.4047Y-3.8441
X4.4114Y-4.8433
X4.4606Y-4.4449
X4.4898Y-4.7913
X4.5028Y-2.9953
X4.5547Y-3.5925
X4.5583Y-2.9441
X4.5602Y-5.5457
X4.5622Y-9.0614
X4.615Y-7.7386
X4.7035Y-3.498
X4.7055Y-2.3488
X4.7055Y-5.0256
X4.7165Y-6.2122
X4.7551Y-3.7969
X4.765Y-4.5669
X4.7661Y-7.6378
X4.8028Y-4.3008
X4.811Y-8.2291
X4.8543Y-6.9006
X4.8657Y-4.5528
X4.9035Y-4.324
X4.9043Y-6.2748
X4.9571Y-3.398
X4.9571Y-3.7303
X4.9657Y-7.0134
X4.9846Y-2.8945
X5.0051Y-4.352
X5.0098Y-7.7508
X5.0106Y-8.2665
X5.0276Y-2.3465
X5.1024Y-4.3984
X5.1083Y-2.4524
X5.1126Y-10.3291
X5.1657Y-5.9008
X5.2035Y-3.0984
X5.2079Y-3.5441
X5.2154Y-4.7488
X5.2165Y-4.9709
X5.2622Y-9.6386
X5.2654Y-8.2291
X5.3059Y-4.7488
X5.3087Y-3.1453
X5.3114Y-9.6008
X5.3138Y-6.2244
X5.3146Y-4.5169
X5.3516Y-4.2929
X5.3587Y-2.3472
X5.3874Y-9.7531
X5.3882Y-4.4913
X5.4071Y-4.9252
X5.4087Y-6.5732
X5.4138Y-5.4161
X5.415Y-6.637
X5.4563Y-2.9543
X5.4594Y-5.8004
X5.5071Y-4.8476
X5.5083Y-3.098
X5.5098Y-11.1673
X5.5126Y-4.7398
X5.5642Y-4.5256
X5.5823Y-4.7984
X5.6051Y-11.2031
X5.6075Y-6.652
X5.615Y-8.2656
X5.652Y-4.348
X5.6571Y-6.172
X5.665Y-5.098
X5.7303Y-2.3945
X5.7512Y-4.3976
X5.7614Y-10.3752
X5.7638Y-4.765
X5.7772Y-2.9693
X5.802Y-3.8492
X5.8031Y-5.3992
X5.8106Y-5.6878
X5.815Y-10.4244
X5.8583Y-4.8657
X5.8614Y-10.3291
X5.9165Y-6.5602
X5.9567Y-2.4
X6.0114Y-4.5445
X6.0567Y-4.6516
X6.0665Y-8.0256
X6.113Y-5.6425
X6.1567Y-5.1268
X6.1831Y-2.9224
X6.1854Y-9.7642
X6.189Y-10.1776
X6.2071Y-6.2992
X6.2594Y-7.0551
X6.263Y-6.2543
X6.2661Y-7.8378
X6.337Y-10.0941
X6.3634Y-3.4961
X6.4374Y-10.1465
X6.4378Y-11.578
X6.4516Y-4.1949
X6.4547Y-3.102
X6.5331Y-5.478
X6.5339Y-4.5039
X6.5567Y-4.1988
X6.5587Y-3.2972
X6.5646Y-6.3386
X6.5661Y-6.6016
X6.5661Y-7.4016
X6.6098Y-10.1654
X6.6591Y-8.0886
X6.689Y-5.3402
X6.7079Y-7.978
X6.7154Y-6.9402
X6.7157Y-8.1882
X6.737Y-10.1815
X6.7543Y-3.5992
X6.7587Y-4.8142
X6.8311Y-5.5764
X6.8354Y-6.513
X6.9094Y-10.3142
X6.9409Y-12.2996
X6.9594Y-10.3646
X6.9854Y-5.8512
X6.9866Y-6.4898
X6.9909Y-12.3992
X7.0059Y-11.7291
X7.0126Y-7.7067
X7.013Y-10.4252
X7.0276Y-2.9803
X7.0327Y-12.4961
X7.0339Y-5.9004
X7.0358Y-6.437
X7.0535Y-1.4972
X7.0539Y-2.6992
X7.0547Y-4.3433
X7.0776Y-2.3472
X7.0799Y-2.0228
X7.0807Y-12.148
X7.0827Y-2.5992
X7.089Y-7.7933
X7.0894Y-10.9472
X7.1071Y-4.3965
X7.1091Y-12.2488
X7.1276Y-1.7228
X7.1319Y-12.3484
X7.1378Y-10.7965
X7.1563Y-12.4484
X7.1567Y-5.6508
X7.1583Y-10.3504
X7.1783Y-1.824
X7.2067Y-1.8969
X7.2067Y-4.5988
X7.2256Y-1.624
X7.2287Y-1.972
X7.2602Y-5.389
X7.261Y-4.3988
X7.278Y-1.6764
X7.278Y-13.1287
X7.2795Y-6.2024
X7.3063Y-4.1984
X7.3067Y-5.7012
X7.3067Y-8.2476
X7.328Y-3.9984
X7.3311Y-6.3039
X7.3528Y-1.574
X7.3555Y-3.2992
X7.3583Y-5.589
X7.3594Y-8.0965
X7.4516Y-1.4744
X7.5835Y-6.0067
X7.6079Y-7.7067
X7.6512Y-12.5488
X7.6535Y-1.9008
X7.6602Y-6.4476
X7.6756Y-12.4484
X7.6862Y-7.7913
X7.7083Y-12.3484
X7.7303Y-12.2484
X7.7319Y-6.0067
X7.7579Y-12.0484
X7.7583Y-2.1728
X7.7602Y-9.3283
X7.7602Y-10.0173
X7.8079Y-1.8236
X7.8559Y-6.4496
X7.8559Y-7.9543
X7.8563Y-6.3528
X7.8587Y-10.4965
X7.8795Y-4.0984
X7.8807Y-2.6012
X7.8866Y-5.3472
X7.9047Y-4.1988
X7.9055Y-1.7736
X7.9528Y-1.574
X7.9535Y-2.5035
X7.9587Y-8.0965
X7.9598Y-4.2988
X7.961Y-7.9378
X7.9622Y-9.0142
X8.0079Y-4.4031
X8.0535Y-2.7035
X8.0543Y-1.6291
X8.0622Y-4.4984
X8.1051Y-4.5992
X8.1051Y-4.7642
X8.1071Y-11.2484
X8.1071Y-11.6972
X8.1071Y-12.5988
X8.1547Y-4.248
X8.1567Y-4.4465
X8.1799Y-10.4567
X8.1799Y-12.728
X8.1807Y-3.2488
X8.1843Y-4.6906
X8.1858Y-2.7508
X8.1882Y-7.6598
X8.1882Y-7.7933
X8.2276Y-5.2984
X8.2307Y-4.752
X8.2358Y-5.1389
X8.2551Y-11.2972
X8.2551Y-12.8039
X8.2587Y-4.4705
X8.2614Y-6.6311
X8.2776Y-3.8988
X8.2882Y-7.7937
X8.3354Y-10.4795
X8.3547Y-10.5492
X8.3602Y-5.1657
X8.3835Y-4.7169
X8.3858Y-10.6504
X8.398Y-2.0732
X8.4059Y-6.3476
X8.4579Y-2.198
X8.4583Y-4.7398
X8.515Y-12.2531
X8.5366Y-8.0965
X8.5575Y-6.9429
X8.5807Y-2.4224
X8.5807Y-3.5028
X8.7551Y-3.6035
X8.8004Y-1.9016
X8.8094Y-8.8307
X8.8535Y-4.0449
X8.8791Y-3.5276
X8.8823Y-6.4484
X8.8823Y-7.7933
X8.9055Y-4.5807
X8.9055Y-4.7437
X8.928Y-1.448
X8.9551Y-5.6925
X8.9559Y-8.7661
X8.9811Y-4.7768
X8.9858Y-6.0874
X9.0039Y-1.4492
X9.0051Y-6.4028
X9.0075Y-4.3528
X9.0087Y-4.5929
X9.0102Y-7.2413
X9.0346Y-9.3402
X9.0559Y-8.9697
X9.0587Y-5.8969
X9.0618Y-7.9831
X9.0819Y-8.8071
X9.0835Y-6.9575
X9.0846Y-7.1165
X9.0866Y-11.7504
X9.1028Y-1.4484
X9.1075Y-4.5689
X9.1079Y-4.2524
X9.1079Y-7.9287
X9.1295Y-2.7512
X9.1339Y-2.4492
X9.1358Y-12.4488
X9.1394Y-8.1965
X9.1398Y-7.4398
X9.1539Y-3.2
X9.1819Y-5.1972
X9.2091Y-3.3969
X9.2102Y-5.7906
X9.228Y-1.5004
X9.2291Y-5.4504
X9.2315Y-6.9917
X9.2335Y-4.3543
X9.2339Y-8.2437
X9.235Y-7.3622
X9.2559Y-5.5516
X9.2587Y-3.5469
X9.2787Y-3.998
X9.2795Y-4.926
X9.2807Y-3.3031
X9.2835Y-9.3079
X9.2846Y-3.6457
X9.302Y-1.4724
X9.3055Y-8.811
X9.3303Y-4.678
X9.3343Y-6.0024
X9.3559Y-6.152
X9.3563Y-5.5307
X9.3575Y-5.0169
X9.3575Y-7.9299
X9.3591Y-5.7669
X9.3815Y-6.7795
X9.3846Y-5.0902
X9.4531Y-1.5252
X9.4571Y-5.3799
X9.4571Y-6.624
X9.4571Y-6.9091
X9.4571Y-8.0949
X9.4571Y-9.2559
X9.4583Y-9.5598
X9.4772Y-1.626
X9.502Y-1.7248
X9.528Y-1.8248
X9.5307Y-5.2661
X9.5319Y-5.8299
X9.5571Y-6.3028
X9.5583Y-5.5421
X9.5591Y-5.2055
X9.5594Y-7.7075
X9.5594Y-8.8866
X9.5594Y-9.1579
X9.5791Y-2.2008
X9.5799Y-1.4764
X9.6063Y-5.5925
X9.6063Y-5.7051
X9.6075Y-6.8299
X9.6366Y-11.7772
X9.6543Y-1.4752
X9.6547Y-2.1748
X9.6587Y-2.4205
X9.678Y-5.8894
X9.6846Y-9.4835
X9.7059Y-5.6535
X9.7087Y-5.5079
X9.7287Y-1.4744
X9.7295Y-2.0768
X9.7327Y-8.1051
X9.7571Y-5.4394
X9.7764Y-1.726
X9.7835Y-6.289
X9.8059Y-5.3051
X9.8272Y-1.6748
X9.8315Y-8.1535
X9.8319Y-6.4024
X9.8563Y-3.5535
X9.8772Y-1.6248
X9.8823Y-9.0299
X9.8827Y-8.7106
X9.8854Y-8.337
X9.9075Y-5.0913
X9.9287Y-1.5732
X9.9335Y-8.5043
X9.9815Y-8.6051
X9.9823Y-8.4543
X10.0114Y-7.339
X10.0339Y-6.2685
X10.0343Y-5.8909
X10.0594Y-9.2567
X10.0783Y-13.2016
X10.1059Y-5.7059
X10.1079Y-4.7669
X10.1091Y-6.3406
X10.1098Y-7.4539
X10.1264Y-2.1236
X10.1283Y-3.1012
X10.1287Y-2.752
X10.1311Y-8.9823
X10.1315Y-2.302
X10.1343Y-2.9469
X10.1559Y-5.0791
X10.1579Y-6.6382
X10.1598Y-8.1358
X10.178Y-2.578
X10.1791Y-1.6508
X10.1807Y-1.7256
X10.1815Y-2.8976
X10.1835Y-2.6969
X10.2039Y-1.8516
X10.2091Y-8.2878
X10.2098Y-7.39
X10.211Y-11.878
X10.2114Y-5.9287
X10.2268Y-2.1492
X10.2547Y-1.7535
X10.2547Y-4.9031
X10.261Y-3.5957
X10.278Y-2.6768
X10.3051Y-5.0039
X10.3063Y-5.7661
X10.3067Y-5.9654
X10.3071Y-1.8055
X10.3071Y-5.1386
X10.3071Y-7.1551
X10.3528Y-1.898
X10.3547Y-8.8335
X10.3555Y-5.6531
X10.3555Y-8.089
X10.3602Y-7.8071
X10.3791Y-5.0028
X10.4024Y-2.3272
X10.4059Y-7.3543
X10.4063Y-4.9165
X10.4063Y-6.4902
X10.4291Y-4.678
X10.4295Y-4.524
X10.4524Y-2.222
X10.4575Y-6.3024
X10.5008Y-2.3008
X10.5043Y-5.6594
X10.5047Y-8.3406
X10.552Y-2.2004
X10.5551Y-4.5303
X10.5583Y-3.1988
X10.6028Y-4.4528
X10.6047Y-3.8272
X10.6055Y-2.9972
X10.6059Y-6.4559
X10.6075Y-5.9693
X10.6512Y-3.1512
X10.6535Y-4.5039
X10.6547Y-7.4579
X10.6551Y-8.6051
X10.6575Y-6.2791
X10.6583Y-6.9795
X10.6598Y-7.8035
X10.6811Y-6.5886
X10.6854Y-7.515
X10.702Y-3.1024
X10.7031Y-3.4768
X10.7039Y-4.8012
X10.7055Y-8.8287
X10.7303Y-6.5539
X10.7307Y-7.9571
X10.7492Y-3.0472
X10.7531Y-5.7933
X10.7543Y-4.0457
X10.7547Y-8.6874
X10.7563Y-4.6437
X10.7791Y-5.0303
X10.7803Y-5.9051
X10.7827Y-7.5413
X10.8024Y-3.2531
X10.8031Y-6.1319
X10.8047Y-4.2492
X10.8083Y-8.413
X10.8303Y-7.8571
X10.8547Y-5.8917
X10.8555Y-6.8327
X10.8819Y-8.0681
X10.8831Y-7.3787
X10.9035Y-3.3031
X10.9051Y-4.5949
X10.9276Y-7.2811
X10.9299Y-6.0051
X10.9303Y-5.7319
X10.9307Y-6.4654
X10.9516Y-5.1949
X10.9547Y-6.2039
X10.9559Y-8.8583
X10.9563Y-3.5465
X10.9571Y-8.5299
X11.0024Y-2.0748
X11.0039Y-4.6528
X11.0051Y-8.9571
X11.0067Y-6.739
X11.0496Y-1.8516
X11.0531Y-4.4772
X11.0531Y-5.6928
X11.0555Y-6.4909
X11.0744Y-1.4709
X11.0807Y-11.0957
X11.0815Y-13.1374
X11.1035Y-2.0516
X11.1035Y-5.5571
X11.1055Y-3.824
X11.1059Y-7.052
X11.1524Y-5.7043
X11.1543Y-4.4283
X11.1551Y-6.5307
X11.1563Y-9.2567
X11.2035Y-2.0272
X11.2531Y-8.0343
X11.2547Y-7.2307
X11.2559Y-8.8157
X11.3008Y-2.002
X11.302Y-4.6791
X11.3043Y-4.3476
X11.3256Y-1.4752
X11.328Y-6.6575
X11.3539Y-4.0008
X11.3575Y-8.0176
X11.4008Y-1.974
X11.4008Y-8.992
X11.4051Y-3.8276
X11.4051Y-7.5449
X11.4063Y-6.6654
X11.4063Y-7.3646
X11.4528Y-5.3039
X11.4547Y-4.1539
X11.4559Y-8.8055
X11.4575Y-7.4936
X11.4756Y-1.5004
X11.5035Y-1.9524
X11.5039Y-5.7177
X11.5055Y-8.7567
X11.5268Y-1.5496
X11.5547Y-6.2791
X11.5555Y-7.8079
X11.5567Y-4.7031
X11.5571Y-7.0059
X11.574Y-1.6004
X11.5787Y-8.2063
X11.6024Y-4.8295
X11.6039Y-1.926
X11.6047Y-5.8583
X11.6063Y-8.9913
X11.6244Y-1.6496
X11.6291Y-13.0799
X11.6299Y-6.4181
X11.6315Y-7.0618
X11.652Y-5.1445
X11.6524Y-2.648
X11.6535Y-5.6791
X11.6547Y-7.9823
X11.6547Y-9.3583
X11.6551Y-7.9083
X11.6551Y-8.3941
X11.6752Y-1.7
X11.7012Y-1.8992
X11.7039Y-4.4028
X11.7047Y-5.6283
X11.7051Y-5.7319
X11.7059Y-6.9307
X11.7268Y-1.7492
X11.7291Y-6.0039
X11.7295Y-6.0669
X11.7307Y-6.7898
X11.7307Y-8.1531
X11.7579Y-8.5563
X11.776Y-1.6992
X11.8016Y-2.1516
X11.8055Y-9.4102
X11.8307Y-7.9563
X11.8311Y-5.8665
X11.8783Y-8.3311
X11.8795Y-7.6079
X11.8795Y-8.0839
X11.8815Y-9.3398
X11.9012Y-5.6689
X11.9016Y-4.952
X11.9035Y-5.9896
X11.9039Y-6.4591
X11.9291Y-6.7055
X11.9295Y-7.468
X11.9528Y-4.4217
X11.9528Y-5.7205
X11.9551Y-8.5563
X11.9583Y-6.9307
X11.9583Y-7.7303
X11.972Y-1.402
X12.0024Y-5.0016
X12.0083Y-6.6823
X12.0547Y-4.4531
X12.1043Y-7.4835
X12.1555Y-5.8811
X12.1567Y-8.3193
X12.1575Y-8.0055
X12.2008Y-5.6823
X12.2035Y-4.2268
X12.2075Y-3.5724
X12.2079Y-6.642
X12.2287Y-7.3559
X12.2551Y-4.7307
X12.2567Y-9.2567
X12.2575Y-8.0799
X12.298Y-13.2783
X12.3008Y-12.6283
X12.3039Y-2.2268
X12.3043Y-3.8028
X12.3059Y-8.3067
X12.3063Y-8.8711
X12.3071Y-6.6354
X12.3543Y-5.7815
X12.3547Y-4.6949
X12.3563Y-7.3366
X12.3803Y-3.8772
X12.4295Y-5.9063
X12.4299Y-3.3732
X12.4539Y-7.4831
X12.4539Y-8.8028
X12.4543Y-6.6311
X12.4787Y-4.9201
X12.4795Y-3.7539
X12.4799Y-11.7583
X12.5051Y-5.6644
X12.5543Y-5.3039
X12.5555Y-2.7
X12.5555Y-6.2791
X12.5563Y-6.5551
X12.5575Y-7.0059
X12.5791Y-5.5665
X12.6028Y-4.6689
X12.6535Y-6.2039
X12.6539Y-7.3362
X12.6543Y-2.4039
X12.6543Y-6.5039
X12.6543Y-7.6618
X12.6563Y-6.8315
X12.6571Y-8.2449
X12.7047Y-3.7535
X12.7051Y-4.3976
X12.7539Y-5.0654
X12.7547Y-4.6276
X12.7547Y-5.2024
X12.7547Y-8.4811
X12.7551Y-5.9398
X12.7555Y-7.5866
X12.7559Y-7.0059
X12.7563Y-6.4031
X12.7583Y-4.4531
X12.8031Y-8.1319
X12.8089Y-4.3592
X12.8315Y-7.9906
X12.8331Y-7.3114
X12.8535Y-4.8063
X12.8539Y-8.7916
X12.8547Y-6.3555
X12.8551Y-5.7323
X12.8579Y-7.0807
X12.8579Y-7.8933
X12.8768Y-6.6106
X12.8815Y-11.8563
X12.9035Y-4.4539
X12.9039Y-7.9606
X12.9063Y-8.1406
X12.9087Y-3.5028
X12.9547Y-4.4051
X12.9567Y-9.0583
X12.9764Y-7.4748
X12.9795Y-6.7295
X13.0024Y-6.3906
X13.0051Y-6.6551
X13.0063Y-3.1988
X13.0303Y-3.8776
X13.0535Y-4.4445
X13.0539Y-5.1787
X13.0543Y-6.4909
X13.0567Y-8.2878
X13.1018Y-7.3048
X13.1039Y-2.152
X13.1079Y-4.3516
X13.1539Y-4.5043
X13.2043Y-8.1591
X13.2063Y-4.9559
X13.2543Y-6.4551
X13.2559Y-8.1929
X13.2583Y-4.4772
X13.2835Y-8.6331
X13.3028Y-2.9559
X13.3272Y-3.5524
X13.3516Y-1.7988
X13.3555Y-7.2831
X13.3555Y-7.4232
X13.3559Y-4.6189
X13.3575Y-6.7472
X13.3764Y-6.0961
X13.4016Y-8.5563
X13.4539Y-8.8445
X13.4559Y-7.3928
X13.4575Y-4.6772
X13.5028Y-6.6039
X13.5039Y-5.1035
X13.5559Y-7.4886
X13.5567Y-8.3059
X13.5776Y-11.8228
X13.6028Y-5.3984
X13.6035Y-5.8354
X13.6272Y-8.9839
X13.6531Y-4.5795
X13.6583Y-3.102
X13.6795Y-9.0567
X13.7024Y-3.3012
X13.7028Y-4.9772
X13.7031Y-5.7421
X13.7039Y-5.4039
X13.7114Y-4.2224
X13.7276Y-9.2579
X13.7524Y-7.1087
X13.7528Y-4.5154
X13.7543Y-6.7398
X13.7567Y-7.7075
X13.8031Y-4.5799
X13.8063Y-6.6941
X13.8512Y-4.4642
X13.9059Y-3.602
X13.9504Y-3.1012
X13.952Y-4.6299
X13.9543Y-7.4118
X14.0016Y-4.7232
X14.0327Y-3.5
X14.052Y-4.6689
X14.0535Y-5.974
X14.0543Y-5.1787
X14.1043Y-6.5449
X14.1051Y-7.1638
X14.1508Y-4.5961
X14.1524Y-5.7311
X14.1768Y-3.5035
X14.1886Y-4.1031
X14.2004Y-5.6795
X14.2012Y-8.8157
X14.2047Y-7.2362
X14.2339Y-3.402
X14.2496Y-5.5461
X14.2508Y-5.8079
X14.3028Y-5.8815
X14.4008Y-3.0508
X14.4012Y-7.3087
X14.4031Y-6.6437
X14.452Y-3.0
X14.4528Y-4.1031
X14.4539Y-6.7075
X14.5244Y-9.3382
X14.578Y-9.2811
X14.5783Y-9.3827
X14.628Y-9.4177
X14.8744Y-5.8925
X14.9024Y-4.8311
X14.9504Y-5.9421
X14.9512Y-1.9591
X14.9787Y-4.8303
X15.0008Y-2.0055
X15.0028Y-4.5075
X15.0043Y-6.0197
X15.0528Y-4.4531
X15.0705Y-7.8965
X15.0717Y-8.6331
X15.1016Y-5.9457
X15.1024Y-4.5051
X15.122Y-7.4075
X15.1224Y-6.3551
X15.1244Y-5.8681
T2
X6.4913Y-12.9965
X6.8081Y-10.375
T3
X14.8756Y-5.374
T4
X3.9906Y-8.0382
X3.9906Y-8.187
X3.9921Y-7.7382
X4.0118Y-12.102
X4.0118Y-12.3
X4.0118Y-12.4969
X4.3567Y-3.2953
X4.3567Y-3.4976
X4.3567Y-3.6965
X4.3921Y-7.7382
X4.4906Y-8.0382
X4.4906Y-8.187
X4.5118Y-12.102
X4.5118Y-12.3
X4.5118Y-12.4969
X4.8567Y-3.2953
X4.8567Y-3.4976
X4.8567Y-3.6965
X4.8811Y-11.498
X4.8811Y-11.6476
X4.8811Y-11.7996
X4.8811Y-11.9484
X4.8811Y-12.0984
X4.8811Y-12.25
X5.1583Y-3.0169
X5.1673Y-7.1862
X5.1673Y-7.6862
X5.3665Y-7.2862
X5.3665Y-7.6862
X5.3811Y-11.498
X5.3811Y-11.6476
X5.3811Y-11.7996
X5.3811Y-11.9484
X5.3811Y-12.0984
X5.3811Y-12.25
X5.4638Y-6.385
X5.4638Y-6.885
X5.5685Y-7.1862
X5.5685Y-7.6862
X5.6583Y-3.0169
X5.6626Y-6.385
X5.6626Y-6.885
X5.7677Y-7.1862
X5.7677Y-7.6862
X6.0579Y-10.9972
X6.0579Y-11.4972
X6.063Y-6.385
X6.063Y-6.885
X6.1646Y-7.1931
X6.1646Y-7.6931
X6.2638Y-4.6909
X6.2638Y-5.1909
X6.363Y-7.1931
X6.363Y-7.6931
X6.4626Y-4.6909
X6.4626Y-5.1909
X6.663Y-4.6909
X6.663Y-5.1909
X6.7063Y-10.9969
X6.7063Y-11.4969
X6.7606Y-5.6878
X6.7606Y-6.1878
X6.8071Y-11.8504
X6.8071Y-12.3504
X6.8602Y-4.6909
X6.8602Y-5.1909
X6.9126Y-5.6878
X6.9126Y-6.1878
X7.0323Y-10.6457
X7.0323Y-11.1457
X7.3744Y-12.9071
X7.3744Y-13.1012
X7.8744Y-12.9071
X7.8744Y-13.1012
X8.0012Y-12.9071
X8.0012Y-13.1012
X8.1063Y-2.0008
X8.1063Y-2.1496
X8.2067Y-10.0217
X8.5012Y-12.9071
X8.5012Y-13.1012
X8.6063Y-2.0008
X8.6063Y-2.1496
X8.7063Y-2.0008
X8.7063Y-2.1496
X8.7067Y-10.0217
X8.7559Y-11.2484
X8.7559Y-11.7484
X8.9543Y-11.2484
X8.9543Y-11.7484
X9.0047Y-12.2551
X9.0047Y-12.7551
X9.2063Y-2.0008
X9.2063Y-2.1496
X9.6079Y-10.1965
X9.6079Y-10.3209
X9.6079Y-10.4705
X9.6079Y-10.8701
X9.6079Y-10.9953
X9.6299Y-12.0512
X9.6299Y-12.1768
X9.6382Y-12.6976
X9.6382Y-12.8268
X9.7382Y-12.9528
X9.7382Y-13.0787
X10.0594Y-8.0425
X10.1079Y-10.1965
X10.1079Y-10.3209
X10.1079Y-10.4705
X10.1079Y-10.8701
X10.1079Y-10.9953
X10.1299Y-12.0512
X10.1299Y-12.1768
X10.1382Y-12.6976
X10.1382Y-12.8268
X10.1382Y-12.9528
X10.1382Y-13.0787
X10.3024Y-13.078
X10.3047Y-9.7693
X10.3047Y-12.026
X10.3047Y-12.1268
X10.3047Y-12.2276
X10.3067Y-10.9701
X10.3067Y-11.0732
X10.3067Y-11.1717
X10.5594Y-8.0425
X10.8024Y-13.078
X10.8047Y-9.7693
X10.8047Y-12.026
X10.8047Y-12.1268
X10.8047Y-12.2276
X10.8067Y-10.9701
X10.8067Y-11.0732
X10.8067Y-11.1717
X10.9539Y-10.9709
X10.9539Y-11.0957
X10.9539Y-11.2213
X10.9539Y-11.3496
X10.9539Y-11.4732
X10.9539Y-11.6004
X10.9539Y-11.7244
X10.9539Y-11.848
X10.9539Y-11.974
X10.9539Y-12.124
X10.9539Y-12.2512
X10.9539Y-12.3756
X10.9539Y-12.5
X10.9539Y-12.626
X10.9539Y-12.7764
X10.9539Y-12.9512
X10.9539Y-13.078
X10.9551Y-9.7693
X10.9551Y-9.8945
X10.9551Y-10.0197
X10.9551Y-10.1449
X10.9551Y-10.2701
X10.9551Y-10.398
X10.9551Y-10.5209
X11.0547Y-7.4406
X11.4539Y-10.9709
X11.4539Y-11.0957
X11.4539Y-11.2213
X11.4539Y-11.3496
X11.4539Y-11.4732
X11.4539Y-11.6004
X11.4539Y-11.7244
X11.4539Y-11.848
X11.4539Y-11.974
X11.4539Y-12.124
X11.4539Y-12.2512
X11.4539Y-12.3756
X11.4539Y-12.5
X11.4539Y-12.626
X11.4539Y-12.7764
X11.4539Y-12.9512
X11.4539Y-13.078
X11.4551Y-9.7693
X11.4551Y-9.8945
X11.4551Y-10.0197
X11.4551Y-10.1449
X11.4551Y-10.2701
X11.4551Y-10.398
X11.4551Y-10.5209
X11.5547Y-7.4406
X11.6291Y-11.1984
X11.6291Y-11.6984
X11.6311Y-10.1217
X11.6311Y-10.6217
X11.6311Y-10.998
X11.7055Y-7.4406
X11.778Y-11.1984
X11.778Y-11.6984
X11.9035Y-2.9996
X11.9035Y-3.1961
X12.0008Y-12.4996
X12.0008Y-12.6268
X12.0008Y-12.9024
X12.0008Y-13.0307
X12.0008Y-13.1531
X12.0016Y-12.378
X12.0307Y-9.7701
X12.0307Y-9.8965
X12.0307Y-10.4232
X12.0307Y-10.5476
X12.0307Y-10.698
X12.1311Y-10.998
X12.1555Y-10.8484
X12.2055Y-7.4406
X12.4035Y-2.9996
X12.4035Y-3.1961
X12.5008Y-12.4996
X12.5008Y-12.6268
X12.5008Y-12.9024
X12.5008Y-13.0307
X12.5008Y-13.1531
X12.5016Y-12.378
X12.5307Y-9.7701
X12.5307Y-9.8965
X12.5307Y-10.4232
X12.5307Y-10.5476
X12.5307Y-10.698
X12.6244Y-12.8287
X12.6555Y-10.8484
X12.6598Y-3.2
X12.8528Y-6.1941
X12.9028Y-10.602
X12.9028Y-11.102
X13.0016Y-8.0925
X13.0303Y-9.8709
X13.0567Y-8.8921
X13.1244Y-12.8287
X13.1598Y-3.2
X13.248Y-12.9524
X13.2528Y-6.1941
X13.4539Y-5.9945
X13.4539Y-6.1941
X13.4795Y-10.5949
X13.4795Y-11.0949
X13.5016Y-8.0925
X13.5303Y-9.8709
X13.5535Y-2.0563
X13.5535Y-2.4039
X13.5567Y-8.8921
X13.748Y-12.9524
X13.8539Y-5.9945
X13.8539Y-6.1941
X14.0051Y-8.0933
X14.0051Y-8.2437
X14.0535Y-2.0563
X14.0535Y-2.4039
X14.1764Y-13.1039
X14.5051Y-8.0933
X14.5051Y-8.2437
X14.6764Y-13.1039
T5
X3.8598Y-10.3925
X3.9563Y-3.7917
X3.9563Y-4.1917
X3.9583Y-10.6984
X3.9583Y-11.2984
X3.9594Y-2.4472
X3.9594Y-2.8472
X3.9598Y-2.9949
X3.9598Y-3.4949
X4.0583Y-10.6984
X4.0583Y-11.2984
X4.1547Y-3.8961
X4.1547Y-4.1961
X4.1563Y-2.4984
X4.1563Y-2.7984
X4.1583Y-10.6984
X4.1583Y-11.2984
X4.1649Y-4.8916
X4.1649Y-5.2916
X4.2547Y-3.8961
X4.2547Y-4.1961
X4.2563Y-2.4984
X4.2563Y-2.7984
X4.2583Y-10.6984
X4.2583Y-11.2984
X4.2598Y-10.3925
X4.3547Y-3.8961
X4.3547Y-4.1961
X4.3563Y-2.4984
X4.3563Y-2.7984
X4.3567Y-3.0925
X4.3583Y-10.6984
X4.3583Y-11.2984
X4.365Y-5.7937
X4.365Y-6.0937
X4.365Y-7.1902
X4.365Y-7.4902
X4.3654Y-4.6917
X4.3654Y-5.2917
X4.4547Y-3.8961
X4.4547Y-4.1961
X4.4563Y-2.4984
X4.4563Y-2.7984
X4.4583Y-10.6984
X4.4583Y-11.2984
X4.465Y-5.7937
X4.465Y-6.0937
X4.465Y-7.1902
X4.465Y-7.4902
X4.4654Y-4.6917
X4.4654Y-5.2917
X4.5547Y-3.8961
X4.5547Y-4.1961
X4.5563Y-2.4984
X4.5563Y-2.7984
X4.5583Y-10.6984
X4.5583Y-11.2984
X4.5602Y-9.7953
X4.5602Y-10.0953
X4.565Y-5.7937
X4.565Y-6.0937
X4.565Y-7.1902
X4.565Y-7.4902
X4.5654Y-4.6917
X4.5654Y-5.2917
X4.6547Y-3.8961
X4.6547Y-4.1961
X4.6563Y-2.4984
X4.6563Y-2.7984
X4.6583Y-10.6984
X4.6583Y-11.2984
X4.6602Y-9.7953
X4.6602Y-10.0953
X4.665Y-5.7937
X4.665Y-6.0937
X4.665Y-7.1902
X4.665Y-7.4902
X4.6654Y-4.6917
X4.6654Y-5.2917
X4.7547Y-3.8961
X4.7547Y-4.1961
X4.7563Y-2.4984
X4.7563Y-2.7984
X4.7583Y-10.6984
X4.7583Y-11.2984
X4.7602Y-9.7953
X4.7602Y-10.0953
X4.765Y-5.7937
X4.765Y-6.0937
X4.765Y-7.1902
X4.765Y-7.4902
X4.7654Y-4.6917
X4.7654Y-5.2917
X4.8547Y-3.8961
X4.8547Y-4.1961
X4.8567Y-3.0925
X4.8583Y-10.6984
X4.8583Y-11.2984
X4.8602Y-9.7953
X4.8602Y-10.0953
X4.865Y-5.7937
X4.865Y-6.0937
X4.865Y-7.1902
X4.865Y-7.4902
X4.8654Y-4.6917
X4.8654Y-5.2917
X4.9583Y-10.6984
X4.9583Y-11.2984
X4.9602Y-9.7953
X4.9602Y-10.0953
X4.965Y-5.7937
X4.965Y-6.0937
X4.965Y-7.1902
X4.965Y-7.4902
X4.9654Y-4.6917
X4.9654Y-5.2917
X5.0516Y-3.8965
X5.0516Y-4.1965
X5.0579Y-3.1992
X5.0579Y-3.4992
X5.0583Y-10.6984
X5.0583Y-11.2984
X5.0587Y-2.4969
X5.0587Y-2.7969
X5.0602Y-9.7953
X5.0602Y-10.0953
X5.0654Y-4.6917
X5.0654Y-5.2917
X5.1516Y-3.8965
X5.1516Y-4.1965
X5.1565Y-3.7293
X5.1579Y-3.1992
X5.1579Y-3.4992
X5.1583Y-10.6984
X5.1583Y-11.2984
X5.1587Y-2.4969
X5.1587Y-2.7969
X5.1602Y-9.7953
X5.1602Y-10.0953
X5.1626Y-8.8709
X5.1626Y-9.0709
X5.1634Y-8.0425
X5.1638Y-5.6882
X5.1638Y-6.0882
X5.1654Y-4.6917
X5.1654Y-5.2917
X5.1654Y-6.3882
X5.1654Y-6.7882
X5.2516Y-3.8965
X5.2516Y-4.1965
X5.2579Y-3.1992
X5.2579Y-3.4992
X5.2583Y-10.6984
X5.2583Y-11.2984
X5.2587Y-2.4969
X5.2587Y-2.7969
X5.2654Y-4.6917
X5.2654Y-5.2917
X5.3516Y-3.8965
X5.3516Y-4.1965
X5.3579Y-3.1992
X5.3579Y-3.4992
X5.3583Y-10.6984
X5.3583Y-11.2984
X5.3587Y-2.4969
X5.3587Y-2.7969
X5.3634Y-8.0425
X5.3654Y-4.6917
X5.3654Y-5.2917
X5.4516Y-3.8965
X5.4516Y-4.1965
X5.4579Y-3.1992
X5.4579Y-3.4992
X5.4583Y-10.6984
X5.4583Y-11.2984
X5.4587Y-2.4969
X5.4587Y-2.7969
X5.461Y-9.7937
X5.461Y-10.0937
X5.4654Y-4.6917
X5.4654Y-5.2917
X5.5516Y-3.8965
X5.5516Y-4.1965
X5.5579Y-3.1992
X5.5579Y-3.4992
X5.5583Y-10.6984
X5.5583Y-11.2984
X5.5587Y-2.4969
X5.5587Y-2.7969
X5.561Y-9.7937
X5.561Y-10.0937
X5.5654Y-4.6917
X5.5654Y-5.2917
X5.5657Y-8.0445
X5.6516Y-3.8965
X5.6516Y-4.1965
X5.6565Y-3.7293
X5.6579Y-3.1992
X5.6579Y-3.4992
X5.6583Y-10.6984
X5.6583Y-11.2984
X5.6587Y-2.4969
X5.6587Y-2.7969
X5.661Y-9.7937
X5.661Y-10.0937
X5.6654Y-4.6917
X5.6654Y-5.2917
X5.7516Y-3.8965
X5.7516Y-4.1965
X5.7583Y-10.6984
X5.7583Y-11.2984
X5.761Y-9.7937
X5.761Y-10.0937
X5.7618Y-8.8689
X5.7618Y-9.0689
X5.7634Y-5.7945
X5.7634Y-6.0945
X5.7657Y-8.0445
X5.8516Y-3.8965
X5.8516Y-4.1965
X5.8583Y-10.6984
X5.8583Y-11.2984
X5.8594Y-2.4433
X5.8594Y-2.8433
X5.8597Y-3.1424
X5.8597Y-3.5424
X5.861Y-9.7937
X5.861Y-10.0937
X5.8634Y-5.7945
X5.8634Y-6.0945
X5.8638Y-6.385
X5.8638Y-6.885
X5.9051Y-11.6232
X5.9051Y-12.0232
X5.9516Y-3.8965
X5.9516Y-4.1965
X5.961Y-9.7937
X5.961Y-10.0937
X5.9634Y-5.7945
X5.9634Y-6.0945
X6.061Y-9.7937
X6.061Y-10.0937
X6.0634Y-5.7945
X6.0634Y-6.0945
X6.128Y-3.7937
X6.128Y-4.1937
X6.1575Y-11.6996
X6.1575Y-11.9996
X6.1634Y-5.7945
X6.1634Y-6.0945
X6.2075Y-10.5417
X6.2075Y-10.7417
X6.2571Y-11.0988
X6.2571Y-11.4988
X6.2575Y-11.6996
X6.2575Y-11.9996
X6.2606Y-6.4917
X6.2634Y-5.7945
X6.2634Y-6.0945
X6.3539Y-12.1787
X6.3539Y-12.3787
X6.3575Y-8.8669
X6.3575Y-9.0669
X6.3575Y-11.6996
X6.3575Y-11.9996
X6.3606Y-6.3917
X6.3606Y-6.5917
X6.3634Y-5.7945
X6.3634Y-6.0945
X6.4575Y-11.6996
X6.4575Y-11.9996
X6.5067Y-10.9969
X6.5067Y-11.4969
X6.6134Y-5.6878
X6.6134Y-6.1878
X6.8591Y-6.6906
X6.8591Y-7.9882
X6.8591Y-8.0882
X6.8591Y-8.1882
X6.8591Y-8.2882
X6.8591Y-8.3882
X6.8591Y-8.4882
X6.8591Y-8.5882
X6.8591Y-8.6882
X6.861Y-6.8886
X6.861Y-6.9886
X6.861Y-7.0886
X6.861Y-7.1886
X6.861Y-7.2886
X6.861Y-7.3886
X6.861Y-7.4886
X6.861Y-7.5886
X6.863Y-7.7937
X7.1591Y-7.9882
X7.1591Y-8.0882
X7.1591Y-8.1882
X7.1591Y-8.2882
X7.1591Y-8.3882
X7.1591Y-8.4882
X7.1591Y-8.5882
X7.1591Y-8.6882
X7.161Y-6.8886
X7.161Y-6.9886
X7.161Y-7.0886
X7.161Y-7.1886
X7.161Y-7.2886
X7.161Y-7.3886
X7.161Y-7.4886
X7.161Y-7.5886
X7.1642Y-5.8909
X7.1642Y-6.0909
X7.2063Y-11.6484
X7.2079Y-10.4457
X7.2571Y-10.6453
X7.2571Y-10.7453
X7.2571Y-10.8453
X7.2571Y-10.9453
X7.2571Y-11.0453
X7.2571Y-11.1453
X7.2571Y-11.2453
X7.2571Y-11.3453
X7.2571Y-11.4453
X7.2571Y-11.8484
X7.2571Y-11.9484
X7.2571Y-12.0484
X7.2571Y-12.1484
X7.2571Y-12.2484
X7.2571Y-12.3484
X7.2571Y-12.4484
X7.2571Y-12.5484
X7.2571Y-12.6484
X7.2591Y-6.6906
X7.263Y-7.7937
X7.4547Y-6.8886
X7.4547Y-6.9886
X7.4547Y-7.0886
X7.4547Y-7.1886
X7.4547Y-7.2886
X7.4547Y-7.3886
X7.4547Y-7.4886
X7.4547Y-7.5886
X7.4547Y-7.9965
X7.4547Y-8.0965
X7.4547Y-8.1965
X7.4547Y-8.2965
X7.4547Y-8.3965
X7.4547Y-8.4965
X7.4547Y-8.5965
X7.4547Y-8.6965
X7.4577Y-2.4992
X7.4577Y-2.5992
X7.4577Y-2.6992
X7.4577Y-2.7992
X7.4577Y-2.8992
X7.4577Y-2.9992
X7.4577Y-3.0992
X7.4577Y-3.1992
X7.4577Y-3.2992
X7.4577Y-3.3992
X7.4577Y-3.7986
X7.4577Y-3.8986
X7.4577Y-3.9986
X7.4577Y-4.0986
X7.4577Y-4.1986
X7.4577Y-4.2986
X7.4577Y-4.3986
X7.4577Y-4.4986
X7.4577Y-4.5986
X7.4577Y-4.6986
X7.4587Y-6.6878
X7.4622Y-7.7921
X7.5102Y-5.1476
X7.5102Y-5.2476
X7.5102Y-5.3476
X7.5102Y-5.4476
X7.5102Y-5.5476
X7.5102Y-5.6476
X7.5102Y-5.7476
X7.5102Y-5.8476
X7.5102Y-5.9476
X7.5102Y-6.0476
X7.5102Y-6.1476
X7.5102Y-6.2476
X7.5102Y-6.3476
X7.5102Y-6.4476
X7.5106Y-4.9417
X7.5571Y-10.6453
X7.5571Y-10.7453
X7.5571Y-10.8453
X7.5571Y-10.9453
X7.5571Y-11.0453
X7.5571Y-11.1453
X7.5571Y-11.2453
X7.5571Y-11.3453
X7.5571Y-11.4453
X7.5571Y-11.8484
X7.5571Y-11.9484
X7.5571Y-12.0484
X7.5571Y-12.1484
X7.5571Y-12.2484
X7.5571Y-12.3484
X7.5571Y-12.4484
X7.5571Y-12.5484
X7.5571Y-12.6484
X7.6063Y-11.6484
X7.6079Y-10.4457
X7.7547Y-6.8886
X7.7547Y-6.9886
X7.7547Y-7.0886
X7.7547Y-7.1886
X7.7547Y-7.2886
X7.7547Y-7.3886
X7.7547Y-7.4886
X7.7547Y-7.5886
X7.7547Y-7.9965
X7.7547Y-8.0965
X7.7547Y-8.1965
X7.7547Y-8.2965
X7.7547Y-8.3965
X7.7547Y-8.4965
X7.7547Y-8.5965
X7.7547Y-8.6965
X7.7577Y-2.4992
X7.7577Y-2.5992
X7.7577Y-2.6992
X7.7577Y-2.7992
X7.7577Y-2.8992
X7.7577Y-2.9992
X7.7577Y-3.0992
X7.7577Y-3.1992
X7.7577Y-3.2992
X7.7577Y-3.3992
X7.7577Y-3.7986
X7.7577Y-3.8986
X7.7577Y-3.9986
X7.7577Y-4.0986
X7.7577Y-4.1986
X7.7577Y-4.2986
X7.7577Y-4.3986
X7.7577Y-4.4986
X7.7577Y-4.5986
X7.7577Y-4.6986
X7.8559Y-10.5972
X7.8559Y-10.6972
X7.8559Y-10.7972
X7.8559Y-10.8972
X7.8559Y-10.9972
X7.8559Y-11.0972
X7.8559Y-11.1972
X7.8559Y-11.2972
X7.8559Y-11.3972
X7.8559Y-11.4972
X7.8559Y-11.5972
X7.8559Y-11.6972
X7.8559Y-11.7972
X7.8559Y-11.8972
X7.8559Y-11.9972
X7.8559Y-12.0972
X7.8559Y-12.1972
X7.8559Y-12.2972
X7.8559Y-12.3972
X7.8559Y-12.4972
X7.8587Y-6.6878
X7.8622Y-7.7921
X7.9106Y-4.9417
X8.0514Y-6.8886
X8.0514Y-6.9886
X8.0514Y-7.0886
X8.0514Y-7.1886
X8.0514Y-7.2886
X8.0514Y-7.3886
X8.0514Y-7.4886
X8.0514Y-7.5886
X8.0514Y-7.9965
X8.0514Y-8.0965
X8.0514Y-8.1965
X8.0514Y-8.2965
X8.0514Y-8.3965
X8.0514Y-8.4965
X8.0514Y-8.5965
X8.0514Y-8.6965
X8.0594Y-6.6878
X8.0602Y-7.7937
X8.1102Y-5.1476
X8.1102Y-5.2476
X8.1102Y-5.3476
X8.1102Y-5.4476
X8.1102Y-5.5476
X8.1102Y-5.6476
X8.1102Y-5.7476
X8.1102Y-5.8476
X8.1102Y-5.9476
X8.1102Y-6.0476
X8.1102Y-6.1476
X8.1102Y-6.2476
X8.1102Y-6.3476
X8.1102Y-6.4476
X8.1339Y-10.3445
X8.3514Y-6.8886
X8.3514Y-6.9886
X8.3514Y-7.0886
X8.3514Y-7.1886
X8.3514Y-7.2886
X8.3514Y-7.3886
X8.3514Y-7.4886
X8.3514Y-7.5886
X8.3514Y-7.9965
X8.3514Y-8.0965
X8.3514Y-8.1965
X8.3514Y-8.2965
X8.3514Y-8.3965
X8.3514Y-8.4965
X8.3514Y-8.5965
X8.3514Y-8.6965
X8.3535Y-2.5035
X8.3535Y-2.6035
X8.3535Y-2.7035
X8.3535Y-2.8035
X8.3535Y-2.9035
X8.3535Y-3.0035
X8.3535Y-3.1035
X8.3535Y-3.2035
X8.3535Y-3.3035
X8.3535Y-3.4035
X8.3535Y-3.5035
X8.3535Y-3.6035
X8.3535Y-3.7035
X8.3535Y-3.8035
X8.3535Y-3.9035
X8.3535Y-4.0035
X8.3535Y-4.1035
X8.3535Y-4.2035
X8.3535Y-4.3035
X8.3535Y-4.4035
X8.3591Y-4.5917
X8.4559Y-10.5972
X8.4559Y-10.6972
X8.4559Y-10.7972
X8.4559Y-10.8972
X8.4559Y-10.9972
X8.4559Y-11.0972
X8.4559Y-11.1972
X8.4559Y-11.2972
X8.4559Y-11.3972
X8.4559Y-11.4972
X8.4559Y-11.5972
X8.4559Y-11.6972
X8.4559Y-11.7972
X8.4559Y-11.8972
X8.4559Y-11.9972
X8.4559Y-12.0972
X8.4559Y-12.1972
X8.4559Y-12.2972
X8.4559Y-12.3972
X8.4559Y-12.4972
X8.4594Y-6.6878
X8.4602Y-7.7937
X8.5031Y-5.1476
X8.5031Y-5.2476
X8.5031Y-5.3476
X8.5031Y-5.4476
X8.5031Y-5.5476
X8.5031Y-5.6476
X8.5031Y-5.7476
X8.5031Y-5.8476
X8.5031Y-5.9476
X8.5031Y-6.0476
X8.5031Y-6.1476
X8.5031Y-6.2476
X8.5031Y-6.3476
X8.5031Y-6.4476
X8.5063Y-4.9496
X8.5339Y-10.3445
X8.5598Y-8.9406
X8.5598Y-9.1406
X8.6299Y-12.0472
X8.652Y-13.0539
X8.6575Y-6.8886
X8.6575Y-6.9886
X8.6575Y-7.0886
X8.6575Y-7.1886
X8.6575Y-7.2886
X8.6575Y-7.3886
X8.6575Y-7.4886
X8.6575Y-7.5886
X8.6575Y-7.9965
X8.6575Y-8.0965
X8.6575Y-8.1965
X8.6575Y-8.2965
X8.6575Y-8.3965
X8.6575Y-8.4965
X8.6575Y-8.5965
X8.6575Y-8.6965
X8.6598Y-6.6866
X8.6606Y-7.7933
X8.7299Y-11.9472
X8.752Y-12.9539
X8.7555Y-10.5965
X8.7555Y-11.0965
X8.7591Y-4.5917
X8.7602Y-10.3685
X8.8299Y-12.0472
X8.852Y-13.0539
X8.9063Y-4.9496
X8.9535Y-2.5035
X8.9535Y-2.6035
X8.9535Y-2.7035
X8.9535Y-2.8035
X8.9535Y-2.9035
X8.9535Y-3.0035
X8.9535Y-3.1035
X8.9535Y-3.2035
X8.9535Y-3.3035
X8.9535Y-3.4035
X8.9535Y-3.5035
X8.9535Y-3.6035
X8.9535Y-3.7035
X8.9535Y-3.8035
X8.9535Y-3.9035
X8.9535Y-4.0035
X8.9535Y-4.1035
X8.9535Y-4.2035
X8.9535Y-4.3035
X8.9535Y-4.4035
X8.9543Y-10.5965
X8.9543Y-11.0965
X8.9575Y-6.8886
X8.9575Y-6.9886
X8.9575Y-7.0886
X8.9575Y-7.1886
X8.9575Y-7.2886
X8.9575Y-7.3886
X8.9575Y-7.4886
X8.9575Y-7.5886
X8.9575Y-7.9965
X8.9575Y-8.0965
X8.9575Y-8.1965
X8.9575Y-8.2965
X8.9575Y-8.3965
X8.9575Y-8.4965
X8.9575Y-8.5965
X8.9575Y-8.6965
X8.9602Y-10.3685
X9.0043Y-13.0539
X9.0598Y-6.6866
X9.0606Y-7.7933
X9.1031Y-5.1476
X9.1031Y-5.2476
X9.1031Y-5.3476
X9.1031Y-5.4476
X9.1031Y-5.5476
X9.1031Y-5.6476
X9.1031Y-5.7476
X9.1031Y-5.8476
X9.1031Y-5.9476
X9.1031Y-6.0476
X9.1031Y-6.1476
X9.1031Y-6.2476
X9.1031Y-6.3476
X9.1031Y-6.4476
X9.1043Y-12.9539
X9.2043Y-13.0539
X9.2334Y-12.3282
X9.2334Y-12.7282
X9.2579Y-12.0461
X9.3583Y-7.9949
X9.3583Y-8.0949
X9.3583Y-8.1949
X9.3583Y-8.2949
X9.3583Y-8.3949
X9.3583Y-8.4949
X9.3583Y-8.5949
X9.3583Y-8.6949
X9.3587Y-6.8917
X9.3587Y-6.9917
X9.3587Y-7.0917
X9.3587Y-7.1917
X9.3587Y-7.2917
X9.3587Y-7.3917
X9.3587Y-7.4917
X9.3587Y-7.5917
X9.3588Y-8.8873
X9.4579Y-12.0461
X9.5055Y-11.5972
X9.5055Y-11.7972
X9.5063Y-11.274
X9.5063Y-11.474
X9.5563Y-2.5035
X9.5563Y-2.6035
X9.5563Y-2.7035
X9.5563Y-2.8035
X9.5563Y-2.9035
X9.5563Y-3.0035
X9.5563Y-3.1035
X9.5563Y-3.2035
X9.5563Y-3.3035
X9.5563Y-3.4035
X9.5571Y-3.798
X9.5571Y-3.898
X9.5571Y-3.998
X9.5571Y-4.098
X9.5571Y-4.198
X9.5571Y-4.298
X9.5571Y-4.398
X9.5571Y-4.498
X9.5571Y-4.598
X9.5571Y-4.698
X9.5831Y-12.4177
X9.6079Y-11.1224
X9.6583Y-7.9949
X9.6583Y-8.0949
X9.6583Y-8.1949
X9.6583Y-8.2949
X9.6583Y-8.3949
X9.6583Y-8.4949
X9.6583Y-8.5949
X9.6583Y-8.6949
X9.6587Y-6.8917
X9.6587Y-6.9917
X9.6587Y-7.0917
X9.6587Y-7.1917
X9.6587Y-7.2917
X9.6587Y-7.3917
X9.6587Y-7.4917
X9.6587Y-7.5917
X9.6844Y-10.5665
X9.6844Y-10.7665
X9.7303Y-11.2744
X9.7303Y-11.3744
X9.7303Y-11.4744
X9.7303Y-11.5744
X9.7303Y-11.6744
X9.7303Y-11.7744
X9.7303Y-11.8744
X9.7588Y-8.8873
X9.7831Y-12.4177
X9.7844Y-10.6665
X9.8559Y-5.1941
X9.8559Y-5.4941
X9.8563Y-2.5035
X9.8563Y-2.6035
X9.8563Y-2.7035
X9.8563Y-2.8035
X9.8563Y-2.9035
X9.8563Y-3.0035
X9.8563Y-3.1035
X9.8563Y-3.2035
X9.8563Y-3.3035
X9.8563Y-3.4035
X9.8571Y-3.798
X9.8571Y-3.898
X9.8571Y-3.998
X9.8571Y-4.098
X9.8571Y-4.198
X9.8571Y-4.298
X9.8571Y-4.398
X9.8571Y-4.498
X9.8571Y-4.598
X9.8571Y-4.698
X9.9063Y-12.4177
X9.9559Y-5.1941
X9.9559Y-5.4941
X9.9575Y-6.7933
X9.9575Y-7.0933
X9.9583Y-9.05
X9.9583Y-9.35
X9.9602Y-7.5937
X9.9602Y-7.8937
X10.0303Y-11.2744
X10.0303Y-11.3744
X10.0303Y-11.4744
X10.0303Y-11.5744
X10.0303Y-11.6744
X10.0303Y-11.7744
X10.0303Y-11.8744
X10.0313Y-10.5665
X10.0313Y-10.7665
X10.0547Y-8.3957
X10.0547Y-8.6957
X10.0559Y-5.1941
X10.0559Y-5.4941
X10.0575Y-6.0965
X10.0575Y-6.3965
X10.0575Y-6.7933
X10.0575Y-7.0933
X10.0583Y-9.05
X10.0583Y-9.35
X10.0602Y-7.5937
X10.0602Y-7.8937
X10.1063Y-12.4177
X10.1079Y-11.1224
X10.1313Y-10.6665
X10.1547Y-8.3957
X10.1547Y-8.6957
X10.1559Y-5.1941
X10.1559Y-5.4941
X10.1575Y-6.0965
X10.1575Y-6.3965
X10.1575Y-6.7933
X10.1575Y-7.0933
X10.1583Y-9.05
X10.1583Y-9.35
X10.1602Y-7.5937
X10.1602Y-7.8937
X10.2547Y-8.3957
X10.2547Y-8.6957
X10.2551Y-8.8898
X10.2559Y-5.1941
X10.2559Y-5.4941
X10.2575Y-6.0965
X10.2575Y-6.3965
X10.2575Y-6.7933
X10.2575Y-7.0933
X10.2583Y-9.05
X10.2583Y-9.35
X10.2602Y-7.5937
X10.2602Y-7.8937
X10.2787Y-11.6008
X10.3547Y-8.3957
X10.3547Y-8.6957
X10.3559Y-5.1941
X10.3559Y-5.4941
X10.3575Y-6.0965
X10.3575Y-6.3965
X10.3575Y-6.7933
X10.3575Y-7.0933
X10.3583Y-9.05
X10.3583Y-9.35
X10.3602Y-7.5937
X10.3602Y-7.8937
X10.3778Y-12.8059
X10.3778Y-13.0059
X10.3791Y-9.8433
X10.3791Y-10.0433
X10.3799Y-11.2492
X10.3799Y-11.4492
X10.3813Y-11.7488
X10.3813Y-11.9488
X10.3815Y-12.298
X10.3815Y-12.498
X10.3843Y-10.35
X10.3843Y-10.55
X10.4543Y-3.7
X10.4543Y-4.3
X10.4547Y-8.3957
X10.4547Y-8.6957
X10.4559Y-5.1941
X10.4559Y-5.4941
X10.4567Y-10.7472
X10.4575Y-6.0965
X10.4575Y-6.3965
X10.4575Y-6.7933
X10.4575Y-7.0933
X10.4583Y-9.05
X10.4583Y-9.35
X10.4602Y-7.5937
X10.4602Y-7.8937
X10.4778Y-12.9059
X10.4787Y-11.6008
X10.4791Y-9.9433
X10.4799Y-11.3492
X10.4813Y-11.8488
X10.4815Y-12.398
X10.4843Y-10.45
X10.5543Y-3.7
X10.5543Y-4.3
X10.5547Y-8.3957
X10.5547Y-8.6957
X10.5547Y-12.548
X10.5547Y-12.748
X10.5559Y-5.1941
X10.5559Y-5.4941
X10.5575Y-6.0965
X10.5575Y-6.3965
X10.5575Y-6.7933
X10.5575Y-7.0933
X10.5583Y-9.05
X10.5583Y-9.35
X10.5598Y-10.0965
X10.5598Y-10.2965
X10.5602Y-7.5937
X10.5602Y-7.8937
X10.6079Y-8.8898
X10.6323Y-11.602
X10.6543Y-3.7
X10.6543Y-4.3
X10.6547Y-8.3957
X10.6547Y-8.6957
X10.6559Y-5.1941
X10.6559Y-5.4941
X10.6567Y-10.7472
X10.6575Y-6.0965
X10.6575Y-6.3965
X10.6575Y-6.7933
X10.6575Y-7.0933
X10.6583Y-9.05
X10.6583Y-9.35
X10.6602Y-7.5937
X10.6602Y-7.8937
X10.7283Y-12.8059
X10.7283Y-13.0059
X10.7313Y-11.2492
X10.7313Y-11.4492
X10.7329Y-11.7488
X10.7329Y-11.9488
X10.7329Y-12.298
X10.7329Y-12.498
X10.7331Y-9.8433
X10.7331Y-10.0433
X10.736Y-10.35
X10.736Y-10.55
X10.7543Y-3.7
X10.7543Y-4.3
X10.7559Y-5.1941
X10.7559Y-5.4941
X10.8283Y-12.9059
X10.8313Y-11.3492
X10.8323Y-11.602
X10.8329Y-11.8488
X10.8329Y-12.398
X10.8331Y-9.9433
X10.836Y-10.45
X10.8543Y-3.7
X10.8543Y-4.3
X10.9543Y-3.7
X10.9543Y-4.3
X10.9547Y-6.0965
X10.9547Y-6.3965
X10.9559Y-6.7945
X10.9559Y-7.0945
X10.9559Y-7.5933
X10.9559Y-7.8933
X10.9559Y-8.3953
X10.9559Y-8.6953
X10.9559Y-9.0488
X10.9559Y-9.3488
X11.0516Y-4.8976
X11.0516Y-5.4976
X11.0543Y-3.7
X11.0543Y-4.3
X11.0547Y-6.0965
X11.0547Y-6.3965
X11.0559Y-6.7945
X11.0559Y-7.0945
X11.0559Y-7.5933
X11.0559Y-7.8933
X11.0559Y-8.3953
X11.0559Y-8.6953
X11.0559Y-9.0488
X11.0559Y-9.3488
X11.1516Y-4.8976
X11.1516Y-5.4976
X11.1543Y-3.7
X11.1543Y-4.3
X11.1547Y-6.0965
X11.1547Y-6.3965
X11.1547Y-7.2917
X11.1559Y-6.7945
X11.1559Y-7.0945
X11.1559Y-7.5933
X11.1559Y-7.8933
X11.1559Y-8.3953
X11.1559Y-8.6953
X11.1559Y-9.0488
X11.1559Y-9.3488
X11.1591Y-8.1413
X11.1591Y-8.2457
X11.2516Y-4.8976
X11.2516Y-5.4976
X11.2543Y-3.7
X11.2543Y-4.3
X11.2547Y-6.0965
X11.2547Y-6.3965
X11.2559Y-6.7945
X11.2559Y-7.0945
X11.2559Y-7.5933
X11.2559Y-7.8933
X11.2559Y-8.3953
X11.2559Y-8.6953
X11.2559Y-9.0488
X11.2559Y-9.3488
X11.3516Y-4.8976
X11.3516Y-5.4976
X11.3543Y-3.7
X11.3543Y-4.3
X11.3547Y-6.0965
X11.3547Y-6.3965
X11.3559Y-6.7945
X11.3559Y-7.0945
X11.3559Y-7.5933
X11.3559Y-7.8933
X11.3559Y-8.3953
X11.3559Y-8.6953
X11.3559Y-9.0488
X11.3559Y-9.3488
X11.4516Y-4.8976
X11.4516Y-5.4976
X11.4543Y-3.7
X11.4543Y-4.3
X11.4547Y-6.0965
X11.4547Y-6.3965
X11.4559Y-6.7945
X11.4559Y-7.0945
X11.4559Y-7.5933
X11.4559Y-7.8933
X11.4559Y-8.3953
X11.4559Y-8.6953
X11.4559Y-9.0488
X11.4559Y-9.3488
X11.4559Y-10.7453
X11.5118Y-8.1413
X11.5118Y-8.2457
X11.5516Y-4.8976
X11.5516Y-5.4976
X11.5543Y-3.7
X11.5543Y-4.3
X11.5547Y-6.0965
X11.5547Y-6.3965
X11.5547Y-7.2917
X11.5559Y-6.7945
X11.5559Y-7.0945
X11.5559Y-7.5933
X11.5559Y-7.8933
X11.5559Y-8.3953
X11.5559Y-8.6953
X11.5559Y-9.0488
X11.5559Y-9.3488
X11.6307Y-10.8484
X11.6516Y-4.8976
X11.6516Y-5.4976
X11.6531Y-2.5055
X11.6531Y-2.9055
X11.6543Y-3.7
X11.6543Y-4.3
X11.6559Y-10.7453
X11.7055Y-7.2917
X11.7307Y-10.3472
X11.7516Y-4.8976
X11.7516Y-5.4976
X11.7543Y-3.7
X11.7543Y-4.3
X11.7579Y-8.3402
X11.7579Y-8.7402
X11.7807Y-11.978
X11.7807Y-12.178
X11.8307Y-10.2472
X11.8307Y-10.4472
X11.8516Y-4.8976
X11.8516Y-5.4976
X11.8543Y-3.7
X11.8543Y-4.3
X11.9516Y-4.8976
X11.9516Y-5.4976
X11.9539Y-8.3961
X11.9539Y-8.6961
X11.9543Y-3.7
X11.9543Y-4.3
X11.9551Y-6.0953
X11.9551Y-6.3953
X11.9567Y-9.0425
X11.9567Y-9.3425
X11.9571Y-7.5953
X11.9571Y-7.8953
X11.9575Y-6.7961
X11.9575Y-7.0961
X12.028Y-10.2705
X12.0295Y-11.3236
X12.0295Y-11.5236
X12.0307Y-10.8484
X12.0516Y-4.8976
X12.0516Y-5.4976
X12.0539Y-8.3961
X12.0539Y-8.6961
X12.0543Y-3.7
X12.0543Y-4.3
X12.0551Y-6.0953
X12.0551Y-6.3953
X12.0567Y-9.0425
X12.0567Y-9.3425
X12.0571Y-7.5953
X12.0571Y-7.8953
X12.0575Y-6.7961
X12.0575Y-7.0961
X12.1008Y-12.7783
X12.1055Y-7.2917
X12.1264Y-11.9307
X12.1264Y-12.2307
X12.128Y-10.2705
X12.1516Y-4.8976
X12.1516Y-5.4976
X12.1539Y-8.3961
X12.1539Y-8.6961
X12.1543Y-3.7
X12.1543Y-4.3
X12.1551Y-6.0953
X12.1551Y-6.3953
X12.1567Y-9.0425
X12.1567Y-9.3425
X12.1571Y-7.5953
X12.1571Y-7.8953
X12.1575Y-6.7961
X12.1575Y-7.0961
X12.1795Y-10.0965
X12.2264Y-11.9307
X12.2264Y-12.2307
X12.2516Y-4.8976
X12.2516Y-5.4976
X12.2524Y-10.998
X12.2539Y-8.3961
X12.2539Y-8.6961
X12.2543Y-3.7
X12.2543Y-4.3
X12.2551Y-6.0953
X12.2551Y-6.3953
X12.2567Y-9.0425
X12.2567Y-9.3425
X12.2571Y-7.5953
X12.2571Y-7.8953
X12.2575Y-6.7961
X12.2575Y-7.0961
X12.2783Y-11.2787
X12.2783Y-11.5787
X12.3264Y-11.9307
X12.3264Y-12.2307
X12.3516Y-4.8976
X12.3516Y-5.4976
X12.3539Y-8.3961
X12.3539Y-8.6961
X12.3543Y-3.7
X12.3543Y-4.3
X12.3551Y-6.0953
X12.3551Y-6.3953
X12.3567Y-9.0425
X12.3567Y-9.3425
X12.3571Y-7.5953
X12.3571Y-7.8953
X12.3575Y-6.7961
X12.3575Y-7.0961
X12.3783Y-11.2787
X12.3783Y-11.5787
X12.3795Y-10.0965
X12.4264Y-11.9307
X12.4264Y-12.2307
X12.4307Y-10.2984
X12.4539Y-8.3961
X12.4539Y-8.6961
X12.4551Y-6.0953
X12.4551Y-6.3953
X12.4567Y-9.0425
X12.4567Y-9.3425
X12.4571Y-7.5953
X12.4571Y-7.8953
X12.4575Y-6.7961
X12.4575Y-7.0961
X12.4783Y-11.2787
X12.4783Y-11.5787
X12.5008Y-12.7783
X12.5264Y-11.9307
X12.5264Y-12.2307
X12.5307Y-10.2984
X12.5535Y-5.0906
X12.5535Y-5.4906
X12.5539Y-8.3961
X12.5539Y-8.6961
X12.5551Y-6.0953
X12.5551Y-6.3953
X12.5555Y-3.8961
X12.5555Y-4.2961
X12.5567Y-9.0425
X12.5567Y-9.3425
X12.5571Y-7.5953
X12.5571Y-7.8953
X12.5575Y-6.7961
X12.5575Y-7.0961
X12.5783Y-11.2787
X12.5783Y-11.5787
X12.6244Y-12.9543
X12.6256Y-12.3799
X12.6264Y-11.9307
X12.6264Y-12.2307
X12.6524Y-10.998
X12.6539Y-8.3961
X12.6539Y-8.6961
X12.6559Y-10.5213
X12.6559Y-10.7213
X12.6567Y-9.0425
X12.6567Y-9.3425
X12.6783Y-11.2787
X12.6783Y-11.5787
X12.6803Y-9.7709
X12.7264Y-11.9307
X12.7264Y-12.2307
X12.728Y-10.0264
X12.728Y-10.3264
X12.7535Y-4.902
X12.7535Y-5.502
X12.7551Y-6.7421
X12.7551Y-7.1421
X12.7555Y-2.6047
X12.7555Y-2.9047
X12.7567Y-9.0425
X12.7567Y-9.3425
X12.7583Y-3.7028
X12.7583Y-4.3028
X12.774Y-12.526
X12.774Y-12.726
X12.7783Y-11.2787
X12.7783Y-11.5787
X12.828Y-10.0264
X12.828Y-10.3264
X12.8535Y-4.902
X12.8535Y-5.502
X12.8555Y-2.6047
X12.8555Y-2.9047
X12.8567Y-9.0425
X12.8567Y-9.3425
X12.8583Y-3.7028
X12.8583Y-4.3028
X12.874Y-12.626
X12.8783Y-11.2787
X12.8783Y-11.5787
X12.8803Y-9.7709
X12.928Y-10.0264
X12.928Y-10.3264
X12.9535Y-4.902
X12.9535Y-5.502
X12.9555Y-2.6047
X12.9555Y-2.9047
X12.9555Y-7.5941
X12.9555Y-7.8941
X12.9567Y-8.3969
X12.9567Y-8.6969
X12.9583Y-3.7028
X12.9583Y-4.3028
X13.0043Y-11.3768
X13.0043Y-11.7768
X13.0047Y-6.794
X13.0047Y-7.094
X13.0244Y-12.9543
X13.028Y-10.0264
X13.028Y-10.3264
X13.05Y-13.1803
X13.0516Y-12.6287
X13.0535Y-4.902
X13.0535Y-5.502
X13.0535Y-5.6965
X13.0535Y-5.8953
X13.0539Y-5.048
X13.0539Y-5.348
X13.0555Y-2.6047
X13.0555Y-2.9047
X13.0555Y-7.5941
X13.0555Y-7.8941
X13.0563Y-10.6055
X13.0563Y-10.7055
X13.0563Y-10.8055
X13.0563Y-10.9055
X13.0563Y-11.0055
X13.0563Y-11.1055
X13.0563Y-11.2055
X13.0567Y-8.3969
X13.0567Y-8.6969
X13.0583Y-3.7028
X13.0583Y-4.3028
X13.1024Y-12.128
X13.1024Y-12.228
X13.1047Y-6.794
X13.1047Y-7.094
X13.1256Y-12.3799
X13.128Y-10.0264
X13.128Y-10.3264
X13.1516Y-12.5287
X13.152Y-11.3768
X13.152Y-11.7768
X13.1535Y-4.902
X13.1535Y-5.502
X13.1539Y-5.048
X13.1539Y-5.348
X13.1555Y-2.6047
X13.1555Y-2.9047
X13.1555Y-7.5941
X13.1555Y-7.8941
X13.1567Y-8.3969
X13.1567Y-8.6969
X13.1583Y-3.7028
X13.1583Y-4.3028
X13.2047Y-6.794
X13.2047Y-7.094
X13.228Y-10.0264
X13.228Y-10.3264
X13.25Y-13.1803
X13.2504Y-12.8287
X13.2516Y-12.6287
X13.2535Y-4.902
X13.2535Y-5.502
X13.2535Y-5.6965
X13.2535Y-5.8953
X13.2539Y-5.048
X13.2539Y-5.348
X13.2555Y-2.6047
X13.2555Y-2.9047
X13.2555Y-7.5941
X13.2555Y-7.8941
X13.2567Y-8.3969
X13.2567Y-8.6969
X13.2583Y-3.7028
X13.2583Y-4.3028
X13.3047Y-6.794
X13.3047Y-7.094
X13.328Y-10.0264
X13.328Y-10.3264
X13.3504Y-12.8287
X13.3535Y-4.902
X13.3535Y-5.502
X13.3539Y-5.048
X13.3539Y-5.348
X13.3555Y-2.6047
X13.3555Y-2.9047
X13.3555Y-7.5941
X13.3555Y-7.8941
X13.3563Y-10.6055
X13.3563Y-10.7055
X13.3563Y-10.8055
X13.3563Y-10.9055
X13.3563Y-11.0055
X13.3563Y-11.1055
X13.3563Y-11.2055
X13.3567Y-8.3969
X13.3567Y-8.6969
X13.3583Y-3.7028
X13.3583Y-4.3028
X13.4039Y-11.4996
X13.4039Y-11.6996
X13.4047Y-6.794
X13.4047Y-7.094
X13.428Y-10.0264
X13.428Y-10.3264
X13.4535Y-4.902
X13.4535Y-5.502
X13.4539Y-5.048
X13.4539Y-5.348
X13.4543Y-3.2028
X13.4543Y-3.4012
X13.4555Y-7.5941
X13.4555Y-7.8941
X13.4567Y-8.3969
X13.4567Y-8.6969
X13.4583Y-3.7028
X13.4583Y-4.3028
X13.5047Y-6.794
X13.5047Y-7.094
X13.526Y-12.4051
X13.526Y-12.8051
X13.528Y-10.0264
X13.528Y-10.3264
X13.5535Y-2.2555
X13.5535Y-4.902
X13.5535Y-5.502
X13.5539Y-5.048
X13.5539Y-5.348
X13.5555Y-7.5941
X13.5555Y-7.8941
X13.5567Y-8.3969
X13.5567Y-8.6969
X13.5583Y-3.7028
X13.5583Y-4.3028
X13.6047Y-6.794
X13.6047Y-7.094
X13.6504Y-2.6043
X13.6504Y-2.9043
X13.6535Y-4.902
X13.6535Y-5.502
X13.6539Y-5.048
X13.6539Y-5.348
X13.6567Y-8.3969
X13.6567Y-8.6969
X13.6583Y-3.7028
X13.6583Y-4.3028
X13.7504Y-2.6043
X13.7504Y-2.9043
X13.7535Y-4.902
X13.7535Y-5.502
X13.7539Y-5.048
X13.7539Y-5.348
X13.7567Y-7.5394
X13.7567Y-7.9394
X13.7583Y-3.7028
X13.7583Y-4.3028
X13.8461Y-13.0268
X13.8504Y-2.6043
X13.8504Y-2.9043
X13.8535Y-4.902
X13.8535Y-5.502
X13.8535Y-8.3437
X13.8535Y-8.7437
X13.8539Y-5.048
X13.8539Y-5.348
X13.8583Y-3.7028
X13.8583Y-4.3028
X13.9461Y-12.9268
X13.9504Y-2.6043
X13.9504Y-2.9043
X13.9531Y-7.5965
X13.9531Y-7.8965
X13.9535Y-4.902
X13.9535Y-5.502
X13.9539Y-5.048
X13.9539Y-5.348
X13.9539Y-6.7969
X13.9539Y-7.0969
X13.9543Y-3.2028
X13.9543Y-3.4012
X13.9559Y-6.0969
X13.9583Y-3.7028
X13.9583Y-4.3028
X14.0461Y-13.0268
X14.0504Y-2.6043
X14.0504Y-2.9043
X14.0531Y-7.5965
X14.0531Y-7.8965
X14.0535Y-2.2555
X14.0535Y-4.902
X14.0535Y-5.502
X14.0539Y-6.7969
X14.0539Y-7.0969
X14.0583Y-3.7028
X14.0583Y-4.3028
X14.1504Y-2.6043
X14.1504Y-2.9043
X14.1531Y-7.5965
X14.1531Y-7.8965
X14.1539Y-6.7969
X14.1539Y-7.0969
X14.1559Y-6.0969
X14.2504Y-2.6043
X14.2504Y-2.9043
X14.2531Y-7.5965
X14.2531Y-7.8965
X14.2539Y-6.7969
X14.2539Y-7.0969
X14.2543Y-3.9012
X14.2543Y-4.3012
X14.2996Y-1.9606
X14.2996Y-2.3606
X14.3008Y-4.9996
X14.3008Y-5.3996
X14.3531Y-7.5965
X14.3531Y-7.8965
X14.3539Y-6.7969
X14.3539Y-7.0969
X14.4531Y-7.5965
X14.4531Y-7.8965
X14.4539Y-6.7969
X14.4539Y-7.0969
X14.5531Y-7.5965
X14.5531Y-7.8965
X14.5539Y-6.7969
X14.5539Y-7.0969
T6
X4.0142Y-8.587
X4.0142Y-8.687
X4.0142Y-8.787
X4.4134Y-8.5406
X4.4134Y-8.6406
X4.4134Y-8.7406
X4.4134Y-8.8406
X4.5819Y-1.1957
X4.5819Y-1.2957
X4.6315Y-2.0453
X4.6315Y-2.1453
X4.6819Y-1.1957
X4.6819Y-1.2957
X4.7315Y-2.0453
X4.7315Y-2.1453
X4.7819Y-1.1957
X4.7819Y-1.2957
X4.8315Y-2.0453
X4.8315Y-2.1453
X4.8819Y-1.1957
X4.8819Y-1.2957
X4.9315Y-2.0453
X4.9315Y-2.1453
X4.9819Y-1.1957
X4.9819Y-1.2957
X5.0315Y-2.0453
X5.0315Y-2.1453
X5.0819Y-1.1957
X5.0819Y-1.2957
X5.1315Y-2.0453
X5.1315Y-2.1453
X5.1819Y-1.1957
X5.1819Y-1.2957
X5.2315Y-2.0453
X5.2315Y-2.1453
X5.2819Y-1.1957
X5.2819Y-1.2957
X5.3315Y-2.0453
X5.3315Y-2.1453
X5.3819Y-1.1957
X5.3819Y-1.2957
X5.4315Y-2.0453
X5.4315Y-2.1453
X5.4819Y-1.1957
X5.4819Y-1.2957
X5.5315Y-2.0453
X5.5315Y-2.1453
X5.5819Y-1.1957
X5.5819Y-1.2957
X5.6315Y-2.0453
X5.6315Y-2.1453
X5.6819Y-1.1957
X5.6819Y-1.2957
X5.7315Y-2.0453
X5.7315Y-2.1453
X5.7819Y-1.1957
X5.7819Y-1.2957
X5.8315Y-2.0453
X5.8315Y-2.1453
X5.8819Y-1.1957
X5.8819Y-1.2957
X5.9315Y-2.0453
X5.9315Y-2.1453
X5.9819Y-1.1957
X5.9819Y-1.2957
X6.0315Y-2.0453
X6.0315Y-2.1453
X6.0819Y-1.1957
X6.0819Y-1.2957
X6.1315Y-2.0453
X6.1315Y-2.1453
X6.1819Y-1.1957
X6.1819Y-1.2957
X6.2315Y-2.0453
X6.2315Y-2.1453
X6.7098Y-10.6425
X6.7098Y-10.7425
X7.0571Y-1.1961
X7.0571Y-1.2961
X7.1571Y-1.1961
X7.1571Y-1.2961
X7.2571Y-1.1961
X7.2571Y-1.2961
X7.3571Y-1.1961
X7.3571Y-1.2961
X7.4571Y-1.1961
X7.4571Y-1.2961
X7.5571Y-1.1961
X7.5571Y-1.2961
X7.6571Y-1.1961
X7.6571Y-1.2961
X7.7571Y-1.1961
X7.7571Y-1.2961
X7.8571Y-1.1961
X7.8571Y-1.2961
X7.9571Y-1.1961
X7.9571Y-1.2961
X8.0571Y-1.1961
X8.0571Y-1.2961
X8.1571Y-1.1961
X8.1571Y-1.2961
X8.2571Y-1.1961
X8.2571Y-1.2961
X8.3094Y-5.2402
X8.3094Y-5.3402
X8.3094Y-5.4402
X8.3571Y-1.1961
X8.3571Y-1.2961
X8.4571Y-1.1961
X8.4571Y-1.2961
X8.5571Y-1.1961
X8.5571Y-1.2961
X8.6571Y-1.1961
X8.6571Y-1.2961
X8.7299Y-12.3488
X8.7299Y-12.4488
X8.7299Y-12.5488
X8.7299Y-12.6488
X8.7571Y-1.1961
X8.7571Y-1.2961
X8.8571Y-1.1961
X8.8571Y-1.2961
X8.9571Y-1.1961
X8.9571Y-1.2961
X9.0571Y-1.1961
X9.0571Y-1.2961
X9.1571Y-1.1961
X9.1571Y-1.2961
X9.1575Y-10.7991
X9.1575Y-10.8991
X9.1575Y-10.9991
X9.1575Y-11.0991
X9.1575Y-11.1991
X9.1575Y-11.2991
X9.1575Y-11.3991
X9.1575Y-11.4991
X9.2571Y-1.1961
X9.2571Y-1.2961
X9.2661Y-10.7991
X9.2661Y-10.8991
X9.2661Y-10.9991
X9.2661Y-11.0991
X9.2661Y-11.1991
X9.2661Y-11.2991
X9.2661Y-11.3991
X9.2661Y-11.4991
X9.3571Y-1.1961
X9.3571Y-1.2961
X9.4571Y-1.1961
X9.4571Y-1.2961
X9.5571Y-1.1961
X9.5571Y-1.2961
X9.6571Y-1.1961
X9.6571Y-1.2961
X9.7571Y-1.1961
X9.7571Y-1.2961
X9.8571Y-1.1961
X9.8571Y-1.2961
X9.9571Y-1.1961
X9.9571Y-1.2961
X10.8287Y-1.2024
X10.8287Y-1.3024
X10.9287Y-1.2024
X10.9287Y-1.3024
X11.0287Y-1.2024
X11.0287Y-1.3024
X11.1287Y-1.2024
X11.1287Y-1.3024
X11.2287Y-1.2024
X11.2287Y-1.3024
X11.3287Y-1.2024
X11.3287Y-1.3024
X11.4287Y-1.2024
X11.4287Y-1.3024
X11.5287Y-1.2024
X11.5287Y-1.3024
X12.1035Y-11.7516
X12.2035Y-11.6516
X12.3035Y-11.7516
X12.4008Y-1.2024
X12.4008Y-1.3024
X12.5008Y-1.2024
X12.5008Y-1.3024
X12.6008Y-1.2024
X12.6008Y-1.3024
X12.7008Y-1.2024
X12.7008Y-1.3024
X12.8008Y-1.2024
X12.8008Y-1.3024
X12.9008Y-1.2024
X12.9008Y-1.3024
X13.0008Y-1.2024
X13.0008Y-1.3024
X13.1008Y-1.2024
X13.1008Y-1.3024
X13.2008Y-1.2024
X13.2008Y-1.3024
X13.251Y-12.0874
X13.252Y-12.2252
X13.253Y-11.9496
X13.3008Y-1.2024
X13.3008Y-1.3024
X13.4008Y-1.2024
X13.4008Y-1.3024
X13.5008Y-1.2024
X13.5008Y-1.3024
X13.5276Y-11.9496
X13.5276Y-12.2252
X13.6008Y-1.2024
X13.6008Y-1.3024
X13.7008Y-1.2024
X13.7008Y-1.3024
X13.8008Y-1.2024
X13.8008Y-1.3024
X13.9008Y-1.2024
X13.9008Y-1.3024
X14.0008Y-1.2024
X14.0008Y-1.3024
T7
X9.4047Y-12.374
X9.4047Y-12.474
X9.4047Y-12.574
T8
X4.3866Y-13.0035
X4.485Y-13.0035
X4.5835Y-13.0035
X4.6819Y-13.0035
X4.7803Y-13.0035
X4.8787Y-13.0035
X4.9772Y-13.0035
X5.0756Y-13.0035
X5.174Y-13.0035
X5.2724Y-13.0035
X5.3709Y-13.0035
X5.4693Y-13.0035
X5.5677Y-13.0035
X5.6661Y-13.0035
X5.7646Y-13.0035
X5.863Y-13.0035
X5.9614Y-13.0035
X6.0598Y-13.0035
X6.1567Y-13.0035
X6.2567Y-13.0035
T9
X14.0276Y-12.7293
X14.1565Y-9.6063
X14.3022Y-12.7293
X14.5089Y-9.7549
X14.5768Y-12.8307
X14.8533Y-12.7313
T10
X6.1343Y-8.2508
X6.1343Y-8.6035
X6.2843Y-8.2508
X6.2843Y-8.6035
X6.4362Y-8.2508
X6.4362Y-8.6035
X6.5882Y-8.2508
X6.5882Y-8.6035
T11
X3.7031Y-1.6693
X3.7031Y-1.8213
X3.7031Y-1.9732
X3.9285Y-1.6693
X3.9311Y-1.8213
X3.9311Y-1.9732
X11.7063Y-9.7945
X11.7063Y-9.9945
X11.9063Y-9.7945
T12
X14.565Y-3.4069
X14.565Y-3.6037
X14.565Y-3.8006
X14.565Y-4.2071
X14.565Y-4.4039
X14.565Y-4.6008
X14.5736Y-1.3163
X14.6626Y-3.3085
X14.6626Y-4.1087
X14.6634Y-3.899
X14.6634Y-4.6992
X14.665Y-2.5059
X14.6681Y-3.1059
X14.6681Y-3.5053
X14.6681Y-3.703
X14.6681Y-4.3055
X14.6681Y-4.5031
X14.672Y-1.4148
X14.7618Y-3.3085
X14.7618Y-3.4069
X14.7618Y-3.5053
X14.7618Y-3.7022
X14.7618Y-3.8006
X14.7618Y-3.899
X14.7618Y-4.1087
X14.7618Y-4.2071
X14.7618Y-4.3055
X14.7618Y-4.5024
X14.7618Y-4.6008
X14.7618Y-4.6992
X14.7665Y-2.6043
X14.7665Y-2.998
X14.8602Y-3.3085
X14.8602Y-3.4069
X14.8602Y-3.6037
X14.8602Y-3.8006
X14.8602Y-3.899
X14.8602Y-4.1087
X14.8602Y-4.2071
X14.8602Y-4.4039
X14.8602Y-4.6008
X14.8602Y-4.6992
X14.865Y-2.5059
X14.865Y-2.8012
X14.865Y-3.0965
X14.8689Y-1.3163
X14.8689Y-1.5132
X15.0657Y-1.4148
X15.1642Y-1.3163
T13
X14.3799Y-12.3996
T14
X13.3898Y-11.8807
X13.3898Y-12.298
T15
X14.7218Y-5.1787
X14.7218Y-5.3787
X14.7218Y-5.5787
T16
X14.672Y-0.9226
X14.7705Y-0.9226
X14.9673Y-0.9226
X15.0657Y-0.9226
X15.2539Y-3.4069
X15.2539Y-3.5053
X15.2539Y-3.7022
X15.2539Y-3.8006
X15.2539Y-4.2071
X15.2539Y-4.3055
X15.2539Y-4.5024
X15.2539Y-4.6008
X15.2587Y-2.6043
X15.2587Y-2.7028
X15.2587Y-2.8996
X15.2587Y-2.998
T17
X6.9618Y-9.0457
X7.1602Y-9.5972
X7.1618Y-9.0457
X7.3602Y-9.5972
X7.3618Y-9.0457
X7.5602Y-9.5972
X7.5618Y-9.0457
X7.7602Y-9.5972
X7.7618Y-9.0457
X8.3098Y-9.5972
X8.5098Y-9.5972
X8.7098Y-9.5972
X8.9098Y-9.5972
T18
X14.5059Y-10.0285
X14.5059Y-11.5463
T13
G00X13.7254Y-11.3091
M15
G01X13.7254Y-11.1929
M16
G05
G00X14.4094Y-12.561
M15
G01X14.2933Y-12.561
M16
G05
G00X14.4183Y-9.9498
M15
G01X14.3022Y-9.9498
M16
G05
G00X14.998Y-11.3091
M15
G01X14.998Y-11.1929
M16
G05
T15
G00X14.8349Y-4.9744
M15
G01X14.7464Y-4.9744
M16
G05
G00X14.8349Y-5.7618
M15
G01X14.7464Y-5.7618
M16
G05
M30
