%TF.GenerationSoftware,KiCad,Pcbnew,9.0.6*%
%TF.CreationDate,2025-11-01T23:52:33+00:00*%
%TF.ProjectId,EinsteinTC01,45696e73-7465-4696-9e54-4330312e6b69,rev?*%
%TF.SameCoordinates,Original*%
%TF.FileFunction,Soldermask,Bot*%
%TF.FilePolarity,Negative*%
%FSLAX46Y46*%
G04 Gerber Fmt 4.6, Leading zero omitted, Abs format (unit mm)*
G04 Created by KiCad (PCBNEW 9.0.6) date 2025-11-01 23:52:33*
%MOMM*%
%LPD*%
G01*
G04 APERTURE LIST*
G04 Aperture macros list*
%AMRoundRect*
0 Rectangle with rounded corners*
0 $1 Rounding radius*
0 $2 $3 $4 $5 $6 $7 $8 $9 X,Y pos of 4 corners*
0 Add a 4 corners polygon primitive as box body*
4,1,4,$2,$3,$4,$5,$6,$7,$8,$9,$2,$3,0*
0 Add four circle primitives for the rounded corners*
1,1,$1+$1,$2,$3*
1,1,$1+$1,$4,$5*
1,1,$1+$1,$6,$7*
1,1,$1+$1,$8,$9*
0 Add four rect primitives between the rounded corners*
20,1,$1+$1,$2,$3,$4,$5,0*
20,1,$1+$1,$4,$5,$6,$7,0*
20,1,$1+$1,$6,$7,$8,$9,0*
20,1,$1+$1,$8,$9,$2,$3,0*%
G04 Aperture macros list end*
%ADD10C,1.600000*%
%ADD11C,1.700000*%
%ADD12O,1.700000X1.700000*%
%ADD13R,1.600000X1.600000*%
%ADD14O,1.600000X1.600000*%
%ADD15R,1.700000X1.700000*%
%ADD16C,1.400000*%
%ADD17O,1.400000X1.400000*%
%ADD18C,1.500000*%
%ADD19C,1.000000*%
%ADD20R,1.400000X1.400000*%
%ADD21C,3.600000*%
%ADD22C,2.250000*%
%ADD23C,3.000000*%
%ADD24C,2.200000*%
%ADD25C,1.800000*%
%ADD26C,1.905000*%
%ADD27O,2.000000X1.905000*%
%ADD28C,2.400000*%
%ADD29RoundRect,0.787500X5.212500X1.837500X-5.212500X1.837500X-5.212500X-1.837500X5.212500X-1.837500X0*%
%ADD30RoundRect,0.781250X2.968750X2.968750X-2.968750X2.968750X-2.968750X-2.968750X2.968750X-2.968750X0*%
%ADD31RoundRect,0.787500X1.837500X-5.212500X1.837500X5.212500X-1.837500X5.212500X-1.837500X-5.212500X0*%
%ADD32C,4.000000*%
%ADD33C,2.000000*%
%ADD34C,3.500000*%
%ADD35RoundRect,0.275000X-3.650000X1.650000X-3.650000X-1.650000X3.650000X-1.650000X3.650000X1.650000X0*%
%ADD36R,0.600000X1.000000*%
G04 APERTURE END LIST*
%TO.C,JP4*%
G36*
X106600000Y-113400000D02*
G01*
X106900000Y-113400000D01*
X106900000Y-112400000D01*
X106600000Y-112400000D01*
X106600000Y-113400000D01*
G37*
%TO.C,JP5*%
G36*
X106600000Y-116175000D02*
G01*
X106900000Y-116175000D01*
X106900000Y-115175000D01*
X106600000Y-115175000D01*
X106600000Y-116175000D01*
G37*
%TD*%
D10*
%TO.C,C5*%
X158930000Y-292070000D03*
X158930000Y-281910000D03*
%TD*%
D11*
%TO.C,M1*%
X314980000Y-33080000D03*
D12*
X314980000Y-30540000D03*
X317520000Y-33080000D03*
X317520000Y-30540000D03*
X320060000Y-33080000D03*
X320060000Y-30540000D03*
X322600000Y-33080000D03*
X322600000Y-30540000D03*
X325140000Y-33080000D03*
X325140000Y-30540000D03*
X327680000Y-33080000D03*
X327680000Y-30540000D03*
X330220000Y-33080000D03*
X330220000Y-30540000D03*
X332760000Y-33080000D03*
X332760000Y-30540000D03*
X335300000Y-33080000D03*
X335300000Y-30540000D03*
X337840000Y-33080000D03*
X337840000Y-30540000D03*
X340380000Y-33080000D03*
X340380000Y-30540000D03*
X342920000Y-33080000D03*
X342920000Y-30540000D03*
X345460000Y-33080000D03*
X345460000Y-30540000D03*
X348000000Y-33080000D03*
X348000000Y-30540000D03*
X350540000Y-33080000D03*
X350540000Y-30540000D03*
X353080000Y-33080000D03*
X353080000Y-30540000D03*
X355620000Y-33080000D03*
X355620000Y-30540000D03*
%TD*%
D13*
%TO.C,I26*%
X252920000Y-180170000D03*
D14*
X255460000Y-180170000D03*
X258000000Y-180170000D03*
X260540000Y-180170000D03*
X263080000Y-180170000D03*
X265620000Y-180170000D03*
X268160000Y-180170000D03*
X270700000Y-180170000D03*
X270700000Y-172550000D03*
X268160000Y-172550000D03*
X265620000Y-172550000D03*
X263080000Y-172550000D03*
X260540000Y-172550000D03*
X258000000Y-172550000D03*
X255460000Y-172550000D03*
X252920000Y-172550000D03*
%TD*%
D15*
%TO.C,M101*%
X235360000Y-274297500D03*
D11*
X235360000Y-276837500D03*
X235360000Y-279377500D03*
X235360000Y-281917500D03*
X235360000Y-284457500D03*
X235360000Y-286997500D03*
X235360000Y-289537500D03*
X235360000Y-292077500D03*
%TD*%
D16*
%TO.C,R61*%
X172900000Y-301000000D03*
D17*
X172900000Y-313700000D03*
%TD*%
D13*
%TO.C,I66*%
X255390000Y-220870000D03*
D14*
X257930000Y-220870000D03*
X260470000Y-220870000D03*
X263010000Y-220870000D03*
X265550000Y-220870000D03*
X268090000Y-220870000D03*
X270630000Y-220870000D03*
X270630000Y-213250000D03*
X268090000Y-213250000D03*
X265550000Y-213250000D03*
X263010000Y-213250000D03*
X260470000Y-213250000D03*
X257930000Y-213250000D03*
X255390000Y-213250000D03*
%TD*%
D18*
%TO.C,Q116*%
X272615000Y-312370000D03*
X275155000Y-314910000D03*
X272615000Y-317450000D03*
%TD*%
D16*
%TO.C,R24*%
X215930000Y-332770000D03*
D17*
X203230000Y-332770000D03*
%TD*%
D16*
%TO.C,R175*%
X318280000Y-251370000D03*
D17*
X305580000Y-251370000D03*
%TD*%
D13*
%TO.C,I6*%
X237700000Y-203070000D03*
D14*
X237700000Y-205610000D03*
X237700000Y-208150000D03*
X237700000Y-210690000D03*
X237700000Y-213230000D03*
X237700000Y-215770000D03*
X237700000Y-218310000D03*
X237700000Y-220850000D03*
X245320000Y-220850000D03*
X245320000Y-218310000D03*
X245320000Y-215770000D03*
X245320000Y-213230000D03*
X245320000Y-210690000D03*
X245320000Y-208150000D03*
X245320000Y-205610000D03*
X245320000Y-203070000D03*
%TD*%
D10*
%TO.C,C45*%
X351880000Y-222090000D03*
X351880000Y-211930000D03*
%TD*%
%TO.C,C3*%
X149990000Y-305390000D03*
X149990000Y-295230000D03*
%TD*%
D13*
%TO.C,I3*%
X242730000Y-63590000D03*
D14*
X242730000Y-66130000D03*
X242730000Y-68670000D03*
X242730000Y-71210000D03*
X242730000Y-73750000D03*
X242730000Y-76290000D03*
X242730000Y-78830000D03*
X242730000Y-81370000D03*
X242730000Y-83910000D03*
X242730000Y-86450000D03*
X250350000Y-86450000D03*
X250350000Y-83910000D03*
X250350000Y-81370000D03*
X250350000Y-78830000D03*
X250350000Y-76290000D03*
X250350000Y-73750000D03*
X250350000Y-71210000D03*
X250350000Y-68670000D03*
X250350000Y-66130000D03*
X250350000Y-63590000D03*
%TD*%
D10*
%TO.C,C46*%
X298650000Y-222000000D03*
X298650000Y-211840000D03*
%TD*%
%TO.C,C52*%
X318860000Y-139460000D03*
X318860000Y-129300000D03*
%TD*%
D13*
%TO.C,I32*%
X330320000Y-180188000D03*
D14*
X332860000Y-180188000D03*
X335400000Y-180188000D03*
X337940000Y-180188000D03*
X340480000Y-180188000D03*
X343020000Y-180188000D03*
X345560000Y-180188000D03*
X345560000Y-172568000D03*
X343020000Y-172568000D03*
X340480000Y-172568000D03*
X337940000Y-172568000D03*
X335400000Y-172568000D03*
X332860000Y-172568000D03*
X330320000Y-172568000D03*
%TD*%
D19*
%TO.C,TP2*%
X172925000Y-263525000D03*
%TD*%
D20*
%TO.C,D2*%
X341730000Y-157330000D03*
D17*
X351890000Y-157330000D03*
%TD*%
D16*
%TO.C,R13*%
X136680000Y-299710000D03*
D17*
X123980000Y-299710000D03*
%TD*%
D13*
%TO.C,I52*%
X110870000Y-190250000D03*
D14*
X113410000Y-190250000D03*
X115950000Y-190250000D03*
X118490000Y-190250000D03*
X121030000Y-190250000D03*
X123570000Y-190250000D03*
X126110000Y-190250000D03*
X126110000Y-182630000D03*
X123570000Y-182630000D03*
X121030000Y-182630000D03*
X118490000Y-182630000D03*
X115950000Y-182630000D03*
X113410000Y-182630000D03*
X110870000Y-182630000D03*
%TD*%
D16*
%TO.C,R22*%
X200010000Y-332770000D03*
D17*
X187310000Y-332770000D03*
%TD*%
D16*
%TO.C,R19*%
X228720000Y-323980000D03*
D17*
X228720000Y-311280000D03*
%TD*%
D10*
%TO.C,X100*%
X314440000Y-256450000D03*
X309360000Y-256450000D03*
%TD*%
D18*
%TO.C,Q111*%
X272500000Y-325270000D03*
X275040000Y-327810000D03*
X272500000Y-330350000D03*
%TD*%
D10*
%TO.C,C35*%
X199610000Y-169870000D03*
X189450000Y-169870000D03*
%TD*%
%TO.C,X2*%
X181970000Y-154710000D03*
X181970000Y-149630000D03*
%TD*%
D16*
%TO.C,R36*%
X143830000Y-174880000D03*
D17*
X143830000Y-162180000D03*
%TD*%
D16*
%TO.C,R23*%
X200010000Y-327840000D03*
D17*
X187310000Y-327840000D03*
%TD*%
D13*
%TO.C,I38*%
X199540000Y-269170000D03*
D14*
X199540000Y-271710000D03*
X199540000Y-274250000D03*
X199540000Y-276790000D03*
X199540000Y-279330000D03*
X199540000Y-281870000D03*
X199540000Y-284410000D03*
X199540000Y-286950000D03*
X199540000Y-289490000D03*
X199540000Y-292030000D03*
X199540000Y-294570000D03*
X199540000Y-297110000D03*
X199540000Y-299650000D03*
X199540000Y-302190000D03*
X199540000Y-304730000D03*
X199540000Y-307270000D03*
X199540000Y-309810000D03*
X199540000Y-312350000D03*
X199540000Y-314890000D03*
X199540000Y-317430000D03*
X214780000Y-317430000D03*
X214780000Y-314890000D03*
X214780000Y-312350000D03*
X214780000Y-309810000D03*
X214780000Y-307270000D03*
X214780000Y-304730000D03*
X214780000Y-302190000D03*
X214780000Y-299650000D03*
X214780000Y-297110000D03*
X214780000Y-294570000D03*
X214780000Y-292030000D03*
X214780000Y-289490000D03*
X214780000Y-286950000D03*
X214780000Y-284410000D03*
X214780000Y-281870000D03*
X214780000Y-279330000D03*
X214780000Y-276790000D03*
X214780000Y-274250000D03*
X214780000Y-271710000D03*
X214780000Y-269170000D03*
%TD*%
D16*
%TO.C,R128*%
X290930000Y-278660000D03*
D17*
X278230000Y-278660000D03*
%TD*%
D16*
%TO.C,R142*%
X290930000Y-288280000D03*
D17*
X278230000Y-288280000D03*
%TD*%
D13*
%TO.C,C25*%
X141370000Y-204330000D03*
D10*
X146450000Y-204330000D03*
%TD*%
D13*
%TO.C,I21*%
X303710000Y-200540000D03*
D14*
X306250000Y-200540000D03*
X308790000Y-200540000D03*
X311330000Y-200540000D03*
X313870000Y-200540000D03*
X316410000Y-200540000D03*
X318950000Y-200540000D03*
X318950000Y-192920000D03*
X316410000Y-192920000D03*
X313870000Y-192920000D03*
X311330000Y-192920000D03*
X308790000Y-192920000D03*
X306250000Y-192920000D03*
X303710000Y-192920000D03*
%TD*%
D20*
%TO.C,D3*%
X326460000Y-157330000D03*
D17*
X336620000Y-157330000D03*
%TD*%
D10*
%TO.C,C122*%
X332800000Y-308050000D03*
X332800000Y-310590000D03*
%TD*%
D16*
%TO.C,R40*%
X161620000Y-195405000D03*
D17*
X161620000Y-182705000D03*
%TD*%
D18*
%TO.C,Q120*%
X263690000Y-312370000D03*
X266230000Y-314910000D03*
X263690000Y-317450000D03*
%TD*%
D21*
%TO.C,M8*%
X181870000Y-243770000D03*
X186950000Y-243770000D03*
X192030000Y-243770000D03*
X197110000Y-243770000D03*
%TD*%
D16*
%TO.C,R143*%
X278260000Y-257680000D03*
D17*
X290960000Y-257680000D03*
%TD*%
D13*
%TO.C,I37*%
X156400000Y-304790000D03*
D14*
X158940000Y-304790000D03*
X161480000Y-304790000D03*
X164020000Y-304790000D03*
X164020000Y-297170000D03*
X161480000Y-297170000D03*
X158940000Y-297170000D03*
X156400000Y-297170000D03*
%TD*%
D13*
%TO.C,I17*%
X255460000Y-162470000D03*
D14*
X258000000Y-162470000D03*
X260540000Y-162470000D03*
X263080000Y-162470000D03*
X265620000Y-162470000D03*
X268160000Y-162470000D03*
X270700000Y-162470000D03*
X270700000Y-154850000D03*
X268160000Y-154850000D03*
X265620000Y-154850000D03*
X263080000Y-154850000D03*
X260540000Y-154850000D03*
X258000000Y-154850000D03*
X255460000Y-154850000D03*
%TD*%
D20*
%TO.C,D4*%
X136310000Y-185070000D03*
D17*
X136310000Y-195230000D03*
%TD*%
D16*
%TO.C,R10*%
X101900000Y-317420000D03*
D17*
X114600000Y-317420000D03*
%TD*%
D16*
%TO.C,R2*%
X218600000Y-50820000D03*
D17*
X205900000Y-50820000D03*
%TD*%
D16*
%TO.C,R167*%
X308130000Y-279350000D03*
D17*
X295430000Y-279350000D03*
%TD*%
D16*
%TO.C,R30*%
X169240000Y-131850000D03*
D17*
X169240000Y-119150000D03*
%TD*%
D10*
%TO.C,C41*%
X323980000Y-181410000D03*
X323980000Y-171250000D03*
%TD*%
D13*
%TO.C,I40*%
X184330000Y-270390000D03*
D14*
X184330000Y-272930000D03*
X184330000Y-275470000D03*
X184330000Y-278010000D03*
X184330000Y-280550000D03*
X184330000Y-283090000D03*
X184330000Y-285630000D03*
X184330000Y-288170000D03*
X184330000Y-290710000D03*
X191950000Y-290710000D03*
X191950000Y-288170000D03*
X191950000Y-285630000D03*
X191950000Y-283090000D03*
X191950000Y-280550000D03*
X191950000Y-278010000D03*
X191950000Y-275470000D03*
X191950000Y-272930000D03*
X191950000Y-270390000D03*
%TD*%
D13*
%TO.C,I54*%
X278280000Y-220860000D03*
D14*
X280820000Y-220860000D03*
X283360000Y-220860000D03*
X285900000Y-220860000D03*
X288440000Y-220860000D03*
X290980000Y-220860000D03*
X293520000Y-220860000D03*
X293520000Y-213240000D03*
X290980000Y-213240000D03*
X288440000Y-213240000D03*
X285900000Y-213240000D03*
X283360000Y-213240000D03*
X280820000Y-213240000D03*
X278280000Y-213240000D03*
%TD*%
D10*
%TO.C,C120*%
X333390000Y-314450000D03*
X320690000Y-314450000D03*
%TD*%
D16*
%TO.C,R14*%
X136680000Y-295850000D03*
D17*
X123980000Y-295850000D03*
%TD*%
D13*
%TO.C,I15*%
X174270000Y-174970000D03*
D14*
X174270000Y-177510000D03*
X174270000Y-180050000D03*
X174270000Y-182590000D03*
X174270000Y-185130000D03*
X174270000Y-187670000D03*
X174270000Y-190210000D03*
X174270000Y-192750000D03*
X181890000Y-192750000D03*
X181890000Y-190210000D03*
X181890000Y-187670000D03*
X181890000Y-185130000D03*
X181890000Y-182590000D03*
X181890000Y-180050000D03*
X181890000Y-177510000D03*
X181890000Y-174970000D03*
%TD*%
D13*
%TO.C,I5*%
X242750000Y-96470000D03*
D14*
X242750000Y-99010000D03*
X242750000Y-101550000D03*
X242750000Y-104090000D03*
X242750000Y-106630000D03*
X242750000Y-109170000D03*
X242750000Y-111710000D03*
X242750000Y-114250000D03*
X242750000Y-116790000D03*
X242750000Y-119330000D03*
X250370000Y-119330000D03*
X250370000Y-116790000D03*
X250370000Y-114250000D03*
X250370000Y-111710000D03*
X250370000Y-109170000D03*
X250370000Y-106630000D03*
X250370000Y-104090000D03*
X250370000Y-101550000D03*
X250370000Y-99010000D03*
X250370000Y-96470000D03*
%TD*%
D10*
%TO.C,C28*%
X131160000Y-154640000D03*
X131160000Y-144480000D03*
%TD*%
D18*
%TO.C,Q1*%
X228710000Y-331570000D03*
X231250000Y-329030000D03*
X233790000Y-331570000D03*
%TD*%
D11*
%TO.C,M12*%
X101960000Y-218110000D03*
X101960000Y-220650000D03*
X101960000Y-223190000D03*
%TD*%
D10*
%TO.C,J50*%
X283440000Y-206790000D03*
X292400000Y-206790000D03*
%TD*%
D13*
%TO.C,C112*%
X261080000Y-294660000D03*
D10*
X266160000Y-294660000D03*
%TD*%
%TO.C,C33*%
X214870000Y-169870000D03*
X204710000Y-169870000D03*
%TD*%
D20*
%TO.C,D1*%
X341730000Y-152260000D03*
D17*
X351890000Y-152260000D03*
%TD*%
D16*
%TO.C,R56*%
X123360000Y-83700000D03*
D17*
X110660000Y-83700000D03*
%TD*%
D13*
%TO.C,I58*%
X280710000Y-139640000D03*
D14*
X283250000Y-139640000D03*
X285790000Y-139640000D03*
X288330000Y-139640000D03*
X290870000Y-139640000D03*
X293410000Y-139640000D03*
X295950000Y-139640000D03*
X298490000Y-139640000D03*
X301030000Y-139640000D03*
X303570000Y-139640000D03*
X306110000Y-139640000D03*
X308650000Y-139640000D03*
X311190000Y-139640000D03*
X313730000Y-139640000D03*
X313730000Y-124400000D03*
X311190000Y-124400000D03*
X308650000Y-124400000D03*
X306110000Y-124400000D03*
X303570000Y-124400000D03*
X301030000Y-124400000D03*
X298490000Y-124400000D03*
X295950000Y-124400000D03*
X293410000Y-124400000D03*
X290870000Y-124400000D03*
X288330000Y-124400000D03*
X285790000Y-124400000D03*
X283250000Y-124400000D03*
X280710000Y-124400000D03*
%TD*%
D16*
%TO.C,R101*%
X257510000Y-325800000D03*
D17*
X244810000Y-325800000D03*
%TD*%
D10*
%TO.C,C40*%
X295990000Y-73800000D03*
X295990000Y-63640000D03*
%TD*%
D16*
%TO.C,R168*%
X330970000Y-250720000D03*
D17*
X343670000Y-250720000D03*
%TD*%
D10*
%TO.C,C106*%
X244040000Y-282510000D03*
X256740000Y-282510000D03*
%TD*%
D22*
%TO.C,M16*%
X370170000Y-33435000D03*
X372670000Y-35935000D03*
X377670000Y-33435000D03*
X382670000Y-35935000D03*
X385170000Y-33435000D03*
X377670000Y-38435000D03*
D23*
X372670000Y-23435000D03*
X375170000Y-23435000D03*
X380170000Y-23435000D03*
X382670000Y-23435000D03*
%TD*%
D22*
%TO.C,M15*%
X377450000Y-84035000D03*
X377450000Y-86535000D03*
X369950000Y-86535000D03*
X377450000Y-91535000D03*
X369950000Y-91535000D03*
X377450000Y-96535000D03*
X369950000Y-96535000D03*
X377450000Y-99035000D03*
X374950000Y-86535000D03*
X374950000Y-89035000D03*
X372570000Y-89035000D03*
X374950000Y-94035000D03*
X372570000Y-94055000D03*
X374950000Y-96535000D03*
X374950000Y-84035000D03*
X372430000Y-84035000D03*
X374950000Y-99035000D03*
X372450000Y-99035000D03*
D23*
X387450000Y-86535000D03*
X387450000Y-89035000D03*
X387450000Y-94035000D03*
X387450000Y-96535000D03*
%TD*%
D16*
%TO.C,R123*%
X290930000Y-332180000D03*
D17*
X278230000Y-332180000D03*
%TD*%
D16*
%TO.C,R161*%
X317520000Y-327720000D03*
D17*
X304820000Y-327720000D03*
%TD*%
D10*
%TO.C,C70*%
X143675000Y-94725000D03*
X130975000Y-94725000D03*
%TD*%
D20*
%TO.C,D101*%
X247350000Y-329000000D03*
D17*
X257510000Y-329000000D03*
%TD*%
D13*
%TO.C,I103*%
X308010000Y-310660000D03*
D14*
X310550000Y-310660000D03*
X313090000Y-310660000D03*
X315630000Y-310660000D03*
X318170000Y-310660000D03*
X320710000Y-310660000D03*
X323250000Y-310660000D03*
X323250000Y-303040000D03*
X320710000Y-303040000D03*
X318170000Y-303040000D03*
X315630000Y-303040000D03*
X313090000Y-303040000D03*
X310550000Y-303040000D03*
X308010000Y-303040000D03*
%TD*%
D13*
%TO.C,I14*%
X189350000Y-203110000D03*
D14*
X189350000Y-205650000D03*
X189350000Y-208190000D03*
X189350000Y-210730000D03*
X189350000Y-213270000D03*
X189350000Y-215810000D03*
X189350000Y-218350000D03*
X189350000Y-220890000D03*
X196970000Y-220890000D03*
X196970000Y-218350000D03*
X196970000Y-215810000D03*
X196970000Y-213270000D03*
X196970000Y-210730000D03*
X196970000Y-208190000D03*
X196970000Y-205650000D03*
X196970000Y-203110000D03*
%TD*%
D18*
%TO.C,Q109*%
X254795000Y-268390000D03*
X257335000Y-270930000D03*
X254795000Y-273470000D03*
%TD*%
D10*
%TO.C,J52*%
X269440000Y-225800000D03*
X260480000Y-225800000D03*
%TD*%
D18*
%TO.C,Q113*%
X263685000Y-298420000D03*
X266225000Y-300960000D03*
X263685000Y-303500000D03*
%TD*%
D16*
%TO.C,R157*%
X290960000Y-248140000D03*
D17*
X278260000Y-248140000D03*
%TD*%
D16*
%TO.C,R52*%
X114060000Y-207950000D03*
D17*
X101360000Y-207950000D03*
%TD*%
D11*
%TO.C,M17*%
X112100000Y-216930000D03*
X112100000Y-219470000D03*
X112100000Y-222010000D03*
X112100000Y-224550000D03*
%TD*%
D13*
%TO.C,I102*%
X331630000Y-269380000D03*
D14*
X331630000Y-271920000D03*
X331630000Y-274460000D03*
X331630000Y-277000000D03*
X331630000Y-279540000D03*
X331630000Y-282080000D03*
X331630000Y-284620000D03*
X339250000Y-284620000D03*
X339250000Y-282080000D03*
X339250000Y-279540000D03*
X339250000Y-277000000D03*
X339250000Y-274460000D03*
X339250000Y-271920000D03*
X339250000Y-269380000D03*
%TD*%
D10*
%TO.C,C128*%
X343560000Y-315090000D03*
X343560000Y-325250000D03*
%TD*%
D13*
%TO.C,C121*%
X327160000Y-248180000D03*
D10*
X322080000Y-248180000D03*
%TD*%
D13*
%TO.C,I7*%
X237710000Y-175050000D03*
D14*
X237710000Y-177590000D03*
X237710000Y-180130000D03*
X237710000Y-182670000D03*
X237710000Y-185210000D03*
X237710000Y-187750000D03*
X237710000Y-190290000D03*
X237710000Y-192830000D03*
X245330000Y-192830000D03*
X245330000Y-190290000D03*
X245330000Y-187750000D03*
X245330000Y-185210000D03*
X245330000Y-182670000D03*
X245330000Y-180130000D03*
X245330000Y-177590000D03*
X245330000Y-175050000D03*
%TD*%
D16*
%TO.C,R172*%
X299160000Y-284440000D03*
D17*
X299160000Y-297140000D03*
%TD*%
D13*
%TO.C,C6*%
X157670000Y-272840000D03*
D10*
X157670000Y-267760000D03*
%TD*%
D15*
%TO.C,M100*%
X232600000Y-274297500D03*
D11*
X232600000Y-276837500D03*
X232600000Y-279377500D03*
X232600000Y-281917500D03*
X232600000Y-284457500D03*
X232600000Y-286997500D03*
X232600000Y-289537500D03*
X232600000Y-292077500D03*
%TD*%
D10*
%TO.C,C130*%
X315740000Y-261580000D03*
X318280000Y-261580000D03*
%TD*%
%TO.C,C1*%
X283330000Y-185210000D03*
X293490000Y-185210000D03*
%TD*%
D16*
%TO.C,R60*%
X178620000Y-270400000D03*
D17*
X178620000Y-283100000D03*
%TD*%
D10*
%TO.C,C60*%
X148830000Y-72220000D03*
X148830000Y-62060000D03*
%TD*%
%TO.C,C54*%
X363240000Y-137150000D03*
X363240000Y-126990000D03*
%TD*%
%TO.C,C15*%
X356960000Y-57290000D03*
X344260000Y-57290000D03*
%TD*%
%TO.C,L101*%
X343600000Y-310520000D03*
X336575000Y-307020000D03*
X336625000Y-303520000D03*
X343600000Y-303520000D03*
X336600000Y-310520000D03*
D24*
X340100000Y-312370000D03*
X340100000Y-301770000D03*
%TD*%
D16*
%TO.C,R138*%
X278230000Y-317500000D03*
D17*
X290930000Y-317500000D03*
%TD*%
D16*
%TO.C,R166*%
X308750000Y-275550000D03*
D17*
X321450000Y-275550000D03*
%TD*%
D10*
%TO.C,X1*%
X222510000Y-263360000D03*
X227590000Y-263360000D03*
%TD*%
%TO.C,C17*%
X354440000Y-86390000D03*
X341740000Y-86390000D03*
%TD*%
D18*
%TO.C,Q114*%
X263760000Y-262890000D03*
X266300000Y-265430000D03*
X263760000Y-267970000D03*
%TD*%
D13*
%TO.C,C108*%
X251620000Y-315410000D03*
D10*
X256700000Y-315410000D03*
%TD*%
%TO.C,C56*%
X193240000Y-265320000D03*
X183080000Y-265320000D03*
%TD*%
D18*
%TO.C,Q123*%
X324460000Y-318160000D03*
X327000000Y-320700000D03*
X324460000Y-323240000D03*
%TD*%
D16*
%TO.C,R26*%
X227440000Y-298410000D03*
D17*
X227440000Y-285710000D03*
%TD*%
D13*
%TO.C,I22*%
X278250000Y-162470000D03*
D14*
X280790000Y-162470000D03*
X283330000Y-162470000D03*
X285870000Y-162470000D03*
X288410000Y-162470000D03*
X290950000Y-162470000D03*
X293490000Y-162470000D03*
X293490000Y-154850000D03*
X290950000Y-154850000D03*
X288410000Y-154850000D03*
X285870000Y-154850000D03*
X283330000Y-154850000D03*
X280790000Y-154850000D03*
X278250000Y-154850000D03*
%TD*%
D22*
%TO.C,M13*%
X372490000Y-63650000D03*
X372570000Y-78890000D03*
X377570000Y-71150000D03*
X375070000Y-76150000D03*
X375070000Y-66150000D03*
X377570000Y-63650000D03*
X377570000Y-78650000D03*
D23*
X387570000Y-66150000D03*
X387570000Y-68650000D03*
X387570000Y-73650000D03*
X387570000Y-76150000D03*
%TD*%
D16*
%TO.C,R15*%
X136680000Y-292050000D03*
D17*
X123980000Y-292050000D03*
%TD*%
D13*
%TO.C,I16*%
X174220000Y-202900000D03*
D14*
X174220000Y-205440000D03*
X174220000Y-207980000D03*
X174220000Y-210520000D03*
X174220000Y-213060000D03*
X174220000Y-215600000D03*
X174220000Y-218140000D03*
X174220000Y-220680000D03*
X181840000Y-220680000D03*
X181840000Y-218140000D03*
X181840000Y-215600000D03*
X181840000Y-213060000D03*
X181840000Y-210520000D03*
X181840000Y-207980000D03*
X181840000Y-205440000D03*
X181840000Y-202900000D03*
%TD*%
D10*
%TO.C,M50*%
X363210000Y-59960000D03*
X363210000Y-49800000D03*
%TD*%
D18*
%TO.C,Q2*%
X219760000Y-331570000D03*
X222300000Y-329030000D03*
X224840000Y-331570000D03*
%TD*%
D13*
%TO.C,I57*%
X303700000Y-237300000D03*
D14*
X306240000Y-237300000D03*
X308780000Y-237300000D03*
X311320000Y-237300000D03*
X313860000Y-237300000D03*
X316400000Y-237300000D03*
X318940000Y-237300000D03*
X321480000Y-237300000D03*
X324020000Y-237300000D03*
X326560000Y-237300000D03*
X326560000Y-229680000D03*
X324020000Y-229680000D03*
X321480000Y-229680000D03*
X318940000Y-229680000D03*
X316400000Y-229680000D03*
X313860000Y-229680000D03*
X311320000Y-229680000D03*
X308780000Y-229680000D03*
X306240000Y-229680000D03*
X303700000Y-229680000D03*
%TD*%
D13*
%TO.C,I48*%
X110870000Y-154780000D03*
D14*
X113410000Y-154780000D03*
X115950000Y-154780000D03*
X118490000Y-154780000D03*
X121030000Y-154780000D03*
X123570000Y-154780000D03*
X126110000Y-154780000D03*
X126110000Y-147160000D03*
X123570000Y-147160000D03*
X121030000Y-147160000D03*
X118490000Y-147160000D03*
X115950000Y-147160000D03*
X113410000Y-147160000D03*
X110870000Y-147160000D03*
%TD*%
D13*
%TO.C,C23*%
X146350000Y-230350000D03*
D10*
X146350000Y-225270000D03*
%TD*%
D13*
%TO.C,I41*%
X184330000Y-300950000D03*
D14*
X184330000Y-303490000D03*
X184330000Y-306030000D03*
X184330000Y-308570000D03*
X184330000Y-311110000D03*
X184330000Y-313650000D03*
X184330000Y-316190000D03*
X184330000Y-318730000D03*
X184330000Y-321270000D03*
X191950000Y-321270000D03*
X191950000Y-318730000D03*
X191950000Y-316190000D03*
X191950000Y-313650000D03*
X191950000Y-311110000D03*
X191950000Y-308570000D03*
X191950000Y-306030000D03*
X191950000Y-303490000D03*
X191950000Y-300950000D03*
%TD*%
D10*
%TO.C,C48*%
X100490000Y-106470000D03*
X100490000Y-96310000D03*
%TD*%
D13*
%TO.C,I8*%
X219900000Y-174970000D03*
D14*
X219900000Y-177510000D03*
X219900000Y-180050000D03*
X219900000Y-182590000D03*
X219900000Y-185130000D03*
X219900000Y-187670000D03*
X219900000Y-190210000D03*
X219900000Y-192750000D03*
X227520000Y-192750000D03*
X227520000Y-190210000D03*
X227520000Y-187670000D03*
X227520000Y-185130000D03*
X227520000Y-182590000D03*
X227520000Y-180050000D03*
X227520000Y-177510000D03*
X227520000Y-174970000D03*
%TD*%
D16*
%TO.C,R177*%
X349200000Y-328990000D03*
D17*
X336500000Y-328990000D03*
%TD*%
D16*
%TO.C,R144*%
X290960000Y-254500000D03*
D17*
X278260000Y-254500000D03*
%TD*%
D18*
%TO.C,Q108*%
X245985000Y-268390000D03*
X248525000Y-270930000D03*
X245985000Y-273470000D03*
%TD*%
D16*
%TO.C,R160*%
X327730000Y-281990000D03*
D17*
X327730000Y-269290000D03*
%TD*%
D10*
%TO.C,C50*%
X155650000Y-106520000D03*
X155650000Y-96360000D03*
%TD*%
D23*
%TO.C,M51*%
X155810000Y-218530000D03*
X159620000Y-218530000D03*
X163480000Y-218530000D03*
X167340000Y-218530000D03*
X167340000Y-209570000D03*
X163480000Y-209570000D03*
X159620000Y-209570000D03*
X155810000Y-209570000D03*
%TD*%
D13*
%TO.C,I10*%
X219900000Y-203110000D03*
D14*
X219900000Y-205650000D03*
X219900000Y-208190000D03*
X219900000Y-210730000D03*
X219900000Y-213270000D03*
X219900000Y-215810000D03*
X219900000Y-218350000D03*
X219900000Y-220890000D03*
X227520000Y-220890000D03*
X227520000Y-218350000D03*
X227520000Y-215810000D03*
X227520000Y-213270000D03*
X227520000Y-210730000D03*
X227520000Y-208190000D03*
X227520000Y-205650000D03*
X227520000Y-203110000D03*
%TD*%
D16*
%TO.C,R7*%
X255510000Y-204280000D03*
D17*
X268210000Y-204280000D03*
%TD*%
D16*
%TO.C,R162*%
X304820000Y-320720000D03*
D17*
X317520000Y-320720000D03*
%TD*%
D10*
%TO.C,C114*%
X334060000Y-299130000D03*
X334060000Y-288970000D03*
%TD*%
D16*
%TO.C,R53*%
X146500000Y-182530000D03*
D17*
X146500000Y-195230000D03*
%TD*%
D13*
%TO.C,I13*%
X189350000Y-174970000D03*
D14*
X189350000Y-177510000D03*
X189350000Y-180050000D03*
X189350000Y-182590000D03*
X189350000Y-185130000D03*
X189350000Y-187670000D03*
X189350000Y-190210000D03*
X189350000Y-192750000D03*
X196970000Y-192750000D03*
X196970000Y-190210000D03*
X196970000Y-187670000D03*
X196970000Y-185130000D03*
X196970000Y-182590000D03*
X196970000Y-180050000D03*
X196970000Y-177510000D03*
X196970000Y-174970000D03*
%TD*%
D13*
%TO.C,I104*%
X311870000Y-294100000D03*
D14*
X314410000Y-294100000D03*
X316950000Y-294100000D03*
X319490000Y-294100000D03*
X322030000Y-294100000D03*
X324570000Y-294100000D03*
X327110000Y-294100000D03*
X327110000Y-286480000D03*
X324570000Y-286480000D03*
X322030000Y-286480000D03*
X319490000Y-286480000D03*
X316950000Y-286480000D03*
X314410000Y-286480000D03*
X311870000Y-286480000D03*
%TD*%
D16*
%TO.C,R148*%
X290930000Y-285020000D03*
D17*
X278230000Y-285020000D03*
%TD*%
D16*
%TO.C,R43*%
X131020000Y-76630000D03*
D17*
X143720000Y-76630000D03*
%TD*%
D16*
%TO.C,R133*%
X274440000Y-305460000D03*
D17*
X261740000Y-305460000D03*
%TD*%
D10*
%TO.C,C61*%
X100570000Y-72320000D03*
X100570000Y-62160000D03*
%TD*%
D16*
%TO.C,R170*%
X305580000Y-267910000D03*
D17*
X318280000Y-267910000D03*
%TD*%
D10*
%TO.C,C37*%
X184380000Y-169940000D03*
X174220000Y-169940000D03*
%TD*%
D16*
%TO.C,R173*%
X318280000Y-264750000D03*
D17*
X305580000Y-264750000D03*
%TD*%
D16*
%TO.C,R153*%
X290930000Y-307950000D03*
D17*
X278230000Y-307950000D03*
%TD*%
D13*
%TO.C,I42*%
X110880000Y-134410000D03*
D14*
X113420000Y-134410000D03*
X115960000Y-134410000D03*
X118500000Y-134410000D03*
X121040000Y-134410000D03*
X123580000Y-134410000D03*
X126120000Y-134410000D03*
X128660000Y-134410000D03*
X131200000Y-134410000D03*
X133740000Y-134410000D03*
X136280000Y-134410000D03*
X138820000Y-134410000D03*
X141360000Y-134410000D03*
X143900000Y-134410000D03*
X143900000Y-119170000D03*
X141360000Y-119170000D03*
X138820000Y-119170000D03*
X136280000Y-119170000D03*
X133740000Y-119170000D03*
X131200000Y-119170000D03*
X128660000Y-119170000D03*
X126120000Y-119170000D03*
X123580000Y-119170000D03*
X121040000Y-119170000D03*
X118500000Y-119170000D03*
X115960000Y-119170000D03*
X113420000Y-119170000D03*
X110880000Y-119170000D03*
%TD*%
D25*
%TO.C,R179*%
X307430000Y-298490000D03*
X309970000Y-295950000D03*
X312510000Y-298490000D03*
%TD*%
D18*
%TO.C,Q110*%
X263595000Y-325270000D03*
X266135000Y-327810000D03*
X263595000Y-330350000D03*
%TD*%
D13*
%TO.C,C132*%
X331470000Y-334780000D03*
D10*
X336550000Y-334780000D03*
%TD*%
D16*
%TO.C,R8*%
X101900000Y-312420000D03*
D17*
X114600000Y-312420000D03*
%TD*%
D13*
%TO.C,I51*%
X354410000Y-200570000D03*
D14*
X356950000Y-200570000D03*
X359490000Y-200570000D03*
X362030000Y-200570000D03*
X364570000Y-200570000D03*
X367110000Y-200570000D03*
X369650000Y-200570000D03*
X369650000Y-192950000D03*
X367110000Y-192950000D03*
X364570000Y-192950000D03*
X362030000Y-192950000D03*
X359490000Y-192950000D03*
X356950000Y-192950000D03*
X354410000Y-192950000D03*
%TD*%
D15*
%TO.C,M2*%
X275050000Y-33080000D03*
D11*
X275050000Y-30540000D03*
X277590000Y-33080000D03*
X277590000Y-30540000D03*
X280130000Y-33080000D03*
X280130000Y-30540000D03*
X282670000Y-33080000D03*
X282670000Y-30540000D03*
X285210000Y-33080000D03*
X285210000Y-30540000D03*
X287750000Y-33080000D03*
X287750000Y-30540000D03*
X290290000Y-33080000D03*
X290290000Y-30540000D03*
X292830000Y-33080000D03*
X292830000Y-30540000D03*
%TD*%
D10*
%TO.C,C16*%
X354440000Y-81350000D03*
X341740000Y-81350000D03*
%TD*%
D16*
%TO.C,R178*%
X372780000Y-332840000D03*
D17*
X360080000Y-332840000D03*
%TD*%
D16*
%TO.C,R124*%
X278230000Y-297800000D03*
D17*
X290930000Y-297800000D03*
%TD*%
D20*
%TO.C,D100*%
X247350000Y-332200000D03*
D17*
X257510000Y-332200000D03*
%TD*%
D13*
%TO.C,I28*%
X138710000Y-256380000D03*
D14*
X141250000Y-256380000D03*
X143790000Y-256380000D03*
X146330000Y-256380000D03*
X148870000Y-256380000D03*
X151410000Y-256380000D03*
X153950000Y-256380000D03*
X153950000Y-248760000D03*
X151410000Y-248760000D03*
X148870000Y-248760000D03*
X146330000Y-248760000D03*
X143790000Y-248760000D03*
X141250000Y-248760000D03*
X138710000Y-248760000D03*
%TD*%
D13*
%TO.C,I53*%
X105530000Y-106580000D03*
D14*
X108070000Y-106580000D03*
X110610000Y-106580000D03*
X113150000Y-106580000D03*
X115690000Y-106580000D03*
X118230000Y-106580000D03*
X120770000Y-106580000D03*
X123310000Y-106580000D03*
X123310000Y-98960000D03*
X120770000Y-98960000D03*
X118230000Y-98960000D03*
X115690000Y-98960000D03*
X113150000Y-98960000D03*
X110610000Y-98960000D03*
X108070000Y-98960000D03*
X105530000Y-98960000D03*
%TD*%
D10*
%TO.C,C47*%
X237712500Y-225737500D03*
X247872500Y-225737500D03*
%TD*%
D13*
%TO.C,I36*%
X250340000Y-139550000D03*
D14*
X252880000Y-139550000D03*
X255420000Y-139550000D03*
X257960000Y-139550000D03*
X260500000Y-139550000D03*
X263040000Y-139550000D03*
X265580000Y-139550000D03*
X268120000Y-139550000D03*
X270660000Y-139550000D03*
X273200000Y-139550000D03*
X273200000Y-131930000D03*
X270660000Y-131930000D03*
X268120000Y-131930000D03*
X265580000Y-131930000D03*
X263040000Y-131930000D03*
X260500000Y-131930000D03*
X257960000Y-131930000D03*
X255420000Y-131930000D03*
X252880000Y-131930000D03*
X250340000Y-131930000D03*
%TD*%
D16*
%TO.C,R4*%
X221140000Y-50820000D03*
D17*
X233840000Y-50820000D03*
%TD*%
D10*
%TO.C,C116*%
X330310000Y-299130000D03*
X330310000Y-288970000D03*
%TD*%
D26*
%TO.C,I106*%
X238880000Y-314300000D03*
D27*
X238880000Y-316840000D03*
X238880000Y-319380000D03*
%TD*%
D13*
%TO.C,C9*%
X161390000Y-314420000D03*
D10*
X161390000Y-309340000D03*
%TD*%
%TO.C,C118*%
X320660000Y-329040000D03*
X330820000Y-329040000D03*
%TD*%
D16*
%TO.C,R58*%
X315050000Y-81180000D03*
D17*
X302350000Y-81180000D03*
%TD*%
D16*
%TO.C,R106*%
X304820000Y-334090000D03*
D17*
X317520000Y-334090000D03*
%TD*%
D16*
%TO.C,R18*%
X136680000Y-303490000D03*
D17*
X123980000Y-303490000D03*
%TD*%
D16*
%TO.C,R130*%
X256740000Y-265950000D03*
D17*
X244040000Y-265950000D03*
%TD*%
D16*
%TO.C,R135*%
X290960000Y-267230000D03*
D17*
X278260000Y-267230000D03*
%TD*%
D13*
%TO.C,I20*%
X278280000Y-180200000D03*
D14*
X280820000Y-180200000D03*
X283360000Y-180200000D03*
X285900000Y-180200000D03*
X288440000Y-180200000D03*
X290980000Y-180200000D03*
X293520000Y-180200000D03*
X293520000Y-172580000D03*
X290980000Y-172580000D03*
X288440000Y-172580000D03*
X285900000Y-172580000D03*
X283360000Y-172580000D03*
X280820000Y-172580000D03*
X278280000Y-172580000D03*
%TD*%
D16*
%TO.C,R145*%
X278230000Y-320700000D03*
D17*
X290930000Y-320700000D03*
%TD*%
D16*
%TO.C,R165*%
X333360000Y-325850000D03*
D17*
X320660000Y-325850000D03*
%TD*%
D18*
%TO.C,Q125*%
X331510000Y-320770000D03*
X334050000Y-318230000D03*
X336590000Y-320770000D03*
%TD*%
D28*
%TO.C,S1*%
X94060000Y-42400000D03*
X99785000Y-42400000D03*
X94060000Y-50120000D03*
X99850000Y-50120000D03*
X94060000Y-46260000D03*
X99850000Y-46260000D03*
%TD*%
D16*
%TO.C,R141*%
X278230000Y-291420000D03*
D17*
X290930000Y-291420000D03*
%TD*%
D13*
%TO.C,I47*%
X146390000Y-154800000D03*
D14*
X148930000Y-154800000D03*
X151470000Y-154800000D03*
X154010000Y-154800000D03*
X156550000Y-154800000D03*
X159090000Y-154800000D03*
X161630000Y-154800000D03*
X161630000Y-147180000D03*
X159090000Y-147180000D03*
X156550000Y-147180000D03*
X154010000Y-147180000D03*
X151470000Y-147180000D03*
X148930000Y-147180000D03*
X146390000Y-147180000D03*
%TD*%
D18*
%TO.C,Q115*%
X272695000Y-262890000D03*
X275235000Y-265430000D03*
X272695000Y-267970000D03*
%TD*%
D13*
%TO.C,I24*%
X215980000Y-130750000D03*
D14*
X215980000Y-133290000D03*
X215980000Y-135830000D03*
X215980000Y-138370000D03*
X215980000Y-140910000D03*
X215980000Y-143450000D03*
X215980000Y-145990000D03*
X215980000Y-148530000D03*
X215980000Y-151070000D03*
X215980000Y-153610000D03*
X215980000Y-156150000D03*
X215980000Y-158690000D03*
X215980000Y-161230000D03*
X215980000Y-163770000D03*
X231220000Y-163770000D03*
X231220000Y-161230000D03*
X231220000Y-158690000D03*
X231220000Y-156150000D03*
X231220000Y-153610000D03*
X231220000Y-151070000D03*
X231220000Y-148530000D03*
X231220000Y-145990000D03*
X231220000Y-143450000D03*
X231220000Y-140910000D03*
X231220000Y-138370000D03*
X231220000Y-135830000D03*
X231220000Y-133290000D03*
X231220000Y-130750000D03*
%TD*%
D10*
%TO.C,J51*%
X283440000Y-209440000D03*
X292400000Y-209440000D03*
%TD*%
D21*
%TO.C,M9*%
X211070000Y-243770000D03*
X216150000Y-243770000D03*
X221230000Y-243770000D03*
X226310000Y-243770000D03*
%TD*%
D16*
%TO.C,R63*%
X136680000Y-311150000D03*
D17*
X123980000Y-311150000D03*
%TD*%
D13*
%TO.C,I18*%
X278280000Y-200490000D03*
D14*
X280820000Y-200490000D03*
X283360000Y-200490000D03*
X285900000Y-200490000D03*
X288440000Y-200490000D03*
X290980000Y-200490000D03*
X293520000Y-200490000D03*
X293520000Y-192870000D03*
X290980000Y-192870000D03*
X288440000Y-192870000D03*
X285900000Y-192870000D03*
X283360000Y-192870000D03*
X280820000Y-192870000D03*
X278280000Y-192870000D03*
%TD*%
D10*
%TO.C,C30*%
X131200000Y-172420000D03*
X131200000Y-162260000D03*
%TD*%
D16*
%TO.C,R131*%
X244810000Y-322520000D03*
D17*
X257510000Y-322520000D03*
%TD*%
D13*
%TO.C,I4*%
X189425000Y-63480000D03*
D14*
X189425000Y-66020000D03*
X189425000Y-68560000D03*
X189425000Y-71100000D03*
X189425000Y-73640000D03*
X189425000Y-76180000D03*
X189425000Y-78720000D03*
X189425000Y-81260000D03*
X189425000Y-83800000D03*
X189425000Y-86340000D03*
X197045000Y-86340000D03*
X197045000Y-83800000D03*
X197045000Y-81260000D03*
X197045000Y-78720000D03*
X197045000Y-76180000D03*
X197045000Y-73640000D03*
X197045000Y-71100000D03*
X197045000Y-68560000D03*
X197045000Y-66020000D03*
X197045000Y-63480000D03*
%TD*%
D11*
%TO.C,M5*%
X117640000Y-54490000D03*
D12*
X117640000Y-51950000D03*
X120180000Y-54490000D03*
X120180000Y-51950000D03*
X122720000Y-54490000D03*
X122720000Y-51950000D03*
X125260000Y-54490000D03*
X125260000Y-51950000D03*
X127800000Y-54490000D03*
X127800000Y-51950000D03*
X130340000Y-54490000D03*
X130340000Y-51950000D03*
X132880000Y-54490000D03*
X132880000Y-51950000D03*
X135420000Y-54490000D03*
X135420000Y-51950000D03*
X137960000Y-54490000D03*
X137960000Y-51950000D03*
X140500000Y-54490000D03*
X140500000Y-51950000D03*
X143040000Y-54490000D03*
X143040000Y-51950000D03*
X145580000Y-54490000D03*
X145580000Y-51950000D03*
X148120000Y-54490000D03*
X148120000Y-51950000D03*
X150660000Y-54490000D03*
X150660000Y-51950000D03*
X153200000Y-54490000D03*
X153200000Y-51950000D03*
X155740000Y-54490000D03*
X155740000Y-51950000D03*
X158280000Y-54490000D03*
X158280000Y-51950000D03*
%TD*%
D10*
%TO.C,C43*%
X349420000Y-201660000D03*
X349420000Y-191500000D03*
%TD*%
D13*
%TO.C,C110*%
X265600000Y-272980000D03*
D10*
X270680000Y-272980000D03*
%TD*%
D16*
%TO.C,R121*%
X278230000Y-324520000D03*
D17*
X290930000Y-324520000D03*
%TD*%
D16*
%TO.C,R156*%
X274440000Y-248140000D03*
D17*
X261740000Y-248140000D03*
%TD*%
D13*
%TO.C,I44*%
X128470000Y-88880000D03*
D14*
X131010000Y-88880000D03*
X133550000Y-88880000D03*
X136090000Y-88880000D03*
X138630000Y-88880000D03*
X141170000Y-88880000D03*
X143710000Y-88880000D03*
X143710000Y-81260000D03*
X141170000Y-81260000D03*
X138630000Y-81260000D03*
X136090000Y-81260000D03*
X133550000Y-81260000D03*
X131010000Y-81260000D03*
X128470000Y-81260000D03*
%TD*%
D11*
%TO.C,M10*%
X221740000Y-321280000D03*
X221740000Y-318740000D03*
X221740000Y-316200000D03*
X221740000Y-313660000D03*
%TD*%
D16*
%TO.C,R25*%
X222400000Y-298410000D03*
D17*
X222400000Y-285710000D03*
%TD*%
D18*
%TO.C,Q124*%
X300500000Y-265360000D03*
X297960000Y-262820000D03*
X300500000Y-260280000D03*
%TD*%
D15*
%TO.C,M11*%
X170430000Y-272860000D03*
D11*
X170430000Y-270320000D03*
%TD*%
D10*
%TO.C,C36*%
X199700000Y-197920000D03*
X189540000Y-197920000D03*
%TD*%
D16*
%TO.C,R137*%
X244040000Y-258990000D03*
D17*
X256740000Y-258990000D03*
%TD*%
D10*
%TO.C,C124*%
X321370000Y-279350000D03*
X311210000Y-279350000D03*
%TD*%
D16*
%TO.C,R171*%
X295430000Y-257090000D03*
D17*
X295430000Y-269790000D03*
%TD*%
D10*
%TO.C,C38*%
X184480000Y-197960000D03*
X174320000Y-197960000D03*
%TD*%
D13*
%TO.C,C24*%
X131130000Y-230400000D03*
D10*
X131130000Y-225320000D03*
%TD*%
D13*
%TO.C,I62*%
X346720000Y-73770000D03*
D14*
X349260000Y-73770000D03*
X351800000Y-73770000D03*
X354340000Y-73770000D03*
X356880000Y-73770000D03*
X359420000Y-73770000D03*
X361960000Y-73770000D03*
X361960000Y-66150000D03*
X359420000Y-66150000D03*
X356880000Y-66150000D03*
X354340000Y-66150000D03*
X351800000Y-66150000D03*
X349260000Y-66150000D03*
X346720000Y-66150000D03*
%TD*%
D13*
%TO.C,C104*%
X243410000Y-315410000D03*
D10*
X248490000Y-315410000D03*
%TD*%
%TO.C,C42*%
X105787500Y-134407500D03*
X105787500Y-124247500D03*
%TD*%
D16*
%TO.C,R50*%
X355730000Y-209390000D03*
D17*
X368430000Y-209390000D03*
%TD*%
D10*
%TO.C,C44*%
X98040000Y-263970000D03*
X108200000Y-263970000D03*
%TD*%
D19*
%TO.C,TP1*%
X164880000Y-330110000D03*
%TD*%
D10*
%TO.C,C134*%
X321460000Y-267240000D03*
X321460000Y-272320000D03*
%TD*%
D16*
%TO.C,R174*%
X295380000Y-284440000D03*
D17*
X295380000Y-297140000D03*
%TD*%
D13*
%TO.C,I12*%
X204505000Y-203110000D03*
D14*
X204505000Y-205650000D03*
X204505000Y-208190000D03*
X204505000Y-210730000D03*
X204505000Y-213270000D03*
X204505000Y-215810000D03*
X204505000Y-218350000D03*
X204505000Y-220890000D03*
X212125000Y-220890000D03*
X212125000Y-218350000D03*
X212125000Y-215810000D03*
X212125000Y-213270000D03*
X212125000Y-210730000D03*
X212125000Y-208190000D03*
X212125000Y-205650000D03*
X212125000Y-203110000D03*
%TD*%
D16*
%TO.C,R163*%
X304820000Y-317490000D03*
D17*
X317520000Y-317490000D03*
%TD*%
D24*
%TO.C,U100*%
X377275000Y-323375000D03*
X368525000Y-247775000D03*
X370250000Y-325900000D03*
X359575000Y-244000000D03*
X363275000Y-323325000D03*
X356300000Y-323325000D03*
D29*
X364825000Y-318850000D03*
D28*
X365250000Y-314950000D03*
D30*
X368450000Y-293175000D03*
D31*
X348825000Y-286075000D03*
X381150000Y-286075000D03*
D32*
X368450000Y-254725000D03*
D29*
X364950000Y-252725000D03*
%TD*%
D16*
%TO.C,R152*%
X274440000Y-310580000D03*
D17*
X261740000Y-310580000D03*
%TD*%
D16*
%TO.C,R164*%
X304840000Y-314400000D03*
D17*
X317540000Y-314400000D03*
%TD*%
D16*
%TO.C,R42*%
X331640000Y-225860000D03*
D17*
X344340000Y-225860000D03*
%TD*%
D16*
%TO.C,R28*%
X164150000Y-131850000D03*
D17*
X164150000Y-119150000D03*
%TD*%
D22*
%TO.C,M14*%
X377450000Y-104360000D03*
X377450000Y-106860000D03*
X369950000Y-106860000D03*
X377450000Y-111860000D03*
X369950000Y-111860000D03*
X377450000Y-116860000D03*
X369950000Y-116860000D03*
X377450000Y-119360000D03*
X374950000Y-106860000D03*
X374950000Y-109360000D03*
X372570000Y-109360000D03*
X374950000Y-114360000D03*
X372570000Y-114380000D03*
X374950000Y-116860000D03*
X374950000Y-104360000D03*
X372430000Y-104360000D03*
X374950000Y-119360000D03*
X372450000Y-119360000D03*
D23*
X387450000Y-106860000D03*
X387450000Y-109360000D03*
X387450000Y-114360000D03*
X387450000Y-116860000D03*
%TD*%
D13*
%TO.C,C117*%
X340460000Y-292090000D03*
D10*
X340460000Y-297170000D03*
%TD*%
D16*
%TO.C,R118*%
X256740000Y-279280000D03*
D17*
X244040000Y-279280000D03*
%TD*%
D13*
%TO.C,I43*%
X128310000Y-106590000D03*
D14*
X130850000Y-106590000D03*
X133390000Y-106590000D03*
X135930000Y-106590000D03*
X138470000Y-106590000D03*
X141010000Y-106590000D03*
X143550000Y-106590000D03*
X146090000Y-106590000D03*
X148630000Y-106590000D03*
X151170000Y-106590000D03*
X151170000Y-98970000D03*
X148630000Y-98970000D03*
X146090000Y-98970000D03*
X143550000Y-98970000D03*
X141010000Y-98970000D03*
X138470000Y-98970000D03*
X135930000Y-98970000D03*
X133390000Y-98970000D03*
X130850000Y-98970000D03*
X128310000Y-98970000D03*
%TD*%
D16*
%TO.C,R3*%
X221140000Y-54600000D03*
D17*
X233840000Y-54600000D03*
%TD*%
D16*
%TO.C,R158*%
X342380000Y-281810000D03*
D17*
X342380000Y-269110000D03*
%TD*%
D16*
%TO.C,R155*%
X290930000Y-281830000D03*
D17*
X278230000Y-281830000D03*
%TD*%
D16*
%TO.C,R176*%
X318280000Y-248160000D03*
D17*
X305580000Y-248160000D03*
%TD*%
D10*
%TO.C,C26*%
X110660000Y-78550000D03*
X123360000Y-78550000D03*
%TD*%
D13*
%TO.C,C133*%
X299230000Y-304240000D03*
D10*
X299230000Y-309320000D03*
%TD*%
D18*
%TO.C,Q126*%
X351690000Y-330880000D03*
X354230000Y-328340000D03*
X356770000Y-330880000D03*
%TD*%
D16*
%TO.C,R5*%
X293490000Y-188990000D03*
D17*
X280790000Y-188990000D03*
%TD*%
D16*
%TO.C,R117*%
X290930000Y-304140000D03*
D17*
X278230000Y-304140000D03*
%TD*%
D13*
%TO.C,C105*%
X275140000Y-294690000D03*
D10*
X270060000Y-294690000D03*
%TD*%
D11*
%TO.C,M4*%
X116380000Y-32910000D03*
D12*
X116380000Y-30370000D03*
X118920000Y-32910000D03*
X118920000Y-30370000D03*
X121460000Y-32910000D03*
X121460000Y-30370000D03*
X124000000Y-32910000D03*
X124000000Y-30370000D03*
X126540000Y-32910000D03*
X126540000Y-30370000D03*
X129080000Y-32910000D03*
X129080000Y-30370000D03*
X131620000Y-32910000D03*
X131620000Y-30370000D03*
X134160000Y-32910000D03*
X134160000Y-30370000D03*
X136700000Y-32910000D03*
X136700000Y-30370000D03*
X139240000Y-32910000D03*
X139240000Y-30370000D03*
X141780000Y-32910000D03*
X141780000Y-30370000D03*
X144320000Y-32910000D03*
X144320000Y-30370000D03*
X146860000Y-32910000D03*
X146860000Y-30370000D03*
X149400000Y-32910000D03*
X149400000Y-30370000D03*
X151940000Y-32910000D03*
X151940000Y-30370000D03*
X154480000Y-32910000D03*
X154480000Y-30370000D03*
X157020000Y-32910000D03*
X157020000Y-30370000D03*
%TD*%
D16*
%TO.C,R11*%
X101900000Y-307390000D03*
D17*
X114600000Y-307390000D03*
%TD*%
D16*
%TO.C,R151*%
X290960000Y-251320000D03*
D17*
X278260000Y-251320000D03*
%TD*%
D13*
%TO.C,C22*%
X217420000Y-232170000D03*
D10*
X217420000Y-227090000D03*
%TD*%
D16*
%TO.C,R126*%
X278260000Y-264110000D03*
D17*
X290960000Y-264110000D03*
%TD*%
D16*
%TO.C,R62*%
X136680000Y-307300000D03*
D17*
X123980000Y-307300000D03*
%TD*%
D16*
%TO.C,R146*%
X290930000Y-311180000D03*
D17*
X278230000Y-311180000D03*
%TD*%
D13*
%TO.C,I101*%
X254770000Y-301610000D03*
D14*
X254770000Y-299070000D03*
X254770000Y-296530000D03*
X254770000Y-293990000D03*
X254770000Y-291450000D03*
X254770000Y-288910000D03*
X254770000Y-286370000D03*
X247150000Y-286370000D03*
X247150000Y-288910000D03*
X247150000Y-291450000D03*
X247150000Y-293990000D03*
X247150000Y-296530000D03*
X247150000Y-299070000D03*
X247150000Y-301610000D03*
%TD*%
D13*
%TO.C,I60*%
X324060000Y-109290000D03*
D14*
X326600000Y-109290000D03*
X329140000Y-109290000D03*
X331680000Y-109290000D03*
X334220000Y-109290000D03*
X336760000Y-109290000D03*
X339300000Y-109290000D03*
X341840000Y-109290000D03*
X344380000Y-109290000D03*
X346920000Y-109290000D03*
X349460000Y-109290000D03*
X352000000Y-109290000D03*
X354540000Y-109290000D03*
X357080000Y-109290000D03*
X357080000Y-94050000D03*
X354540000Y-94050000D03*
X352000000Y-94050000D03*
X349460000Y-94050000D03*
X346920000Y-94050000D03*
X344380000Y-94050000D03*
X341840000Y-94050000D03*
X339300000Y-94050000D03*
X336760000Y-94050000D03*
X334220000Y-94050000D03*
X331680000Y-94050000D03*
X329140000Y-94050000D03*
X326600000Y-94050000D03*
X324060000Y-94050000D03*
%TD*%
D10*
%TO.C,C57*%
X206600000Y-262750000D03*
X216760000Y-262750000D03*
%TD*%
D13*
%TO.C,I46*%
X128490000Y-71040000D03*
D14*
X131030000Y-71040000D03*
X133570000Y-71040000D03*
X136110000Y-71040000D03*
X138650000Y-71040000D03*
X141190000Y-71040000D03*
X143730000Y-71040000D03*
X143730000Y-63420000D03*
X141190000Y-63420000D03*
X138650000Y-63420000D03*
X136110000Y-63420000D03*
X133570000Y-63420000D03*
X131030000Y-63420000D03*
X128490000Y-63420000D03*
%TD*%
D13*
%TO.C,I63*%
X265540000Y-109220000D03*
D14*
X268080000Y-109220000D03*
X270620000Y-109220000D03*
X273160000Y-109220000D03*
X275700000Y-109220000D03*
X278240000Y-109220000D03*
X280780000Y-109220000D03*
X283320000Y-109220000D03*
X285860000Y-109220000D03*
X288400000Y-109220000D03*
X290940000Y-109220000D03*
X293480000Y-109220000D03*
X296020000Y-109220000D03*
X298560000Y-109220000D03*
X301100000Y-109220000D03*
X303640000Y-109220000D03*
X306180000Y-109220000D03*
X308720000Y-109220000D03*
X311260000Y-109220000D03*
X313800000Y-109220000D03*
X313800000Y-93980000D03*
X311260000Y-93980000D03*
X308720000Y-93980000D03*
X306180000Y-93980000D03*
X303640000Y-93980000D03*
X301100000Y-93980000D03*
X298560000Y-93980000D03*
X296020000Y-93980000D03*
X293480000Y-93980000D03*
X290940000Y-93980000D03*
X288400000Y-93980000D03*
X285860000Y-93980000D03*
X283320000Y-93980000D03*
X280780000Y-93980000D03*
X278240000Y-93980000D03*
X275700000Y-93980000D03*
X273160000Y-93980000D03*
X270620000Y-93980000D03*
X268080000Y-93980000D03*
X265540000Y-93980000D03*
%TD*%
D13*
%TO.C,C111*%
X268090000Y-323800000D03*
D10*
X268090000Y-318720000D03*
%TD*%
%TO.C,C8*%
X222390000Y-269150000D03*
X222390000Y-281850000D03*
%TD*%
D13*
%TO.C,I1*%
X212180000Y-63590000D03*
D14*
X212180000Y-66130000D03*
X212180000Y-68670000D03*
X212180000Y-71210000D03*
X212180000Y-73750000D03*
X212180000Y-76290000D03*
X212180000Y-78830000D03*
X212180000Y-81370000D03*
X212180000Y-83910000D03*
X212180000Y-86450000D03*
X212180000Y-88990000D03*
X212180000Y-91530000D03*
X212180000Y-94070000D03*
X212180000Y-96610000D03*
X212180000Y-99150000D03*
X212180000Y-101690000D03*
X212180000Y-104230000D03*
X212180000Y-106770000D03*
X212180000Y-109310000D03*
X212180000Y-111850000D03*
X227420000Y-111850000D03*
X227420000Y-109310000D03*
X227420000Y-106770000D03*
X227420000Y-104230000D03*
X227420000Y-101690000D03*
X227420000Y-99150000D03*
X227420000Y-96610000D03*
X227420000Y-94070000D03*
X227420000Y-91530000D03*
X227420000Y-88990000D03*
X227420000Y-86450000D03*
X227420000Y-83910000D03*
X227420000Y-81370000D03*
X227420000Y-78830000D03*
X227420000Y-76290000D03*
X227420000Y-73750000D03*
X227420000Y-71210000D03*
X227420000Y-68670000D03*
X227420000Y-66130000D03*
X227420000Y-63590000D03*
%TD*%
D16*
%TO.C,R33*%
X175580000Y-157170000D03*
D17*
X175580000Y-144470000D03*
%TD*%
D13*
%TO.C,I500*%
X323940000Y-139750000D03*
D14*
X326480000Y-139750000D03*
X329020000Y-139750000D03*
X331560000Y-139750000D03*
X334100000Y-139750000D03*
X336640000Y-139750000D03*
X339180000Y-139750000D03*
X341720000Y-139750000D03*
X344260000Y-139750000D03*
X346800000Y-139750000D03*
X349340000Y-139750000D03*
X351880000Y-139750000D03*
X354420000Y-139750000D03*
X356960000Y-139750000D03*
X356960000Y-124510000D03*
X354420000Y-124510000D03*
X351880000Y-124510000D03*
X349340000Y-124510000D03*
X346800000Y-124510000D03*
X344260000Y-124510000D03*
X341720000Y-124510000D03*
X339180000Y-124510000D03*
X336640000Y-124510000D03*
X334100000Y-124510000D03*
X331560000Y-124510000D03*
X329020000Y-124510000D03*
X326480000Y-124510000D03*
X323940000Y-124510000D03*
%TD*%
D16*
%TO.C,R122*%
X274380000Y-332180000D03*
D17*
X261680000Y-332180000D03*
%TD*%
D10*
%TO.C,C51*%
X318910000Y-109120000D03*
X318910000Y-98960000D03*
%TD*%
D16*
%TO.C,R6*%
X310020000Y-188990000D03*
D17*
X297320000Y-188990000D03*
%TD*%
D10*
%TO.C,C55*%
X193200000Y-295870000D03*
X183040000Y-295870000D03*
%TD*%
D13*
%TO.C,I33*%
X303660000Y-162440000D03*
D14*
X306200000Y-162440000D03*
X308740000Y-162440000D03*
X311280000Y-162440000D03*
X313820000Y-162440000D03*
X316360000Y-162440000D03*
X318900000Y-162440000D03*
X318900000Y-154820000D03*
X316360000Y-154820000D03*
X313820000Y-154820000D03*
X311280000Y-154820000D03*
X308740000Y-154820000D03*
X306200000Y-154820000D03*
X303660000Y-154820000D03*
%TD*%
D21*
%TO.C,M7*%
X176830000Y-229760000D03*
X181910000Y-229760000D03*
X186990000Y-229760000D03*
X192070000Y-229760000D03*
X197150000Y-229760000D03*
%TD*%
D33*
%TO.C,C131*%
X297340000Y-253860000D03*
X302420000Y-248780000D03*
X297340000Y-248780000D03*
%TD*%
D16*
%TO.C,R35*%
X154000000Y-174880000D03*
D17*
X154000000Y-162180000D03*
%TD*%
D13*
%TO.C,C103*%
X241440000Y-294570000D03*
D10*
X241440000Y-299650000D03*
%TD*%
%TO.C,C53*%
X362060000Y-109250000D03*
X362060000Y-99090000D03*
%TD*%
D16*
%TO.C,R41*%
X156580000Y-195405000D03*
D17*
X156580000Y-182705000D03*
%TD*%
D18*
%TO.C,Q3*%
X219200000Y-306000000D03*
X221740000Y-303460000D03*
X224280000Y-306000000D03*
%TD*%
D33*
%TO.C,M6*%
X111420000Y-330290000D03*
X113920000Y-330290000D03*
X116420000Y-330290000D03*
X118920000Y-330290000D03*
X121420000Y-330290000D03*
X123920000Y-330290000D03*
X126420000Y-330290000D03*
X128920000Y-330290000D03*
X131420000Y-330290000D03*
X133920000Y-330290000D03*
X136420000Y-330290000D03*
X138920000Y-330290000D03*
X141420000Y-330290000D03*
X143920000Y-330290000D03*
X146420000Y-330290000D03*
X148920000Y-330290000D03*
X151420000Y-330290000D03*
X153920000Y-330290000D03*
X156380000Y-330290000D03*
X158920000Y-330290000D03*
%TD*%
D16*
%TO.C,R116*%
X278230000Y-300940000D03*
D17*
X290930000Y-300940000D03*
%TD*%
D16*
%TO.C,R127*%
X274490000Y-281260000D03*
D17*
X261790000Y-281260000D03*
%TD*%
D13*
%TO.C,I25*%
X354430000Y-180260000D03*
D14*
X356970000Y-180260000D03*
X359510000Y-180260000D03*
X362050000Y-180260000D03*
X364590000Y-180260000D03*
X367130000Y-180260000D03*
X369670000Y-180260000D03*
X369670000Y-172640000D03*
X367130000Y-172640000D03*
X364590000Y-172640000D03*
X362050000Y-172640000D03*
X359510000Y-172640000D03*
X356970000Y-172640000D03*
X354430000Y-172640000D03*
%TD*%
D16*
%TO.C,R31*%
X159100000Y-131850000D03*
D17*
X159100000Y-119150000D03*
%TD*%
D16*
%TO.C,R47*%
X123360000Y-88840000D03*
D17*
X110660000Y-88840000D03*
%TD*%
D16*
%TO.C,R32*%
X171720000Y-157170000D03*
D17*
X171720000Y-144470000D03*
%TD*%
D13*
%TO.C,C126*%
X305550000Y-292700000D03*
D10*
X305550000Y-287620000D03*
%TD*%
D16*
%TO.C,R1*%
X218600000Y-54600000D03*
D17*
X205900000Y-54600000D03*
%TD*%
D16*
%TO.C,R46*%
X123360000Y-93890000D03*
D17*
X110660000Y-93890000D03*
%TD*%
D20*
%TO.C,D5*%
X101400000Y-196550000D03*
D17*
X111560000Y-196550000D03*
%TD*%
D10*
%TO.C,C18*%
X100580000Y-88770000D03*
X100580000Y-76070000D03*
%TD*%
%TO.C,C115*%
X307360000Y-324570000D03*
X317520000Y-324570000D03*
%TD*%
%TO.C,C7*%
X227440000Y-269150000D03*
X227440000Y-281850000D03*
%TD*%
D16*
%TO.C,R38*%
X355730000Y-205570000D03*
D17*
X368430000Y-205570000D03*
%TD*%
D10*
%TO.C,C136*%
X234527500Y-323297500D03*
X234527500Y-313137500D03*
%TD*%
D16*
%TO.C,R120*%
X244040000Y-276100000D03*
D17*
X256740000Y-276100000D03*
%TD*%
D10*
%TO.C,C125*%
X305580000Y-275550000D03*
X295420000Y-275550000D03*
%TD*%
D13*
%TO.C,I34*%
X303720000Y-180240000D03*
D14*
X306260000Y-180240000D03*
X308800000Y-180240000D03*
X311340000Y-180240000D03*
X313880000Y-180240000D03*
X316420000Y-180240000D03*
X318960000Y-180240000D03*
X318960000Y-172620000D03*
X316420000Y-172620000D03*
X313880000Y-172620000D03*
X311340000Y-172620000D03*
X308800000Y-172620000D03*
X306260000Y-172620000D03*
X303720000Y-172620000D03*
%TD*%
D16*
%TO.C,R17*%
X170340000Y-279320000D03*
D17*
X170340000Y-292020000D03*
%TD*%
D10*
%TO.C,C10*%
X167980000Y-157170000D03*
X167980000Y-144470000D03*
%TD*%
D13*
%TO.C,I2*%
X189425000Y-96485000D03*
D14*
X189425000Y-99025000D03*
X189425000Y-101565000D03*
X189425000Y-104105000D03*
X189425000Y-106645000D03*
X189425000Y-109185000D03*
X189425000Y-111725000D03*
X189425000Y-114265000D03*
X189425000Y-116805000D03*
X189425000Y-119345000D03*
X197045000Y-119345000D03*
X197045000Y-116805000D03*
X197045000Y-114265000D03*
X197045000Y-111725000D03*
X197045000Y-109185000D03*
X197045000Y-106645000D03*
X197045000Y-104105000D03*
X197045000Y-101565000D03*
X197045000Y-99025000D03*
X197045000Y-96485000D03*
%TD*%
D13*
%TO.C,C14*%
X354480000Y-154860000D03*
D10*
X359560000Y-154860000D03*
%TD*%
D16*
%TO.C,R150*%
X278260000Y-260860000D03*
D17*
X290960000Y-260860000D03*
%TD*%
D16*
%TO.C,R154*%
X274490000Y-283760000D03*
D17*
X261790000Y-283760000D03*
%TD*%
D13*
%TO.C,I56*%
X303630000Y-220880000D03*
D14*
X306170000Y-220880000D03*
X308710000Y-220880000D03*
X311250000Y-220880000D03*
X313790000Y-220880000D03*
X316330000Y-220880000D03*
X318870000Y-220880000D03*
X321410000Y-220880000D03*
X321410000Y-213260000D03*
X318870000Y-213260000D03*
X316330000Y-213260000D03*
X313790000Y-213260000D03*
X311250000Y-213260000D03*
X308710000Y-213260000D03*
X306170000Y-213260000D03*
X303630000Y-213260000D03*
%TD*%
D16*
%TO.C,R34*%
X138780000Y-162180000D03*
D17*
X138780000Y-174880000D03*
%TD*%
D10*
%TO.C,C32*%
X230140000Y-197950000D03*
X219980000Y-197950000D03*
%TD*%
D13*
%TO.C,I105*%
X323290000Y-262290000D03*
D14*
X325830000Y-262290000D03*
X328370000Y-262290000D03*
X330910000Y-262290000D03*
X333450000Y-262290000D03*
X335990000Y-262290000D03*
X338530000Y-262290000D03*
X341070000Y-262290000D03*
X343610000Y-262290000D03*
X343610000Y-254670000D03*
X341070000Y-254670000D03*
X338530000Y-254670000D03*
X335990000Y-254670000D03*
X333450000Y-254670000D03*
X330910000Y-254670000D03*
X328370000Y-254670000D03*
X325830000Y-254670000D03*
X323290000Y-254670000D03*
%TD*%
D13*
%TO.C,C20*%
X131150000Y-204280000D03*
D10*
X136230000Y-204280000D03*
%TD*%
%TO.C,C63*%
X226220000Y-125720000D03*
X216060000Y-125720000D03*
%TD*%
D13*
%TO.C,I55*%
X329100000Y-220900000D03*
D14*
X331640000Y-220900000D03*
X334180000Y-220900000D03*
X336720000Y-220900000D03*
X339260000Y-220900000D03*
X341800000Y-220900000D03*
X344340000Y-220900000D03*
X346880000Y-220900000D03*
X346880000Y-213280000D03*
X344340000Y-213280000D03*
X341800000Y-213280000D03*
X339260000Y-213280000D03*
X336720000Y-213280000D03*
X334180000Y-213280000D03*
X331640000Y-213280000D03*
X329100000Y-213280000D03*
%TD*%
D16*
%TO.C,R132*%
X290930000Y-328960000D03*
D17*
X278230000Y-328960000D03*
%TD*%
D13*
%TO.C,I64*%
X278280000Y-237460000D03*
D14*
X280820000Y-237460000D03*
X283360000Y-237460000D03*
X285900000Y-237460000D03*
X288440000Y-237460000D03*
X290980000Y-237460000D03*
X293520000Y-237460000D03*
X293520000Y-229840000D03*
X290980000Y-229840000D03*
X288440000Y-229840000D03*
X285900000Y-229840000D03*
X283360000Y-229840000D03*
X280820000Y-229840000D03*
X278280000Y-229840000D03*
%TD*%
D10*
%TO.C,C13*%
X331560000Y-144690000D03*
X336640000Y-144690000D03*
%TD*%
D18*
%TO.C,Q121*%
X263650000Y-285730000D03*
X266190000Y-288270000D03*
X263650000Y-290810000D03*
%TD*%
%TO.C,Q118*%
X272620000Y-250020000D03*
X275160000Y-252560000D03*
X272620000Y-255100000D03*
%TD*%
D16*
%TO.C,R147*%
X278230000Y-294650000D03*
D17*
X290930000Y-294650000D03*
%TD*%
D13*
%TO.C,C102*%
X241460000Y-286360000D03*
D10*
X241460000Y-291440000D03*
%TD*%
%TO.C,C4*%
X165270000Y-292020000D03*
X165270000Y-279320000D03*
%TD*%
%TO.C,C34*%
X214890000Y-197960000D03*
X204730000Y-197960000D03*
%TD*%
D13*
%TO.C,I30*%
X100540000Y-286980000D03*
D14*
X103080000Y-286980000D03*
X105620000Y-286980000D03*
X108160000Y-286980000D03*
X110700000Y-286980000D03*
X113240000Y-286980000D03*
X115780000Y-286980000D03*
X118320000Y-286980000D03*
X120860000Y-286980000D03*
X123400000Y-286980000D03*
X125940000Y-286980000D03*
X128480000Y-286980000D03*
X131020000Y-286980000D03*
X133560000Y-286980000D03*
X136100000Y-286980000D03*
X138640000Y-286980000D03*
X141180000Y-286980000D03*
X143720000Y-286980000D03*
X146260000Y-286980000D03*
X148800000Y-286980000D03*
X148800000Y-271740000D03*
X146260000Y-271740000D03*
X143720000Y-271740000D03*
X141180000Y-271740000D03*
X138640000Y-271740000D03*
X136100000Y-271740000D03*
X133560000Y-271740000D03*
X131020000Y-271740000D03*
X128480000Y-271740000D03*
X125940000Y-271740000D03*
X123400000Y-271740000D03*
X120860000Y-271740000D03*
X118320000Y-271740000D03*
X115780000Y-271740000D03*
X113240000Y-271740000D03*
X110700000Y-271740000D03*
X108160000Y-271740000D03*
X105620000Y-271740000D03*
X103080000Y-271740000D03*
X100540000Y-271740000D03*
%TD*%
D18*
%TO.C,Q122*%
X263630000Y-250020000D03*
X266170000Y-252560000D03*
X263630000Y-255100000D03*
%TD*%
D16*
%TO.C,R45*%
X356960000Y-61060000D03*
D17*
X344260000Y-61060000D03*
%TD*%
D11*
%TO.C,M18*%
X211060000Y-133100000D03*
X211060000Y-135640000D03*
X211060000Y-138180000D03*
%TD*%
D16*
%TO.C,R21*%
X215930000Y-327840000D03*
D17*
X203230000Y-327840000D03*
%TD*%
D10*
%TO.C,C2*%
X297320000Y-185210000D03*
X307480000Y-185210000D03*
%TD*%
D16*
%TO.C,R140*%
X290930000Y-314340000D03*
D17*
X278230000Y-314340000D03*
%TD*%
D13*
%TO.C,I27*%
X252990000Y-200500000D03*
D14*
X255530000Y-200500000D03*
X258070000Y-200500000D03*
X260610000Y-200500000D03*
X263150000Y-200500000D03*
X265690000Y-200500000D03*
X268230000Y-200500000D03*
X270770000Y-200500000D03*
X270770000Y-192880000D03*
X268230000Y-192880000D03*
X265690000Y-192880000D03*
X263150000Y-192880000D03*
X260610000Y-192880000D03*
X258070000Y-192880000D03*
X255530000Y-192880000D03*
X252990000Y-192880000D03*
%TD*%
D16*
%TO.C,L100*%
X305580000Y-271730000D03*
D17*
X318280000Y-271730000D03*
%TD*%
D13*
%TO.C,I35*%
X115830000Y-256420000D03*
D14*
X118370000Y-256420000D03*
X120910000Y-256420000D03*
X123450000Y-256420000D03*
X125990000Y-256420000D03*
X128530000Y-256420000D03*
X131070000Y-256420000D03*
X131070000Y-248800000D03*
X128530000Y-248800000D03*
X125990000Y-248800000D03*
X123450000Y-248800000D03*
X120910000Y-248800000D03*
X118370000Y-248800000D03*
X115830000Y-248800000D03*
%TD*%
D13*
%TO.C,I11*%
X204505000Y-174970000D03*
D14*
X204505000Y-177510000D03*
X204505000Y-180050000D03*
X204505000Y-182590000D03*
X204505000Y-185130000D03*
X204505000Y-187670000D03*
X204505000Y-190210000D03*
X204505000Y-192750000D03*
X212125000Y-192750000D03*
X212125000Y-190210000D03*
X212125000Y-187670000D03*
X212125000Y-185130000D03*
X212125000Y-182590000D03*
X212125000Y-180050000D03*
X212125000Y-177510000D03*
X212125000Y-174970000D03*
%TD*%
D10*
%TO.C,C123*%
X339100000Y-325850000D03*
X336560000Y-325850000D03*
%TD*%
D16*
%TO.C,R37*%
X344260000Y-52230000D03*
D17*
X356960000Y-52230000D03*
%TD*%
D10*
%TO.C,C137*%
X290980000Y-272930000D03*
X296060000Y-272930000D03*
%TD*%
D13*
%TO.C,I31*%
X329070000Y-200510000D03*
D14*
X331610000Y-200510000D03*
X334150000Y-200510000D03*
X336690000Y-200510000D03*
X339230000Y-200510000D03*
X341770000Y-200510000D03*
X344310000Y-200510000D03*
X344310000Y-192890000D03*
X341770000Y-192890000D03*
X339230000Y-192890000D03*
X336690000Y-192890000D03*
X334150000Y-192890000D03*
X331610000Y-192890000D03*
X329070000Y-192890000D03*
%TD*%
D15*
%TO.C,M3*%
X179250000Y-32920000D03*
D11*
X179250000Y-30380000D03*
X181790000Y-32920000D03*
X181790000Y-30380000D03*
X184330000Y-32920000D03*
X184330000Y-30380000D03*
X186870000Y-32920000D03*
X186870000Y-30380000D03*
X189410000Y-32920000D03*
X189410000Y-30380000D03*
X191950000Y-32920000D03*
X191950000Y-30380000D03*
X194490000Y-32920000D03*
X194490000Y-30380000D03*
X197030000Y-32920000D03*
X197030000Y-30380000D03*
X199570000Y-32920000D03*
X199570000Y-30380000D03*
X202110000Y-32920000D03*
X202110000Y-30380000D03*
X204650000Y-32920000D03*
X204650000Y-30380000D03*
X207190000Y-32920000D03*
X207190000Y-30380000D03*
X209730000Y-32920000D03*
X209730000Y-30380000D03*
X212270000Y-32920000D03*
X212270000Y-30380000D03*
X214810000Y-32920000D03*
X214810000Y-30380000D03*
X217350000Y-32920000D03*
X217350000Y-30380000D03*
X219890000Y-32920000D03*
X219890000Y-30380000D03*
X222430000Y-32920000D03*
X222430000Y-30380000D03*
X224970000Y-32920000D03*
X224970000Y-30380000D03*
X227510000Y-32920000D03*
X227510000Y-30380000D03*
X230050000Y-32920000D03*
X230050000Y-30380000D03*
X232590000Y-32920000D03*
X232590000Y-30380000D03*
X235130000Y-32920000D03*
X235130000Y-30380000D03*
X237670000Y-32920000D03*
X237670000Y-30380000D03*
X240210000Y-32920000D03*
X240210000Y-30380000D03*
X242750000Y-32920000D03*
X242750000Y-30380000D03*
X245290000Y-32920000D03*
X245290000Y-30380000D03*
X247830000Y-32920000D03*
X247830000Y-30380000D03*
X250370000Y-32920000D03*
X250370000Y-30380000D03*
X252910000Y-32920000D03*
X252910000Y-30380000D03*
%TD*%
D13*
%TO.C,C113*%
X268220000Y-261530000D03*
D10*
X268220000Y-256450000D03*
%TD*%
D13*
%TO.C,I45*%
X105570000Y-71080000D03*
D14*
X108110000Y-71080000D03*
X110650000Y-71080000D03*
X113190000Y-71080000D03*
X115730000Y-71080000D03*
X118270000Y-71080000D03*
X120810000Y-71080000D03*
X120810000Y-63460000D03*
X118270000Y-63460000D03*
X115730000Y-63460000D03*
X113190000Y-63460000D03*
X110650000Y-63460000D03*
X108110000Y-63460000D03*
X105570000Y-63460000D03*
%TD*%
D16*
%TO.C,R20*%
X153870000Y-279330000D03*
D17*
X153870000Y-292030000D03*
%TD*%
D34*
%TO.C,R16*%
X373932500Y-131540000D03*
X373932500Y-136620000D03*
X373932500Y-141700000D03*
D35*
X376482500Y-146800000D03*
X376482500Y-126400000D03*
%TD*%
D16*
%TO.C,R136*%
X256740000Y-262150000D03*
D17*
X244040000Y-262150000D03*
%TD*%
D10*
%TO.C,C62*%
X190770000Y-125520000D03*
X200930000Y-125520000D03*
%TD*%
D16*
%TO.C,R54*%
X131250000Y-182530000D03*
D17*
X131250000Y-195230000D03*
%TD*%
D13*
%TO.C,C21*%
X161480000Y-230300000D03*
D10*
X161480000Y-225220000D03*
%TD*%
%TO.C,C31*%
X230120000Y-169840000D03*
X219960000Y-169840000D03*
%TD*%
D16*
%TO.C,R134*%
X274490000Y-278640000D03*
D17*
X261790000Y-278640000D03*
%TD*%
D10*
%TO.C,C11*%
X148940000Y-174880000D03*
X148940000Y-162180000D03*
%TD*%
D13*
%TO.C,C135*%
X235150000Y-305970000D03*
D10*
X240230000Y-305970000D03*
%TD*%
D16*
%TO.C,R55*%
X141440000Y-182530000D03*
D17*
X141440000Y-195230000D03*
%TD*%
D16*
%TO.C,R44*%
X334260000Y-81280000D03*
D17*
X321560000Y-81280000D03*
%TD*%
D10*
%TO.C,C27*%
X222480000Y-116630000D03*
X212320000Y-116630000D03*
%TD*%
D13*
%TO.C,I50*%
X331570000Y-135840000D03*
D14*
X334110000Y-135840000D03*
X336650000Y-135840000D03*
X339190000Y-135840000D03*
X341730000Y-135840000D03*
X344270000Y-135840000D03*
X346810000Y-135840000D03*
X349350000Y-135840000D03*
X351890000Y-135840000D03*
X354430000Y-135840000D03*
X354430000Y-128220000D03*
X351890000Y-128220000D03*
X349350000Y-128220000D03*
X346810000Y-128220000D03*
X344270000Y-128220000D03*
X341730000Y-128220000D03*
X339190000Y-128220000D03*
X336650000Y-128220000D03*
X334110000Y-128220000D03*
X331570000Y-128220000D03*
%TD*%
D18*
%TO.C,Q117*%
X272575000Y-285730000D03*
X275115000Y-288270000D03*
X272575000Y-290810000D03*
%TD*%
D16*
%TO.C,R12*%
X330240000Y-205550000D03*
D17*
X342940000Y-205550000D03*
%TD*%
D18*
%TO.C,Q4*%
X161560000Y-162350000D03*
X159020000Y-164890000D03*
X161560000Y-167430000D03*
%TD*%
%TO.C,Q112*%
X272615000Y-298420000D03*
X275155000Y-300960000D03*
X272615000Y-303500000D03*
%TD*%
D13*
%TO.C,I23*%
X190760000Y-130750000D03*
D14*
X190760000Y-133290000D03*
X190760000Y-135830000D03*
X190760000Y-138370000D03*
X190760000Y-140910000D03*
X190760000Y-143450000D03*
X190760000Y-145990000D03*
X190760000Y-148530000D03*
X190760000Y-151070000D03*
X190760000Y-153610000D03*
X190760000Y-156150000D03*
X190760000Y-158690000D03*
X190760000Y-161230000D03*
X190760000Y-163770000D03*
X206000000Y-163770000D03*
X206000000Y-161230000D03*
X206000000Y-158690000D03*
X206000000Y-156150000D03*
X206000000Y-153610000D03*
X206000000Y-151070000D03*
X206000000Y-148530000D03*
X206000000Y-145990000D03*
X206000000Y-143450000D03*
X206000000Y-140910000D03*
X206000000Y-138370000D03*
X206000000Y-135830000D03*
X206000000Y-133290000D03*
X206000000Y-130750000D03*
%TD*%
D16*
%TO.C,R105*%
X317520000Y-330980000D03*
D17*
X304820000Y-330980000D03*
%TD*%
D16*
%TO.C,R114*%
X244600000Y-306100000D03*
D17*
X257300000Y-306100000D03*
%TD*%
D16*
%TO.C,R125*%
X274440000Y-308020000D03*
D17*
X261740000Y-308020000D03*
%TD*%
D10*
%TO.C,C127*%
X305510000Y-260870000D03*
X308050000Y-260870000D03*
%TD*%
D16*
%TO.C,R57*%
X315050000Y-76190000D03*
D17*
X302350000Y-76190000D03*
%TD*%
D10*
%TO.C,C58*%
X148837500Y-89977500D03*
X148837500Y-79817500D03*
%TD*%
D16*
%TO.C,R115*%
X257300000Y-309290000D03*
D17*
X244600000Y-309290000D03*
%TD*%
D13*
%TO.C,I61*%
X323990000Y-73780000D03*
D14*
X326530000Y-73780000D03*
X329070000Y-73780000D03*
X331610000Y-73780000D03*
X334150000Y-73780000D03*
X336690000Y-73780000D03*
X339230000Y-73780000D03*
X339230000Y-66160000D03*
X336690000Y-66160000D03*
X334150000Y-66160000D03*
X331610000Y-66160000D03*
X329070000Y-66160000D03*
X326530000Y-66160000D03*
X323990000Y-66160000D03*
%TD*%
D13*
%TO.C,I65*%
X252940000Y-237490000D03*
D14*
X255480000Y-237490000D03*
X258020000Y-237490000D03*
X260560000Y-237490000D03*
X263100000Y-237490000D03*
X265640000Y-237490000D03*
X268180000Y-237490000D03*
X270720000Y-237490000D03*
X270720000Y-229870000D03*
X268180000Y-229870000D03*
X265640000Y-229870000D03*
X263100000Y-229870000D03*
X260560000Y-229870000D03*
X258020000Y-229870000D03*
X255480000Y-229870000D03*
X252940000Y-229870000D03*
%TD*%
D16*
%TO.C,R51*%
X101360000Y-204170000D03*
D17*
X114060000Y-204170000D03*
%TD*%
D16*
%TO.C,R27*%
X174250000Y-131850000D03*
D17*
X174250000Y-119150000D03*
%TD*%
D10*
%TO.C,C12*%
X331560000Y-149740000D03*
X336640000Y-149740000D03*
%TD*%
D16*
%TO.C,R48*%
X208450000Y-254550000D03*
D17*
X221150000Y-254550000D03*
%TD*%
D36*
%TO.C,JP4*%
X106225000Y-112900000D03*
X107275000Y-112900000D03*
%TD*%
%TO.C,JP5*%
X106225000Y-115675000D03*
X107275000Y-115675000D03*
%TD*%
M02*
