M48
; DRILL file {KiCad 9.0.3} date 2025-11-18T20:02:21+0000
; FORMAT={-:-/ absolute / inch / decimal}
; #@! TF.CreationDate,2025-11-18T20:02:21+00:00
; #@! TF.GenerationSoftware,Kicad,Pcbnew,9.0.3
; #@! TF.FileFunction,Plated,1,2,PTH
FMAT,2
INCH
; #@! TA.AperFunction,Plated,PTH,ComponentDrill
T1C0.0276
; #@! TA.AperFunction,Plated,PTH,ComponentDrill
T2C0.0315
; #@! TA.AperFunction,Plated,PTH,ComponentDrill
T3C0.0354
; #@! TA.AperFunction,Plated,PTH,ComponentDrill
T4C0.0394
; #@! TA.AperFunction,Plated,PTH,ComponentDrill
T5C0.0472
%
G90
G05
T1
X6.7177Y-3.6776
X7.1177Y-3.6776
X8.4248Y-4.2213
X8.4248Y-4.6213
X8.6626Y-3.6732
X8.6626Y-3.7732
X8.6626Y-3.8732
X8.6626Y-3.9732
X8.6626Y-4.0736
X8.6626Y-4.1736
X9.0626Y-3.6732
X9.0626Y-3.7732
X9.0626Y-3.8732
X9.0626Y-3.9732
X9.0626Y-4.0736
X9.0626Y-4.1736
T2
X6.3953Y-4.0213
X6.3953Y-4.6213
X6.3954Y-3.8975
X6.4953Y-4.0213
X6.4953Y-4.6213
X6.5953Y-4.0213
X6.5953Y-4.6213
X6.6953Y-4.0213
X6.6953Y-4.6213
X6.7953Y-4.0213
X6.7953Y-4.6213
X6.7954Y-3.8975
X6.8953Y-4.0213
X6.8953Y-4.6213
X6.9953Y-4.0213
X6.9953Y-4.6213
X7.0953Y-4.0213
X7.0953Y-4.6213
X7.1953Y-4.0213
X7.1953Y-4.6213
X7.2953Y-4.0213
X7.2953Y-4.6213
X7.3953Y-4.0213
X7.3953Y-4.6213
X7.4953Y-4.0213
X7.4953Y-4.6213
X7.5953Y-4.0213
X7.5953Y-4.6213
X7.6953Y-4.0213
X7.6953Y-4.6213
X7.7953Y-4.0213
X7.7953Y-4.6213
X7.8953Y-4.0213
X7.8953Y-4.6213
X7.9953Y-4.0213
X7.9953Y-4.6213
X8.0953Y-4.0213
X8.0953Y-4.6213
X8.1953Y-4.0213
X8.1953Y-4.6213
X8.2953Y-4.0213
X8.2953Y-4.6213
X8.9937Y-4.511
X8.9937Y-4.8008
X8.9937Y-5.0917
X9.0937Y-4.411
X9.0937Y-4.7008
X9.0937Y-4.9917
X9.1937Y-4.511
X9.1937Y-4.8008
X9.1937Y-5.0917
T3
X7.465Y-3.676
X7.565Y-3.676
X7.7785Y-3.676
X7.8785Y-3.676
X8.0551Y-3.676
X8.1551Y-3.676
X8.3303Y-3.676
X8.4303Y-3.676
T4
X6.7551Y-5.0827
X6.8551Y-5.0827
X6.9551Y-5.0827
X7.0551Y-5.0827
X7.1551Y-5.0827
X7.2551Y-5.0827
X7.3102Y-2.773
X7.3102Y-3.373
X7.3551Y-5.0827
X7.4102Y-2.773
X7.4102Y-3.373
X7.4551Y-5.0827
X7.5102Y-2.773
X7.5102Y-3.373
X7.5551Y-5.0827
X7.6102Y-2.773
X7.6102Y-3.373
X7.6551Y-5.0827
X7.7102Y-2.773
X7.7102Y-3.373
X7.7551Y-5.0827
X7.8102Y-2.773
X7.8102Y-3.373
X7.8551Y-5.0827
X7.9102Y-2.773
X7.9102Y-3.373
X7.9551Y-5.0827
X8.0102Y-2.773
X8.0102Y-3.373
X8.0551Y-5.0827
X8.1102Y-2.773
X8.1102Y-3.373
X8.1551Y-5.0827
X8.2102Y-2.773
X8.2102Y-3.373
X8.2551Y-5.0827
X8.3102Y-2.773
X8.3102Y-3.373
X8.3551Y-5.0827
X8.4102Y-2.773
X8.4102Y-3.373
X8.4551Y-5.0827
X8.5102Y-2.773
X8.5102Y-3.373
X8.5551Y-5.0827
X8.6102Y-2.773
X8.6102Y-3.373
X8.6551Y-5.0827
X8.7102Y-2.773
X8.7102Y-3.373
X8.7689Y-2.3307
X8.7689Y-2.4291
T5
X6.7709Y-4.9843
X6.7709Y-5.1811
X6.8693Y-4.9843
X6.8693Y-5.1811
X6.9677Y-4.9843
X6.9677Y-5.1811
X7.0661Y-4.9843
X7.0661Y-5.1811
X7.1646Y-4.9843
X7.1646Y-5.1811
X7.2157Y-2.4165
X7.2157Y-2.5268
X7.263Y-4.9843
X7.263Y-5.1811
X7.2984Y-2.4165
X7.3614Y-4.9843
X7.3614Y-5.1811
X7.4008Y-2.4165
X7.4598Y-4.9843
X7.4598Y-5.1811
X7.4835Y-2.4165
X7.4835Y-2.5268
X7.5583Y-4.9843
X7.5583Y-5.1811
X7.6567Y-4.9843
X7.6567Y-5.1811
X7.7551Y-4.9843
X7.7551Y-5.1811
X7.8535Y-4.9843
X7.8535Y-5.1811
X7.952Y-4.9843
X7.952Y-5.1811
X8.0504Y-4.9843
X8.0504Y-5.1811
X8.1488Y-4.9843
X8.1488Y-5.1811
X8.2472Y-4.9843
X8.2472Y-5.1811
X8.3457Y-4.9843
X8.3457Y-5.1811
X8.4441Y-4.9843
X8.4441Y-5.1811
X8.5409Y-4.9843
X8.5409Y-5.1811
X8.6409Y-4.9843
X8.6409Y-5.1811
T4
G00X7.0799Y-2.3339
M15
G01X7.0799Y-2.2748
M16
G05
G00X7.389Y-2.2728
M15
G01X7.3102Y-2.2728
M16
G05
G00X7.6193Y-2.3339
M15
G01X7.6193Y-2.2748
M16
G05
G00X8.148Y-2.4642
M15
G01X8.148Y-2.5429
M16
G05
G00X8.3724Y-2.3854
M15
G01X8.2937Y-2.3854
M16
G05
G00X8.3724Y-2.6217
M15
G01X8.2937Y-2.6217
M16
G05
M30
