%TF.GenerationSoftware,KiCad,Pcbnew,9.0.3*%
%TF.CreationDate,2025-11-18T20:02:22+00:00*%
%TF.ProjectId,EinsteinTC01PS2,45696e73-7465-4696-9e54-433031505332,rev?*%
%TF.SameCoordinates,Original*%
%TF.FileFunction,Legend,Bot*%
%TF.FilePolarity,Positive*%
%FSLAX46Y46*%
G04 Gerber Fmt 4.6, Leading zero omitted, Abs format (unit mm)*
G04 Created by KiCad (PCBNEW 9.0.3) date 2025-11-18 20:02:22*
%MOMM*%
%LPD*%
G01*
G04 APERTURE LIST*
%ADD10C,0.300000*%
G04 APERTURE END LIST*
D10*
X209836917Y-114716542D02*
X209908346Y-114645114D01*
X209908346Y-114645114D02*
X210051203Y-114573685D01*
X210051203Y-114573685D02*
X210194060Y-114573685D01*
X210194060Y-114573685D02*
X210336917Y-114645114D01*
X210336917Y-114645114D02*
X210408346Y-114716542D01*
X210408346Y-114716542D02*
X210479774Y-114859400D01*
X210479774Y-114859400D02*
X210479774Y-115002257D01*
X210479774Y-115002257D02*
X210408346Y-115145114D01*
X210408346Y-115145114D02*
X210336917Y-115216542D01*
X210336917Y-115216542D02*
X210194060Y-115287971D01*
X210194060Y-115287971D02*
X210051203Y-115287971D01*
X210051203Y-115287971D02*
X209908346Y-115216542D01*
X209908346Y-115216542D02*
X209836917Y-115145114D01*
X209836917Y-114573685D02*
X209836917Y-115145114D01*
X209836917Y-115145114D02*
X209765489Y-115216542D01*
X209765489Y-115216542D02*
X209694060Y-115216542D01*
X209694060Y-115216542D02*
X209551203Y-115145114D01*
X209551203Y-115145114D02*
X209479774Y-115002257D01*
X209479774Y-115002257D02*
X209479774Y-114645114D01*
X209479774Y-114645114D02*
X209622632Y-114430828D01*
X209622632Y-114430828D02*
X209836917Y-114287971D01*
X209836917Y-114287971D02*
X210122632Y-114216542D01*
X210122632Y-114216542D02*
X210408346Y-114287971D01*
X210408346Y-114287971D02*
X210622632Y-114430828D01*
X210622632Y-114430828D02*
X210765489Y-114645114D01*
X210765489Y-114645114D02*
X210836917Y-114930828D01*
X210836917Y-114930828D02*
X210765489Y-115216542D01*
X210765489Y-115216542D02*
X210622632Y-115430828D01*
X210622632Y-115430828D02*
X210408346Y-115573685D01*
X210408346Y-115573685D02*
X210122632Y-115645114D01*
X210122632Y-115645114D02*
X209836917Y-115573685D01*
X209836917Y-115573685D02*
X209622632Y-115430828D01*
X208194061Y-114430828D02*
X208194061Y-115645114D01*
X208194061Y-115645114D02*
X208265489Y-115787971D01*
X208265489Y-115787971D02*
X208336918Y-115859400D01*
X208336918Y-115859400D02*
X208479775Y-115930828D01*
X208479775Y-115930828D02*
X208694061Y-115930828D01*
X208694061Y-115930828D02*
X208836918Y-115859400D01*
X208194061Y-115359400D02*
X208336918Y-115430828D01*
X208336918Y-115430828D02*
X208622632Y-115430828D01*
X208622632Y-115430828D02*
X208765489Y-115359400D01*
X208765489Y-115359400D02*
X208836918Y-115287971D01*
X208836918Y-115287971D02*
X208908346Y-115145114D01*
X208908346Y-115145114D02*
X208908346Y-114716542D01*
X208908346Y-114716542D02*
X208836918Y-114573685D01*
X208836918Y-114573685D02*
X208765489Y-114502257D01*
X208765489Y-114502257D02*
X208622632Y-114430828D01*
X208622632Y-114430828D02*
X208336918Y-114430828D01*
X208336918Y-114430828D02*
X208194061Y-114502257D01*
X207479775Y-115430828D02*
X207479775Y-114430828D01*
X207479775Y-114716542D02*
X207408346Y-114573685D01*
X207408346Y-114573685D02*
X207336918Y-114502257D01*
X207336918Y-114502257D02*
X207194060Y-114430828D01*
X207194060Y-114430828D02*
X207051203Y-114430828D01*
X205908347Y-115430828D02*
X205908347Y-114645114D01*
X205908347Y-114645114D02*
X205979775Y-114502257D01*
X205979775Y-114502257D02*
X206122632Y-114430828D01*
X206122632Y-114430828D02*
X206408347Y-114430828D01*
X206408347Y-114430828D02*
X206551204Y-114502257D01*
X205908347Y-115359400D02*
X206051204Y-115430828D01*
X206051204Y-115430828D02*
X206408347Y-115430828D01*
X206408347Y-115430828D02*
X206551204Y-115359400D01*
X206551204Y-115359400D02*
X206622632Y-115216542D01*
X206622632Y-115216542D02*
X206622632Y-115073685D01*
X206622632Y-115073685D02*
X206551204Y-114930828D01*
X206551204Y-114930828D02*
X206408347Y-114859400D01*
X206408347Y-114859400D02*
X206051204Y-114859400D01*
X206051204Y-114859400D02*
X205908347Y-114787971D01*
X205194061Y-114430828D02*
X205194061Y-115430828D01*
X205194061Y-114573685D02*
X205122632Y-114502257D01*
X205122632Y-114502257D02*
X204979775Y-114430828D01*
X204979775Y-114430828D02*
X204765489Y-114430828D01*
X204765489Y-114430828D02*
X204622632Y-114502257D01*
X204622632Y-114502257D02*
X204551204Y-114645114D01*
X204551204Y-114645114D02*
X204551204Y-115430828D01*
X203194061Y-115430828D02*
X203194061Y-113930828D01*
X203194061Y-115359400D02*
X203336918Y-115430828D01*
X203336918Y-115430828D02*
X203622632Y-115430828D01*
X203622632Y-115430828D02*
X203765489Y-115359400D01*
X203765489Y-115359400D02*
X203836918Y-115287971D01*
X203836918Y-115287971D02*
X203908346Y-115145114D01*
X203908346Y-115145114D02*
X203908346Y-114716542D01*
X203908346Y-114716542D02*
X203836918Y-114573685D01*
X203836918Y-114573685D02*
X203765489Y-114502257D01*
X203765489Y-114502257D02*
X203622632Y-114430828D01*
X203622632Y-114430828D02*
X203336918Y-114430828D01*
X203336918Y-114430828D02*
X203194061Y-114502257D01*
X202265489Y-115430828D02*
X202408346Y-115359400D01*
X202408346Y-115359400D02*
X202479775Y-115287971D01*
X202479775Y-115287971D02*
X202551203Y-115145114D01*
X202551203Y-115145114D02*
X202551203Y-114716542D01*
X202551203Y-114716542D02*
X202479775Y-114573685D01*
X202479775Y-114573685D02*
X202408346Y-114502257D01*
X202408346Y-114502257D02*
X202265489Y-114430828D01*
X202265489Y-114430828D02*
X202051203Y-114430828D01*
X202051203Y-114430828D02*
X201908346Y-114502257D01*
X201908346Y-114502257D02*
X201836918Y-114573685D01*
X201836918Y-114573685D02*
X201765489Y-114716542D01*
X201765489Y-114716542D02*
X201765489Y-115145114D01*
X201765489Y-115145114D02*
X201836918Y-115287971D01*
X201836918Y-115287971D02*
X201908346Y-115359400D01*
X201908346Y-115359400D02*
X202051203Y-115430828D01*
X202051203Y-115430828D02*
X202265489Y-115430828D01*
X200908346Y-115430828D02*
X201051203Y-115359400D01*
X201051203Y-115359400D02*
X201122632Y-115216542D01*
X201122632Y-115216542D02*
X201122632Y-113930828D01*
X199694061Y-115430828D02*
X199694061Y-113930828D01*
X199694061Y-115359400D02*
X199836918Y-115430828D01*
X199836918Y-115430828D02*
X200122632Y-115430828D01*
X200122632Y-115430828D02*
X200265489Y-115359400D01*
X200265489Y-115359400D02*
X200336918Y-115287971D01*
X200336918Y-115287971D02*
X200408346Y-115145114D01*
X200408346Y-115145114D02*
X200408346Y-114716542D01*
X200408346Y-114716542D02*
X200336918Y-114573685D01*
X200336918Y-114573685D02*
X200265489Y-114502257D01*
X200265489Y-114502257D02*
X200122632Y-114430828D01*
X200122632Y-114430828D02*
X199836918Y-114430828D01*
X199836918Y-114430828D02*
X199694061Y-114502257D01*
X198979775Y-115430828D02*
X198979775Y-114430828D01*
X198979775Y-113930828D02*
X199051203Y-114002257D01*
X199051203Y-114002257D02*
X198979775Y-114073685D01*
X198979775Y-114073685D02*
X198908346Y-114002257D01*
X198908346Y-114002257D02*
X198979775Y-113930828D01*
X198979775Y-113930828D02*
X198979775Y-114073685D01*
X197622632Y-115430828D02*
X197622632Y-114645114D01*
X197622632Y-114645114D02*
X197694060Y-114502257D01*
X197694060Y-114502257D02*
X197836917Y-114430828D01*
X197836917Y-114430828D02*
X198122632Y-114430828D01*
X198122632Y-114430828D02*
X198265489Y-114502257D01*
X197622632Y-115359400D02*
X197765489Y-115430828D01*
X197765489Y-115430828D02*
X198122632Y-115430828D01*
X198122632Y-115430828D02*
X198265489Y-115359400D01*
X198265489Y-115359400D02*
X198336917Y-115216542D01*
X198336917Y-115216542D02*
X198336917Y-115073685D01*
X198336917Y-115073685D02*
X198265489Y-114930828D01*
X198265489Y-114930828D02*
X198122632Y-114859400D01*
X198122632Y-114859400D02*
X197765489Y-114859400D01*
X197765489Y-114859400D02*
X197622632Y-114787971D01*
X196908346Y-114430828D02*
X196908346Y-115430828D01*
X196908346Y-114573685D02*
X196836917Y-114502257D01*
X196836917Y-114502257D02*
X196694060Y-114430828D01*
X196694060Y-114430828D02*
X196479774Y-114430828D01*
X196479774Y-114430828D02*
X196336917Y-114502257D01*
X196336917Y-114502257D02*
X196265489Y-114645114D01*
X196265489Y-114645114D02*
X196265489Y-115430828D01*
X193622631Y-115430828D02*
X194479774Y-115430828D01*
X194051203Y-115430828D02*
X194051203Y-113930828D01*
X194051203Y-113930828D02*
X194194060Y-114145114D01*
X194194060Y-114145114D02*
X194336917Y-114287971D01*
X194336917Y-114287971D02*
X194479774Y-114359400D01*
X192194060Y-115430828D02*
X193051203Y-115430828D01*
X192622632Y-115430828D02*
X192622632Y-113930828D01*
X192622632Y-113930828D02*
X192765489Y-114145114D01*
X192765489Y-114145114D02*
X192908346Y-114287971D01*
X192908346Y-114287971D02*
X193051203Y-114359400D01*
X190479775Y-113859400D02*
X191765489Y-115787971D01*
X190051203Y-114073685D02*
X189979775Y-114002257D01*
X189979775Y-114002257D02*
X189836918Y-113930828D01*
X189836918Y-113930828D02*
X189479775Y-113930828D01*
X189479775Y-113930828D02*
X189336918Y-114002257D01*
X189336918Y-114002257D02*
X189265489Y-114073685D01*
X189265489Y-114073685D02*
X189194060Y-114216542D01*
X189194060Y-114216542D02*
X189194060Y-114359400D01*
X189194060Y-114359400D02*
X189265489Y-114573685D01*
X189265489Y-114573685D02*
X190122632Y-115430828D01*
X190122632Y-115430828D02*
X189194060Y-115430828D01*
X188265489Y-113930828D02*
X188122632Y-113930828D01*
X188122632Y-113930828D02*
X187979775Y-114002257D01*
X187979775Y-114002257D02*
X187908347Y-114073685D01*
X187908347Y-114073685D02*
X187836918Y-114216542D01*
X187836918Y-114216542D02*
X187765489Y-114502257D01*
X187765489Y-114502257D02*
X187765489Y-114859400D01*
X187765489Y-114859400D02*
X187836918Y-115145114D01*
X187836918Y-115145114D02*
X187908347Y-115287971D01*
X187908347Y-115287971D02*
X187979775Y-115359400D01*
X187979775Y-115359400D02*
X188122632Y-115430828D01*
X188122632Y-115430828D02*
X188265489Y-115430828D01*
X188265489Y-115430828D02*
X188408347Y-115359400D01*
X188408347Y-115359400D02*
X188479775Y-115287971D01*
X188479775Y-115287971D02*
X188551204Y-115145114D01*
X188551204Y-115145114D02*
X188622632Y-114859400D01*
X188622632Y-114859400D02*
X188622632Y-114502257D01*
X188622632Y-114502257D02*
X188551204Y-114216542D01*
X188551204Y-114216542D02*
X188479775Y-114073685D01*
X188479775Y-114073685D02*
X188408347Y-114002257D01*
X188408347Y-114002257D02*
X188265489Y-113930828D01*
X187194061Y-114073685D02*
X187122633Y-114002257D01*
X187122633Y-114002257D02*
X186979776Y-113930828D01*
X186979776Y-113930828D02*
X186622633Y-113930828D01*
X186622633Y-113930828D02*
X186479776Y-114002257D01*
X186479776Y-114002257D02*
X186408347Y-114073685D01*
X186408347Y-114073685D02*
X186336918Y-114216542D01*
X186336918Y-114216542D02*
X186336918Y-114359400D01*
X186336918Y-114359400D02*
X186408347Y-114573685D01*
X186408347Y-114573685D02*
X187265490Y-115430828D01*
X187265490Y-115430828D02*
X186336918Y-115430828D01*
X184979776Y-113930828D02*
X185694062Y-113930828D01*
X185694062Y-113930828D02*
X185765490Y-114645114D01*
X185765490Y-114645114D02*
X185694062Y-114573685D01*
X185694062Y-114573685D02*
X185551205Y-114502257D01*
X185551205Y-114502257D02*
X185194062Y-114502257D01*
X185194062Y-114502257D02*
X185051205Y-114573685D01*
X185051205Y-114573685D02*
X184979776Y-114645114D01*
X184979776Y-114645114D02*
X184908347Y-114787971D01*
X184908347Y-114787971D02*
X184908347Y-115145114D01*
X184908347Y-115145114D02*
X184979776Y-115287971D01*
X184979776Y-115287971D02*
X185051205Y-115359400D01*
X185051205Y-115359400D02*
X185194062Y-115430828D01*
X185194062Y-115430828D02*
X185551205Y-115430828D01*
X185551205Y-115430828D02*
X185694062Y-115359400D01*
X185694062Y-115359400D02*
X185765490Y-115287971D01*
M02*
