%TF.GenerationSoftware,KiCad,Pcbnew,9.0.3*%
%TF.CreationDate,2025-11-18T20:02:22+00:00*%
%TF.ProjectId,EinsteinTC01PS2,45696e73-7465-4696-9e54-433031505332,rev?*%
%TF.SameCoordinates,Original*%
%TF.FileFunction,Legend,Top*%
%TF.FilePolarity,Positive*%
%FSLAX46Y46*%
G04 Gerber Fmt 4.6, Leading zero omitted, Abs format (unit mm)*
G04 Created by KiCad (PCBNEW 9.0.3) date 2025-11-18 20:02:22*
%MOMM*%
%LPD*%
G01*
G04 APERTURE LIST*
%ADD10C,0.300000*%
%ADD11C,0.120000*%
%ADD12C,0.100000*%
%ADD13C,0.000000*%
G04 APERTURE END LIST*
D10*
X163524938Y-88542386D02*
X163524938Y-88042386D01*
X164310652Y-87828100D02*
X164310652Y-88542386D01*
X164310652Y-88542386D02*
X162810652Y-88542386D01*
X162810652Y-88542386D02*
X162810652Y-87828100D01*
X164310652Y-87185243D02*
X163310652Y-87185243D01*
X162810652Y-87185243D02*
X162882081Y-87256671D01*
X162882081Y-87256671D02*
X162953509Y-87185243D01*
X162953509Y-87185243D02*
X162882081Y-87113814D01*
X162882081Y-87113814D02*
X162810652Y-87185243D01*
X162810652Y-87185243D02*
X162953509Y-87185243D01*
X163310652Y-86470957D02*
X164310652Y-86470957D01*
X163453509Y-86470957D02*
X163382081Y-86399528D01*
X163382081Y-86399528D02*
X163310652Y-86256671D01*
X163310652Y-86256671D02*
X163310652Y-86042385D01*
X163310652Y-86042385D02*
X163382081Y-85899528D01*
X163382081Y-85899528D02*
X163524938Y-85828100D01*
X163524938Y-85828100D02*
X164310652Y-85828100D01*
X164239224Y-85185242D02*
X164310652Y-85042385D01*
X164310652Y-85042385D02*
X164310652Y-84756671D01*
X164310652Y-84756671D02*
X164239224Y-84613814D01*
X164239224Y-84613814D02*
X164096366Y-84542385D01*
X164096366Y-84542385D02*
X164024938Y-84542385D01*
X164024938Y-84542385D02*
X163882081Y-84613814D01*
X163882081Y-84613814D02*
X163810652Y-84756671D01*
X163810652Y-84756671D02*
X163810652Y-84970957D01*
X163810652Y-84970957D02*
X163739224Y-85113814D01*
X163739224Y-85113814D02*
X163596366Y-85185242D01*
X163596366Y-85185242D02*
X163524938Y-85185242D01*
X163524938Y-85185242D02*
X163382081Y-85113814D01*
X163382081Y-85113814D02*
X163310652Y-84970957D01*
X163310652Y-84970957D02*
X163310652Y-84756671D01*
X163310652Y-84756671D02*
X163382081Y-84613814D01*
X163310652Y-84113813D02*
X163310652Y-83542385D01*
X162810652Y-83899528D02*
X164096366Y-83899528D01*
X164096366Y-83899528D02*
X164239224Y-83828099D01*
X164239224Y-83828099D02*
X164310652Y-83685242D01*
X164310652Y-83685242D02*
X164310652Y-83542385D01*
X164239224Y-82470956D02*
X164310652Y-82613813D01*
X164310652Y-82613813D02*
X164310652Y-82899528D01*
X164310652Y-82899528D02*
X164239224Y-83042385D01*
X164239224Y-83042385D02*
X164096366Y-83113813D01*
X164096366Y-83113813D02*
X163524938Y-83113813D01*
X163524938Y-83113813D02*
X163382081Y-83042385D01*
X163382081Y-83042385D02*
X163310652Y-82899528D01*
X163310652Y-82899528D02*
X163310652Y-82613813D01*
X163310652Y-82613813D02*
X163382081Y-82470956D01*
X163382081Y-82470956D02*
X163524938Y-82399528D01*
X163524938Y-82399528D02*
X163667795Y-82399528D01*
X163667795Y-82399528D02*
X163810652Y-83113813D01*
X164310652Y-81756671D02*
X163310652Y-81756671D01*
X162810652Y-81756671D02*
X162882081Y-81828099D01*
X162882081Y-81828099D02*
X162953509Y-81756671D01*
X162953509Y-81756671D02*
X162882081Y-81685242D01*
X162882081Y-81685242D02*
X162810652Y-81756671D01*
X162810652Y-81756671D02*
X162953509Y-81756671D01*
X163310652Y-81042385D02*
X164310652Y-81042385D01*
X163453509Y-81042385D02*
X163382081Y-80970956D01*
X163382081Y-80970956D02*
X163310652Y-80828099D01*
X163310652Y-80828099D02*
X163310652Y-80613813D01*
X163310652Y-80613813D02*
X163382081Y-80470956D01*
X163382081Y-80470956D02*
X163524938Y-80399528D01*
X163524938Y-80399528D02*
X164310652Y-80399528D01*
X162810652Y-78756670D02*
X162810652Y-77899528D01*
X164310652Y-78328099D02*
X162810652Y-78328099D01*
X164167795Y-76542385D02*
X164239224Y-76613813D01*
X164239224Y-76613813D02*
X164310652Y-76828099D01*
X164310652Y-76828099D02*
X164310652Y-76970956D01*
X164310652Y-76970956D02*
X164239224Y-77185242D01*
X164239224Y-77185242D02*
X164096366Y-77328099D01*
X164096366Y-77328099D02*
X163953509Y-77399528D01*
X163953509Y-77399528D02*
X163667795Y-77470956D01*
X163667795Y-77470956D02*
X163453509Y-77470956D01*
X163453509Y-77470956D02*
X163167795Y-77399528D01*
X163167795Y-77399528D02*
X163024938Y-77328099D01*
X163024938Y-77328099D02*
X162882081Y-77185242D01*
X162882081Y-77185242D02*
X162810652Y-76970956D01*
X162810652Y-76970956D02*
X162810652Y-76828099D01*
X162810652Y-76828099D02*
X162882081Y-76613813D01*
X162882081Y-76613813D02*
X162953509Y-76542385D01*
X163739224Y-75899528D02*
X163739224Y-74756671D01*
X162810652Y-73756670D02*
X162810652Y-73613813D01*
X162810652Y-73613813D02*
X162882081Y-73470956D01*
X162882081Y-73470956D02*
X162953509Y-73399528D01*
X162953509Y-73399528D02*
X163096366Y-73328099D01*
X163096366Y-73328099D02*
X163382081Y-73256670D01*
X163382081Y-73256670D02*
X163739224Y-73256670D01*
X163739224Y-73256670D02*
X164024938Y-73328099D01*
X164024938Y-73328099D02*
X164167795Y-73399528D01*
X164167795Y-73399528D02*
X164239224Y-73470956D01*
X164239224Y-73470956D02*
X164310652Y-73613813D01*
X164310652Y-73613813D02*
X164310652Y-73756670D01*
X164310652Y-73756670D02*
X164239224Y-73899528D01*
X164239224Y-73899528D02*
X164167795Y-73970956D01*
X164167795Y-73970956D02*
X164024938Y-74042385D01*
X164024938Y-74042385D02*
X163739224Y-74113813D01*
X163739224Y-74113813D02*
X163382081Y-74113813D01*
X163382081Y-74113813D02*
X163096366Y-74042385D01*
X163096366Y-74042385D02*
X162953509Y-73970956D01*
X162953509Y-73970956D02*
X162882081Y-73899528D01*
X162882081Y-73899528D02*
X162810652Y-73756670D01*
X164310652Y-71828099D02*
X164310652Y-72685242D01*
X164310652Y-72256671D02*
X162810652Y-72256671D01*
X162810652Y-72256671D02*
X163024938Y-72399528D01*
X163024938Y-72399528D02*
X163167795Y-72542385D01*
X163167795Y-72542385D02*
X163239224Y-72685242D01*
X166725568Y-88542386D02*
X165225568Y-88542386D01*
X165225568Y-88542386D02*
X165225568Y-87970957D01*
X165225568Y-87970957D02*
X165296997Y-87828100D01*
X165296997Y-87828100D02*
X165368425Y-87756671D01*
X165368425Y-87756671D02*
X165511282Y-87685243D01*
X165511282Y-87685243D02*
X165725568Y-87685243D01*
X165725568Y-87685243D02*
X165868425Y-87756671D01*
X165868425Y-87756671D02*
X165939854Y-87828100D01*
X165939854Y-87828100D02*
X166011282Y-87970957D01*
X166011282Y-87970957D02*
X166011282Y-88542386D01*
X166654140Y-87113814D02*
X166725568Y-86899529D01*
X166725568Y-86899529D02*
X166725568Y-86542386D01*
X166725568Y-86542386D02*
X166654140Y-86399529D01*
X166654140Y-86399529D02*
X166582711Y-86328100D01*
X166582711Y-86328100D02*
X166439854Y-86256671D01*
X166439854Y-86256671D02*
X166296997Y-86256671D01*
X166296997Y-86256671D02*
X166154140Y-86328100D01*
X166154140Y-86328100D02*
X166082711Y-86399529D01*
X166082711Y-86399529D02*
X166011282Y-86542386D01*
X166011282Y-86542386D02*
X165939854Y-86828100D01*
X165939854Y-86828100D02*
X165868425Y-86970957D01*
X165868425Y-86970957D02*
X165796997Y-87042386D01*
X165796997Y-87042386D02*
X165654140Y-87113814D01*
X165654140Y-87113814D02*
X165511282Y-87113814D01*
X165511282Y-87113814D02*
X165368425Y-87042386D01*
X165368425Y-87042386D02*
X165296997Y-86970957D01*
X165296997Y-86970957D02*
X165225568Y-86828100D01*
X165225568Y-86828100D02*
X165225568Y-86470957D01*
X165225568Y-86470957D02*
X165296997Y-86256671D01*
X165154140Y-84542386D02*
X167082711Y-85828100D01*
X165368425Y-84113814D02*
X165296997Y-84042386D01*
X165296997Y-84042386D02*
X165225568Y-83899529D01*
X165225568Y-83899529D02*
X165225568Y-83542386D01*
X165225568Y-83542386D02*
X165296997Y-83399529D01*
X165296997Y-83399529D02*
X165368425Y-83328100D01*
X165368425Y-83328100D02*
X165511282Y-83256671D01*
X165511282Y-83256671D02*
X165654140Y-83256671D01*
X165654140Y-83256671D02*
X165868425Y-83328100D01*
X165868425Y-83328100D02*
X166725568Y-84185243D01*
X166725568Y-84185243D02*
X166725568Y-83256671D01*
X166725568Y-81470958D02*
X165225568Y-81470958D01*
X166725568Y-80613815D02*
X165868425Y-81256672D01*
X165225568Y-80613815D02*
X166082711Y-81470958D01*
X166654140Y-79399529D02*
X166725568Y-79542386D01*
X166725568Y-79542386D02*
X166725568Y-79828101D01*
X166725568Y-79828101D02*
X166654140Y-79970958D01*
X166654140Y-79970958D02*
X166511282Y-80042386D01*
X166511282Y-80042386D02*
X165939854Y-80042386D01*
X165939854Y-80042386D02*
X165796997Y-79970958D01*
X165796997Y-79970958D02*
X165725568Y-79828101D01*
X165725568Y-79828101D02*
X165725568Y-79542386D01*
X165725568Y-79542386D02*
X165796997Y-79399529D01*
X165796997Y-79399529D02*
X165939854Y-79328101D01*
X165939854Y-79328101D02*
X166082711Y-79328101D01*
X166082711Y-79328101D02*
X166225568Y-80042386D01*
X165725568Y-78828101D02*
X166725568Y-78470958D01*
X165725568Y-78113815D02*
X166725568Y-78470958D01*
X166725568Y-78470958D02*
X167082711Y-78613815D01*
X167082711Y-78613815D02*
X167154140Y-78685244D01*
X167154140Y-78685244D02*
X167225568Y-78828101D01*
X166725568Y-77542387D02*
X165225568Y-77542387D01*
X165796997Y-77542387D02*
X165725568Y-77399530D01*
X165725568Y-77399530D02*
X165725568Y-77113815D01*
X165725568Y-77113815D02*
X165796997Y-76970958D01*
X165796997Y-76970958D02*
X165868425Y-76899530D01*
X165868425Y-76899530D02*
X166011282Y-76828101D01*
X166011282Y-76828101D02*
X166439854Y-76828101D01*
X166439854Y-76828101D02*
X166582711Y-76899530D01*
X166582711Y-76899530D02*
X166654140Y-76970958D01*
X166654140Y-76970958D02*
X166725568Y-77113815D01*
X166725568Y-77113815D02*
X166725568Y-77399530D01*
X166725568Y-77399530D02*
X166654140Y-77542387D01*
X166725568Y-75970958D02*
X166654140Y-76113815D01*
X166654140Y-76113815D02*
X166582711Y-76185244D01*
X166582711Y-76185244D02*
X166439854Y-76256672D01*
X166439854Y-76256672D02*
X166011282Y-76256672D01*
X166011282Y-76256672D02*
X165868425Y-76185244D01*
X165868425Y-76185244D02*
X165796997Y-76113815D01*
X165796997Y-76113815D02*
X165725568Y-75970958D01*
X165725568Y-75970958D02*
X165725568Y-75756672D01*
X165725568Y-75756672D02*
X165796997Y-75613815D01*
X165796997Y-75613815D02*
X165868425Y-75542387D01*
X165868425Y-75542387D02*
X166011282Y-75470958D01*
X166011282Y-75470958D02*
X166439854Y-75470958D01*
X166439854Y-75470958D02*
X166582711Y-75542387D01*
X166582711Y-75542387D02*
X166654140Y-75613815D01*
X166654140Y-75613815D02*
X166725568Y-75756672D01*
X166725568Y-75756672D02*
X166725568Y-75970958D01*
X166725568Y-74185244D02*
X165939854Y-74185244D01*
X165939854Y-74185244D02*
X165796997Y-74256672D01*
X165796997Y-74256672D02*
X165725568Y-74399529D01*
X165725568Y-74399529D02*
X165725568Y-74685244D01*
X165725568Y-74685244D02*
X165796997Y-74828101D01*
X166654140Y-74185244D02*
X166725568Y-74328101D01*
X166725568Y-74328101D02*
X166725568Y-74685244D01*
X166725568Y-74685244D02*
X166654140Y-74828101D01*
X166654140Y-74828101D02*
X166511282Y-74899529D01*
X166511282Y-74899529D02*
X166368425Y-74899529D01*
X166368425Y-74899529D02*
X166225568Y-74828101D01*
X166225568Y-74828101D02*
X166154140Y-74685244D01*
X166154140Y-74685244D02*
X166154140Y-74328101D01*
X166154140Y-74328101D02*
X166082711Y-74185244D01*
X166725568Y-73470958D02*
X165725568Y-73470958D01*
X166011282Y-73470958D02*
X165868425Y-73399529D01*
X165868425Y-73399529D02*
X165796997Y-73328101D01*
X165796997Y-73328101D02*
X165725568Y-73185243D01*
X165725568Y-73185243D02*
X165725568Y-73042386D01*
X166725568Y-71899530D02*
X165225568Y-71899530D01*
X166654140Y-71899530D02*
X166725568Y-72042387D01*
X166725568Y-72042387D02*
X166725568Y-72328101D01*
X166725568Y-72328101D02*
X166654140Y-72470958D01*
X166654140Y-72470958D02*
X166582711Y-72542387D01*
X166582711Y-72542387D02*
X166439854Y-72613815D01*
X166439854Y-72613815D02*
X166011282Y-72613815D01*
X166011282Y-72613815D02*
X165868425Y-72542387D01*
X165868425Y-72542387D02*
X165796997Y-72470958D01*
X165796997Y-72470958D02*
X165725568Y-72328101D01*
X165725568Y-72328101D02*
X165725568Y-72042387D01*
X165725568Y-72042387D02*
X165796997Y-71899530D01*
X165725568Y-70185244D02*
X166725568Y-69828101D01*
X166725568Y-69828101D02*
X165725568Y-69470958D01*
X166725568Y-68113815D02*
X166725568Y-68970958D01*
X166725568Y-68542387D02*
X165225568Y-68542387D01*
X165225568Y-68542387D02*
X165439854Y-68685244D01*
X165439854Y-68685244D02*
X165582711Y-68828101D01*
X165582711Y-68828101D02*
X165654140Y-68970958D01*
X166582711Y-67470959D02*
X166654140Y-67399530D01*
X166654140Y-67399530D02*
X166725568Y-67470959D01*
X166725568Y-67470959D02*
X166654140Y-67542387D01*
X166654140Y-67542387D02*
X166582711Y-67470959D01*
X166582711Y-67470959D02*
X166725568Y-67470959D01*
X165368425Y-66828101D02*
X165296997Y-66756673D01*
X165296997Y-66756673D02*
X165225568Y-66613816D01*
X165225568Y-66613816D02*
X165225568Y-66256673D01*
X165225568Y-66256673D02*
X165296997Y-66113816D01*
X165296997Y-66113816D02*
X165368425Y-66042387D01*
X165368425Y-66042387D02*
X165511282Y-65970958D01*
X165511282Y-65970958D02*
X165654140Y-65970958D01*
X165654140Y-65970958D02*
X165868425Y-66042387D01*
X165868425Y-66042387D02*
X166725568Y-66899530D01*
X166725568Y-66899530D02*
X166725568Y-65970958D01*
X233265714Y-104138328D02*
X232765714Y-103424042D01*
X232408571Y-104138328D02*
X232408571Y-102638328D01*
X232408571Y-102638328D02*
X232980000Y-102638328D01*
X232980000Y-102638328D02*
X233122857Y-102709757D01*
X233122857Y-102709757D02*
X233194286Y-102781185D01*
X233194286Y-102781185D02*
X233265714Y-102924042D01*
X233265714Y-102924042D02*
X233265714Y-103138328D01*
X233265714Y-103138328D02*
X233194286Y-103281185D01*
X233194286Y-103281185D02*
X233122857Y-103352614D01*
X233122857Y-103352614D02*
X232980000Y-103424042D01*
X232980000Y-103424042D02*
X232408571Y-103424042D01*
X234622857Y-102638328D02*
X233908571Y-102638328D01*
X233908571Y-102638328D02*
X233837143Y-103352614D01*
X233837143Y-103352614D02*
X233908571Y-103281185D01*
X233908571Y-103281185D02*
X234051429Y-103209757D01*
X234051429Y-103209757D02*
X234408571Y-103209757D01*
X234408571Y-103209757D02*
X234551429Y-103281185D01*
X234551429Y-103281185D02*
X234622857Y-103352614D01*
X234622857Y-103352614D02*
X234694286Y-103495471D01*
X234694286Y-103495471D02*
X234694286Y-103852614D01*
X234694286Y-103852614D02*
X234622857Y-103995471D01*
X234622857Y-103995471D02*
X234551429Y-104066900D01*
X234551429Y-104066900D02*
X234408571Y-104138328D01*
X234408571Y-104138328D02*
X234051429Y-104138328D01*
X234051429Y-104138328D02*
X233908571Y-104066900D01*
X233908571Y-104066900D02*
X233837143Y-103995471D01*
X233265714Y-99048328D02*
X232765714Y-98334042D01*
X232408571Y-99048328D02*
X232408571Y-97548328D01*
X232408571Y-97548328D02*
X232980000Y-97548328D01*
X232980000Y-97548328D02*
X233122857Y-97619757D01*
X233122857Y-97619757D02*
X233194286Y-97691185D01*
X233194286Y-97691185D02*
X233265714Y-97834042D01*
X233265714Y-97834042D02*
X233265714Y-98048328D01*
X233265714Y-98048328D02*
X233194286Y-98191185D01*
X233194286Y-98191185D02*
X233122857Y-98262614D01*
X233122857Y-98262614D02*
X232980000Y-98334042D01*
X232980000Y-98334042D02*
X232408571Y-98334042D01*
X234551429Y-98048328D02*
X234551429Y-99048328D01*
X234194286Y-97476900D02*
X233837143Y-98548328D01*
X233837143Y-98548328D02*
X234765714Y-98548328D01*
X223500000Y-64648328D02*
X223500000Y-65719757D01*
X223500000Y-65719757D02*
X223428571Y-65934042D01*
X223428571Y-65934042D02*
X223285714Y-66076900D01*
X223285714Y-66076900D02*
X223071428Y-66148328D01*
X223071428Y-66148328D02*
X222928571Y-66148328D01*
X224071428Y-64648328D02*
X225000000Y-64648328D01*
X225000000Y-64648328D02*
X224500000Y-65219757D01*
X224500000Y-65219757D02*
X224714285Y-65219757D01*
X224714285Y-65219757D02*
X224857143Y-65291185D01*
X224857143Y-65291185D02*
X224928571Y-65362614D01*
X224928571Y-65362614D02*
X225000000Y-65505471D01*
X225000000Y-65505471D02*
X225000000Y-65862614D01*
X225000000Y-65862614D02*
X224928571Y-66005471D01*
X224928571Y-66005471D02*
X224857143Y-66076900D01*
X224857143Y-66076900D02*
X224714285Y-66148328D01*
X224714285Y-66148328D02*
X224285714Y-66148328D01*
X224285714Y-66148328D02*
X224142857Y-66076900D01*
X224142857Y-66076900D02*
X224071428Y-66005471D01*
X204638328Y-58639999D02*
X205709757Y-58639999D01*
X205709757Y-58639999D02*
X205924042Y-58711428D01*
X205924042Y-58711428D02*
X206066900Y-58854285D01*
X206066900Y-58854285D02*
X206138328Y-59068571D01*
X206138328Y-59068571D02*
X206138328Y-59211428D01*
X206138328Y-57139999D02*
X206138328Y-57997142D01*
X206138328Y-57568571D02*
X204638328Y-57568571D01*
X204638328Y-57568571D02*
X204852614Y-57711428D01*
X204852614Y-57711428D02*
X204995471Y-57854285D01*
X204995471Y-57854285D02*
X205066900Y-57997142D01*
X216788328Y-64441428D02*
X216788328Y-65155714D01*
X216788328Y-65155714D02*
X217502614Y-65227142D01*
X217502614Y-65227142D02*
X217431185Y-65155714D01*
X217431185Y-65155714D02*
X217359757Y-65012857D01*
X217359757Y-65012857D02*
X217359757Y-64655714D01*
X217359757Y-64655714D02*
X217431185Y-64512857D01*
X217431185Y-64512857D02*
X217502614Y-64441428D01*
X217502614Y-64441428D02*
X217645471Y-64369999D01*
X217645471Y-64369999D02*
X218002614Y-64369999D01*
X218002614Y-64369999D02*
X218145471Y-64441428D01*
X218145471Y-64441428D02*
X218216900Y-64512857D01*
X218216900Y-64512857D02*
X218288328Y-64655714D01*
X218288328Y-64655714D02*
X218288328Y-65012857D01*
X218288328Y-65012857D02*
X218216900Y-65155714D01*
X218216900Y-65155714D02*
X218145471Y-65227142D01*
X216788328Y-63941428D02*
X218288328Y-63441428D01*
X218288328Y-63441428D02*
X216788328Y-62941428D01*
X218288328Y-61298572D02*
X216788328Y-61298572D01*
X216788328Y-61298572D02*
X216788328Y-60941429D01*
X216788328Y-60941429D02*
X216859757Y-60727143D01*
X216859757Y-60727143D02*
X217002614Y-60584286D01*
X217002614Y-60584286D02*
X217145471Y-60512857D01*
X217145471Y-60512857D02*
X217431185Y-60441429D01*
X217431185Y-60441429D02*
X217645471Y-60441429D01*
X217645471Y-60441429D02*
X217931185Y-60512857D01*
X217931185Y-60512857D02*
X218074042Y-60584286D01*
X218074042Y-60584286D02*
X218216900Y-60727143D01*
X218216900Y-60727143D02*
X218288328Y-60941429D01*
X218288328Y-60941429D02*
X218288328Y-61298572D01*
X218145471Y-58941429D02*
X218216900Y-59012857D01*
X218216900Y-59012857D02*
X218288328Y-59227143D01*
X218288328Y-59227143D02*
X218288328Y-59370000D01*
X218288328Y-59370000D02*
X218216900Y-59584286D01*
X218216900Y-59584286D02*
X218074042Y-59727143D01*
X218074042Y-59727143D02*
X217931185Y-59798572D01*
X217931185Y-59798572D02*
X217645471Y-59870000D01*
X217645471Y-59870000D02*
X217431185Y-59870000D01*
X217431185Y-59870000D02*
X217145471Y-59798572D01*
X217145471Y-59798572D02*
X217002614Y-59727143D01*
X217002614Y-59727143D02*
X216859757Y-59584286D01*
X216859757Y-59584286D02*
X216788328Y-59370000D01*
X216788328Y-59370000D02*
X216788328Y-59227143D01*
X216788328Y-59227143D02*
X216859757Y-59012857D01*
X216859757Y-59012857D02*
X216931185Y-58941429D01*
X218288328Y-57155715D02*
X216788328Y-57155715D01*
X218288328Y-56441429D02*
X216788328Y-56441429D01*
X216788328Y-56441429D02*
X218288328Y-55584286D01*
X218288328Y-55584286D02*
X216788328Y-55584286D01*
X233265714Y-106678328D02*
X232765714Y-105964042D01*
X232408571Y-106678328D02*
X232408571Y-105178328D01*
X232408571Y-105178328D02*
X232980000Y-105178328D01*
X232980000Y-105178328D02*
X233122857Y-105249757D01*
X233122857Y-105249757D02*
X233194286Y-105321185D01*
X233194286Y-105321185D02*
X233265714Y-105464042D01*
X233265714Y-105464042D02*
X233265714Y-105678328D01*
X233265714Y-105678328D02*
X233194286Y-105821185D01*
X233194286Y-105821185D02*
X233122857Y-105892614D01*
X233122857Y-105892614D02*
X232980000Y-105964042D01*
X232980000Y-105964042D02*
X232408571Y-105964042D01*
X233980000Y-106678328D02*
X234265714Y-106678328D01*
X234265714Y-106678328D02*
X234408571Y-106606900D01*
X234408571Y-106606900D02*
X234480000Y-106535471D01*
X234480000Y-106535471D02*
X234622857Y-106321185D01*
X234622857Y-106321185D02*
X234694286Y-106035471D01*
X234694286Y-106035471D02*
X234694286Y-105464042D01*
X234694286Y-105464042D02*
X234622857Y-105321185D01*
X234622857Y-105321185D02*
X234551429Y-105249757D01*
X234551429Y-105249757D02*
X234408571Y-105178328D01*
X234408571Y-105178328D02*
X234122857Y-105178328D01*
X234122857Y-105178328D02*
X233980000Y-105249757D01*
X233980000Y-105249757D02*
X233908571Y-105321185D01*
X233908571Y-105321185D02*
X233837143Y-105464042D01*
X233837143Y-105464042D02*
X233837143Y-105821185D01*
X233837143Y-105821185D02*
X233908571Y-105964042D01*
X233908571Y-105964042D02*
X233980000Y-106035471D01*
X233980000Y-106035471D02*
X234122857Y-106106900D01*
X234122857Y-106106900D02*
X234408571Y-106106900D01*
X234408571Y-106106900D02*
X234551429Y-106035471D01*
X234551429Y-106035471D02*
X234622857Y-105964042D01*
X234622857Y-105964042D02*
X234694286Y-105821185D01*
X211682857Y-89858328D02*
X211682857Y-88358328D01*
X211682857Y-88358328D02*
X212040000Y-88358328D01*
X212040000Y-88358328D02*
X212254286Y-88429757D01*
X212254286Y-88429757D02*
X212397143Y-88572614D01*
X212397143Y-88572614D02*
X212468572Y-88715471D01*
X212468572Y-88715471D02*
X212540000Y-89001185D01*
X212540000Y-89001185D02*
X212540000Y-89215471D01*
X212540000Y-89215471D02*
X212468572Y-89501185D01*
X212468572Y-89501185D02*
X212397143Y-89644042D01*
X212397143Y-89644042D02*
X212254286Y-89786900D01*
X212254286Y-89786900D02*
X212040000Y-89858328D01*
X212040000Y-89858328D02*
X211682857Y-89858328D01*
X213897143Y-88358328D02*
X213182857Y-88358328D01*
X213182857Y-88358328D02*
X213111429Y-89072614D01*
X213111429Y-89072614D02*
X213182857Y-89001185D01*
X213182857Y-89001185D02*
X213325715Y-88929757D01*
X213325715Y-88929757D02*
X213682857Y-88929757D01*
X213682857Y-88929757D02*
X213825715Y-89001185D01*
X213825715Y-89001185D02*
X213897143Y-89072614D01*
X213897143Y-89072614D02*
X213968572Y-89215471D01*
X213968572Y-89215471D02*
X213968572Y-89572614D01*
X213968572Y-89572614D02*
X213897143Y-89715471D01*
X213897143Y-89715471D02*
X213825715Y-89786900D01*
X213825715Y-89786900D02*
X213682857Y-89858328D01*
X213682857Y-89858328D02*
X213325715Y-89858328D01*
X213325715Y-89858328D02*
X213182857Y-89786900D01*
X213182857Y-89786900D02*
X213111429Y-89715471D01*
X210947143Y-97274757D02*
X210804286Y-97203328D01*
X210804286Y-97203328D02*
X210590000Y-97203328D01*
X210590000Y-97203328D02*
X210375714Y-97274757D01*
X210375714Y-97274757D02*
X210232857Y-97417614D01*
X210232857Y-97417614D02*
X210161428Y-97560471D01*
X210161428Y-97560471D02*
X210090000Y-97846185D01*
X210090000Y-97846185D02*
X210090000Y-98060471D01*
X210090000Y-98060471D02*
X210161428Y-98346185D01*
X210161428Y-98346185D02*
X210232857Y-98489042D01*
X210232857Y-98489042D02*
X210375714Y-98631900D01*
X210375714Y-98631900D02*
X210590000Y-98703328D01*
X210590000Y-98703328D02*
X210732857Y-98703328D01*
X210732857Y-98703328D02*
X210947143Y-98631900D01*
X210947143Y-98631900D02*
X211018571Y-98560471D01*
X211018571Y-98560471D02*
X211018571Y-98060471D01*
X211018571Y-98060471D02*
X210732857Y-98060471D01*
X212518571Y-98703328D02*
X212018571Y-97989042D01*
X211661428Y-98703328D02*
X211661428Y-97203328D01*
X211661428Y-97203328D02*
X212232857Y-97203328D01*
X212232857Y-97203328D02*
X212375714Y-97274757D01*
X212375714Y-97274757D02*
X212447143Y-97346185D01*
X212447143Y-97346185D02*
X212518571Y-97489042D01*
X212518571Y-97489042D02*
X212518571Y-97703328D01*
X212518571Y-97703328D02*
X212447143Y-97846185D01*
X212447143Y-97846185D02*
X212375714Y-97917614D01*
X212375714Y-97917614D02*
X212232857Y-97989042D01*
X212232857Y-97989042D02*
X211661428Y-97989042D01*
X213161428Y-98703328D02*
X213161428Y-97203328D01*
X213161428Y-97203328D02*
X213732857Y-97203328D01*
X213732857Y-97203328D02*
X213875714Y-97274757D01*
X213875714Y-97274757D02*
X213947143Y-97346185D01*
X213947143Y-97346185D02*
X214018571Y-97489042D01*
X214018571Y-97489042D02*
X214018571Y-97703328D01*
X214018571Y-97703328D02*
X213947143Y-97846185D01*
X213947143Y-97846185D02*
X213875714Y-97917614D01*
X213875714Y-97917614D02*
X213732857Y-97989042D01*
X213732857Y-97989042D02*
X213161428Y-97989042D01*
X214661428Y-98703328D02*
X214661428Y-97203328D01*
X214661428Y-97917614D02*
X215518571Y-97917614D01*
X215518571Y-98703328D02*
X215518571Y-97203328D01*
X199607142Y-78728328D02*
X199607142Y-77228328D01*
X199607142Y-77228328D02*
X200464285Y-78728328D01*
X200464285Y-78728328D02*
X200464285Y-77228328D01*
X201107143Y-78299757D02*
X201821429Y-78299757D01*
X200964286Y-78728328D02*
X201464286Y-77228328D01*
X201464286Y-77228328D02*
X201964286Y-78728328D01*
X202464285Y-78728328D02*
X202464285Y-77228328D01*
X202464285Y-77228328D02*
X203321428Y-78728328D01*
X203321428Y-78728328D02*
X203321428Y-77228328D01*
X204321429Y-77228328D02*
X204607143Y-77228328D01*
X204607143Y-77228328D02*
X204750000Y-77299757D01*
X204750000Y-77299757D02*
X204892857Y-77442614D01*
X204892857Y-77442614D02*
X204964286Y-77728328D01*
X204964286Y-77728328D02*
X204964286Y-78228328D01*
X204964286Y-78228328D02*
X204892857Y-78514042D01*
X204892857Y-78514042D02*
X204750000Y-78656900D01*
X204750000Y-78656900D02*
X204607143Y-78728328D01*
X204607143Y-78728328D02*
X204321429Y-78728328D01*
X204321429Y-78728328D02*
X204178572Y-78656900D01*
X204178572Y-78656900D02*
X204035714Y-78514042D01*
X204035714Y-78514042D02*
X203964286Y-78228328D01*
X203964286Y-78228328D02*
X203964286Y-77728328D01*
X203964286Y-77728328D02*
X204035714Y-77442614D01*
X204035714Y-77442614D02*
X204178572Y-77299757D01*
X204178572Y-77299757D02*
X204321429Y-77228328D01*
X204692857Y-89858328D02*
X204692857Y-88358328D01*
X204692857Y-88358328D02*
X205050000Y-88358328D01*
X205050000Y-88358328D02*
X205264286Y-88429757D01*
X205264286Y-88429757D02*
X205407143Y-88572614D01*
X205407143Y-88572614D02*
X205478572Y-88715471D01*
X205478572Y-88715471D02*
X205550000Y-89001185D01*
X205550000Y-89001185D02*
X205550000Y-89215471D01*
X205550000Y-89215471D02*
X205478572Y-89501185D01*
X205478572Y-89501185D02*
X205407143Y-89644042D01*
X205407143Y-89644042D02*
X205264286Y-89786900D01*
X205264286Y-89786900D02*
X205050000Y-89858328D01*
X205050000Y-89858328D02*
X204692857Y-89858328D01*
X206835715Y-88858328D02*
X206835715Y-89858328D01*
X206478572Y-88286900D02*
X206121429Y-89358328D01*
X206121429Y-89358328D02*
X207050000Y-89358328D01*
X204385714Y-98560471D02*
X204314286Y-98631900D01*
X204314286Y-98631900D02*
X204100000Y-98703328D01*
X204100000Y-98703328D02*
X203957143Y-98703328D01*
X203957143Y-98703328D02*
X203742857Y-98631900D01*
X203742857Y-98631900D02*
X203600000Y-98489042D01*
X203600000Y-98489042D02*
X203528571Y-98346185D01*
X203528571Y-98346185D02*
X203457143Y-98060471D01*
X203457143Y-98060471D02*
X203457143Y-97846185D01*
X203457143Y-97846185D02*
X203528571Y-97560471D01*
X203528571Y-97560471D02*
X203600000Y-97417614D01*
X203600000Y-97417614D02*
X203742857Y-97274757D01*
X203742857Y-97274757D02*
X203957143Y-97203328D01*
X203957143Y-97203328D02*
X204100000Y-97203328D01*
X204100000Y-97203328D02*
X204314286Y-97274757D01*
X204314286Y-97274757D02*
X204385714Y-97346185D01*
X204814286Y-97203328D02*
X205671429Y-97203328D01*
X205242857Y-98703328D02*
X205242857Y-97203328D01*
X207028571Y-98703328D02*
X206528571Y-97989042D01*
X206171428Y-98703328D02*
X206171428Y-97203328D01*
X206171428Y-97203328D02*
X206742857Y-97203328D01*
X206742857Y-97203328D02*
X206885714Y-97274757D01*
X206885714Y-97274757D02*
X206957143Y-97346185D01*
X206957143Y-97346185D02*
X207028571Y-97489042D01*
X207028571Y-97489042D02*
X207028571Y-97703328D01*
X207028571Y-97703328D02*
X206957143Y-97846185D01*
X206957143Y-97846185D02*
X206885714Y-97917614D01*
X206885714Y-97917614D02*
X206742857Y-97989042D01*
X206742857Y-97989042D02*
X206171428Y-97989042D01*
X208385714Y-98703328D02*
X207671428Y-98703328D01*
X207671428Y-98703328D02*
X207671428Y-97203328D01*
X230856190Y-132351185D02*
X230732380Y-132279757D01*
X230732380Y-132279757D02*
X230608571Y-132136900D01*
X230608571Y-132136900D02*
X230422857Y-131922614D01*
X230422857Y-131922614D02*
X230299047Y-131851185D01*
X230299047Y-131851185D02*
X230175238Y-131851185D01*
X230237142Y-132208328D02*
X230113333Y-132136900D01*
X230113333Y-132136900D02*
X229989523Y-131994042D01*
X229989523Y-131994042D02*
X229927619Y-131708328D01*
X229927619Y-131708328D02*
X229927619Y-131208328D01*
X229927619Y-131208328D02*
X229989523Y-130922614D01*
X229989523Y-130922614D02*
X230113333Y-130779757D01*
X230113333Y-130779757D02*
X230237142Y-130708328D01*
X230237142Y-130708328D02*
X230484761Y-130708328D01*
X230484761Y-130708328D02*
X230608571Y-130779757D01*
X230608571Y-130779757D02*
X230732380Y-130922614D01*
X230732380Y-130922614D02*
X230794285Y-131208328D01*
X230794285Y-131208328D02*
X230794285Y-131708328D01*
X230794285Y-131708328D02*
X230732380Y-131994042D01*
X230732380Y-131994042D02*
X230608571Y-132136900D01*
X230608571Y-132136900D02*
X230484761Y-132208328D01*
X230484761Y-132208328D02*
X230237142Y-132208328D01*
X231227619Y-130708328D02*
X232032381Y-130708328D01*
X232032381Y-130708328D02*
X231599047Y-131279757D01*
X231599047Y-131279757D02*
X231784762Y-131279757D01*
X231784762Y-131279757D02*
X231908571Y-131351185D01*
X231908571Y-131351185D02*
X231970476Y-131422614D01*
X231970476Y-131422614D02*
X232032381Y-131565471D01*
X232032381Y-131565471D02*
X232032381Y-131922614D01*
X232032381Y-131922614D02*
X231970476Y-132065471D01*
X231970476Y-132065471D02*
X231908571Y-132136900D01*
X231908571Y-132136900D02*
X231784762Y-132208328D01*
X231784762Y-132208328D02*
X231413333Y-132208328D01*
X231413333Y-132208328D02*
X231289524Y-132136900D01*
X231289524Y-132136900D02*
X231227619Y-132065471D01*
X182456429Y-110318328D02*
X182456429Y-108818328D01*
X182456429Y-108818328D02*
X182956429Y-109889757D01*
X182956429Y-109889757D02*
X183456429Y-108818328D01*
X183456429Y-108818328D02*
X183456429Y-110318328D01*
X183956430Y-108818328D02*
X184813573Y-108818328D01*
X184385001Y-110318328D02*
X184385001Y-108818328D01*
X185527858Y-109461185D02*
X185385001Y-109389757D01*
X185385001Y-109389757D02*
X185313572Y-109318328D01*
X185313572Y-109318328D02*
X185242144Y-109175471D01*
X185242144Y-109175471D02*
X185242144Y-109104042D01*
X185242144Y-109104042D02*
X185313572Y-108961185D01*
X185313572Y-108961185D02*
X185385001Y-108889757D01*
X185385001Y-108889757D02*
X185527858Y-108818328D01*
X185527858Y-108818328D02*
X185813572Y-108818328D01*
X185813572Y-108818328D02*
X185956430Y-108889757D01*
X185956430Y-108889757D02*
X186027858Y-108961185D01*
X186027858Y-108961185D02*
X186099287Y-109104042D01*
X186099287Y-109104042D02*
X186099287Y-109175471D01*
X186099287Y-109175471D02*
X186027858Y-109318328D01*
X186027858Y-109318328D02*
X185956430Y-109389757D01*
X185956430Y-109389757D02*
X185813572Y-109461185D01*
X185813572Y-109461185D02*
X185527858Y-109461185D01*
X185527858Y-109461185D02*
X185385001Y-109532614D01*
X185385001Y-109532614D02*
X185313572Y-109604042D01*
X185313572Y-109604042D02*
X185242144Y-109746900D01*
X185242144Y-109746900D02*
X185242144Y-110032614D01*
X185242144Y-110032614D02*
X185313572Y-110175471D01*
X185313572Y-110175471D02*
X185385001Y-110246900D01*
X185385001Y-110246900D02*
X185527858Y-110318328D01*
X185527858Y-110318328D02*
X185813572Y-110318328D01*
X185813572Y-110318328D02*
X185956430Y-110246900D01*
X185956430Y-110246900D02*
X186027858Y-110175471D01*
X186027858Y-110175471D02*
X186099287Y-110032614D01*
X186099287Y-110032614D02*
X186099287Y-109746900D01*
X186099287Y-109746900D02*
X186027858Y-109604042D01*
X186027858Y-109604042D02*
X185956430Y-109532614D01*
X185956430Y-109532614D02*
X185813572Y-109461185D01*
X186956429Y-109461185D02*
X186813572Y-109389757D01*
X186813572Y-109389757D02*
X186742143Y-109318328D01*
X186742143Y-109318328D02*
X186670715Y-109175471D01*
X186670715Y-109175471D02*
X186670715Y-109104042D01*
X186670715Y-109104042D02*
X186742143Y-108961185D01*
X186742143Y-108961185D02*
X186813572Y-108889757D01*
X186813572Y-108889757D02*
X186956429Y-108818328D01*
X186956429Y-108818328D02*
X187242143Y-108818328D01*
X187242143Y-108818328D02*
X187385001Y-108889757D01*
X187385001Y-108889757D02*
X187456429Y-108961185D01*
X187456429Y-108961185D02*
X187527858Y-109104042D01*
X187527858Y-109104042D02*
X187527858Y-109175471D01*
X187527858Y-109175471D02*
X187456429Y-109318328D01*
X187456429Y-109318328D02*
X187385001Y-109389757D01*
X187385001Y-109389757D02*
X187242143Y-109461185D01*
X187242143Y-109461185D02*
X186956429Y-109461185D01*
X186956429Y-109461185D02*
X186813572Y-109532614D01*
X186813572Y-109532614D02*
X186742143Y-109604042D01*
X186742143Y-109604042D02*
X186670715Y-109746900D01*
X186670715Y-109746900D02*
X186670715Y-110032614D01*
X186670715Y-110032614D02*
X186742143Y-110175471D01*
X186742143Y-110175471D02*
X186813572Y-110246900D01*
X186813572Y-110246900D02*
X186956429Y-110318328D01*
X186956429Y-110318328D02*
X187242143Y-110318328D01*
X187242143Y-110318328D02*
X187385001Y-110246900D01*
X187385001Y-110246900D02*
X187456429Y-110175471D01*
X187456429Y-110175471D02*
X187527858Y-110032614D01*
X187527858Y-110032614D02*
X187527858Y-109746900D01*
X187527858Y-109746900D02*
X187456429Y-109604042D01*
X187456429Y-109604042D02*
X187385001Y-109532614D01*
X187385001Y-109532614D02*
X187242143Y-109461185D01*
X188956429Y-110318328D02*
X188099286Y-110318328D01*
X188527857Y-110318328D02*
X188527857Y-108818328D01*
X188527857Y-108818328D02*
X188385000Y-109032614D01*
X188385000Y-109032614D02*
X188242143Y-109175471D01*
X188242143Y-109175471D02*
X188099286Y-109246900D01*
X190242143Y-108818328D02*
X189956428Y-108818328D01*
X189956428Y-108818328D02*
X189813571Y-108889757D01*
X189813571Y-108889757D02*
X189742143Y-108961185D01*
X189742143Y-108961185D02*
X189599285Y-109175471D01*
X189599285Y-109175471D02*
X189527857Y-109461185D01*
X189527857Y-109461185D02*
X189527857Y-110032614D01*
X189527857Y-110032614D02*
X189599285Y-110175471D01*
X189599285Y-110175471D02*
X189670714Y-110246900D01*
X189670714Y-110246900D02*
X189813571Y-110318328D01*
X189813571Y-110318328D02*
X190099285Y-110318328D01*
X190099285Y-110318328D02*
X190242143Y-110246900D01*
X190242143Y-110246900D02*
X190313571Y-110175471D01*
X190313571Y-110175471D02*
X190385000Y-110032614D01*
X190385000Y-110032614D02*
X190385000Y-109675471D01*
X190385000Y-109675471D02*
X190313571Y-109532614D01*
X190313571Y-109532614D02*
X190242143Y-109461185D01*
X190242143Y-109461185D02*
X190099285Y-109389757D01*
X190099285Y-109389757D02*
X189813571Y-109389757D01*
X189813571Y-109389757D02*
X189670714Y-109461185D01*
X189670714Y-109461185D02*
X189599285Y-109532614D01*
X189599285Y-109532614D02*
X189527857Y-109675471D01*
X233265714Y-93978328D02*
X232765714Y-93264042D01*
X232408571Y-93978328D02*
X232408571Y-92478328D01*
X232408571Y-92478328D02*
X232980000Y-92478328D01*
X232980000Y-92478328D02*
X233122857Y-92549757D01*
X233122857Y-92549757D02*
X233194286Y-92621185D01*
X233194286Y-92621185D02*
X233265714Y-92764042D01*
X233265714Y-92764042D02*
X233265714Y-92978328D01*
X233265714Y-92978328D02*
X233194286Y-93121185D01*
X233194286Y-93121185D02*
X233122857Y-93192614D01*
X233122857Y-93192614D02*
X232980000Y-93264042D01*
X232980000Y-93264042D02*
X232408571Y-93264042D01*
X234551429Y-92478328D02*
X234265714Y-92478328D01*
X234265714Y-92478328D02*
X234122857Y-92549757D01*
X234122857Y-92549757D02*
X234051429Y-92621185D01*
X234051429Y-92621185D02*
X233908571Y-92835471D01*
X233908571Y-92835471D02*
X233837143Y-93121185D01*
X233837143Y-93121185D02*
X233837143Y-93692614D01*
X233837143Y-93692614D02*
X233908571Y-93835471D01*
X233908571Y-93835471D02*
X233980000Y-93906900D01*
X233980000Y-93906900D02*
X234122857Y-93978328D01*
X234122857Y-93978328D02*
X234408571Y-93978328D01*
X234408571Y-93978328D02*
X234551429Y-93906900D01*
X234551429Y-93906900D02*
X234622857Y-93835471D01*
X234622857Y-93835471D02*
X234694286Y-93692614D01*
X234694286Y-93692614D02*
X234694286Y-93335471D01*
X234694286Y-93335471D02*
X234622857Y-93192614D01*
X234622857Y-93192614D02*
X234551429Y-93121185D01*
X234551429Y-93121185D02*
X234408571Y-93049757D01*
X234408571Y-93049757D02*
X234122857Y-93049757D01*
X234122857Y-93049757D02*
X233980000Y-93121185D01*
X233980000Y-93121185D02*
X233908571Y-93192614D01*
X233908571Y-93192614D02*
X233837143Y-93335471D01*
X230856190Y-124961185D02*
X230732380Y-124889757D01*
X230732380Y-124889757D02*
X230608571Y-124746900D01*
X230608571Y-124746900D02*
X230422857Y-124532614D01*
X230422857Y-124532614D02*
X230299047Y-124461185D01*
X230299047Y-124461185D02*
X230175238Y-124461185D01*
X230237142Y-124818328D02*
X230113333Y-124746900D01*
X230113333Y-124746900D02*
X229989523Y-124604042D01*
X229989523Y-124604042D02*
X229927619Y-124318328D01*
X229927619Y-124318328D02*
X229927619Y-123818328D01*
X229927619Y-123818328D02*
X229989523Y-123532614D01*
X229989523Y-123532614D02*
X230113333Y-123389757D01*
X230113333Y-123389757D02*
X230237142Y-123318328D01*
X230237142Y-123318328D02*
X230484761Y-123318328D01*
X230484761Y-123318328D02*
X230608571Y-123389757D01*
X230608571Y-123389757D02*
X230732380Y-123532614D01*
X230732380Y-123532614D02*
X230794285Y-123818328D01*
X230794285Y-123818328D02*
X230794285Y-124318328D01*
X230794285Y-124318328D02*
X230732380Y-124604042D01*
X230732380Y-124604042D02*
X230608571Y-124746900D01*
X230608571Y-124746900D02*
X230484761Y-124818328D01*
X230484761Y-124818328D02*
X230237142Y-124818328D01*
X231289524Y-123461185D02*
X231351428Y-123389757D01*
X231351428Y-123389757D02*
X231475238Y-123318328D01*
X231475238Y-123318328D02*
X231784762Y-123318328D01*
X231784762Y-123318328D02*
X231908571Y-123389757D01*
X231908571Y-123389757D02*
X231970476Y-123461185D01*
X231970476Y-123461185D02*
X232032381Y-123604042D01*
X232032381Y-123604042D02*
X232032381Y-123746900D01*
X232032381Y-123746900D02*
X231970476Y-123961185D01*
X231970476Y-123961185D02*
X231227619Y-124818328D01*
X231227619Y-124818328D02*
X232032381Y-124818328D01*
X197667857Y-89858328D02*
X197667857Y-88358328D01*
X197667857Y-88358328D02*
X198025000Y-88358328D01*
X198025000Y-88358328D02*
X198239286Y-88429757D01*
X198239286Y-88429757D02*
X198382143Y-88572614D01*
X198382143Y-88572614D02*
X198453572Y-88715471D01*
X198453572Y-88715471D02*
X198525000Y-89001185D01*
X198525000Y-89001185D02*
X198525000Y-89215471D01*
X198525000Y-89215471D02*
X198453572Y-89501185D01*
X198453572Y-89501185D02*
X198382143Y-89644042D01*
X198382143Y-89644042D02*
X198239286Y-89786900D01*
X198239286Y-89786900D02*
X198025000Y-89858328D01*
X198025000Y-89858328D02*
X197667857Y-89858328D01*
X199025000Y-88358328D02*
X199953572Y-88358328D01*
X199953572Y-88358328D02*
X199453572Y-88929757D01*
X199453572Y-88929757D02*
X199667857Y-88929757D01*
X199667857Y-88929757D02*
X199810715Y-89001185D01*
X199810715Y-89001185D02*
X199882143Y-89072614D01*
X199882143Y-89072614D02*
X199953572Y-89215471D01*
X199953572Y-89215471D02*
X199953572Y-89572614D01*
X199953572Y-89572614D02*
X199882143Y-89715471D01*
X199882143Y-89715471D02*
X199810715Y-89786900D01*
X199810715Y-89786900D02*
X199667857Y-89858328D01*
X199667857Y-89858328D02*
X199239286Y-89858328D01*
X199239286Y-89858328D02*
X199096429Y-89786900D01*
X199096429Y-89786900D02*
X199025000Y-89715471D01*
X196039286Y-98631900D02*
X196253572Y-98703328D01*
X196253572Y-98703328D02*
X196610714Y-98703328D01*
X196610714Y-98703328D02*
X196753572Y-98631900D01*
X196753572Y-98631900D02*
X196825000Y-98560471D01*
X196825000Y-98560471D02*
X196896429Y-98417614D01*
X196896429Y-98417614D02*
X196896429Y-98274757D01*
X196896429Y-98274757D02*
X196825000Y-98131900D01*
X196825000Y-98131900D02*
X196753572Y-98060471D01*
X196753572Y-98060471D02*
X196610714Y-97989042D01*
X196610714Y-97989042D02*
X196325000Y-97917614D01*
X196325000Y-97917614D02*
X196182143Y-97846185D01*
X196182143Y-97846185D02*
X196110714Y-97774757D01*
X196110714Y-97774757D02*
X196039286Y-97631900D01*
X196039286Y-97631900D02*
X196039286Y-97489042D01*
X196039286Y-97489042D02*
X196110714Y-97346185D01*
X196110714Y-97346185D02*
X196182143Y-97274757D01*
X196182143Y-97274757D02*
X196325000Y-97203328D01*
X196325000Y-97203328D02*
X196682143Y-97203328D01*
X196682143Y-97203328D02*
X196896429Y-97274757D01*
X197539285Y-98703328D02*
X197539285Y-97203328D01*
X197539285Y-97917614D02*
X198396428Y-97917614D01*
X198396428Y-98703328D02*
X198396428Y-97203328D01*
X199110714Y-98703328D02*
X199110714Y-97203328D01*
X200325000Y-97917614D02*
X199825000Y-97917614D01*
X199825000Y-98703328D02*
X199825000Y-97203328D01*
X199825000Y-97203328D02*
X200539286Y-97203328D01*
X200896429Y-97203328D02*
X201753572Y-97203328D01*
X201325000Y-98703328D02*
X201325000Y-97203328D01*
X189702857Y-89858328D02*
X189702857Y-88358328D01*
X189702857Y-88358328D02*
X190060000Y-88358328D01*
X190060000Y-88358328D02*
X190274286Y-88429757D01*
X190274286Y-88429757D02*
X190417143Y-88572614D01*
X190417143Y-88572614D02*
X190488572Y-88715471D01*
X190488572Y-88715471D02*
X190560000Y-89001185D01*
X190560000Y-89001185D02*
X190560000Y-89215471D01*
X190560000Y-89215471D02*
X190488572Y-89501185D01*
X190488572Y-89501185D02*
X190417143Y-89644042D01*
X190417143Y-89644042D02*
X190274286Y-89786900D01*
X190274286Y-89786900D02*
X190060000Y-89858328D01*
X190060000Y-89858328D02*
X189702857Y-89858328D01*
X191131429Y-88501185D02*
X191202857Y-88429757D01*
X191202857Y-88429757D02*
X191345715Y-88358328D01*
X191345715Y-88358328D02*
X191702857Y-88358328D01*
X191702857Y-88358328D02*
X191845715Y-88429757D01*
X191845715Y-88429757D02*
X191917143Y-88501185D01*
X191917143Y-88501185D02*
X191988572Y-88644042D01*
X191988572Y-88644042D02*
X191988572Y-88786900D01*
X191988572Y-88786900D02*
X191917143Y-89001185D01*
X191917143Y-89001185D02*
X191060000Y-89858328D01*
X191060000Y-89858328D02*
X191988572Y-89858328D01*
X187395713Y-98703328D02*
X187395713Y-97203328D01*
X187395713Y-97203328D02*
X187967142Y-97203328D01*
X187967142Y-97203328D02*
X188109999Y-97274757D01*
X188109999Y-97274757D02*
X188181428Y-97346185D01*
X188181428Y-97346185D02*
X188252856Y-97489042D01*
X188252856Y-97489042D02*
X188252856Y-97703328D01*
X188252856Y-97703328D02*
X188181428Y-97846185D01*
X188181428Y-97846185D02*
X188109999Y-97917614D01*
X188109999Y-97917614D02*
X187967142Y-97989042D01*
X187967142Y-97989042D02*
X187395713Y-97989042D01*
X189181428Y-97203328D02*
X189467142Y-97203328D01*
X189467142Y-97203328D02*
X189609999Y-97274757D01*
X189609999Y-97274757D02*
X189752856Y-97417614D01*
X189752856Y-97417614D02*
X189824285Y-97703328D01*
X189824285Y-97703328D02*
X189824285Y-98203328D01*
X189824285Y-98203328D02*
X189752856Y-98489042D01*
X189752856Y-98489042D02*
X189609999Y-98631900D01*
X189609999Y-98631900D02*
X189467142Y-98703328D01*
X189467142Y-98703328D02*
X189181428Y-98703328D01*
X189181428Y-98703328D02*
X189038571Y-98631900D01*
X189038571Y-98631900D02*
X188895713Y-98489042D01*
X188895713Y-98489042D02*
X188824285Y-98203328D01*
X188824285Y-98203328D02*
X188824285Y-97703328D01*
X188824285Y-97703328D02*
X188895713Y-97417614D01*
X188895713Y-97417614D02*
X189038571Y-97274757D01*
X189038571Y-97274757D02*
X189181428Y-97203328D01*
X190324285Y-97203328D02*
X190681428Y-98703328D01*
X190681428Y-98703328D02*
X190967142Y-97631900D01*
X190967142Y-97631900D02*
X191252857Y-98703328D01*
X191252857Y-98703328D02*
X191610000Y-97203328D01*
X192181428Y-97917614D02*
X192681428Y-97917614D01*
X192895714Y-98703328D02*
X192181428Y-98703328D01*
X192181428Y-98703328D02*
X192181428Y-97203328D01*
X192181428Y-97203328D02*
X192895714Y-97203328D01*
X194395714Y-98703328D02*
X193895714Y-97989042D01*
X193538571Y-98703328D02*
X193538571Y-97203328D01*
X193538571Y-97203328D02*
X194110000Y-97203328D01*
X194110000Y-97203328D02*
X194252857Y-97274757D01*
X194252857Y-97274757D02*
X194324286Y-97346185D01*
X194324286Y-97346185D02*
X194395714Y-97489042D01*
X194395714Y-97489042D02*
X194395714Y-97703328D01*
X194395714Y-97703328D02*
X194324286Y-97846185D01*
X194324286Y-97846185D02*
X194252857Y-97917614D01*
X194252857Y-97917614D02*
X194110000Y-97989042D01*
X194110000Y-97989042D02*
X193538571Y-97989042D01*
X184765000Y-94013328D02*
X184265000Y-93299042D01*
X183907857Y-94013328D02*
X183907857Y-92513328D01*
X183907857Y-92513328D02*
X184479286Y-92513328D01*
X184479286Y-92513328D02*
X184622143Y-92584757D01*
X184622143Y-92584757D02*
X184693572Y-92656185D01*
X184693572Y-92656185D02*
X184765000Y-92799042D01*
X184765000Y-92799042D02*
X184765000Y-93013328D01*
X184765000Y-93013328D02*
X184693572Y-93156185D01*
X184693572Y-93156185D02*
X184622143Y-93227614D01*
X184622143Y-93227614D02*
X184479286Y-93299042D01*
X184479286Y-93299042D02*
X183907857Y-93299042D01*
X185265000Y-92513328D02*
X186193572Y-92513328D01*
X186193572Y-92513328D02*
X185693572Y-93084757D01*
X185693572Y-93084757D02*
X185907857Y-93084757D01*
X185907857Y-93084757D02*
X186050715Y-93156185D01*
X186050715Y-93156185D02*
X186122143Y-93227614D01*
X186122143Y-93227614D02*
X186193572Y-93370471D01*
X186193572Y-93370471D02*
X186193572Y-93727614D01*
X186193572Y-93727614D02*
X186122143Y-93870471D01*
X186122143Y-93870471D02*
X186050715Y-93941900D01*
X186050715Y-93941900D02*
X185907857Y-94013328D01*
X185907857Y-94013328D02*
X185479286Y-94013328D01*
X185479286Y-94013328D02*
X185336429Y-93941900D01*
X185336429Y-93941900D02*
X185265000Y-93870471D01*
X230856190Y-117601185D02*
X230732380Y-117529757D01*
X230732380Y-117529757D02*
X230608571Y-117386900D01*
X230608571Y-117386900D02*
X230422857Y-117172614D01*
X230422857Y-117172614D02*
X230299047Y-117101185D01*
X230299047Y-117101185D02*
X230175238Y-117101185D01*
X230237142Y-117458328D02*
X230113333Y-117386900D01*
X230113333Y-117386900D02*
X229989523Y-117244042D01*
X229989523Y-117244042D02*
X229927619Y-116958328D01*
X229927619Y-116958328D02*
X229927619Y-116458328D01*
X229927619Y-116458328D02*
X229989523Y-116172614D01*
X229989523Y-116172614D02*
X230113333Y-116029757D01*
X230113333Y-116029757D02*
X230237142Y-115958328D01*
X230237142Y-115958328D02*
X230484761Y-115958328D01*
X230484761Y-115958328D02*
X230608571Y-116029757D01*
X230608571Y-116029757D02*
X230732380Y-116172614D01*
X230732380Y-116172614D02*
X230794285Y-116458328D01*
X230794285Y-116458328D02*
X230794285Y-116958328D01*
X230794285Y-116958328D02*
X230732380Y-117244042D01*
X230732380Y-117244042D02*
X230608571Y-117386900D01*
X230608571Y-117386900D02*
X230484761Y-117458328D01*
X230484761Y-117458328D02*
X230237142Y-117458328D01*
X231908571Y-116458328D02*
X231908571Y-117458328D01*
X231599047Y-115886900D02*
X231289524Y-116958328D01*
X231289524Y-116958328D02*
X232094285Y-116958328D01*
X214638328Y-104059999D02*
X213924042Y-104559999D01*
X214638328Y-104917142D02*
X213138328Y-104917142D01*
X213138328Y-104917142D02*
X213138328Y-104345713D01*
X213138328Y-104345713D02*
X213209757Y-104202856D01*
X213209757Y-104202856D02*
X213281185Y-104131427D01*
X213281185Y-104131427D02*
X213424042Y-104059999D01*
X213424042Y-104059999D02*
X213638328Y-104059999D01*
X213638328Y-104059999D02*
X213781185Y-104131427D01*
X213781185Y-104131427D02*
X213852614Y-104202856D01*
X213852614Y-104202856D02*
X213924042Y-104345713D01*
X213924042Y-104345713D02*
X213924042Y-104917142D01*
X214638328Y-102631427D02*
X214638328Y-103488570D01*
X214638328Y-103059999D02*
X213138328Y-103059999D01*
X213138328Y-103059999D02*
X213352614Y-103202856D01*
X213352614Y-103202856D02*
X213495471Y-103345713D01*
X213495471Y-103345713D02*
X213566900Y-103488570D01*
X217902857Y-124248328D02*
X217902857Y-122748328D01*
X218760000Y-124248328D02*
X218117143Y-123391185D01*
X218760000Y-122748328D02*
X217902857Y-123605471D01*
X219902857Y-123462614D02*
X220117143Y-123534042D01*
X220117143Y-123534042D02*
X220188572Y-123605471D01*
X220188572Y-123605471D02*
X220260000Y-123748328D01*
X220260000Y-123748328D02*
X220260000Y-123962614D01*
X220260000Y-123962614D02*
X220188572Y-124105471D01*
X220188572Y-124105471D02*
X220117143Y-124176900D01*
X220117143Y-124176900D02*
X219974286Y-124248328D01*
X219974286Y-124248328D02*
X219402857Y-124248328D01*
X219402857Y-124248328D02*
X219402857Y-122748328D01*
X219402857Y-122748328D02*
X219902857Y-122748328D01*
X219902857Y-122748328D02*
X220045715Y-122819757D01*
X220045715Y-122819757D02*
X220117143Y-122891185D01*
X220117143Y-122891185D02*
X220188572Y-123034042D01*
X220188572Y-123034042D02*
X220188572Y-123176900D01*
X220188572Y-123176900D02*
X220117143Y-123319757D01*
X220117143Y-123319757D02*
X220045715Y-123391185D01*
X220045715Y-123391185D02*
X219902857Y-123462614D01*
X219902857Y-123462614D02*
X219402857Y-123462614D01*
X221688572Y-124248328D02*
X220831429Y-124248328D01*
X221260000Y-124248328D02*
X221260000Y-122748328D01*
X221260000Y-122748328D02*
X221117143Y-122962614D01*
X221117143Y-122962614D02*
X220974286Y-123105471D01*
X220974286Y-123105471D02*
X220831429Y-123176900D01*
X233265714Y-96518328D02*
X232765714Y-95804042D01*
X232408571Y-96518328D02*
X232408571Y-95018328D01*
X232408571Y-95018328D02*
X232980000Y-95018328D01*
X232980000Y-95018328D02*
X233122857Y-95089757D01*
X233122857Y-95089757D02*
X233194286Y-95161185D01*
X233194286Y-95161185D02*
X233265714Y-95304042D01*
X233265714Y-95304042D02*
X233265714Y-95518328D01*
X233265714Y-95518328D02*
X233194286Y-95661185D01*
X233194286Y-95661185D02*
X233122857Y-95732614D01*
X233122857Y-95732614D02*
X232980000Y-95804042D01*
X232980000Y-95804042D02*
X232408571Y-95804042D01*
X234694286Y-96518328D02*
X233837143Y-96518328D01*
X234265714Y-96518328D02*
X234265714Y-95018328D01*
X234265714Y-95018328D02*
X234122857Y-95232614D01*
X234122857Y-95232614D02*
X233980000Y-95375471D01*
X233980000Y-95375471D02*
X233837143Y-95446900D01*
X235622857Y-95018328D02*
X235765714Y-95018328D01*
X235765714Y-95018328D02*
X235908571Y-95089757D01*
X235908571Y-95089757D02*
X235980000Y-95161185D01*
X235980000Y-95161185D02*
X236051428Y-95304042D01*
X236051428Y-95304042D02*
X236122857Y-95589757D01*
X236122857Y-95589757D02*
X236122857Y-95946900D01*
X236122857Y-95946900D02*
X236051428Y-96232614D01*
X236051428Y-96232614D02*
X235980000Y-96375471D01*
X235980000Y-96375471D02*
X235908571Y-96446900D01*
X235908571Y-96446900D02*
X235765714Y-96518328D01*
X235765714Y-96518328D02*
X235622857Y-96518328D01*
X235622857Y-96518328D02*
X235480000Y-96446900D01*
X235480000Y-96446900D02*
X235408571Y-96375471D01*
X235408571Y-96375471D02*
X235337142Y-96232614D01*
X235337142Y-96232614D02*
X235265714Y-95946900D01*
X235265714Y-95946900D02*
X235265714Y-95589757D01*
X235265714Y-95589757D02*
X235337142Y-95304042D01*
X235337142Y-95304042D02*
X235408571Y-95161185D01*
X235408571Y-95161185D02*
X235480000Y-95089757D01*
X235480000Y-95089757D02*
X235622857Y-95018328D01*
X197098328Y-65697142D02*
X195598328Y-65697142D01*
X195598328Y-65697142D02*
X195598328Y-65125713D01*
X195598328Y-65125713D02*
X195669757Y-64982856D01*
X195669757Y-64982856D02*
X195741185Y-64911427D01*
X195741185Y-64911427D02*
X195884042Y-64839999D01*
X195884042Y-64839999D02*
X196098328Y-64839999D01*
X196098328Y-64839999D02*
X196241185Y-64911427D01*
X196241185Y-64911427D02*
X196312614Y-64982856D01*
X196312614Y-64982856D02*
X196384042Y-65125713D01*
X196384042Y-65125713D02*
X196384042Y-65697142D01*
X197026900Y-64268570D02*
X197098328Y-64054285D01*
X197098328Y-64054285D02*
X197098328Y-63697142D01*
X197098328Y-63697142D02*
X197026900Y-63554285D01*
X197026900Y-63554285D02*
X196955471Y-63482856D01*
X196955471Y-63482856D02*
X196812614Y-63411427D01*
X196812614Y-63411427D02*
X196669757Y-63411427D01*
X196669757Y-63411427D02*
X196526900Y-63482856D01*
X196526900Y-63482856D02*
X196455471Y-63554285D01*
X196455471Y-63554285D02*
X196384042Y-63697142D01*
X196384042Y-63697142D02*
X196312614Y-63982856D01*
X196312614Y-63982856D02*
X196241185Y-64125713D01*
X196241185Y-64125713D02*
X196169757Y-64197142D01*
X196169757Y-64197142D02*
X196026900Y-64268570D01*
X196026900Y-64268570D02*
X195884042Y-64268570D01*
X195884042Y-64268570D02*
X195741185Y-64197142D01*
X195741185Y-64197142D02*
X195669757Y-64125713D01*
X195669757Y-64125713D02*
X195598328Y-63982856D01*
X195598328Y-63982856D02*
X195598328Y-63625713D01*
X195598328Y-63625713D02*
X195669757Y-63411427D01*
X195526900Y-61697142D02*
X197455471Y-62982856D01*
X195741185Y-61268570D02*
X195669757Y-61197142D01*
X195669757Y-61197142D02*
X195598328Y-61054285D01*
X195598328Y-61054285D02*
X195598328Y-60697142D01*
X195598328Y-60697142D02*
X195669757Y-60554285D01*
X195669757Y-60554285D02*
X195741185Y-60482856D01*
X195741185Y-60482856D02*
X195884042Y-60411427D01*
X195884042Y-60411427D02*
X196026900Y-60411427D01*
X196026900Y-60411427D02*
X196241185Y-60482856D01*
X196241185Y-60482856D02*
X197098328Y-61339999D01*
X197098328Y-61339999D02*
X197098328Y-60411427D01*
X175900000Y-99455471D02*
X175828572Y-99526900D01*
X175828572Y-99526900D02*
X175614286Y-99598328D01*
X175614286Y-99598328D02*
X175471429Y-99598328D01*
X175471429Y-99598328D02*
X175257143Y-99526900D01*
X175257143Y-99526900D02*
X175114286Y-99384042D01*
X175114286Y-99384042D02*
X175042857Y-99241185D01*
X175042857Y-99241185D02*
X174971429Y-98955471D01*
X174971429Y-98955471D02*
X174971429Y-98741185D01*
X174971429Y-98741185D02*
X175042857Y-98455471D01*
X175042857Y-98455471D02*
X175114286Y-98312614D01*
X175114286Y-98312614D02*
X175257143Y-98169757D01*
X175257143Y-98169757D02*
X175471429Y-98098328D01*
X175471429Y-98098328D02*
X175614286Y-98098328D01*
X175614286Y-98098328D02*
X175828572Y-98169757D01*
X175828572Y-98169757D02*
X175900000Y-98241185D01*
X177328572Y-99598328D02*
X176471429Y-99598328D01*
X176900000Y-99598328D02*
X176900000Y-98098328D01*
X176900000Y-98098328D02*
X176757143Y-98312614D01*
X176757143Y-98312614D02*
X176614286Y-98455471D01*
X176614286Y-98455471D02*
X176471429Y-98526900D01*
X233265714Y-101608328D02*
X232765714Y-100894042D01*
X232408571Y-101608328D02*
X232408571Y-100108328D01*
X232408571Y-100108328D02*
X232980000Y-100108328D01*
X232980000Y-100108328D02*
X233122857Y-100179757D01*
X233122857Y-100179757D02*
X233194286Y-100251185D01*
X233194286Y-100251185D02*
X233265714Y-100394042D01*
X233265714Y-100394042D02*
X233265714Y-100608328D01*
X233265714Y-100608328D02*
X233194286Y-100751185D01*
X233194286Y-100751185D02*
X233122857Y-100822614D01*
X233122857Y-100822614D02*
X232980000Y-100894042D01*
X232980000Y-100894042D02*
X232408571Y-100894042D01*
X234122857Y-100751185D02*
X233980000Y-100679757D01*
X233980000Y-100679757D02*
X233908571Y-100608328D01*
X233908571Y-100608328D02*
X233837143Y-100465471D01*
X233837143Y-100465471D02*
X233837143Y-100394042D01*
X233837143Y-100394042D02*
X233908571Y-100251185D01*
X233908571Y-100251185D02*
X233980000Y-100179757D01*
X233980000Y-100179757D02*
X234122857Y-100108328D01*
X234122857Y-100108328D02*
X234408571Y-100108328D01*
X234408571Y-100108328D02*
X234551429Y-100179757D01*
X234551429Y-100179757D02*
X234622857Y-100251185D01*
X234622857Y-100251185D02*
X234694286Y-100394042D01*
X234694286Y-100394042D02*
X234694286Y-100465471D01*
X234694286Y-100465471D02*
X234622857Y-100608328D01*
X234622857Y-100608328D02*
X234551429Y-100679757D01*
X234551429Y-100679757D02*
X234408571Y-100751185D01*
X234408571Y-100751185D02*
X234122857Y-100751185D01*
X234122857Y-100751185D02*
X233980000Y-100822614D01*
X233980000Y-100822614D02*
X233908571Y-100894042D01*
X233908571Y-100894042D02*
X233837143Y-101036900D01*
X233837143Y-101036900D02*
X233837143Y-101322614D01*
X233837143Y-101322614D02*
X233908571Y-101465471D01*
X233908571Y-101465471D02*
X233980000Y-101536900D01*
X233980000Y-101536900D02*
X234122857Y-101608328D01*
X234122857Y-101608328D02*
X234408571Y-101608328D01*
X234408571Y-101608328D02*
X234551429Y-101536900D01*
X234551429Y-101536900D02*
X234622857Y-101465471D01*
X234622857Y-101465471D02*
X234694286Y-101322614D01*
X234694286Y-101322614D02*
X234694286Y-101036900D01*
X234694286Y-101036900D02*
X234622857Y-100894042D01*
X234622857Y-100894042D02*
X234551429Y-100822614D01*
X234551429Y-100822614D02*
X234408571Y-100751185D01*
%TO.C,R5*%
X218760000Y-102200000D02*
X218760000Y-103470000D01*
X218760000Y-103470000D02*
X218760000Y-104740000D01*
X220030000Y-102200000D02*
X218760000Y-102200000D01*
X220030000Y-104740000D02*
X218760000Y-104740000D01*
X230190000Y-102200000D02*
X220030000Y-102200000D01*
X230190000Y-104740000D02*
X220030000Y-104740000D01*
X231460000Y-102200000D02*
X230190000Y-102200000D01*
X231460000Y-104740000D02*
X230190000Y-104740000D01*
X231460000Y-104740000D02*
X231460000Y-102200000D01*
%TO.C,R4*%
X218760000Y-97110000D02*
X218760000Y-98380000D01*
X218760000Y-98380000D02*
X218760000Y-99650000D01*
X220030000Y-97110000D02*
X218760000Y-97110000D01*
X220030000Y-99650000D02*
X218760000Y-99650000D01*
X230190000Y-97110000D02*
X220030000Y-97110000D01*
X230190000Y-99650000D02*
X220030000Y-99650000D01*
X231460000Y-97110000D02*
X230190000Y-97110000D01*
X231460000Y-99650000D02*
X230190000Y-99650000D01*
X231460000Y-99650000D02*
X231460000Y-97110000D01*
D11*
%TO.C,J3*%
X219220000Y-56640000D02*
X219220000Y-64260000D01*
X219220000Y-64260000D02*
X225190000Y-64260000D01*
X219980000Y-60450000D02*
X219980000Y-58460000D01*
X219980000Y-63500000D02*
X219980000Y-60450000D01*
X222930000Y-56650000D02*
X222930000Y-57400000D01*
X222930000Y-57400000D02*
X221590000Y-57400000D01*
X222930000Y-63500000D02*
X219980000Y-63500000D01*
X222930000Y-64250000D02*
X222930000Y-63500000D01*
X224430000Y-56650000D02*
X224430000Y-58450000D01*
X224430000Y-58450000D02*
X225180000Y-58450000D01*
X224430000Y-59950000D02*
X224430000Y-60950000D01*
X224430000Y-60950000D02*
X225180000Y-60950000D01*
X224430000Y-62450000D02*
X224430000Y-64250000D01*
X224430000Y-64250000D02*
X225180000Y-64250000D01*
X225180000Y-56650000D02*
X224430000Y-56650000D01*
X225180000Y-58450000D02*
X225180000Y-56650000D01*
X225180000Y-59950000D02*
X224430000Y-59950000D01*
X225180000Y-60950000D02*
X225180000Y-59950000D01*
X225180000Y-62450000D02*
X224430000Y-62450000D01*
X225180000Y-64250000D02*
X225180000Y-62450000D01*
X225190000Y-56640000D02*
X219220000Y-56640000D01*
X225190000Y-64260000D02*
X225190000Y-56640000D01*
X225480000Y-56350000D02*
X224230000Y-56350000D01*
X225480000Y-57600000D02*
X225480000Y-56350000D01*
D10*
%TO.C,J1*%
X207060000Y-52790000D02*
X216260000Y-52790000D01*
X207060000Y-61590000D02*
X207060000Y-52790000D01*
X207060000Y-67490000D02*
X207060000Y-65590000D01*
X209760000Y-67490000D02*
X207060000Y-67490000D01*
X216260000Y-52790000D02*
X216260000Y-67490000D01*
X216260000Y-67490000D02*
X213660000Y-67490000D01*
%TO.C,R9*%
X218760000Y-104740000D02*
X218760000Y-106010000D01*
X218760000Y-106010000D02*
X218760000Y-107280000D01*
X220030000Y-104740000D02*
X218760000Y-104740000D01*
X220030000Y-107280000D02*
X218760000Y-107280000D01*
X230190000Y-104740000D02*
X220030000Y-104740000D01*
X230190000Y-107280000D02*
X220030000Y-107280000D01*
X231460000Y-104740000D02*
X230190000Y-104740000D01*
X231460000Y-107280000D02*
X230190000Y-107280000D01*
X231460000Y-107280000D02*
X231460000Y-104740000D01*
%TO.C,D5*%
X211573750Y-96005000D02*
X210256250Y-94535000D01*
X210253750Y-90775000D02*
X215473750Y-90775000D01*
X215473750Y-96025000D01*
X210253750Y-96025000D01*
X210253750Y-90775000D01*
%TO.C,U2*%
X179330000Y-74245000D02*
X189490000Y-74245000D01*
X179330000Y-81865000D02*
X179330000Y-74245000D01*
X181740000Y-69035000D02*
X181740000Y-87075000D01*
X181740000Y-87075000D02*
X225180000Y-87075000D01*
X184410000Y-71705000D02*
X184410000Y-69035000D01*
X184410000Y-84405000D02*
X184410000Y-87075000D01*
X189490000Y-74245000D02*
X189490000Y-81865000D01*
X189490000Y-81865000D02*
X179330000Y-81865000D01*
X219970000Y-69035000D02*
X181740000Y-69035000D01*
X219970000Y-71705000D02*
X184410000Y-71705000D01*
X219970000Y-71705000D02*
X219970000Y-69035000D01*
X219970000Y-71705000D02*
X222510000Y-71705000D01*
X222510000Y-71705000D02*
X222510000Y-69035000D01*
X222510000Y-84405000D02*
X184410000Y-84405000D01*
X222510000Y-84405000D02*
X222510000Y-87075000D01*
X225180000Y-69035000D02*
X222510000Y-69035000D01*
X225180000Y-87075000D02*
X225180000Y-69035000D01*
%TO.C,D4*%
X204583750Y-96005000D02*
X203266250Y-94535000D01*
X203263750Y-90775000D02*
X208483750Y-90775000D01*
X208483750Y-96025000D01*
X203263750Y-96025000D01*
X203263750Y-90775000D01*
D12*
%TO.C,Q3*%
X230010000Y-129603482D02*
X231961221Y-129603482D01*
D10*
X232520000Y-132790000D02*
X233800000Y-131550000D01*
X228160000Y-125810000D02*
X233800000Y-125810000D01*
X233800000Y-132800000D01*
X228160000Y-132800000D01*
X228160000Y-125810000D01*
D12*
X230010000Y-129603482D02*
G75*
G02*
X230981221Y-128110001I971219J430946D01*
G01*
X230990000Y-128110000D02*
G75*
G02*
X231961174Y-129603461I0J-1062500D01*
G01*
D10*
%TO.C,U1*%
X161755000Y-118515000D02*
X160655000Y-117440000D01*
X160645000Y-118520000D02*
X212125000Y-118520000D01*
X212125000Y-100760000D01*
X160645000Y-100760000D01*
X160645000Y-118520000D01*
%TO.C,R6*%
X218760000Y-92030000D02*
X218760000Y-93300000D01*
X218760000Y-93300000D02*
X218760000Y-94570000D01*
X220030000Y-92030000D02*
X218760000Y-92030000D01*
X220030000Y-94570000D02*
X218760000Y-94570000D01*
X230190000Y-92030000D02*
X220030000Y-92030000D01*
X230190000Y-94570000D02*
X220030000Y-94570000D01*
X231460000Y-92030000D02*
X230190000Y-92030000D01*
X231460000Y-94570000D02*
X230190000Y-94570000D01*
X231460000Y-94570000D02*
X231460000Y-92030000D01*
D12*
%TO.C,Q2*%
X230010000Y-122213482D02*
X231961221Y-122213482D01*
D10*
X232520000Y-125400000D02*
X233800000Y-124160000D01*
X228160000Y-118420000D02*
X233800000Y-118420000D01*
X233800000Y-125410000D01*
X228160000Y-125410000D01*
X228160000Y-118420000D01*
D12*
X230010000Y-122213482D02*
G75*
G02*
X230981221Y-120720001I971219J430946D01*
G01*
X230990000Y-120720000D02*
G75*
G02*
X231961174Y-122213461I0J-1062500D01*
G01*
D10*
%TO.C,D3*%
X197558750Y-96005000D02*
X196241250Y-94535000D01*
X196238750Y-90775000D02*
X201458750Y-90775000D01*
X201458750Y-96025000D01*
X196238750Y-96025000D01*
X196238750Y-90775000D01*
%TO.C,D2*%
X189593750Y-96005000D02*
X188276250Y-94535000D01*
X188273750Y-90775000D02*
X193493750Y-90775000D01*
X193493750Y-96025000D01*
X188273750Y-96025000D01*
X188273750Y-90775000D01*
%TO.C,R3*%
X169360000Y-92140000D02*
X169360000Y-93410000D01*
X169360000Y-93410000D02*
X169360000Y-94680000D01*
X170630000Y-92140000D02*
X169360000Y-92140000D01*
X170630000Y-94680000D02*
X169360000Y-94680000D01*
X180790000Y-92140000D02*
X170630000Y-92140000D01*
X180790000Y-94680000D02*
X170630000Y-94680000D01*
X182060000Y-92140000D02*
X180790000Y-92140000D01*
X182060000Y-94680000D02*
X180790000Y-94680000D01*
X182060000Y-94680000D02*
X182060000Y-92140000D01*
D12*
%TO.C,Q4*%
X230010000Y-114853482D02*
X231961221Y-114853482D01*
D10*
X232520000Y-118040000D02*
X233800000Y-116800000D01*
X228160000Y-111060000D02*
X233800000Y-111060000D01*
X233800000Y-118050000D01*
X228160000Y-118050000D01*
X228160000Y-111060000D01*
D12*
X230010000Y-114853482D02*
G75*
G02*
X230981221Y-113360001I971219J430946D01*
G01*
X230990000Y-113360000D02*
G75*
G02*
X231961174Y-114853461I0J-1062500D01*
G01*
D10*
%TO.C,R1*%
X212720000Y-105950000D02*
X212720000Y-107220000D01*
X212720000Y-107220000D02*
X212720000Y-117380000D01*
X212720000Y-117380000D02*
X212720000Y-118650000D01*
X212720000Y-118650000D02*
X213990000Y-118650000D01*
X213990000Y-118650000D02*
X215260000Y-118650000D01*
X215260000Y-105950000D02*
X212720000Y-105950000D01*
X215260000Y-105950000D02*
X215260000Y-107220000D01*
X215260000Y-107220000D02*
X215260000Y-117380000D01*
X215260000Y-117380000D02*
X215260000Y-118650000D01*
%TO.C,KB1*%
X222165000Y-124912500D02*
X223265000Y-125987500D01*
X223305000Y-124865000D02*
X168155000Y-124865000D01*
X168155000Y-133280000D01*
X223305000Y-133280000D01*
X223305000Y-124865000D01*
%TO.C,R10*%
X218760000Y-94570000D02*
X218760000Y-95840000D01*
X218760000Y-95840000D02*
X218760000Y-97110000D01*
X220030000Y-94570000D02*
X218760000Y-94570000D01*
X220030000Y-97110000D02*
X218760000Y-97110000D01*
X230190000Y-94570000D02*
X220030000Y-94570000D01*
X230190000Y-97110000D02*
X220030000Y-97110000D01*
X231460000Y-94570000D02*
X230190000Y-94570000D01*
X231460000Y-97110000D02*
X230190000Y-97110000D01*
X231460000Y-97110000D02*
X231460000Y-94570000D01*
%TO.C,J2*%
X178580000Y-65780000D02*
X178580000Y-52780000D01*
X194780000Y-52780000D02*
X178580000Y-52780000D01*
X194780000Y-65780000D02*
X178580000Y-65780000D01*
X194780000Y-65780000D02*
X194780000Y-52780000D01*
%TO.C,C1*%
X161172500Y-97727500D02*
X161172500Y-100267500D01*
X161172500Y-100267500D02*
X173767500Y-100267500D01*
X173767500Y-97727500D02*
X161172500Y-97727500D01*
X173767500Y-97727500D02*
X173767500Y-100267500D01*
D13*
%TO.C,G1*%
G36*
X171420721Y-82043335D02*
G01*
X171444008Y-82048249D01*
X171451605Y-82050912D01*
X171481006Y-82067208D01*
X171506530Y-82090338D01*
X171527807Y-82119815D01*
X171544466Y-82155151D01*
X171553744Y-82185359D01*
X171555464Y-82195313D01*
X171557059Y-82210820D01*
X171558530Y-82232055D01*
X171559881Y-82259190D01*
X171561114Y-82292400D01*
X171562233Y-82331859D01*
X171563238Y-82377740D01*
X171564134Y-82430217D01*
X171564924Y-82489464D01*
X171565609Y-82555654D01*
X171566192Y-82628962D01*
X171566676Y-82709561D01*
X171567065Y-82797626D01*
X171567360Y-82893329D01*
X171567564Y-82996844D01*
X171567660Y-83080828D01*
X171567735Y-83142268D01*
X171567855Y-83202790D01*
X171568016Y-83261733D01*
X171568216Y-83318438D01*
X171568449Y-83372243D01*
X171568713Y-83422488D01*
X171569004Y-83468513D01*
X171569317Y-83509656D01*
X171569649Y-83545257D01*
X171569996Y-83574656D01*
X171570355Y-83597192D01*
X171570685Y-83611073D01*
X171573344Y-83696447D01*
X171730018Y-83644215D01*
X171764203Y-83632803D01*
X171796112Y-83622119D01*
X171824894Y-83612451D01*
X171849697Y-83604087D01*
X171869671Y-83597313D01*
X171883964Y-83592417D01*
X171891726Y-83589686D01*
X171892782Y-83589277D01*
X171899921Y-83586380D01*
X171901916Y-83585713D01*
X171906990Y-83583840D01*
X171912412Y-83581984D01*
X171913080Y-83581811D01*
X171919812Y-83579926D01*
X171920184Y-83579808D01*
X171926273Y-83579300D01*
X171929168Y-83576652D01*
X171929317Y-83575287D01*
X171932270Y-83572573D01*
X171935407Y-83573130D01*
X171940623Y-83573011D01*
X171941496Y-83571100D01*
X171944432Y-83568440D01*
X171947323Y-83568970D01*
X171953140Y-83569235D01*
X171954427Y-83567987D01*
X171958401Y-83566165D01*
X171969419Y-83562016D01*
X171986820Y-83555769D01*
X172009941Y-83547653D01*
X172038122Y-83537897D01*
X172070699Y-83526730D01*
X172107012Y-83514381D01*
X172146399Y-83501079D01*
X172188197Y-83487052D01*
X172193182Y-83485385D01*
X172264561Y-83461519D01*
X172334204Y-83438221D01*
X172401705Y-83415629D01*
X172466657Y-83393877D01*
X172528656Y-83373104D01*
X172587295Y-83353444D01*
X172642168Y-83335035D01*
X172692868Y-83318013D01*
X172738990Y-83302513D01*
X172780128Y-83288674D01*
X172815876Y-83276630D01*
X172845827Y-83266519D01*
X172869576Y-83258476D01*
X172886716Y-83252638D01*
X172896842Y-83249142D01*
X172899527Y-83248165D01*
X172906031Y-83245488D01*
X172907646Y-83244876D01*
X172912795Y-83242964D01*
X172915765Y-83241827D01*
X172923158Y-83239172D01*
X172934714Y-83235209D01*
X172940121Y-83233395D01*
X172953236Y-83228928D01*
X172970376Y-83222961D01*
X172987930Y-83216751D01*
X172988673Y-83216486D01*
X173033692Y-83202533D01*
X173079472Y-83192297D01*
X173123393Y-83186287D01*
X173151708Y-83184866D01*
X173171779Y-83184914D01*
X173186106Y-83185666D01*
X173197061Y-83187511D01*
X173207012Y-83190843D01*
X173217778Y-83195781D01*
X173232301Y-83203568D01*
X173245625Y-83211844D01*
X173252453Y-83216875D01*
X173265868Y-83231952D01*
X173278928Y-83253813D01*
X173290937Y-83281131D01*
X173299401Y-83306299D01*
X173301981Y-83315213D01*
X173304126Y-83323472D01*
X173305895Y-83331944D01*
X173307347Y-83341495D01*
X173308540Y-83352992D01*
X173309533Y-83367302D01*
X173310384Y-83385291D01*
X173311153Y-83407827D01*
X173311898Y-83435775D01*
X173312678Y-83470004D01*
X173313551Y-83511379D01*
X173313665Y-83516859D01*
X173313969Y-83535007D01*
X173314294Y-83560911D01*
X173314638Y-83594206D01*
X173314998Y-83634531D01*
X173315373Y-83681521D01*
X173315760Y-83734813D01*
X173316159Y-83794044D01*
X173316566Y-83858851D01*
X173316980Y-83928870D01*
X173317399Y-84003738D01*
X173317820Y-84083092D01*
X173318243Y-84166568D01*
X173318665Y-84253803D01*
X173319083Y-84344434D01*
X173319497Y-84438097D01*
X173319904Y-84534429D01*
X173320302Y-84633067D01*
X173320689Y-84733647D01*
X173321063Y-84835807D01*
X173321423Y-84939182D01*
X173321547Y-84976233D01*
X173321902Y-85082847D01*
X173322262Y-85189790D01*
X173322624Y-85296618D01*
X173322986Y-85402884D01*
X173323348Y-85508143D01*
X173323708Y-85611947D01*
X173324064Y-85713851D01*
X173324414Y-85813410D01*
X173324758Y-85910176D01*
X173325092Y-86003705D01*
X173325417Y-86093549D01*
X173325729Y-86179264D01*
X173326028Y-86260402D01*
X173326312Y-86336519D01*
X173326579Y-86407167D01*
X173326828Y-86471901D01*
X173327057Y-86530275D01*
X173327264Y-86581843D01*
X173327448Y-86626158D01*
X173327599Y-86660906D01*
X173327827Y-86720377D01*
X173327970Y-86777391D01*
X173328030Y-86831393D01*
X173328011Y-86881830D01*
X173327914Y-86928145D01*
X173327742Y-86969786D01*
X173327497Y-87006196D01*
X173327181Y-87036822D01*
X173326798Y-87061109D01*
X173326350Y-87078502D01*
X173325838Y-87088447D01*
X173325724Y-87089531D01*
X173316833Y-87135838D01*
X173302080Y-87184567D01*
X173282372Y-87233657D01*
X173258618Y-87281048D01*
X173231722Y-87324677D01*
X173208897Y-87355073D01*
X173171216Y-87397360D01*
X173131787Y-87434730D01*
X173087950Y-87469618D01*
X173069697Y-87482653D01*
X173050412Y-87495746D01*
X173032326Y-87507194D01*
X173014262Y-87517543D01*
X172995047Y-87527339D01*
X172973503Y-87537129D01*
X172948456Y-87547459D01*
X172918730Y-87558875D01*
X172883149Y-87571923D01*
X172858932Y-87580610D01*
X172824603Y-87592852D01*
X172785929Y-87606639D01*
X172745727Y-87620966D01*
X172706814Y-87634830D01*
X172672008Y-87647227D01*
X172664079Y-87650050D01*
X172637626Y-87659470D01*
X172613579Y-87668035D01*
X172593036Y-87675355D01*
X172577098Y-87681037D01*
X172566864Y-87684689D01*
X172563564Y-87685871D01*
X172558238Y-87687229D01*
X172557475Y-87687151D01*
X172553662Y-87688461D01*
X172546354Y-87692192D01*
X172538338Y-87696431D01*
X172534176Y-87698303D01*
X172529098Y-87700157D01*
X172526057Y-87701427D01*
X172524643Y-87702000D01*
X172522092Y-87702970D01*
X172518041Y-87704465D01*
X172512126Y-87706617D01*
X172503984Y-87709552D01*
X172493253Y-87713402D01*
X172479569Y-87718295D01*
X172462569Y-87724360D01*
X172441890Y-87731726D01*
X172417169Y-87740524D01*
X172388043Y-87750881D01*
X172354148Y-87762927D01*
X172315122Y-87776792D01*
X172270602Y-87792604D01*
X172220223Y-87810494D01*
X172163624Y-87830589D01*
X172100441Y-87853019D01*
X172030311Y-87877915D01*
X171957734Y-87903677D01*
X171911282Y-87920112D01*
X171866043Y-87936017D01*
X171822759Y-87951135D01*
X171782174Y-87965213D01*
X171745029Y-87977995D01*
X171712068Y-87989227D01*
X171684033Y-87998654D01*
X171661667Y-88006020D01*
X171645712Y-88011072D01*
X171639067Y-88013012D01*
X171611083Y-88020302D01*
X171594451Y-88024294D01*
X171585615Y-88026415D01*
X171563769Y-88031125D01*
X171546656Y-88034205D01*
X171535384Y-88035428D01*
X171531391Y-88034969D01*
X171526526Y-88035706D01*
X171525443Y-88036995D01*
X171520427Y-88038743D01*
X171508648Y-88040084D01*
X171491453Y-88040908D01*
X171474984Y-88041120D01*
X171433017Y-88039204D01*
X171391831Y-88033732D01*
X171353678Y-88025114D01*
X171320813Y-88013764D01*
X171317558Y-88012340D01*
X171303667Y-88006451D01*
X171292222Y-88002218D01*
X171285631Y-88000528D01*
X171285516Y-88000526D01*
X171280361Y-87998208D01*
X171279805Y-87996466D01*
X171276538Y-87992817D01*
X171274006Y-87992407D01*
X171266196Y-87989795D01*
X171262842Y-87987312D01*
X171256897Y-87982544D01*
X171246443Y-87974922D01*
X171233734Y-87966086D01*
X171233608Y-87966000D01*
X171209852Y-87946831D01*
X171185636Y-87921880D01*
X171162671Y-87893190D01*
X171142665Y-87862803D01*
X171133937Y-87846888D01*
X171128527Y-87836998D01*
X171124629Y-87831278D01*
X171123568Y-87830653D01*
X171122478Y-87834933D01*
X171120369Y-87845860D01*
X171117490Y-87862062D01*
X171114085Y-87882164D01*
X171111652Y-87897013D01*
X171107499Y-87921070D01*
X171103045Y-87944160D01*
X171098713Y-87964259D01*
X171094926Y-87979341D01*
X171093397Y-87984288D01*
X171087460Y-88001951D01*
X171081306Y-88021086D01*
X171078877Y-88028942D01*
X171067268Y-88059338D01*
X171050424Y-88092672D01*
X171029596Y-88127000D01*
X171006033Y-88160374D01*
X170980986Y-88190847D01*
X170962538Y-88210089D01*
X170942403Y-88227824D01*
X170917975Y-88246732D01*
X170891556Y-88265228D01*
X170865448Y-88281730D01*
X170841952Y-88294654D01*
X170834530Y-88298147D01*
X170824659Y-88302100D01*
X170808191Y-88308204D01*
X170786239Y-88316068D01*
X170759915Y-88325300D01*
X170730332Y-88335509D01*
X170698603Y-88346304D01*
X170676211Y-88353832D01*
X170644838Y-88364330D01*
X170615865Y-88374033D01*
X170590202Y-88382635D01*
X170568762Y-88389829D01*
X170552459Y-88395310D01*
X170542203Y-88398770D01*
X170538955Y-88399883D01*
X170531806Y-88401512D01*
X170531290Y-88401548D01*
X170525987Y-88404672D01*
X170525185Y-88405761D01*
X170521039Y-88407647D01*
X170509766Y-88411906D01*
X170491941Y-88418337D01*
X170468138Y-88426744D01*
X170438932Y-88436925D01*
X170404898Y-88448684D01*
X170366610Y-88461821D01*
X170324642Y-88476136D01*
X170279569Y-88491432D01*
X170231965Y-88507509D01*
X170206064Y-88516225D01*
X170155256Y-88533323D01*
X170105136Y-88550229D01*
X170056459Y-88566686D01*
X170009984Y-88582436D01*
X169966466Y-88597222D01*
X169926664Y-88610786D01*
X169913453Y-88615304D01*
X169891333Y-88622869D01*
X169861230Y-88633216D01*
X169837113Y-88641567D01*
X169819738Y-88647666D01*
X169816372Y-88648867D01*
X169791352Y-88657788D01*
X169760789Y-88668592D01*
X169726817Y-88680532D01*
X169691573Y-88692857D01*
X169657191Y-88704818D01*
X169637914Y-88711491D01*
X169610021Y-88721215D01*
X169584517Y-88730277D01*
X169562452Y-88738290D01*
X169544874Y-88744867D01*
X169532833Y-88749624D01*
X169527376Y-88752172D01*
X169527294Y-88752235D01*
X169522874Y-88754493D01*
X169522062Y-88753554D01*
X169519564Y-88753189D01*
X169515972Y-88755584D01*
X169511063Y-88758418D01*
X169509883Y-88757614D01*
X169507380Y-88756919D01*
X169504809Y-88758460D01*
X169498769Y-88761401D01*
X169486403Y-88766241D01*
X169469147Y-88772493D01*
X169448436Y-88779672D01*
X169425705Y-88787294D01*
X169402389Y-88794870D01*
X169379923Y-88801917D01*
X169359743Y-88807948D01*
X169352518Y-88809999D01*
X169329232Y-88815518D01*
X169300646Y-88820837D01*
X169269446Y-88825585D01*
X169238320Y-88829388D01*
X169209954Y-88831874D01*
X169189018Y-88832677D01*
X169170059Y-88831874D01*
X169145570Y-88829631D01*
X169117943Y-88826275D01*
X169089573Y-88822130D01*
X169062853Y-88817522D01*
X169040178Y-88812778D01*
X169036957Y-88811996D01*
X168984032Y-88795622D01*
X168930069Y-88772939D01*
X168877381Y-88745033D01*
X168832943Y-88716334D01*
X168785452Y-88677780D01*
X168742183Y-88632871D01*
X168703703Y-88582502D01*
X168670584Y-88527569D01*
X168643393Y-88468968D01*
X168622701Y-88407593D01*
X168614101Y-88372043D01*
X168603963Y-88323252D01*
X168593183Y-85842568D01*
X169903650Y-85842568D01*
X169903653Y-86098493D01*
X169903692Y-86173348D01*
X169903804Y-86248271D01*
X169903986Y-86322828D01*
X169904233Y-86396581D01*
X169904542Y-86469095D01*
X169904907Y-86539933D01*
X169905324Y-86608659D01*
X169905790Y-86674836D01*
X169906300Y-86738030D01*
X169906850Y-86797803D01*
X169907436Y-86853719D01*
X169908053Y-86905342D01*
X169908697Y-86952236D01*
X169909365Y-86993966D01*
X169910051Y-87030093D01*
X169910752Y-87060183D01*
X169911463Y-87083800D01*
X169912180Y-87100506D01*
X169912899Y-87109866D01*
X169913453Y-87111792D01*
X169919441Y-87108108D01*
X169920860Y-87107680D01*
X169921476Y-87107618D01*
X169922009Y-87107561D01*
X169923080Y-87107309D01*
X169925307Y-87106661D01*
X169929312Y-87105418D01*
X169935713Y-87103379D01*
X169945131Y-87100345D01*
X169958185Y-87096115D01*
X169975496Y-87090490D01*
X169997683Y-87083268D01*
X170025366Y-87074250D01*
X170059164Y-87063236D01*
X170099698Y-87050026D01*
X170126920Y-87041155D01*
X170166464Y-87028272D01*
X170205021Y-87015717D01*
X170241630Y-87003802D01*
X170275332Y-86992841D01*
X170305165Y-86983144D01*
X170330170Y-86975025D01*
X170349386Y-86968795D01*
X170361854Y-86964766D01*
X170361946Y-86964737D01*
X170404148Y-86951157D01*
X170401181Y-86319912D01*
X170400841Y-86248979D01*
X170400497Y-86180273D01*
X170400153Y-86114231D01*
X170399812Y-86051291D01*
X170399475Y-85991888D01*
X170399147Y-85936459D01*
X170398830Y-85885442D01*
X170398526Y-85839274D01*
X170398239Y-85798391D01*
X170397972Y-85763230D01*
X170397727Y-85734228D01*
X170397506Y-85711822D01*
X170397314Y-85696449D01*
X170397153Y-85688545D01*
X170397086Y-85687532D01*
X170393094Y-85688446D01*
X170382275Y-85691560D01*
X170365534Y-85696598D01*
X170343776Y-85703281D01*
X170317906Y-85711333D01*
X170288828Y-85720476D01*
X170266513Y-85727548D01*
X170228087Y-85739757D01*
X170185469Y-85753289D01*
X170141039Y-85767387D01*
X170097179Y-85781296D01*
X170056269Y-85794262D01*
X170020690Y-85805528D01*
X170020360Y-85805633D01*
X169903650Y-85842568D01*
X168593183Y-85842568D01*
X168592135Y-85601389D01*
X168591488Y-85451978D01*
X168590854Y-85304188D01*
X168590347Y-85185063D01*
X171588398Y-85185063D01*
X171590954Y-85820483D01*
X171591246Y-85891654D01*
X171591541Y-85960600D01*
X171591835Y-86026885D01*
X171592127Y-86090073D01*
X171592415Y-86149730D01*
X171592695Y-86205419D01*
X171592965Y-86256705D01*
X171593224Y-86303153D01*
X171593468Y-86344328D01*
X171593695Y-86379793D01*
X171593904Y-86409114D01*
X171594090Y-86431854D01*
X171594253Y-86447580D01*
X171594390Y-86455854D01*
X171594451Y-86457070D01*
X171598559Y-86456364D01*
X171609393Y-86453420D01*
X171625968Y-86448551D01*
X171647304Y-86442072D01*
X171672417Y-86434296D01*
X171700326Y-86425539D01*
X171730048Y-86416114D01*
X171760601Y-86406336D01*
X171791003Y-86396520D01*
X171820271Y-86386979D01*
X171847424Y-86378028D01*
X171871478Y-86369981D01*
X171891451Y-86363152D01*
X171906362Y-86357857D01*
X171915109Y-86354460D01*
X171922607Y-86351670D01*
X171936491Y-86346947D01*
X171955388Y-86340743D01*
X171977924Y-86333506D01*
X172002723Y-86325687D01*
X172008477Y-86323892D01*
X172089666Y-86298626D01*
X172088437Y-85802852D01*
X172088253Y-85736934D01*
X172088028Y-85671213D01*
X172087767Y-85606380D01*
X172087475Y-85543128D01*
X172087156Y-85482151D01*
X172086815Y-85424142D01*
X172086455Y-85369792D01*
X172086082Y-85319796D01*
X172085700Y-85274846D01*
X172085313Y-85235634D01*
X172084925Y-85202855D01*
X172084542Y-85177200D01*
X172084378Y-85168440D01*
X172081547Y-85029802D01*
X171834972Y-85107433D01*
X171588398Y-85185063D01*
X168590347Y-85185063D01*
X168590233Y-85158245D01*
X168589626Y-85014372D01*
X168589034Y-84872795D01*
X168588458Y-84733738D01*
X168587898Y-84597427D01*
X168587356Y-84464084D01*
X168586832Y-84333937D01*
X168586327Y-84207209D01*
X168585842Y-84084124D01*
X168585378Y-83964909D01*
X168584935Y-83849786D01*
X168584515Y-83738983D01*
X168584118Y-83632721D01*
X168583745Y-83531228D01*
X168583397Y-83434727D01*
X168583075Y-83343443D01*
X168582779Y-83257601D01*
X168582511Y-83177426D01*
X168582271Y-83103142D01*
X168582060Y-83034975D01*
X168581878Y-82973148D01*
X168581728Y-82917886D01*
X168581609Y-82869415D01*
X168581523Y-82827959D01*
X168581470Y-82793743D01*
X168581451Y-82766991D01*
X168581467Y-82747929D01*
X168581512Y-82737444D01*
X168581842Y-82699747D01*
X168582169Y-82669212D01*
X168582561Y-82644882D01*
X168583084Y-82625800D01*
X168583804Y-82611010D01*
X168584788Y-82599554D01*
X168586103Y-82590477D01*
X168587815Y-82582821D01*
X168589990Y-82575629D01*
X168592696Y-82567946D01*
X168593449Y-82565876D01*
X168604994Y-82537111D01*
X168617467Y-82513050D01*
X168632616Y-82490886D01*
X168652192Y-82467807D01*
X168659274Y-82460196D01*
X168696839Y-82423109D01*
X168733355Y-82392747D01*
X168770242Y-82368100D01*
X168808918Y-82348158D01*
X168827895Y-82340211D01*
X168843330Y-82334144D01*
X168857486Y-82328537D01*
X168866460Y-82324942D01*
X168875458Y-82321328D01*
X168880572Y-82319344D01*
X168880668Y-82319310D01*
X168885741Y-82317250D01*
X168888787Y-82315927D01*
X168893542Y-82314217D01*
X168905372Y-82310123D01*
X168923658Y-82303854D01*
X168947780Y-82295621D01*
X168977120Y-82285635D01*
X169011060Y-82274106D01*
X169048980Y-82261244D01*
X169090263Y-82247260D01*
X169134288Y-82232364D01*
X169177008Y-82217926D01*
X169225578Y-82201512D01*
X169273900Y-82185171D01*
X169321111Y-82169196D01*
X169366346Y-82153879D01*
X169408742Y-82139513D01*
X169447434Y-82126392D01*
X169481559Y-82114807D01*
X169510251Y-82105052D01*
X169532649Y-82097419D01*
X169542952Y-82093896D01*
X169584437Y-82080202D01*
X169619691Y-82069885D01*
X169649827Y-82062864D01*
X169675958Y-82059052D01*
X169699195Y-82058368D01*
X169720652Y-82060727D01*
X169741442Y-82066045D01*
X169762677Y-82074239D01*
X169768595Y-82076917D01*
X169787691Y-82088795D01*
X169807878Y-82106515D01*
X169827497Y-82128280D01*
X169844888Y-82152292D01*
X169855839Y-82171422D01*
X169860964Y-82181604D01*
X169865438Y-82190718D01*
X169869313Y-82199368D01*
X169872638Y-82208155D01*
X169875463Y-82217684D01*
X169877838Y-82228556D01*
X169879815Y-82241373D01*
X169881442Y-82256740D01*
X169882769Y-82275257D01*
X169883848Y-82297528D01*
X169884728Y-82324156D01*
X169885459Y-82355743D01*
X169886091Y-82392891D01*
X169886675Y-82436203D01*
X169887260Y-82486283D01*
X169887898Y-82543732D01*
X169888065Y-82558828D01*
X169888462Y-82597424D01*
X169888877Y-82643459D01*
X169889306Y-82696254D01*
X169889744Y-82755130D01*
X169890189Y-82819406D01*
X169890636Y-82888403D01*
X169891081Y-82961441D01*
X169891521Y-83037842D01*
X169891950Y-83116926D01*
X169892367Y-83198012D01*
X169892765Y-83280422D01*
X169893142Y-83363476D01*
X169893494Y-83446495D01*
X169893816Y-83528798D01*
X169894020Y-83584937D01*
X169894369Y-83680608D01*
X169894720Y-83768391D01*
X169895075Y-83848519D01*
X169895437Y-83921224D01*
X169895807Y-83986736D01*
X169896189Y-84045288D01*
X169896583Y-84097111D01*
X169896994Y-84142438D01*
X169897422Y-84181499D01*
X169897870Y-84214526D01*
X169898341Y-84241752D01*
X169898837Y-84263408D01*
X169899360Y-84279725D01*
X169899912Y-84290936D01*
X169900496Y-84297271D01*
X169901106Y-84298971D01*
X169905673Y-84297108D01*
X169917289Y-84292944D01*
X169935286Y-84286704D01*
X169958998Y-84278614D01*
X169987758Y-84268899D01*
X170020898Y-84257783D01*
X170057752Y-84245492D01*
X170097652Y-84232251D01*
X170139932Y-84218285D01*
X170148797Y-84215365D01*
X170391915Y-84135315D01*
X170390335Y-83361280D01*
X170390146Y-83268102D01*
X170389980Y-83182692D01*
X170389837Y-83104699D01*
X170389722Y-83033772D01*
X170389637Y-82969558D01*
X170389584Y-82911708D01*
X170389566Y-82859871D01*
X170389587Y-82813694D01*
X170389648Y-82772827D01*
X170389752Y-82736920D01*
X170389903Y-82705620D01*
X170390102Y-82678576D01*
X170390352Y-82655439D01*
X170390657Y-82635855D01*
X170391019Y-82619475D01*
X170391441Y-82605947D01*
X170391924Y-82594921D01*
X170392473Y-82586044D01*
X170393090Y-82578966D01*
X170393777Y-82573336D01*
X170394537Y-82568802D01*
X170395373Y-82565014D01*
X170396288Y-82561620D01*
X170396510Y-82560858D01*
X170410026Y-82524006D01*
X170428619Y-82489299D01*
X170453259Y-82455140D01*
X170477607Y-82427526D01*
X170497146Y-82409502D01*
X170521843Y-82391454D01*
X170552245Y-82373080D01*
X170588896Y-82354081D01*
X170632341Y-82334154D01*
X170683127Y-82313000D01*
X170691184Y-82309793D01*
X170715403Y-82300127D01*
X170738660Y-82290706D01*
X170759245Y-82282236D01*
X170775446Y-82275417D01*
X170784552Y-82271419D01*
X170797920Y-82265528D01*
X170816086Y-82257848D01*
X170836282Y-82249536D01*
X170849503Y-82244219D01*
X170867094Y-82237035D01*
X170882121Y-82230554D01*
X170892826Y-82225557D01*
X170897201Y-82223065D01*
X170901541Y-82220744D01*
X170902276Y-82221490D01*
X170905157Y-82221571D01*
X170911410Y-82218325D01*
X170917483Y-82215352D01*
X170930252Y-82209755D01*
X170948855Y-82201878D01*
X170972431Y-82192069D01*
X171000119Y-82180672D01*
X171031059Y-82168034D01*
X171064389Y-82154501D01*
X171099248Y-82140418D01*
X171134776Y-82126131D01*
X171170112Y-82111987D01*
X171204394Y-82098330D01*
X171236762Y-82085507D01*
X171266354Y-82073864D01*
X171292311Y-82063747D01*
X171313771Y-82055501D01*
X171329872Y-82049472D01*
X171339755Y-82046006D01*
X171341903Y-82045384D01*
X171366646Y-82041750D01*
X171393926Y-82041118D01*
X171420721Y-82043335D01*
G37*
D10*
%TO.C,R8*%
X218760000Y-99650000D02*
X218760000Y-100920000D01*
X218760000Y-100920000D02*
X218760000Y-102190000D01*
X220030000Y-99650000D02*
X218760000Y-99650000D01*
X220030000Y-102190000D02*
X218760000Y-102190000D01*
X230190000Y-99650000D02*
X220030000Y-99650000D01*
X230190000Y-102190000D02*
X220030000Y-102190000D01*
X231460000Y-99650000D02*
X230190000Y-99650000D01*
X231460000Y-102190000D02*
X230190000Y-102190000D01*
X231460000Y-102190000D02*
X231460000Y-99650000D01*
%TD*%
M02*
