%TF.GenerationSoftware,KiCad,Pcbnew,9.0.7*%
%TF.CreationDate,2026-02-26T00:12:45+00:00*%
%TF.ProjectId,TC01AtariJoystick,54433031-4174-4617-9269-4a6f79737469,rev?*%
%TF.SameCoordinates,Original*%
%TF.FileFunction,Copper,L1,Top*%
%TF.FilePolarity,Positive*%
%FSLAX46Y46*%
G04 Gerber Fmt 4.6, Leading zero omitted, Abs format (unit mm)*
G04 Created by KiCad (PCBNEW 9.0.7) date 2026-02-26 00:12:45*
%MOMM*%
%LPD*%
G01*
G04 APERTURE LIST*
%TA.AperFunction,ComponentPad*%
%ADD10C,1.400000*%
%TD*%
%TA.AperFunction,ComponentPad*%
%ADD11O,1.400000X1.400000*%
%TD*%
%TA.AperFunction,ComponentPad*%
%ADD12C,2.000000*%
%TD*%
%TA.AperFunction,ComponentPad*%
%ADD13R,2.000000X2.000000*%
%TD*%
%TA.AperFunction,ComponentPad*%
%ADD14C,4.000000*%
%TD*%
%TA.AperFunction,ComponentPad*%
%ADD15C,2.250000*%
%TD*%
%TA.AperFunction,ComponentPad*%
%ADD16C,3.000000*%
%TD*%
%TA.AperFunction,ComponentPad*%
%ADD17R,1.600000X1.600000*%
%TD*%
%TA.AperFunction,ComponentPad*%
%ADD18O,1.600000X1.600000*%
%TD*%
%TA.AperFunction,Conductor*%
%ADD19C,0.300000*%
%TD*%
%TA.AperFunction,Conductor*%
%ADD20C,0.800000*%
%TD*%
%TA.AperFunction,Conductor*%
%ADD21C,0.600000*%
%TD*%
G04 APERTURE END LIST*
D10*
%TO.P,R2,1*%
%TO.N,+5V*%
X107440000Y-85820000D03*
D11*
%TO.P,R2,2*%
%TO.N,~{CH3}*%
X117600000Y-85820000D03*
%TD*%
D10*
%TO.P,R3,1*%
%TO.N,+5V*%
X107440000Y-88820000D03*
D11*
%TO.P,R3,2*%
%TO.N,~{CH2}*%
X117600000Y-88820000D03*
%TD*%
%TO.P,R1,2*%
%TO.N,Vref1*%
X87820000Y-70040000D03*
D10*
%TO.P,R1,1*%
%TO.N,GND*%
X87820000Y-59880000D03*
%TD*%
D12*
%TO.P,J3,9,9*%
%TO.N,unconnected-(J3-Pad9)*%
X107935000Y-97720000D03*
%TO.P,J3,8,8*%
%TO.N,GND*%
X105165000Y-97720000D03*
%TO.P,J3,7,7*%
%TO.N,+5V*%
X102395000Y-97720000D03*
%TO.P,J3,6,6*%
%TO.N,~{FIRE2}*%
X99625000Y-97720000D03*
%TO.P,J3,5,5*%
%TO.N,unconnected-(J3-Pad5)*%
X109320000Y-94880000D03*
%TO.P,J3,4,4*%
%TO.N,CH2*%
X106550000Y-94880000D03*
%TO.P,J3,3,3*%
%TO.N,~{CH2}*%
X103780000Y-94880000D03*
%TO.P,J3,2,2*%
%TO.N,CH3*%
X101010000Y-94880000D03*
D13*
%TO.P,J3,1,1*%
%TO.N,~{CH3}*%
X98240000Y-94880000D03*
D14*
%TO.P,J3,0,PAD*%
%TO.N,GND*%
X116280000Y-96300000D03*
X91280000Y-96300000D03*
%TD*%
D12*
%TO.P,J2,9,9*%
%TO.N,unconnected-(J2-Pad9)*%
X75995000Y-97720000D03*
%TO.P,J2,8,8*%
%TO.N,GND*%
X73225000Y-97720000D03*
%TO.P,J2,7,7*%
%TO.N,+5V*%
X70455000Y-97720000D03*
%TO.P,J2,6,6*%
%TO.N,~{FIRE1}*%
X67685000Y-97720000D03*
%TO.P,J2,5,5*%
%TO.N,unconnected-(J2-Pad5)*%
X77380000Y-94880000D03*
%TO.P,J2,4,4*%
%TO.N,CH0*%
X74610000Y-94880000D03*
%TO.P,J2,3,3*%
%TO.N,~{CH0}*%
X71840000Y-94880000D03*
%TO.P,J2,2,2*%
%TO.N,CH1*%
X69070000Y-94880000D03*
D13*
%TO.P,J2,1,1*%
%TO.N,~{CH1}*%
X66300000Y-94880000D03*
D14*
%TO.P,J2,0,PAD*%
%TO.N,GND*%
X84340000Y-96300000D03*
X59340000Y-96300000D03*
%TD*%
D10*
%TO.P,R5,1*%
%TO.N,+5V*%
X68120000Y-85820000D03*
D11*
%TO.P,R5,2*%
%TO.N,~{CH0}*%
X57960000Y-85820000D03*
%TD*%
D10*
%TO.P,R4,1*%
%TO.N,+5V*%
X68120000Y-88820000D03*
D11*
%TO.P,R4,2*%
%TO.N,~{CH1}*%
X57960000Y-88820000D03*
%TD*%
D15*
%TO.P,M1,1,Pin_1*%
%TO.N,CH0*%
X67990000Y-65020000D03*
X70490000Y-65020000D03*
X70490000Y-72520000D03*
%TO.P,M1,2,Pin_2*%
%TO.N,GND*%
X75490000Y-65020000D03*
X75490000Y-72520000D03*
%TO.P,M1,3,Pin_3*%
%TO.N,CH1*%
X80490000Y-65020000D03*
X80490000Y-72520000D03*
X82990000Y-65020000D03*
%TO.P,M1,4,Pin_4*%
%TO.N,~{FIRE1}*%
X70490000Y-67520000D03*
X72990000Y-67520000D03*
X72990000Y-69900000D03*
%TO.P,M1,5,Pin_5*%
%TO.N,Vref1*%
X77990000Y-67520000D03*
X78010000Y-69900000D03*
X80490000Y-67520000D03*
%TO.P,M1,6,Pin_6*%
%TO.N,GND*%
X67990000Y-67520000D03*
X67990000Y-70040000D03*
%TO.P,M1,7,Pin_7*%
%TO.N,+5V*%
X82990000Y-67520000D03*
X82990000Y-70020000D03*
D16*
%TO.P,M1,S,Shield*%
%TO.N,GND*%
X70490000Y-55020000D03*
X72990000Y-55020000D03*
X77990000Y-55020000D03*
X80490000Y-55020000D03*
%TD*%
D15*
%TO.P,M2,1,Pin_1*%
%TO.N,CH2*%
X92690000Y-65020000D03*
X95190000Y-65020000D03*
X95190000Y-72520000D03*
%TO.P,M2,2,Pin_2*%
%TO.N,GND*%
X100190000Y-65020000D03*
X100190000Y-72520000D03*
%TO.P,M2,3,Pin_3*%
%TO.N,CH3*%
X105190000Y-65020000D03*
X105190000Y-72520000D03*
X107690000Y-65020000D03*
%TO.P,M2,4,Pin_4*%
%TO.N,~{FIRE2}*%
X95190000Y-67520000D03*
X97690000Y-67520000D03*
X97690000Y-69900000D03*
%TO.P,M2,5,Pin_5*%
%TO.N,Vref1*%
X102690000Y-67520000D03*
X102710000Y-69900000D03*
X105190000Y-67520000D03*
%TO.P,M2,6,Pin_6*%
%TO.N,GND*%
X92690000Y-67520000D03*
X92690000Y-70040000D03*
%TO.P,M2,7,Pin_7*%
%TO.N,+5V*%
X107690000Y-67520000D03*
X107690000Y-70020000D03*
D16*
%TO.P,M2,S,Shield*%
%TO.N,GND*%
X95190000Y-55020000D03*
X97690000Y-55020000D03*
X102690000Y-55020000D03*
X105190000Y-55020000D03*
%TD*%
D17*
%TO.P,I1,1*%
%TO.N,~{CH3}*%
X95445000Y-81420000D03*
D18*
%TO.P,I1,2*%
%TO.N,CH3*%
X92905000Y-81420000D03*
%TO.P,I1,3*%
%TO.N,~{CH2}*%
X90365000Y-81420000D03*
%TO.P,I1,4*%
%TO.N,CH2*%
X87825000Y-81420000D03*
%TO.P,I1,5*%
%TO.N,GND*%
X85285000Y-81420000D03*
%TO.P,I1,6*%
%TO.N,unconnected-(I1-Pad6)*%
X82745000Y-81420000D03*
%TO.P,I1,7,GND*%
%TO.N,GND*%
X80205000Y-81420000D03*
%TO.P,I1,8*%
%TO.N,CH1*%
X80205000Y-89040000D03*
%TO.P,I1,9*%
%TO.N,~{CH1}*%
X82745000Y-89040000D03*
%TO.P,I1,10*%
%TO.N,CH0*%
X85285000Y-89040000D03*
%TO.P,I1,11*%
%TO.N,~{CH0}*%
X87825000Y-89040000D03*
%TO.P,I1,12*%
%TO.N,unconnected-(I1-Pad12)*%
X90365000Y-89040000D03*
%TO.P,I1,13*%
%TO.N,GND*%
X92905000Y-89040000D03*
%TO.P,I1,14,VCC*%
%TO.N,+5V*%
X95445000Y-89040000D03*
%TD*%
D19*
%TO.N,CH0*%
X72940000Y-65020000D02*
X70490000Y-65020000D01*
X75960000Y-68040000D02*
X72940000Y-65020000D01*
X75960000Y-70810000D02*
X75960000Y-68040000D01*
X84134000Y-78984000D02*
X75960000Y-70810000D01*
X84134000Y-87889000D02*
X84134000Y-78984000D01*
X85285000Y-89040000D02*
X84134000Y-87889000D01*
%TO.N,CH1*%
X76514000Y-70614000D02*
X78420000Y-72520000D01*
X76514000Y-66908620D02*
X76514000Y-70614000D01*
X78420000Y-72520000D02*
X80490000Y-72520000D01*
X78402620Y-65020000D02*
X76514000Y-66908620D01*
X80490000Y-65020000D02*
X78402620Y-65020000D01*
%TO.N,~{FIRE2}*%
X94294000Y-93803213D02*
X98210787Y-97720000D01*
X91754000Y-83204000D02*
X94294000Y-85744000D01*
X91754000Y-79456000D02*
X91754000Y-83204000D01*
X94294000Y-85744000D02*
X94294000Y-93803213D01*
X97690000Y-73520000D02*
X91754000Y-79456000D01*
X97690000Y-69900000D02*
X97690000Y-73520000D01*
X98210787Y-97720000D02*
X99625000Y-97720000D01*
%TO.N,CH2*%
X91660000Y-85255000D02*
X87825000Y-81420000D01*
X101974397Y-96230000D02*
X100976000Y-97228397D01*
X100976000Y-97228397D02*
X100976000Y-98524000D01*
X100976000Y-98524000D02*
X100429000Y-99071000D01*
X100429000Y-99071000D02*
X97601000Y-99071000D01*
X105200000Y-96230000D02*
X101974397Y-96230000D01*
X97601000Y-99071000D02*
X91660000Y-93130000D01*
X106550000Y-94880000D02*
X105200000Y-96230000D01*
X91660000Y-93130000D02*
X91660000Y-85255000D01*
D20*
%TO.N,+5V*%
X68120000Y-85820000D02*
X68120000Y-88820000D01*
X66840000Y-62110000D02*
X85780000Y-62110000D01*
X65631000Y-63319000D02*
X66840000Y-62110000D01*
X65631000Y-83331000D02*
X65631000Y-63319000D01*
X68120000Y-85820000D02*
X65631000Y-83331000D01*
X63470000Y-93470000D02*
X68120000Y-88820000D01*
X63470000Y-100280000D02*
X63470000Y-93470000D01*
X64010000Y-100820000D02*
X63470000Y-100280000D01*
X70450000Y-100820000D02*
X64010000Y-100820000D01*
X107690000Y-70020000D02*
X107440000Y-70270000D01*
X107440000Y-70270000D02*
X107440000Y-85820000D01*
X107440000Y-85820000D02*
X107440000Y-88820000D01*
X112610000Y-99030000D02*
X110820000Y-100820000D01*
X112610000Y-91170000D02*
X112610000Y-99030000D01*
X110820000Y-100820000D02*
X102440000Y-100820000D01*
X107440000Y-88820000D02*
X110260000Y-88820000D01*
X110260000Y-88820000D02*
X112610000Y-91170000D01*
X107440000Y-88820000D02*
X95665000Y-88820000D01*
X95665000Y-88820000D02*
X95445000Y-89040000D01*
D19*
%TO.N,CH1*%
X86560000Y-78590000D02*
X80490000Y-72520000D01*
X86019000Y-90191000D02*
X86560000Y-89650000D01*
X81356000Y-90191000D02*
X86019000Y-90191000D01*
X80205000Y-89040000D02*
X81356000Y-90191000D01*
X86560000Y-89650000D02*
X86560000Y-78590000D01*
%TO.N,CH3*%
X98270000Y-74410000D02*
X103300000Y-74410000D01*
X103300000Y-74410000D02*
X105190000Y-72520000D01*
X92905000Y-81420000D02*
X92905000Y-79775000D01*
X92905000Y-79775000D02*
X98270000Y-74410000D01*
%TO.N,CH1*%
X80205000Y-92675000D02*
X80205000Y-89040000D01*
X79420000Y-93460000D02*
X80205000Y-92675000D01*
X70490000Y-93460000D02*
X79420000Y-93460000D01*
X69070000Y-94880000D02*
X70490000Y-93460000D01*
D21*
%TO.N,+5V*%
X102395000Y-97720000D02*
X102395000Y-100775000D01*
D20*
X102440000Y-100820000D02*
X70450000Y-100820000D01*
D21*
X102395000Y-100775000D02*
X102440000Y-100820000D01*
X70455000Y-97720000D02*
X70455000Y-100815000D01*
X70455000Y-100815000D02*
X70450000Y-100820000D01*
D19*
%TO.N,CH3*%
X107690000Y-65020000D02*
X105190000Y-65020000D01*
%TO.N,~{FIRE2}*%
X97690000Y-67520000D02*
X97690000Y-69900000D01*
X95190000Y-67520000D02*
X97690000Y-67520000D01*
%TO.N,~{FIRE1}*%
X72990000Y-67520000D02*
X72990000Y-69900000D01*
X70490000Y-67520000D02*
X72990000Y-67520000D01*
%TO.N,CH1*%
X82990000Y-65020000D02*
X80490000Y-65020000D01*
%TO.N,Vref1*%
X80330000Y-69900000D02*
X78010000Y-69900000D01*
X82050000Y-71620000D02*
X80330000Y-69900000D01*
X86240000Y-71620000D02*
X82050000Y-71620000D01*
X87820000Y-70040000D02*
X86240000Y-71620000D01*
X80490000Y-67520000D02*
X77990000Y-67520000D01*
X78010000Y-67540000D02*
X77990000Y-67520000D01*
X78010000Y-69900000D02*
X78010000Y-67540000D01*
X102690000Y-67520000D02*
X105190000Y-67520000D01*
X102690000Y-69880000D02*
X102710000Y-69900000D01*
X102690000Y-67520000D02*
X102690000Y-69880000D01*
X101834000Y-63544000D02*
X102690000Y-64400000D01*
X102690000Y-64400000D02*
X102690000Y-67520000D01*
X90640000Y-64982620D02*
X92078620Y-63544000D01*
X92078620Y-63544000D02*
X101834000Y-63544000D01*
X90640000Y-69610000D02*
X90640000Y-64982620D01*
X90210000Y-70040000D02*
X90640000Y-69610000D01*
X87820000Y-70040000D02*
X90210000Y-70040000D01*
%TO.N,CH2*%
X90430000Y-73280000D02*
X92136310Y-71573690D01*
X92136310Y-71573690D02*
X93082620Y-72520000D01*
X87825000Y-73845000D02*
X88390000Y-73280000D01*
X87825000Y-81420000D02*
X87825000Y-73845000D01*
X88390000Y-73280000D02*
X90430000Y-73280000D01*
X93082620Y-72520000D02*
X95190000Y-72520000D01*
X91214000Y-70651380D02*
X92136310Y-71573690D01*
X92690000Y-65020000D02*
X91214000Y-66496000D01*
X91214000Y-66496000D02*
X91214000Y-70651380D01*
X95190000Y-65020000D02*
X92690000Y-65020000D01*
%TO.N,CH0*%
X68382620Y-72520000D02*
X70490000Y-72520000D01*
X66514000Y-70651380D02*
X68382620Y-72520000D01*
X67990000Y-65020000D02*
X66514000Y-66496000D01*
X66514000Y-66496000D02*
X66514000Y-70651380D01*
X70490000Y-65020000D02*
X67990000Y-65020000D01*
D20*
%TO.N,+5V*%
X109490000Y-67520000D02*
X107690000Y-67520000D01*
X110009000Y-67001000D02*
X109490000Y-67520000D01*
X110009000Y-62389000D02*
X110009000Y-67001000D01*
X109730000Y-62110000D02*
X110009000Y-62389000D01*
X85780000Y-62110000D02*
X109730000Y-62110000D01*
X85360000Y-67520000D02*
X82990000Y-67520000D01*
X85780000Y-62110000D02*
X85780000Y-67100000D01*
X85780000Y-67100000D02*
X85360000Y-67520000D01*
X82990000Y-67520000D02*
X82990000Y-70020000D01*
X107690000Y-67520000D02*
X107690000Y-70020000D01*
D19*
%TO.N,~{FIRE1}*%
X71320000Y-92940000D02*
X72990000Y-91270000D01*
X67685000Y-97720000D02*
X67685000Y-94065000D01*
X67685000Y-94065000D02*
X68810000Y-92940000D01*
X72990000Y-91270000D02*
X72990000Y-69900000D01*
X68810000Y-92940000D02*
X71320000Y-92940000D01*
%TD*%
M02*
