%TF.GenerationSoftware,KiCad,Pcbnew,9.0.7*%
%TF.CreationDate,2026-03-16T18:38:21+00:00*%
%TF.ProjectId,TC01AtariJoystick,54433031-4174-4617-9269-4a6f79737469,rev?*%
%TF.SameCoordinates,Original*%
%TF.FileFunction,Soldermask,Top*%
%TF.FilePolarity,Negative*%
%FSLAX46Y46*%
G04 Gerber Fmt 4.6, Leading zero omitted, Abs format (unit mm)*
G04 Created by KiCad (PCBNEW 9.0.7) date 2026-03-16 18:38:21*
%MOMM*%
%LPD*%
G01*
G04 APERTURE LIST*
%ADD10C,4.000000*%
%ADD11R,2.000000X2.000000*%
%ADD12C,2.000000*%
%ADD13C,1.400000*%
%ADD14O,1.400000X1.400000*%
%ADD15R,1.600000X1.600000*%
%ADD16O,1.600000X1.600000*%
%ADD17C,2.250000*%
%ADD18C,3.000000*%
G04 APERTURE END LIST*
D10*
%TO.C,J3*%
X91280000Y-96300000D03*
X116280000Y-96300000D03*
D11*
X98240000Y-94880000D03*
D12*
X101010000Y-94880000D03*
X103780000Y-94880000D03*
X106550000Y-94880000D03*
X109320000Y-94880000D03*
X99625000Y-97720000D03*
X102395000Y-97720000D03*
X105165000Y-97720000D03*
X107935000Y-97720000D03*
%TD*%
D13*
%TO.C,R3*%
X107440000Y-88820000D03*
D14*
X117600000Y-88820000D03*
%TD*%
D13*
%TO.C,R5*%
X68120000Y-85820000D03*
D14*
X57960000Y-85820000D03*
%TD*%
D13*
%TO.C,R1*%
X87820000Y-59880000D03*
D14*
X87820000Y-70040000D03*
%TD*%
D15*
%TO.C,I1*%
X95445000Y-81420000D03*
D16*
X92905000Y-81420000D03*
X90365000Y-81420000D03*
X87825000Y-81420000D03*
X85285000Y-81420000D03*
X82745000Y-81420000D03*
X80205000Y-81420000D03*
X80205000Y-89040000D03*
X82745000Y-89040000D03*
X85285000Y-89040000D03*
X87825000Y-89040000D03*
X90365000Y-89040000D03*
X92905000Y-89040000D03*
X95445000Y-89040000D03*
%TD*%
D17*
%TO.C,M1*%
X67990000Y-65020000D03*
X70490000Y-65020000D03*
X70490000Y-72520000D03*
X75490000Y-65020000D03*
X75490000Y-72520000D03*
X80490000Y-65020000D03*
X80490000Y-72520000D03*
X82990000Y-65020000D03*
X70490000Y-67520000D03*
X72990000Y-67520000D03*
X72990000Y-69900000D03*
X77990000Y-67520000D03*
X78010000Y-69900000D03*
X80490000Y-67520000D03*
X67990000Y-67520000D03*
X67990000Y-70040000D03*
X82990000Y-67520000D03*
X82990000Y-70020000D03*
D18*
X70490000Y-55020000D03*
X72990000Y-55020000D03*
X77990000Y-55020000D03*
X80490000Y-55020000D03*
%TD*%
D17*
%TO.C,M2*%
X92690000Y-65020000D03*
X95190000Y-65020000D03*
X95190000Y-72520000D03*
X100190000Y-65020000D03*
X100190000Y-72520000D03*
X105190000Y-65020000D03*
X105190000Y-72520000D03*
X107690000Y-65020000D03*
X95190000Y-67520000D03*
X97690000Y-67520000D03*
X97690000Y-69900000D03*
X102690000Y-67520000D03*
X102710000Y-69900000D03*
X105190000Y-67520000D03*
X92690000Y-67520000D03*
X92690000Y-70040000D03*
X107690000Y-67520000D03*
X107690000Y-70020000D03*
D18*
X95190000Y-55020000D03*
X97690000Y-55020000D03*
X102690000Y-55020000D03*
X105190000Y-55020000D03*
%TD*%
D13*
%TO.C,R4*%
X68120000Y-88820000D03*
D14*
X57960000Y-88820000D03*
%TD*%
D13*
%TO.C,R2*%
X107440000Y-85820000D03*
D14*
X117600000Y-85820000D03*
%TD*%
D10*
%TO.C,J2*%
X59340000Y-96300000D03*
X84340000Y-96300000D03*
D11*
X66300000Y-94880000D03*
D12*
X69070000Y-94880000D03*
X71840000Y-94880000D03*
X74610000Y-94880000D03*
X77380000Y-94880000D03*
X67685000Y-97720000D03*
X70455000Y-97720000D03*
X73225000Y-97720000D03*
X75995000Y-97720000D03*
%TD*%
M02*
