M48
; DRILL file {KiCad 9.0.7} date 2026-03-16T18:38:19+0000
; FORMAT={-:-/ absolute / inch / decimal}
; #@! TF.CreationDate,2026-03-16T18:38:19+00:00
; #@! TF.GenerationSoftware,Kicad,Pcbnew,9.0.7
; #@! TF.FileFunction,Plated,1,2,PTH
FMAT,2
INCH
; #@! TA.AperFunction,Plated,PTH,ComponentDrill
T1C0.0276
; #@! TA.AperFunction,Plated,PTH,ComponentDrill
T2C0.0315
; #@! TA.AperFunction,Plated,PTH,ComponentDrill
T3C0.0512
; #@! TA.AperFunction,Plated,PTH,ComponentDrill
T4C0.0610
; #@! TA.AperFunction,Plated,PTH,ComponentDrill
T5C0.0728
; #@! TA.AperFunction,Plated,PTH,ComponentDrill
T6C0.1260
%
G90
G05
T1
X2.2819Y-3.3787
X2.2819Y-3.4969
X2.6819Y-3.3787
X2.6819Y-3.4969
X3.4575Y-2.3575
X3.4575Y-2.7575
X4.2299Y-3.3787
X4.2299Y-3.4969
X4.6299Y-3.3787
X4.6299Y-3.4969
T2
X3.1577Y-3.2055
X3.1577Y-3.5055
X3.2577Y-3.2055
X3.2577Y-3.5055
X3.3577Y-3.2055
X3.3577Y-3.5055
X3.4577Y-3.2055
X3.4577Y-3.5055
X3.5577Y-3.2055
X3.5577Y-3.5055
X3.6577Y-3.2055
X3.6577Y-3.5055
X3.7577Y-3.2055
X3.7577Y-3.5055
T3
X2.6102Y-3.7354
X2.6648Y-3.8472
X2.7193Y-3.7354
X2.7738Y-3.8472
X2.8283Y-3.7354
X2.8829Y-3.8472
X2.9374Y-3.7354
X2.9919Y-3.8472
X3.0465Y-3.7354
X3.8677Y-3.7354
X3.9222Y-3.8472
X3.9768Y-3.7354
X4.0313Y-3.8472
X4.0858Y-3.7354
X4.1404Y-3.8472
X4.1949Y-3.7354
X4.2494Y-3.8472
X4.3039Y-3.7354
T4
X2.6768Y-2.5598
X2.6768Y-2.6583
X2.6768Y-2.7575
X2.7752Y-2.5598
X2.7752Y-2.6583
X2.7752Y-2.8551
X2.8736Y-2.6583
X2.8736Y-2.752
X2.972Y-2.5598
X2.972Y-2.8551
X3.0705Y-2.6583
X3.0713Y-2.752
X3.1689Y-2.5598
X3.1689Y-2.6583
X3.1689Y-2.8551
X3.2673Y-2.5598
X3.2673Y-2.6583
X3.2673Y-2.7567
X3.6492Y-2.5598
X3.6492Y-2.6583
X3.6492Y-2.7575
X3.7476Y-2.5598
X3.7476Y-2.6583
X3.7476Y-2.8551
X3.8461Y-2.6583
X3.8461Y-2.752
X3.9445Y-2.5598
X3.9445Y-2.8551
X4.0429Y-2.6583
X4.0437Y-2.752
X4.1413Y-2.5598
X4.1413Y-2.6583
X4.1413Y-2.8551
X4.2398Y-2.5598
X4.2398Y-2.6583
X4.2398Y-2.7567
T5
X2.7752Y-2.1661
X2.8736Y-2.1661
X3.0705Y-2.1661
X3.1689Y-2.1661
X3.7476Y-2.1661
X3.8461Y-2.1661
X4.0429Y-2.1661
X4.1413Y-2.1661
T6
X2.3362Y-3.7913
X3.3205Y-3.7913
X3.5937Y-3.7913
X4.578Y-3.7913
M30
