%TF.GenerationSoftware,KiCad,Pcbnew,9.0.3*%
%TF.CreationDate,2025-12-15T21:45:11+00:00*%
%TF.ProjectId,TC02Mini,54433032-4d69-46e6-992e-6b696361645f,rev?*%
%TF.SameCoordinates,Original*%
%TF.FileFunction,Soldermask,Top*%
%TF.FilePolarity,Negative*%
%FSLAX46Y46*%
G04 Gerber Fmt 4.6, Leading zero omitted, Abs format (unit mm)*
G04 Created by KiCad (PCBNEW 9.0.3) date 2025-12-15 21:45:11*
%MOMM*%
%LPD*%
G01*
G04 APERTURE LIST*
%ADD10R,1.600000X1.600000*%
%ADD11O,1.600000X1.600000*%
%ADD12C,1.600000*%
%ADD13C,1.700000*%
%ADD14O,1.700000X1.700000*%
%ADD15C,1.400000*%
%ADD16O,1.400000X1.400000*%
%ADD17R,1.700000X1.700000*%
%ADD18C,1.500000*%
%ADD19C,2.550000*%
%ADD20C,3.616000*%
G04 APERTURE END LIST*
D10*
%TO.C,I8*%
X111442500Y-72850000D03*
D11*
X108902500Y-72850000D03*
X106362500Y-72850000D03*
X103822500Y-72850000D03*
X101282500Y-72850000D03*
X98742500Y-72850000D03*
X96202500Y-72850000D03*
X96202500Y-80470000D03*
X98742500Y-80470000D03*
X101282500Y-80470000D03*
X103822500Y-80470000D03*
X106362500Y-80470000D03*
X108902500Y-80470000D03*
X111442500Y-80470000D03*
%TD*%
D12*
%TO.C,C47*%
X49263500Y-98800000D03*
X49263500Y-93720000D03*
%TD*%
%TO.C,C42*%
X114936000Y-98800000D03*
X114936000Y-93720000D03*
%TD*%
D13*
%TO.C,M4*%
X238415000Y-72912500D03*
D14*
X238415000Y-75452500D03*
X238415000Y-77992500D03*
%TD*%
D12*
%TO.C,C8*%
X80070000Y-86100000D03*
X85150000Y-86100000D03*
%TD*%
%TO.C,C10*%
X188100000Y-106882500D03*
X183020000Y-106882500D03*
%TD*%
%TO.C,X1*%
X98600000Y-86190000D03*
X93520000Y-86190000D03*
%TD*%
D10*
%TO.C,I3*%
X239525000Y-106742500D03*
D11*
X236985000Y-106742500D03*
X234445000Y-106742500D03*
X231905000Y-106742500D03*
X229365000Y-106742500D03*
X226825000Y-106742500D03*
X224285000Y-106742500D03*
X221745000Y-106742500D03*
X219205000Y-106742500D03*
X216665000Y-106742500D03*
X214125000Y-106742500D03*
X211585000Y-106742500D03*
X209045000Y-106742500D03*
X206505000Y-106742500D03*
X203965000Y-106742500D03*
X201425000Y-106742500D03*
X198885000Y-106742500D03*
X196345000Y-106742500D03*
X193805000Y-106742500D03*
X191265000Y-106742500D03*
X191265000Y-121982500D03*
X193805000Y-121982500D03*
X196345000Y-121982500D03*
X198885000Y-121982500D03*
X201425000Y-121982500D03*
X203965000Y-121982500D03*
X206505000Y-121982500D03*
X209045000Y-121982500D03*
X211585000Y-121982500D03*
X214125000Y-121982500D03*
X216665000Y-121982500D03*
X219205000Y-121982500D03*
X221745000Y-121982500D03*
X224285000Y-121982500D03*
X226825000Y-121982500D03*
X229365000Y-121982500D03*
X231905000Y-121982500D03*
X234445000Y-121982500D03*
X236985000Y-121982500D03*
X239525000Y-121982500D03*
%TD*%
D12*
%TO.C,C45*%
X136723500Y-98800000D03*
X136723500Y-93720000D03*
%TD*%
%TO.C,C43*%
X115265000Y-79160000D03*
X115265000Y-74080000D03*
%TD*%
%TO.C,C50*%
X49260000Y-120847500D03*
X49260000Y-115767500D03*
%TD*%
D15*
%TO.C,R4*%
X76520000Y-115830000D03*
D16*
X86680000Y-115830000D03*
%TD*%
D10*
%TO.C,I9*%
X67848500Y-92490000D03*
D11*
X65308500Y-92490000D03*
X62768500Y-92490000D03*
X60228500Y-92490000D03*
X57688500Y-92490000D03*
X55148500Y-92490000D03*
X52608500Y-92490000D03*
X52608500Y-100110000D03*
X55148500Y-100110000D03*
X57688500Y-100110000D03*
X60228500Y-100110000D03*
X62768500Y-100110000D03*
X65308500Y-100110000D03*
X67848500Y-100110000D03*
%TD*%
D15*
%TO.C,R2*%
X57950000Y-83480000D03*
D16*
X68110000Y-83480000D03*
%TD*%
D10*
%TO.C,I14*%
X174970000Y-114272500D03*
D11*
X172430000Y-114272500D03*
X169890000Y-114272500D03*
X167350000Y-114272500D03*
X164810000Y-114272500D03*
X162270000Y-114272500D03*
X159730000Y-114272500D03*
X157190000Y-114272500D03*
X157190000Y-121892500D03*
X159730000Y-121892500D03*
X162270000Y-121892500D03*
X164810000Y-121892500D03*
X167350000Y-121892500D03*
X169890000Y-121892500D03*
X172430000Y-121892500D03*
X174970000Y-121892500D03*
%TD*%
D12*
%TO.C,C48*%
X49352500Y-79160000D03*
X49352500Y-74080000D03*
%TD*%
D10*
%TO.C,I16*%
X133416000Y-92490000D03*
D11*
X130876000Y-92490000D03*
X128336000Y-92490000D03*
X125796000Y-92490000D03*
X123256000Y-92490000D03*
X120716000Y-92490000D03*
X118176000Y-92490000D03*
X118176000Y-100110000D03*
X120716000Y-100110000D03*
X123256000Y-100110000D03*
X125796000Y-100110000D03*
X128336000Y-100110000D03*
X130876000Y-100110000D03*
X133416000Y-100110000D03*
%TD*%
D15*
%TO.C,R10*%
X165140000Y-73040000D03*
D16*
X154980000Y-73040000D03*
%TD*%
D10*
%TO.C,I12*%
X67845000Y-114537500D03*
D11*
X65305000Y-114537500D03*
X62765000Y-114537500D03*
X60225000Y-114537500D03*
X57685000Y-114537500D03*
X55145000Y-114537500D03*
X52605000Y-114537500D03*
X52605000Y-122157500D03*
X55145000Y-122157500D03*
X57685000Y-122157500D03*
X60225000Y-122157500D03*
X62765000Y-122157500D03*
X65305000Y-122157500D03*
X67845000Y-122157500D03*
%TD*%
D17*
%TO.C,M300*%
X221670000Y-133662500D03*
D13*
X221670000Y-136202500D03*
X219130000Y-133662500D03*
X219130000Y-136202500D03*
X216590000Y-133662500D03*
X216590000Y-136202500D03*
X214050000Y-133662500D03*
X214050000Y-136202500D03*
X211510000Y-133662500D03*
X211510000Y-136202500D03*
X208970000Y-133662500D03*
X208970000Y-136202500D03*
X206430000Y-133662500D03*
X206430000Y-136202500D03*
X203890000Y-133662500D03*
X203890000Y-136202500D03*
X201350000Y-133662500D03*
X201350000Y-136202500D03*
X198810000Y-133662500D03*
X198810000Y-136202500D03*
X196270000Y-133662500D03*
X196270000Y-136202500D03*
X193730000Y-133662500D03*
X193730000Y-136202500D03*
X191190000Y-133662500D03*
X191190000Y-136202500D03*
X188650000Y-133662500D03*
X188650000Y-136202500D03*
X186110000Y-133662500D03*
X186110000Y-136202500D03*
X183570000Y-133662500D03*
X183570000Y-136202500D03*
X181030000Y-133662500D03*
X181030000Y-136202500D03*
X178490000Y-133662500D03*
X178490000Y-136202500D03*
X175950000Y-133662500D03*
X175950000Y-136202500D03*
X173410000Y-133662500D03*
X173410000Y-136202500D03*
X170870000Y-133662500D03*
X170870000Y-136202500D03*
X168330000Y-133662500D03*
X168330000Y-136202500D03*
X165790000Y-133662500D03*
X165790000Y-136202500D03*
X163250000Y-133662500D03*
X163250000Y-136202500D03*
X160710000Y-133662500D03*
X160710000Y-136202500D03*
X158170000Y-133662500D03*
X158170000Y-136202500D03*
X155630000Y-133662500D03*
X155630000Y-136202500D03*
X153090000Y-133662500D03*
X153090000Y-136202500D03*
X150550000Y-133662500D03*
X150550000Y-136202500D03*
X148010000Y-133662500D03*
X148010000Y-136202500D03*
%TD*%
D15*
%TO.C,R11*%
X148440000Y-83290000D03*
D16*
X138280000Y-83290000D03*
%TD*%
D10*
%TO.C,I15*%
X150230000Y-112610000D03*
D11*
X147690000Y-112610000D03*
X145150000Y-112610000D03*
X142610000Y-112610000D03*
X140070000Y-112610000D03*
X137530000Y-112610000D03*
X134990000Y-112610000D03*
X132450000Y-112610000D03*
X132450000Y-120230000D03*
X134990000Y-120230000D03*
X137530000Y-120230000D03*
X140070000Y-120230000D03*
X142610000Y-120230000D03*
X145150000Y-120230000D03*
X147690000Y-120230000D03*
X150230000Y-120230000D03*
%TD*%
D15*
%TO.C,R1*%
X57950000Y-89430000D03*
D16*
X68110000Y-89430000D03*
%TD*%
D15*
%TO.C,R5*%
X124240000Y-83300000D03*
D16*
X134400000Y-83300000D03*
%TD*%
D12*
%TO.C,C7*%
X85150000Y-83280000D03*
X80070000Y-83280000D03*
%TD*%
D15*
%TO.C,R3*%
X68150000Y-86460000D03*
D16*
X57990000Y-86460000D03*
%TD*%
D12*
%TO.C,C49*%
X92986000Y-98800000D03*
X92986000Y-93720000D03*
%TD*%
D10*
%TO.C,I5*%
X188617500Y-72882500D03*
D11*
X186077500Y-72882500D03*
X183537500Y-72882500D03*
X180997500Y-72882500D03*
X178457500Y-72882500D03*
X175917500Y-72882500D03*
X173377500Y-72882500D03*
X170837500Y-72882500D03*
X170837500Y-80502500D03*
X173377500Y-80502500D03*
X175917500Y-80502500D03*
X178457500Y-80502500D03*
X180997500Y-80502500D03*
X183537500Y-80502500D03*
X186077500Y-80502500D03*
X188617500Y-80502500D03*
%TD*%
D12*
%TO.C,C46*%
X129375000Y-118965000D03*
X129375000Y-113885000D03*
%TD*%
D15*
%TO.C,R6*%
X124250000Y-89290000D03*
D16*
X134410000Y-89290000D03*
%TD*%
D10*
%TO.C,I10*%
X67845000Y-72850000D03*
D11*
X65305000Y-72850000D03*
X62765000Y-72850000D03*
X60225000Y-72850000D03*
X57685000Y-72850000D03*
X55145000Y-72850000D03*
X52605000Y-72850000D03*
X52605000Y-80470000D03*
X55145000Y-80470000D03*
X57685000Y-80470000D03*
X60225000Y-80470000D03*
X62765000Y-80470000D03*
X65305000Y-80470000D03*
X67845000Y-80470000D03*
%TD*%
D18*
%TO.C,Q1*%
X146010000Y-75030000D03*
X143470000Y-77570000D03*
X140930000Y-75030000D03*
%TD*%
D10*
%TO.C,I2*%
X188646000Y-84822500D03*
D11*
X186106000Y-84822500D03*
X183566000Y-84822500D03*
X181026000Y-84822500D03*
X178486000Y-84822500D03*
X175946000Y-84822500D03*
X173406000Y-84822500D03*
X170866000Y-84822500D03*
X168326000Y-84822500D03*
X165786000Y-84822500D03*
X163246000Y-84822500D03*
X160706000Y-84822500D03*
X160706000Y-100062500D03*
X163246000Y-100062500D03*
X165786000Y-100062500D03*
X168326000Y-100062500D03*
X170866000Y-100062500D03*
X173406000Y-100062500D03*
X175946000Y-100062500D03*
X178486000Y-100062500D03*
X181026000Y-100062500D03*
X183566000Y-100062500D03*
X186106000Y-100062500D03*
X188646000Y-100062500D03*
%TD*%
D10*
%TO.C,I11*%
X89360000Y-72850000D03*
D11*
X86820000Y-72850000D03*
X84280000Y-72850000D03*
X81740000Y-72850000D03*
X79200000Y-72850000D03*
X76660000Y-72850000D03*
X74120000Y-72850000D03*
X74120000Y-80470000D03*
X76660000Y-80470000D03*
X79200000Y-80470000D03*
X81740000Y-80470000D03*
X84280000Y-80470000D03*
X86820000Y-80470000D03*
X89360000Y-80470000D03*
%TD*%
D10*
%TO.C,I7*%
X111456000Y-92490000D03*
D11*
X108916000Y-92490000D03*
X106376000Y-92490000D03*
X103836000Y-92490000D03*
X101296000Y-92490000D03*
X98756000Y-92490000D03*
X96216000Y-92490000D03*
X96216000Y-100110000D03*
X98756000Y-100110000D03*
X101296000Y-100110000D03*
X103836000Y-100110000D03*
X106376000Y-100110000D03*
X108916000Y-100110000D03*
X111456000Y-100110000D03*
%TD*%
D12*
%TO.C,C40*%
X238440000Y-82552500D03*
X243520000Y-82552500D03*
%TD*%
D13*
%TO.C,M1*%
X99645000Y-115730000D03*
D14*
X97105000Y-115730000D03*
X94565000Y-115730000D03*
%TD*%
D12*
%TO.C,C41*%
X242980000Y-111962500D03*
X242980000Y-106882500D03*
%TD*%
D10*
%TO.C,I13*%
X125880000Y-111330000D03*
D11*
X123340000Y-111330000D03*
X120800000Y-111330000D03*
X118260000Y-111330000D03*
X115720000Y-111330000D03*
X113180000Y-111330000D03*
X110640000Y-111330000D03*
X108100000Y-111330000D03*
X108100000Y-118950000D03*
X110640000Y-118950000D03*
X113180000Y-118950000D03*
X115720000Y-118950000D03*
X118260000Y-118950000D03*
X120800000Y-118950000D03*
X123340000Y-118950000D03*
X125880000Y-118950000D03*
%TD*%
D10*
%TO.C,I6*%
X89486000Y-92490000D03*
D11*
X86946000Y-92490000D03*
X84406000Y-92490000D03*
X81866000Y-92490000D03*
X79326000Y-92490000D03*
X76786000Y-92490000D03*
X74246000Y-92490000D03*
X74246000Y-100110000D03*
X76786000Y-100110000D03*
X79326000Y-100110000D03*
X81866000Y-100110000D03*
X84406000Y-100110000D03*
X86946000Y-100110000D03*
X89486000Y-100110000D03*
%TD*%
D13*
%TO.C,M3*%
X86650000Y-120470000D03*
D14*
X84110000Y-120470000D03*
X81570000Y-120470000D03*
%TD*%
D10*
%TO.C,I17*%
X155053500Y-92490000D03*
D11*
X152513500Y-92490000D03*
X149973500Y-92490000D03*
X147433500Y-92490000D03*
X144893500Y-92490000D03*
X142353500Y-92490000D03*
X139813500Y-92490000D03*
X139813500Y-100110000D03*
X142353500Y-100110000D03*
X144893500Y-100110000D03*
X147433500Y-100110000D03*
X149973500Y-100110000D03*
X152513500Y-100110000D03*
X155053500Y-100110000D03*
%TD*%
D10*
%TO.C,I4*%
X234435000Y-72922500D03*
D11*
X231895000Y-72922500D03*
X229355000Y-72922500D03*
X226815000Y-72922500D03*
X224275000Y-72922500D03*
X221735000Y-72922500D03*
X219195000Y-72922500D03*
X216655000Y-72922500D03*
X214115000Y-72922500D03*
X211575000Y-72922500D03*
X209035000Y-72922500D03*
X206495000Y-72922500D03*
X203955000Y-72922500D03*
X201415000Y-72922500D03*
X201415000Y-88162500D03*
X203955000Y-88162500D03*
X206495000Y-88162500D03*
X209035000Y-88162500D03*
X211575000Y-88162500D03*
X214115000Y-88162500D03*
X216655000Y-88162500D03*
X219195000Y-88162500D03*
X221735000Y-88162500D03*
X224275000Y-88162500D03*
X226815000Y-88162500D03*
X229355000Y-88162500D03*
X231895000Y-88162500D03*
X234435000Y-88162500D03*
%TD*%
D12*
%TO.C,C44*%
X92910000Y-79160000D03*
X92910000Y-74080000D03*
%TD*%
D10*
%TO.C,I18*%
X134030000Y-72850000D03*
D11*
X131490000Y-72850000D03*
X128950000Y-72850000D03*
X126410000Y-72850000D03*
X123870000Y-72850000D03*
X121330000Y-72850000D03*
X118790000Y-72850000D03*
X118790000Y-80470000D03*
X121330000Y-80470000D03*
X123870000Y-80470000D03*
X126410000Y-80470000D03*
X128950000Y-80470000D03*
X131490000Y-80470000D03*
X134030000Y-80470000D03*
%TD*%
D10*
%TO.C,I1*%
X225570000Y-93702500D03*
D11*
X223030000Y-93702500D03*
X220490000Y-93702500D03*
X217950000Y-93702500D03*
X215410000Y-93702500D03*
X212870000Y-93702500D03*
X210330000Y-93702500D03*
X207790000Y-93702500D03*
X205250000Y-93702500D03*
X202710000Y-93702500D03*
X202710000Y-101322500D03*
X205250000Y-101322500D03*
X207790000Y-101322500D03*
X210330000Y-101322500D03*
X212870000Y-101322500D03*
X215410000Y-101322500D03*
X217950000Y-101322500D03*
X220490000Y-101322500D03*
X223030000Y-101322500D03*
X225570000Y-101322500D03*
%TD*%
D15*
%TO.C,R8*%
X154980000Y-76060000D03*
D16*
X165140000Y-76060000D03*
%TD*%
D19*
%TO.C,M8*%
X239830000Y-92322500D03*
D20*
X239830000Y-87322500D03*
X244330000Y-92322500D03*
X239830000Y-97322500D03*
%TD*%
D13*
%TO.C,M2*%
X99710000Y-120470000D03*
D14*
X97170000Y-120470000D03*
X94630000Y-120470000D03*
%TD*%
D15*
%TO.C,R7*%
X138240000Y-86360000D03*
D16*
X148400000Y-86360000D03*
%TD*%
D15*
%TO.C,R9*%
X124240000Y-86300000D03*
D16*
X134400000Y-86300000D03*
%TD*%
M02*
