%TF.GenerationSoftware,KiCad,Pcbnew,9.0.3*%
%TF.CreationDate,2025-12-15T21:45:11+00:00*%
%TF.ProjectId,TC02Mini,54433032-4d69-46e6-992e-6b696361645f,rev?*%
%TF.SameCoordinates,Original*%
%TF.FileFunction,Legend,Bot*%
%TF.FilePolarity,Positive*%
%FSLAX46Y46*%
G04 Gerber Fmt 4.6, Leading zero omitted, Abs format (unit mm)*
G04 Created by KiCad (PCBNEW 9.0.3) date 2025-12-15 21:45:11*
%MOMM*%
%LPD*%
G01*
G04 APERTURE LIST*
%ADD10C,0.300000*%
G04 APERTURE END LIST*
D10*
X136566917Y-125300828D02*
X136566917Y-126372257D01*
X136566917Y-126372257D02*
X136638346Y-126586542D01*
X136638346Y-126586542D02*
X136781203Y-126729400D01*
X136781203Y-126729400D02*
X136995489Y-126800828D01*
X136995489Y-126800828D02*
X137138346Y-126800828D01*
X135138346Y-126800828D02*
X135852632Y-126800828D01*
X135852632Y-126800828D02*
X135852632Y-125300828D01*
X133781203Y-126657971D02*
X133852631Y-126729400D01*
X133852631Y-126729400D02*
X134066917Y-126800828D01*
X134066917Y-126800828D02*
X134209774Y-126800828D01*
X134209774Y-126800828D02*
X134424060Y-126729400D01*
X134424060Y-126729400D02*
X134566917Y-126586542D01*
X134566917Y-126586542D02*
X134638346Y-126443685D01*
X134638346Y-126443685D02*
X134709774Y-126157971D01*
X134709774Y-126157971D02*
X134709774Y-125943685D01*
X134709774Y-125943685D02*
X134638346Y-125657971D01*
X134638346Y-125657971D02*
X134566917Y-125515114D01*
X134566917Y-125515114D02*
X134424060Y-125372257D01*
X134424060Y-125372257D02*
X134209774Y-125300828D01*
X134209774Y-125300828D02*
X134066917Y-125300828D01*
X134066917Y-125300828D02*
X133852631Y-125372257D01*
X133852631Y-125372257D02*
X133781203Y-125443685D01*
X132709774Y-125300828D02*
X132709774Y-126372257D01*
X132709774Y-126372257D02*
X132781203Y-126586542D01*
X132781203Y-126586542D02*
X132924060Y-126729400D01*
X132924060Y-126729400D02*
X133138346Y-126800828D01*
X133138346Y-126800828D02*
X133281203Y-126800828D01*
X131281203Y-126800828D02*
X131995489Y-126800828D01*
X131995489Y-126800828D02*
X131995489Y-125300828D01*
X129924060Y-126657971D02*
X129995488Y-126729400D01*
X129995488Y-126729400D02*
X130209774Y-126800828D01*
X130209774Y-126800828D02*
X130352631Y-126800828D01*
X130352631Y-126800828D02*
X130566917Y-126729400D01*
X130566917Y-126729400D02*
X130709774Y-126586542D01*
X130709774Y-126586542D02*
X130781203Y-126443685D01*
X130781203Y-126443685D02*
X130852631Y-126157971D01*
X130852631Y-126157971D02*
X130852631Y-125943685D01*
X130852631Y-125943685D02*
X130781203Y-125657971D01*
X130781203Y-125657971D02*
X130709774Y-125515114D01*
X130709774Y-125515114D02*
X130566917Y-125372257D01*
X130566917Y-125372257D02*
X130352631Y-125300828D01*
X130352631Y-125300828D02*
X130209774Y-125300828D01*
X130209774Y-125300828D02*
X129995488Y-125372257D01*
X129995488Y-125372257D02*
X129924060Y-125443685D01*
X128852631Y-125300828D02*
X128852631Y-126372257D01*
X128852631Y-126372257D02*
X128924060Y-126586542D01*
X128924060Y-126586542D02*
X129066917Y-126729400D01*
X129066917Y-126729400D02*
X129281203Y-126800828D01*
X129281203Y-126800828D02*
X129424060Y-126800828D01*
X127424060Y-126800828D02*
X128138346Y-126800828D01*
X128138346Y-126800828D02*
X128138346Y-125300828D01*
X126066917Y-126657971D02*
X126138345Y-126729400D01*
X126138345Y-126729400D02*
X126352631Y-126800828D01*
X126352631Y-126800828D02*
X126495488Y-126800828D01*
X126495488Y-126800828D02*
X126709774Y-126729400D01*
X126709774Y-126729400D02*
X126852631Y-126586542D01*
X126852631Y-126586542D02*
X126924060Y-126443685D01*
X126924060Y-126443685D02*
X126995488Y-126157971D01*
X126995488Y-126157971D02*
X126995488Y-125943685D01*
X126995488Y-125943685D02*
X126924060Y-125657971D01*
X126924060Y-125657971D02*
X126852631Y-125515114D01*
X126852631Y-125515114D02*
X126709774Y-125372257D01*
X126709774Y-125372257D02*
X126495488Y-125300828D01*
X126495488Y-125300828D02*
X126352631Y-125300828D01*
X126352631Y-125300828D02*
X126138345Y-125372257D01*
X126138345Y-125372257D02*
X126066917Y-125443685D01*
X124995488Y-125300828D02*
X124995488Y-126372257D01*
X124995488Y-126372257D02*
X125066917Y-126586542D01*
X125066917Y-126586542D02*
X125209774Y-126729400D01*
X125209774Y-126729400D02*
X125424060Y-126800828D01*
X125424060Y-126800828D02*
X125566917Y-126800828D01*
X123566917Y-126800828D02*
X124281203Y-126800828D01*
X124281203Y-126800828D02*
X124281203Y-125300828D01*
X122209774Y-126657971D02*
X122281202Y-126729400D01*
X122281202Y-126729400D02*
X122495488Y-126800828D01*
X122495488Y-126800828D02*
X122638345Y-126800828D01*
X122638345Y-126800828D02*
X122852631Y-126729400D01*
X122852631Y-126729400D02*
X122995488Y-126586542D01*
X122995488Y-126586542D02*
X123066917Y-126443685D01*
X123066917Y-126443685D02*
X123138345Y-126157971D01*
X123138345Y-126157971D02*
X123138345Y-125943685D01*
X123138345Y-125943685D02*
X123066917Y-125657971D01*
X123066917Y-125657971D02*
X122995488Y-125515114D01*
X122995488Y-125515114D02*
X122852631Y-125372257D01*
X122852631Y-125372257D02*
X122638345Y-125300828D01*
X122638345Y-125300828D02*
X122495488Y-125300828D01*
X122495488Y-125300828D02*
X122281202Y-125372257D01*
X122281202Y-125372257D02*
X122209774Y-125443685D01*
X74196917Y-126086542D02*
X74268346Y-126015114D01*
X74268346Y-126015114D02*
X74411203Y-125943685D01*
X74411203Y-125943685D02*
X74554060Y-125943685D01*
X74554060Y-125943685D02*
X74696917Y-126015114D01*
X74696917Y-126015114D02*
X74768346Y-126086542D01*
X74768346Y-126086542D02*
X74839774Y-126229400D01*
X74839774Y-126229400D02*
X74839774Y-126372257D01*
X74839774Y-126372257D02*
X74768346Y-126515114D01*
X74768346Y-126515114D02*
X74696917Y-126586542D01*
X74696917Y-126586542D02*
X74554060Y-126657971D01*
X74554060Y-126657971D02*
X74411203Y-126657971D01*
X74411203Y-126657971D02*
X74268346Y-126586542D01*
X74268346Y-126586542D02*
X74196917Y-126515114D01*
X74196917Y-125943685D02*
X74196917Y-126515114D01*
X74196917Y-126515114D02*
X74125489Y-126586542D01*
X74125489Y-126586542D02*
X74054060Y-126586542D01*
X74054060Y-126586542D02*
X73911203Y-126515114D01*
X73911203Y-126515114D02*
X73839774Y-126372257D01*
X73839774Y-126372257D02*
X73839774Y-126015114D01*
X73839774Y-126015114D02*
X73982632Y-125800828D01*
X73982632Y-125800828D02*
X74196917Y-125657971D01*
X74196917Y-125657971D02*
X74482632Y-125586542D01*
X74482632Y-125586542D02*
X74768346Y-125657971D01*
X74768346Y-125657971D02*
X74982632Y-125800828D01*
X74982632Y-125800828D02*
X75125489Y-126015114D01*
X75125489Y-126015114D02*
X75196917Y-126300828D01*
X75196917Y-126300828D02*
X75125489Y-126586542D01*
X75125489Y-126586542D02*
X74982632Y-126800828D01*
X74982632Y-126800828D02*
X74768346Y-126943685D01*
X74768346Y-126943685D02*
X74482632Y-127015114D01*
X74482632Y-127015114D02*
X74196917Y-126943685D01*
X74196917Y-126943685D02*
X73982632Y-126800828D01*
X72554061Y-125800828D02*
X72554061Y-127015114D01*
X72554061Y-127015114D02*
X72625489Y-127157971D01*
X72625489Y-127157971D02*
X72696918Y-127229400D01*
X72696918Y-127229400D02*
X72839775Y-127300828D01*
X72839775Y-127300828D02*
X73054061Y-127300828D01*
X73054061Y-127300828D02*
X73196918Y-127229400D01*
X72554061Y-126729400D02*
X72696918Y-126800828D01*
X72696918Y-126800828D02*
X72982632Y-126800828D01*
X72982632Y-126800828D02*
X73125489Y-126729400D01*
X73125489Y-126729400D02*
X73196918Y-126657971D01*
X73196918Y-126657971D02*
X73268346Y-126515114D01*
X73268346Y-126515114D02*
X73268346Y-126086542D01*
X73268346Y-126086542D02*
X73196918Y-125943685D01*
X73196918Y-125943685D02*
X73125489Y-125872257D01*
X73125489Y-125872257D02*
X72982632Y-125800828D01*
X72982632Y-125800828D02*
X72696918Y-125800828D01*
X72696918Y-125800828D02*
X72554061Y-125872257D01*
X71839775Y-126800828D02*
X71839775Y-125800828D01*
X71839775Y-126086542D02*
X71768346Y-125943685D01*
X71768346Y-125943685D02*
X71696918Y-125872257D01*
X71696918Y-125872257D02*
X71554060Y-125800828D01*
X71554060Y-125800828D02*
X71411203Y-125800828D01*
X70268347Y-126800828D02*
X70268347Y-126015114D01*
X70268347Y-126015114D02*
X70339775Y-125872257D01*
X70339775Y-125872257D02*
X70482632Y-125800828D01*
X70482632Y-125800828D02*
X70768347Y-125800828D01*
X70768347Y-125800828D02*
X70911204Y-125872257D01*
X70268347Y-126729400D02*
X70411204Y-126800828D01*
X70411204Y-126800828D02*
X70768347Y-126800828D01*
X70768347Y-126800828D02*
X70911204Y-126729400D01*
X70911204Y-126729400D02*
X70982632Y-126586542D01*
X70982632Y-126586542D02*
X70982632Y-126443685D01*
X70982632Y-126443685D02*
X70911204Y-126300828D01*
X70911204Y-126300828D02*
X70768347Y-126229400D01*
X70768347Y-126229400D02*
X70411204Y-126229400D01*
X70411204Y-126229400D02*
X70268347Y-126157971D01*
X69554061Y-125800828D02*
X69554061Y-126800828D01*
X69554061Y-125943685D02*
X69482632Y-125872257D01*
X69482632Y-125872257D02*
X69339775Y-125800828D01*
X69339775Y-125800828D02*
X69125489Y-125800828D01*
X69125489Y-125800828D02*
X68982632Y-125872257D01*
X68982632Y-125872257D02*
X68911204Y-126015114D01*
X68911204Y-126015114D02*
X68911204Y-126800828D01*
X67554061Y-126800828D02*
X67554061Y-125300828D01*
X67554061Y-126729400D02*
X67696918Y-126800828D01*
X67696918Y-126800828D02*
X67982632Y-126800828D01*
X67982632Y-126800828D02*
X68125489Y-126729400D01*
X68125489Y-126729400D02*
X68196918Y-126657971D01*
X68196918Y-126657971D02*
X68268346Y-126515114D01*
X68268346Y-126515114D02*
X68268346Y-126086542D01*
X68268346Y-126086542D02*
X68196918Y-125943685D01*
X68196918Y-125943685D02*
X68125489Y-125872257D01*
X68125489Y-125872257D02*
X67982632Y-125800828D01*
X67982632Y-125800828D02*
X67696918Y-125800828D01*
X67696918Y-125800828D02*
X67554061Y-125872257D01*
X66625489Y-126800828D02*
X66768346Y-126729400D01*
X66768346Y-126729400D02*
X66839775Y-126657971D01*
X66839775Y-126657971D02*
X66911203Y-126515114D01*
X66911203Y-126515114D02*
X66911203Y-126086542D01*
X66911203Y-126086542D02*
X66839775Y-125943685D01*
X66839775Y-125943685D02*
X66768346Y-125872257D01*
X66768346Y-125872257D02*
X66625489Y-125800828D01*
X66625489Y-125800828D02*
X66411203Y-125800828D01*
X66411203Y-125800828D02*
X66268346Y-125872257D01*
X66268346Y-125872257D02*
X66196918Y-125943685D01*
X66196918Y-125943685D02*
X66125489Y-126086542D01*
X66125489Y-126086542D02*
X66125489Y-126515114D01*
X66125489Y-126515114D02*
X66196918Y-126657971D01*
X66196918Y-126657971D02*
X66268346Y-126729400D01*
X66268346Y-126729400D02*
X66411203Y-126800828D01*
X66411203Y-126800828D02*
X66625489Y-126800828D01*
X65268346Y-126800828D02*
X65411203Y-126729400D01*
X65411203Y-126729400D02*
X65482632Y-126586542D01*
X65482632Y-126586542D02*
X65482632Y-125300828D01*
X64054061Y-126800828D02*
X64054061Y-125300828D01*
X64054061Y-126729400D02*
X64196918Y-126800828D01*
X64196918Y-126800828D02*
X64482632Y-126800828D01*
X64482632Y-126800828D02*
X64625489Y-126729400D01*
X64625489Y-126729400D02*
X64696918Y-126657971D01*
X64696918Y-126657971D02*
X64768346Y-126515114D01*
X64768346Y-126515114D02*
X64768346Y-126086542D01*
X64768346Y-126086542D02*
X64696918Y-125943685D01*
X64696918Y-125943685D02*
X64625489Y-125872257D01*
X64625489Y-125872257D02*
X64482632Y-125800828D01*
X64482632Y-125800828D02*
X64196918Y-125800828D01*
X64196918Y-125800828D02*
X64054061Y-125872257D01*
X63339775Y-126800828D02*
X63339775Y-125800828D01*
X63339775Y-125300828D02*
X63411203Y-125372257D01*
X63411203Y-125372257D02*
X63339775Y-125443685D01*
X63339775Y-125443685D02*
X63268346Y-125372257D01*
X63268346Y-125372257D02*
X63339775Y-125300828D01*
X63339775Y-125300828D02*
X63339775Y-125443685D01*
X61982632Y-126800828D02*
X61982632Y-126015114D01*
X61982632Y-126015114D02*
X62054060Y-125872257D01*
X62054060Y-125872257D02*
X62196917Y-125800828D01*
X62196917Y-125800828D02*
X62482632Y-125800828D01*
X62482632Y-125800828D02*
X62625489Y-125872257D01*
X61982632Y-126729400D02*
X62125489Y-126800828D01*
X62125489Y-126800828D02*
X62482632Y-126800828D01*
X62482632Y-126800828D02*
X62625489Y-126729400D01*
X62625489Y-126729400D02*
X62696917Y-126586542D01*
X62696917Y-126586542D02*
X62696917Y-126443685D01*
X62696917Y-126443685D02*
X62625489Y-126300828D01*
X62625489Y-126300828D02*
X62482632Y-126229400D01*
X62482632Y-126229400D02*
X62125489Y-126229400D01*
X62125489Y-126229400D02*
X61982632Y-126157971D01*
X61268346Y-125800828D02*
X61268346Y-126800828D01*
X61268346Y-125943685D02*
X61196917Y-125872257D01*
X61196917Y-125872257D02*
X61054060Y-125800828D01*
X61054060Y-125800828D02*
X60839774Y-125800828D01*
X60839774Y-125800828D02*
X60696917Y-125872257D01*
X60696917Y-125872257D02*
X60625489Y-126015114D01*
X60625489Y-126015114D02*
X60625489Y-126800828D01*
X57982631Y-126800828D02*
X58839774Y-126800828D01*
X58411203Y-126800828D02*
X58411203Y-125300828D01*
X58411203Y-125300828D02*
X58554060Y-125515114D01*
X58554060Y-125515114D02*
X58696917Y-125657971D01*
X58696917Y-125657971D02*
X58839774Y-125729400D01*
X57411203Y-125443685D02*
X57339775Y-125372257D01*
X57339775Y-125372257D02*
X57196918Y-125300828D01*
X57196918Y-125300828D02*
X56839775Y-125300828D01*
X56839775Y-125300828D02*
X56696918Y-125372257D01*
X56696918Y-125372257D02*
X56625489Y-125443685D01*
X56625489Y-125443685D02*
X56554060Y-125586542D01*
X56554060Y-125586542D02*
X56554060Y-125729400D01*
X56554060Y-125729400D02*
X56625489Y-125943685D01*
X56625489Y-125943685D02*
X57482632Y-126800828D01*
X57482632Y-126800828D02*
X56554060Y-126800828D01*
X54839775Y-125229400D02*
X56125489Y-127157971D01*
X54411203Y-125443685D02*
X54339775Y-125372257D01*
X54339775Y-125372257D02*
X54196918Y-125300828D01*
X54196918Y-125300828D02*
X53839775Y-125300828D01*
X53839775Y-125300828D02*
X53696918Y-125372257D01*
X53696918Y-125372257D02*
X53625489Y-125443685D01*
X53625489Y-125443685D02*
X53554060Y-125586542D01*
X53554060Y-125586542D02*
X53554060Y-125729400D01*
X53554060Y-125729400D02*
X53625489Y-125943685D01*
X53625489Y-125943685D02*
X54482632Y-126800828D01*
X54482632Y-126800828D02*
X53554060Y-126800828D01*
X52625489Y-125300828D02*
X52482632Y-125300828D01*
X52482632Y-125300828D02*
X52339775Y-125372257D01*
X52339775Y-125372257D02*
X52268347Y-125443685D01*
X52268347Y-125443685D02*
X52196918Y-125586542D01*
X52196918Y-125586542D02*
X52125489Y-125872257D01*
X52125489Y-125872257D02*
X52125489Y-126229400D01*
X52125489Y-126229400D02*
X52196918Y-126515114D01*
X52196918Y-126515114D02*
X52268347Y-126657971D01*
X52268347Y-126657971D02*
X52339775Y-126729400D01*
X52339775Y-126729400D02*
X52482632Y-126800828D01*
X52482632Y-126800828D02*
X52625489Y-126800828D01*
X52625489Y-126800828D02*
X52768347Y-126729400D01*
X52768347Y-126729400D02*
X52839775Y-126657971D01*
X52839775Y-126657971D02*
X52911204Y-126515114D01*
X52911204Y-126515114D02*
X52982632Y-126229400D01*
X52982632Y-126229400D02*
X52982632Y-125872257D01*
X52982632Y-125872257D02*
X52911204Y-125586542D01*
X52911204Y-125586542D02*
X52839775Y-125443685D01*
X52839775Y-125443685D02*
X52768347Y-125372257D01*
X52768347Y-125372257D02*
X52625489Y-125300828D01*
X51554061Y-125443685D02*
X51482633Y-125372257D01*
X51482633Y-125372257D02*
X51339776Y-125300828D01*
X51339776Y-125300828D02*
X50982633Y-125300828D01*
X50982633Y-125300828D02*
X50839776Y-125372257D01*
X50839776Y-125372257D02*
X50768347Y-125443685D01*
X50768347Y-125443685D02*
X50696918Y-125586542D01*
X50696918Y-125586542D02*
X50696918Y-125729400D01*
X50696918Y-125729400D02*
X50768347Y-125943685D01*
X50768347Y-125943685D02*
X51625490Y-126800828D01*
X51625490Y-126800828D02*
X50696918Y-126800828D01*
X49339776Y-125300828D02*
X50054062Y-125300828D01*
X50054062Y-125300828D02*
X50125490Y-126015114D01*
X50125490Y-126015114D02*
X50054062Y-125943685D01*
X50054062Y-125943685D02*
X49911205Y-125872257D01*
X49911205Y-125872257D02*
X49554062Y-125872257D01*
X49554062Y-125872257D02*
X49411205Y-125943685D01*
X49411205Y-125943685D02*
X49339776Y-126015114D01*
X49339776Y-126015114D02*
X49268347Y-126157971D01*
X49268347Y-126157971D02*
X49268347Y-126515114D01*
X49268347Y-126515114D02*
X49339776Y-126657971D01*
X49339776Y-126657971D02*
X49411205Y-126729400D01*
X49411205Y-126729400D02*
X49554062Y-126800828D01*
X49554062Y-126800828D02*
X49911205Y-126800828D01*
X49911205Y-126800828D02*
X50054062Y-126729400D01*
X50054062Y-126729400D02*
X50125490Y-126657971D01*
M02*
