M48
; DRILL file {KiCad 9.0.3} date 2025-12-15T21:45:09+0000
; FORMAT={-:-/ absolute / inch / decimal}
; #@! TF.CreationDate,2025-12-15T21:45:09+00:00
; #@! TF.GenerationSoftware,Kicad,Pcbnew,9.0.3
; #@! TF.FileFunction,Plated,1,2,PTH
FMAT,2
INCH
; #@! TA.AperFunction,Plated,PTH,ViaDrill
T1C0.0157
; #@! TA.AperFunction,Plated,PTH,ComponentDrill
T2C0.0276
; #@! TA.AperFunction,Plated,PTH,ComponentDrill
T3C0.0315
; #@! TA.AperFunction,Plated,PTH,ComponentDrill
T4C0.0394
; #@! TA.AperFunction,Plated,PTH,ComponentDrill
T5C0.0669
; #@! TA.AperFunction,Plated,PTH,ComponentDrill
T6C0.1024
%
G90
G05
T1
X2.3173Y-3.2007
X2.5212Y-3.5047
X2.6185Y-3.8886
X3.1232Y-3.7689
X3.2829Y-3.8026
X3.4165Y-2.7445
X3.4232Y-4.0346
X3.5072Y-2.812
X3.7451Y-3.6055
X4.0022Y-3.7688
X4.1079Y-3.5287
X4.1382Y-3.1134
X4.1531Y-4.4185
X4.3972Y-4.4425
X4.4181Y-3.2183
X4.5539Y-4.0291
X4.5567Y-4.602
X4.6874Y-4.2291
X4.6874Y-4.2961
X4.7055Y-3.5934
X4.7566Y-3.3527
X4.7579Y-3.5304
X4.7646Y-3.4404
X4.8003Y-3.9751
X4.9051Y-3.6941
X5.0487Y-4.4467
X5.0753Y-3.4385
X5.0996Y-3.8854
X5.1413Y-4.378
X5.1589Y-4.6864
X5.2064Y-4.8168
X5.2528Y-4.6134
X5.2752Y-4.5732
X5.3335Y-4.0064
X5.3693Y-2.8274
X5.4433Y-3.8935
X5.4713Y-4.0881
X5.5319Y-4.1626
X5.5339Y-4.0742
X5.5831Y-4.9746
X5.6154Y-4.6063
X5.6646Y-4.4103
X5.7043Y-3.8122
X5.7399Y-4.0505
X5.7991Y-3.3615
X5.9189Y-3.7122
X5.9559Y-3.9791
X5.9805Y-4.7075
X5.9913Y-3.7728
X6.0153Y-3.5271
X6.0535Y-3.9748
X6.0535Y-4.1845
X6.2303Y-4.5846
X6.235Y-3.2916
X6.2379Y-3.4382
X6.2458Y-4.4331
X6.3634Y-4.4499
X6.397Y-3.8894
X6.4191Y-4.4165
X6.4382Y-4.9216
X6.4678Y-3.6462
X6.5147Y-4.3811
X6.6016Y-4.1608
X6.6772Y-4.161
X6.6772Y-5.3123
X6.7268Y-3.702
X6.8422Y-3.0856
X6.8626Y-4.161
X6.9172Y-4.661
X6.975Y-3.689
X6.9816Y-4.3555
X7.0238Y-4.8122
X7.0314Y-4.466
X7.0878Y-4.7799
X7.1182Y-4.2965
X7.1263Y-4.168
X7.1272Y-3.464
X7.1413Y-4.3685
X7.1653Y-4.8764
X7.1826Y-4.7412
X7.1994Y-3.8356
X7.2309Y-3.4955
X7.2617Y-4.4372
X7.2713Y-3.5271
X7.2748Y-4.2063
X7.3061Y-4.4371
X7.3146Y-4.3119
X7.3224Y-4.8437
X7.3539Y-4.8698
X7.3812Y-3.8717
X7.3936Y-4.2724
X7.4394Y-4.8206
X7.4459Y-4.695
X7.4733Y-4.2311
X7.4768Y-5.135
X7.4831Y-3.9733
X7.4839Y-3.9013
X7.5228Y-3.9733
X7.5232Y-3.9013
X7.524Y-4.5054
X7.6811Y-4.9098
X7.7421Y-4.0511
X7.7486Y-4.5461
X7.7791Y-4.8898
X7.9091Y-3.8087
X7.9513Y-4.9732
X8.002Y-3.5949
X8.0283Y-3.337
X8.1295Y-4.5909
X8.1835Y-4.8755
X8.1858Y-3.1787
X8.4299Y-4.6728
X8.4772Y-5.102
X8.4777Y-3.3506
X8.5189Y-4.6063
X8.5268Y-5.2052
X8.5807Y-3.398
X8.6288Y-4.4018
X8.7223Y-4.4739
X8.7307Y-4.0172
X8.948Y-3.9392
X8.9768Y-3.8764
X8.9776Y-3.6028
X8.9776Y-3.7962
X9.0161Y-3.8747
X9.017Y-3.7962
X9.0563Y-3.7962
X9.1815Y-3.9524
T2
X2.2815Y-3.2866
X2.2815Y-3.5209
X2.2831Y-3.4039
X2.6815Y-3.2866
X2.6815Y-3.5209
X2.6831Y-3.4039
X3.0126Y-4.5602
X3.4126Y-4.5602
X4.8913Y-3.2795
X4.8913Y-3.3976
X4.8917Y-3.5154
X5.2913Y-3.2795
X5.2913Y-3.3976
X5.2917Y-3.5154
X5.4425Y-3.4
X5.4441Y-3.2791
X5.8425Y-3.4
X5.8441Y-3.2791
X6.1016Y-2.8756
X6.1016Y-2.9945
X6.5016Y-2.8756
X6.5016Y-2.9945
T3
X1.9394Y-4.5578
X1.9394Y-4.7578
X1.9395Y-3.6898
X1.9395Y-3.8898
X1.943Y-2.9165
X1.943Y-3.1165
X2.0711Y-2.8681
X2.0711Y-3.1681
X2.0711Y-4.5094
X2.0711Y-4.8094
X2.0712Y-3.6413
X2.0712Y-3.9413
X2.1711Y-2.8681
X2.1711Y-3.1681
X2.1711Y-4.5094
X2.1711Y-4.8094
X2.1712Y-3.6413
X2.1712Y-3.9413
X2.2711Y-2.8681
X2.2711Y-3.1681
X2.2711Y-4.5094
X2.2711Y-4.8094
X2.2712Y-3.6413
X2.2712Y-3.9413
X2.3711Y-2.8681
X2.3711Y-3.1681
X2.3711Y-4.5094
X2.3711Y-4.8094
X2.3712Y-3.6413
X2.3712Y-3.9413
X2.4711Y-2.8681
X2.4711Y-3.1681
X2.4711Y-4.5094
X2.4711Y-4.8094
X2.4712Y-3.6413
X2.4712Y-3.9413
X2.5711Y-2.8681
X2.5711Y-3.1681
X2.5711Y-4.5094
X2.5711Y-4.8094
X2.5712Y-3.6413
X2.5712Y-3.9413
X2.6711Y-2.8681
X2.6711Y-3.1681
X2.6711Y-4.5094
X2.6711Y-4.8094
X2.6712Y-3.6413
X2.6712Y-3.9413
X2.9181Y-2.8681
X2.9181Y-3.1681
X2.9231Y-3.6413
X2.9231Y-3.9413
X3.0181Y-2.8681
X3.0181Y-3.1681
X3.0231Y-3.6413
X3.0231Y-3.9413
X3.1181Y-2.8681
X3.1181Y-3.1681
X3.1231Y-3.6413
X3.1231Y-3.9413
X3.1524Y-3.2787
X3.1524Y-3.3898
X3.2181Y-2.8681
X3.2181Y-3.1681
X3.2231Y-3.6413
X3.2231Y-3.9413
X3.3181Y-2.8681
X3.3181Y-3.1681
X3.3231Y-3.6413
X3.3231Y-3.9413
X3.3524Y-3.2787
X3.3524Y-3.3898
X3.4181Y-2.8681
X3.4181Y-3.1681
X3.4231Y-3.6413
X3.4231Y-3.9413
X3.5181Y-2.8681
X3.5181Y-3.1681
X3.5231Y-3.6413
X3.5231Y-3.9413
X3.6579Y-2.9165
X3.6579Y-3.1165
X3.6609Y-3.6898
X3.6609Y-3.8898
X3.6819Y-3.3933
X3.7875Y-2.8681
X3.7875Y-3.1681
X3.788Y-3.6413
X3.788Y-3.9413
X3.8819Y-3.3933
X3.8875Y-2.8681
X3.8875Y-3.1681
X3.888Y-3.6413
X3.888Y-3.9413
X3.9875Y-2.8681
X3.9875Y-3.1681
X3.988Y-3.6413
X3.988Y-3.9413
X4.0875Y-2.8681
X4.0875Y-3.1681
X4.088Y-3.6413
X4.088Y-3.9413
X4.1875Y-2.8681
X4.1875Y-3.1681
X4.188Y-3.6413
X4.188Y-3.9413
X4.2559Y-4.3831
X4.2559Y-4.6831
X4.2875Y-2.8681
X4.2875Y-3.1681
X4.288Y-3.6413
X4.288Y-3.9413
X4.3559Y-4.3831
X4.3559Y-4.6831
X4.3875Y-2.8681
X4.3875Y-3.1681
X4.388Y-3.6413
X4.388Y-3.9413
X4.4559Y-4.3831
X4.4559Y-4.6831
X4.525Y-3.6898
X4.525Y-3.8898
X4.538Y-2.9165
X4.538Y-3.1165
X4.5559Y-4.3831
X4.5559Y-4.6831
X4.6526Y-3.6413
X4.6526Y-3.9413
X4.6559Y-4.3831
X4.6559Y-4.6831
X4.6768Y-2.8681
X4.6768Y-3.1681
X4.7526Y-3.6413
X4.7526Y-3.9413
X4.7559Y-4.3831
X4.7559Y-4.6831
X4.7768Y-2.8681
X4.7768Y-3.1681
X4.8526Y-3.6413
X4.8526Y-3.9413
X4.8559Y-4.3831
X4.8559Y-4.6831
X4.8768Y-2.8681
X4.8768Y-3.1681
X4.9526Y-3.6413
X4.9526Y-3.9413
X4.9559Y-4.3831
X4.9559Y-4.6831
X4.9768Y-2.8681
X4.9768Y-3.1681
X5.0526Y-3.6413
X5.0526Y-3.9413
X5.0768Y-2.8681
X5.0768Y-3.1681
X5.0935Y-4.4837
X5.0935Y-4.6837
X5.1526Y-3.6413
X5.1526Y-3.9413
X5.1768Y-2.8681
X5.1768Y-3.1681
X5.2146Y-4.4335
X5.2146Y-4.7335
X5.2526Y-3.6413
X5.2526Y-3.9413
X5.2768Y-2.8681
X5.2768Y-3.1681
X5.3146Y-4.4335
X5.3146Y-4.7335
X5.3828Y-3.6898
X5.3828Y-3.8898
X5.4146Y-4.4335
X5.4146Y-4.7335
X5.5045Y-3.6413
X5.5045Y-3.9413
X5.5146Y-4.4335
X5.5146Y-4.7335
X5.5484Y-2.9539
X5.6045Y-3.6413
X5.6045Y-3.9413
X5.6146Y-4.4335
X5.6146Y-4.7335
X5.6484Y-3.0539
X5.7045Y-3.6413
X5.7045Y-3.9413
X5.7146Y-4.4335
X5.7146Y-4.7335
X5.7484Y-2.9539
X5.8045Y-3.6413
X5.8045Y-3.9413
X5.8146Y-4.4335
X5.8146Y-4.7335
X5.9045Y-3.6413
X5.9045Y-3.9413
X5.9146Y-4.4335
X5.9146Y-4.7335
X6.0045Y-3.6413
X6.0045Y-3.9413
X6.1045Y-3.6413
X6.1045Y-3.9413
X6.1886Y-4.4989
X6.1886Y-4.7989
X6.2886Y-4.4989
X6.2886Y-4.7989
X6.327Y-3.3395
X6.327Y-3.9395
X6.3886Y-4.4989
X6.3886Y-4.7989
X6.427Y-3.3395
X6.427Y-3.9395
X6.4886Y-4.4989
X6.4886Y-4.7989
X6.527Y-3.3395
X6.527Y-3.9395
X6.5886Y-4.4989
X6.5886Y-4.7989
X6.627Y-3.3395
X6.627Y-3.9395
X6.6886Y-4.4989
X6.6886Y-4.7989
X6.7259Y-2.8694
X6.7259Y-3.1694
X6.727Y-3.3395
X6.727Y-3.9395
X6.7886Y-4.4989
X6.7886Y-4.7989
X6.8259Y-2.8694
X6.8259Y-3.1694
X6.827Y-3.3395
X6.827Y-3.9395
X6.8886Y-4.4989
X6.8886Y-4.7989
X6.9259Y-2.8694
X6.9259Y-3.1694
X6.927Y-3.3395
X6.927Y-3.9395
X7.0259Y-2.8694
X7.0259Y-3.1694
X7.027Y-3.3395
X7.027Y-3.9395
X7.1259Y-2.8694
X7.1259Y-3.1694
X7.127Y-3.3395
X7.127Y-3.9395
X7.2055Y-4.208
X7.2259Y-2.8694
X7.2259Y-3.1694
X7.227Y-3.3395
X7.227Y-3.9395
X7.3259Y-2.8694
X7.3259Y-3.1694
X7.327Y-3.3395
X7.327Y-3.9395
X7.4055Y-4.208
X7.4259Y-2.8694
X7.4259Y-3.1694
X7.427Y-3.3395
X7.427Y-3.9395
X7.5301Y-4.2025
X7.5301Y-4.8025
X7.6301Y-4.2025
X7.6301Y-4.8025
X7.7301Y-4.2025
X7.7301Y-4.8025
X7.8301Y-4.2025
X7.8301Y-4.8025
X7.9297Y-2.871
X7.9297Y-3.471
X7.9301Y-4.2025
X7.9301Y-4.8025
X7.9807Y-3.6891
X7.9807Y-3.9891
X8.0297Y-2.871
X8.0297Y-3.471
X8.0301Y-4.2025
X8.0301Y-4.8025
X8.0807Y-3.6891
X8.0807Y-3.9891
X8.1297Y-2.871
X8.1297Y-3.471
X8.1301Y-4.2025
X8.1301Y-4.8025
X8.1807Y-3.6891
X8.1807Y-3.9891
X8.2297Y-2.871
X8.2297Y-3.471
X8.2301Y-4.2025
X8.2301Y-4.8025
X8.2807Y-3.6891
X8.2807Y-3.9891
X8.3297Y-2.871
X8.3297Y-3.471
X8.3301Y-4.2025
X8.3301Y-4.8025
X8.3807Y-3.6891
X8.3807Y-3.9891
X8.4297Y-2.871
X8.4297Y-3.471
X8.4301Y-4.2025
X8.4301Y-4.8025
X8.4807Y-3.6891
X8.4807Y-3.9891
X8.5297Y-2.871
X8.5297Y-3.471
X8.5301Y-4.2025
X8.5301Y-4.8025
X8.5807Y-3.6891
X8.5807Y-3.9891
X8.6297Y-2.871
X8.6297Y-3.471
X8.6301Y-4.2025
X8.6301Y-4.8025
X8.6807Y-3.6891
X8.6807Y-3.9891
X8.7297Y-2.871
X8.7297Y-3.471
X8.7301Y-4.2025
X8.7301Y-4.8025
X8.7807Y-3.6891
X8.7807Y-3.9891
X8.8297Y-2.871
X8.8297Y-3.471
X8.8301Y-4.2025
X8.8301Y-4.8025
X8.8807Y-3.6891
X8.8807Y-3.9891
X8.9297Y-2.871
X8.9297Y-3.471
X8.9301Y-4.2025
X8.9301Y-4.8025
X9.0297Y-2.871
X9.0297Y-3.471
X9.0301Y-4.2025
X9.0301Y-4.8025
X9.1297Y-2.871
X9.1297Y-3.471
X9.1301Y-4.2025
X9.1301Y-4.8025
X9.2297Y-2.871
X9.2297Y-3.471
X9.2301Y-4.2025
X9.2301Y-4.8025
X9.3301Y-4.2025
X9.3301Y-4.8025
X9.3874Y-3.2501
X9.4301Y-4.2025
X9.4301Y-4.8025
X9.5661Y-4.208
X9.5661Y-4.408
X9.5874Y-3.2501
T4
X3.2114Y-4.7429
X3.3114Y-4.7429
X3.4114Y-4.7429
X3.723Y-4.5563
X3.7256Y-4.7429
X3.823Y-4.5563
X3.8256Y-4.7429
X3.923Y-4.5563
X3.9256Y-4.7429
X5.8272Y-5.2623
X5.8272Y-5.3623
X5.9272Y-5.2623
X5.9272Y-5.3623
X6.0272Y-5.2623
X6.0272Y-5.3623
X6.1272Y-5.2623
X6.1272Y-5.3623
X6.2272Y-5.2623
X6.2272Y-5.3623
X6.3272Y-5.2623
X6.3272Y-5.3623
X6.4272Y-5.2623
X6.4272Y-5.3623
X6.5272Y-5.2623
X6.5272Y-5.3623
X6.6272Y-5.2623
X6.6272Y-5.3623
X6.7272Y-5.2623
X6.7272Y-5.3623
X6.8272Y-5.2623
X6.8272Y-5.3623
X6.9272Y-5.2623
X6.9272Y-5.3623
X7.0272Y-5.2623
X7.0272Y-5.3623
X7.1272Y-5.2623
X7.1272Y-5.3623
X7.2272Y-5.2623
X7.2272Y-5.3623
X7.3272Y-5.2623
X7.3272Y-5.3623
X7.4272Y-5.2623
X7.4272Y-5.3623
X7.5272Y-5.2623
X7.5272Y-5.3623
X7.6272Y-5.2623
X7.6272Y-5.3623
X7.7272Y-5.2623
X7.7272Y-5.3623
X7.8272Y-5.2623
X7.8272Y-5.3623
X7.9272Y-5.2623
X7.9272Y-5.3623
X8.0272Y-5.2623
X8.0272Y-5.3623
X8.1272Y-5.2623
X8.1272Y-5.3623
X8.2272Y-5.2623
X8.2272Y-5.3623
X8.3272Y-5.2623
X8.3272Y-5.3623
X8.4272Y-5.2623
X8.4272Y-5.3623
X8.5272Y-5.2623
X8.5272Y-5.3623
X8.6272Y-5.2623
X8.6272Y-5.3623
X8.7272Y-5.2623
X8.7272Y-5.3623
X9.3864Y-2.8706
X9.3864Y-2.9706
X9.3864Y-3.0706
T5
X9.4421Y-3.6347
T6
X9.4421Y-3.4379
X9.4421Y-3.8316
X9.6193Y-3.6347
M30
