%TF.GenerationSoftware,KiCad,Pcbnew,9.0.3*%
%TF.CreationDate,2025-12-15T21:45:09+00:00*%
%TF.ProjectId,TC02Mini,54433032-4d69-46e6-992e-6b696361645f,rev?*%
%TF.SameCoordinates,Original*%
%TF.FileFunction,Drillmap*%
%TF.FilePolarity,Positive*%
%FSLAX45Y45*%
G04 Gerber Fmt 4.5, Leading zero omitted, Abs format (unit mm)*
G04 Created by KiCad (PCBNEW 9.0.3) date 2025-12-15 21:45:09*
%MOMM*%
%LPD*%
G01*
G04 APERTURE LIST*
%ADD10C,0.050000*%
%ADD11C,0.200000*%
G04 APERTURE END LIST*
D10*
X24492450Y-6688997D02*
G75*
G02*
X24654453Y-6851000I0J-162003D01*
G01*
X23169453Y-12948550D02*
G75*
G02*
X23331456Y-12786543I162007J0D01*
G01*
X13969002Y-14112000D02*
X23007450Y-14112000D01*
X13643997Y-12785997D02*
G75*
G02*
X13806003Y-12948000I3J-162003D01*
G01*
X4693550Y-6851003D02*
G75*
G02*
X4855554Y-6689000I162000J3D01*
G01*
X24492450Y-6688997D02*
X4855554Y-6688997D01*
X13968003Y-14112003D02*
G75*
G02*
X13805997Y-13950000I-3J162003D01*
G01*
X13806000Y-12948000D02*
X13806000Y-13950000D01*
X24654453Y-12624544D02*
G75*
G02*
X24492450Y-12786543I-162003J4D01*
G01*
X23169453Y-13949997D02*
X23169453Y-12948550D01*
X4855554Y-12786003D02*
G75*
G02*
X4693547Y-12624000I-4J162003D01*
G01*
X4855550Y-12786003D02*
X13644000Y-12786003D01*
X24654453Y-12624544D02*
X24654453Y-6851000D01*
X23331456Y-12786547D02*
X24492450Y-12786547D01*
X23169453Y-13949997D02*
G75*
G02*
X23007450Y-14112003I-162003J-3D01*
G01*
X4693550Y-6851000D02*
X4693550Y-12624000D01*
D11*
X4951827Y-14425987D02*
X4951827Y-14225987D01*
X4951827Y-14225987D02*
X4999446Y-14225987D01*
X4999446Y-14225987D02*
X5028018Y-14235511D01*
X5028018Y-14235511D02*
X5047065Y-14254558D01*
X5047065Y-14254558D02*
X5056589Y-14273606D01*
X5056589Y-14273606D02*
X5066113Y-14311701D01*
X5066113Y-14311701D02*
X5066113Y-14340273D01*
X5066113Y-14340273D02*
X5056589Y-14378368D01*
X5056589Y-14378368D02*
X5047065Y-14397415D01*
X5047065Y-14397415D02*
X5028018Y-14416463D01*
X5028018Y-14416463D02*
X4999446Y-14425987D01*
X4999446Y-14425987D02*
X4951827Y-14425987D01*
X5151827Y-14425987D02*
X5151827Y-14292653D01*
X5151827Y-14330749D02*
X5161351Y-14311701D01*
X5161351Y-14311701D02*
X5170875Y-14302177D01*
X5170875Y-14302177D02*
X5189922Y-14292653D01*
X5189922Y-14292653D02*
X5208970Y-14292653D01*
X5275637Y-14425987D02*
X5275637Y-14292653D01*
X5275637Y-14225987D02*
X5266113Y-14235511D01*
X5266113Y-14235511D02*
X5275637Y-14245034D01*
X5275637Y-14245034D02*
X5285161Y-14235511D01*
X5285161Y-14235511D02*
X5275637Y-14225987D01*
X5275637Y-14225987D02*
X5275637Y-14245034D01*
X5399446Y-14425987D02*
X5380399Y-14416463D01*
X5380399Y-14416463D02*
X5370875Y-14397415D01*
X5370875Y-14397415D02*
X5370875Y-14225987D01*
X5504208Y-14425987D02*
X5485161Y-14416463D01*
X5485161Y-14416463D02*
X5475637Y-14397415D01*
X5475637Y-14397415D02*
X5475637Y-14225987D01*
X5732780Y-14425987D02*
X5732780Y-14225987D01*
X5732780Y-14225987D02*
X5799446Y-14368844D01*
X5799446Y-14368844D02*
X5866113Y-14225987D01*
X5866113Y-14225987D02*
X5866113Y-14425987D01*
X6047065Y-14425987D02*
X6047065Y-14321225D01*
X6047065Y-14321225D02*
X6037541Y-14302177D01*
X6037541Y-14302177D02*
X6018494Y-14292653D01*
X6018494Y-14292653D02*
X5980399Y-14292653D01*
X5980399Y-14292653D02*
X5961351Y-14302177D01*
X6047065Y-14416463D02*
X6028018Y-14425987D01*
X6028018Y-14425987D02*
X5980399Y-14425987D01*
X5980399Y-14425987D02*
X5961351Y-14416463D01*
X5961351Y-14416463D02*
X5951827Y-14397415D01*
X5951827Y-14397415D02*
X5951827Y-14378368D01*
X5951827Y-14378368D02*
X5961351Y-14359320D01*
X5961351Y-14359320D02*
X5980399Y-14349796D01*
X5980399Y-14349796D02*
X6028018Y-14349796D01*
X6028018Y-14349796D02*
X6047065Y-14340273D01*
X6142303Y-14292653D02*
X6142303Y-14492653D01*
X6142303Y-14302177D02*
X6161351Y-14292653D01*
X6161351Y-14292653D02*
X6199446Y-14292653D01*
X6199446Y-14292653D02*
X6218494Y-14302177D01*
X6218494Y-14302177D02*
X6228018Y-14311701D01*
X6228018Y-14311701D02*
X6237541Y-14330749D01*
X6237541Y-14330749D02*
X6237541Y-14387892D01*
X6237541Y-14387892D02*
X6228018Y-14406939D01*
X6228018Y-14406939D02*
X6218494Y-14416463D01*
X6218494Y-14416463D02*
X6199446Y-14425987D01*
X6199446Y-14425987D02*
X6161351Y-14425987D01*
X6161351Y-14425987D02*
X6142303Y-14416463D01*
X6323256Y-14406939D02*
X6332780Y-14416463D01*
X6332780Y-14416463D02*
X6323256Y-14425987D01*
X6323256Y-14425987D02*
X6313732Y-14416463D01*
X6313732Y-14416463D02*
X6323256Y-14406939D01*
X6323256Y-14406939D02*
X6323256Y-14425987D01*
X6323256Y-14302177D02*
X6332780Y-14311701D01*
X6332780Y-14311701D02*
X6323256Y-14321225D01*
X6323256Y-14321225D02*
X6313732Y-14311701D01*
X6313732Y-14311701D02*
X6323256Y-14302177D01*
X6323256Y-14302177D02*
X6323256Y-14321225D01*
M02*
