%TF.GenerationSoftware,KiCad,Pcbnew,9.0.3*%
%TF.CreationDate,2025-12-15T21:45:11+00:00*%
%TF.ProjectId,TC02Mini,54433032-4d69-46e6-992e-6b696361645f,rev?*%
%TF.SameCoordinates,Original*%
%TF.FileFunction,Legend,Top*%
%TF.FilePolarity,Positive*%
%FSLAX46Y46*%
G04 Gerber Fmt 4.6, Leading zero omitted, Abs format (unit mm)*
G04 Created by KiCad (PCBNEW 9.0.3) date 2025-12-15 21:45:11*
%MOMM*%
%LPD*%
G01*
G04 APERTURE LIST*
%ADD10C,0.300000*%
%ADD11C,0.150000*%
%ADD12C,0.000000*%
%ADD13C,0.100000*%
G04 APERTURE END LIST*
D10*
X237390000Y-81352500D02*
X244490000Y-81352500D01*
X244490000Y-83752500D01*
X237390000Y-83752500D01*
X237390000Y-81352500D01*
X68874510Y-107190198D02*
X69374510Y-107190198D01*
X69588796Y-107975912D02*
X68874510Y-107975912D01*
X68874510Y-107975912D02*
X68874510Y-106475912D01*
X68874510Y-106475912D02*
X69588796Y-106475912D01*
X70231653Y-107975912D02*
X70231653Y-106975912D01*
X70231653Y-106475912D02*
X70160225Y-106547341D01*
X70160225Y-106547341D02*
X70231653Y-106618769D01*
X70231653Y-106618769D02*
X70303082Y-106547341D01*
X70303082Y-106547341D02*
X70231653Y-106475912D01*
X70231653Y-106475912D02*
X70231653Y-106618769D01*
X70945939Y-106975912D02*
X70945939Y-107975912D01*
X70945939Y-107118769D02*
X71017368Y-107047341D01*
X71017368Y-107047341D02*
X71160225Y-106975912D01*
X71160225Y-106975912D02*
X71374511Y-106975912D01*
X71374511Y-106975912D02*
X71517368Y-107047341D01*
X71517368Y-107047341D02*
X71588797Y-107190198D01*
X71588797Y-107190198D02*
X71588797Y-107975912D01*
X72231654Y-107904484D02*
X72374511Y-107975912D01*
X72374511Y-107975912D02*
X72660225Y-107975912D01*
X72660225Y-107975912D02*
X72803082Y-107904484D01*
X72803082Y-107904484D02*
X72874511Y-107761626D01*
X72874511Y-107761626D02*
X72874511Y-107690198D01*
X72874511Y-107690198D02*
X72803082Y-107547341D01*
X72803082Y-107547341D02*
X72660225Y-107475912D01*
X72660225Y-107475912D02*
X72445940Y-107475912D01*
X72445940Y-107475912D02*
X72303082Y-107404484D01*
X72303082Y-107404484D02*
X72231654Y-107261626D01*
X72231654Y-107261626D02*
X72231654Y-107190198D01*
X72231654Y-107190198D02*
X72303082Y-107047341D01*
X72303082Y-107047341D02*
X72445940Y-106975912D01*
X72445940Y-106975912D02*
X72660225Y-106975912D01*
X72660225Y-106975912D02*
X72803082Y-107047341D01*
X73303083Y-106975912D02*
X73874511Y-106975912D01*
X73517368Y-106475912D02*
X73517368Y-107761626D01*
X73517368Y-107761626D02*
X73588797Y-107904484D01*
X73588797Y-107904484D02*
X73731654Y-107975912D01*
X73731654Y-107975912D02*
X73874511Y-107975912D01*
X74945940Y-107904484D02*
X74803083Y-107975912D01*
X74803083Y-107975912D02*
X74517369Y-107975912D01*
X74517369Y-107975912D02*
X74374511Y-107904484D01*
X74374511Y-107904484D02*
X74303083Y-107761626D01*
X74303083Y-107761626D02*
X74303083Y-107190198D01*
X74303083Y-107190198D02*
X74374511Y-107047341D01*
X74374511Y-107047341D02*
X74517369Y-106975912D01*
X74517369Y-106975912D02*
X74803083Y-106975912D01*
X74803083Y-106975912D02*
X74945940Y-107047341D01*
X74945940Y-107047341D02*
X75017369Y-107190198D01*
X75017369Y-107190198D02*
X75017369Y-107333055D01*
X75017369Y-107333055D02*
X74303083Y-107475912D01*
X75660225Y-107975912D02*
X75660225Y-106975912D01*
X75660225Y-106475912D02*
X75588797Y-106547341D01*
X75588797Y-106547341D02*
X75660225Y-106618769D01*
X75660225Y-106618769D02*
X75731654Y-106547341D01*
X75731654Y-106547341D02*
X75660225Y-106475912D01*
X75660225Y-106475912D02*
X75660225Y-106618769D01*
X76374511Y-106975912D02*
X76374511Y-107975912D01*
X76374511Y-107118769D02*
X76445940Y-107047341D01*
X76445940Y-107047341D02*
X76588797Y-106975912D01*
X76588797Y-106975912D02*
X76803083Y-106975912D01*
X76803083Y-106975912D02*
X76945940Y-107047341D01*
X76945940Y-107047341D02*
X77017369Y-107190198D01*
X77017369Y-107190198D02*
X77017369Y-107975912D01*
X78660226Y-106475912D02*
X79517369Y-106475912D01*
X79088797Y-107975912D02*
X79088797Y-106475912D01*
X80874511Y-107833055D02*
X80803083Y-107904484D01*
X80803083Y-107904484D02*
X80588797Y-107975912D01*
X80588797Y-107975912D02*
X80445940Y-107975912D01*
X80445940Y-107975912D02*
X80231654Y-107904484D01*
X80231654Y-107904484D02*
X80088797Y-107761626D01*
X80088797Y-107761626D02*
X80017368Y-107618769D01*
X80017368Y-107618769D02*
X79945940Y-107333055D01*
X79945940Y-107333055D02*
X79945940Y-107118769D01*
X79945940Y-107118769D02*
X80017368Y-106833055D01*
X80017368Y-106833055D02*
X80088797Y-106690198D01*
X80088797Y-106690198D02*
X80231654Y-106547341D01*
X80231654Y-106547341D02*
X80445940Y-106475912D01*
X80445940Y-106475912D02*
X80588797Y-106475912D01*
X80588797Y-106475912D02*
X80803083Y-106547341D01*
X80803083Y-106547341D02*
X80874511Y-106618769D01*
X81517368Y-107404484D02*
X82660226Y-107404484D01*
X83660226Y-106475912D02*
X83803083Y-106475912D01*
X83803083Y-106475912D02*
X83945940Y-106547341D01*
X83945940Y-106547341D02*
X84017369Y-106618769D01*
X84017369Y-106618769D02*
X84088797Y-106761626D01*
X84088797Y-106761626D02*
X84160226Y-107047341D01*
X84160226Y-107047341D02*
X84160226Y-107404484D01*
X84160226Y-107404484D02*
X84088797Y-107690198D01*
X84088797Y-107690198D02*
X84017369Y-107833055D01*
X84017369Y-107833055D02*
X83945940Y-107904484D01*
X83945940Y-107904484D02*
X83803083Y-107975912D01*
X83803083Y-107975912D02*
X83660226Y-107975912D01*
X83660226Y-107975912D02*
X83517369Y-107904484D01*
X83517369Y-107904484D02*
X83445940Y-107833055D01*
X83445940Y-107833055D02*
X83374511Y-107690198D01*
X83374511Y-107690198D02*
X83303083Y-107404484D01*
X83303083Y-107404484D02*
X83303083Y-107047341D01*
X83303083Y-107047341D02*
X83374511Y-106761626D01*
X83374511Y-106761626D02*
X83445940Y-106618769D01*
X83445940Y-106618769D02*
X83517369Y-106547341D01*
X83517369Y-106547341D02*
X83660226Y-106475912D01*
X84731654Y-106618769D02*
X84803082Y-106547341D01*
X84803082Y-106547341D02*
X84945940Y-106475912D01*
X84945940Y-106475912D02*
X85303082Y-106475912D01*
X85303082Y-106475912D02*
X85445940Y-106547341D01*
X85445940Y-106547341D02*
X85517368Y-106618769D01*
X85517368Y-106618769D02*
X85588797Y-106761626D01*
X85588797Y-106761626D02*
X85588797Y-106904484D01*
X85588797Y-106904484D02*
X85517368Y-107118769D01*
X85517368Y-107118769D02*
X84660225Y-107975912D01*
X84660225Y-107975912D02*
X85588797Y-107975912D01*
X86231653Y-107975912D02*
X86231653Y-106475912D01*
X86231653Y-106475912D02*
X86731653Y-107547341D01*
X86731653Y-107547341D02*
X87231653Y-106475912D01*
X87231653Y-106475912D02*
X87231653Y-107975912D01*
X87945939Y-107975912D02*
X87945939Y-106975912D01*
X87945939Y-106475912D02*
X87874511Y-106547341D01*
X87874511Y-106547341D02*
X87945939Y-106618769D01*
X87945939Y-106618769D02*
X88017368Y-106547341D01*
X88017368Y-106547341D02*
X87945939Y-106475912D01*
X87945939Y-106475912D02*
X87945939Y-106618769D01*
X88660225Y-106975912D02*
X88660225Y-107975912D01*
X88660225Y-107118769D02*
X88731654Y-107047341D01*
X88731654Y-107047341D02*
X88874511Y-106975912D01*
X88874511Y-106975912D02*
X89088797Y-106975912D01*
X89088797Y-106975912D02*
X89231654Y-107047341D01*
X89231654Y-107047341D02*
X89303083Y-107190198D01*
X89303083Y-107190198D02*
X89303083Y-107975912D01*
X90017368Y-107975912D02*
X90017368Y-106975912D01*
X90017368Y-106475912D02*
X89945940Y-106547341D01*
X89945940Y-106547341D02*
X90017368Y-106618769D01*
X90017368Y-106618769D02*
X90088797Y-106547341D01*
X90088797Y-106547341D02*
X90017368Y-106475912D01*
X90017368Y-106475912D02*
X90017368Y-106618769D01*
X69088796Y-109533685D02*
X68945939Y-109462257D01*
X68945939Y-109462257D02*
X68874510Y-109390828D01*
X68874510Y-109390828D02*
X68803082Y-109247971D01*
X68803082Y-109247971D02*
X68803082Y-109176542D01*
X68803082Y-109176542D02*
X68874510Y-109033685D01*
X68874510Y-109033685D02*
X68945939Y-108962257D01*
X68945939Y-108962257D02*
X69088796Y-108890828D01*
X69088796Y-108890828D02*
X69374510Y-108890828D01*
X69374510Y-108890828D02*
X69517368Y-108962257D01*
X69517368Y-108962257D02*
X69588796Y-109033685D01*
X69588796Y-109033685D02*
X69660225Y-109176542D01*
X69660225Y-109176542D02*
X69660225Y-109247971D01*
X69660225Y-109247971D02*
X69588796Y-109390828D01*
X69588796Y-109390828D02*
X69517368Y-109462257D01*
X69517368Y-109462257D02*
X69374510Y-109533685D01*
X69374510Y-109533685D02*
X69088796Y-109533685D01*
X69088796Y-109533685D02*
X68945939Y-109605114D01*
X68945939Y-109605114D02*
X68874510Y-109676542D01*
X68874510Y-109676542D02*
X68803082Y-109819400D01*
X68803082Y-109819400D02*
X68803082Y-110105114D01*
X68803082Y-110105114D02*
X68874510Y-110247971D01*
X68874510Y-110247971D02*
X68945939Y-110319400D01*
X68945939Y-110319400D02*
X69088796Y-110390828D01*
X69088796Y-110390828D02*
X69374510Y-110390828D01*
X69374510Y-110390828D02*
X69517368Y-110319400D01*
X69517368Y-110319400D02*
X69588796Y-110247971D01*
X69588796Y-110247971D02*
X69660225Y-110105114D01*
X69660225Y-110105114D02*
X69660225Y-109819400D01*
X69660225Y-109819400D02*
X69588796Y-109676542D01*
X69588796Y-109676542D02*
X69517368Y-109605114D01*
X69517368Y-109605114D02*
X69374510Y-109533685D01*
X70588796Y-108890828D02*
X70731653Y-108890828D01*
X70731653Y-108890828D02*
X70874510Y-108962257D01*
X70874510Y-108962257D02*
X70945939Y-109033685D01*
X70945939Y-109033685D02*
X71017367Y-109176542D01*
X71017367Y-109176542D02*
X71088796Y-109462257D01*
X71088796Y-109462257D02*
X71088796Y-109819400D01*
X71088796Y-109819400D02*
X71017367Y-110105114D01*
X71017367Y-110105114D02*
X70945939Y-110247971D01*
X70945939Y-110247971D02*
X70874510Y-110319400D01*
X70874510Y-110319400D02*
X70731653Y-110390828D01*
X70731653Y-110390828D02*
X70588796Y-110390828D01*
X70588796Y-110390828D02*
X70445939Y-110319400D01*
X70445939Y-110319400D02*
X70374510Y-110247971D01*
X70374510Y-110247971D02*
X70303081Y-110105114D01*
X70303081Y-110105114D02*
X70231653Y-109819400D01*
X70231653Y-109819400D02*
X70231653Y-109462257D01*
X70231653Y-109462257D02*
X70303081Y-109176542D01*
X70303081Y-109176542D02*
X70374510Y-109033685D01*
X70374510Y-109033685D02*
X70445939Y-108962257D01*
X70445939Y-108962257D02*
X70588796Y-108890828D01*
X73731652Y-110247971D02*
X73660224Y-110319400D01*
X73660224Y-110319400D02*
X73445938Y-110390828D01*
X73445938Y-110390828D02*
X73303081Y-110390828D01*
X73303081Y-110390828D02*
X73088795Y-110319400D01*
X73088795Y-110319400D02*
X72945938Y-110176542D01*
X72945938Y-110176542D02*
X72874509Y-110033685D01*
X72874509Y-110033685D02*
X72803081Y-109747971D01*
X72803081Y-109747971D02*
X72803081Y-109533685D01*
X72803081Y-109533685D02*
X72874509Y-109247971D01*
X72874509Y-109247971D02*
X72945938Y-109105114D01*
X72945938Y-109105114D02*
X73088795Y-108962257D01*
X73088795Y-108962257D02*
X73303081Y-108890828D01*
X73303081Y-108890828D02*
X73445938Y-108890828D01*
X73445938Y-108890828D02*
X73660224Y-108962257D01*
X73660224Y-108962257D02*
X73731652Y-109033685D01*
X74588795Y-110390828D02*
X74445938Y-110319400D01*
X74445938Y-110319400D02*
X74374509Y-110247971D01*
X74374509Y-110247971D02*
X74303081Y-110105114D01*
X74303081Y-110105114D02*
X74303081Y-109676542D01*
X74303081Y-109676542D02*
X74374509Y-109533685D01*
X74374509Y-109533685D02*
X74445938Y-109462257D01*
X74445938Y-109462257D02*
X74588795Y-109390828D01*
X74588795Y-109390828D02*
X74803081Y-109390828D01*
X74803081Y-109390828D02*
X74945938Y-109462257D01*
X74945938Y-109462257D02*
X75017367Y-109533685D01*
X75017367Y-109533685D02*
X75088795Y-109676542D01*
X75088795Y-109676542D02*
X75088795Y-110105114D01*
X75088795Y-110105114D02*
X75017367Y-110247971D01*
X75017367Y-110247971D02*
X74945938Y-110319400D01*
X74945938Y-110319400D02*
X74803081Y-110390828D01*
X74803081Y-110390828D02*
X74588795Y-110390828D01*
X75945938Y-110390828D02*
X75803081Y-110319400D01*
X75803081Y-110319400D02*
X75731652Y-110176542D01*
X75731652Y-110176542D02*
X75731652Y-108890828D01*
X77160224Y-109390828D02*
X77160224Y-110390828D01*
X76517366Y-109390828D02*
X76517366Y-110176542D01*
X76517366Y-110176542D02*
X76588795Y-110319400D01*
X76588795Y-110319400D02*
X76731652Y-110390828D01*
X76731652Y-110390828D02*
X76945938Y-110390828D01*
X76945938Y-110390828D02*
X77088795Y-110319400D01*
X77088795Y-110319400D02*
X77160224Y-110247971D01*
X77874509Y-110390828D02*
X77874509Y-109390828D01*
X77874509Y-109533685D02*
X77945938Y-109462257D01*
X77945938Y-109462257D02*
X78088795Y-109390828D01*
X78088795Y-109390828D02*
X78303081Y-109390828D01*
X78303081Y-109390828D02*
X78445938Y-109462257D01*
X78445938Y-109462257D02*
X78517367Y-109605114D01*
X78517367Y-109605114D02*
X78517367Y-110390828D01*
X78517367Y-109605114D02*
X78588795Y-109462257D01*
X78588795Y-109462257D02*
X78731652Y-109390828D01*
X78731652Y-109390828D02*
X78945938Y-109390828D01*
X78945938Y-109390828D02*
X79088795Y-109462257D01*
X79088795Y-109462257D02*
X79160224Y-109605114D01*
X79160224Y-109605114D02*
X79160224Y-110390828D01*
X79874509Y-109390828D02*
X79874509Y-110390828D01*
X79874509Y-109533685D02*
X79945938Y-109462257D01*
X79945938Y-109462257D02*
X80088795Y-109390828D01*
X80088795Y-109390828D02*
X80303081Y-109390828D01*
X80303081Y-109390828D02*
X80445938Y-109462257D01*
X80445938Y-109462257D02*
X80517367Y-109605114D01*
X80517367Y-109605114D02*
X80517367Y-110390828D01*
X82303081Y-109962257D02*
X83017367Y-109962257D01*
X82160224Y-110390828D02*
X82660224Y-108890828D01*
X82660224Y-108890828D02*
X83160224Y-110390828D01*
X84303081Y-110390828D02*
X84303081Y-108890828D01*
X84303081Y-110319400D02*
X84160223Y-110390828D01*
X84160223Y-110390828D02*
X83874509Y-110390828D01*
X83874509Y-110390828D02*
X83731652Y-110319400D01*
X83731652Y-110319400D02*
X83660223Y-110247971D01*
X83660223Y-110247971D02*
X83588795Y-110105114D01*
X83588795Y-110105114D02*
X83588795Y-109676542D01*
X83588795Y-109676542D02*
X83660223Y-109533685D01*
X83660223Y-109533685D02*
X83731652Y-109462257D01*
X83731652Y-109462257D02*
X83874509Y-109390828D01*
X83874509Y-109390828D02*
X84160223Y-109390828D01*
X84160223Y-109390828D02*
X84303081Y-109462257D01*
X85660224Y-110390828D02*
X85660224Y-109605114D01*
X85660224Y-109605114D02*
X85588795Y-109462257D01*
X85588795Y-109462257D02*
X85445938Y-109390828D01*
X85445938Y-109390828D02*
X85160224Y-109390828D01*
X85160224Y-109390828D02*
X85017366Y-109462257D01*
X85660224Y-110319400D02*
X85517366Y-110390828D01*
X85517366Y-110390828D02*
X85160224Y-110390828D01*
X85160224Y-110390828D02*
X85017366Y-110319400D01*
X85017366Y-110319400D02*
X84945938Y-110176542D01*
X84945938Y-110176542D02*
X84945938Y-110033685D01*
X84945938Y-110033685D02*
X85017366Y-109890828D01*
X85017366Y-109890828D02*
X85160224Y-109819400D01*
X85160224Y-109819400D02*
X85517366Y-109819400D01*
X85517366Y-109819400D02*
X85660224Y-109747971D01*
X86374509Y-109390828D02*
X86374509Y-110890828D01*
X86374509Y-109462257D02*
X86517367Y-109390828D01*
X86517367Y-109390828D02*
X86803081Y-109390828D01*
X86803081Y-109390828D02*
X86945938Y-109462257D01*
X86945938Y-109462257D02*
X87017367Y-109533685D01*
X87017367Y-109533685D02*
X87088795Y-109676542D01*
X87088795Y-109676542D02*
X87088795Y-110105114D01*
X87088795Y-110105114D02*
X87017367Y-110247971D01*
X87017367Y-110247971D02*
X86945938Y-110319400D01*
X86945938Y-110319400D02*
X86803081Y-110390828D01*
X86803081Y-110390828D02*
X86517367Y-110390828D01*
X86517367Y-110390828D02*
X86374509Y-110319400D01*
X87517367Y-109390828D02*
X88088795Y-109390828D01*
X87731652Y-108890828D02*
X87731652Y-110176542D01*
X87731652Y-110176542D02*
X87803081Y-110319400D01*
X87803081Y-110319400D02*
X87945938Y-110390828D01*
X87945938Y-110390828D02*
X88088795Y-110390828D01*
X89160224Y-110319400D02*
X89017367Y-110390828D01*
X89017367Y-110390828D02*
X88731653Y-110390828D01*
X88731653Y-110390828D02*
X88588795Y-110319400D01*
X88588795Y-110319400D02*
X88517367Y-110176542D01*
X88517367Y-110176542D02*
X88517367Y-109605114D01*
X88517367Y-109605114D02*
X88588795Y-109462257D01*
X88588795Y-109462257D02*
X88731653Y-109390828D01*
X88731653Y-109390828D02*
X89017367Y-109390828D01*
X89017367Y-109390828D02*
X89160224Y-109462257D01*
X89160224Y-109462257D02*
X89231653Y-109605114D01*
X89231653Y-109605114D02*
X89231653Y-109747971D01*
X89231653Y-109747971D02*
X88517367Y-109890828D01*
X89874509Y-110390828D02*
X89874509Y-109390828D01*
X89874509Y-109676542D02*
X89945938Y-109533685D01*
X89945938Y-109533685D02*
X90017367Y-109462257D01*
X90017367Y-109462257D02*
X90160224Y-109390828D01*
X90160224Y-109390828D02*
X90303081Y-109390828D01*
X91803080Y-109390828D02*
X92160223Y-110390828D01*
X92160223Y-110390828D02*
X92517366Y-109390828D01*
X93874509Y-110390828D02*
X93017366Y-110390828D01*
X93445937Y-110390828D02*
X93445937Y-108890828D01*
X93445937Y-108890828D02*
X93303080Y-109105114D01*
X93303080Y-109105114D02*
X93160223Y-109247971D01*
X93160223Y-109247971D02*
X93017366Y-109319400D01*
X236824510Y-84849400D02*
X237967368Y-84849400D01*
X237395939Y-85420828D02*
X237395939Y-84277971D01*
X94805714Y-71128328D02*
X94805714Y-69628328D01*
X95734286Y-70271185D02*
X95591429Y-70199757D01*
X95591429Y-70199757D02*
X95520000Y-70128328D01*
X95520000Y-70128328D02*
X95448572Y-69985471D01*
X95448572Y-69985471D02*
X95448572Y-69914042D01*
X95448572Y-69914042D02*
X95520000Y-69771185D01*
X95520000Y-69771185D02*
X95591429Y-69699757D01*
X95591429Y-69699757D02*
X95734286Y-69628328D01*
X95734286Y-69628328D02*
X96020000Y-69628328D01*
X96020000Y-69628328D02*
X96162858Y-69699757D01*
X96162858Y-69699757D02*
X96234286Y-69771185D01*
X96234286Y-69771185D02*
X96305715Y-69914042D01*
X96305715Y-69914042D02*
X96305715Y-69985471D01*
X96305715Y-69985471D02*
X96234286Y-70128328D01*
X96234286Y-70128328D02*
X96162858Y-70199757D01*
X96162858Y-70199757D02*
X96020000Y-70271185D01*
X96020000Y-70271185D02*
X95734286Y-70271185D01*
X95734286Y-70271185D02*
X95591429Y-70342614D01*
X95591429Y-70342614D02*
X95520000Y-70414042D01*
X95520000Y-70414042D02*
X95448572Y-70556900D01*
X95448572Y-70556900D02*
X95448572Y-70842614D01*
X95448572Y-70842614D02*
X95520000Y-70985471D01*
X95520000Y-70985471D02*
X95591429Y-71056900D01*
X95591429Y-71056900D02*
X95734286Y-71128328D01*
X95734286Y-71128328D02*
X96020000Y-71128328D01*
X96020000Y-71128328D02*
X96162858Y-71056900D01*
X96162858Y-71056900D02*
X96234286Y-70985471D01*
X96234286Y-70985471D02*
X96305715Y-70842614D01*
X96305715Y-70842614D02*
X96305715Y-70556900D01*
X96305715Y-70556900D02*
X96234286Y-70414042D01*
X96234286Y-70414042D02*
X96162858Y-70342614D01*
X96162858Y-70342614D02*
X96020000Y-70271185D01*
D11*
X101292143Y-76074819D02*
X101958809Y-76074819D01*
X101958809Y-76074819D02*
X101530238Y-77074819D01*
X102768333Y-76408152D02*
X102768333Y-77074819D01*
X102530238Y-76027200D02*
X102292143Y-76741485D01*
X102292143Y-76741485D02*
X102911190Y-76741485D01*
X103768333Y-77074819D02*
X103292143Y-77074819D01*
X103292143Y-77074819D02*
X103292143Y-76074819D01*
X104054048Y-77027200D02*
X104196905Y-77074819D01*
X104196905Y-77074819D02*
X104435000Y-77074819D01*
X104435000Y-77074819D02*
X104530238Y-77027200D01*
X104530238Y-77027200D02*
X104577857Y-76979580D01*
X104577857Y-76979580D02*
X104625476Y-76884342D01*
X104625476Y-76884342D02*
X104625476Y-76789104D01*
X104625476Y-76789104D02*
X104577857Y-76693866D01*
X104577857Y-76693866D02*
X104530238Y-76646247D01*
X104530238Y-76646247D02*
X104435000Y-76598628D01*
X104435000Y-76598628D02*
X104244524Y-76551009D01*
X104244524Y-76551009D02*
X104149286Y-76503390D01*
X104149286Y-76503390D02*
X104101667Y-76455771D01*
X104101667Y-76455771D02*
X104054048Y-76360533D01*
X104054048Y-76360533D02*
X104054048Y-76265295D01*
X104054048Y-76265295D02*
X104101667Y-76170057D01*
X104101667Y-76170057D02*
X104149286Y-76122438D01*
X104149286Y-76122438D02*
X104244524Y-76074819D01*
X104244524Y-76074819D02*
X104482619Y-76074819D01*
X104482619Y-76074819D02*
X104625476Y-76122438D01*
X105196905Y-76503390D02*
X105101667Y-76455771D01*
X105101667Y-76455771D02*
X105054048Y-76408152D01*
X105054048Y-76408152D02*
X105006429Y-76312914D01*
X105006429Y-76312914D02*
X105006429Y-76265295D01*
X105006429Y-76265295D02*
X105054048Y-76170057D01*
X105054048Y-76170057D02*
X105101667Y-76122438D01*
X105101667Y-76122438D02*
X105196905Y-76074819D01*
X105196905Y-76074819D02*
X105387381Y-76074819D01*
X105387381Y-76074819D02*
X105482619Y-76122438D01*
X105482619Y-76122438D02*
X105530238Y-76170057D01*
X105530238Y-76170057D02*
X105577857Y-76265295D01*
X105577857Y-76265295D02*
X105577857Y-76312914D01*
X105577857Y-76312914D02*
X105530238Y-76408152D01*
X105530238Y-76408152D02*
X105482619Y-76455771D01*
X105482619Y-76455771D02*
X105387381Y-76503390D01*
X105387381Y-76503390D02*
X105196905Y-76503390D01*
X105196905Y-76503390D02*
X105101667Y-76551009D01*
X105101667Y-76551009D02*
X105054048Y-76598628D01*
X105054048Y-76598628D02*
X105006429Y-76693866D01*
X105006429Y-76693866D02*
X105006429Y-76884342D01*
X105006429Y-76884342D02*
X105054048Y-76979580D01*
X105054048Y-76979580D02*
X105101667Y-77027200D01*
X105101667Y-77027200D02*
X105196905Y-77074819D01*
X105196905Y-77074819D02*
X105387381Y-77074819D01*
X105387381Y-77074819D02*
X105482619Y-77027200D01*
X105482619Y-77027200D02*
X105530238Y-76979580D01*
X105530238Y-76979580D02*
X105577857Y-76884342D01*
X105577857Y-76884342D02*
X105577857Y-76693866D01*
X105577857Y-76693866D02*
X105530238Y-76598628D01*
X105530238Y-76598628D02*
X105482619Y-76551009D01*
X105482619Y-76551009D02*
X105387381Y-76503390D01*
X106435000Y-76074819D02*
X106244524Y-76074819D01*
X106244524Y-76074819D02*
X106149286Y-76122438D01*
X106149286Y-76122438D02*
X106101667Y-76170057D01*
X106101667Y-76170057D02*
X106006429Y-76312914D01*
X106006429Y-76312914D02*
X105958810Y-76503390D01*
X105958810Y-76503390D02*
X105958810Y-76884342D01*
X105958810Y-76884342D02*
X106006429Y-76979580D01*
X106006429Y-76979580D02*
X106054048Y-77027200D01*
X106054048Y-77027200D02*
X106149286Y-77074819D01*
X106149286Y-77074819D02*
X106339762Y-77074819D01*
X106339762Y-77074819D02*
X106435000Y-77027200D01*
X106435000Y-77027200D02*
X106482619Y-76979580D01*
X106482619Y-76979580D02*
X106530238Y-76884342D01*
X106530238Y-76884342D02*
X106530238Y-76646247D01*
X106530238Y-76646247D02*
X106482619Y-76551009D01*
X106482619Y-76551009D02*
X106435000Y-76503390D01*
X106435000Y-76503390D02*
X106339762Y-76455771D01*
X106339762Y-76455771D02*
X106149286Y-76455771D01*
X106149286Y-76455771D02*
X106054048Y-76503390D01*
X106054048Y-76503390D02*
X106006429Y-76551009D01*
X106006429Y-76551009D02*
X105958810Y-76646247D01*
D10*
X49868971Y-103764285D02*
X49940400Y-103835713D01*
X49940400Y-103835713D02*
X50011828Y-104049999D01*
X50011828Y-104049999D02*
X50011828Y-104192856D01*
X50011828Y-104192856D02*
X49940400Y-104407142D01*
X49940400Y-104407142D02*
X49797542Y-104549999D01*
X49797542Y-104549999D02*
X49654685Y-104621428D01*
X49654685Y-104621428D02*
X49368971Y-104692856D01*
X49368971Y-104692856D02*
X49154685Y-104692856D01*
X49154685Y-104692856D02*
X48868971Y-104621428D01*
X48868971Y-104621428D02*
X48726114Y-104549999D01*
X48726114Y-104549999D02*
X48583257Y-104407142D01*
X48583257Y-104407142D02*
X48511828Y-104192856D01*
X48511828Y-104192856D02*
X48511828Y-104049999D01*
X48511828Y-104049999D02*
X48583257Y-103835713D01*
X48583257Y-103835713D02*
X48654685Y-103764285D01*
X49011828Y-102478571D02*
X50011828Y-102478571D01*
X48440400Y-102835713D02*
X49511828Y-103192856D01*
X49511828Y-103192856D02*
X49511828Y-102264285D01*
X48511828Y-101835714D02*
X48511828Y-100835714D01*
X48511828Y-100835714D02*
X50011828Y-101478571D01*
X115451471Y-103624285D02*
X115522900Y-103695713D01*
X115522900Y-103695713D02*
X115594328Y-103909999D01*
X115594328Y-103909999D02*
X115594328Y-104052856D01*
X115594328Y-104052856D02*
X115522900Y-104267142D01*
X115522900Y-104267142D02*
X115380042Y-104409999D01*
X115380042Y-104409999D02*
X115237185Y-104481428D01*
X115237185Y-104481428D02*
X114951471Y-104552856D01*
X114951471Y-104552856D02*
X114737185Y-104552856D01*
X114737185Y-104552856D02*
X114451471Y-104481428D01*
X114451471Y-104481428D02*
X114308614Y-104409999D01*
X114308614Y-104409999D02*
X114165757Y-104267142D01*
X114165757Y-104267142D02*
X114094328Y-104052856D01*
X114094328Y-104052856D02*
X114094328Y-103909999D01*
X114094328Y-103909999D02*
X114165757Y-103695713D01*
X114165757Y-103695713D02*
X114237185Y-103624285D01*
X114594328Y-102338571D02*
X115594328Y-102338571D01*
X114022900Y-102695713D02*
X115094328Y-103052856D01*
X115094328Y-103052856D02*
X115094328Y-102124285D01*
X114237185Y-101624285D02*
X114165757Y-101552857D01*
X114165757Y-101552857D02*
X114094328Y-101410000D01*
X114094328Y-101410000D02*
X114094328Y-101052857D01*
X114094328Y-101052857D02*
X114165757Y-100910000D01*
X114165757Y-100910000D02*
X114237185Y-100838571D01*
X114237185Y-100838571D02*
X114380042Y-100767142D01*
X114380042Y-100767142D02*
X114522900Y-100767142D01*
X114522900Y-100767142D02*
X114737185Y-100838571D01*
X114737185Y-100838571D02*
X115594328Y-101695714D01*
X115594328Y-101695714D02*
X115594328Y-100767142D01*
X237170714Y-71050828D02*
X237170714Y-69550828D01*
X237170714Y-69550828D02*
X237670714Y-70622257D01*
X237670714Y-70622257D02*
X238170714Y-69550828D01*
X238170714Y-69550828D02*
X238170714Y-71050828D01*
X239527858Y-70050828D02*
X239527858Y-71050828D01*
X239170715Y-69479400D02*
X238813572Y-70550828D01*
X238813572Y-70550828D02*
X239742143Y-70550828D01*
X76500000Y-86635471D02*
X76428572Y-86706900D01*
X76428572Y-86706900D02*
X76214286Y-86778328D01*
X76214286Y-86778328D02*
X76071429Y-86778328D01*
X76071429Y-86778328D02*
X75857143Y-86706900D01*
X75857143Y-86706900D02*
X75714286Y-86564042D01*
X75714286Y-86564042D02*
X75642857Y-86421185D01*
X75642857Y-86421185D02*
X75571429Y-86135471D01*
X75571429Y-86135471D02*
X75571429Y-85921185D01*
X75571429Y-85921185D02*
X75642857Y-85635471D01*
X75642857Y-85635471D02*
X75714286Y-85492614D01*
X75714286Y-85492614D02*
X75857143Y-85349757D01*
X75857143Y-85349757D02*
X76071429Y-85278328D01*
X76071429Y-85278328D02*
X76214286Y-85278328D01*
X76214286Y-85278328D02*
X76428572Y-85349757D01*
X76428572Y-85349757D02*
X76500000Y-85421185D01*
X77357143Y-85921185D02*
X77214286Y-85849757D01*
X77214286Y-85849757D02*
X77142857Y-85778328D01*
X77142857Y-85778328D02*
X77071429Y-85635471D01*
X77071429Y-85635471D02*
X77071429Y-85564042D01*
X77071429Y-85564042D02*
X77142857Y-85421185D01*
X77142857Y-85421185D02*
X77214286Y-85349757D01*
X77214286Y-85349757D02*
X77357143Y-85278328D01*
X77357143Y-85278328D02*
X77642857Y-85278328D01*
X77642857Y-85278328D02*
X77785715Y-85349757D01*
X77785715Y-85349757D02*
X77857143Y-85421185D01*
X77857143Y-85421185D02*
X77928572Y-85564042D01*
X77928572Y-85564042D02*
X77928572Y-85635471D01*
X77928572Y-85635471D02*
X77857143Y-85778328D01*
X77857143Y-85778328D02*
X77785715Y-85849757D01*
X77785715Y-85849757D02*
X77642857Y-85921185D01*
X77642857Y-85921185D02*
X77357143Y-85921185D01*
X77357143Y-85921185D02*
X77214286Y-85992614D01*
X77214286Y-85992614D02*
X77142857Y-86064042D01*
X77142857Y-86064042D02*
X77071429Y-86206900D01*
X77071429Y-86206900D02*
X77071429Y-86492614D01*
X77071429Y-86492614D02*
X77142857Y-86635471D01*
X77142857Y-86635471D02*
X77214286Y-86706900D01*
X77214286Y-86706900D02*
X77357143Y-86778328D01*
X77357143Y-86778328D02*
X77642857Y-86778328D01*
X77642857Y-86778328D02*
X77785715Y-86706900D01*
X77785715Y-86706900D02*
X77857143Y-86635471D01*
X77857143Y-86635471D02*
X77928572Y-86492614D01*
X77928572Y-86492614D02*
X77928572Y-86206900D01*
X77928572Y-86206900D02*
X77857143Y-86064042D01*
X77857143Y-86064042D02*
X77785715Y-85992614D01*
X77785715Y-85992614D02*
X77642857Y-85921185D01*
X177985714Y-107347971D02*
X177914286Y-107419400D01*
X177914286Y-107419400D02*
X177700000Y-107490828D01*
X177700000Y-107490828D02*
X177557143Y-107490828D01*
X177557143Y-107490828D02*
X177342857Y-107419400D01*
X177342857Y-107419400D02*
X177200000Y-107276542D01*
X177200000Y-107276542D02*
X177128571Y-107133685D01*
X177128571Y-107133685D02*
X177057143Y-106847971D01*
X177057143Y-106847971D02*
X177057143Y-106633685D01*
X177057143Y-106633685D02*
X177128571Y-106347971D01*
X177128571Y-106347971D02*
X177200000Y-106205114D01*
X177200000Y-106205114D02*
X177342857Y-106062257D01*
X177342857Y-106062257D02*
X177557143Y-105990828D01*
X177557143Y-105990828D02*
X177700000Y-105990828D01*
X177700000Y-105990828D02*
X177914286Y-106062257D01*
X177914286Y-106062257D02*
X177985714Y-106133685D01*
X179414286Y-107490828D02*
X178557143Y-107490828D01*
X178985714Y-107490828D02*
X178985714Y-105990828D01*
X178985714Y-105990828D02*
X178842857Y-106205114D01*
X178842857Y-106205114D02*
X178700000Y-106347971D01*
X178700000Y-106347971D02*
X178557143Y-106419400D01*
X180342857Y-105990828D02*
X180485714Y-105990828D01*
X180485714Y-105990828D02*
X180628571Y-106062257D01*
X180628571Y-106062257D02*
X180700000Y-106133685D01*
X180700000Y-106133685D02*
X180771428Y-106276542D01*
X180771428Y-106276542D02*
X180842857Y-106562257D01*
X180842857Y-106562257D02*
X180842857Y-106919400D01*
X180842857Y-106919400D02*
X180771428Y-107205114D01*
X180771428Y-107205114D02*
X180700000Y-107347971D01*
X180700000Y-107347971D02*
X180628571Y-107419400D01*
X180628571Y-107419400D02*
X180485714Y-107490828D01*
X180485714Y-107490828D02*
X180342857Y-107490828D01*
X180342857Y-107490828D02*
X180200000Y-107419400D01*
X180200000Y-107419400D02*
X180128571Y-107347971D01*
X180128571Y-107347971D02*
X180057142Y-107205114D01*
X180057142Y-107205114D02*
X179985714Y-106919400D01*
X179985714Y-106919400D02*
X179985714Y-106562257D01*
X179985714Y-106562257D02*
X180057142Y-106276542D01*
X180057142Y-106276542D02*
X180128571Y-106133685D01*
X180128571Y-106133685D02*
X180200000Y-106062257D01*
X180200000Y-106062257D02*
X180342857Y-105990828D01*
X88595714Y-85368328D02*
X89595714Y-86868328D01*
X89595714Y-85368328D02*
X88595714Y-86868328D01*
X90952857Y-86868328D02*
X90095714Y-86868328D01*
X90524285Y-86868328D02*
X90524285Y-85368328D01*
X90524285Y-85368328D02*
X90381428Y-85582614D01*
X90381428Y-85582614D02*
X90238571Y-85725471D01*
X90238571Y-85725471D02*
X90095714Y-85796900D01*
X189855714Y-105108328D02*
X189855714Y-103608328D01*
X190427143Y-103608328D02*
X191355715Y-103608328D01*
X191355715Y-103608328D02*
X190855715Y-104179757D01*
X190855715Y-104179757D02*
X191070000Y-104179757D01*
X191070000Y-104179757D02*
X191212858Y-104251185D01*
X191212858Y-104251185D02*
X191284286Y-104322614D01*
X191284286Y-104322614D02*
X191355715Y-104465471D01*
X191355715Y-104465471D02*
X191355715Y-104822614D01*
X191355715Y-104822614D02*
X191284286Y-104965471D01*
X191284286Y-104965471D02*
X191212858Y-105036900D01*
X191212858Y-105036900D02*
X191070000Y-105108328D01*
X191070000Y-105108328D02*
X190641429Y-105108328D01*
X190641429Y-105108328D02*
X190498572Y-105036900D01*
X190498572Y-105036900D02*
X190427143Y-104965471D01*
D11*
X212079999Y-113937319D02*
X211889523Y-113937319D01*
X211889523Y-113937319D02*
X211794285Y-113984938D01*
X211794285Y-113984938D02*
X211746666Y-114032557D01*
X211746666Y-114032557D02*
X211651428Y-114175414D01*
X211651428Y-114175414D02*
X211603809Y-114365890D01*
X211603809Y-114365890D02*
X211603809Y-114746842D01*
X211603809Y-114746842D02*
X211651428Y-114842080D01*
X211651428Y-114842080D02*
X211699047Y-114889700D01*
X211699047Y-114889700D02*
X211794285Y-114937319D01*
X211794285Y-114937319D02*
X211984761Y-114937319D01*
X211984761Y-114937319D02*
X212079999Y-114889700D01*
X212079999Y-114889700D02*
X212127618Y-114842080D01*
X212127618Y-114842080D02*
X212175237Y-114746842D01*
X212175237Y-114746842D02*
X212175237Y-114508747D01*
X212175237Y-114508747D02*
X212127618Y-114413509D01*
X212127618Y-114413509D02*
X212079999Y-114365890D01*
X212079999Y-114365890D02*
X211984761Y-114318271D01*
X211984761Y-114318271D02*
X211794285Y-114318271D01*
X211794285Y-114318271D02*
X211699047Y-114365890D01*
X211699047Y-114365890D02*
X211651428Y-114413509D01*
X211651428Y-114413509D02*
X211603809Y-114508747D01*
X212746666Y-114365890D02*
X212651428Y-114318271D01*
X212651428Y-114318271D02*
X212603809Y-114270652D01*
X212603809Y-114270652D02*
X212556190Y-114175414D01*
X212556190Y-114175414D02*
X212556190Y-114127795D01*
X212556190Y-114127795D02*
X212603809Y-114032557D01*
X212603809Y-114032557D02*
X212651428Y-113984938D01*
X212651428Y-113984938D02*
X212746666Y-113937319D01*
X212746666Y-113937319D02*
X212937142Y-113937319D01*
X212937142Y-113937319D02*
X213032380Y-113984938D01*
X213032380Y-113984938D02*
X213079999Y-114032557D01*
X213079999Y-114032557D02*
X213127618Y-114127795D01*
X213127618Y-114127795D02*
X213127618Y-114175414D01*
X213127618Y-114175414D02*
X213079999Y-114270652D01*
X213079999Y-114270652D02*
X213032380Y-114318271D01*
X213032380Y-114318271D02*
X212937142Y-114365890D01*
X212937142Y-114365890D02*
X212746666Y-114365890D01*
X212746666Y-114365890D02*
X212651428Y-114413509D01*
X212651428Y-114413509D02*
X212603809Y-114461128D01*
X212603809Y-114461128D02*
X212556190Y-114556366D01*
X212556190Y-114556366D02*
X212556190Y-114746842D01*
X212556190Y-114746842D02*
X212603809Y-114842080D01*
X212603809Y-114842080D02*
X212651428Y-114889700D01*
X212651428Y-114889700D02*
X212746666Y-114937319D01*
X212746666Y-114937319D02*
X212937142Y-114937319D01*
X212937142Y-114937319D02*
X213032380Y-114889700D01*
X213032380Y-114889700D02*
X213079999Y-114842080D01*
X213079999Y-114842080D02*
X213127618Y-114746842D01*
X213127618Y-114746842D02*
X213127618Y-114556366D01*
X213127618Y-114556366D02*
X213079999Y-114461128D01*
X213079999Y-114461128D02*
X213032380Y-114413509D01*
X213032380Y-114413509D02*
X212937142Y-114365890D01*
X213984761Y-114270652D02*
X213984761Y-114937319D01*
X213746666Y-113889700D02*
X213508571Y-114603985D01*
X213508571Y-114603985D02*
X214127618Y-114603985D01*
X214984761Y-113937319D02*
X214508571Y-113937319D01*
X214508571Y-113937319D02*
X214460952Y-114413509D01*
X214460952Y-114413509D02*
X214508571Y-114365890D01*
X214508571Y-114365890D02*
X214603809Y-114318271D01*
X214603809Y-114318271D02*
X214841904Y-114318271D01*
X214841904Y-114318271D02*
X214937142Y-114365890D01*
X214937142Y-114365890D02*
X214984761Y-114413509D01*
X214984761Y-114413509D02*
X215032380Y-114508747D01*
X215032380Y-114508747D02*
X215032380Y-114746842D01*
X215032380Y-114746842D02*
X214984761Y-114842080D01*
X214984761Y-114842080D02*
X214937142Y-114889700D01*
X214937142Y-114889700D02*
X214841904Y-114937319D01*
X214841904Y-114937319D02*
X214603809Y-114937319D01*
X214603809Y-114937319D02*
X214508571Y-114889700D01*
X214508571Y-114889700D02*
X214460952Y-114842080D01*
X216794285Y-114842080D02*
X216746666Y-114889700D01*
X216746666Y-114889700D02*
X216603809Y-114937319D01*
X216603809Y-114937319D02*
X216508571Y-114937319D01*
X216508571Y-114937319D02*
X216365714Y-114889700D01*
X216365714Y-114889700D02*
X216270476Y-114794461D01*
X216270476Y-114794461D02*
X216222857Y-114699223D01*
X216222857Y-114699223D02*
X216175238Y-114508747D01*
X216175238Y-114508747D02*
X216175238Y-114365890D01*
X216175238Y-114365890D02*
X216222857Y-114175414D01*
X216222857Y-114175414D02*
X216270476Y-114080176D01*
X216270476Y-114080176D02*
X216365714Y-113984938D01*
X216365714Y-113984938D02*
X216508571Y-113937319D01*
X216508571Y-113937319D02*
X216603809Y-113937319D01*
X216603809Y-113937319D02*
X216746666Y-113984938D01*
X216746666Y-113984938D02*
X216794285Y-114032557D01*
X217794285Y-114937319D02*
X217460952Y-114461128D01*
X217222857Y-114937319D02*
X217222857Y-113937319D01*
X217222857Y-113937319D02*
X217603809Y-113937319D01*
X217603809Y-113937319D02*
X217699047Y-113984938D01*
X217699047Y-113984938D02*
X217746666Y-114032557D01*
X217746666Y-114032557D02*
X217794285Y-114127795D01*
X217794285Y-114127795D02*
X217794285Y-114270652D01*
X217794285Y-114270652D02*
X217746666Y-114365890D01*
X217746666Y-114365890D02*
X217699047Y-114413509D01*
X217699047Y-114413509D02*
X217603809Y-114461128D01*
X217603809Y-114461128D02*
X217222857Y-114461128D01*
X218080000Y-113937319D02*
X218651428Y-113937319D01*
X218365714Y-114937319D02*
X218365714Y-113937319D01*
X219556190Y-114842080D02*
X219508571Y-114889700D01*
X219508571Y-114889700D02*
X219365714Y-114937319D01*
X219365714Y-114937319D02*
X219270476Y-114937319D01*
X219270476Y-114937319D02*
X219127619Y-114889700D01*
X219127619Y-114889700D02*
X219032381Y-114794461D01*
X219032381Y-114794461D02*
X218984762Y-114699223D01*
X218984762Y-114699223D02*
X218937143Y-114508747D01*
X218937143Y-114508747D02*
X218937143Y-114365890D01*
X218937143Y-114365890D02*
X218984762Y-114175414D01*
X218984762Y-114175414D02*
X219032381Y-114080176D01*
X219032381Y-114080176D02*
X219127619Y-113984938D01*
X219127619Y-113984938D02*
X219270476Y-113937319D01*
X219270476Y-113937319D02*
X219365714Y-113937319D01*
X219365714Y-113937319D02*
X219508571Y-113984938D01*
X219508571Y-113984938D02*
X219556190Y-114032557D01*
D10*
X137348971Y-103634285D02*
X137420400Y-103705713D01*
X137420400Y-103705713D02*
X137491828Y-103919999D01*
X137491828Y-103919999D02*
X137491828Y-104062856D01*
X137491828Y-104062856D02*
X137420400Y-104277142D01*
X137420400Y-104277142D02*
X137277542Y-104419999D01*
X137277542Y-104419999D02*
X137134685Y-104491428D01*
X137134685Y-104491428D02*
X136848971Y-104562856D01*
X136848971Y-104562856D02*
X136634685Y-104562856D01*
X136634685Y-104562856D02*
X136348971Y-104491428D01*
X136348971Y-104491428D02*
X136206114Y-104419999D01*
X136206114Y-104419999D02*
X136063257Y-104277142D01*
X136063257Y-104277142D02*
X135991828Y-104062856D01*
X135991828Y-104062856D02*
X135991828Y-103919999D01*
X135991828Y-103919999D02*
X136063257Y-103705713D01*
X136063257Y-103705713D02*
X136134685Y-103634285D01*
X136491828Y-102348571D02*
X137491828Y-102348571D01*
X135920400Y-102705713D02*
X136991828Y-103062856D01*
X136991828Y-103062856D02*
X136991828Y-102134285D01*
X135991828Y-100848571D02*
X135991828Y-101562857D01*
X135991828Y-101562857D02*
X136706114Y-101634285D01*
X136706114Y-101634285D02*
X136634685Y-101562857D01*
X136634685Y-101562857D02*
X136563257Y-101420000D01*
X136563257Y-101420000D02*
X136563257Y-101062857D01*
X136563257Y-101062857D02*
X136634685Y-100920000D01*
X136634685Y-100920000D02*
X136706114Y-100848571D01*
X136706114Y-100848571D02*
X136848971Y-100777142D01*
X136848971Y-100777142D02*
X137206114Y-100777142D01*
X137206114Y-100777142D02*
X137348971Y-100848571D01*
X137348971Y-100848571D02*
X137420400Y-100920000D01*
X137420400Y-100920000D02*
X137491828Y-101062857D01*
X137491828Y-101062857D02*
X137491828Y-101420000D01*
X137491828Y-101420000D02*
X137420400Y-101562857D01*
X137420400Y-101562857D02*
X137348971Y-101634285D01*
X114300714Y-83555471D02*
X114229286Y-83626900D01*
X114229286Y-83626900D02*
X114015000Y-83698328D01*
X114015000Y-83698328D02*
X113872143Y-83698328D01*
X113872143Y-83698328D02*
X113657857Y-83626900D01*
X113657857Y-83626900D02*
X113515000Y-83484042D01*
X113515000Y-83484042D02*
X113443571Y-83341185D01*
X113443571Y-83341185D02*
X113372143Y-83055471D01*
X113372143Y-83055471D02*
X113372143Y-82841185D01*
X113372143Y-82841185D02*
X113443571Y-82555471D01*
X113443571Y-82555471D02*
X113515000Y-82412614D01*
X113515000Y-82412614D02*
X113657857Y-82269757D01*
X113657857Y-82269757D02*
X113872143Y-82198328D01*
X113872143Y-82198328D02*
X114015000Y-82198328D01*
X114015000Y-82198328D02*
X114229286Y-82269757D01*
X114229286Y-82269757D02*
X114300714Y-82341185D01*
X115586429Y-82698328D02*
X115586429Y-83698328D01*
X115229286Y-82126900D02*
X114872143Y-83198328D01*
X114872143Y-83198328D02*
X115800714Y-83198328D01*
X116229285Y-82198328D02*
X117157857Y-82198328D01*
X117157857Y-82198328D02*
X116657857Y-82769757D01*
X116657857Y-82769757D02*
X116872142Y-82769757D01*
X116872142Y-82769757D02*
X117015000Y-82841185D01*
X117015000Y-82841185D02*
X117086428Y-82912614D01*
X117086428Y-82912614D02*
X117157857Y-83055471D01*
X117157857Y-83055471D02*
X117157857Y-83412614D01*
X117157857Y-83412614D02*
X117086428Y-83555471D01*
X117086428Y-83555471D02*
X117015000Y-83626900D01*
X117015000Y-83626900D02*
X116872142Y-83698328D01*
X116872142Y-83698328D02*
X116443571Y-83698328D01*
X116443571Y-83698328D02*
X116300714Y-83626900D01*
X116300714Y-83626900D02*
X116229285Y-83555471D01*
X49985471Y-112921785D02*
X50056900Y-112993213D01*
X50056900Y-112993213D02*
X50128328Y-113207499D01*
X50128328Y-113207499D02*
X50128328Y-113350356D01*
X50128328Y-113350356D02*
X50056900Y-113564642D01*
X50056900Y-113564642D02*
X49914042Y-113707499D01*
X49914042Y-113707499D02*
X49771185Y-113778928D01*
X49771185Y-113778928D02*
X49485471Y-113850356D01*
X49485471Y-113850356D02*
X49271185Y-113850356D01*
X49271185Y-113850356D02*
X48985471Y-113778928D01*
X48985471Y-113778928D02*
X48842614Y-113707499D01*
X48842614Y-113707499D02*
X48699757Y-113564642D01*
X48699757Y-113564642D02*
X48628328Y-113350356D01*
X48628328Y-113350356D02*
X48628328Y-113207499D01*
X48628328Y-113207499D02*
X48699757Y-112993213D01*
X48699757Y-112993213D02*
X48771185Y-112921785D01*
X48628328Y-111564642D02*
X48628328Y-112278928D01*
X48628328Y-112278928D02*
X49342614Y-112350356D01*
X49342614Y-112350356D02*
X49271185Y-112278928D01*
X49271185Y-112278928D02*
X49199757Y-112136071D01*
X49199757Y-112136071D02*
X49199757Y-111778928D01*
X49199757Y-111778928D02*
X49271185Y-111636071D01*
X49271185Y-111636071D02*
X49342614Y-111564642D01*
X49342614Y-111564642D02*
X49485471Y-111493213D01*
X49485471Y-111493213D02*
X49842614Y-111493213D01*
X49842614Y-111493213D02*
X49985471Y-111564642D01*
X49985471Y-111564642D02*
X50056900Y-111636071D01*
X50056900Y-111636071D02*
X50128328Y-111778928D01*
X50128328Y-111778928D02*
X50128328Y-112136071D01*
X50128328Y-112136071D02*
X50056900Y-112278928D01*
X50056900Y-112278928D02*
X49985471Y-112350356D01*
X48628328Y-110564642D02*
X48628328Y-110421785D01*
X48628328Y-110421785D02*
X48699757Y-110278928D01*
X48699757Y-110278928D02*
X48771185Y-110207500D01*
X48771185Y-110207500D02*
X48914042Y-110136071D01*
X48914042Y-110136071D02*
X49199757Y-110064642D01*
X49199757Y-110064642D02*
X49556900Y-110064642D01*
X49556900Y-110064642D02*
X49842614Y-110136071D01*
X49842614Y-110136071D02*
X49985471Y-110207500D01*
X49985471Y-110207500D02*
X50056900Y-110278928D01*
X50056900Y-110278928D02*
X50128328Y-110421785D01*
X50128328Y-110421785D02*
X50128328Y-110564642D01*
X50128328Y-110564642D02*
X50056900Y-110707500D01*
X50056900Y-110707500D02*
X49985471Y-110778928D01*
X49985471Y-110778928D02*
X49842614Y-110850357D01*
X49842614Y-110850357D02*
X49556900Y-110921785D01*
X49556900Y-110921785D02*
X49199757Y-110921785D01*
X49199757Y-110921785D02*
X48914042Y-110850357D01*
X48914042Y-110850357D02*
X48771185Y-110778928D01*
X48771185Y-110778928D02*
X48699757Y-110707500D01*
X48699757Y-110707500D02*
X48628328Y-110564642D01*
X89780000Y-116483328D02*
X89280000Y-115769042D01*
X88922857Y-116483328D02*
X88922857Y-114983328D01*
X88922857Y-114983328D02*
X89494286Y-114983328D01*
X89494286Y-114983328D02*
X89637143Y-115054757D01*
X89637143Y-115054757D02*
X89708572Y-115126185D01*
X89708572Y-115126185D02*
X89780000Y-115269042D01*
X89780000Y-115269042D02*
X89780000Y-115483328D01*
X89780000Y-115483328D02*
X89708572Y-115626185D01*
X89708572Y-115626185D02*
X89637143Y-115697614D01*
X89637143Y-115697614D02*
X89494286Y-115769042D01*
X89494286Y-115769042D02*
X88922857Y-115769042D01*
X91065715Y-115483328D02*
X91065715Y-116483328D01*
X90708572Y-114911900D02*
X90351429Y-115983328D01*
X90351429Y-115983328D02*
X91280000Y-115983328D01*
X51235718Y-103328328D02*
X51235718Y-101828328D01*
X52021433Y-103328328D02*
X52307147Y-103328328D01*
X52307147Y-103328328D02*
X52450004Y-103256900D01*
X52450004Y-103256900D02*
X52521433Y-103185471D01*
X52521433Y-103185471D02*
X52664290Y-102971185D01*
X52664290Y-102971185D02*
X52735719Y-102685471D01*
X52735719Y-102685471D02*
X52735719Y-102114042D01*
X52735719Y-102114042D02*
X52664290Y-101971185D01*
X52664290Y-101971185D02*
X52592862Y-101899757D01*
X52592862Y-101899757D02*
X52450004Y-101828328D01*
X52450004Y-101828328D02*
X52164290Y-101828328D01*
X52164290Y-101828328D02*
X52021433Y-101899757D01*
X52021433Y-101899757D02*
X51950004Y-101971185D01*
X51950004Y-101971185D02*
X51878576Y-102114042D01*
X51878576Y-102114042D02*
X51878576Y-102471185D01*
X51878576Y-102471185D02*
X51950004Y-102614042D01*
X51950004Y-102614042D02*
X52021433Y-102685471D01*
X52021433Y-102685471D02*
X52164290Y-102756900D01*
X52164290Y-102756900D02*
X52450004Y-102756900D01*
X52450004Y-102756900D02*
X52592862Y-102685471D01*
X52592862Y-102685471D02*
X52664290Y-102614042D01*
X52664290Y-102614042D02*
X52735719Y-102471185D01*
D11*
X57698143Y-95714819D02*
X58364809Y-95714819D01*
X58364809Y-95714819D02*
X57936238Y-96714819D01*
X59174333Y-96048152D02*
X59174333Y-96714819D01*
X58936238Y-95667200D02*
X58698143Y-96381485D01*
X58698143Y-96381485D02*
X59317190Y-96381485D01*
X60174333Y-96714819D02*
X59698143Y-96714819D01*
X59698143Y-96714819D02*
X59698143Y-95714819D01*
X60460048Y-96667200D02*
X60602905Y-96714819D01*
X60602905Y-96714819D02*
X60841000Y-96714819D01*
X60841000Y-96714819D02*
X60936238Y-96667200D01*
X60936238Y-96667200D02*
X60983857Y-96619580D01*
X60983857Y-96619580D02*
X61031476Y-96524342D01*
X61031476Y-96524342D02*
X61031476Y-96429104D01*
X61031476Y-96429104D02*
X60983857Y-96333866D01*
X60983857Y-96333866D02*
X60936238Y-96286247D01*
X60936238Y-96286247D02*
X60841000Y-96238628D01*
X60841000Y-96238628D02*
X60650524Y-96191009D01*
X60650524Y-96191009D02*
X60555286Y-96143390D01*
X60555286Y-96143390D02*
X60507667Y-96095771D01*
X60507667Y-96095771D02*
X60460048Y-96000533D01*
X60460048Y-96000533D02*
X60460048Y-95905295D01*
X60460048Y-95905295D02*
X60507667Y-95810057D01*
X60507667Y-95810057D02*
X60555286Y-95762438D01*
X60555286Y-95762438D02*
X60650524Y-95714819D01*
X60650524Y-95714819D02*
X60888619Y-95714819D01*
X60888619Y-95714819D02*
X61031476Y-95762438D01*
X61412429Y-95810057D02*
X61460048Y-95762438D01*
X61460048Y-95762438D02*
X61555286Y-95714819D01*
X61555286Y-95714819D02*
X61793381Y-95714819D01*
X61793381Y-95714819D02*
X61888619Y-95762438D01*
X61888619Y-95762438D02*
X61936238Y-95810057D01*
X61936238Y-95810057D02*
X61983857Y-95905295D01*
X61983857Y-95905295D02*
X61983857Y-96000533D01*
X61983857Y-96000533D02*
X61936238Y-96143390D01*
X61936238Y-96143390D02*
X61364810Y-96714819D01*
X61364810Y-96714819D02*
X61983857Y-96714819D01*
X62602905Y-95714819D02*
X62698143Y-95714819D01*
X62698143Y-95714819D02*
X62793381Y-95762438D01*
X62793381Y-95762438D02*
X62841000Y-95810057D01*
X62841000Y-95810057D02*
X62888619Y-95905295D01*
X62888619Y-95905295D02*
X62936238Y-96095771D01*
X62936238Y-96095771D02*
X62936238Y-96333866D01*
X62936238Y-96333866D02*
X62888619Y-96524342D01*
X62888619Y-96524342D02*
X62841000Y-96619580D01*
X62841000Y-96619580D02*
X62793381Y-96667200D01*
X62793381Y-96667200D02*
X62698143Y-96714819D01*
X62698143Y-96714819D02*
X62602905Y-96714819D01*
X62602905Y-96714819D02*
X62507667Y-96667200D01*
X62507667Y-96667200D02*
X62460048Y-96619580D01*
X62460048Y-96619580D02*
X62412429Y-96524342D01*
X62412429Y-96524342D02*
X62364810Y-96333866D01*
X62364810Y-96333866D02*
X62364810Y-96095771D01*
X62364810Y-96095771D02*
X62412429Y-95905295D01*
X62412429Y-95905295D02*
X62460048Y-95810057D01*
X62460048Y-95810057D02*
X62507667Y-95762438D01*
X62507667Y-95762438D02*
X62602905Y-95714819D01*
D10*
X54370000Y-84158328D02*
X53870000Y-83444042D01*
X53512857Y-84158328D02*
X53512857Y-82658328D01*
X53512857Y-82658328D02*
X54084286Y-82658328D01*
X54084286Y-82658328D02*
X54227143Y-82729757D01*
X54227143Y-82729757D02*
X54298572Y-82801185D01*
X54298572Y-82801185D02*
X54370000Y-82944042D01*
X54370000Y-82944042D02*
X54370000Y-83158328D01*
X54370000Y-83158328D02*
X54298572Y-83301185D01*
X54298572Y-83301185D02*
X54227143Y-83372614D01*
X54227143Y-83372614D02*
X54084286Y-83444042D01*
X54084286Y-83444042D02*
X53512857Y-83444042D01*
X54941429Y-82801185D02*
X55012857Y-82729757D01*
X55012857Y-82729757D02*
X55155715Y-82658328D01*
X55155715Y-82658328D02*
X55512857Y-82658328D01*
X55512857Y-82658328D02*
X55655715Y-82729757D01*
X55655715Y-82729757D02*
X55727143Y-82801185D01*
X55727143Y-82801185D02*
X55798572Y-82944042D01*
X55798572Y-82944042D02*
X55798572Y-83086900D01*
X55798572Y-83086900D02*
X55727143Y-83301185D01*
X55727143Y-83301185D02*
X54870000Y-84158328D01*
X54870000Y-84158328D02*
X55798572Y-84158328D01*
X155811428Y-125218328D02*
X155811428Y-123718328D01*
X157311429Y-125218328D02*
X156454286Y-125218328D01*
X156882857Y-125218328D02*
X156882857Y-123718328D01*
X156882857Y-123718328D02*
X156740000Y-123932614D01*
X156740000Y-123932614D02*
X156597143Y-124075471D01*
X156597143Y-124075471D02*
X156454286Y-124146900D01*
X158597143Y-124218328D02*
X158597143Y-125218328D01*
X158240000Y-123646900D02*
X157882857Y-124718328D01*
X157882857Y-124718328D02*
X158811428Y-124718328D01*
D11*
X163110952Y-117542319D02*
X163777618Y-117542319D01*
X163777618Y-117542319D02*
X163349047Y-118542319D01*
X164587142Y-117875652D02*
X164587142Y-118542319D01*
X164349047Y-117494700D02*
X164110952Y-118208985D01*
X164110952Y-118208985D02*
X164729999Y-118208985D01*
X165587142Y-118542319D02*
X165110952Y-118542319D01*
X165110952Y-118542319D02*
X165110952Y-117542319D01*
X165872857Y-118494700D02*
X166015714Y-118542319D01*
X166015714Y-118542319D02*
X166253809Y-118542319D01*
X166253809Y-118542319D02*
X166349047Y-118494700D01*
X166349047Y-118494700D02*
X166396666Y-118447080D01*
X166396666Y-118447080D02*
X166444285Y-118351842D01*
X166444285Y-118351842D02*
X166444285Y-118256604D01*
X166444285Y-118256604D02*
X166396666Y-118161366D01*
X166396666Y-118161366D02*
X166349047Y-118113747D01*
X166349047Y-118113747D02*
X166253809Y-118066128D01*
X166253809Y-118066128D02*
X166063333Y-118018509D01*
X166063333Y-118018509D02*
X165968095Y-117970890D01*
X165968095Y-117970890D02*
X165920476Y-117923271D01*
X165920476Y-117923271D02*
X165872857Y-117828033D01*
X165872857Y-117828033D02*
X165872857Y-117732795D01*
X165872857Y-117732795D02*
X165920476Y-117637557D01*
X165920476Y-117637557D02*
X165968095Y-117589938D01*
X165968095Y-117589938D02*
X166063333Y-117542319D01*
X166063333Y-117542319D02*
X166301428Y-117542319D01*
X166301428Y-117542319D02*
X166444285Y-117589938D01*
X167396666Y-118542319D02*
X166825238Y-118542319D01*
X167110952Y-118542319D02*
X167110952Y-117542319D01*
X167110952Y-117542319D02*
X167015714Y-117685176D01*
X167015714Y-117685176D02*
X166920476Y-117780414D01*
X166920476Y-117780414D02*
X166825238Y-117828033D01*
X168301428Y-117542319D02*
X167825238Y-117542319D01*
X167825238Y-117542319D02*
X167777619Y-118018509D01*
X167777619Y-118018509D02*
X167825238Y-117970890D01*
X167825238Y-117970890D02*
X167920476Y-117923271D01*
X167920476Y-117923271D02*
X168158571Y-117923271D01*
X168158571Y-117923271D02*
X168253809Y-117970890D01*
X168253809Y-117970890D02*
X168301428Y-118018509D01*
X168301428Y-118018509D02*
X168349047Y-118113747D01*
X168349047Y-118113747D02*
X168349047Y-118351842D01*
X168349047Y-118351842D02*
X168301428Y-118447080D01*
X168301428Y-118447080D02*
X168253809Y-118494700D01*
X168253809Y-118494700D02*
X168158571Y-118542319D01*
X168158571Y-118542319D02*
X167920476Y-118542319D01*
X167920476Y-118542319D02*
X167825238Y-118494700D01*
X167825238Y-118494700D02*
X167777619Y-118447080D01*
X168682381Y-117542319D02*
X169349047Y-117542319D01*
X169349047Y-117542319D02*
X168920476Y-118542319D01*
D10*
X49937971Y-83974285D02*
X50009400Y-84045713D01*
X50009400Y-84045713D02*
X50080828Y-84259999D01*
X50080828Y-84259999D02*
X50080828Y-84402856D01*
X50080828Y-84402856D02*
X50009400Y-84617142D01*
X50009400Y-84617142D02*
X49866542Y-84759999D01*
X49866542Y-84759999D02*
X49723685Y-84831428D01*
X49723685Y-84831428D02*
X49437971Y-84902856D01*
X49437971Y-84902856D02*
X49223685Y-84902856D01*
X49223685Y-84902856D02*
X48937971Y-84831428D01*
X48937971Y-84831428D02*
X48795114Y-84759999D01*
X48795114Y-84759999D02*
X48652257Y-84617142D01*
X48652257Y-84617142D02*
X48580828Y-84402856D01*
X48580828Y-84402856D02*
X48580828Y-84259999D01*
X48580828Y-84259999D02*
X48652257Y-84045713D01*
X48652257Y-84045713D02*
X48723685Y-83974285D01*
X49080828Y-82688571D02*
X50080828Y-82688571D01*
X48509400Y-83045713D02*
X49580828Y-83402856D01*
X49580828Y-83402856D02*
X49580828Y-82474285D01*
X49223685Y-81688571D02*
X49152257Y-81831428D01*
X49152257Y-81831428D02*
X49080828Y-81902857D01*
X49080828Y-81902857D02*
X48937971Y-81974285D01*
X48937971Y-81974285D02*
X48866542Y-81974285D01*
X48866542Y-81974285D02*
X48723685Y-81902857D01*
X48723685Y-81902857D02*
X48652257Y-81831428D01*
X48652257Y-81831428D02*
X48580828Y-81688571D01*
X48580828Y-81688571D02*
X48580828Y-81402857D01*
X48580828Y-81402857D02*
X48652257Y-81260000D01*
X48652257Y-81260000D02*
X48723685Y-81188571D01*
X48723685Y-81188571D02*
X48866542Y-81117142D01*
X48866542Y-81117142D02*
X48937971Y-81117142D01*
X48937971Y-81117142D02*
X49080828Y-81188571D01*
X49080828Y-81188571D02*
X49152257Y-81260000D01*
X49152257Y-81260000D02*
X49223685Y-81402857D01*
X49223685Y-81402857D02*
X49223685Y-81688571D01*
X49223685Y-81688571D02*
X49295114Y-81831428D01*
X49295114Y-81831428D02*
X49366542Y-81902857D01*
X49366542Y-81902857D02*
X49509400Y-81974285D01*
X49509400Y-81974285D02*
X49795114Y-81974285D01*
X49795114Y-81974285D02*
X49937971Y-81902857D01*
X49937971Y-81902857D02*
X50009400Y-81831428D01*
X50009400Y-81831428D02*
X50080828Y-81688571D01*
X50080828Y-81688571D02*
X50080828Y-81402857D01*
X50080828Y-81402857D02*
X50009400Y-81260000D01*
X50009400Y-81260000D02*
X49937971Y-81188571D01*
X49937971Y-81188571D02*
X49795114Y-81117142D01*
X49795114Y-81117142D02*
X49509400Y-81117142D01*
X49509400Y-81117142D02*
X49366542Y-81188571D01*
X49366542Y-81188571D02*
X49295114Y-81260000D01*
X49295114Y-81260000D02*
X49223685Y-81402857D01*
X116811428Y-103388328D02*
X116811428Y-101888328D01*
X118311429Y-103388328D02*
X117454286Y-103388328D01*
X117882857Y-103388328D02*
X117882857Y-101888328D01*
X117882857Y-101888328D02*
X117740000Y-102102614D01*
X117740000Y-102102614D02*
X117597143Y-102245471D01*
X117597143Y-102245471D02*
X117454286Y-102316900D01*
X119597143Y-101888328D02*
X119311428Y-101888328D01*
X119311428Y-101888328D02*
X119168571Y-101959757D01*
X119168571Y-101959757D02*
X119097143Y-102031185D01*
X119097143Y-102031185D02*
X118954285Y-102245471D01*
X118954285Y-102245471D02*
X118882857Y-102531185D01*
X118882857Y-102531185D02*
X118882857Y-103102614D01*
X118882857Y-103102614D02*
X118954285Y-103245471D01*
X118954285Y-103245471D02*
X119025714Y-103316900D01*
X119025714Y-103316900D02*
X119168571Y-103388328D01*
X119168571Y-103388328D02*
X119454285Y-103388328D01*
X119454285Y-103388328D02*
X119597143Y-103316900D01*
X119597143Y-103316900D02*
X119668571Y-103245471D01*
X119668571Y-103245471D02*
X119740000Y-103102614D01*
X119740000Y-103102614D02*
X119740000Y-102745471D01*
X119740000Y-102745471D02*
X119668571Y-102602614D01*
X119668571Y-102602614D02*
X119597143Y-102531185D01*
X119597143Y-102531185D02*
X119454285Y-102459757D01*
X119454285Y-102459757D02*
X119168571Y-102459757D01*
X119168571Y-102459757D02*
X119025714Y-102531185D01*
X119025714Y-102531185D02*
X118954285Y-102602614D01*
X118954285Y-102602614D02*
X118882857Y-102745471D01*
D11*
X123268143Y-95714819D02*
X123934809Y-95714819D01*
X123934809Y-95714819D02*
X123506238Y-96714819D01*
X124744333Y-96048152D02*
X124744333Y-96714819D01*
X124506238Y-95667200D02*
X124268143Y-96381485D01*
X124268143Y-96381485D02*
X124887190Y-96381485D01*
X125744333Y-96714819D02*
X125268143Y-96714819D01*
X125268143Y-96714819D02*
X125268143Y-95714819D01*
X126030048Y-96667200D02*
X126172905Y-96714819D01*
X126172905Y-96714819D02*
X126411000Y-96714819D01*
X126411000Y-96714819D02*
X126506238Y-96667200D01*
X126506238Y-96667200D02*
X126553857Y-96619580D01*
X126553857Y-96619580D02*
X126601476Y-96524342D01*
X126601476Y-96524342D02*
X126601476Y-96429104D01*
X126601476Y-96429104D02*
X126553857Y-96333866D01*
X126553857Y-96333866D02*
X126506238Y-96286247D01*
X126506238Y-96286247D02*
X126411000Y-96238628D01*
X126411000Y-96238628D02*
X126220524Y-96191009D01*
X126220524Y-96191009D02*
X126125286Y-96143390D01*
X126125286Y-96143390D02*
X126077667Y-96095771D01*
X126077667Y-96095771D02*
X126030048Y-96000533D01*
X126030048Y-96000533D02*
X126030048Y-95905295D01*
X126030048Y-95905295D02*
X126077667Y-95810057D01*
X126077667Y-95810057D02*
X126125286Y-95762438D01*
X126125286Y-95762438D02*
X126220524Y-95714819D01*
X126220524Y-95714819D02*
X126458619Y-95714819D01*
X126458619Y-95714819D02*
X126601476Y-95762438D01*
X126982429Y-95810057D02*
X127030048Y-95762438D01*
X127030048Y-95762438D02*
X127125286Y-95714819D01*
X127125286Y-95714819D02*
X127363381Y-95714819D01*
X127363381Y-95714819D02*
X127458619Y-95762438D01*
X127458619Y-95762438D02*
X127506238Y-95810057D01*
X127506238Y-95810057D02*
X127553857Y-95905295D01*
X127553857Y-95905295D02*
X127553857Y-96000533D01*
X127553857Y-96000533D02*
X127506238Y-96143390D01*
X127506238Y-96143390D02*
X126934810Y-96714819D01*
X126934810Y-96714819D02*
X127553857Y-96714819D01*
X127887191Y-95714819D02*
X128553857Y-95714819D01*
X128553857Y-95714819D02*
X128125286Y-96714819D01*
D10*
X149785714Y-73808328D02*
X149285714Y-73094042D01*
X148928571Y-73808328D02*
X148928571Y-72308328D01*
X148928571Y-72308328D02*
X149500000Y-72308328D01*
X149500000Y-72308328D02*
X149642857Y-72379757D01*
X149642857Y-72379757D02*
X149714286Y-72451185D01*
X149714286Y-72451185D02*
X149785714Y-72594042D01*
X149785714Y-72594042D02*
X149785714Y-72808328D01*
X149785714Y-72808328D02*
X149714286Y-72951185D01*
X149714286Y-72951185D02*
X149642857Y-73022614D01*
X149642857Y-73022614D02*
X149500000Y-73094042D01*
X149500000Y-73094042D02*
X148928571Y-73094042D01*
X151214286Y-73808328D02*
X150357143Y-73808328D01*
X150785714Y-73808328D02*
X150785714Y-72308328D01*
X150785714Y-72308328D02*
X150642857Y-72522614D01*
X150642857Y-72522614D02*
X150500000Y-72665471D01*
X150500000Y-72665471D02*
X150357143Y-72736900D01*
X152142857Y-72308328D02*
X152285714Y-72308328D01*
X152285714Y-72308328D02*
X152428571Y-72379757D01*
X152428571Y-72379757D02*
X152500000Y-72451185D01*
X152500000Y-72451185D02*
X152571428Y-72594042D01*
X152571428Y-72594042D02*
X152642857Y-72879757D01*
X152642857Y-72879757D02*
X152642857Y-73236900D01*
X152642857Y-73236900D02*
X152571428Y-73522614D01*
X152571428Y-73522614D02*
X152500000Y-73665471D01*
X152500000Y-73665471D02*
X152428571Y-73736900D01*
X152428571Y-73736900D02*
X152285714Y-73808328D01*
X152285714Y-73808328D02*
X152142857Y-73808328D01*
X152142857Y-73808328D02*
X152000000Y-73736900D01*
X152000000Y-73736900D02*
X151928571Y-73665471D01*
X151928571Y-73665471D02*
X151857142Y-73522614D01*
X151857142Y-73522614D02*
X151785714Y-73236900D01*
X151785714Y-73236900D02*
X151785714Y-72879757D01*
X151785714Y-72879757D02*
X151857142Y-72594042D01*
X151857142Y-72594042D02*
X151928571Y-72451185D01*
X151928571Y-72451185D02*
X152000000Y-72379757D01*
X152000000Y-72379757D02*
X152142857Y-72308328D01*
X51231428Y-112765828D02*
X51231428Y-111265828D01*
X52731429Y-112765828D02*
X51874286Y-112765828D01*
X52302857Y-112765828D02*
X52302857Y-111265828D01*
X52302857Y-111265828D02*
X52160000Y-111480114D01*
X52160000Y-111480114D02*
X52017143Y-111622971D01*
X52017143Y-111622971D02*
X51874286Y-111694400D01*
X53302857Y-111408685D02*
X53374285Y-111337257D01*
X53374285Y-111337257D02*
X53517143Y-111265828D01*
X53517143Y-111265828D02*
X53874285Y-111265828D01*
X53874285Y-111265828D02*
X54017143Y-111337257D01*
X54017143Y-111337257D02*
X54088571Y-111408685D01*
X54088571Y-111408685D02*
X54160000Y-111551542D01*
X54160000Y-111551542D02*
X54160000Y-111694400D01*
X54160000Y-111694400D02*
X54088571Y-111908685D01*
X54088571Y-111908685D02*
X53231428Y-112765828D01*
X53231428Y-112765828D02*
X54160000Y-112765828D01*
D11*
X57218452Y-117762319D02*
X57885118Y-117762319D01*
X57885118Y-117762319D02*
X57456547Y-118762319D01*
X58694642Y-118095652D02*
X58694642Y-118762319D01*
X58456547Y-117714700D02*
X58218452Y-118428985D01*
X58218452Y-118428985D02*
X58837499Y-118428985D01*
X59694642Y-118762319D02*
X59218452Y-118762319D01*
X59218452Y-118762319D02*
X59218452Y-117762319D01*
X59980357Y-118714700D02*
X60123214Y-118762319D01*
X60123214Y-118762319D02*
X60361309Y-118762319D01*
X60361309Y-118762319D02*
X60456547Y-118714700D01*
X60456547Y-118714700D02*
X60504166Y-118667080D01*
X60504166Y-118667080D02*
X60551785Y-118571842D01*
X60551785Y-118571842D02*
X60551785Y-118476604D01*
X60551785Y-118476604D02*
X60504166Y-118381366D01*
X60504166Y-118381366D02*
X60456547Y-118333747D01*
X60456547Y-118333747D02*
X60361309Y-118286128D01*
X60361309Y-118286128D02*
X60170833Y-118238509D01*
X60170833Y-118238509D02*
X60075595Y-118190890D01*
X60075595Y-118190890D02*
X60027976Y-118143271D01*
X60027976Y-118143271D02*
X59980357Y-118048033D01*
X59980357Y-118048033D02*
X59980357Y-117952795D01*
X59980357Y-117952795D02*
X60027976Y-117857557D01*
X60027976Y-117857557D02*
X60075595Y-117809938D01*
X60075595Y-117809938D02*
X60170833Y-117762319D01*
X60170833Y-117762319D02*
X60408928Y-117762319D01*
X60408928Y-117762319D02*
X60551785Y-117809938D01*
X61504166Y-118762319D02*
X60932738Y-118762319D01*
X61218452Y-118762319D02*
X61218452Y-117762319D01*
X61218452Y-117762319D02*
X61123214Y-117905176D01*
X61123214Y-117905176D02*
X61027976Y-118000414D01*
X61027976Y-118000414D02*
X60932738Y-118048033D01*
X61885119Y-117857557D02*
X61932738Y-117809938D01*
X61932738Y-117809938D02*
X62027976Y-117762319D01*
X62027976Y-117762319D02*
X62266071Y-117762319D01*
X62266071Y-117762319D02*
X62361309Y-117809938D01*
X62361309Y-117809938D02*
X62408928Y-117857557D01*
X62408928Y-117857557D02*
X62456547Y-117952795D01*
X62456547Y-117952795D02*
X62456547Y-118048033D01*
X62456547Y-118048033D02*
X62408928Y-118190890D01*
X62408928Y-118190890D02*
X61837500Y-118762319D01*
X61837500Y-118762319D02*
X62456547Y-118762319D01*
X63361309Y-117762319D02*
X62885119Y-117762319D01*
X62885119Y-117762319D02*
X62837500Y-118238509D01*
X62837500Y-118238509D02*
X62885119Y-118190890D01*
X62885119Y-118190890D02*
X62980357Y-118143271D01*
X62980357Y-118143271D02*
X63218452Y-118143271D01*
X63218452Y-118143271D02*
X63313690Y-118190890D01*
X63313690Y-118190890D02*
X63361309Y-118238509D01*
X63361309Y-118238509D02*
X63408928Y-118333747D01*
X63408928Y-118333747D02*
X63408928Y-118571842D01*
X63408928Y-118571842D02*
X63361309Y-118667080D01*
X63361309Y-118667080D02*
X63313690Y-118714700D01*
X63313690Y-118714700D02*
X63218452Y-118762319D01*
X63218452Y-118762319D02*
X62980357Y-118762319D01*
X62980357Y-118762319D02*
X62885119Y-118714700D01*
X62885119Y-118714700D02*
X62837500Y-118667080D01*
X146875714Y-130984819D02*
X147447142Y-130984819D01*
X147161428Y-131984819D02*
X147161428Y-130984819D01*
X147732857Y-131699104D02*
X148209047Y-131699104D01*
X147637619Y-131984819D02*
X147970952Y-130984819D01*
X147970952Y-130984819D02*
X148304285Y-131984819D01*
X148494762Y-130984819D02*
X149066190Y-130984819D01*
X148780476Y-131984819D02*
X148780476Y-130984819D01*
X149399524Y-130984819D02*
X149399524Y-131794342D01*
X149399524Y-131794342D02*
X149447143Y-131889580D01*
X149447143Y-131889580D02*
X149494762Y-131937200D01*
X149494762Y-131937200D02*
X149590000Y-131984819D01*
X149590000Y-131984819D02*
X149780476Y-131984819D01*
X149780476Y-131984819D02*
X149875714Y-131937200D01*
X149875714Y-131937200D02*
X149923333Y-131889580D01*
X149923333Y-131889580D02*
X149970952Y-131794342D01*
X149970952Y-131794342D02*
X149970952Y-130984819D01*
X150447143Y-131984819D02*
X150447143Y-130984819D01*
X150447143Y-130984819D02*
X151018571Y-131984819D01*
X151018571Y-131984819D02*
X151018571Y-130984819D01*
X152018571Y-131032438D02*
X151923333Y-130984819D01*
X151923333Y-130984819D02*
X151780476Y-130984819D01*
X151780476Y-130984819D02*
X151637619Y-131032438D01*
X151637619Y-131032438D02*
X151542381Y-131127676D01*
X151542381Y-131127676D02*
X151494762Y-131222914D01*
X151494762Y-131222914D02*
X151447143Y-131413390D01*
X151447143Y-131413390D02*
X151447143Y-131556247D01*
X151447143Y-131556247D02*
X151494762Y-131746723D01*
X151494762Y-131746723D02*
X151542381Y-131841961D01*
X151542381Y-131841961D02*
X151637619Y-131937200D01*
X151637619Y-131937200D02*
X151780476Y-131984819D01*
X151780476Y-131984819D02*
X151875714Y-131984819D01*
X151875714Y-131984819D02*
X152018571Y-131937200D01*
X152018571Y-131937200D02*
X152066190Y-131889580D01*
X152066190Y-131889580D02*
X152066190Y-131556247D01*
X152066190Y-131556247D02*
X151875714Y-131556247D01*
X153256667Y-131984819D02*
X153256667Y-130984819D01*
X153256667Y-130984819D02*
X153637619Y-130984819D01*
X153637619Y-130984819D02*
X153732857Y-131032438D01*
X153732857Y-131032438D02*
X153780476Y-131080057D01*
X153780476Y-131080057D02*
X153828095Y-131175295D01*
X153828095Y-131175295D02*
X153828095Y-131318152D01*
X153828095Y-131318152D02*
X153780476Y-131413390D01*
X153780476Y-131413390D02*
X153732857Y-131461009D01*
X153732857Y-131461009D02*
X153637619Y-131508628D01*
X153637619Y-131508628D02*
X153256667Y-131508628D01*
X154256667Y-131984819D02*
X154256667Y-130984819D01*
X154732857Y-131984819D02*
X154732857Y-130984819D01*
X154732857Y-130984819D02*
X155113809Y-130984819D01*
X155113809Y-130984819D02*
X155209047Y-131032438D01*
X155209047Y-131032438D02*
X155256666Y-131080057D01*
X155256666Y-131080057D02*
X155304285Y-131175295D01*
X155304285Y-131175295D02*
X155304285Y-131318152D01*
X155304285Y-131318152D02*
X155256666Y-131413390D01*
X155256666Y-131413390D02*
X155209047Y-131461009D01*
X155209047Y-131461009D02*
X155113809Y-131508628D01*
X155113809Y-131508628D02*
X154732857Y-131508628D01*
X155732857Y-131461009D02*
X156066190Y-131461009D01*
X156209047Y-131984819D02*
X155732857Y-131984819D01*
X155732857Y-131984819D02*
X155732857Y-130984819D01*
X155732857Y-130984819D02*
X156209047Y-130984819D01*
D10*
X151700714Y-83893328D02*
X151200714Y-83179042D01*
X150843571Y-83893328D02*
X150843571Y-82393328D01*
X150843571Y-82393328D02*
X151415000Y-82393328D01*
X151415000Y-82393328D02*
X151557857Y-82464757D01*
X151557857Y-82464757D02*
X151629286Y-82536185D01*
X151629286Y-82536185D02*
X151700714Y-82679042D01*
X151700714Y-82679042D02*
X151700714Y-82893328D01*
X151700714Y-82893328D02*
X151629286Y-83036185D01*
X151629286Y-83036185D02*
X151557857Y-83107614D01*
X151557857Y-83107614D02*
X151415000Y-83179042D01*
X151415000Y-83179042D02*
X150843571Y-83179042D01*
X153129286Y-83893328D02*
X152272143Y-83893328D01*
X152700714Y-83893328D02*
X152700714Y-82393328D01*
X152700714Y-82393328D02*
X152557857Y-82607614D01*
X152557857Y-82607614D02*
X152415000Y-82750471D01*
X152415000Y-82750471D02*
X152272143Y-82821900D01*
X154557857Y-83893328D02*
X153700714Y-83893328D01*
X154129285Y-83893328D02*
X154129285Y-82393328D01*
X154129285Y-82393328D02*
X153986428Y-82607614D01*
X153986428Y-82607614D02*
X153843571Y-82750471D01*
X153843571Y-82750471D02*
X153700714Y-82821900D01*
X131151428Y-123538328D02*
X131151428Y-122038328D01*
X132651429Y-123538328D02*
X131794286Y-123538328D01*
X132222857Y-123538328D02*
X132222857Y-122038328D01*
X132222857Y-122038328D02*
X132080000Y-122252614D01*
X132080000Y-122252614D02*
X131937143Y-122395471D01*
X131937143Y-122395471D02*
X131794286Y-122466900D01*
X134008571Y-122038328D02*
X133294285Y-122038328D01*
X133294285Y-122038328D02*
X133222857Y-122752614D01*
X133222857Y-122752614D02*
X133294285Y-122681185D01*
X133294285Y-122681185D02*
X133437143Y-122609757D01*
X133437143Y-122609757D02*
X133794285Y-122609757D01*
X133794285Y-122609757D02*
X133937143Y-122681185D01*
X133937143Y-122681185D02*
X134008571Y-122752614D01*
X134008571Y-122752614D02*
X134080000Y-122895471D01*
X134080000Y-122895471D02*
X134080000Y-123252614D01*
X134080000Y-123252614D02*
X134008571Y-123395471D01*
X134008571Y-123395471D02*
X133937143Y-123466900D01*
X133937143Y-123466900D02*
X133794285Y-123538328D01*
X133794285Y-123538328D02*
X133437143Y-123538328D01*
X133437143Y-123538328D02*
X133294285Y-123466900D01*
X133294285Y-123466900D02*
X133222857Y-123395471D01*
D11*
X138370952Y-115879819D02*
X139037618Y-115879819D01*
X139037618Y-115879819D02*
X138609047Y-116879819D01*
X139847142Y-116213152D02*
X139847142Y-116879819D01*
X139609047Y-115832200D02*
X139370952Y-116546485D01*
X139370952Y-116546485D02*
X139989999Y-116546485D01*
X140847142Y-116879819D02*
X140370952Y-116879819D01*
X140370952Y-116879819D02*
X140370952Y-115879819D01*
X141132857Y-116832200D02*
X141275714Y-116879819D01*
X141275714Y-116879819D02*
X141513809Y-116879819D01*
X141513809Y-116879819D02*
X141609047Y-116832200D01*
X141609047Y-116832200D02*
X141656666Y-116784580D01*
X141656666Y-116784580D02*
X141704285Y-116689342D01*
X141704285Y-116689342D02*
X141704285Y-116594104D01*
X141704285Y-116594104D02*
X141656666Y-116498866D01*
X141656666Y-116498866D02*
X141609047Y-116451247D01*
X141609047Y-116451247D02*
X141513809Y-116403628D01*
X141513809Y-116403628D02*
X141323333Y-116356009D01*
X141323333Y-116356009D02*
X141228095Y-116308390D01*
X141228095Y-116308390D02*
X141180476Y-116260771D01*
X141180476Y-116260771D02*
X141132857Y-116165533D01*
X141132857Y-116165533D02*
X141132857Y-116070295D01*
X141132857Y-116070295D02*
X141180476Y-115975057D01*
X141180476Y-115975057D02*
X141228095Y-115927438D01*
X141228095Y-115927438D02*
X141323333Y-115879819D01*
X141323333Y-115879819D02*
X141561428Y-115879819D01*
X141561428Y-115879819D02*
X141704285Y-115927438D01*
X142656666Y-116879819D02*
X142085238Y-116879819D01*
X142370952Y-116879819D02*
X142370952Y-115879819D01*
X142370952Y-115879819D02*
X142275714Y-116022676D01*
X142275714Y-116022676D02*
X142180476Y-116117914D01*
X142180476Y-116117914D02*
X142085238Y-116165533D01*
X143561428Y-115879819D02*
X143085238Y-115879819D01*
X143085238Y-115879819D02*
X143037619Y-116356009D01*
X143037619Y-116356009D02*
X143085238Y-116308390D01*
X143085238Y-116308390D02*
X143180476Y-116260771D01*
X143180476Y-116260771D02*
X143418571Y-116260771D01*
X143418571Y-116260771D02*
X143513809Y-116308390D01*
X143513809Y-116308390D02*
X143561428Y-116356009D01*
X143561428Y-116356009D02*
X143609047Y-116451247D01*
X143609047Y-116451247D02*
X143609047Y-116689342D01*
X143609047Y-116689342D02*
X143561428Y-116784580D01*
X143561428Y-116784580D02*
X143513809Y-116832200D01*
X143513809Y-116832200D02*
X143418571Y-116879819D01*
X143418571Y-116879819D02*
X143180476Y-116879819D01*
X143180476Y-116879819D02*
X143085238Y-116832200D01*
X143085238Y-116832200D02*
X143037619Y-116784580D01*
X143942381Y-115879819D02*
X144609047Y-115879819D01*
X144609047Y-115879819D02*
X144180476Y-116879819D01*
D10*
X54370000Y-90118328D02*
X53870000Y-89404042D01*
X53512857Y-90118328D02*
X53512857Y-88618328D01*
X53512857Y-88618328D02*
X54084286Y-88618328D01*
X54084286Y-88618328D02*
X54227143Y-88689757D01*
X54227143Y-88689757D02*
X54298572Y-88761185D01*
X54298572Y-88761185D02*
X54370000Y-88904042D01*
X54370000Y-88904042D02*
X54370000Y-89118328D01*
X54370000Y-89118328D02*
X54298572Y-89261185D01*
X54298572Y-89261185D02*
X54227143Y-89332614D01*
X54227143Y-89332614D02*
X54084286Y-89404042D01*
X54084286Y-89404042D02*
X53512857Y-89404042D01*
X55798572Y-90118328D02*
X54941429Y-90118328D01*
X55370000Y-90118328D02*
X55370000Y-88618328D01*
X55370000Y-88618328D02*
X55227143Y-88832614D01*
X55227143Y-88832614D02*
X55084286Y-88975471D01*
X55084286Y-88975471D02*
X54941429Y-89046900D01*
X120690000Y-84053328D02*
X120190000Y-83339042D01*
X119832857Y-84053328D02*
X119832857Y-82553328D01*
X119832857Y-82553328D02*
X120404286Y-82553328D01*
X120404286Y-82553328D02*
X120547143Y-82624757D01*
X120547143Y-82624757D02*
X120618572Y-82696185D01*
X120618572Y-82696185D02*
X120690000Y-82839042D01*
X120690000Y-82839042D02*
X120690000Y-83053328D01*
X120690000Y-83053328D02*
X120618572Y-83196185D01*
X120618572Y-83196185D02*
X120547143Y-83267614D01*
X120547143Y-83267614D02*
X120404286Y-83339042D01*
X120404286Y-83339042D02*
X119832857Y-83339042D01*
X122047143Y-82553328D02*
X121332857Y-82553328D01*
X121332857Y-82553328D02*
X121261429Y-83267614D01*
X121261429Y-83267614D02*
X121332857Y-83196185D01*
X121332857Y-83196185D02*
X121475715Y-83124757D01*
X121475715Y-83124757D02*
X121832857Y-83124757D01*
X121832857Y-83124757D02*
X121975715Y-83196185D01*
X121975715Y-83196185D02*
X122047143Y-83267614D01*
X122047143Y-83267614D02*
X122118572Y-83410471D01*
X122118572Y-83410471D02*
X122118572Y-83767614D01*
X122118572Y-83767614D02*
X122047143Y-83910471D01*
X122047143Y-83910471D02*
X121975715Y-83981900D01*
X121975715Y-83981900D02*
X121832857Y-84053328D01*
X121832857Y-84053328D02*
X121475715Y-84053328D01*
X121475715Y-84053328D02*
X121332857Y-83981900D01*
X121332857Y-83981900D02*
X121261429Y-83910471D01*
X76500000Y-83805471D02*
X76428572Y-83876900D01*
X76428572Y-83876900D02*
X76214286Y-83948328D01*
X76214286Y-83948328D02*
X76071429Y-83948328D01*
X76071429Y-83948328D02*
X75857143Y-83876900D01*
X75857143Y-83876900D02*
X75714286Y-83734042D01*
X75714286Y-83734042D02*
X75642857Y-83591185D01*
X75642857Y-83591185D02*
X75571429Y-83305471D01*
X75571429Y-83305471D02*
X75571429Y-83091185D01*
X75571429Y-83091185D02*
X75642857Y-82805471D01*
X75642857Y-82805471D02*
X75714286Y-82662614D01*
X75714286Y-82662614D02*
X75857143Y-82519757D01*
X75857143Y-82519757D02*
X76071429Y-82448328D01*
X76071429Y-82448328D02*
X76214286Y-82448328D01*
X76214286Y-82448328D02*
X76428572Y-82519757D01*
X76428572Y-82519757D02*
X76500000Y-82591185D01*
X77000000Y-82448328D02*
X78000000Y-82448328D01*
X78000000Y-82448328D02*
X77357143Y-83948328D01*
X54370000Y-87098328D02*
X53870000Y-86384042D01*
X53512857Y-87098328D02*
X53512857Y-85598328D01*
X53512857Y-85598328D02*
X54084286Y-85598328D01*
X54084286Y-85598328D02*
X54227143Y-85669757D01*
X54227143Y-85669757D02*
X54298572Y-85741185D01*
X54298572Y-85741185D02*
X54370000Y-85884042D01*
X54370000Y-85884042D02*
X54370000Y-86098328D01*
X54370000Y-86098328D02*
X54298572Y-86241185D01*
X54298572Y-86241185D02*
X54227143Y-86312614D01*
X54227143Y-86312614D02*
X54084286Y-86384042D01*
X54084286Y-86384042D02*
X53512857Y-86384042D01*
X54870000Y-85598328D02*
X55798572Y-85598328D01*
X55798572Y-85598328D02*
X55298572Y-86169757D01*
X55298572Y-86169757D02*
X55512857Y-86169757D01*
X55512857Y-86169757D02*
X55655715Y-86241185D01*
X55655715Y-86241185D02*
X55727143Y-86312614D01*
X55727143Y-86312614D02*
X55798572Y-86455471D01*
X55798572Y-86455471D02*
X55798572Y-86812614D01*
X55798572Y-86812614D02*
X55727143Y-86955471D01*
X55727143Y-86955471D02*
X55655715Y-87026900D01*
X55655715Y-87026900D02*
X55512857Y-87098328D01*
X55512857Y-87098328D02*
X55084286Y-87098328D01*
X55084286Y-87098328D02*
X54941429Y-87026900D01*
X54941429Y-87026900D02*
X54870000Y-86955471D01*
X93581471Y-103754285D02*
X93652900Y-103825713D01*
X93652900Y-103825713D02*
X93724328Y-104039999D01*
X93724328Y-104039999D02*
X93724328Y-104182856D01*
X93724328Y-104182856D02*
X93652900Y-104397142D01*
X93652900Y-104397142D02*
X93510042Y-104539999D01*
X93510042Y-104539999D02*
X93367185Y-104611428D01*
X93367185Y-104611428D02*
X93081471Y-104682856D01*
X93081471Y-104682856D02*
X92867185Y-104682856D01*
X92867185Y-104682856D02*
X92581471Y-104611428D01*
X92581471Y-104611428D02*
X92438614Y-104539999D01*
X92438614Y-104539999D02*
X92295757Y-104397142D01*
X92295757Y-104397142D02*
X92224328Y-104182856D01*
X92224328Y-104182856D02*
X92224328Y-104039999D01*
X92224328Y-104039999D02*
X92295757Y-103825713D01*
X92295757Y-103825713D02*
X92367185Y-103754285D01*
X92724328Y-102468571D02*
X93724328Y-102468571D01*
X92152900Y-102825713D02*
X93224328Y-103182856D01*
X93224328Y-103182856D02*
X93224328Y-102254285D01*
X93724328Y-101611428D02*
X93724328Y-101325714D01*
X93724328Y-101325714D02*
X93652900Y-101182857D01*
X93652900Y-101182857D02*
X93581471Y-101111428D01*
X93581471Y-101111428D02*
X93367185Y-100968571D01*
X93367185Y-100968571D02*
X93081471Y-100897142D01*
X93081471Y-100897142D02*
X92510042Y-100897142D01*
X92510042Y-100897142D02*
X92367185Y-100968571D01*
X92367185Y-100968571D02*
X92295757Y-101040000D01*
X92295757Y-101040000D02*
X92224328Y-101182857D01*
X92224328Y-101182857D02*
X92224328Y-101468571D01*
X92224328Y-101468571D02*
X92295757Y-101611428D01*
X92295757Y-101611428D02*
X92367185Y-101682857D01*
X92367185Y-101682857D02*
X92510042Y-101754285D01*
X92510042Y-101754285D02*
X92867185Y-101754285D01*
X92867185Y-101754285D02*
X93010042Y-101682857D01*
X93010042Y-101682857D02*
X93081471Y-101611428D01*
X93081471Y-101611428D02*
X93152900Y-101468571D01*
X93152900Y-101468571D02*
X93152900Y-101182857D01*
X93152900Y-101182857D02*
X93081471Y-101040000D01*
X93081471Y-101040000D02*
X93010042Y-100968571D01*
X93010042Y-100968571D02*
X92867185Y-100897142D01*
X169455714Y-71178328D02*
X169455714Y-69678328D01*
X170884286Y-69678328D02*
X170170000Y-69678328D01*
X170170000Y-69678328D02*
X170098572Y-70392614D01*
X170098572Y-70392614D02*
X170170000Y-70321185D01*
X170170000Y-70321185D02*
X170312858Y-70249757D01*
X170312858Y-70249757D02*
X170670000Y-70249757D01*
X170670000Y-70249757D02*
X170812858Y-70321185D01*
X170812858Y-70321185D02*
X170884286Y-70392614D01*
X170884286Y-70392614D02*
X170955715Y-70535471D01*
X170955715Y-70535471D02*
X170955715Y-70892614D01*
X170955715Y-70892614D02*
X170884286Y-71035471D01*
X170884286Y-71035471D02*
X170812858Y-71106900D01*
X170812858Y-71106900D02*
X170670000Y-71178328D01*
X170670000Y-71178328D02*
X170312858Y-71178328D01*
X170312858Y-71178328D02*
X170170000Y-71106900D01*
X170170000Y-71106900D02*
X170098572Y-71035471D01*
D11*
X176758452Y-76152319D02*
X177425118Y-76152319D01*
X177425118Y-76152319D02*
X176996547Y-77152319D01*
X178234642Y-76485652D02*
X178234642Y-77152319D01*
X177996547Y-76104700D02*
X177758452Y-76818985D01*
X177758452Y-76818985D02*
X178377499Y-76818985D01*
X179234642Y-77152319D02*
X178758452Y-77152319D01*
X178758452Y-77152319D02*
X178758452Y-76152319D01*
X179520357Y-77104700D02*
X179663214Y-77152319D01*
X179663214Y-77152319D02*
X179901309Y-77152319D01*
X179901309Y-77152319D02*
X179996547Y-77104700D01*
X179996547Y-77104700D02*
X180044166Y-77057080D01*
X180044166Y-77057080D02*
X180091785Y-76961842D01*
X180091785Y-76961842D02*
X180091785Y-76866604D01*
X180091785Y-76866604D02*
X180044166Y-76771366D01*
X180044166Y-76771366D02*
X179996547Y-76723747D01*
X179996547Y-76723747D02*
X179901309Y-76676128D01*
X179901309Y-76676128D02*
X179710833Y-76628509D01*
X179710833Y-76628509D02*
X179615595Y-76580890D01*
X179615595Y-76580890D02*
X179567976Y-76533271D01*
X179567976Y-76533271D02*
X179520357Y-76438033D01*
X179520357Y-76438033D02*
X179520357Y-76342795D01*
X179520357Y-76342795D02*
X179567976Y-76247557D01*
X179567976Y-76247557D02*
X179615595Y-76199938D01*
X179615595Y-76199938D02*
X179710833Y-76152319D01*
X179710833Y-76152319D02*
X179948928Y-76152319D01*
X179948928Y-76152319D02*
X180091785Y-76199938D01*
X181044166Y-77152319D02*
X180472738Y-77152319D01*
X180758452Y-77152319D02*
X180758452Y-76152319D01*
X180758452Y-76152319D02*
X180663214Y-76295176D01*
X180663214Y-76295176D02*
X180567976Y-76390414D01*
X180567976Y-76390414D02*
X180472738Y-76438033D01*
X181901309Y-76152319D02*
X181710833Y-76152319D01*
X181710833Y-76152319D02*
X181615595Y-76199938D01*
X181615595Y-76199938D02*
X181567976Y-76247557D01*
X181567976Y-76247557D02*
X181472738Y-76390414D01*
X181472738Y-76390414D02*
X181425119Y-76580890D01*
X181425119Y-76580890D02*
X181425119Y-76961842D01*
X181425119Y-76961842D02*
X181472738Y-77057080D01*
X181472738Y-77057080D02*
X181520357Y-77104700D01*
X181520357Y-77104700D02*
X181615595Y-77152319D01*
X181615595Y-77152319D02*
X181806071Y-77152319D01*
X181806071Y-77152319D02*
X181901309Y-77104700D01*
X181901309Y-77104700D02*
X181948928Y-77057080D01*
X181948928Y-77057080D02*
X181996547Y-76961842D01*
X181996547Y-76961842D02*
X181996547Y-76723747D01*
X181996547Y-76723747D02*
X181948928Y-76628509D01*
X181948928Y-76628509D02*
X181901309Y-76580890D01*
X181901309Y-76580890D02*
X181806071Y-76533271D01*
X181806071Y-76533271D02*
X181615595Y-76533271D01*
X181615595Y-76533271D02*
X181520357Y-76580890D01*
X181520357Y-76580890D02*
X181472738Y-76628509D01*
X181472738Y-76628509D02*
X181425119Y-76723747D01*
X182901309Y-76152319D02*
X182425119Y-76152319D01*
X182425119Y-76152319D02*
X182377500Y-76628509D01*
X182377500Y-76628509D02*
X182425119Y-76580890D01*
X182425119Y-76580890D02*
X182520357Y-76533271D01*
X182520357Y-76533271D02*
X182758452Y-76533271D01*
X182758452Y-76533271D02*
X182853690Y-76580890D01*
X182853690Y-76580890D02*
X182901309Y-76628509D01*
X182901309Y-76628509D02*
X182948928Y-76723747D01*
X182948928Y-76723747D02*
X182948928Y-76961842D01*
X182948928Y-76961842D02*
X182901309Y-77057080D01*
X182901309Y-77057080D02*
X182853690Y-77104700D01*
X182853690Y-77104700D02*
X182758452Y-77152319D01*
X182758452Y-77152319D02*
X182520357Y-77152319D01*
X182520357Y-77152319D02*
X182425119Y-77104700D01*
X182425119Y-77104700D02*
X182377500Y-77057080D01*
D10*
X130065471Y-111064285D02*
X130136900Y-111135713D01*
X130136900Y-111135713D02*
X130208328Y-111349999D01*
X130208328Y-111349999D02*
X130208328Y-111492856D01*
X130208328Y-111492856D02*
X130136900Y-111707142D01*
X130136900Y-111707142D02*
X129994042Y-111849999D01*
X129994042Y-111849999D02*
X129851185Y-111921428D01*
X129851185Y-111921428D02*
X129565471Y-111992856D01*
X129565471Y-111992856D02*
X129351185Y-111992856D01*
X129351185Y-111992856D02*
X129065471Y-111921428D01*
X129065471Y-111921428D02*
X128922614Y-111849999D01*
X128922614Y-111849999D02*
X128779757Y-111707142D01*
X128779757Y-111707142D02*
X128708328Y-111492856D01*
X128708328Y-111492856D02*
X128708328Y-111349999D01*
X128708328Y-111349999D02*
X128779757Y-111135713D01*
X128779757Y-111135713D02*
X128851185Y-111064285D01*
X129208328Y-109778571D02*
X130208328Y-109778571D01*
X128636900Y-110135713D02*
X129708328Y-110492856D01*
X129708328Y-110492856D02*
X129708328Y-109564285D01*
X128708328Y-108350000D02*
X128708328Y-108635714D01*
X128708328Y-108635714D02*
X128779757Y-108778571D01*
X128779757Y-108778571D02*
X128851185Y-108850000D01*
X128851185Y-108850000D02*
X129065471Y-108992857D01*
X129065471Y-108992857D02*
X129351185Y-109064285D01*
X129351185Y-109064285D02*
X129922614Y-109064285D01*
X129922614Y-109064285D02*
X130065471Y-108992857D01*
X130065471Y-108992857D02*
X130136900Y-108921428D01*
X130136900Y-108921428D02*
X130208328Y-108778571D01*
X130208328Y-108778571D02*
X130208328Y-108492857D01*
X130208328Y-108492857D02*
X130136900Y-108350000D01*
X130136900Y-108350000D02*
X130065471Y-108278571D01*
X130065471Y-108278571D02*
X129922614Y-108207142D01*
X129922614Y-108207142D02*
X129565471Y-108207142D01*
X129565471Y-108207142D02*
X129422614Y-108278571D01*
X129422614Y-108278571D02*
X129351185Y-108350000D01*
X129351185Y-108350000D02*
X129279757Y-108492857D01*
X129279757Y-108492857D02*
X129279757Y-108778571D01*
X129279757Y-108778571D02*
X129351185Y-108921428D01*
X129351185Y-108921428D02*
X129422614Y-108992857D01*
X129422614Y-108992857D02*
X129565471Y-109064285D01*
X120690000Y-89978328D02*
X120190000Y-89264042D01*
X119832857Y-89978328D02*
X119832857Y-88478328D01*
X119832857Y-88478328D02*
X120404286Y-88478328D01*
X120404286Y-88478328D02*
X120547143Y-88549757D01*
X120547143Y-88549757D02*
X120618572Y-88621185D01*
X120618572Y-88621185D02*
X120690000Y-88764042D01*
X120690000Y-88764042D02*
X120690000Y-88978328D01*
X120690000Y-88978328D02*
X120618572Y-89121185D01*
X120618572Y-89121185D02*
X120547143Y-89192614D01*
X120547143Y-89192614D02*
X120404286Y-89264042D01*
X120404286Y-89264042D02*
X119832857Y-89264042D01*
X121975715Y-88478328D02*
X121690000Y-88478328D01*
X121690000Y-88478328D02*
X121547143Y-88549757D01*
X121547143Y-88549757D02*
X121475715Y-88621185D01*
X121475715Y-88621185D02*
X121332857Y-88835471D01*
X121332857Y-88835471D02*
X121261429Y-89121185D01*
X121261429Y-89121185D02*
X121261429Y-89692614D01*
X121261429Y-89692614D02*
X121332857Y-89835471D01*
X121332857Y-89835471D02*
X121404286Y-89906900D01*
X121404286Y-89906900D02*
X121547143Y-89978328D01*
X121547143Y-89978328D02*
X121832857Y-89978328D01*
X121832857Y-89978328D02*
X121975715Y-89906900D01*
X121975715Y-89906900D02*
X122047143Y-89835471D01*
X122047143Y-89835471D02*
X122118572Y-89692614D01*
X122118572Y-89692614D02*
X122118572Y-89335471D01*
X122118572Y-89335471D02*
X122047143Y-89192614D01*
X122047143Y-89192614D02*
X121975715Y-89121185D01*
X121975715Y-89121185D02*
X121832857Y-89049757D01*
X121832857Y-89049757D02*
X121547143Y-89049757D01*
X121547143Y-89049757D02*
X121404286Y-89121185D01*
X121404286Y-89121185D02*
X121332857Y-89192614D01*
X121332857Y-89192614D02*
X121261429Y-89335471D01*
X51226428Y-71128328D02*
X51226428Y-69628328D01*
X52726429Y-71128328D02*
X51869286Y-71128328D01*
X52297857Y-71128328D02*
X52297857Y-69628328D01*
X52297857Y-69628328D02*
X52155000Y-69842614D01*
X52155000Y-69842614D02*
X52012143Y-69985471D01*
X52012143Y-69985471D02*
X51869286Y-70056900D01*
X53655000Y-69628328D02*
X53797857Y-69628328D01*
X53797857Y-69628328D02*
X53940714Y-69699757D01*
X53940714Y-69699757D02*
X54012143Y-69771185D01*
X54012143Y-69771185D02*
X54083571Y-69914042D01*
X54083571Y-69914042D02*
X54155000Y-70199757D01*
X54155000Y-70199757D02*
X54155000Y-70556900D01*
X54155000Y-70556900D02*
X54083571Y-70842614D01*
X54083571Y-70842614D02*
X54012143Y-70985471D01*
X54012143Y-70985471D02*
X53940714Y-71056900D01*
X53940714Y-71056900D02*
X53797857Y-71128328D01*
X53797857Y-71128328D02*
X53655000Y-71128328D01*
X53655000Y-71128328D02*
X53512143Y-71056900D01*
X53512143Y-71056900D02*
X53440714Y-70985471D01*
X53440714Y-70985471D02*
X53369285Y-70842614D01*
X53369285Y-70842614D02*
X53297857Y-70556900D01*
X53297857Y-70556900D02*
X53297857Y-70199757D01*
X53297857Y-70199757D02*
X53369285Y-69914042D01*
X53369285Y-69914042D02*
X53440714Y-69771185D01*
X53440714Y-69771185D02*
X53512143Y-69699757D01*
X53512143Y-69699757D02*
X53655000Y-69628328D01*
D11*
X57218452Y-76074819D02*
X57885118Y-76074819D01*
X57885118Y-76074819D02*
X57456547Y-77074819D01*
X58694642Y-76408152D02*
X58694642Y-77074819D01*
X58456547Y-76027200D02*
X58218452Y-76741485D01*
X58218452Y-76741485D02*
X58837499Y-76741485D01*
X59694642Y-77074819D02*
X59218452Y-77074819D01*
X59218452Y-77074819D02*
X59218452Y-76074819D01*
X59980357Y-77027200D02*
X60123214Y-77074819D01*
X60123214Y-77074819D02*
X60361309Y-77074819D01*
X60361309Y-77074819D02*
X60456547Y-77027200D01*
X60456547Y-77027200D02*
X60504166Y-76979580D01*
X60504166Y-76979580D02*
X60551785Y-76884342D01*
X60551785Y-76884342D02*
X60551785Y-76789104D01*
X60551785Y-76789104D02*
X60504166Y-76693866D01*
X60504166Y-76693866D02*
X60456547Y-76646247D01*
X60456547Y-76646247D02*
X60361309Y-76598628D01*
X60361309Y-76598628D02*
X60170833Y-76551009D01*
X60170833Y-76551009D02*
X60075595Y-76503390D01*
X60075595Y-76503390D02*
X60027976Y-76455771D01*
X60027976Y-76455771D02*
X59980357Y-76360533D01*
X59980357Y-76360533D02*
X59980357Y-76265295D01*
X59980357Y-76265295D02*
X60027976Y-76170057D01*
X60027976Y-76170057D02*
X60075595Y-76122438D01*
X60075595Y-76122438D02*
X60170833Y-76074819D01*
X60170833Y-76074819D02*
X60408928Y-76074819D01*
X60408928Y-76074819D02*
X60551785Y-76122438D01*
X60932738Y-76170057D02*
X60980357Y-76122438D01*
X60980357Y-76122438D02*
X61075595Y-76074819D01*
X61075595Y-76074819D02*
X61313690Y-76074819D01*
X61313690Y-76074819D02*
X61408928Y-76122438D01*
X61408928Y-76122438D02*
X61456547Y-76170057D01*
X61456547Y-76170057D02*
X61504166Y-76265295D01*
X61504166Y-76265295D02*
X61504166Y-76360533D01*
X61504166Y-76360533D02*
X61456547Y-76503390D01*
X61456547Y-76503390D02*
X60885119Y-77074819D01*
X60885119Y-77074819D02*
X61504166Y-77074819D01*
X61980357Y-77074819D02*
X62170833Y-77074819D01*
X62170833Y-77074819D02*
X62266071Y-77027200D01*
X62266071Y-77027200D02*
X62313690Y-76979580D01*
X62313690Y-76979580D02*
X62408928Y-76836723D01*
X62408928Y-76836723D02*
X62456547Y-76646247D01*
X62456547Y-76646247D02*
X62456547Y-76265295D01*
X62456547Y-76265295D02*
X62408928Y-76170057D01*
X62408928Y-76170057D02*
X62361309Y-76122438D01*
X62361309Y-76122438D02*
X62266071Y-76074819D01*
X62266071Y-76074819D02*
X62075595Y-76074819D01*
X62075595Y-76074819D02*
X61980357Y-76122438D01*
X61980357Y-76122438D02*
X61932738Y-76170057D01*
X61932738Y-76170057D02*
X61885119Y-76265295D01*
X61885119Y-76265295D02*
X61885119Y-76503390D01*
X61885119Y-76503390D02*
X61932738Y-76598628D01*
X61932738Y-76598628D02*
X61980357Y-76646247D01*
X61980357Y-76646247D02*
X62075595Y-76693866D01*
X62075595Y-76693866D02*
X62266071Y-76693866D01*
X62266071Y-76693866D02*
X62361309Y-76646247D01*
X62361309Y-76646247D02*
X62408928Y-76598628D01*
X62408928Y-76598628D02*
X62456547Y-76503390D01*
X62789881Y-76074819D02*
X63408928Y-76074819D01*
X63408928Y-76074819D02*
X63075595Y-76455771D01*
X63075595Y-76455771D02*
X63218452Y-76455771D01*
X63218452Y-76455771D02*
X63313690Y-76503390D01*
X63313690Y-76503390D02*
X63361309Y-76551009D01*
X63361309Y-76551009D02*
X63408928Y-76646247D01*
X63408928Y-76646247D02*
X63408928Y-76884342D01*
X63408928Y-76884342D02*
X63361309Y-76979580D01*
X63361309Y-76979580D02*
X63313690Y-77027200D01*
X63313690Y-77027200D02*
X63218452Y-77074819D01*
X63218452Y-77074819D02*
X62932738Y-77074819D01*
X62932738Y-77074819D02*
X62837500Y-77027200D01*
X62837500Y-77027200D02*
X62789881Y-76979580D01*
D10*
X143346190Y-73651185D02*
X143222380Y-73579757D01*
X143222380Y-73579757D02*
X143098571Y-73436900D01*
X143098571Y-73436900D02*
X142912857Y-73222614D01*
X142912857Y-73222614D02*
X142789047Y-73151185D01*
X142789047Y-73151185D02*
X142665238Y-73151185D01*
X142727142Y-73508328D02*
X142603333Y-73436900D01*
X142603333Y-73436900D02*
X142479523Y-73294042D01*
X142479523Y-73294042D02*
X142417619Y-73008328D01*
X142417619Y-73008328D02*
X142417619Y-72508328D01*
X142417619Y-72508328D02*
X142479523Y-72222614D01*
X142479523Y-72222614D02*
X142603333Y-72079757D01*
X142603333Y-72079757D02*
X142727142Y-72008328D01*
X142727142Y-72008328D02*
X142974761Y-72008328D01*
X142974761Y-72008328D02*
X143098571Y-72079757D01*
X143098571Y-72079757D02*
X143222380Y-72222614D01*
X143222380Y-72222614D02*
X143284285Y-72508328D01*
X143284285Y-72508328D02*
X143284285Y-73008328D01*
X143284285Y-73008328D02*
X143222380Y-73294042D01*
X143222380Y-73294042D02*
X143098571Y-73436900D01*
X143098571Y-73436900D02*
X142974761Y-73508328D01*
X142974761Y-73508328D02*
X142727142Y-73508328D01*
X144522381Y-73508328D02*
X143779524Y-73508328D01*
X144150952Y-73508328D02*
X144150952Y-72008328D01*
X144150952Y-72008328D02*
X144027143Y-72222614D01*
X144027143Y-72222614D02*
X143903333Y-72365471D01*
X143903333Y-72365471D02*
X143779524Y-72436900D01*
X159345714Y-83028328D02*
X159345714Y-81528328D01*
X159988572Y-81671185D02*
X160060000Y-81599757D01*
X160060000Y-81599757D02*
X160202858Y-81528328D01*
X160202858Y-81528328D02*
X160560000Y-81528328D01*
X160560000Y-81528328D02*
X160702858Y-81599757D01*
X160702858Y-81599757D02*
X160774286Y-81671185D01*
X160774286Y-81671185D02*
X160845715Y-81814042D01*
X160845715Y-81814042D02*
X160845715Y-81956900D01*
X160845715Y-81956900D02*
X160774286Y-82171185D01*
X160774286Y-82171185D02*
X159917143Y-83028328D01*
X159917143Y-83028328D02*
X160845715Y-83028328D01*
D11*
X171215762Y-91982557D02*
X171263381Y-91934938D01*
X171263381Y-91934938D02*
X171358619Y-91887319D01*
X171358619Y-91887319D02*
X171596714Y-91887319D01*
X171596714Y-91887319D02*
X171691952Y-91934938D01*
X171691952Y-91934938D02*
X171739571Y-91982557D01*
X171739571Y-91982557D02*
X171787190Y-92077795D01*
X171787190Y-92077795D02*
X171787190Y-92173033D01*
X171787190Y-92173033D02*
X171739571Y-92315890D01*
X171739571Y-92315890D02*
X171168143Y-92887319D01*
X171168143Y-92887319D02*
X171787190Y-92887319D01*
X172739571Y-92887319D02*
X172168143Y-92887319D01*
X172453857Y-92887319D02*
X172453857Y-91887319D01*
X172453857Y-91887319D02*
X172358619Y-92030176D01*
X172358619Y-92030176D02*
X172263381Y-92125414D01*
X172263381Y-92125414D02*
X172168143Y-92173033D01*
X173120524Y-91982557D02*
X173168143Y-91934938D01*
X173168143Y-91934938D02*
X173263381Y-91887319D01*
X173263381Y-91887319D02*
X173501476Y-91887319D01*
X173501476Y-91887319D02*
X173596714Y-91934938D01*
X173596714Y-91934938D02*
X173644333Y-91982557D01*
X173644333Y-91982557D02*
X173691952Y-92077795D01*
X173691952Y-92077795D02*
X173691952Y-92173033D01*
X173691952Y-92173033D02*
X173644333Y-92315890D01*
X173644333Y-92315890D02*
X173072905Y-92887319D01*
X173072905Y-92887319D02*
X173691952Y-92887319D01*
X174263381Y-92315890D02*
X174168143Y-92268271D01*
X174168143Y-92268271D02*
X174120524Y-92220652D01*
X174120524Y-92220652D02*
X174072905Y-92125414D01*
X174072905Y-92125414D02*
X174072905Y-92077795D01*
X174072905Y-92077795D02*
X174120524Y-91982557D01*
X174120524Y-91982557D02*
X174168143Y-91934938D01*
X174168143Y-91934938D02*
X174263381Y-91887319D01*
X174263381Y-91887319D02*
X174453857Y-91887319D01*
X174453857Y-91887319D02*
X174549095Y-91934938D01*
X174549095Y-91934938D02*
X174596714Y-91982557D01*
X174596714Y-91982557D02*
X174644333Y-92077795D01*
X174644333Y-92077795D02*
X174644333Y-92125414D01*
X174644333Y-92125414D02*
X174596714Y-92220652D01*
X174596714Y-92220652D02*
X174549095Y-92268271D01*
X174549095Y-92268271D02*
X174453857Y-92315890D01*
X174453857Y-92315890D02*
X174263381Y-92315890D01*
X174263381Y-92315890D02*
X174168143Y-92363509D01*
X174168143Y-92363509D02*
X174120524Y-92411128D01*
X174120524Y-92411128D02*
X174072905Y-92506366D01*
X174072905Y-92506366D02*
X174072905Y-92696842D01*
X174072905Y-92696842D02*
X174120524Y-92792080D01*
X174120524Y-92792080D02*
X174168143Y-92839700D01*
X174168143Y-92839700D02*
X174263381Y-92887319D01*
X174263381Y-92887319D02*
X174453857Y-92887319D01*
X174453857Y-92887319D02*
X174549095Y-92839700D01*
X174549095Y-92839700D02*
X174596714Y-92792080D01*
X174596714Y-92792080D02*
X174644333Y-92696842D01*
X174644333Y-92696842D02*
X174644333Y-92506366D01*
X174644333Y-92506366D02*
X174596714Y-92411128D01*
X174596714Y-92411128D02*
X174549095Y-92363509D01*
X174549095Y-92363509D02*
X174453857Y-92315890D01*
X176406238Y-92887319D02*
X176072905Y-92411128D01*
X175834810Y-92887319D02*
X175834810Y-91887319D01*
X175834810Y-91887319D02*
X176215762Y-91887319D01*
X176215762Y-91887319D02*
X176311000Y-91934938D01*
X176311000Y-91934938D02*
X176358619Y-91982557D01*
X176358619Y-91982557D02*
X176406238Y-92077795D01*
X176406238Y-92077795D02*
X176406238Y-92220652D01*
X176406238Y-92220652D02*
X176358619Y-92315890D01*
X176358619Y-92315890D02*
X176311000Y-92363509D01*
X176311000Y-92363509D02*
X176215762Y-92411128D01*
X176215762Y-92411128D02*
X175834810Y-92411128D01*
X176787191Y-92601604D02*
X177263381Y-92601604D01*
X176691953Y-92887319D02*
X177025286Y-91887319D01*
X177025286Y-91887319D02*
X177358619Y-92887319D01*
X177691953Y-92887319D02*
X177691953Y-91887319D01*
X177691953Y-91887319D02*
X178025286Y-92601604D01*
X178025286Y-92601604D02*
X178358619Y-91887319D01*
X178358619Y-91887319D02*
X178358619Y-92887319D01*
D10*
X72911428Y-71128328D02*
X72911428Y-69628328D01*
X74411429Y-71128328D02*
X73554286Y-71128328D01*
X73982857Y-71128328D02*
X73982857Y-69628328D01*
X73982857Y-69628328D02*
X73840000Y-69842614D01*
X73840000Y-69842614D02*
X73697143Y-69985471D01*
X73697143Y-69985471D02*
X73554286Y-70056900D01*
X75840000Y-71128328D02*
X74982857Y-71128328D01*
X75411428Y-71128328D02*
X75411428Y-69628328D01*
X75411428Y-69628328D02*
X75268571Y-69842614D01*
X75268571Y-69842614D02*
X75125714Y-69985471D01*
X75125714Y-69985471D02*
X74982857Y-70056900D01*
D11*
X79209643Y-76074819D02*
X79876309Y-76074819D01*
X79876309Y-76074819D02*
X79447738Y-77074819D01*
X80685833Y-76408152D02*
X80685833Y-77074819D01*
X80447738Y-76027200D02*
X80209643Y-76741485D01*
X80209643Y-76741485D02*
X80828690Y-76741485D01*
X81685833Y-77074819D02*
X81209643Y-77074819D01*
X81209643Y-77074819D02*
X81209643Y-76074819D01*
X81971548Y-77027200D02*
X82114405Y-77074819D01*
X82114405Y-77074819D02*
X82352500Y-77074819D01*
X82352500Y-77074819D02*
X82447738Y-77027200D01*
X82447738Y-77027200D02*
X82495357Y-76979580D01*
X82495357Y-76979580D02*
X82542976Y-76884342D01*
X82542976Y-76884342D02*
X82542976Y-76789104D01*
X82542976Y-76789104D02*
X82495357Y-76693866D01*
X82495357Y-76693866D02*
X82447738Y-76646247D01*
X82447738Y-76646247D02*
X82352500Y-76598628D01*
X82352500Y-76598628D02*
X82162024Y-76551009D01*
X82162024Y-76551009D02*
X82066786Y-76503390D01*
X82066786Y-76503390D02*
X82019167Y-76455771D01*
X82019167Y-76455771D02*
X81971548Y-76360533D01*
X81971548Y-76360533D02*
X81971548Y-76265295D01*
X81971548Y-76265295D02*
X82019167Y-76170057D01*
X82019167Y-76170057D02*
X82066786Y-76122438D01*
X82066786Y-76122438D02*
X82162024Y-76074819D01*
X82162024Y-76074819D02*
X82400119Y-76074819D01*
X82400119Y-76074819D02*
X82542976Y-76122438D01*
X83162024Y-76074819D02*
X83257262Y-76074819D01*
X83257262Y-76074819D02*
X83352500Y-76122438D01*
X83352500Y-76122438D02*
X83400119Y-76170057D01*
X83400119Y-76170057D02*
X83447738Y-76265295D01*
X83447738Y-76265295D02*
X83495357Y-76455771D01*
X83495357Y-76455771D02*
X83495357Y-76693866D01*
X83495357Y-76693866D02*
X83447738Y-76884342D01*
X83447738Y-76884342D02*
X83400119Y-76979580D01*
X83400119Y-76979580D02*
X83352500Y-77027200D01*
X83352500Y-77027200D02*
X83257262Y-77074819D01*
X83257262Y-77074819D02*
X83162024Y-77074819D01*
X83162024Y-77074819D02*
X83066786Y-77027200D01*
X83066786Y-77027200D02*
X83019167Y-76979580D01*
X83019167Y-76979580D02*
X82971548Y-76884342D01*
X82971548Y-76884342D02*
X82923929Y-76693866D01*
X82923929Y-76693866D02*
X82923929Y-76455771D01*
X82923929Y-76455771D02*
X82971548Y-76265295D01*
X82971548Y-76265295D02*
X83019167Y-76170057D01*
X83019167Y-76170057D02*
X83066786Y-76122438D01*
X83066786Y-76122438D02*
X83162024Y-76074819D01*
X84352500Y-76408152D02*
X84352500Y-77074819D01*
X84114405Y-76027200D02*
X83876310Y-76741485D01*
X83876310Y-76741485D02*
X84495357Y-76741485D01*
D10*
X94825714Y-103328328D02*
X94825714Y-101828328D01*
X95397143Y-101828328D02*
X96397143Y-101828328D01*
X96397143Y-101828328D02*
X95754286Y-103328328D01*
D11*
X101305643Y-95714819D02*
X101972309Y-95714819D01*
X101972309Y-95714819D02*
X101543738Y-96714819D01*
X102781833Y-96048152D02*
X102781833Y-96714819D01*
X102543738Y-95667200D02*
X102305643Y-96381485D01*
X102305643Y-96381485D02*
X102924690Y-96381485D01*
X103781833Y-96714819D02*
X103305643Y-96714819D01*
X103305643Y-96714819D02*
X103305643Y-95714819D01*
X104067548Y-96667200D02*
X104210405Y-96714819D01*
X104210405Y-96714819D02*
X104448500Y-96714819D01*
X104448500Y-96714819D02*
X104543738Y-96667200D01*
X104543738Y-96667200D02*
X104591357Y-96619580D01*
X104591357Y-96619580D02*
X104638976Y-96524342D01*
X104638976Y-96524342D02*
X104638976Y-96429104D01*
X104638976Y-96429104D02*
X104591357Y-96333866D01*
X104591357Y-96333866D02*
X104543738Y-96286247D01*
X104543738Y-96286247D02*
X104448500Y-96238628D01*
X104448500Y-96238628D02*
X104258024Y-96191009D01*
X104258024Y-96191009D02*
X104162786Y-96143390D01*
X104162786Y-96143390D02*
X104115167Y-96095771D01*
X104115167Y-96095771D02*
X104067548Y-96000533D01*
X104067548Y-96000533D02*
X104067548Y-95905295D01*
X104067548Y-95905295D02*
X104115167Y-95810057D01*
X104115167Y-95810057D02*
X104162786Y-95762438D01*
X104162786Y-95762438D02*
X104258024Y-95714819D01*
X104258024Y-95714819D02*
X104496119Y-95714819D01*
X104496119Y-95714819D02*
X104638976Y-95762438D01*
X104972310Y-95714819D02*
X105591357Y-95714819D01*
X105591357Y-95714819D02*
X105258024Y-96095771D01*
X105258024Y-96095771D02*
X105400881Y-96095771D01*
X105400881Y-96095771D02*
X105496119Y-96143390D01*
X105496119Y-96143390D02*
X105543738Y-96191009D01*
X105543738Y-96191009D02*
X105591357Y-96286247D01*
X105591357Y-96286247D02*
X105591357Y-96524342D01*
X105591357Y-96524342D02*
X105543738Y-96619580D01*
X105543738Y-96619580D02*
X105496119Y-96667200D01*
X105496119Y-96667200D02*
X105400881Y-96714819D01*
X105400881Y-96714819D02*
X105115167Y-96714819D01*
X105115167Y-96714819D02*
X105019929Y-96667200D01*
X105019929Y-96667200D02*
X104972310Y-96619580D01*
X105972310Y-95810057D02*
X106019929Y-95762438D01*
X106019929Y-95762438D02*
X106115167Y-95714819D01*
X106115167Y-95714819D02*
X106353262Y-95714819D01*
X106353262Y-95714819D02*
X106448500Y-95762438D01*
X106448500Y-95762438D02*
X106496119Y-95810057D01*
X106496119Y-95810057D02*
X106543738Y-95905295D01*
X106543738Y-95905295D02*
X106543738Y-96000533D01*
X106543738Y-96000533D02*
X106496119Y-96143390D01*
X106496119Y-96143390D02*
X105924691Y-96714819D01*
X105924691Y-96714819D02*
X106543738Y-96714819D01*
D10*
X241575714Y-80795471D02*
X241504286Y-80866900D01*
X241504286Y-80866900D02*
X241290000Y-80938328D01*
X241290000Y-80938328D02*
X241147143Y-80938328D01*
X241147143Y-80938328D02*
X240932857Y-80866900D01*
X240932857Y-80866900D02*
X240790000Y-80724042D01*
X240790000Y-80724042D02*
X240718571Y-80581185D01*
X240718571Y-80581185D02*
X240647143Y-80295471D01*
X240647143Y-80295471D02*
X240647143Y-80081185D01*
X240647143Y-80081185D02*
X240718571Y-79795471D01*
X240718571Y-79795471D02*
X240790000Y-79652614D01*
X240790000Y-79652614D02*
X240932857Y-79509757D01*
X240932857Y-79509757D02*
X241147143Y-79438328D01*
X241147143Y-79438328D02*
X241290000Y-79438328D01*
X241290000Y-79438328D02*
X241504286Y-79509757D01*
X241504286Y-79509757D02*
X241575714Y-79581185D01*
X242861429Y-79938328D02*
X242861429Y-80938328D01*
X242504286Y-79366900D02*
X242147143Y-80438328D01*
X242147143Y-80438328D02*
X243075714Y-80438328D01*
X243932857Y-79438328D02*
X244075714Y-79438328D01*
X244075714Y-79438328D02*
X244218571Y-79509757D01*
X244218571Y-79509757D02*
X244290000Y-79581185D01*
X244290000Y-79581185D02*
X244361428Y-79724042D01*
X244361428Y-79724042D02*
X244432857Y-80009757D01*
X244432857Y-80009757D02*
X244432857Y-80366900D01*
X244432857Y-80366900D02*
X244361428Y-80652614D01*
X244361428Y-80652614D02*
X244290000Y-80795471D01*
X244290000Y-80795471D02*
X244218571Y-80866900D01*
X244218571Y-80866900D02*
X244075714Y-80938328D01*
X244075714Y-80938328D02*
X243932857Y-80938328D01*
X243932857Y-80938328D02*
X243790000Y-80866900D01*
X243790000Y-80866900D02*
X243718571Y-80795471D01*
X243718571Y-80795471D02*
X243647142Y-80652614D01*
X243647142Y-80652614D02*
X243575714Y-80366900D01*
X243575714Y-80366900D02*
X243575714Y-80009757D01*
X243575714Y-80009757D02*
X243647142Y-79724042D01*
X243647142Y-79724042D02*
X243718571Y-79581185D01*
X243718571Y-79581185D02*
X243790000Y-79509757D01*
X243790000Y-79509757D02*
X243932857Y-79438328D01*
X102170714Y-116418328D02*
X102170714Y-114918328D01*
X102170714Y-114918328D02*
X102670714Y-115989757D01*
X102670714Y-115989757D02*
X103170714Y-114918328D01*
X103170714Y-114918328D02*
X103170714Y-116418328D01*
X104670715Y-116418328D02*
X103813572Y-116418328D01*
X104242143Y-116418328D02*
X104242143Y-114918328D01*
X104242143Y-114918328D02*
X104099286Y-115132614D01*
X104099286Y-115132614D02*
X103956429Y-115275471D01*
X103956429Y-115275471D02*
X103813572Y-115346900D01*
D11*
X94923333Y-118377200D02*
X95066190Y-118424819D01*
X95066190Y-118424819D02*
X95304285Y-118424819D01*
X95304285Y-118424819D02*
X95399523Y-118377200D01*
X95399523Y-118377200D02*
X95447142Y-118329580D01*
X95447142Y-118329580D02*
X95494761Y-118234342D01*
X95494761Y-118234342D02*
X95494761Y-118139104D01*
X95494761Y-118139104D02*
X95447142Y-118043866D01*
X95447142Y-118043866D02*
X95399523Y-117996247D01*
X95399523Y-117996247D02*
X95304285Y-117948628D01*
X95304285Y-117948628D02*
X95113809Y-117901009D01*
X95113809Y-117901009D02*
X95018571Y-117853390D01*
X95018571Y-117853390D02*
X94970952Y-117805771D01*
X94970952Y-117805771D02*
X94923333Y-117710533D01*
X94923333Y-117710533D02*
X94923333Y-117615295D01*
X94923333Y-117615295D02*
X94970952Y-117520057D01*
X94970952Y-117520057D02*
X95018571Y-117472438D01*
X95018571Y-117472438D02*
X95113809Y-117424819D01*
X95113809Y-117424819D02*
X95351904Y-117424819D01*
X95351904Y-117424819D02*
X95494761Y-117472438D01*
X95923333Y-118424819D02*
X95923333Y-117424819D01*
X95923333Y-117424819D02*
X96304285Y-117424819D01*
X96304285Y-117424819D02*
X96399523Y-117472438D01*
X96399523Y-117472438D02*
X96447142Y-117520057D01*
X96447142Y-117520057D02*
X96494761Y-117615295D01*
X96494761Y-117615295D02*
X96494761Y-117758152D01*
X96494761Y-117758152D02*
X96447142Y-117853390D01*
X96447142Y-117853390D02*
X96399523Y-117901009D01*
X96399523Y-117901009D02*
X96304285Y-117948628D01*
X96304285Y-117948628D02*
X95923333Y-117948628D01*
X96875714Y-118139104D02*
X97351904Y-118139104D01*
X96780476Y-118424819D02*
X97113809Y-117424819D01*
X97113809Y-117424819D02*
X97447142Y-118424819D01*
X98351904Y-118424819D02*
X98018571Y-117948628D01*
X97780476Y-118424819D02*
X97780476Y-117424819D01*
X97780476Y-117424819D02*
X98161428Y-117424819D01*
X98161428Y-117424819D02*
X98256666Y-117472438D01*
X98256666Y-117472438D02*
X98304285Y-117520057D01*
X98304285Y-117520057D02*
X98351904Y-117615295D01*
X98351904Y-117615295D02*
X98351904Y-117758152D01*
X98351904Y-117758152D02*
X98304285Y-117853390D01*
X98304285Y-117853390D02*
X98256666Y-117901009D01*
X98256666Y-117901009D02*
X98161428Y-117948628D01*
X98161428Y-117948628D02*
X97780476Y-117948628D01*
X98780476Y-117901009D02*
X99113809Y-117901009D01*
X99256666Y-118424819D02*
X98780476Y-118424819D01*
X98780476Y-118424819D02*
X98780476Y-117424819D01*
X98780476Y-117424819D02*
X99256666Y-117424819D01*
D10*
X243525471Y-116816785D02*
X243596900Y-116888213D01*
X243596900Y-116888213D02*
X243668328Y-117102499D01*
X243668328Y-117102499D02*
X243668328Y-117245356D01*
X243668328Y-117245356D02*
X243596900Y-117459642D01*
X243596900Y-117459642D02*
X243454042Y-117602499D01*
X243454042Y-117602499D02*
X243311185Y-117673928D01*
X243311185Y-117673928D02*
X243025471Y-117745356D01*
X243025471Y-117745356D02*
X242811185Y-117745356D01*
X242811185Y-117745356D02*
X242525471Y-117673928D01*
X242525471Y-117673928D02*
X242382614Y-117602499D01*
X242382614Y-117602499D02*
X242239757Y-117459642D01*
X242239757Y-117459642D02*
X242168328Y-117245356D01*
X242168328Y-117245356D02*
X242168328Y-117102499D01*
X242168328Y-117102499D02*
X242239757Y-116888213D01*
X242239757Y-116888213D02*
X242311185Y-116816785D01*
X242668328Y-115531071D02*
X243668328Y-115531071D01*
X242096900Y-115888213D02*
X243168328Y-116245356D01*
X243168328Y-116245356D02*
X243168328Y-115316785D01*
X243668328Y-113959642D02*
X243668328Y-114816785D01*
X243668328Y-114388214D02*
X242168328Y-114388214D01*
X242168328Y-114388214D02*
X242382614Y-114531071D01*
X242382614Y-114531071D02*
X242525471Y-114673928D01*
X242525471Y-114673928D02*
X242596900Y-114816785D01*
X106711428Y-122208328D02*
X106711428Y-120708328D01*
X108211429Y-122208328D02*
X107354286Y-122208328D01*
X107782857Y-122208328D02*
X107782857Y-120708328D01*
X107782857Y-120708328D02*
X107640000Y-120922614D01*
X107640000Y-120922614D02*
X107497143Y-121065471D01*
X107497143Y-121065471D02*
X107354286Y-121136900D01*
X108711428Y-120708328D02*
X109640000Y-120708328D01*
X109640000Y-120708328D02*
X109140000Y-121279757D01*
X109140000Y-121279757D02*
X109354285Y-121279757D01*
X109354285Y-121279757D02*
X109497143Y-121351185D01*
X109497143Y-121351185D02*
X109568571Y-121422614D01*
X109568571Y-121422614D02*
X109640000Y-121565471D01*
X109640000Y-121565471D02*
X109640000Y-121922614D01*
X109640000Y-121922614D02*
X109568571Y-122065471D01*
X109568571Y-122065471D02*
X109497143Y-122136900D01*
X109497143Y-122136900D02*
X109354285Y-122208328D01*
X109354285Y-122208328D02*
X108925714Y-122208328D01*
X108925714Y-122208328D02*
X108782857Y-122136900D01*
X108782857Y-122136900D02*
X108711428Y-122065471D01*
D11*
X114020952Y-114599819D02*
X114687618Y-114599819D01*
X114687618Y-114599819D02*
X114259047Y-115599819D01*
X115497142Y-114933152D02*
X115497142Y-115599819D01*
X115259047Y-114552200D02*
X115020952Y-115266485D01*
X115020952Y-115266485D02*
X115639999Y-115266485D01*
X116497142Y-115599819D02*
X116020952Y-115599819D01*
X116020952Y-115599819D02*
X116020952Y-114599819D01*
X116782857Y-115552200D02*
X116925714Y-115599819D01*
X116925714Y-115599819D02*
X117163809Y-115599819D01*
X117163809Y-115599819D02*
X117259047Y-115552200D01*
X117259047Y-115552200D02*
X117306666Y-115504580D01*
X117306666Y-115504580D02*
X117354285Y-115409342D01*
X117354285Y-115409342D02*
X117354285Y-115314104D01*
X117354285Y-115314104D02*
X117306666Y-115218866D01*
X117306666Y-115218866D02*
X117259047Y-115171247D01*
X117259047Y-115171247D02*
X117163809Y-115123628D01*
X117163809Y-115123628D02*
X116973333Y-115076009D01*
X116973333Y-115076009D02*
X116878095Y-115028390D01*
X116878095Y-115028390D02*
X116830476Y-114980771D01*
X116830476Y-114980771D02*
X116782857Y-114885533D01*
X116782857Y-114885533D02*
X116782857Y-114790295D01*
X116782857Y-114790295D02*
X116830476Y-114695057D01*
X116830476Y-114695057D02*
X116878095Y-114647438D01*
X116878095Y-114647438D02*
X116973333Y-114599819D01*
X116973333Y-114599819D02*
X117211428Y-114599819D01*
X117211428Y-114599819D02*
X117354285Y-114647438D01*
X118306666Y-115599819D02*
X117735238Y-115599819D01*
X118020952Y-115599819D02*
X118020952Y-114599819D01*
X118020952Y-114599819D02*
X117925714Y-114742676D01*
X117925714Y-114742676D02*
X117830476Y-114837914D01*
X117830476Y-114837914D02*
X117735238Y-114885533D01*
X119211428Y-114599819D02*
X118735238Y-114599819D01*
X118735238Y-114599819D02*
X118687619Y-115076009D01*
X118687619Y-115076009D02*
X118735238Y-115028390D01*
X118735238Y-115028390D02*
X118830476Y-114980771D01*
X118830476Y-114980771D02*
X119068571Y-114980771D01*
X119068571Y-114980771D02*
X119163809Y-115028390D01*
X119163809Y-115028390D02*
X119211428Y-115076009D01*
X119211428Y-115076009D02*
X119259047Y-115171247D01*
X119259047Y-115171247D02*
X119259047Y-115409342D01*
X119259047Y-115409342D02*
X119211428Y-115504580D01*
X119211428Y-115504580D02*
X119163809Y-115552200D01*
X119163809Y-115552200D02*
X119068571Y-115599819D01*
X119068571Y-115599819D02*
X118830476Y-115599819D01*
X118830476Y-115599819D02*
X118735238Y-115552200D01*
X118735238Y-115552200D02*
X118687619Y-115504580D01*
X119592381Y-114599819D02*
X120259047Y-114599819D01*
X120259047Y-114599819D02*
X119830476Y-115599819D01*
D10*
X72865714Y-103328328D02*
X72865714Y-101828328D01*
X74222858Y-101828328D02*
X73937143Y-101828328D01*
X73937143Y-101828328D02*
X73794286Y-101899757D01*
X73794286Y-101899757D02*
X73722858Y-101971185D01*
X73722858Y-101971185D02*
X73580000Y-102185471D01*
X73580000Y-102185471D02*
X73508572Y-102471185D01*
X73508572Y-102471185D02*
X73508572Y-103042614D01*
X73508572Y-103042614D02*
X73580000Y-103185471D01*
X73580000Y-103185471D02*
X73651429Y-103256900D01*
X73651429Y-103256900D02*
X73794286Y-103328328D01*
X73794286Y-103328328D02*
X74080000Y-103328328D01*
X74080000Y-103328328D02*
X74222858Y-103256900D01*
X74222858Y-103256900D02*
X74294286Y-103185471D01*
X74294286Y-103185471D02*
X74365715Y-103042614D01*
X74365715Y-103042614D02*
X74365715Y-102685471D01*
X74365715Y-102685471D02*
X74294286Y-102542614D01*
X74294286Y-102542614D02*
X74222858Y-102471185D01*
X74222858Y-102471185D02*
X74080000Y-102399757D01*
X74080000Y-102399757D02*
X73794286Y-102399757D01*
X73794286Y-102399757D02*
X73651429Y-102471185D01*
X73651429Y-102471185D02*
X73580000Y-102542614D01*
X73580000Y-102542614D02*
X73508572Y-102685471D01*
D11*
X79335643Y-95714819D02*
X80002309Y-95714819D01*
X80002309Y-95714819D02*
X79573738Y-96714819D01*
X80811833Y-96048152D02*
X80811833Y-96714819D01*
X80573738Y-95667200D02*
X80335643Y-96381485D01*
X80335643Y-96381485D02*
X80954690Y-96381485D01*
X81811833Y-96714819D02*
X81335643Y-96714819D01*
X81335643Y-96714819D02*
X81335643Y-95714819D01*
X82097548Y-96667200D02*
X82240405Y-96714819D01*
X82240405Y-96714819D02*
X82478500Y-96714819D01*
X82478500Y-96714819D02*
X82573738Y-96667200D01*
X82573738Y-96667200D02*
X82621357Y-96619580D01*
X82621357Y-96619580D02*
X82668976Y-96524342D01*
X82668976Y-96524342D02*
X82668976Y-96429104D01*
X82668976Y-96429104D02*
X82621357Y-96333866D01*
X82621357Y-96333866D02*
X82573738Y-96286247D01*
X82573738Y-96286247D02*
X82478500Y-96238628D01*
X82478500Y-96238628D02*
X82288024Y-96191009D01*
X82288024Y-96191009D02*
X82192786Y-96143390D01*
X82192786Y-96143390D02*
X82145167Y-96095771D01*
X82145167Y-96095771D02*
X82097548Y-96000533D01*
X82097548Y-96000533D02*
X82097548Y-95905295D01*
X82097548Y-95905295D02*
X82145167Y-95810057D01*
X82145167Y-95810057D02*
X82192786Y-95762438D01*
X82192786Y-95762438D02*
X82288024Y-95714819D01*
X82288024Y-95714819D02*
X82526119Y-95714819D01*
X82526119Y-95714819D02*
X82668976Y-95762438D01*
X83288024Y-95714819D02*
X83383262Y-95714819D01*
X83383262Y-95714819D02*
X83478500Y-95762438D01*
X83478500Y-95762438D02*
X83526119Y-95810057D01*
X83526119Y-95810057D02*
X83573738Y-95905295D01*
X83573738Y-95905295D02*
X83621357Y-96095771D01*
X83621357Y-96095771D02*
X83621357Y-96333866D01*
X83621357Y-96333866D02*
X83573738Y-96524342D01*
X83573738Y-96524342D02*
X83526119Y-96619580D01*
X83526119Y-96619580D02*
X83478500Y-96667200D01*
X83478500Y-96667200D02*
X83383262Y-96714819D01*
X83383262Y-96714819D02*
X83288024Y-96714819D01*
X83288024Y-96714819D02*
X83192786Y-96667200D01*
X83192786Y-96667200D02*
X83145167Y-96619580D01*
X83145167Y-96619580D02*
X83097548Y-96524342D01*
X83097548Y-96524342D02*
X83049929Y-96333866D01*
X83049929Y-96333866D02*
X83049929Y-96095771D01*
X83049929Y-96095771D02*
X83097548Y-95905295D01*
X83097548Y-95905295D02*
X83145167Y-95810057D01*
X83145167Y-95810057D02*
X83192786Y-95762438D01*
X83192786Y-95762438D02*
X83288024Y-95714819D01*
X84478500Y-96048152D02*
X84478500Y-96714819D01*
X84240405Y-95667200D02*
X84002310Y-96381485D01*
X84002310Y-96381485D02*
X84621357Y-96381485D01*
D10*
X88922857Y-121148328D02*
X88922857Y-119648328D01*
X88922857Y-119648328D02*
X89422857Y-120719757D01*
X89422857Y-120719757D02*
X89922857Y-119648328D01*
X89922857Y-119648328D02*
X89922857Y-121148328D01*
X90494286Y-119648328D02*
X91422858Y-119648328D01*
X91422858Y-119648328D02*
X90922858Y-120219757D01*
X90922858Y-120219757D02*
X91137143Y-120219757D01*
X91137143Y-120219757D02*
X91280001Y-120291185D01*
X91280001Y-120291185D02*
X91351429Y-120362614D01*
X91351429Y-120362614D02*
X91422858Y-120505471D01*
X91422858Y-120505471D02*
X91422858Y-120862614D01*
X91422858Y-120862614D02*
X91351429Y-121005471D01*
X91351429Y-121005471D02*
X91280001Y-121076900D01*
X91280001Y-121076900D02*
X91137143Y-121148328D01*
X91137143Y-121148328D02*
X90708572Y-121148328D01*
X90708572Y-121148328D02*
X90565715Y-121076900D01*
X90565715Y-121076900D02*
X90494286Y-121005471D01*
D11*
X82475714Y-123019104D02*
X82951904Y-123019104D01*
X82380476Y-123304819D02*
X82713809Y-122304819D01*
X82713809Y-122304819D02*
X83047142Y-123304819D01*
X83380476Y-122304819D02*
X83380476Y-123114342D01*
X83380476Y-123114342D02*
X83428095Y-123209580D01*
X83428095Y-123209580D02*
X83475714Y-123257200D01*
X83475714Y-123257200D02*
X83570952Y-123304819D01*
X83570952Y-123304819D02*
X83761428Y-123304819D01*
X83761428Y-123304819D02*
X83856666Y-123257200D01*
X83856666Y-123257200D02*
X83904285Y-123209580D01*
X83904285Y-123209580D02*
X83951904Y-123114342D01*
X83951904Y-123114342D02*
X83951904Y-122304819D01*
X84570952Y-122733390D02*
X84475714Y-122685771D01*
X84475714Y-122685771D02*
X84428095Y-122638152D01*
X84428095Y-122638152D02*
X84380476Y-122542914D01*
X84380476Y-122542914D02*
X84380476Y-122495295D01*
X84380476Y-122495295D02*
X84428095Y-122400057D01*
X84428095Y-122400057D02*
X84475714Y-122352438D01*
X84475714Y-122352438D02*
X84570952Y-122304819D01*
X84570952Y-122304819D02*
X84761428Y-122304819D01*
X84761428Y-122304819D02*
X84856666Y-122352438D01*
X84856666Y-122352438D02*
X84904285Y-122400057D01*
X84904285Y-122400057D02*
X84951904Y-122495295D01*
X84951904Y-122495295D02*
X84951904Y-122542914D01*
X84951904Y-122542914D02*
X84904285Y-122638152D01*
X84904285Y-122638152D02*
X84856666Y-122685771D01*
X84856666Y-122685771D02*
X84761428Y-122733390D01*
X84761428Y-122733390D02*
X84570952Y-122733390D01*
X84570952Y-122733390D02*
X84475714Y-122781009D01*
X84475714Y-122781009D02*
X84428095Y-122828628D01*
X84428095Y-122828628D02*
X84380476Y-122923866D01*
X84380476Y-122923866D02*
X84380476Y-123114342D01*
X84380476Y-123114342D02*
X84428095Y-123209580D01*
X84428095Y-123209580D02*
X84475714Y-123257200D01*
X84475714Y-123257200D02*
X84570952Y-123304819D01*
X84570952Y-123304819D02*
X84761428Y-123304819D01*
X84761428Y-123304819D02*
X84856666Y-123257200D01*
X84856666Y-123257200D02*
X84904285Y-123209580D01*
X84904285Y-123209580D02*
X84951904Y-123114342D01*
X84951904Y-123114342D02*
X84951904Y-122923866D01*
X84951904Y-122923866D02*
X84904285Y-122828628D01*
X84904285Y-122828628D02*
X84856666Y-122781009D01*
X84856666Y-122781009D02*
X84761428Y-122733390D01*
X85570952Y-122304819D02*
X85666190Y-122304819D01*
X85666190Y-122304819D02*
X85761428Y-122352438D01*
X85761428Y-122352438D02*
X85809047Y-122400057D01*
X85809047Y-122400057D02*
X85856666Y-122495295D01*
X85856666Y-122495295D02*
X85904285Y-122685771D01*
X85904285Y-122685771D02*
X85904285Y-122923866D01*
X85904285Y-122923866D02*
X85856666Y-123114342D01*
X85856666Y-123114342D02*
X85809047Y-123209580D01*
X85809047Y-123209580D02*
X85761428Y-123257200D01*
X85761428Y-123257200D02*
X85666190Y-123304819D01*
X85666190Y-123304819D02*
X85570952Y-123304819D01*
X85570952Y-123304819D02*
X85475714Y-123257200D01*
X85475714Y-123257200D02*
X85428095Y-123209580D01*
X85428095Y-123209580D02*
X85380476Y-123114342D01*
X85380476Y-123114342D02*
X85332857Y-122923866D01*
X85332857Y-122923866D02*
X85332857Y-122685771D01*
X85332857Y-122685771D02*
X85380476Y-122495295D01*
X85380476Y-122495295D02*
X85428095Y-122400057D01*
X85428095Y-122400057D02*
X85475714Y-122352438D01*
X85475714Y-122352438D02*
X85570952Y-122304819D01*
D10*
X138427428Y-90738328D02*
X138427428Y-89238328D01*
X139927429Y-90738328D02*
X139070286Y-90738328D01*
X139498857Y-90738328D02*
X139498857Y-89238328D01*
X139498857Y-89238328D02*
X139356000Y-89452614D01*
X139356000Y-89452614D02*
X139213143Y-89595471D01*
X139213143Y-89595471D02*
X139070286Y-89666900D01*
X140427428Y-89238328D02*
X141427428Y-89238328D01*
X141427428Y-89238328D02*
X140784571Y-90738328D01*
D11*
X144903143Y-95714819D02*
X145569809Y-95714819D01*
X145569809Y-95714819D02*
X145141238Y-96714819D01*
X146379333Y-96048152D02*
X146379333Y-96714819D01*
X146141238Y-95667200D02*
X145903143Y-96381485D01*
X145903143Y-96381485D02*
X146522190Y-96381485D01*
X147379333Y-96714819D02*
X146903143Y-96714819D01*
X146903143Y-96714819D02*
X146903143Y-95714819D01*
X147665048Y-96667200D02*
X147807905Y-96714819D01*
X147807905Y-96714819D02*
X148046000Y-96714819D01*
X148046000Y-96714819D02*
X148141238Y-96667200D01*
X148141238Y-96667200D02*
X148188857Y-96619580D01*
X148188857Y-96619580D02*
X148236476Y-96524342D01*
X148236476Y-96524342D02*
X148236476Y-96429104D01*
X148236476Y-96429104D02*
X148188857Y-96333866D01*
X148188857Y-96333866D02*
X148141238Y-96286247D01*
X148141238Y-96286247D02*
X148046000Y-96238628D01*
X148046000Y-96238628D02*
X147855524Y-96191009D01*
X147855524Y-96191009D02*
X147760286Y-96143390D01*
X147760286Y-96143390D02*
X147712667Y-96095771D01*
X147712667Y-96095771D02*
X147665048Y-96000533D01*
X147665048Y-96000533D02*
X147665048Y-95905295D01*
X147665048Y-95905295D02*
X147712667Y-95810057D01*
X147712667Y-95810057D02*
X147760286Y-95762438D01*
X147760286Y-95762438D02*
X147855524Y-95714819D01*
X147855524Y-95714819D02*
X148093619Y-95714819D01*
X148093619Y-95714819D02*
X148236476Y-95762438D01*
X149188857Y-96714819D02*
X148617429Y-96714819D01*
X148903143Y-96714819D02*
X148903143Y-95714819D01*
X148903143Y-95714819D02*
X148807905Y-95857676D01*
X148807905Y-95857676D02*
X148712667Y-95952914D01*
X148712667Y-95952914D02*
X148617429Y-96000533D01*
X149807905Y-95714819D02*
X149903143Y-95714819D01*
X149903143Y-95714819D02*
X149998381Y-95762438D01*
X149998381Y-95762438D02*
X150046000Y-95810057D01*
X150046000Y-95810057D02*
X150093619Y-95905295D01*
X150093619Y-95905295D02*
X150141238Y-96095771D01*
X150141238Y-96095771D02*
X150141238Y-96333866D01*
X150141238Y-96333866D02*
X150093619Y-96524342D01*
X150093619Y-96524342D02*
X150046000Y-96619580D01*
X150046000Y-96619580D02*
X149998381Y-96667200D01*
X149998381Y-96667200D02*
X149903143Y-96714819D01*
X149903143Y-96714819D02*
X149807905Y-96714819D01*
X149807905Y-96714819D02*
X149712667Y-96667200D01*
X149712667Y-96667200D02*
X149665048Y-96619580D01*
X149665048Y-96619580D02*
X149617429Y-96524342D01*
X149617429Y-96524342D02*
X149569810Y-96333866D01*
X149569810Y-96333866D02*
X149569810Y-96095771D01*
X149569810Y-96095771D02*
X149617429Y-95905295D01*
X149617429Y-95905295D02*
X149665048Y-95810057D01*
X149665048Y-95810057D02*
X149712667Y-95762438D01*
X149712667Y-95762438D02*
X149807905Y-95714819D01*
D10*
X200055714Y-71188328D02*
X200055714Y-69688328D01*
X201412858Y-70188328D02*
X201412858Y-71188328D01*
X201055715Y-69616900D02*
X200698572Y-70688328D01*
X200698572Y-70688328D02*
X201627143Y-70688328D01*
D11*
X215858214Y-80082557D02*
X215905833Y-80034938D01*
X215905833Y-80034938D02*
X216001071Y-79987319D01*
X216001071Y-79987319D02*
X216239166Y-79987319D01*
X216239166Y-79987319D02*
X216334404Y-80034938D01*
X216334404Y-80034938D02*
X216382023Y-80082557D01*
X216382023Y-80082557D02*
X216429642Y-80177795D01*
X216429642Y-80177795D02*
X216429642Y-80273033D01*
X216429642Y-80273033D02*
X216382023Y-80415890D01*
X216382023Y-80415890D02*
X215810595Y-80987319D01*
X215810595Y-80987319D02*
X216429642Y-80987319D01*
X216762976Y-79987319D02*
X217429642Y-79987319D01*
X217429642Y-79987319D02*
X217001071Y-80987319D01*
X218382023Y-80892080D02*
X218334404Y-80939700D01*
X218334404Y-80939700D02*
X218191547Y-80987319D01*
X218191547Y-80987319D02*
X218096309Y-80987319D01*
X218096309Y-80987319D02*
X217953452Y-80939700D01*
X217953452Y-80939700D02*
X217858214Y-80844461D01*
X217858214Y-80844461D02*
X217810595Y-80749223D01*
X217810595Y-80749223D02*
X217762976Y-80558747D01*
X217762976Y-80558747D02*
X217762976Y-80415890D01*
X217762976Y-80415890D02*
X217810595Y-80225414D01*
X217810595Y-80225414D02*
X217858214Y-80130176D01*
X217858214Y-80130176D02*
X217953452Y-80034938D01*
X217953452Y-80034938D02*
X218096309Y-79987319D01*
X218096309Y-79987319D02*
X218191547Y-79987319D01*
X218191547Y-79987319D02*
X218334404Y-80034938D01*
X218334404Y-80034938D02*
X218382023Y-80082557D01*
X219239166Y-79987319D02*
X219048690Y-79987319D01*
X219048690Y-79987319D02*
X218953452Y-80034938D01*
X218953452Y-80034938D02*
X218905833Y-80082557D01*
X218905833Y-80082557D02*
X218810595Y-80225414D01*
X218810595Y-80225414D02*
X218762976Y-80415890D01*
X218762976Y-80415890D02*
X218762976Y-80796842D01*
X218762976Y-80796842D02*
X218810595Y-80892080D01*
X218810595Y-80892080D02*
X218858214Y-80939700D01*
X218858214Y-80939700D02*
X218953452Y-80987319D01*
X218953452Y-80987319D02*
X219143928Y-80987319D01*
X219143928Y-80987319D02*
X219239166Y-80939700D01*
X219239166Y-80939700D02*
X219286785Y-80892080D01*
X219286785Y-80892080D02*
X219334404Y-80796842D01*
X219334404Y-80796842D02*
X219334404Y-80558747D01*
X219334404Y-80558747D02*
X219286785Y-80463509D01*
X219286785Y-80463509D02*
X219239166Y-80415890D01*
X219239166Y-80415890D02*
X219143928Y-80368271D01*
X219143928Y-80368271D02*
X218953452Y-80368271D01*
X218953452Y-80368271D02*
X218858214Y-80415890D01*
X218858214Y-80415890D02*
X218810595Y-80463509D01*
X218810595Y-80463509D02*
X218762976Y-80558747D01*
X220191547Y-80320652D02*
X220191547Y-80987319D01*
X219953452Y-79939700D02*
X219715357Y-80653985D01*
X219715357Y-80653985D02*
X220334404Y-80653985D01*
D10*
X91935714Y-83405471D02*
X91864286Y-83476900D01*
X91864286Y-83476900D02*
X91650000Y-83548328D01*
X91650000Y-83548328D02*
X91507143Y-83548328D01*
X91507143Y-83548328D02*
X91292857Y-83476900D01*
X91292857Y-83476900D02*
X91150000Y-83334042D01*
X91150000Y-83334042D02*
X91078571Y-83191185D01*
X91078571Y-83191185D02*
X91007143Y-82905471D01*
X91007143Y-82905471D02*
X91007143Y-82691185D01*
X91007143Y-82691185D02*
X91078571Y-82405471D01*
X91078571Y-82405471D02*
X91150000Y-82262614D01*
X91150000Y-82262614D02*
X91292857Y-82119757D01*
X91292857Y-82119757D02*
X91507143Y-82048328D01*
X91507143Y-82048328D02*
X91650000Y-82048328D01*
X91650000Y-82048328D02*
X91864286Y-82119757D01*
X91864286Y-82119757D02*
X91935714Y-82191185D01*
X93221429Y-82548328D02*
X93221429Y-83548328D01*
X92864286Y-81976900D02*
X92507143Y-83048328D01*
X92507143Y-83048328D02*
X93435714Y-83048328D01*
X94650000Y-82548328D02*
X94650000Y-83548328D01*
X94292857Y-81976900D02*
X93935714Y-83048328D01*
X93935714Y-83048328D02*
X94864285Y-83048328D01*
X117371428Y-71128328D02*
X117371428Y-69628328D01*
X118871429Y-71128328D02*
X118014286Y-71128328D01*
X118442857Y-71128328D02*
X118442857Y-69628328D01*
X118442857Y-69628328D02*
X118300000Y-69842614D01*
X118300000Y-69842614D02*
X118157143Y-69985471D01*
X118157143Y-69985471D02*
X118014286Y-70056900D01*
X119728571Y-70271185D02*
X119585714Y-70199757D01*
X119585714Y-70199757D02*
X119514285Y-70128328D01*
X119514285Y-70128328D02*
X119442857Y-69985471D01*
X119442857Y-69985471D02*
X119442857Y-69914042D01*
X119442857Y-69914042D02*
X119514285Y-69771185D01*
X119514285Y-69771185D02*
X119585714Y-69699757D01*
X119585714Y-69699757D02*
X119728571Y-69628328D01*
X119728571Y-69628328D02*
X120014285Y-69628328D01*
X120014285Y-69628328D02*
X120157143Y-69699757D01*
X120157143Y-69699757D02*
X120228571Y-69771185D01*
X120228571Y-69771185D02*
X120300000Y-69914042D01*
X120300000Y-69914042D02*
X120300000Y-69985471D01*
X120300000Y-69985471D02*
X120228571Y-70128328D01*
X120228571Y-70128328D02*
X120157143Y-70199757D01*
X120157143Y-70199757D02*
X120014285Y-70271185D01*
X120014285Y-70271185D02*
X119728571Y-70271185D01*
X119728571Y-70271185D02*
X119585714Y-70342614D01*
X119585714Y-70342614D02*
X119514285Y-70414042D01*
X119514285Y-70414042D02*
X119442857Y-70556900D01*
X119442857Y-70556900D02*
X119442857Y-70842614D01*
X119442857Y-70842614D02*
X119514285Y-70985471D01*
X119514285Y-70985471D02*
X119585714Y-71056900D01*
X119585714Y-71056900D02*
X119728571Y-71128328D01*
X119728571Y-71128328D02*
X120014285Y-71128328D01*
X120014285Y-71128328D02*
X120157143Y-71056900D01*
X120157143Y-71056900D02*
X120228571Y-70985471D01*
X120228571Y-70985471D02*
X120300000Y-70842614D01*
X120300000Y-70842614D02*
X120300000Y-70556900D01*
X120300000Y-70556900D02*
X120228571Y-70414042D01*
X120228571Y-70414042D02*
X120157143Y-70342614D01*
X120157143Y-70342614D02*
X120014285Y-70271185D01*
D11*
X123879643Y-76074819D02*
X124546309Y-76074819D01*
X124546309Y-76074819D02*
X124117738Y-77074819D01*
X125355833Y-76408152D02*
X125355833Y-77074819D01*
X125117738Y-76027200D02*
X124879643Y-76741485D01*
X124879643Y-76741485D02*
X125498690Y-76741485D01*
X126355833Y-77074819D02*
X125879643Y-77074819D01*
X125879643Y-77074819D02*
X125879643Y-76074819D01*
X126641548Y-77027200D02*
X126784405Y-77074819D01*
X126784405Y-77074819D02*
X127022500Y-77074819D01*
X127022500Y-77074819D02*
X127117738Y-77027200D01*
X127117738Y-77027200D02*
X127165357Y-76979580D01*
X127165357Y-76979580D02*
X127212976Y-76884342D01*
X127212976Y-76884342D02*
X127212976Y-76789104D01*
X127212976Y-76789104D02*
X127165357Y-76693866D01*
X127165357Y-76693866D02*
X127117738Y-76646247D01*
X127117738Y-76646247D02*
X127022500Y-76598628D01*
X127022500Y-76598628D02*
X126832024Y-76551009D01*
X126832024Y-76551009D02*
X126736786Y-76503390D01*
X126736786Y-76503390D02*
X126689167Y-76455771D01*
X126689167Y-76455771D02*
X126641548Y-76360533D01*
X126641548Y-76360533D02*
X126641548Y-76265295D01*
X126641548Y-76265295D02*
X126689167Y-76170057D01*
X126689167Y-76170057D02*
X126736786Y-76122438D01*
X126736786Y-76122438D02*
X126832024Y-76074819D01*
X126832024Y-76074819D02*
X127070119Y-76074819D01*
X127070119Y-76074819D02*
X127212976Y-76122438D01*
X127546310Y-76074819D02*
X128212976Y-76074819D01*
X128212976Y-76074819D02*
X127784405Y-77074819D01*
X129022500Y-76408152D02*
X129022500Y-77074819D01*
X128784405Y-76027200D02*
X128546310Y-76741485D01*
X128546310Y-76741485D02*
X129165357Y-76741485D01*
D10*
X201295714Y-91938328D02*
X201295714Y-90438328D01*
X202795715Y-91938328D02*
X201938572Y-91938328D01*
X202367143Y-91938328D02*
X202367143Y-90438328D01*
X202367143Y-90438328D02*
X202224286Y-90652614D01*
X202224286Y-90652614D02*
X202081429Y-90795471D01*
X202081429Y-90795471D02*
X201938572Y-90866900D01*
D11*
X211143452Y-96972319D02*
X211810118Y-96972319D01*
X211810118Y-96972319D02*
X211381547Y-97972319D01*
X212619642Y-97305652D02*
X212619642Y-97972319D01*
X212381547Y-96924700D02*
X212143452Y-97638985D01*
X212143452Y-97638985D02*
X212762499Y-97638985D01*
X213619642Y-97972319D02*
X213143452Y-97972319D01*
X213143452Y-97972319D02*
X213143452Y-96972319D01*
X213905357Y-97924700D02*
X214048214Y-97972319D01*
X214048214Y-97972319D02*
X214286309Y-97972319D01*
X214286309Y-97972319D02*
X214381547Y-97924700D01*
X214381547Y-97924700D02*
X214429166Y-97877080D01*
X214429166Y-97877080D02*
X214476785Y-97781842D01*
X214476785Y-97781842D02*
X214476785Y-97686604D01*
X214476785Y-97686604D02*
X214429166Y-97591366D01*
X214429166Y-97591366D02*
X214381547Y-97543747D01*
X214381547Y-97543747D02*
X214286309Y-97496128D01*
X214286309Y-97496128D02*
X214095833Y-97448509D01*
X214095833Y-97448509D02*
X214000595Y-97400890D01*
X214000595Y-97400890D02*
X213952976Y-97353271D01*
X213952976Y-97353271D02*
X213905357Y-97258033D01*
X213905357Y-97258033D02*
X213905357Y-97162795D01*
X213905357Y-97162795D02*
X213952976Y-97067557D01*
X213952976Y-97067557D02*
X214000595Y-97019938D01*
X214000595Y-97019938D02*
X214095833Y-96972319D01*
X214095833Y-96972319D02*
X214333928Y-96972319D01*
X214333928Y-96972319D02*
X214476785Y-97019938D01*
X214857738Y-97067557D02*
X214905357Y-97019938D01*
X214905357Y-97019938D02*
X215000595Y-96972319D01*
X215000595Y-96972319D02*
X215238690Y-96972319D01*
X215238690Y-96972319D02*
X215333928Y-97019938D01*
X215333928Y-97019938D02*
X215381547Y-97067557D01*
X215381547Y-97067557D02*
X215429166Y-97162795D01*
X215429166Y-97162795D02*
X215429166Y-97258033D01*
X215429166Y-97258033D02*
X215381547Y-97400890D01*
X215381547Y-97400890D02*
X214810119Y-97972319D01*
X214810119Y-97972319D02*
X215429166Y-97972319D01*
X216286309Y-97305652D02*
X216286309Y-97972319D01*
X216048214Y-96924700D02*
X215810119Y-97638985D01*
X215810119Y-97638985D02*
X216429166Y-97638985D01*
X217286309Y-96972319D02*
X216810119Y-96972319D01*
X216810119Y-96972319D02*
X216762500Y-97448509D01*
X216762500Y-97448509D02*
X216810119Y-97400890D01*
X216810119Y-97400890D02*
X216905357Y-97353271D01*
X216905357Y-97353271D02*
X217143452Y-97353271D01*
X217143452Y-97353271D02*
X217238690Y-97400890D01*
X217238690Y-97400890D02*
X217286309Y-97448509D01*
X217286309Y-97448509D02*
X217333928Y-97543747D01*
X217333928Y-97543747D02*
X217333928Y-97781842D01*
X217333928Y-97781842D02*
X217286309Y-97877080D01*
X217286309Y-97877080D02*
X217238690Y-97924700D01*
X217238690Y-97924700D02*
X217143452Y-97972319D01*
X217143452Y-97972319D02*
X216905357Y-97972319D01*
X216905357Y-97972319D02*
X216810119Y-97924700D01*
X216810119Y-97924700D02*
X216762500Y-97877080D01*
D10*
X151214285Y-76803328D02*
X150714285Y-76089042D01*
X150357142Y-76803328D02*
X150357142Y-75303328D01*
X150357142Y-75303328D02*
X150928571Y-75303328D01*
X150928571Y-75303328D02*
X151071428Y-75374757D01*
X151071428Y-75374757D02*
X151142857Y-75446185D01*
X151142857Y-75446185D02*
X151214285Y-75589042D01*
X151214285Y-75589042D02*
X151214285Y-75803328D01*
X151214285Y-75803328D02*
X151142857Y-75946185D01*
X151142857Y-75946185D02*
X151071428Y-76017614D01*
X151071428Y-76017614D02*
X150928571Y-76089042D01*
X150928571Y-76089042D02*
X150357142Y-76089042D01*
X152071428Y-75946185D02*
X151928571Y-75874757D01*
X151928571Y-75874757D02*
X151857142Y-75803328D01*
X151857142Y-75803328D02*
X151785714Y-75660471D01*
X151785714Y-75660471D02*
X151785714Y-75589042D01*
X151785714Y-75589042D02*
X151857142Y-75446185D01*
X151857142Y-75446185D02*
X151928571Y-75374757D01*
X151928571Y-75374757D02*
X152071428Y-75303328D01*
X152071428Y-75303328D02*
X152357142Y-75303328D01*
X152357142Y-75303328D02*
X152500000Y-75374757D01*
X152500000Y-75374757D02*
X152571428Y-75446185D01*
X152571428Y-75446185D02*
X152642857Y-75589042D01*
X152642857Y-75589042D02*
X152642857Y-75660471D01*
X152642857Y-75660471D02*
X152571428Y-75803328D01*
X152571428Y-75803328D02*
X152500000Y-75874757D01*
X152500000Y-75874757D02*
X152357142Y-75946185D01*
X152357142Y-75946185D02*
X152071428Y-75946185D01*
X152071428Y-75946185D02*
X151928571Y-76017614D01*
X151928571Y-76017614D02*
X151857142Y-76089042D01*
X151857142Y-76089042D02*
X151785714Y-76231900D01*
X151785714Y-76231900D02*
X151785714Y-76517614D01*
X151785714Y-76517614D02*
X151857142Y-76660471D01*
X151857142Y-76660471D02*
X151928571Y-76731900D01*
X151928571Y-76731900D02*
X152071428Y-76803328D01*
X152071428Y-76803328D02*
X152357142Y-76803328D01*
X152357142Y-76803328D02*
X152500000Y-76731900D01*
X152500000Y-76731900D02*
X152571428Y-76660471D01*
X152571428Y-76660471D02*
X152642857Y-76517614D01*
X152642857Y-76517614D02*
X152642857Y-76231900D01*
X152642857Y-76231900D02*
X152571428Y-76089042D01*
X152571428Y-76089042D02*
X152500000Y-76017614D01*
X152500000Y-76017614D02*
X152357142Y-75946185D01*
X235701671Y-90858214D02*
X237201671Y-90858214D01*
X237201671Y-90858214D02*
X236130242Y-91358214D01*
X236130242Y-91358214D02*
X237201671Y-91858214D01*
X237201671Y-91858214D02*
X235701671Y-91858214D01*
X236558814Y-92786786D02*
X236630242Y-92643929D01*
X236630242Y-92643929D02*
X236701671Y-92572500D01*
X236701671Y-92572500D02*
X236844528Y-92501072D01*
X236844528Y-92501072D02*
X236915957Y-92501072D01*
X236915957Y-92501072D02*
X237058814Y-92572500D01*
X237058814Y-92572500D02*
X237130242Y-92643929D01*
X237130242Y-92643929D02*
X237201671Y-92786786D01*
X237201671Y-92786786D02*
X237201671Y-93072500D01*
X237201671Y-93072500D02*
X237130242Y-93215358D01*
X237130242Y-93215358D02*
X237058814Y-93286786D01*
X237058814Y-93286786D02*
X236915957Y-93358215D01*
X236915957Y-93358215D02*
X236844528Y-93358215D01*
X236844528Y-93358215D02*
X236701671Y-93286786D01*
X236701671Y-93286786D02*
X236630242Y-93215358D01*
X236630242Y-93215358D02*
X236558814Y-93072500D01*
X236558814Y-93072500D02*
X236558814Y-92786786D01*
X236558814Y-92786786D02*
X236487385Y-92643929D01*
X236487385Y-92643929D02*
X236415957Y-92572500D01*
X236415957Y-92572500D02*
X236273100Y-92501072D01*
X236273100Y-92501072D02*
X235987385Y-92501072D01*
X235987385Y-92501072D02*
X235844528Y-92572500D01*
X235844528Y-92572500D02*
X235773100Y-92643929D01*
X235773100Y-92643929D02*
X235701671Y-92786786D01*
X235701671Y-92786786D02*
X235701671Y-93072500D01*
X235701671Y-93072500D02*
X235773100Y-93215358D01*
X235773100Y-93215358D02*
X235844528Y-93286786D01*
X235844528Y-93286786D02*
X235987385Y-93358215D01*
X235987385Y-93358215D02*
X236273100Y-93358215D01*
X236273100Y-93358215D02*
X236415957Y-93286786D01*
X236415957Y-93286786D02*
X236487385Y-93215358D01*
X236487385Y-93215358D02*
X236558814Y-93072500D01*
X102235714Y-121158328D02*
X102235714Y-119658328D01*
X102235714Y-119658328D02*
X102735714Y-120729757D01*
X102735714Y-120729757D02*
X103235714Y-119658328D01*
X103235714Y-119658328D02*
X103235714Y-121158328D01*
X103878572Y-119801185D02*
X103950000Y-119729757D01*
X103950000Y-119729757D02*
X104092858Y-119658328D01*
X104092858Y-119658328D02*
X104450000Y-119658328D01*
X104450000Y-119658328D02*
X104592858Y-119729757D01*
X104592858Y-119729757D02*
X104664286Y-119801185D01*
X104664286Y-119801185D02*
X104735715Y-119944042D01*
X104735715Y-119944042D02*
X104735715Y-120086900D01*
X104735715Y-120086900D02*
X104664286Y-120301185D01*
X104664286Y-120301185D02*
X103807143Y-121158328D01*
X103807143Y-121158328D02*
X104735715Y-121158328D01*
D11*
X96435714Y-122304819D02*
X95959524Y-122304819D01*
X95959524Y-122304819D02*
X95911905Y-122781009D01*
X95911905Y-122781009D02*
X95959524Y-122733390D01*
X95959524Y-122733390D02*
X96054762Y-122685771D01*
X96054762Y-122685771D02*
X96292857Y-122685771D01*
X96292857Y-122685771D02*
X96388095Y-122733390D01*
X96388095Y-122733390D02*
X96435714Y-122781009D01*
X96435714Y-122781009D02*
X96483333Y-122876247D01*
X96483333Y-122876247D02*
X96483333Y-123114342D01*
X96483333Y-123114342D02*
X96435714Y-123209580D01*
X96435714Y-123209580D02*
X96388095Y-123257200D01*
X96388095Y-123257200D02*
X96292857Y-123304819D01*
X96292857Y-123304819D02*
X96054762Y-123304819D01*
X96054762Y-123304819D02*
X95959524Y-123257200D01*
X95959524Y-123257200D02*
X95911905Y-123209580D01*
X96864286Y-122400057D02*
X96911905Y-122352438D01*
X96911905Y-122352438D02*
X97007143Y-122304819D01*
X97007143Y-122304819D02*
X97245238Y-122304819D01*
X97245238Y-122304819D02*
X97340476Y-122352438D01*
X97340476Y-122352438D02*
X97388095Y-122400057D01*
X97388095Y-122400057D02*
X97435714Y-122495295D01*
X97435714Y-122495295D02*
X97435714Y-122590533D01*
X97435714Y-122590533D02*
X97388095Y-122733390D01*
X97388095Y-122733390D02*
X96816667Y-123304819D01*
X96816667Y-123304819D02*
X97435714Y-123304819D01*
X98340476Y-122304819D02*
X97864286Y-122304819D01*
X97864286Y-122304819D02*
X97816667Y-122781009D01*
X97816667Y-122781009D02*
X97864286Y-122733390D01*
X97864286Y-122733390D02*
X97959524Y-122685771D01*
X97959524Y-122685771D02*
X98197619Y-122685771D01*
X98197619Y-122685771D02*
X98292857Y-122733390D01*
X98292857Y-122733390D02*
X98340476Y-122781009D01*
X98340476Y-122781009D02*
X98388095Y-122876247D01*
X98388095Y-122876247D02*
X98388095Y-123114342D01*
X98388095Y-123114342D02*
X98340476Y-123209580D01*
X98340476Y-123209580D02*
X98292857Y-123257200D01*
X98292857Y-123257200D02*
X98197619Y-123304819D01*
X98197619Y-123304819D02*
X97959524Y-123304819D01*
X97959524Y-123304819D02*
X97864286Y-123257200D01*
X97864286Y-123257200D02*
X97816667Y-123209580D01*
D10*
X151700714Y-86918328D02*
X151200714Y-86204042D01*
X150843571Y-86918328D02*
X150843571Y-85418328D01*
X150843571Y-85418328D02*
X151415000Y-85418328D01*
X151415000Y-85418328D02*
X151557857Y-85489757D01*
X151557857Y-85489757D02*
X151629286Y-85561185D01*
X151629286Y-85561185D02*
X151700714Y-85704042D01*
X151700714Y-85704042D02*
X151700714Y-85918328D01*
X151700714Y-85918328D02*
X151629286Y-86061185D01*
X151629286Y-86061185D02*
X151557857Y-86132614D01*
X151557857Y-86132614D02*
X151415000Y-86204042D01*
X151415000Y-86204042D02*
X150843571Y-86204042D01*
X152200714Y-85418328D02*
X153200714Y-85418328D01*
X153200714Y-85418328D02*
X152557857Y-86918328D01*
X120690000Y-87053328D02*
X120190000Y-86339042D01*
X119832857Y-87053328D02*
X119832857Y-85553328D01*
X119832857Y-85553328D02*
X120404286Y-85553328D01*
X120404286Y-85553328D02*
X120547143Y-85624757D01*
X120547143Y-85624757D02*
X120618572Y-85696185D01*
X120618572Y-85696185D02*
X120690000Y-85839042D01*
X120690000Y-85839042D02*
X120690000Y-86053328D01*
X120690000Y-86053328D02*
X120618572Y-86196185D01*
X120618572Y-86196185D02*
X120547143Y-86267614D01*
X120547143Y-86267614D02*
X120404286Y-86339042D01*
X120404286Y-86339042D02*
X119832857Y-86339042D01*
X121404286Y-87053328D02*
X121690000Y-87053328D01*
X121690000Y-87053328D02*
X121832857Y-86981900D01*
X121832857Y-86981900D02*
X121904286Y-86910471D01*
X121904286Y-86910471D02*
X122047143Y-86696185D01*
X122047143Y-86696185D02*
X122118572Y-86410471D01*
X122118572Y-86410471D02*
X122118572Y-85839042D01*
X122118572Y-85839042D02*
X122047143Y-85696185D01*
X122047143Y-85696185D02*
X121975715Y-85624757D01*
X121975715Y-85624757D02*
X121832857Y-85553328D01*
X121832857Y-85553328D02*
X121547143Y-85553328D01*
X121547143Y-85553328D02*
X121404286Y-85624757D01*
X121404286Y-85624757D02*
X121332857Y-85696185D01*
X121332857Y-85696185D02*
X121261429Y-85839042D01*
X121261429Y-85839042D02*
X121261429Y-86196185D01*
X121261429Y-86196185D02*
X121332857Y-86339042D01*
X121332857Y-86339042D02*
X121404286Y-86410471D01*
X121404286Y-86410471D02*
X121547143Y-86481900D01*
X121547143Y-86481900D02*
X121832857Y-86481900D01*
X121832857Y-86481900D02*
X121975715Y-86410471D01*
X121975715Y-86410471D02*
X122047143Y-86339042D01*
X122047143Y-86339042D02*
X122118572Y-86196185D01*
%TO.C,I8*%
X111982500Y-71570000D02*
X113082500Y-72645000D01*
X113102500Y-71550000D02*
X94772500Y-71550000D01*
X94772500Y-81690000D01*
X113102500Y-81690000D01*
X113102500Y-71550000D01*
%TO.C,C47*%
X47993500Y-92450000D02*
X47993500Y-100070000D01*
X47993500Y-92450000D02*
X50533500Y-92450000D01*
X47993500Y-100070000D02*
X50533500Y-100070000D01*
X50533500Y-100070000D02*
X50533500Y-92450000D01*
%TO.C,C42*%
X113666000Y-92450000D02*
X113666000Y-100070000D01*
X113666000Y-92450000D02*
X116206000Y-92450000D01*
X113666000Y-100070000D02*
X116206000Y-100070000D01*
X116206000Y-100070000D02*
X116206000Y-92450000D01*
%TO.C,M4*%
X237145000Y-71632500D02*
X239705000Y-71632500D01*
X239705000Y-79302500D01*
X237145000Y-79302500D01*
X237145000Y-71632500D01*
%TO.C,C8*%
X78800000Y-84830000D02*
X78800000Y-87370000D01*
X78800000Y-87370000D02*
X86420000Y-87370000D01*
X86420000Y-84830000D02*
X78800000Y-84830000D01*
X86420000Y-84830000D02*
X86420000Y-87370000D01*
%TO.C,C10*%
X181750000Y-108152500D02*
X181750000Y-105612500D01*
X181750000Y-108152500D02*
X189370000Y-108152500D01*
X189370000Y-105612500D02*
X181750000Y-105612500D01*
X189370000Y-108152500D02*
X189370000Y-105612500D01*
%TO.C,X1*%
X93520000Y-85030000D02*
X98620000Y-85030000D01*
X98620000Y-87350000D02*
X93520000Y-87350000D01*
X93520000Y-87350000D02*
G75*
G02*
X93520000Y-85030000I0J1160000D01*
G01*
X98620000Y-85030000D02*
G75*
G02*
X98620000Y-87350000I0J-1160000D01*
G01*
%TO.C,I3*%
X240210000Y-105607500D02*
X241310000Y-106682500D01*
X241320000Y-105602500D02*
X189840000Y-105602500D01*
X189840000Y-123362500D01*
X241320000Y-123362500D01*
X241320000Y-105602500D01*
%TO.C,C45*%
X135453500Y-92450000D02*
X135453500Y-100070000D01*
X135453500Y-92450000D02*
X137993500Y-92450000D01*
X135453500Y-100070000D02*
X137993500Y-100070000D01*
X137993500Y-100070000D02*
X137993500Y-92450000D01*
%TO.C,C43*%
X113995000Y-72810000D02*
X113995000Y-80430000D01*
X113995000Y-72810000D02*
X116535000Y-72810000D01*
X113995000Y-80430000D02*
X116535000Y-80430000D01*
X116535000Y-80430000D02*
X116535000Y-72810000D01*
%TO.C,C50*%
X47990000Y-114497500D02*
X47990000Y-122117500D01*
X47990000Y-114497500D02*
X50530000Y-114497500D01*
X47990000Y-122117500D02*
X50530000Y-122117500D01*
X50530000Y-122117500D02*
X50530000Y-114497500D01*
%TO.C,R4*%
X75250000Y-114560000D02*
X75250000Y-117100000D01*
X75250000Y-114560000D02*
X76520000Y-114560000D01*
X75250000Y-117100000D02*
X76520000Y-117100000D01*
X76520000Y-114560000D02*
X86680000Y-114560000D01*
X76520000Y-117100000D02*
X86680000Y-117100000D01*
X86680000Y-114560000D02*
X87950000Y-114560000D01*
X86680000Y-117100000D02*
X87950000Y-117100000D01*
X87950000Y-115830000D02*
X87950000Y-114560000D01*
X87950000Y-117100000D02*
X87950000Y-115830000D01*
%TO.C,I9*%
X68388500Y-91210000D02*
X69488500Y-92285000D01*
X69508500Y-91190000D02*
X51178500Y-91190000D01*
X51178500Y-101330000D01*
X69508500Y-101330000D01*
X69508500Y-91190000D01*
%TO.C,R2*%
X56680000Y-82210000D02*
X56680000Y-84750000D01*
X56680000Y-82210000D02*
X57950000Y-82210000D01*
X56680000Y-84750000D02*
X57950000Y-84750000D01*
X57950000Y-82210000D02*
X68110000Y-82210000D01*
X57950000Y-84750000D02*
X68110000Y-84750000D01*
X68110000Y-82210000D02*
X69380000Y-82210000D01*
X68110000Y-84750000D02*
X69380000Y-84750000D01*
X69380000Y-83480000D02*
X69380000Y-82210000D01*
X69380000Y-84750000D02*
X69380000Y-83480000D01*
%TO.C,I14*%
X175565000Y-113037500D02*
X176665000Y-114112500D01*
X176670000Y-113032500D02*
X155790000Y-113032500D01*
X155790000Y-123142500D01*
X176670000Y-123142500D01*
X176670000Y-113032500D01*
%TO.C,C48*%
X48082500Y-72810000D02*
X48082500Y-80430000D01*
X48082500Y-72810000D02*
X50622500Y-72810000D01*
X48082500Y-80430000D02*
X50622500Y-80430000D01*
X50622500Y-80430000D02*
X50622500Y-72810000D01*
%TO.C,I16*%
X133956000Y-91210000D02*
X135056000Y-92285000D01*
X135076000Y-91190000D02*
X116746000Y-91190000D01*
X116746000Y-101330000D01*
X135076000Y-101330000D01*
X135076000Y-91190000D01*
%TO.C,R10*%
X153710000Y-71770000D02*
X153710000Y-73040000D01*
X153710000Y-73040000D02*
X153710000Y-74310000D01*
X154980000Y-71770000D02*
X153710000Y-71770000D01*
X154980000Y-74310000D02*
X153710000Y-74310000D01*
X165140000Y-71770000D02*
X154980000Y-71770000D01*
X165140000Y-74310000D02*
X154980000Y-74310000D01*
X166410000Y-71770000D02*
X165140000Y-71770000D01*
X166410000Y-74310000D02*
X165140000Y-74310000D01*
X166410000Y-74310000D02*
X166410000Y-71770000D01*
%TO.C,I12*%
X68385000Y-113257500D02*
X69485000Y-114332500D01*
X69505000Y-113237500D02*
X51175000Y-113237500D01*
X51175000Y-123377500D01*
X69505000Y-123377500D01*
X69505000Y-113237500D01*
%TO.C,R11*%
X137010000Y-82020000D02*
X137010000Y-83290000D01*
X137010000Y-83290000D02*
X137010000Y-84560000D01*
X138280000Y-82020000D02*
X137010000Y-82020000D01*
X138280000Y-84560000D02*
X137010000Y-84560000D01*
X148440000Y-82020000D02*
X138280000Y-82020000D01*
X148440000Y-84560000D02*
X138280000Y-84560000D01*
X149710000Y-82020000D02*
X148440000Y-82020000D01*
X149710000Y-84560000D02*
X148440000Y-84560000D01*
X149710000Y-84560000D02*
X149710000Y-82020000D01*
%TO.C,I15*%
X150825000Y-111375000D02*
X151925000Y-112450000D01*
X151930000Y-111370000D02*
X131050000Y-111370000D01*
X131050000Y-121480000D01*
X151930000Y-121480000D01*
X151930000Y-111370000D01*
%TO.C,R1*%
X56680000Y-88160000D02*
X56680000Y-90700000D01*
X56680000Y-88160000D02*
X57950000Y-88160000D01*
X56680000Y-90700000D02*
X57950000Y-90700000D01*
X57950000Y-88160000D02*
X68110000Y-88160000D01*
X57950000Y-90700000D02*
X68110000Y-90700000D01*
X68110000Y-88160000D02*
X69380000Y-88160000D01*
X68110000Y-90700000D02*
X69380000Y-90700000D01*
X69380000Y-89430000D02*
X69380000Y-88160000D01*
X69380000Y-90700000D02*
X69380000Y-89430000D01*
%TO.C,R5*%
X122970000Y-82030000D02*
X122970000Y-84570000D01*
X122970000Y-82030000D02*
X124240000Y-82030000D01*
X122970000Y-84570000D02*
X124240000Y-84570000D01*
X124240000Y-82030000D02*
X134400000Y-82030000D01*
X124240000Y-84570000D02*
X134400000Y-84570000D01*
X134400000Y-82030000D02*
X135670000Y-82030000D01*
X134400000Y-84570000D02*
X135670000Y-84570000D01*
X135670000Y-83300000D02*
X135670000Y-82030000D01*
X135670000Y-84570000D02*
X135670000Y-83300000D01*
%TO.C,C7*%
X78800000Y-84550000D02*
X78800000Y-82010000D01*
X78800000Y-84550000D02*
X86420000Y-84550000D01*
X86420000Y-82010000D02*
X78800000Y-82010000D01*
X86420000Y-84550000D02*
X86420000Y-82010000D01*
%TO.C,R3*%
X56720000Y-85190000D02*
X56720000Y-86460000D01*
X56720000Y-86460000D02*
X56720000Y-87730000D01*
X57990000Y-85190000D02*
X56720000Y-85190000D01*
X57990000Y-87730000D02*
X56720000Y-87730000D01*
X68150000Y-85190000D02*
X57990000Y-85190000D01*
X68150000Y-87730000D02*
X57990000Y-87730000D01*
X69420000Y-85190000D02*
X68150000Y-85190000D01*
X69420000Y-87730000D02*
X68150000Y-87730000D01*
X69420000Y-87730000D02*
X69420000Y-85190000D01*
%TO.C,C49*%
X91716000Y-92450000D02*
X91716000Y-100070000D01*
X91716000Y-92450000D02*
X94256000Y-92450000D01*
X91716000Y-100070000D02*
X94256000Y-100070000D01*
X94256000Y-100070000D02*
X94256000Y-92450000D01*
%TO.C,I5*%
X189212500Y-71647500D02*
X190312500Y-72722500D01*
X190317500Y-71642500D02*
X169437500Y-71642500D01*
X169437500Y-81752500D01*
X190317500Y-81752500D01*
X190317500Y-71642500D01*
%TO.C,C46*%
X128105000Y-112615000D02*
X128105000Y-120235000D01*
X128105000Y-112615000D02*
X130645000Y-112615000D01*
X128105000Y-120235000D02*
X130645000Y-120235000D01*
X130645000Y-120235000D02*
X130645000Y-112615000D01*
D12*
%TO.C,G1*%
G36*
X64593421Y-104111907D02*
G01*
X64609149Y-104111975D01*
X64665699Y-104112470D01*
X64711506Y-104112961D01*
X64748004Y-104113549D01*
X64776629Y-104114333D01*
X64798816Y-104115413D01*
X64816001Y-104116890D01*
X64829618Y-104118862D01*
X64841103Y-104121430D01*
X64851891Y-104124694D01*
X64863418Y-104128753D01*
X64866522Y-104129882D01*
X64909673Y-104147201D01*
X64945767Y-104165912D01*
X64979017Y-104188638D01*
X65013637Y-104218004D01*
X65025054Y-104228628D01*
X65080689Y-104284980D01*
X65126236Y-104339758D01*
X65163210Y-104395093D01*
X65193125Y-104453112D01*
X65205046Y-104481580D01*
X65214147Y-104504734D01*
X65222559Y-104525970D01*
X65227952Y-104539431D01*
X65233373Y-104552930D01*
X65236351Y-104560601D01*
X65236400Y-104560745D01*
X65239491Y-104568356D01*
X65241476Y-104572925D01*
X65244041Y-104580058D01*
X65250183Y-104597804D01*
X65259587Y-104625235D01*
X65271937Y-104661421D01*
X65286917Y-104705435D01*
X65304212Y-104756349D01*
X65323506Y-104813234D01*
X65344484Y-104875163D01*
X65366830Y-104941206D01*
X65388489Y-105005291D01*
X65413112Y-105078152D01*
X65437625Y-105150641D01*
X65461590Y-105221463D01*
X65484567Y-105289321D01*
X65506117Y-105352919D01*
X65525802Y-105410962D01*
X65543180Y-105462153D01*
X65557814Y-105505196D01*
X65569264Y-105538795D01*
X65574549Y-105554250D01*
X65595092Y-105616483D01*
X65610568Y-105669369D01*
X65621101Y-105714577D01*
X65626818Y-105753775D01*
X65627845Y-105788634D01*
X65624306Y-105820823D01*
X65616328Y-105852010D01*
X65604036Y-105883865D01*
X65600019Y-105892742D01*
X65582200Y-105921389D01*
X65555618Y-105951671D01*
X65522969Y-105981102D01*
X65486948Y-106007192D01*
X65458250Y-106023619D01*
X65442977Y-106031306D01*
X65429304Y-106038019D01*
X65416329Y-106043831D01*
X65403146Y-106048819D01*
X65388852Y-106053057D01*
X65372543Y-106056620D01*
X65353315Y-106059585D01*
X65330264Y-106062025D01*
X65302485Y-106064017D01*
X65269076Y-106065635D01*
X65229131Y-106066955D01*
X65181747Y-106068052D01*
X65126021Y-106069000D01*
X65061047Y-106069876D01*
X64985921Y-106070754D01*
X64899741Y-106071710D01*
X64877094Y-106071962D01*
X64819196Y-106072557D01*
X64750138Y-106073179D01*
X64670939Y-106073822D01*
X64582619Y-106074481D01*
X64486198Y-106075148D01*
X64382694Y-106075818D01*
X64273127Y-106076486D01*
X64158516Y-106077145D01*
X64039881Y-106077790D01*
X63918242Y-106078414D01*
X63794617Y-106079012D01*
X63670026Y-106079578D01*
X63545488Y-106080105D01*
X63422023Y-106080589D01*
X63337809Y-106080894D01*
X63194291Y-106081418D01*
X63062605Y-106081945D01*
X62942403Y-106082478D01*
X62833338Y-106083020D01*
X62735062Y-106083576D01*
X62647227Y-106084148D01*
X62569486Y-106084740D01*
X62501491Y-106085355D01*
X62442895Y-106085998D01*
X62393349Y-106086671D01*
X62352507Y-106087377D01*
X62320021Y-106088121D01*
X62295543Y-106088905D01*
X62278726Y-106089734D01*
X62269222Y-106090610D01*
X62266672Y-106091525D01*
X62269467Y-106098376D01*
X62275713Y-106115800D01*
X62285074Y-106142798D01*
X62297210Y-106178369D01*
X62311784Y-106221512D01*
X62328459Y-106271227D01*
X62346897Y-106326512D01*
X62366760Y-106386367D01*
X62387710Y-106449792D01*
X62392091Y-106463091D01*
X62512175Y-106827796D01*
X63673321Y-106825426D01*
X63813099Y-106825144D01*
X63941224Y-106824894D01*
X64058223Y-106824680D01*
X64164623Y-106824507D01*
X64260950Y-106824379D01*
X64347732Y-106824300D01*
X64425495Y-106824274D01*
X64494765Y-106824304D01*
X64556070Y-106824396D01*
X64609936Y-106824552D01*
X64656890Y-106824778D01*
X64697458Y-106825077D01*
X64732168Y-106825453D01*
X64761545Y-106825910D01*
X64786117Y-106826453D01*
X64806410Y-106827085D01*
X64822952Y-106827811D01*
X64836268Y-106828634D01*
X64846886Y-106829559D01*
X64855332Y-106830590D01*
X64862133Y-106831730D01*
X64867815Y-106832984D01*
X64872906Y-106834356D01*
X64874050Y-106834689D01*
X64929332Y-106854965D01*
X64981397Y-106882857D01*
X65032640Y-106919820D01*
X65074065Y-106956345D01*
X65101102Y-106985656D01*
X65128176Y-107022705D01*
X65155739Y-107068311D01*
X65184241Y-107123291D01*
X65214133Y-107188465D01*
X65245866Y-107264650D01*
X65250677Y-107276737D01*
X65265178Y-107313068D01*
X65279310Y-107347956D01*
X65292017Y-107378835D01*
X65302245Y-107403139D01*
X65308243Y-107416799D01*
X65317080Y-107436854D01*
X65328602Y-107464105D01*
X65341070Y-107494400D01*
X65349047Y-107514234D01*
X65359823Y-107540622D01*
X65369545Y-107563165D01*
X65377042Y-107579223D01*
X65380779Y-107585787D01*
X65384262Y-107592297D01*
X65383142Y-107593399D01*
X65383021Y-107597722D01*
X65387890Y-107607101D01*
X65392350Y-107616212D01*
X65400747Y-107635367D01*
X65412562Y-107663274D01*
X65427278Y-107698641D01*
X65444374Y-107740176D01*
X65463332Y-107786589D01*
X65483634Y-107836588D01*
X65504760Y-107888882D01*
X65526192Y-107942178D01*
X65547410Y-107995185D01*
X65567897Y-108046613D01*
X65587133Y-108095168D01*
X65604599Y-108139561D01*
X65619776Y-108178499D01*
X65632146Y-108210691D01*
X65641190Y-108234845D01*
X65646389Y-108249670D01*
X65647322Y-108252893D01*
X65652773Y-108290010D01*
X65653722Y-108330934D01*
X65650396Y-108371129D01*
X65643025Y-108406062D01*
X65639031Y-108417459D01*
X65614585Y-108461564D01*
X65579886Y-108499853D01*
X65535667Y-108531771D01*
X65482660Y-108556761D01*
X65437344Y-108570680D01*
X65422411Y-108573260D01*
X65399148Y-108575653D01*
X65367294Y-108577860D01*
X65326588Y-108579886D01*
X65276768Y-108581736D01*
X65217576Y-108583414D01*
X65148749Y-108584922D01*
X65070027Y-108586267D01*
X64981150Y-108587450D01*
X64881856Y-108588478D01*
X64771885Y-108589353D01*
X64650977Y-108590080D01*
X64518870Y-108590662D01*
X64375304Y-108591105D01*
X64220018Y-108591411D01*
X64094032Y-108591555D01*
X64001865Y-108591667D01*
X63911075Y-108591847D01*
X63822653Y-108592090D01*
X63737589Y-108592389D01*
X63656875Y-108592740D01*
X63581501Y-108593135D01*
X63512459Y-108593571D01*
X63450739Y-108594041D01*
X63397333Y-108594539D01*
X63353231Y-108595060D01*
X63319424Y-108595598D01*
X63298601Y-108596093D01*
X63170530Y-108600082D01*
X63248884Y-108835113D01*
X63266004Y-108886394D01*
X63282031Y-108934261D01*
X63296534Y-108977437D01*
X63309082Y-109014645D01*
X63319243Y-109044608D01*
X63326588Y-109066049D01*
X63330684Y-109077693D01*
X63331297Y-109079278D01*
X63335644Y-109089987D01*
X63336644Y-109092980D01*
X63339454Y-109100592D01*
X63342239Y-109108725D01*
X63342498Y-109109726D01*
X63345325Y-109119825D01*
X63345503Y-109120383D01*
X63346264Y-109129518D01*
X63350237Y-109133860D01*
X63352284Y-109134085D01*
X63356356Y-109138515D01*
X63355520Y-109143219D01*
X63355699Y-109151045D01*
X63358565Y-109152354D01*
X63362557Y-109156759D01*
X63361761Y-109161095D01*
X63361363Y-109169822D01*
X63363235Y-109171752D01*
X63365969Y-109177713D01*
X63372193Y-109194242D01*
X63381564Y-109220345D01*
X63393739Y-109255030D01*
X63408375Y-109297304D01*
X63425126Y-109346175D01*
X63443651Y-109400648D01*
X63463606Y-109459733D01*
X63484647Y-109522435D01*
X63487148Y-109529913D01*
X63522950Y-109636990D01*
X63557900Y-109741463D01*
X63591791Y-109842722D01*
X63624421Y-109940159D01*
X63655584Y-110033165D01*
X63685076Y-110121130D01*
X63712692Y-110203446D01*
X63738227Y-110279502D01*
X63761478Y-110348691D01*
X63782239Y-110410403D01*
X63800306Y-110464028D01*
X63815474Y-110508959D01*
X63827539Y-110544585D01*
X63836297Y-110570297D01*
X63841542Y-110585487D01*
X63843006Y-110589515D01*
X63847023Y-110599273D01*
X63847941Y-110601695D01*
X63850810Y-110609419D01*
X63852514Y-110613874D01*
X63856497Y-110624965D01*
X63862443Y-110642300D01*
X63865164Y-110650412D01*
X63871865Y-110670085D01*
X63880816Y-110695797D01*
X63890132Y-110722130D01*
X63890530Y-110723245D01*
X63911460Y-110790779D01*
X63926815Y-110859455D01*
X63935831Y-110925341D01*
X63937963Y-110967817D01*
X63937890Y-110997926D01*
X63936763Y-111019419D01*
X63933995Y-111035852D01*
X63928997Y-111050780D01*
X63921589Y-111066930D01*
X63909908Y-111088716D01*
X63897493Y-111108704D01*
X63889945Y-111118946D01*
X63867329Y-111139070D01*
X63834535Y-111158662D01*
X63793554Y-111176678D01*
X63755800Y-111189374D01*
X63742427Y-111193245D01*
X63730037Y-111196463D01*
X63717328Y-111199117D01*
X63703000Y-111201294D01*
X63685754Y-111203084D01*
X63664287Y-111204573D01*
X63637301Y-111205850D01*
X63603495Y-111207004D01*
X63561569Y-111208121D01*
X63510222Y-111209291D01*
X63448155Y-111210601D01*
X63439933Y-111210772D01*
X63412709Y-111211228D01*
X63373851Y-111211716D01*
X63323904Y-111212231D01*
X63263412Y-111212772D01*
X63192922Y-111213334D01*
X63112977Y-111213915D01*
X63024123Y-111214513D01*
X62926905Y-111215124D01*
X62821868Y-111215745D01*
X62709556Y-111216373D01*
X62590516Y-111217006D01*
X62465292Y-111217640D01*
X62334429Y-111218272D01*
X62198472Y-111218901D01*
X62057966Y-111219521D01*
X61913456Y-111220131D01*
X61765488Y-111220728D01*
X61614605Y-111221309D01*
X61461354Y-111221871D01*
X61306279Y-111222410D01*
X61250698Y-111222596D01*
X61090765Y-111223129D01*
X60930336Y-111223668D01*
X60770081Y-111224211D01*
X60610669Y-111224755D01*
X60452770Y-111225298D01*
X60297051Y-111225838D01*
X60144182Y-111226372D01*
X59994832Y-111226898D01*
X59849671Y-111227413D01*
X59709367Y-111227915D01*
X59574589Y-111228401D01*
X59446007Y-111228870D01*
X59324290Y-111229318D01*
X59210106Y-111229744D01*
X59104126Y-111230145D01*
X59007017Y-111230518D01*
X58919449Y-111230861D01*
X58842091Y-111231172D01*
X58775612Y-111231449D01*
X58723486Y-111231675D01*
X58634273Y-111232017D01*
X58548745Y-111232231D01*
X58467735Y-111232322D01*
X58392074Y-111232293D01*
X58322595Y-111232147D01*
X58260130Y-111231889D01*
X58205510Y-111231521D01*
X58159567Y-111231048D01*
X58123134Y-111230474D01*
X58097042Y-111229801D01*
X58082124Y-111229034D01*
X58080498Y-111228862D01*
X58011032Y-111215524D01*
X57937932Y-111193393D01*
X57864291Y-111163830D01*
X57793199Y-111128194D01*
X57727750Y-111087848D01*
X57682153Y-111053607D01*
X57618716Y-110997082D01*
X57562658Y-110937933D01*
X57510321Y-110872172D01*
X57490768Y-110844791D01*
X57471126Y-110815861D01*
X57453952Y-110788729D01*
X57438428Y-110761632D01*
X57423733Y-110732807D01*
X57409047Y-110700489D01*
X57393551Y-110662915D01*
X57376426Y-110618322D01*
X57356851Y-110564947D01*
X57343820Y-110528619D01*
X57325456Y-110477120D01*
X57304774Y-110419104D01*
X57283281Y-110358797D01*
X57262483Y-110300423D01*
X57243887Y-110248210D01*
X57239651Y-110236315D01*
X57225521Y-110196633D01*
X57212672Y-110160559D01*
X57201692Y-110129743D01*
X57193168Y-110105833D01*
X57187689Y-110090480D01*
X57185917Y-110085531D01*
X57183879Y-110077541D01*
X57183996Y-110076397D01*
X57182031Y-110070677D01*
X57176433Y-110059714D01*
X57170075Y-110047689D01*
X57167266Y-110041445D01*
X57164485Y-110033828D01*
X57162580Y-110029266D01*
X57161721Y-110027145D01*
X57160266Y-110023318D01*
X57158022Y-110017240D01*
X57154795Y-110008367D01*
X57150391Y-109996154D01*
X57144616Y-109980056D01*
X57137276Y-109959528D01*
X57128178Y-109934027D01*
X57117127Y-109903006D01*
X57103930Y-109865921D01*
X57088393Y-109822228D01*
X57070322Y-109771382D01*
X57049523Y-109712838D01*
X57025803Y-109646052D01*
X56998967Y-109570479D01*
X56968822Y-109485573D01*
X56935173Y-109390791D01*
X56897828Y-109285587D01*
X56859181Y-109176713D01*
X56834526Y-109107029D01*
X56810667Y-109039165D01*
X56787988Y-108974235D01*
X56766870Y-108913352D01*
X56747695Y-108857630D01*
X56730846Y-108808184D01*
X56716704Y-108766128D01*
X56705653Y-108732577D01*
X56698075Y-108708643D01*
X56695166Y-108698674D01*
X56684229Y-108656696D01*
X56678240Y-108631745D01*
X59029265Y-108631745D01*
X59030323Y-108637908D01*
X59034740Y-108654159D01*
X59042044Y-108679024D01*
X59051764Y-108711030D01*
X59063428Y-108748704D01*
X59076565Y-108790570D01*
X59090703Y-108835157D01*
X59105371Y-108880991D01*
X59120097Y-108926597D01*
X59134410Y-108970503D01*
X59147838Y-109011234D01*
X59159909Y-109047318D01*
X59170153Y-109077281D01*
X59178097Y-109099649D01*
X59183192Y-109112771D01*
X59187378Y-109124018D01*
X59194462Y-109144847D01*
X59203770Y-109173195D01*
X59214626Y-109207000D01*
X59226356Y-109244202D01*
X59229047Y-109252833D01*
X59266950Y-109374627D01*
X60010670Y-109372784D01*
X60109554Y-109372507D01*
X60208145Y-109372169D01*
X60305402Y-109371778D01*
X60400287Y-109371340D01*
X60491760Y-109370862D01*
X60578781Y-109370350D01*
X60660312Y-109369810D01*
X60735312Y-109369251D01*
X60802743Y-109368677D01*
X60861565Y-109368096D01*
X60910738Y-109367515D01*
X60949223Y-109366940D01*
X60962364Y-109366694D01*
X61170337Y-109362447D01*
X61053882Y-108992556D01*
X60937428Y-108622664D01*
X59984221Y-108626499D01*
X59877456Y-108626937D01*
X59774029Y-108627379D01*
X59674594Y-108627821D01*
X59579804Y-108628259D01*
X59490312Y-108628690D01*
X59406772Y-108629110D01*
X59329836Y-108629516D01*
X59260158Y-108629904D01*
X59198392Y-108630270D01*
X59145189Y-108630612D01*
X59101205Y-108630924D01*
X59067091Y-108631204D01*
X59043501Y-108631448D01*
X59031089Y-108631653D01*
X59029265Y-108631745D01*
X56678240Y-108631745D01*
X56675059Y-108618490D01*
X56667994Y-108585719D01*
X56663374Y-108560047D01*
X56661538Y-108543137D01*
X56662227Y-108537148D01*
X56661121Y-108529849D01*
X56659189Y-108528224D01*
X56656566Y-108520701D01*
X56654554Y-108503030D01*
X56653318Y-108477235D01*
X56653000Y-108452531D01*
X56655873Y-108389575D01*
X56664083Y-108327790D01*
X56677010Y-108270556D01*
X56694037Y-108221255D01*
X56696173Y-108216373D01*
X56705008Y-108195534D01*
X56711358Y-108178366D01*
X56713893Y-108168477D01*
X56713896Y-108168305D01*
X56717373Y-108160572D01*
X56719986Y-108159738D01*
X56725460Y-108154838D01*
X56726076Y-108151039D01*
X56729994Y-108139324D01*
X56733718Y-108134292D01*
X56740870Y-108125373D01*
X56752305Y-108109692D01*
X56765560Y-108090626D01*
X56765689Y-108090437D01*
X56794445Y-108054800D01*
X56831874Y-108018474D01*
X56874912Y-107984023D01*
X56920497Y-107954012D01*
X56944371Y-107940919D01*
X56959207Y-107932803D01*
X56967788Y-107926955D01*
X56968726Y-107925364D01*
X56962305Y-107923729D01*
X56945913Y-107920566D01*
X56921609Y-107916246D01*
X56891452Y-107911138D01*
X56869178Y-107907488D01*
X56833089Y-107901259D01*
X56798451Y-107894578D01*
X56768301Y-107888079D01*
X56745676Y-107882398D01*
X56738255Y-107880105D01*
X56711758Y-107871197D01*
X56683054Y-107861967D01*
X56671269Y-107858323D01*
X56625671Y-107840907D01*
X56575665Y-107815639D01*
X56524170Y-107784394D01*
X56474105Y-107749047D01*
X56428391Y-107711474D01*
X56399526Y-107683800D01*
X56372921Y-107653595D01*
X56344558Y-107616950D01*
X56316811Y-107577319D01*
X56292056Y-107538153D01*
X56272668Y-107502906D01*
X56267429Y-107491772D01*
X56261499Y-107476965D01*
X56252342Y-107452261D01*
X56240545Y-107419330D01*
X56226696Y-107379840D01*
X56211381Y-107335463D01*
X56195188Y-107287866D01*
X56183895Y-107254275D01*
X56168146Y-107207212D01*
X56153590Y-107163748D01*
X56140686Y-107125251D01*
X56129894Y-107093089D01*
X56121673Y-107068632D01*
X56116482Y-107053247D01*
X56114812Y-107048374D01*
X56112369Y-107037651D01*
X56112315Y-107036876D01*
X56107629Y-107028921D01*
X56105994Y-107027718D01*
X56103165Y-107021498D01*
X56096777Y-107004587D01*
X56087128Y-106977847D01*
X56074518Y-106942141D01*
X56059244Y-106898329D01*
X56041605Y-106847273D01*
X56021899Y-106789836D01*
X56000424Y-106726879D01*
X55977478Y-106659264D01*
X55953361Y-106587853D01*
X55940285Y-106548999D01*
X55914636Y-106472780D01*
X55889275Y-106397593D01*
X55864587Y-106324573D01*
X55840960Y-106254854D01*
X55818780Y-106189573D01*
X55798433Y-106129864D01*
X55791655Y-106110047D01*
X58047103Y-106110047D01*
X58052630Y-106119029D01*
X58053272Y-106121158D01*
X58053365Y-106122082D01*
X58053451Y-106122882D01*
X58053829Y-106124488D01*
X58054801Y-106127830D01*
X58056665Y-106133837D01*
X58059723Y-106143440D01*
X58064275Y-106157568D01*
X58070620Y-106177151D01*
X58079059Y-106203119D01*
X58089893Y-106236402D01*
X58103420Y-106277929D01*
X58119942Y-106328631D01*
X58139759Y-106389437D01*
X58153067Y-106430273D01*
X58172394Y-106489594D01*
X58191228Y-106547434D01*
X58209101Y-106602352D01*
X58225544Y-106652908D01*
X58240090Y-106697661D01*
X58252271Y-106735172D01*
X58261616Y-106763999D01*
X58267659Y-106782702D01*
X58267704Y-106782840D01*
X58288075Y-106846148D01*
X59235018Y-106841697D01*
X59341426Y-106841187D01*
X59444493Y-106840671D01*
X59543564Y-106840155D01*
X59637982Y-106839643D01*
X59727094Y-106839138D01*
X59810243Y-106838646D01*
X59886775Y-106838170D01*
X59956033Y-106837714D01*
X60017362Y-106837284D01*
X60070108Y-106836883D01*
X60113614Y-106836515D01*
X60147226Y-106836185D01*
X60170288Y-106835896D01*
X60182144Y-106835654D01*
X60183664Y-106835554D01*
X60182293Y-106829565D01*
X60177621Y-106813335D01*
X60170064Y-106788222D01*
X60160038Y-106755582D01*
X60147959Y-106716774D01*
X60134244Y-106673154D01*
X60123635Y-106639679D01*
X60105320Y-106582036D01*
X60085021Y-106518103D01*
X60063872Y-106451453D01*
X60043006Y-106385658D01*
X60023556Y-106324288D01*
X60006655Y-106270916D01*
X60006498Y-106270419D01*
X59951092Y-106095341D01*
X59567174Y-106095345D01*
X59454882Y-106095403D01*
X59342488Y-106095572D01*
X59230644Y-106095845D01*
X59120005Y-106096216D01*
X59011226Y-106096678D01*
X58904961Y-106097226D01*
X58801864Y-106097852D01*
X58702589Y-106098551D01*
X58607791Y-106099316D01*
X58518125Y-106100141D01*
X58434244Y-106101020D01*
X58356803Y-106101946D01*
X58286456Y-106102912D01*
X58223857Y-106103913D01*
X58169661Y-106104943D01*
X58124522Y-106105994D01*
X58089095Y-106107061D01*
X58064033Y-106108137D01*
X58049992Y-106109216D01*
X58047103Y-106110047D01*
X55791655Y-106110047D01*
X55780306Y-106076864D01*
X55764785Y-106031706D01*
X55752257Y-105995527D01*
X55743108Y-105969462D01*
X55741306Y-105964413D01*
X55727924Y-105926881D01*
X55711716Y-105881032D01*
X55693805Y-105830070D01*
X55675317Y-105777199D01*
X55657374Y-105725624D01*
X55647363Y-105696706D01*
X55632776Y-105654861D01*
X55619182Y-105616603D01*
X55607162Y-105583502D01*
X55597294Y-105557134D01*
X55590160Y-105539070D01*
X55586336Y-105530885D01*
X55586242Y-105530762D01*
X55582854Y-105524131D01*
X55584263Y-105522913D01*
X55584811Y-105519166D01*
X55581218Y-105513778D01*
X55576967Y-105506414D01*
X55578173Y-105504644D01*
X55579215Y-105500888D01*
X55576903Y-105497031D01*
X55572492Y-105487971D01*
X55565232Y-105469421D01*
X55555853Y-105443535D01*
X55545083Y-105412466D01*
X55533650Y-105378366D01*
X55522284Y-105343389D01*
X55511713Y-105309688D01*
X55502666Y-105279416D01*
X55499589Y-105268577D01*
X55491310Y-105233645D01*
X55483331Y-105190762D01*
X55476209Y-105143959D01*
X55470504Y-105097267D01*
X55466775Y-105054714D01*
X55465570Y-105023307D01*
X55466774Y-104994867D01*
X55470139Y-104958130D01*
X55475174Y-104916687D01*
X55481391Y-104874128D01*
X55488303Y-104834045D01*
X55495421Y-104800029D01*
X55496594Y-104795197D01*
X55521157Y-104715804D01*
X55555184Y-104634852D01*
X55597045Y-104555814D01*
X55640098Y-104489152D01*
X55697933Y-104417910D01*
X55765302Y-104353001D01*
X55840861Y-104295277D01*
X55923268Y-104245594D01*
X56011177Y-104204805D01*
X56103246Y-104173765D01*
X56156576Y-104160864D01*
X56229768Y-104145654D01*
X60312889Y-104127911D01*
X60537023Y-104126941D01*
X60758725Y-104125989D01*
X60977658Y-104125058D01*
X61193484Y-104124148D01*
X61405867Y-104123260D01*
X61614469Y-104122395D01*
X61818953Y-104121556D01*
X62018982Y-104120742D01*
X62214219Y-104119956D01*
X62404327Y-104119199D01*
X62588968Y-104118471D01*
X62767806Y-104117775D01*
X62940503Y-104117111D01*
X63106722Y-104116480D01*
X63266126Y-104115885D01*
X63418378Y-104115325D01*
X63563141Y-104114803D01*
X63700078Y-104114320D01*
X63828851Y-104113876D01*
X63949124Y-104113473D01*
X64060558Y-104113113D01*
X64162818Y-104112797D01*
X64255566Y-104112525D01*
X64338465Y-104112299D01*
X64411177Y-104112121D01*
X64473366Y-104111992D01*
X64524694Y-104111912D01*
X64564825Y-104111883D01*
X64593421Y-104111907D01*
G37*
D10*
%TO.C,R6*%
X122980000Y-88020000D02*
X122980000Y-90560000D01*
X122980000Y-88020000D02*
X124250000Y-88020000D01*
X122980000Y-90560000D02*
X124250000Y-90560000D01*
X124250000Y-88020000D02*
X134410000Y-88020000D01*
X124250000Y-90560000D02*
X134410000Y-90560000D01*
X134410000Y-88020000D02*
X135680000Y-88020000D01*
X134410000Y-90560000D02*
X135680000Y-90560000D01*
X135680000Y-89290000D02*
X135680000Y-88020000D01*
X135680000Y-90560000D02*
X135680000Y-89290000D01*
%TO.C,I10*%
X68385000Y-71570000D02*
X69485000Y-72645000D01*
X69505000Y-71550000D02*
X51175000Y-71550000D01*
X51175000Y-81690000D01*
X69505000Y-81690000D01*
X69505000Y-71550000D01*
%TO.C,Q1*%
X141930000Y-71570000D02*
X140650000Y-72810000D01*
D13*
X144440000Y-74756518D02*
X142488779Y-74756518D01*
D10*
X146290000Y-78550000D02*
X140650000Y-78550000D01*
X140650000Y-71560000D01*
X146290000Y-71560000D01*
X146290000Y-78550000D01*
D13*
X143460000Y-76250000D02*
G75*
G02*
X142488826Y-74756539I0J1062500D01*
G01*
X144440000Y-74756518D02*
G75*
G02*
X143468779Y-76249999I-971219J-430946D01*
G01*
D10*
%TO.C,I2*%
X189206000Y-83542500D02*
X190306000Y-84617500D01*
X190321000Y-83542500D02*
X159301000Y-83542500D01*
X159301000Y-101322500D01*
X190321000Y-101322500D01*
X190321000Y-83542500D01*
%TO.C,I11*%
X89900000Y-71570000D02*
X91000000Y-72645000D01*
X91020000Y-71550000D02*
X72690000Y-71550000D01*
X72690000Y-81690000D01*
X91020000Y-81690000D01*
X91020000Y-71550000D01*
%TO.C,I7*%
X111996000Y-91210000D02*
X113096000Y-92285000D01*
X113116000Y-91190000D02*
X94786000Y-91190000D01*
X94786000Y-101330000D01*
X113116000Y-101330000D01*
X113116000Y-91190000D01*
%TO.C,M1*%
X100925000Y-114460000D02*
X93255000Y-114460000D01*
X93255000Y-117020000D01*
X100925000Y-117020000D01*
X100925000Y-114460000D01*
%TO.C,C41*%
X241710000Y-105612500D02*
X241710000Y-113232500D01*
X241710000Y-105612500D02*
X244250000Y-105612500D01*
X241710000Y-113232500D02*
X244250000Y-113232500D01*
X244250000Y-113232500D02*
X244250000Y-105612500D01*
%TO.C,I13*%
X126475000Y-110095000D02*
X127575000Y-111170000D01*
X127580000Y-110090000D02*
X106700000Y-110090000D01*
X106700000Y-120200000D01*
X127580000Y-120200000D01*
X127580000Y-110090000D01*
%TO.C,I6*%
X90026000Y-91210000D02*
X91126000Y-92285000D01*
X91146000Y-91190000D02*
X72816000Y-91190000D01*
X72816000Y-101330000D01*
X91146000Y-101330000D01*
X91146000Y-91190000D01*
%TO.C,M3*%
X87930000Y-119200000D02*
X80260000Y-119200000D01*
X80260000Y-121760000D01*
X87930000Y-121760000D01*
X87930000Y-119200000D01*
%TO.C,I17*%
X155593500Y-91210000D02*
X156693500Y-92285000D01*
X156713500Y-91190000D02*
X138383500Y-91190000D01*
X138383500Y-101330000D01*
X156713500Y-101330000D01*
X156713500Y-91190000D01*
%TO.C,I4*%
X234995000Y-71642500D02*
X236095000Y-72717500D01*
X236135000Y-71642500D02*
X200010000Y-71642500D01*
X200010000Y-89422500D01*
X236135000Y-89422500D01*
X236135000Y-71642500D01*
%TO.C,C44*%
X91640000Y-72810000D02*
X91640000Y-80430000D01*
X91640000Y-72810000D02*
X94180000Y-72810000D01*
X91640000Y-80430000D02*
X94180000Y-80430000D01*
X94180000Y-80430000D02*
X94180000Y-72810000D01*
%TO.C,I18*%
X134570000Y-71570000D02*
X135670000Y-72645000D01*
X135690000Y-71550000D02*
X117360000Y-71550000D01*
X117360000Y-81690000D01*
X135690000Y-81690000D01*
X135690000Y-71550000D01*
%TO.C,I1*%
X226130000Y-92447500D02*
X227230000Y-93522500D01*
X227230000Y-92442500D02*
X201295000Y-92442500D01*
X201295000Y-102592500D01*
X227230000Y-102592500D01*
X227230000Y-92442500D01*
%TO.C,R8*%
X153710000Y-74790000D02*
X153710000Y-77330000D01*
X153710000Y-74790000D02*
X154980000Y-74790000D01*
X153710000Y-77330000D02*
X154980000Y-77330000D01*
X154980000Y-74790000D02*
X165140000Y-74790000D01*
X154980000Y-77330000D02*
X165140000Y-77330000D01*
X165140000Y-74790000D02*
X166410000Y-74790000D01*
X165140000Y-77330000D02*
X166410000Y-77330000D01*
X166410000Y-76060000D02*
X166410000Y-74790000D01*
X166410000Y-77330000D02*
X166410000Y-76060000D01*
%TO.C,M8*%
X238530000Y-88972500D02*
X238530000Y-91522500D01*
X238530000Y-93222500D02*
X238530000Y-95722500D01*
X241830000Y-97622500D02*
X245030000Y-97622500D01*
X245030000Y-87022500D02*
X241930000Y-87022500D01*
%TO.C,M2*%
X100990000Y-119200000D02*
X93320000Y-119200000D01*
X93320000Y-121760000D01*
X100990000Y-121760000D01*
X100990000Y-119200000D01*
%TO.C,R7*%
X136970000Y-85090000D02*
X136970000Y-87630000D01*
X136970000Y-85090000D02*
X138240000Y-85090000D01*
X136970000Y-87630000D02*
X138240000Y-87630000D01*
X138240000Y-85090000D02*
X148400000Y-85090000D01*
X138240000Y-87630000D02*
X148400000Y-87630000D01*
X148400000Y-85090000D02*
X149670000Y-85090000D01*
X148400000Y-87630000D02*
X149670000Y-87630000D01*
X149670000Y-86360000D02*
X149670000Y-85090000D01*
X149670000Y-87630000D02*
X149670000Y-86360000D01*
%TO.C,R9*%
X122970000Y-85030000D02*
X122970000Y-87570000D01*
X122970000Y-85030000D02*
X124240000Y-85030000D01*
X122970000Y-87570000D02*
X124240000Y-87570000D01*
X124240000Y-85030000D02*
X134400000Y-85030000D01*
X124240000Y-87570000D02*
X134400000Y-87570000D01*
X134400000Y-85030000D02*
X135670000Y-85030000D01*
X134400000Y-87570000D02*
X135670000Y-87570000D01*
X135670000Y-86300000D02*
X135670000Y-85030000D01*
X135670000Y-87570000D02*
X135670000Y-86300000D01*
%TD*%
M02*
